M48
;Layer_Color=9474304
;FILE_FORMAT=4:4
METRIC,TZ
;TYPE=PLATED
T1F00S00C0.3000
T2F00S00C0.8001
T3F00S00C0.9000
T4F00S00C1.0000
T5F00S00C1.1176
T6F00S00C4.0000
%
T01
X87500Y122500
X205000Y145000
X315000Y225000
X115000Y272500
X97500Y277500
X50000Y245000
Y322500
X75000Y365000
X17500Y390000
X90999Y151501
X100000Y152500
T02
X59999Y430000
X90001
T03
X17500Y245500
Y270900
Y296300
Y321700
Y347100
Y372500
T04
X60001Y40001
X104999
Y104999
X60001
X157501
X202499
X257501
X302499
Y40001
X257501
X202499
X157501
T05
X72900Y259900
Y285300
Y310700
Y336100
T06
X327500Y415000
M30
