G04*
G04 #@! TF.GenerationSoftware,Altium Limited,Altium Designer,18.0.9 (584)*
G04*
G04 Layer_Color=32896*
%FSLAX44Y44*%
%MOMM*%
G71*
G01*
G75*
%ADD10C,0.2032*%
%ADD12C,0.1270*%
%ADD30C,0.2540*%
G36*
X110643Y320895D02*
X110806Y320881D01*
X110895D01*
X110970Y320866D01*
X111133Y320851D01*
X111312Y320821D01*
X111356D01*
X111401Y320806D01*
X111475D01*
X111623Y320776D01*
X111802Y320747D01*
X111846D01*
X111891Y320732D01*
X111950Y320717D01*
X112099Y320687D01*
X112262Y320658D01*
Y319647D01*
X112248D01*
X112173Y319677D01*
X112084Y319692D01*
X111950Y319722D01*
X111802Y319751D01*
X111638Y319796D01*
X111282Y319855D01*
X111267D01*
X111193Y319870D01*
X111103Y319885D01*
X110985Y319900D01*
X110836D01*
X110673Y319915D01*
X110331Y319930D01*
X110167D01*
X110004Y319915D01*
X109796Y319885D01*
X109558Y319855D01*
X109320Y319796D01*
X109097Y319707D01*
X108904Y319603D01*
X108890Y319588D01*
X108830Y319543D01*
X108771Y319469D01*
X108681Y319365D01*
X108607Y319246D01*
X108533Y319097D01*
X108473Y318919D01*
X108459Y318726D01*
Y318711D01*
Y318666D01*
X108473Y318607D01*
X108488Y318533D01*
X108533Y318340D01*
X108577Y318250D01*
X108637Y318146D01*
X108652Y318132D01*
X108667Y318102D01*
X108711Y318057D01*
X108771Y317998D01*
X108919Y317864D01*
X109127Y317715D01*
X109142Y317701D01*
X109187Y317686D01*
X109246Y317656D01*
X109335Y317612D01*
X109439Y317552D01*
X109558Y317493D01*
X109826Y317374D01*
X109840D01*
X109900Y317344D01*
X109974Y317314D01*
X110063Y317285D01*
X110182Y317225D01*
X110316Y317181D01*
X110613Y317047D01*
X110628D01*
X110687Y317017D01*
X110762Y316987D01*
X110866Y316943D01*
X110999Y316883D01*
X111133Y316824D01*
X111416Y316690D01*
X111430Y316675D01*
X111475Y316660D01*
X111549Y316616D01*
X111653Y316556D01*
X111861Y316408D01*
X112099Y316230D01*
X112114Y316215D01*
X112158Y316185D01*
X112203Y316126D01*
X112277Y316051D01*
X112367Y315962D01*
X112441Y315843D01*
X112604Y315591D01*
X112619Y315576D01*
X112634Y315531D01*
X112664Y315457D01*
X112708Y315353D01*
X112738Y315234D01*
X112768Y315086D01*
X112782Y314922D01*
X112797Y314744D01*
Y314714D01*
Y314640D01*
X112782Y314536D01*
X112768Y314387D01*
X112738Y314224D01*
X112693Y314060D01*
X112634Y313882D01*
X112545Y313704D01*
X112530Y313689D01*
X112500Y313629D01*
X112441Y313540D01*
X112367Y313451D01*
X112277Y313332D01*
X112158Y313198D01*
X112025Y313079D01*
X111876Y312961D01*
X111861Y312946D01*
X111802Y312916D01*
X111713Y312857D01*
X111579Y312797D01*
X111430Y312723D01*
X111252Y312649D01*
X111059Y312574D01*
X110836Y312515D01*
X110806D01*
X110732Y312500D01*
X110613Y312470D01*
X110450Y312455D01*
X110257Y312426D01*
X110034Y312396D01*
X109781Y312381D01*
X109305D01*
X109201Y312396D01*
X109083D01*
X108845Y312411D01*
X108785D01*
X108726Y312426D01*
X108652D01*
X108444Y312455D01*
X108221Y312470D01*
X108176D01*
X108117Y312485D01*
X108042Y312500D01*
X107864Y312515D01*
X107656Y312559D01*
X107641D01*
X107612Y312574D01*
X107567Y312589D01*
X107493Y312604D01*
X107344Y312634D01*
X107181Y312678D01*
Y313763D01*
X107196Y313748D01*
X107270Y313733D01*
X107359Y313704D01*
X107493Y313659D01*
X107641Y313600D01*
X107820Y313555D01*
X108028Y313510D01*
X108236Y313466D01*
X108265D01*
X108340Y313451D01*
X108459Y313436D01*
X108622Y313421D01*
X108830Y313406D01*
X109053Y313391D01*
X109305Y313377D01*
X109781D01*
X109915Y313391D01*
X110063D01*
X110212Y313406D01*
X110375Y313421D01*
X110524Y313451D01*
X110539D01*
X110583Y313466D01*
X110658Y313496D01*
X110747Y313510D01*
X110955Y313600D01*
X111148Y313704D01*
X111163Y313718D01*
X111193Y313733D01*
X111282Y313822D01*
X111401Y313956D01*
X111505Y314120D01*
Y314135D01*
X111519Y314164D01*
X111549Y314209D01*
X111564Y314283D01*
X111609Y314447D01*
X111623Y314669D01*
Y314684D01*
Y314729D01*
X111609Y314788D01*
X111594Y314877D01*
X111549Y315056D01*
X111490Y315160D01*
X111430Y315249D01*
X111416Y315264D01*
X111401Y315294D01*
X111356Y315338D01*
X111297Y315397D01*
X111133Y315531D01*
X110925Y315665D01*
X110910Y315680D01*
X110881Y315695D01*
X110806Y315739D01*
X110732Y315784D01*
X110628Y315828D01*
X110509Y315888D01*
X110242Y316007D01*
X110227Y316022D01*
X110182Y316036D01*
X110093Y316066D01*
X110004Y316111D01*
X109870Y316155D01*
X109736Y316215D01*
X109439Y316334D01*
X109424Y316348D01*
X109365Y316363D01*
X109291Y316393D01*
X109187Y316438D01*
X109068Y316497D01*
X108934Y316556D01*
X108652Y316690D01*
X108637Y316705D01*
X108592Y316720D01*
X108518Y316765D01*
X108414Y316824D01*
X108191Y316973D01*
X107953Y317151D01*
X107938Y317166D01*
X107909Y317195D01*
X107849Y317255D01*
X107775Y317329D01*
X107701Y317418D01*
X107626Y317522D01*
X107463Y317775D01*
Y317790D01*
X107433Y317834D01*
X107404Y317909D01*
X107374Y318013D01*
X107344Y318132D01*
X107314Y318280D01*
X107300Y318444D01*
X107285Y318622D01*
Y318637D01*
Y318696D01*
X107300Y318771D01*
Y318889D01*
X107329Y319008D01*
X107359Y319142D01*
X107389Y319305D01*
X107448Y319454D01*
X107463Y319469D01*
X107478Y319528D01*
X107522Y319603D01*
X107582Y319707D01*
X107656Y319811D01*
X107760Y319944D01*
X107864Y320063D01*
X107998Y320182D01*
X108013Y320197D01*
X108072Y320242D01*
X108146Y320301D01*
X108265Y320375D01*
X108399Y320450D01*
X108563Y320539D01*
X108756Y320628D01*
X108964Y320702D01*
X108994Y320717D01*
X109068Y320732D01*
X109201Y320762D01*
X109365Y320806D01*
X109573Y320851D01*
X109811Y320881D01*
X110063Y320895D01*
X110360Y320910D01*
X110494D01*
X110643Y320895D01*
D02*
G37*
G36*
X99023Y312500D02*
X97923D01*
X97760Y317686D01*
X97686Y319647D01*
X97299Y318503D01*
X96066Y315204D01*
X95279D01*
X94120Y318369D01*
X93733Y319647D01*
X93704Y317597D01*
X93570Y312500D01*
X92500D01*
X92901Y320791D01*
X94239D01*
X95353Y317656D01*
X95724Y316601D01*
X96066Y317656D01*
X97255Y320791D01*
X98622D01*
X99023Y312500D01*
D02*
G37*
G36*
X105398Y319840D02*
X103481D01*
Y313466D01*
X105398D01*
Y312500D01*
X100420D01*
Y313466D01*
X102337D01*
Y319840D01*
X100420D01*
Y320791D01*
X105398D01*
Y319840D01*
D02*
G37*
G36*
X117537Y320895D02*
X117731Y320881D01*
X117954Y320836D01*
X118176Y320791D01*
X118429Y320717D01*
X118652Y320613D01*
X118682Y320598D01*
X118756Y320554D01*
X118860Y320494D01*
X118994Y320390D01*
X119157Y320271D01*
X119320Y320137D01*
X119484Y319959D01*
X119633Y319766D01*
X119647Y319736D01*
X119692Y319677D01*
X119766Y319558D01*
X119855Y319395D01*
X119959Y319201D01*
X120049Y318979D01*
X120153Y318726D01*
X120227Y318444D01*
Y318429D01*
X120242Y318414D01*
Y318369D01*
X120257Y318310D01*
X120286Y318146D01*
X120331Y317938D01*
X120375Y317671D01*
X120405Y317374D01*
X120420Y317047D01*
X120435Y316690D01*
Y316675D01*
Y316646D01*
Y316586D01*
Y316497D01*
X120420Y316408D01*
Y316289D01*
X120405Y316036D01*
X120375Y315724D01*
X120316Y315412D01*
X120257Y315071D01*
X120168Y314759D01*
Y314744D01*
X120153Y314729D01*
X120138Y314684D01*
X120123Y314625D01*
X120063Y314476D01*
X119974Y314298D01*
X119870Y314075D01*
X119751Y313852D01*
X119618Y313629D01*
X119454Y313421D01*
X119439Y313391D01*
X119380Y313332D01*
X119276Y313243D01*
X119157Y313124D01*
X119008Y312990D01*
X118815Y312857D01*
X118622Y312738D01*
X118399Y312634D01*
X118370Y312619D01*
X118295Y312589D01*
X118176Y312559D01*
X118013Y312515D01*
X117835Y312455D01*
X117612Y312426D01*
X117389Y312396D01*
X117136Y312381D01*
X117002D01*
X116854Y312396D01*
X116661Y312411D01*
X116438Y312455D01*
X116215Y312500D01*
X115977Y312574D01*
X115739Y312663D01*
X115710Y312678D01*
X115635Y312723D01*
X115531Y312782D01*
X115398Y312871D01*
X115234Y312990D01*
X115071Y313139D01*
X114907Y313302D01*
X114744Y313496D01*
X114729Y313525D01*
X114684Y313600D01*
X114610Y313704D01*
X114521Y313867D01*
X114432Y314060D01*
X114343Y314283D01*
X114239Y314536D01*
X114164Y314818D01*
Y314833D01*
Y314848D01*
X114150Y314892D01*
X114135Y314952D01*
X114120Y315026D01*
X114105Y315115D01*
X114075Y315338D01*
X114045Y315606D01*
X114016Y315903D01*
X114001Y316245D01*
X113986Y316601D01*
Y316616D01*
Y316646D01*
Y316705D01*
Y316779D01*
X114001Y316883D01*
Y316987D01*
X114016Y317255D01*
X114045Y317552D01*
X114090Y317879D01*
X114150Y318206D01*
X114239Y318518D01*
Y318533D01*
X114254Y318548D01*
X114268Y318592D01*
X114283Y318652D01*
X114343Y318800D01*
X114432Y318993D01*
X114536Y319201D01*
X114655Y319424D01*
X114789Y319647D01*
X114952Y319855D01*
X114967Y319885D01*
X115026Y319944D01*
X115130Y320033D01*
X115249Y320152D01*
X115398Y320286D01*
X115576Y320420D01*
X115784Y320539D01*
X115992Y320643D01*
X116022Y320658D01*
X116096Y320687D01*
X116215Y320732D01*
X116378Y320776D01*
X116557Y320821D01*
X116780Y320866D01*
X117002Y320895D01*
X117255Y320910D01*
X117389D01*
X117537Y320895D01*
D02*
G37*
G36*
X105962Y358395D02*
X106126Y358381D01*
X106215D01*
X106289Y358366D01*
X106453Y358351D01*
X106631Y358321D01*
X106675D01*
X106720Y358306D01*
X106794D01*
X106943Y358276D01*
X107121Y358247D01*
X107166D01*
X107210Y358232D01*
X107270Y358217D01*
X107418Y358187D01*
X107582Y358158D01*
Y357147D01*
X107567D01*
X107493Y357177D01*
X107403Y357192D01*
X107270Y357221D01*
X107121Y357251D01*
X106958Y357296D01*
X106601Y357355D01*
X106586D01*
X106512Y357370D01*
X106423Y357385D01*
X106304Y357400D01*
X106155D01*
X105992Y357415D01*
X105650Y357430D01*
X105487D01*
X105323Y357415D01*
X105115Y357385D01*
X104877Y357355D01*
X104640Y357296D01*
X104417Y357207D01*
X104224Y357103D01*
X104209Y357088D01*
X104149Y357043D01*
X104090Y356969D01*
X104001Y356865D01*
X103926Y356746D01*
X103852Y356597D01*
X103793Y356419D01*
X103778Y356226D01*
Y356211D01*
Y356166D01*
X103793Y356107D01*
X103808Y356033D01*
X103852Y355840D01*
X103897Y355750D01*
X103956Y355646D01*
X103971Y355632D01*
X103986Y355602D01*
X104031Y355557D01*
X104090Y355498D01*
X104239Y355364D01*
X104446Y355215D01*
X104461Y355201D01*
X104506Y355186D01*
X104565Y355156D01*
X104655Y355112D01*
X104759Y355052D01*
X104877Y354993D01*
X105145Y354874D01*
X105160D01*
X105219Y354844D01*
X105294Y354814D01*
X105383Y354785D01*
X105501Y354725D01*
X105635Y354681D01*
X105932Y354547D01*
X105947D01*
X106007Y354517D01*
X106081Y354487D01*
X106185Y354443D01*
X106319Y354383D01*
X106453Y354324D01*
X106735Y354190D01*
X106750Y354175D01*
X106794Y354160D01*
X106868Y354116D01*
X106973Y354057D01*
X107181Y353908D01*
X107418Y353730D01*
X107433Y353715D01*
X107478Y353685D01*
X107522Y353626D01*
X107597Y353551D01*
X107686Y353462D01*
X107760Y353343D01*
X107923Y353091D01*
X107938Y353076D01*
X107953Y353031D01*
X107983Y352957D01*
X108027Y352853D01*
X108057Y352734D01*
X108087Y352585D01*
X108102Y352422D01*
X108117Y352244D01*
Y352214D01*
Y352140D01*
X108102Y352036D01*
X108087Y351887D01*
X108057Y351724D01*
X108013Y351560D01*
X107953Y351382D01*
X107864Y351204D01*
X107849Y351189D01*
X107819Y351129D01*
X107760Y351040D01*
X107686Y350951D01*
X107597Y350832D01*
X107478Y350698D01*
X107344Y350579D01*
X107195Y350461D01*
X107181Y350446D01*
X107121Y350416D01*
X107032Y350357D01*
X106898Y350297D01*
X106750Y350223D01*
X106571Y350149D01*
X106378Y350074D01*
X106155Y350015D01*
X106126D01*
X106051Y350000D01*
X105932Y349970D01*
X105769Y349955D01*
X105576Y349926D01*
X105353Y349896D01*
X105100Y349881D01*
X104625D01*
X104521Y349896D01*
X104402D01*
X104164Y349911D01*
X104105D01*
X104045Y349926D01*
X103971D01*
X103763Y349955D01*
X103540Y349970D01*
X103496D01*
X103436Y349985D01*
X103362Y350000D01*
X103183Y350015D01*
X102976Y350059D01*
X102961D01*
X102931Y350074D01*
X102886Y350089D01*
X102812Y350104D01*
X102663Y350134D01*
X102500Y350178D01*
Y351263D01*
X102515Y351248D01*
X102589Y351233D01*
X102678Y351204D01*
X102812Y351159D01*
X102961Y351100D01*
X103139Y351055D01*
X103347Y351010D01*
X103555Y350966D01*
X103585D01*
X103659Y350951D01*
X103778Y350936D01*
X103941Y350921D01*
X104149Y350906D01*
X104372Y350892D01*
X104625Y350877D01*
X105100D01*
X105234Y350892D01*
X105383D01*
X105531Y350906D01*
X105695Y350921D01*
X105843Y350951D01*
X105858D01*
X105903Y350966D01*
X105977Y350996D01*
X106066Y351010D01*
X106274Y351100D01*
X106467Y351204D01*
X106482Y351218D01*
X106512Y351233D01*
X106601Y351323D01*
X106720Y351456D01*
X106824Y351620D01*
Y351634D01*
X106839Y351664D01*
X106868Y351709D01*
X106883Y351783D01*
X106928Y351946D01*
X106943Y352169D01*
Y352184D01*
Y352229D01*
X106928Y352288D01*
X106913Y352378D01*
X106868Y352556D01*
X106809Y352660D01*
X106750Y352749D01*
X106735Y352764D01*
X106720Y352794D01*
X106675Y352838D01*
X106616Y352897D01*
X106453Y353031D01*
X106244Y353165D01*
X106230Y353180D01*
X106200Y353195D01*
X106126Y353239D01*
X106051Y353284D01*
X105947Y353328D01*
X105828Y353388D01*
X105561Y353507D01*
X105546Y353522D01*
X105501Y353536D01*
X105412Y353566D01*
X105323Y353611D01*
X105190Y353655D01*
X105056Y353715D01*
X104759Y353834D01*
X104744Y353848D01*
X104684Y353863D01*
X104610Y353893D01*
X104506Y353938D01*
X104387Y353997D01*
X104253Y354057D01*
X103971Y354190D01*
X103956Y354205D01*
X103912Y354220D01*
X103837Y354264D01*
X103733Y354324D01*
X103510Y354473D01*
X103273Y354651D01*
X103258Y354666D01*
X103228Y354696D01*
X103169Y354755D01*
X103094Y354829D01*
X103020Y354918D01*
X102946Y355022D01*
X102782Y355275D01*
Y355290D01*
X102753Y355334D01*
X102723Y355409D01*
X102693Y355513D01*
X102663Y355632D01*
X102634Y355780D01*
X102619Y355944D01*
X102604Y356122D01*
Y356137D01*
Y356196D01*
X102619Y356270D01*
Y356389D01*
X102649Y356508D01*
X102678Y356642D01*
X102708Y356805D01*
X102767Y356954D01*
X102782Y356969D01*
X102797Y357028D01*
X102842Y357103D01*
X102901Y357207D01*
X102976Y357311D01*
X103080Y357444D01*
X103183Y357563D01*
X103317Y357682D01*
X103332Y357697D01*
X103392Y357742D01*
X103466Y357801D01*
X103585Y357875D01*
X103718Y357950D01*
X103882Y358039D01*
X104075Y358128D01*
X104283Y358202D01*
X104313Y358217D01*
X104387Y358232D01*
X104521Y358262D01*
X104684Y358306D01*
X104892Y358351D01*
X105130Y358381D01*
X105383Y358395D01*
X105680Y358410D01*
X105814D01*
X105962Y358395D01*
D02*
G37*
G36*
X113585Y358381D02*
X113748Y358366D01*
X113927Y358351D01*
X114298Y358291D01*
X114328D01*
X114387Y358276D01*
X114476Y358247D01*
X114610Y358217D01*
X114759Y358172D01*
X114922Y358128D01*
X115264Y357994D01*
Y356880D01*
X115249Y356895D01*
X115190Y356924D01*
X115086Y356969D01*
X114967Y357014D01*
X114833Y357073D01*
X114670Y357132D01*
X114313Y357251D01*
X114298D01*
X114224Y357266D01*
X114135Y357296D01*
X114001Y357326D01*
X113852Y357340D01*
X113674Y357370D01*
X113481Y357385D01*
X113169D01*
X113065Y357370D01*
X112931Y357355D01*
X112768Y357326D01*
X112589Y357296D01*
X112396Y357236D01*
X112218Y357162D01*
X112203Y357147D01*
X112143Y357118D01*
X112054Y357073D01*
X111936Y356999D01*
X111817Y356909D01*
X111668Y356805D01*
X111534Y356672D01*
X111400Y356523D01*
X111386Y356508D01*
X111341Y356449D01*
X111282Y356360D01*
X111222Y356241D01*
X111133Y356092D01*
X111044Y355929D01*
X110970Y355721D01*
X110895Y355513D01*
Y355483D01*
X110866Y355409D01*
X110851Y355290D01*
X110821Y355126D01*
X110791Y354918D01*
X110762Y354681D01*
X110747Y354428D01*
X110732Y354146D01*
Y354131D01*
Y354071D01*
Y353997D01*
X110747Y353878D01*
Y353745D01*
X110762Y353596D01*
X110791Y353418D01*
X110821Y353239D01*
X110895Y352853D01*
X111014Y352452D01*
X111178Y352065D01*
X111267Y351887D01*
X111386Y351724D01*
X111400Y351709D01*
X111415Y351694D01*
X111460Y351649D01*
X111505Y351590D01*
X111579Y351530D01*
X111653Y351471D01*
X111757Y351397D01*
X111876Y351323D01*
X112143Y351159D01*
X112470Y351040D01*
X112857Y350936D01*
X113080Y350921D01*
X113302Y350906D01*
X113496D01*
X113629Y350921D01*
X113778Y350936D01*
X113941Y350951D01*
X114313Y351025D01*
X114343D01*
X114402Y351055D01*
X114491Y351070D01*
X114610Y351114D01*
X114759Y351159D01*
X114922Y351233D01*
X115264Y351382D01*
Y350312D01*
X115249D01*
X115219Y350297D01*
X115160Y350267D01*
X115086Y350253D01*
X114996Y350223D01*
X114892Y350178D01*
X114759Y350149D01*
X114625Y350104D01*
X114313Y350030D01*
X113956Y349955D01*
X113570Y349911D01*
X113169Y349896D01*
X113005D01*
X112872Y349911D01*
X112738Y349926D01*
X112559Y349955D01*
X112366Y349985D01*
X112173Y350030D01*
X111950Y350074D01*
X111727Y350149D01*
X111505Y350238D01*
X111282Y350342D01*
X111059Y350461D01*
X110851Y350594D01*
X110643Y350758D01*
X110464Y350936D01*
X110450Y350951D01*
X110420Y350981D01*
X110375Y351040D01*
X110316Y351129D01*
X110241Y351248D01*
X110167Y351382D01*
X110078Y351530D01*
X110004Y351724D01*
X109915Y351932D01*
X109825Y352155D01*
X109751Y352407D01*
X109677Y352690D01*
X109618Y352987D01*
X109573Y353314D01*
X109543Y353670D01*
X109528Y354042D01*
Y354057D01*
Y354086D01*
Y354146D01*
Y354205D01*
X109543Y354294D01*
Y354398D01*
X109558Y354636D01*
X109588Y354918D01*
X109632Y355215D01*
X109692Y355528D01*
X109781Y355840D01*
Y355854D01*
X109796Y355869D01*
X109811Y355914D01*
X109825Y355973D01*
X109885Y356122D01*
X109974Y356315D01*
X110078Y356538D01*
X110212Y356761D01*
X110360Y356984D01*
X110524Y357207D01*
X110554Y357236D01*
X110613Y357296D01*
X110717Y357400D01*
X110851Y357533D01*
X111029Y357667D01*
X111222Y357816D01*
X111445Y357950D01*
X111698Y358083D01*
X111713D01*
X111727Y358098D01*
X111817Y358128D01*
X111965Y358187D01*
X112143Y358247D01*
X112366Y358291D01*
X112634Y358351D01*
X112916Y358381D01*
X113228Y358395D01*
X113436D01*
X113585Y358381D01*
D02*
G37*
G36*
X119320Y354339D02*
X122738Y350000D01*
X121326D01*
X118221Y354057D01*
Y350000D01*
X117092D01*
Y358291D01*
X118221D01*
Y354428D01*
X121252Y358291D01*
X122589D01*
X119320Y354339D01*
D02*
G37*
G36*
X309265Y320895D02*
X309428Y320881D01*
X309606Y320866D01*
X309978Y320806D01*
X310007D01*
X310067Y320791D01*
X310156Y320762D01*
X310290Y320732D01*
X310438Y320702D01*
X310602Y320643D01*
X310958Y320509D01*
Y319380D01*
X310944Y319395D01*
X310884Y319424D01*
X310780Y319469D01*
X310661Y319513D01*
X310513Y319573D01*
X310349Y319632D01*
X309993Y319751D01*
X309978D01*
X309904Y319781D01*
X309814Y319796D01*
X309681Y319825D01*
X309532Y319855D01*
X309354Y319870D01*
X309146Y319900D01*
X308819D01*
X308700Y319885D01*
X308536Y319870D01*
X308358Y319840D01*
X308150Y319796D01*
X307957Y319736D01*
X307749Y319662D01*
X307734Y319647D01*
X307660Y319618D01*
X307571Y319558D01*
X307452Y319484D01*
X307318Y319395D01*
X307169Y319276D01*
X307021Y319142D01*
X306887Y318993D01*
X306872Y318979D01*
X306828Y318919D01*
X306768Y318830D01*
X306694Y318696D01*
X306605Y318548D01*
X306516Y318369D01*
X306427Y318176D01*
X306352Y317953D01*
Y317924D01*
X306322Y317849D01*
X306293Y317730D01*
X306263Y317567D01*
X306233Y317374D01*
X306204Y317151D01*
X306189Y316898D01*
X306174Y316631D01*
Y316616D01*
Y316601D01*
Y316556D01*
Y316497D01*
X306189Y316348D01*
Y316170D01*
X306204Y315947D01*
X306233Y315724D01*
X306278Y315487D01*
X306322Y315249D01*
X306337Y315219D01*
X306352Y315145D01*
X306382Y315041D01*
X306441Y314892D01*
X306501Y314744D01*
X306590Y314565D01*
X306679Y314387D01*
X306798Y314224D01*
X306813Y314209D01*
X306857Y314149D01*
X306932Y314075D01*
X307021Y313986D01*
X307140Y313882D01*
X307288Y313778D01*
X307452Y313674D01*
X307630Y313585D01*
X307660Y313570D01*
X307719Y313555D01*
X307823Y313525D01*
X307972Y313481D01*
X308150Y313436D01*
X308358Y313406D01*
X308581Y313391D01*
X308834Y313377D01*
X309116D01*
X309175Y313391D01*
X309265D01*
X309368Y313406D01*
X309398D01*
X309458Y313421D01*
X309547Y313451D01*
X309651Y313466D01*
X309681D01*
X309725Y313481D01*
X309814Y313510D01*
X309889Y313540D01*
Y316185D01*
X308180D01*
Y317121D01*
X311003D01*
Y312871D01*
X310988D01*
X310958Y312857D01*
X310899Y312827D01*
X310840Y312797D01*
X310646Y312723D01*
X310438Y312649D01*
X310424D01*
X310394Y312634D01*
X310334Y312619D01*
X310260Y312604D01*
X310082Y312545D01*
X309859Y312500D01*
X309814D01*
X309755Y312485D01*
X309666Y312470D01*
X309473Y312455D01*
X309250Y312426D01*
X309205D01*
X309146Y312411D01*
X309071D01*
X308893Y312396D01*
X308685Y312381D01*
X308536D01*
X308373Y312396D01*
X308165Y312411D01*
X307927Y312441D01*
X307675Y312485D01*
X307407Y312545D01*
X307140Y312634D01*
X307110Y312649D01*
X307021Y312678D01*
X306902Y312753D01*
X306738Y312827D01*
X306560Y312946D01*
X306367Y313079D01*
X306174Y313243D01*
X305981Y313421D01*
X305966Y313451D01*
X305906Y313510D01*
X305817Y313629D01*
X305713Y313793D01*
X305594Y313971D01*
X305476Y314194D01*
X305357Y314447D01*
X305253Y314729D01*
Y314744D01*
X305238Y314759D01*
X305223Y314803D01*
X305208Y314863D01*
X305193Y314937D01*
X305178Y315026D01*
X305134Y315249D01*
X305074Y315516D01*
X305045Y315828D01*
X305015Y316170D01*
X305000Y316542D01*
Y316556D01*
Y316586D01*
Y316646D01*
Y316720D01*
X305015Y316809D01*
Y316913D01*
X305030Y317151D01*
X305074Y317433D01*
X305119Y317745D01*
X305193Y318057D01*
X305282Y318369D01*
Y318384D01*
X305297Y318399D01*
X305312Y318444D01*
X305342Y318503D01*
X305401Y318652D01*
X305490Y318845D01*
X305594Y319068D01*
X305728Y319291D01*
X305891Y319528D01*
X306070Y319751D01*
X306100Y319781D01*
X306159Y319840D01*
X306278Y319944D01*
X306427Y320078D01*
X306605Y320212D01*
X306813Y320360D01*
X307050Y320494D01*
X307318Y320613D01*
X307333D01*
X307348Y320628D01*
X307392Y320643D01*
X307452Y320658D01*
X307600Y320702D01*
X307794Y320762D01*
X308031Y320821D01*
X308299Y320866D01*
X308596Y320895D01*
X308923Y320910D01*
X309131D01*
X309265Y320895D01*
D02*
G37*
G36*
X318135Y312500D02*
X316590D01*
X314287Y317671D01*
X313618Y319335D01*
Y315145D01*
Y312500D01*
X312489D01*
Y320791D01*
X313990D01*
X316204Y315873D01*
X317006Y313986D01*
Y318429D01*
Y320791D01*
X318135D01*
Y312500D01*
D02*
G37*
G36*
X322028Y320776D02*
X322177Y320762D01*
X322370Y320732D01*
X322578Y320702D01*
X322801Y320672D01*
X323262Y320539D01*
X323499Y320464D01*
X323752Y320360D01*
X323975Y320256D01*
X324198Y320108D01*
X324406Y319959D01*
X324599Y319781D01*
X324614Y319766D01*
X324644Y319736D01*
X324688Y319677D01*
X324748Y319588D01*
X324822Y319484D01*
X324911Y319365D01*
X324985Y319201D01*
X325089Y319023D01*
X325178Y318830D01*
X325253Y318607D01*
X325342Y318354D01*
X325416Y318072D01*
X325476Y317775D01*
X325520Y317448D01*
X325550Y317106D01*
X325565Y316735D01*
Y316705D01*
Y316631D01*
Y316512D01*
X325550Y316363D01*
X325535Y316200D01*
X325520Y316007D01*
X325461Y315591D01*
Y315561D01*
X325446Y315501D01*
X325416Y315397D01*
X325387Y315264D01*
X325357Y315100D01*
X325297Y314922D01*
X325164Y314565D01*
X325149Y314551D01*
X325134Y314491D01*
X325089Y314402D01*
X325030Y314283D01*
X324956Y314149D01*
X324866Y314016D01*
X324644Y313718D01*
X324629Y313704D01*
X324584Y313659D01*
X324510Y313585D01*
X324421Y313496D01*
X324302Y313391D01*
X324168Y313288D01*
X324020Y313169D01*
X323841Y313065D01*
X323826Y313050D01*
X323767Y313020D01*
X323663Y312976D01*
X323529Y312916D01*
X323381Y312842D01*
X323187Y312782D01*
X322979Y312708D01*
X322757Y312649D01*
X322727D01*
X322653Y312619D01*
X322519Y312604D01*
X322341Y312574D01*
X322132Y312545D01*
X321895Y312530D01*
X321627Y312500D01*
X319577D01*
Y320791D01*
X321895D01*
X322028Y320776D01*
D02*
G37*
G36*
X315223Y358395D02*
X315386Y358381D01*
X315476D01*
X315550Y358366D01*
X315713Y358351D01*
X315892Y358321D01*
X315936D01*
X315981Y358306D01*
X316055D01*
X316204Y358276D01*
X316382Y358247D01*
X316427D01*
X316471Y358232D01*
X316531Y358217D01*
X316679Y358187D01*
X316843Y358158D01*
Y357147D01*
X316828D01*
X316754Y357177D01*
X316664Y357192D01*
X316531Y357221D01*
X316382Y357251D01*
X316218Y357296D01*
X315862Y357355D01*
X315847D01*
X315773Y357370D01*
X315684Y357385D01*
X315565Y357400D01*
X315416D01*
X315253Y357415D01*
X314911Y357430D01*
X314748D01*
X314584Y357415D01*
X314376Y357385D01*
X314138Y357355D01*
X313901Y357296D01*
X313678Y357207D01*
X313484Y357103D01*
X313470Y357088D01*
X313410Y357043D01*
X313351Y356969D01*
X313262Y356865D01*
X313187Y356746D01*
X313113Y356597D01*
X313054Y356419D01*
X313039Y356226D01*
Y356211D01*
Y356166D01*
X313054Y356107D01*
X313068Y356033D01*
X313113Y355840D01*
X313158Y355750D01*
X313217Y355646D01*
X313232Y355632D01*
X313247Y355602D01*
X313291Y355557D01*
X313351Y355498D01*
X313499Y355364D01*
X313707Y355215D01*
X313722Y355201D01*
X313767Y355186D01*
X313826Y355156D01*
X313915Y355112D01*
X314019Y355052D01*
X314138Y354993D01*
X314406Y354874D01*
X314421D01*
X314480Y354844D01*
X314554Y354814D01*
X314643Y354785D01*
X314762Y354725D01*
X314896Y354681D01*
X315193Y354547D01*
X315208D01*
X315268Y354517D01*
X315342Y354487D01*
X315446Y354443D01*
X315580Y354383D01*
X315713Y354324D01*
X315996Y354190D01*
X316010Y354175D01*
X316055Y354160D01*
X316129Y354116D01*
X316233Y354057D01*
X316441Y353908D01*
X316679Y353730D01*
X316694Y353715D01*
X316739Y353685D01*
X316783Y353626D01*
X316857Y353551D01*
X316947Y353462D01*
X317021Y353343D01*
X317184Y353091D01*
X317199Y353076D01*
X317214Y353031D01*
X317244Y352957D01*
X317288Y352853D01*
X317318Y352734D01*
X317348Y352585D01*
X317363Y352422D01*
X317377Y352244D01*
Y352214D01*
Y352140D01*
X317363Y352036D01*
X317348Y351887D01*
X317318Y351724D01*
X317274Y351560D01*
X317214Y351382D01*
X317125Y351204D01*
X317110Y351189D01*
X317080Y351129D01*
X317021Y351040D01*
X316947Y350951D01*
X316857Y350832D01*
X316739Y350698D01*
X316605Y350579D01*
X316456Y350461D01*
X316441Y350446D01*
X316382Y350416D01*
X316293Y350357D01*
X316159Y350297D01*
X316010Y350223D01*
X315832Y350149D01*
X315639Y350074D01*
X315416Y350015D01*
X315386D01*
X315312Y350000D01*
X315193Y349970D01*
X315030Y349955D01*
X314837Y349926D01*
X314614Y349896D01*
X314361Y349881D01*
X313886D01*
X313782Y349896D01*
X313663D01*
X313425Y349911D01*
X313366D01*
X313306Y349926D01*
X313232D01*
X313024Y349955D01*
X312801Y349970D01*
X312756D01*
X312697Y349985D01*
X312623Y350000D01*
X312444Y350015D01*
X312236Y350059D01*
X312222D01*
X312192Y350074D01*
X312147Y350089D01*
X312073Y350104D01*
X311924Y350134D01*
X311761Y350178D01*
Y351263D01*
X311776Y351248D01*
X311850Y351233D01*
X311939Y351204D01*
X312073Y351159D01*
X312222Y351100D01*
X312400Y351055D01*
X312608Y351010D01*
X312816Y350966D01*
X312846D01*
X312920Y350951D01*
X313039Y350936D01*
X313202Y350921D01*
X313410Y350906D01*
X313633Y350892D01*
X313886Y350877D01*
X314361D01*
X314495Y350892D01*
X314643D01*
X314792Y350906D01*
X314956Y350921D01*
X315104Y350951D01*
X315119D01*
X315164Y350966D01*
X315238Y350996D01*
X315327Y351010D01*
X315535Y351100D01*
X315728Y351204D01*
X315743Y351218D01*
X315773Y351233D01*
X315862Y351323D01*
X315981Y351456D01*
X316085Y351620D01*
Y351634D01*
X316100Y351664D01*
X316129Y351709D01*
X316144Y351783D01*
X316189Y351946D01*
X316204Y352169D01*
Y352184D01*
Y352229D01*
X316189Y352288D01*
X316174Y352378D01*
X316129Y352556D01*
X316070Y352660D01*
X316010Y352749D01*
X315996Y352764D01*
X315981Y352794D01*
X315936Y352838D01*
X315877Y352897D01*
X315713Y353031D01*
X315505Y353165D01*
X315490Y353180D01*
X315461Y353195D01*
X315386Y353239D01*
X315312Y353284D01*
X315208Y353328D01*
X315089Y353388D01*
X314822Y353507D01*
X314807Y353522D01*
X314762Y353536D01*
X314673Y353566D01*
X314584Y353611D01*
X314450Y353655D01*
X314317Y353715D01*
X314019Y353834D01*
X314005Y353848D01*
X313945Y353863D01*
X313871Y353893D01*
X313767Y353938D01*
X313648Y353997D01*
X313514Y354057D01*
X313232Y354190D01*
X313217Y354205D01*
X313172Y354220D01*
X313098Y354264D01*
X312994Y354324D01*
X312771Y354473D01*
X312533Y354651D01*
X312519Y354666D01*
X312489Y354696D01*
X312430Y354755D01*
X312355Y354829D01*
X312281Y354918D01*
X312207Y355022D01*
X312043Y355275D01*
Y355290D01*
X312013Y355334D01*
X311984Y355409D01*
X311954Y355513D01*
X311924Y355632D01*
X311895Y355780D01*
X311880Y355944D01*
X311865Y356122D01*
Y356137D01*
Y356196D01*
X311880Y356270D01*
Y356389D01*
X311909Y356508D01*
X311939Y356642D01*
X311969Y356805D01*
X312028Y356954D01*
X312043Y356969D01*
X312058Y357028D01*
X312103Y357103D01*
X312162Y357207D01*
X312236Y357311D01*
X312340Y357444D01*
X312444Y357563D01*
X312578Y357682D01*
X312593Y357697D01*
X312652Y357742D01*
X312727Y357801D01*
X312846Y357875D01*
X312979Y357950D01*
X313143Y358039D01*
X313336Y358128D01*
X313544Y358202D01*
X313574Y358217D01*
X313648Y358232D01*
X313782Y358262D01*
X313945Y358306D01*
X314153Y358351D01*
X314391Y358381D01*
X314643Y358395D01*
X314941Y358410D01*
X315074D01*
X315223Y358395D01*
D02*
G37*
G36*
X324807Y357326D02*
X322355D01*
Y350000D01*
X321211D01*
Y357326D01*
X318759D01*
Y358291D01*
X324807D01*
Y357326D01*
D02*
G37*
G36*
X307467Y358276D02*
X307645D01*
X307838Y358247D01*
X308046Y358217D01*
X308254Y358187D01*
X308462Y358128D01*
X308492D01*
X308551Y358098D01*
X308640Y358068D01*
X308759Y358009D01*
X308893Y357950D01*
X309042Y357875D01*
X309175Y357786D01*
X309309Y357682D01*
X309324Y357667D01*
X309368Y357637D01*
X309428Y357578D01*
X309502Y357489D01*
X309577Y357385D01*
X309666Y357281D01*
X309740Y357147D01*
X309799Y356999D01*
X309814Y356984D01*
X309829Y356924D01*
X309859Y356850D01*
X309889Y356731D01*
X309918Y356612D01*
X309933Y356449D01*
X309963Y356285D01*
Y356107D01*
Y356092D01*
Y356048D01*
Y355973D01*
X309948Y355869D01*
X309933Y355750D01*
X309918Y355632D01*
X309844Y355364D01*
Y355349D01*
X309829Y355305D01*
X309799Y355245D01*
X309755Y355156D01*
X309651Y354963D01*
X309502Y354740D01*
X309487Y354725D01*
X309458Y354696D01*
X309413Y354651D01*
X309354Y354577D01*
X309265Y354502D01*
X309175Y354428D01*
X308938Y354264D01*
X308923Y354250D01*
X308878Y354235D01*
X308819Y354190D01*
X308715Y354146D01*
X308611Y354101D01*
X308477Y354042D01*
X308343Y353997D01*
X308180Y353952D01*
X308195D01*
X308239Y353923D01*
X308299Y353893D01*
X308388Y353848D01*
X308477Y353789D01*
X308566Y353715D01*
X308670Y353626D01*
X308759Y353522D01*
X308774Y353507D01*
X308804Y353462D01*
X308848Y353403D01*
X308923Y353314D01*
X308997Y353195D01*
X309086Y353061D01*
X309175Y352912D01*
X309265Y352734D01*
X310587Y350000D01*
X309309D01*
X308076Y352645D01*
Y352660D01*
X308046Y352704D01*
X308016Y352749D01*
X307987Y352823D01*
X307883Y352987D01*
X307779Y353150D01*
Y353165D01*
X307749Y353180D01*
X307689Y353269D01*
X307586Y353373D01*
X307467Y353477D01*
X307437Y353492D01*
X307363Y353536D01*
X307244Y353596D01*
X307095Y353641D01*
X307080D01*
X307065Y353655D01*
X307021D01*
X306961Y353670D01*
X306828Y353685D01*
X306649Y353700D01*
X306129D01*
Y350000D01*
X305000D01*
Y358291D01*
X307333D01*
X307467Y358276D01*
D02*
G37*
G36*
X323143Y393395D02*
X323306Y393381D01*
X323395D01*
X323470Y393366D01*
X323633Y393351D01*
X323811Y393321D01*
X323856D01*
X323901Y393306D01*
X323975D01*
X324123Y393276D01*
X324302Y393247D01*
X324346D01*
X324391Y393232D01*
X324450Y393217D01*
X324599Y393187D01*
X324762Y393158D01*
Y392147D01*
X324748D01*
X324673Y392177D01*
X324584Y392192D01*
X324450Y392221D01*
X324302Y392251D01*
X324138Y392296D01*
X323782Y392355D01*
X323767D01*
X323693Y392370D01*
X323604Y392385D01*
X323485Y392400D01*
X323336D01*
X323173Y392415D01*
X322831Y392430D01*
X322667D01*
X322504Y392415D01*
X322296Y392385D01*
X322058Y392355D01*
X321820Y392296D01*
X321598Y392207D01*
X321404Y392103D01*
X321390Y392088D01*
X321330Y392043D01*
X321271Y391969D01*
X321181Y391865D01*
X321107Y391746D01*
X321033Y391597D01*
X320973Y391419D01*
X320959Y391226D01*
Y391211D01*
Y391166D01*
X320973Y391107D01*
X320988Y391033D01*
X321033Y390840D01*
X321077Y390750D01*
X321137Y390646D01*
X321152Y390632D01*
X321167Y390602D01*
X321211Y390557D01*
X321271Y390498D01*
X321419Y390364D01*
X321627Y390215D01*
X321642Y390201D01*
X321687Y390186D01*
X321746Y390156D01*
X321835Y390112D01*
X321939Y390052D01*
X322058Y389993D01*
X322326Y389874D01*
X322341D01*
X322400Y389844D01*
X322474Y389814D01*
X322563Y389785D01*
X322682Y389725D01*
X322816Y389681D01*
X323113Y389547D01*
X323128D01*
X323187Y389517D01*
X323262Y389487D01*
X323366Y389443D01*
X323499Y389383D01*
X323633Y389324D01*
X323915Y389190D01*
X323930Y389175D01*
X323975Y389160D01*
X324049Y389116D01*
X324153Y389057D01*
X324361Y388908D01*
X324599Y388730D01*
X324614Y388715D01*
X324659Y388685D01*
X324703Y388626D01*
X324777Y388551D01*
X324866Y388462D01*
X324941Y388343D01*
X325104Y388091D01*
X325119Y388076D01*
X325134Y388031D01*
X325164Y387957D01*
X325208Y387853D01*
X325238Y387734D01*
X325268Y387585D01*
X325283Y387422D01*
X325297Y387244D01*
Y387214D01*
Y387140D01*
X325283Y387036D01*
X325268Y386887D01*
X325238Y386724D01*
X325193Y386560D01*
X325134Y386382D01*
X325045Y386204D01*
X325030Y386189D01*
X325000Y386129D01*
X324941Y386040D01*
X324866Y385951D01*
X324777Y385832D01*
X324659Y385698D01*
X324525Y385579D01*
X324376Y385461D01*
X324361Y385446D01*
X324302Y385416D01*
X324213Y385357D01*
X324079Y385297D01*
X323930Y385223D01*
X323752Y385149D01*
X323559Y385074D01*
X323336Y385015D01*
X323306D01*
X323232Y385000D01*
X323113Y384970D01*
X322950Y384955D01*
X322757Y384926D01*
X322534Y384896D01*
X322281Y384881D01*
X321805D01*
X321702Y384896D01*
X321583D01*
X321345Y384911D01*
X321286D01*
X321226Y384926D01*
X321152D01*
X320944Y384955D01*
X320721Y384970D01*
X320676D01*
X320617Y384985D01*
X320542Y385000D01*
X320364Y385015D01*
X320156Y385059D01*
X320141D01*
X320112Y385074D01*
X320067Y385089D01*
X319993Y385104D01*
X319844Y385134D01*
X319681Y385178D01*
Y386263D01*
X319696Y386248D01*
X319770Y386233D01*
X319859Y386204D01*
X319993Y386159D01*
X320141Y386100D01*
X320320Y386055D01*
X320528Y386010D01*
X320736Y385966D01*
X320765D01*
X320840Y385951D01*
X320959Y385936D01*
X321122Y385921D01*
X321330Y385906D01*
X321553Y385891D01*
X321805Y385877D01*
X322281D01*
X322415Y385891D01*
X322563D01*
X322712Y385906D01*
X322875Y385921D01*
X323024Y385951D01*
X323039D01*
X323083Y385966D01*
X323158Y385995D01*
X323247Y386010D01*
X323455Y386100D01*
X323648Y386204D01*
X323663Y386218D01*
X323693Y386233D01*
X323782Y386322D01*
X323901Y386456D01*
X324005Y386620D01*
Y386634D01*
X324020Y386664D01*
X324049Y386709D01*
X324064Y386783D01*
X324109Y386946D01*
X324123Y387169D01*
Y387184D01*
Y387229D01*
X324109Y387288D01*
X324094Y387377D01*
X324049Y387556D01*
X323990Y387660D01*
X323930Y387749D01*
X323915Y387764D01*
X323901Y387794D01*
X323856Y387838D01*
X323797Y387897D01*
X323633Y388031D01*
X323425Y388165D01*
X323410Y388180D01*
X323381Y388195D01*
X323306Y388239D01*
X323232Y388284D01*
X323128Y388328D01*
X323009Y388388D01*
X322742Y388507D01*
X322727Y388522D01*
X322682Y388536D01*
X322593Y388566D01*
X322504Y388611D01*
X322370Y388655D01*
X322236Y388715D01*
X321939Y388834D01*
X321924Y388848D01*
X321865Y388863D01*
X321791Y388893D01*
X321687Y388938D01*
X321568Y388997D01*
X321434Y389057D01*
X321152Y389190D01*
X321137Y389205D01*
X321092Y389220D01*
X321018Y389264D01*
X320914Y389324D01*
X320691Y389473D01*
X320453Y389651D01*
X320438Y389666D01*
X320409Y389695D01*
X320349Y389755D01*
X320275Y389829D01*
X320201Y389918D01*
X320126Y390022D01*
X319963Y390275D01*
Y390290D01*
X319933Y390334D01*
X319904Y390409D01*
X319874Y390513D01*
X319844Y390632D01*
X319814Y390780D01*
X319800Y390944D01*
X319785Y391122D01*
Y391137D01*
Y391196D01*
X319800Y391270D01*
Y391389D01*
X319829Y391508D01*
X319859Y391642D01*
X319889Y391805D01*
X319948Y391954D01*
X319963Y391969D01*
X319978Y392028D01*
X320022Y392103D01*
X320082Y392207D01*
X320156Y392311D01*
X320260Y392444D01*
X320364Y392563D01*
X320498Y392682D01*
X320513Y392697D01*
X320572Y392742D01*
X320647Y392801D01*
X320765Y392875D01*
X320899Y392950D01*
X321063Y393039D01*
X321256Y393128D01*
X321464Y393202D01*
X321493Y393217D01*
X321568Y393232D01*
X321702Y393262D01*
X321865Y393306D01*
X322073Y393351D01*
X322311Y393381D01*
X322563Y393395D01*
X322860Y393410D01*
X322994D01*
X323143Y393395D01*
D02*
G37*
G36*
X311523Y385000D02*
X310424D01*
X310260Y390186D01*
X310186Y392147D01*
X309799Y391003D01*
X308566Y387704D01*
X307779D01*
X306620Y390869D01*
X306233Y392147D01*
X306204Y390097D01*
X306070Y385000D01*
X305000D01*
X305401Y393291D01*
X306738D01*
X307853Y390156D01*
X308224Y389101D01*
X308566Y390156D01*
X309755Y393291D01*
X311122D01*
X311523Y385000D01*
D02*
G37*
G36*
X332192Y392340D02*
X330275D01*
Y385966D01*
X332192D01*
Y385000D01*
X327214D01*
Y385966D01*
X329131D01*
Y392340D01*
X327214D01*
Y393291D01*
X332192D01*
Y392340D01*
D02*
G37*
G36*
X315743Y393395D02*
X315936Y393381D01*
X316159Y393336D01*
X316382Y393291D01*
X316635Y393217D01*
X316857Y393113D01*
X316887Y393098D01*
X316961Y393054D01*
X317066Y392994D01*
X317199Y392890D01*
X317363Y392771D01*
X317526Y392637D01*
X317690Y392459D01*
X317838Y392266D01*
X317853Y392236D01*
X317898Y392177D01*
X317972Y392058D01*
X318061Y391895D01*
X318165Y391701D01*
X318254Y391479D01*
X318358Y391226D01*
X318433Y390944D01*
Y390929D01*
X318447Y390914D01*
Y390869D01*
X318462Y390810D01*
X318492Y390646D01*
X318536Y390438D01*
X318581Y390171D01*
X318611Y389874D01*
X318626Y389547D01*
X318641Y389190D01*
Y389175D01*
Y389146D01*
Y389086D01*
Y388997D01*
X318626Y388908D01*
Y388789D01*
X318611Y388536D01*
X318581Y388224D01*
X318522Y387912D01*
X318462Y387571D01*
X318373Y387259D01*
Y387244D01*
X318358Y387229D01*
X318343Y387184D01*
X318328Y387125D01*
X318269Y386976D01*
X318180Y386798D01*
X318076Y386575D01*
X317957Y386352D01*
X317823Y386129D01*
X317660Y385921D01*
X317645Y385891D01*
X317586Y385832D01*
X317482Y385743D01*
X317363Y385624D01*
X317214Y385490D01*
X317021Y385357D01*
X316828Y385238D01*
X316605Y385134D01*
X316575Y385119D01*
X316501Y385089D01*
X316382Y385059D01*
X316218Y385015D01*
X316040Y384955D01*
X315817Y384926D01*
X315595Y384896D01*
X315342Y384881D01*
X315208D01*
X315060Y384896D01*
X314866Y384911D01*
X314643Y384955D01*
X314421Y385000D01*
X314183Y385074D01*
X313945Y385163D01*
X313915Y385178D01*
X313841Y385223D01*
X313737Y385282D01*
X313603Y385372D01*
X313440Y385490D01*
X313277Y385639D01*
X313113Y385802D01*
X312950Y385995D01*
X312935Y386025D01*
X312890Y386100D01*
X312816Y386204D01*
X312727Y386367D01*
X312638Y386560D01*
X312548Y386783D01*
X312444Y387036D01*
X312370Y387318D01*
Y387333D01*
Y387348D01*
X312355Y387392D01*
X312340Y387452D01*
X312325Y387526D01*
X312311Y387615D01*
X312281Y387838D01*
X312251Y388106D01*
X312222Y388403D01*
X312207Y388745D01*
X312192Y389101D01*
Y389116D01*
Y389146D01*
Y389205D01*
Y389279D01*
X312207Y389383D01*
Y389487D01*
X312222Y389755D01*
X312251Y390052D01*
X312296Y390379D01*
X312355Y390706D01*
X312444Y391018D01*
Y391033D01*
X312459Y391048D01*
X312474Y391092D01*
X312489Y391152D01*
X312548Y391300D01*
X312638Y391493D01*
X312742Y391701D01*
X312860Y391924D01*
X312994Y392147D01*
X313158Y392355D01*
X313172Y392385D01*
X313232Y392444D01*
X313336Y392533D01*
X313455Y392652D01*
X313603Y392786D01*
X313782Y392920D01*
X313990Y393039D01*
X314198Y393143D01*
X314227Y393158D01*
X314302Y393187D01*
X314421Y393232D01*
X314584Y393276D01*
X314762Y393321D01*
X314985Y393366D01*
X315208Y393395D01*
X315461Y393410D01*
X315595D01*
X315743Y393395D01*
D02*
G37*
G36*
X168916Y393381D02*
X169079Y393366D01*
X169257Y393351D01*
X169629Y393291D01*
X169659D01*
X169718Y393276D01*
X169807Y393247D01*
X169941Y393217D01*
X170089Y393172D01*
X170253Y393128D01*
X170595Y392994D01*
Y391880D01*
X170580Y391895D01*
X170520Y391924D01*
X170416Y391969D01*
X170297Y392013D01*
X170164Y392073D01*
X170000Y392132D01*
X169644Y392251D01*
X169629D01*
X169554Y392266D01*
X169465Y392296D01*
X169332Y392326D01*
X169183Y392340D01*
X169005Y392370D01*
X168811Y392385D01*
X168500D01*
X168395Y392370D01*
X168262Y392355D01*
X168098Y392326D01*
X167920Y392296D01*
X167727Y392236D01*
X167549Y392162D01*
X167534Y392147D01*
X167474Y392118D01*
X167385Y392073D01*
X167266Y391999D01*
X167147Y391909D01*
X166999Y391805D01*
X166865Y391672D01*
X166731Y391523D01*
X166716Y391508D01*
X166672Y391449D01*
X166612Y391360D01*
X166553Y391241D01*
X166464Y391092D01*
X166375Y390929D01*
X166300Y390721D01*
X166226Y390513D01*
Y390483D01*
X166196Y390409D01*
X166182Y390290D01*
X166152Y390126D01*
X166122Y389918D01*
X166092Y389681D01*
X166077Y389428D01*
X166063Y389146D01*
Y389131D01*
Y389071D01*
Y388997D01*
X166077Y388878D01*
Y388745D01*
X166092Y388596D01*
X166122Y388418D01*
X166152Y388239D01*
X166226Y387853D01*
X166345Y387452D01*
X166508Y387065D01*
X166597Y386887D01*
X166716Y386724D01*
X166731Y386709D01*
X166746Y386694D01*
X166791Y386649D01*
X166835Y386590D01*
X166910Y386530D01*
X166984Y386471D01*
X167088Y386397D01*
X167207Y386322D01*
X167474Y386159D01*
X167801Y386040D01*
X168187Y385936D01*
X168410Y385921D01*
X168633Y385906D01*
X168826D01*
X168960Y385921D01*
X169109Y385936D01*
X169272Y385951D01*
X169644Y386025D01*
X169673D01*
X169733Y386055D01*
X169822Y386070D01*
X169941Y386114D01*
X170089Y386159D01*
X170253Y386233D01*
X170595Y386382D01*
Y385312D01*
X170580D01*
X170550Y385297D01*
X170491Y385267D01*
X170416Y385253D01*
X170327Y385223D01*
X170223Y385178D01*
X170089Y385149D01*
X169956Y385104D01*
X169644Y385030D01*
X169287Y384955D01*
X168901Y384911D01*
X168500Y384896D01*
X168336D01*
X168202Y384911D01*
X168069Y384926D01*
X167890Y384955D01*
X167697Y384985D01*
X167504Y385030D01*
X167281Y385074D01*
X167058Y385149D01*
X166835Y385238D01*
X166612Y385342D01*
X166390Y385461D01*
X166182Y385594D01*
X165973Y385758D01*
X165795Y385936D01*
X165780Y385951D01*
X165751Y385981D01*
X165706Y386040D01*
X165646Y386129D01*
X165572Y386248D01*
X165498Y386382D01*
X165409Y386530D01*
X165334Y386724D01*
X165245Y386932D01*
X165156Y387155D01*
X165082Y387407D01*
X165008Y387690D01*
X164948Y387987D01*
X164904Y388313D01*
X164874Y388670D01*
X164859Y389042D01*
Y389057D01*
Y389086D01*
Y389146D01*
Y389205D01*
X164874Y389294D01*
Y389398D01*
X164889Y389636D01*
X164918Y389918D01*
X164963Y390215D01*
X165023Y390527D01*
X165112Y390840D01*
Y390854D01*
X165126Y390869D01*
X165141Y390914D01*
X165156Y390973D01*
X165216Y391122D01*
X165305Y391315D01*
X165409Y391538D01*
X165543Y391761D01*
X165691Y391984D01*
X165855Y392207D01*
X165884Y392236D01*
X165944Y392296D01*
X166048Y392400D01*
X166182Y392533D01*
X166360Y392667D01*
X166553Y392816D01*
X166776Y392950D01*
X167028Y393083D01*
X167043D01*
X167058Y393098D01*
X167147Y393128D01*
X167296Y393187D01*
X167474Y393247D01*
X167697Y393291D01*
X167964Y393351D01*
X168247Y393381D01*
X168559Y393395D01*
X168767D01*
X168916Y393381D01*
D02*
G37*
G36*
X161768D02*
X161932Y393366D01*
X162110Y393351D01*
X162482Y393291D01*
X162511D01*
X162571Y393276D01*
X162660Y393247D01*
X162794Y393217D01*
X162942Y393172D01*
X163106Y393128D01*
X163447Y392994D01*
Y391880D01*
X163433Y391895D01*
X163373Y391924D01*
X163269Y391969D01*
X163150Y392013D01*
X163016Y392073D01*
X162853Y392132D01*
X162496Y392251D01*
X162482D01*
X162407Y392266D01*
X162318Y392296D01*
X162184Y392326D01*
X162036Y392340D01*
X161857Y392370D01*
X161664Y392385D01*
X161352D01*
X161248Y392370D01*
X161115Y392355D01*
X160951Y392326D01*
X160773Y392296D01*
X160580Y392236D01*
X160401Y392162D01*
X160386Y392147D01*
X160327Y392118D01*
X160238Y392073D01*
X160119Y391999D01*
X160000Y391909D01*
X159852Y391805D01*
X159718Y391672D01*
X159584Y391523D01*
X159569Y391508D01*
X159525Y391449D01*
X159465Y391360D01*
X159406Y391241D01*
X159317Y391092D01*
X159227Y390929D01*
X159153Y390721D01*
X159079Y390513D01*
Y390483D01*
X159049Y390409D01*
X159034Y390290D01*
X159005Y390126D01*
X158975Y389918D01*
X158945Y389681D01*
X158930Y389428D01*
X158915Y389146D01*
Y389131D01*
Y389071D01*
Y388997D01*
X158930Y388878D01*
Y388745D01*
X158945Y388596D01*
X158975Y388418D01*
X159005Y388239D01*
X159079Y387853D01*
X159198Y387452D01*
X159361Y387065D01*
X159450Y386887D01*
X159569Y386724D01*
X159584Y386709D01*
X159599Y386694D01*
X159643Y386649D01*
X159688Y386590D01*
X159762Y386530D01*
X159837Y386471D01*
X159941Y386397D01*
X160060Y386322D01*
X160327Y386159D01*
X160654Y386040D01*
X161040Y385936D01*
X161263Y385921D01*
X161486Y385906D01*
X161679D01*
X161813Y385921D01*
X161961Y385936D01*
X162125Y385951D01*
X162496Y386025D01*
X162526D01*
X162586Y386055D01*
X162675Y386070D01*
X162794Y386114D01*
X162942Y386159D01*
X163106Y386233D01*
X163447Y386382D01*
Y385312D01*
X163433D01*
X163403Y385297D01*
X163343Y385267D01*
X163269Y385253D01*
X163180Y385223D01*
X163076Y385178D01*
X162942Y385149D01*
X162808Y385104D01*
X162496Y385030D01*
X162140Y384955D01*
X161754Y384911D01*
X161352Y384896D01*
X161189D01*
X161055Y384911D01*
X160921Y384926D01*
X160743Y384955D01*
X160550Y384985D01*
X160357Y385030D01*
X160134Y385074D01*
X159911Y385149D01*
X159688Y385238D01*
X159465Y385342D01*
X159242Y385461D01*
X159034Y385594D01*
X158826Y385758D01*
X158648Y385936D01*
X158633Y385951D01*
X158603Y385981D01*
X158559Y386040D01*
X158499Y386129D01*
X158425Y386248D01*
X158351Y386382D01*
X158262Y386530D01*
X158187Y386724D01*
X158098Y386932D01*
X158009Y387155D01*
X157935Y387407D01*
X157860Y387690D01*
X157801Y387987D01*
X157756Y388313D01*
X157727Y388670D01*
X157712Y389042D01*
Y389057D01*
Y389086D01*
Y389146D01*
Y389205D01*
X157727Y389294D01*
Y389398D01*
X157741Y389636D01*
X157771Y389918D01*
X157816Y390215D01*
X157875Y390527D01*
X157964Y390840D01*
Y390854D01*
X157979Y390869D01*
X157994Y390914D01*
X158009Y390973D01*
X158068Y391122D01*
X158158Y391315D01*
X158262Y391538D01*
X158395Y391761D01*
X158544Y391984D01*
X158707Y392207D01*
X158737Y392236D01*
X158797Y392296D01*
X158900Y392400D01*
X159034Y392533D01*
X159213Y392667D01*
X159406Y392816D01*
X159629Y392950D01*
X159881Y393083D01*
X159896D01*
X159911Y393098D01*
X160000Y393128D01*
X160149Y393187D01*
X160327Y393247D01*
X160550Y393291D01*
X160817Y393351D01*
X161100Y393381D01*
X161412Y393395D01*
X161620D01*
X161768Y393381D01*
D02*
G37*
G36*
X154279Y385000D02*
X152764D01*
X150000Y393291D01*
X151278D01*
X153076Y387690D01*
X153581Y386055D01*
X154101Y387690D01*
X155899Y393291D01*
X157103D01*
X154279Y385000D01*
D02*
G37*
G36*
X175234Y411534D02*
X175457Y411519D01*
X175710Y411490D01*
X175977Y411445D01*
X176274Y411400D01*
Y410450D01*
X176259D01*
X176230Y410464D01*
X176185D01*
X176126Y410479D01*
X175962Y410509D01*
X175754Y410539D01*
X175516Y410568D01*
X175279Y410598D01*
X175011Y410628D01*
X174714D01*
X174640Y410613D01*
X174536Y410598D01*
X174432Y410583D01*
X174298Y410539D01*
X174164Y410494D01*
X174031Y410435D01*
X173897Y410346D01*
X173763Y410242D01*
X173629Y410123D01*
X173525Y409974D01*
X173421Y409796D01*
X173347Y409588D01*
X173302Y409350D01*
X173288Y409068D01*
Y407953D01*
X176081D01*
Y407032D01*
X173288D01*
Y402500D01*
X172158D01*
Y407032D01*
X170108D01*
Y407953D01*
X172158D01*
Y408993D01*
Y409008D01*
Y409023D01*
Y409097D01*
X172173Y409231D01*
X172203Y409395D01*
X172233Y409588D01*
X172292Y409796D01*
X172381Y410033D01*
X172485Y410271D01*
X172634Y410509D01*
X172797Y410747D01*
X173020Y410955D01*
X173273Y411148D01*
X173585Y411311D01*
X173927Y411445D01*
X174343Y411519D01*
X174566Y411549D01*
X175056D01*
X175234Y411534D01*
D02*
G37*
G36*
X188191Y408979D02*
X188370Y408964D01*
X188578Y408919D01*
X188815Y408845D01*
X189068Y408741D01*
X189306Y408592D01*
X189514Y408399D01*
X189529Y408369D01*
X189588Y408295D01*
X189677Y408161D01*
X189766Y407968D01*
X189855Y407715D01*
X189945Y407418D01*
X190004Y407062D01*
X190019Y406660D01*
Y402500D01*
X188919D01*
Y406571D01*
Y406586D01*
Y406601D01*
Y406690D01*
X188904Y406824D01*
X188890Y406987D01*
X188845Y407166D01*
X188800Y407344D01*
X188726Y407522D01*
X188637Y407671D01*
X188622Y407686D01*
X188578Y407730D01*
X188518Y407790D01*
X188429Y407864D01*
X188310Y407924D01*
X188162Y407983D01*
X187998Y408028D01*
X187805Y408042D01*
X187775D01*
X187671Y408028D01*
X187552Y408013D01*
X187404Y407968D01*
X187389D01*
X187374Y407953D01*
X187285Y407924D01*
X187151Y407849D01*
X187003Y407760D01*
X186988D01*
X186973Y407730D01*
X186928Y407701D01*
X186869Y407656D01*
X186720Y407522D01*
X186542Y407359D01*
X186527Y407344D01*
X186497Y407314D01*
X186453Y407255D01*
X186393Y407181D01*
X186304Y407091D01*
X186215Y406987D01*
X186111Y406854D01*
X186007Y406720D01*
Y402500D01*
X184907D01*
Y408875D01*
X185873D01*
X185918Y407834D01*
X185933Y407849D01*
X185962Y407894D01*
X186022Y407953D01*
X186096Y408028D01*
X186259Y408206D01*
X186453Y408384D01*
X186468Y408399D01*
X186497Y408429D01*
X186557Y408459D01*
X186616Y408518D01*
X186780Y408622D01*
X186973Y408741D01*
X186988D01*
X187017Y408770D01*
X187062Y408785D01*
X187136Y408815D01*
X187300Y408875D01*
X187478Y408934D01*
X187493D01*
X187523Y408949D01*
X187582D01*
X187641Y408964D01*
X187820Y408979D01*
X188028Y408993D01*
X188117D01*
X188191Y408979D01*
D02*
G37*
G36*
X195264D02*
X195413D01*
X195725Y408949D01*
X195740D01*
X195799Y408934D01*
X195903D01*
X196022Y408919D01*
X196171Y408889D01*
X196334Y408875D01*
X196691Y408800D01*
Y407820D01*
X196661D01*
X196601Y407834D01*
X196497Y407864D01*
X196378Y407894D01*
X196215Y407909D01*
X196052Y407938D01*
X195695Y407998D01*
X195680D01*
X195621Y408013D01*
X195532Y408028D01*
X195427Y408042D01*
X195294D01*
X195160Y408057D01*
X194893Y408072D01*
X194744D01*
X194655Y408057D01*
X194417Y408042D01*
X194194Y407998D01*
X194179D01*
X194150Y407983D01*
X194090Y407968D01*
X194031Y407953D01*
X193882Y407894D01*
X193734Y407820D01*
X193704Y407805D01*
X193645Y407745D01*
X193570Y407671D01*
X193496Y407567D01*
X193481Y407537D01*
X193466Y407478D01*
X193436Y407374D01*
X193422Y407240D01*
Y407210D01*
X193436Y407136D01*
X193451Y407047D01*
X193481Y406928D01*
X193496Y406898D01*
X193540Y406839D01*
X193600Y406764D01*
X193719Y406660D01*
X193734D01*
X193748Y406631D01*
X193793Y406616D01*
X193853Y406571D01*
X194016Y406497D01*
X194224Y406393D01*
X194239D01*
X194283Y406378D01*
X194358Y406348D01*
X194447Y406319D01*
X194581Y406274D01*
X194714Y406230D01*
X194893Y406185D01*
X195071Y406126D01*
X195101Y406111D01*
X195160Y406096D01*
X195264Y406066D01*
X195398Y406022D01*
X195546Y405962D01*
X195710Y405903D01*
X195873Y405843D01*
X196022Y405769D01*
X196037Y405754D01*
X196081Y405739D01*
X196156Y405695D01*
X196245Y405650D01*
X196453Y405531D01*
X196646Y405368D01*
X196661Y405353D01*
X196691Y405323D01*
X196720Y405279D01*
X196780Y405219D01*
X196884Y405056D01*
X196988Y404863D01*
Y404848D01*
X197003Y404818D01*
X197032Y404759D01*
X197047Y404684D01*
X197077Y404580D01*
X197092Y404476D01*
X197107Y404224D01*
Y404209D01*
Y404164D01*
Y404105D01*
X197092Y404030D01*
X197062Y403837D01*
X196988Y403629D01*
Y403614D01*
X196973Y403585D01*
X196943Y403540D01*
X196899Y403466D01*
X196809Y403317D01*
X196676Y403154D01*
X196661Y403139D01*
X196646Y403124D01*
X196601Y403079D01*
X196542Y403035D01*
X196393Y402916D01*
X196215Y402797D01*
X196200D01*
X196171Y402767D01*
X196126Y402753D01*
X196052Y402708D01*
X195873Y402634D01*
X195665Y402559D01*
X195650D01*
X195621Y402545D01*
X195561Y402530D01*
X195472Y402515D01*
X195279Y402470D01*
X195056Y402426D01*
X194997D01*
X194937Y402411D01*
X194863D01*
X194670Y402396D01*
X194447Y402381D01*
X194209D01*
X194060Y402396D01*
X193882D01*
X193674Y402411D01*
X193258Y402441D01*
X193228D01*
X193169Y402455D01*
X193065Y402470D01*
X192931Y402485D01*
X192768Y402515D01*
X192589Y402545D01*
X192203Y402634D01*
Y403644D01*
X192233D01*
X192292Y403614D01*
X192411Y403585D01*
X192545Y403555D01*
X192708Y403510D01*
X192901Y403466D01*
X193303Y403391D01*
X193332D01*
X193392Y403377D01*
X193511Y403362D01*
X193645D01*
X193808Y403347D01*
X194001Y403332D01*
X194402Y403317D01*
X194536D01*
X194670Y403332D01*
X194848Y403347D01*
X195041Y403362D01*
X195234Y403406D01*
X195413Y403451D01*
X195576Y403525D01*
X195591Y403540D01*
X195636Y403570D01*
X195695Y403614D01*
X195769Y403689D01*
X195844Y403778D01*
X195903Y403882D01*
X195948Y404001D01*
X195963Y404134D01*
Y404149D01*
Y404164D01*
X195948Y404239D01*
X195933Y404342D01*
X195888Y404446D01*
X195873Y404476D01*
X195844Y404536D01*
X195769Y404610D01*
X195665Y404699D01*
X195636Y404729D01*
X195606Y404744D01*
X195546Y404788D01*
X195487Y404818D01*
X195398Y404863D01*
X195294Y404922D01*
X195175Y404967D01*
X195160D01*
X195116Y404996D01*
X195041Y405026D01*
X194937Y405056D01*
X194818Y405100D01*
X194655Y405160D01*
X194491Y405219D01*
X194283Y405279D01*
X194268D01*
X194209Y405294D01*
X194135Y405323D01*
X194016Y405353D01*
X193897Y405397D01*
X193763Y405442D01*
X193481Y405561D01*
X193466Y405576D01*
X193422Y405591D01*
X193347Y405620D01*
X193273Y405665D01*
X193065Y405799D01*
X192857Y405947D01*
X192842Y405962D01*
X192812Y405992D01*
X192768Y406036D01*
X192708Y406096D01*
X192575Y406259D01*
X192441Y406467D01*
Y406482D01*
X192411Y406527D01*
X192396Y406586D01*
X192367Y406675D01*
X192337Y406779D01*
X192322Y406898D01*
X192292Y407032D01*
Y407181D01*
Y407196D01*
Y407225D01*
Y407285D01*
X192307Y407359D01*
X192337Y407537D01*
X192411Y407760D01*
Y407775D01*
X192441Y407820D01*
X192471Y407879D01*
X192515Y407953D01*
X192560Y408042D01*
X192634Y408132D01*
X192723Y408236D01*
X192827Y408340D01*
X192842Y408354D01*
X192887Y408384D01*
X192946Y408444D01*
X193035Y408503D01*
X193154Y408577D01*
X193288Y408652D01*
X193451Y408726D01*
X193630Y408800D01*
X193659Y408815D01*
X193719Y408830D01*
X193838Y408860D01*
X193986Y408904D01*
X194165Y408934D01*
X194387Y408964D01*
X194625Y408979D01*
X194907Y408993D01*
X195145D01*
X195264Y408979D01*
D02*
G37*
G36*
X231476D02*
X231654Y408964D01*
X231862Y408919D01*
X232100Y408830D01*
X232352Y408711D01*
X232590Y408563D01*
X232694Y408459D01*
X232798Y408340D01*
X232828Y408310D01*
X232843Y408280D01*
X232872Y408221D01*
X232917Y408146D01*
X232961Y408072D01*
X233050Y407864D01*
X233140Y407597D01*
X233229Y407270D01*
X233273Y406883D01*
X233288Y406438D01*
X232174D01*
Y406452D01*
Y406467D01*
Y406512D01*
Y406571D01*
X232159Y406720D01*
X232144Y406898D01*
X232114Y407106D01*
X232070Y407299D01*
X232010Y407493D01*
X231921Y407656D01*
X231906Y407671D01*
X231877Y407715D01*
X231817Y407775D01*
X231728Y407849D01*
X231609Y407924D01*
X231490Y407983D01*
X231327Y408028D01*
X231149Y408042D01*
X231059D01*
X231015Y408028D01*
X230866Y408013D01*
X230703Y407953D01*
X230688D01*
X230658Y407938D01*
X230614Y407924D01*
X230569Y407894D01*
X230420Y407820D01*
X230242Y407701D01*
X230227Y407686D01*
X230198Y407671D01*
X230153Y407626D01*
X230094Y407582D01*
X229930Y407433D01*
X229737Y407240D01*
X229722Y407225D01*
X229692Y407196D01*
X229633Y407136D01*
X229573Y407062D01*
X229484Y406958D01*
X229380Y406854D01*
X229172Y406586D01*
Y402500D01*
X228058D01*
Y408875D01*
X229053D01*
X229083Y407686D01*
Y407701D01*
X229113Y407715D01*
X229187Y407805D01*
X229291Y407924D01*
X229440Y408072D01*
X229603Y408236D01*
X229796Y408399D01*
X229990Y408548D01*
X230198Y408681D01*
X230227Y408696D01*
X230287Y408726D01*
X230406Y408785D01*
X230539Y408845D01*
X230718Y408889D01*
X230896Y408949D01*
X231104Y408979D01*
X231312Y408993D01*
X231401D01*
X231476Y408979D01*
D02*
G37*
G36*
X280035Y406839D02*
X283452Y402500D01*
X282041D01*
X278935Y406557D01*
Y402500D01*
X277806D01*
Y410791D01*
X278935D01*
Y406928D01*
X281966Y410791D01*
X283304D01*
X280035Y406839D01*
D02*
G37*
G36*
X219321Y402500D02*
X218221D01*
X218058Y407686D01*
X217983Y409647D01*
X217597Y408503D01*
X216364Y405204D01*
X215576D01*
X214417Y408369D01*
X214031Y409647D01*
X214001Y407597D01*
X213868Y402500D01*
X212798D01*
X213199Y410791D01*
X214536D01*
X215651Y407656D01*
X216022Y406601D01*
X216364Y407656D01*
X217553Y410791D01*
X218920D01*
X219321Y402500D01*
D02*
G37*
G36*
X225755D02*
X224759D01*
X224729Y403525D01*
X224715Y403510D01*
X224685Y403466D01*
X224625Y403406D01*
X224551Y403332D01*
X224373Y403139D01*
X224180Y402961D01*
X224165Y402946D01*
X224135Y402931D01*
X224091Y402886D01*
X224016Y402842D01*
X223868Y402723D01*
X223675Y402619D01*
X223660D01*
X223630Y402604D01*
X223585Y402574D01*
X223511Y402559D01*
X223348Y402500D01*
X223154Y402441D01*
X223140D01*
X223110Y402426D01*
X223065D01*
X222991Y402411D01*
X222827Y402396D01*
X222619Y402381D01*
X222530D01*
X222456Y402396D01*
X222278Y402411D01*
X222070Y402455D01*
X221832Y402515D01*
X221579Y402619D01*
X221342Y402753D01*
X221134Y402946D01*
X221119Y402976D01*
X221059Y403050D01*
X220985Y403198D01*
X220896Y403377D01*
X220792Y403629D01*
X220718Y403927D01*
X220658Y404283D01*
X220643Y404699D01*
Y408875D01*
X221743D01*
Y404788D01*
Y404773D01*
Y404729D01*
X221758Y404655D01*
Y404565D01*
X221773Y404446D01*
X221802Y404328D01*
X221877Y404060D01*
X221936Y403927D01*
X222010Y403793D01*
X222099Y403674D01*
X222204Y403555D01*
X222337Y403466D01*
X222486Y403391D01*
X222649Y403347D01*
X222842Y403332D01*
X222872D01*
X222961Y403347D01*
X223080Y403362D01*
X223229Y403391D01*
X223244D01*
X223258Y403406D01*
X223363Y403436D01*
X223496Y403510D01*
X223645Y403600D01*
X223660D01*
X223675Y403629D01*
X223719Y403659D01*
X223778Y403704D01*
X223927Y403837D01*
X224091Y404001D01*
X224105Y404016D01*
X224135Y404045D01*
X224195Y404105D01*
X224254Y404179D01*
X224343Y404268D01*
X224432Y404372D01*
X224536Y404506D01*
X224655Y404640D01*
Y408875D01*
X225755D01*
Y402500D01*
D02*
G37*
G36*
X288430Y403525D02*
X290287D01*
Y402500D01*
X285072D01*
Y403525D01*
X287212D01*
Y409588D01*
X285206Y408503D01*
X284804Y409439D01*
X287449Y410836D01*
X288430D01*
Y403525D01*
D02*
G37*
G36*
X273333Y410895D02*
X273467D01*
X273616Y410866D01*
X273794Y410836D01*
X273957Y410791D01*
X274136Y410732D01*
X274151D01*
X274210Y410702D01*
X274299Y410658D01*
X274403Y410613D01*
X274537Y410539D01*
X274656Y410464D01*
X274923Y410256D01*
X274938Y410242D01*
X274983Y410197D01*
X275042Y410137D01*
X275116Y410048D01*
X275191Y409930D01*
X275280Y409811D01*
X275354Y409662D01*
X275428Y409499D01*
X275443Y409484D01*
X275458Y409424D01*
X275488Y409335D01*
X275532Y409201D01*
X275562Y409053D01*
X275592Y408889D01*
X275607Y408696D01*
X275622Y408488D01*
Y408473D01*
Y408414D01*
Y408310D01*
X275607Y408206D01*
X275592Y408057D01*
X275562Y407909D01*
X275488Y407597D01*
Y407582D01*
X275458Y407522D01*
X275428Y407448D01*
X275384Y407344D01*
X275339Y407225D01*
X275265Y407091D01*
X275102Y406794D01*
X275087Y406779D01*
X275057Y406720D01*
X274998Y406646D01*
X274923Y406542D01*
X274834Y406408D01*
X274715Y406274D01*
X274596Y406126D01*
X274448Y405962D01*
X274433Y405947D01*
X274373Y405888D01*
X274299Y405799D01*
X274195Y405680D01*
X274061Y405546D01*
X273898Y405383D01*
X273734Y405204D01*
X273541Y405011D01*
X272041Y403555D01*
X276067D01*
Y402500D01*
X270599D01*
Y403481D01*
X272739Y405620D01*
X272769Y405650D01*
X272828Y405710D01*
X272932Y405799D01*
X273051Y405932D01*
X273185Y406066D01*
X273333Y406215D01*
X273467Y406363D01*
X273601Y406512D01*
X273616Y406527D01*
X273660Y406571D01*
X273720Y406646D01*
X273794Y406750D01*
X273957Y406973D01*
X274106Y407210D01*
X274121Y407225D01*
X274136Y407270D01*
X274165Y407329D01*
X274210Y407403D01*
X274299Y407597D01*
X274359Y407805D01*
Y407820D01*
X274373Y407849D01*
X274388Y407909D01*
X274403Y407983D01*
Y408072D01*
X274418Y408176D01*
X274433Y408414D01*
Y408429D01*
Y408459D01*
Y408518D01*
X274418Y408592D01*
X274403Y408785D01*
X274344Y408979D01*
Y408993D01*
X274329Y409023D01*
X274314Y409082D01*
X274284Y409142D01*
X274195Y409305D01*
X274076Y409469D01*
Y409484D01*
X274046Y409499D01*
X273957Y409588D01*
X273824Y409692D01*
X273631Y409796D01*
X273616D01*
X273586Y409811D01*
X273526Y409840D01*
X273452Y409870D01*
X273363Y409885D01*
X273244Y409915D01*
X272992Y409930D01*
X272902D01*
X272798Y409915D01*
X272665Y409900D01*
X272516Y409870D01*
X272353Y409826D01*
X272189Y409766D01*
X272026Y409692D01*
X272011Y409677D01*
X271951Y409647D01*
X271877Y409603D01*
X271773Y409528D01*
X271639Y409439D01*
X271506Y409335D01*
X271372Y409216D01*
X271238Y409082D01*
X270629Y409811D01*
X270644Y409826D01*
X270718Y409900D01*
X270807Y409989D01*
X270941Y410093D01*
X271090Y410212D01*
X271268Y410346D01*
X271476Y410479D01*
X271699Y410598D01*
X271728Y410613D01*
X271803Y410643D01*
X271936Y410702D01*
X272115Y410762D01*
X272323Y410806D01*
X272561Y410866D01*
X272828Y410895D01*
X273125Y410910D01*
X273214D01*
X273333Y410895D01*
D02*
G37*
G36*
X259321Y408979D02*
X259485Y408964D01*
X259663Y408934D01*
X260020Y408860D01*
X260035D01*
X260094Y408830D01*
X260183Y408800D01*
X260287Y408756D01*
X260540Y408637D01*
X260792Y408459D01*
X260807Y408444D01*
X260852Y408414D01*
X260911Y408354D01*
X260986Y408280D01*
X261060Y408191D01*
X261149Y408072D01*
X261223Y407953D01*
X261297Y407805D01*
X261312Y407790D01*
X261327Y407730D01*
X261357Y407656D01*
X261387Y407552D01*
X261416Y407403D01*
X261446Y407255D01*
X261476Y407077D01*
Y406883D01*
Y402500D01*
X260480D01*
X260450Y403347D01*
X260421Y403317D01*
X260361Y403258D01*
X260257Y403169D01*
X260124Y403065D01*
X259960Y402931D01*
X259782Y402812D01*
X259589Y402693D01*
X259396Y402604D01*
X259366Y402589D01*
X259306Y402574D01*
X259202Y402530D01*
X259054Y402500D01*
X258890Y402455D01*
X258697Y402411D01*
X258489Y402396D01*
X258266Y402381D01*
X258177D01*
X258073Y402396D01*
X257939D01*
X257791Y402411D01*
X257642Y402441D01*
X257479Y402470D01*
X257330Y402515D01*
X257315D01*
X257271Y402545D01*
X257196Y402574D01*
X257107Y402619D01*
X256899Y402723D01*
X256691Y402886D01*
X256676Y402901D01*
X256647Y402931D01*
X256602Y402990D01*
X256558Y403050D01*
X256483Y403139D01*
X256424Y403243D01*
X256320Y403466D01*
Y403481D01*
X256305Y403525D01*
X256290Y403600D01*
X256275Y403689D01*
X256245Y403793D01*
X256231Y403912D01*
X256216Y404194D01*
Y404209D01*
Y404239D01*
Y404283D01*
X256231Y404357D01*
X256260Y404521D01*
X256305Y404744D01*
X256394Y404981D01*
X256513Y405234D01*
X256691Y405472D01*
X256810Y405591D01*
X256929Y405695D01*
X256944D01*
X256959Y405724D01*
X257003Y405739D01*
X257063Y405784D01*
X257137Y405828D01*
X257226Y405873D01*
X257330Y405918D01*
X257464Y405977D01*
X257598Y406022D01*
X257761Y406066D01*
X257924Y406111D01*
X258118Y406155D01*
X258326Y406200D01*
X258549Y406215D01*
X258786Y406245D01*
X260361D01*
Y406794D01*
Y406824D01*
Y406883D01*
X260347Y407002D01*
X260317Y407121D01*
X260272Y407270D01*
X260198Y407433D01*
X260109Y407582D01*
X259990Y407715D01*
X259975Y407730D01*
X259930Y407775D01*
X259841Y407820D01*
X259722Y407894D01*
X259559Y407953D01*
X259381Y407998D01*
X259158Y408042D01*
X258890Y408057D01*
X258697D01*
X258563Y408042D01*
X258400Y408028D01*
X258207Y407998D01*
X257820Y407924D01*
X257791D01*
X257731Y407909D01*
X257627Y407879D01*
X257494Y407834D01*
X257330Y407790D01*
X257152Y407730D01*
X256751Y407597D01*
Y408592D01*
X256765D01*
X256780Y408607D01*
X256825Y408622D01*
X256884Y408637D01*
X257033Y408681D01*
X257211Y408726D01*
X257226D01*
X257256Y408741D01*
X257300Y408756D01*
X257375Y408770D01*
X257538Y408815D01*
X257746Y408860D01*
X257761D01*
X257791Y408875D01*
X257850D01*
X257939Y408889D01*
X258132Y408919D01*
X258355Y408949D01*
X258370D01*
X258415Y408964D01*
X258474D01*
X258549Y408979D01*
X258757Y408993D01*
X259188D01*
X259321Y408979D01*
D02*
G37*
G36*
X250332Y408875D02*
X250287Y407864D01*
X250302Y407879D01*
X250332Y407924D01*
X250376Y407968D01*
X250450Y408042D01*
X250614Y408221D01*
X250792Y408384D01*
X250807Y408399D01*
X250837Y408429D01*
X250881Y408459D01*
X250956Y408518D01*
X251119Y408622D01*
X251297Y408741D01*
X251312D01*
X251342Y408770D01*
X251387Y408785D01*
X251461Y408815D01*
X251624Y408875D01*
X251803Y408934D01*
X251817D01*
X251847Y408949D01*
X251907D01*
X251966Y408964D01*
X252144Y408979D01*
X252352Y408993D01*
X252442D01*
X252516Y408979D01*
X252679Y408964D01*
X252887Y408919D01*
X253125Y408845D01*
X253378Y408741D01*
X253615Y408592D01*
X253823Y408399D01*
X253853Y408369D01*
X253913Y408295D01*
X253987Y408161D01*
X254091Y407968D01*
X254180Y407715D01*
X254269Y407418D01*
X254329Y407062D01*
X254343Y406660D01*
Y402500D01*
X253244D01*
Y406571D01*
Y406586D01*
Y406601D01*
Y406690D01*
X253229Y406824D01*
X253214Y406987D01*
X253170Y407166D01*
X253125Y407344D01*
X253051Y407522D01*
X252962Y407671D01*
X252947Y407686D01*
X252917Y407730D01*
X252843Y407790D01*
X252754Y407864D01*
X252650Y407924D01*
X252516Y407983D01*
X252352Y408028D01*
X252174Y408042D01*
X252100D01*
X252040Y408028D01*
X251907Y408013D01*
X251758Y407968D01*
X251743D01*
X251728Y407953D01*
X251639Y407924D01*
X251505Y407849D01*
X251357Y407760D01*
X251342D01*
X251327Y407730D01*
X251283Y407701D01*
X251223Y407656D01*
X251075Y407522D01*
X250896Y407359D01*
X250881Y407344D01*
X250852Y407314D01*
X250807Y407255D01*
X250733Y407181D01*
X250644Y407091D01*
X250554Y406987D01*
X250450Y406854D01*
X250332Y406720D01*
Y402500D01*
X249232D01*
Y411475D01*
X250332D01*
Y408875D01*
D02*
G37*
G36*
X245369Y403421D02*
X247271D01*
Y402500D01*
X242159D01*
Y403421D01*
X244254D01*
Y410568D01*
X242367D01*
Y411475D01*
X245369D01*
Y403421D01*
D02*
G37*
G36*
X237880Y408979D02*
X238043Y408964D01*
X238221Y408934D01*
X238578Y408860D01*
X238593D01*
X238652Y408830D01*
X238741Y408800D01*
X238846Y408756D01*
X239098Y408637D01*
X239351Y408459D01*
X239366Y408444D01*
X239410Y408414D01*
X239470Y408354D01*
X239544Y408280D01*
X239618Y408191D01*
X239707Y408072D01*
X239782Y407953D01*
X239856Y407805D01*
X239871Y407790D01*
X239886Y407730D01*
X239915Y407656D01*
X239945Y407552D01*
X239975Y407403D01*
X240005Y407255D01*
X240034Y407077D01*
Y406883D01*
Y402500D01*
X239039D01*
X239009Y403347D01*
X238979Y403317D01*
X238920Y403258D01*
X238816Y403169D01*
X238682Y403065D01*
X238519Y402931D01*
X238340Y402812D01*
X238147Y402693D01*
X237954Y402604D01*
X237924Y402589D01*
X237865Y402574D01*
X237761Y402530D01*
X237612Y402500D01*
X237449Y402455D01*
X237256Y402411D01*
X237048Y402396D01*
X236825Y402381D01*
X236736D01*
X236632Y402396D01*
X236498D01*
X236349Y402411D01*
X236201Y402441D01*
X236037Y402470D01*
X235889Y402515D01*
X235874D01*
X235829Y402545D01*
X235755Y402574D01*
X235666Y402619D01*
X235458Y402723D01*
X235250Y402886D01*
X235235Y402901D01*
X235205Y402931D01*
X235161Y402990D01*
X235116Y403050D01*
X235042Y403139D01*
X234982Y403243D01*
X234878Y403466D01*
Y403481D01*
X234863Y403525D01*
X234848Y403600D01*
X234834Y403689D01*
X234804Y403793D01*
X234789Y403912D01*
X234774Y404194D01*
Y404209D01*
Y404239D01*
Y404283D01*
X234789Y404357D01*
X234819Y404521D01*
X234863Y404744D01*
X234953Y404981D01*
X235071Y405234D01*
X235250Y405472D01*
X235368Y405591D01*
X235487Y405695D01*
X235502D01*
X235517Y405724D01*
X235562Y405739D01*
X235621Y405784D01*
X235695Y405828D01*
X235785Y405873D01*
X235889Y405918D01*
X236022Y405977D01*
X236156Y406022D01*
X236320Y406066D01*
X236483Y406111D01*
X236676Y406155D01*
X236884Y406200D01*
X237107Y406215D01*
X237345Y406245D01*
X238920D01*
Y406794D01*
Y406824D01*
Y406883D01*
X238905Y407002D01*
X238875Y407121D01*
X238831Y407270D01*
X238756Y407433D01*
X238667Y407582D01*
X238548Y407715D01*
X238533Y407730D01*
X238489Y407775D01*
X238400Y407820D01*
X238281Y407894D01*
X238118Y407953D01*
X237939Y407998D01*
X237716Y408042D01*
X237449Y408057D01*
X237256D01*
X237122Y408042D01*
X236959Y408028D01*
X236765Y407998D01*
X236379Y407924D01*
X236349D01*
X236290Y407909D01*
X236186Y407879D01*
X236052Y407834D01*
X235889Y407790D01*
X235710Y407730D01*
X235309Y407597D01*
Y408592D01*
X235324D01*
X235339Y408607D01*
X235383Y408622D01*
X235443Y408637D01*
X235591Y408681D01*
X235770Y408726D01*
X235785D01*
X235814Y408741D01*
X235859Y408756D01*
X235933Y408770D01*
X236097Y408815D01*
X236305Y408860D01*
X236320D01*
X236349Y408875D01*
X236409D01*
X236498Y408889D01*
X236691Y408919D01*
X236914Y408949D01*
X236929D01*
X236973Y408964D01*
X237033D01*
X237107Y408979D01*
X237315Y408993D01*
X237746D01*
X237880Y408979D01*
D02*
G37*
G36*
X169528Y402500D02*
X168295D01*
X167715Y404313D01*
X164253D01*
X163674Y402500D01*
X162500D01*
X165264Y410791D01*
X166809D01*
X169528Y402500D01*
D02*
G37*
G36*
X295102Y410895D02*
X295265Y410881D01*
X295458Y410851D01*
X295845Y410762D01*
X295860D01*
X295934Y410732D01*
X296023Y410702D01*
X296127Y410658D01*
X296261Y410613D01*
X296395Y410539D01*
X296528Y410464D01*
X296662Y410375D01*
X296677Y410360D01*
X296721Y410331D01*
X296781Y410271D01*
X296840Y410197D01*
X296929Y410108D01*
X297004Y410004D01*
X297078Y409885D01*
X297152Y409751D01*
X297167Y409736D01*
X297182Y409692D01*
X297212Y409618D01*
X297241Y409514D01*
X297271Y409409D01*
X297301Y409276D01*
X297331Y409127D01*
Y408964D01*
Y408949D01*
Y408934D01*
Y408845D01*
X297316Y408711D01*
X297286Y408533D01*
X297227Y408340D01*
X297152Y408132D01*
X297048Y407924D01*
X296915Y407730D01*
X296900Y407715D01*
X296840Y407641D01*
X296751Y407552D01*
X296617Y407433D01*
X296454Y407285D01*
X296261Y407136D01*
X296038Y406987D01*
X295770Y406839D01*
X295785Y406824D01*
X295830Y406809D01*
X295904Y406764D01*
X295993Y406720D01*
X296216Y406601D01*
X296454Y406438D01*
X296469Y406423D01*
X296513Y406393D01*
X296573Y406348D01*
X296647Y406289D01*
X296825Y406126D01*
X297004Y405932D01*
X297019Y405918D01*
X297048Y405888D01*
X297093Y405828D01*
X297137Y405754D01*
X297197Y405665D01*
X297256Y405561D01*
X297375Y405323D01*
Y405308D01*
X297390Y405264D01*
X297420Y405190D01*
X297449Y405100D01*
X297464Y404996D01*
X297494Y404863D01*
X297509Y404580D01*
Y404551D01*
Y404491D01*
X297494Y404387D01*
X297479Y404268D01*
X297449Y404120D01*
X297420Y403956D01*
X297360Y403793D01*
X297286Y403629D01*
X297271Y403614D01*
X297241Y403570D01*
X297197Y403481D01*
X297122Y403391D01*
X297033Y403288D01*
X296929Y403169D01*
X296810Y403050D01*
X296677Y402946D01*
X296662Y402931D01*
X296602Y402901D01*
X296528Y402842D01*
X296424Y402782D01*
X296276Y402723D01*
X296127Y402649D01*
X295949Y402574D01*
X295756Y402515D01*
X295726D01*
X295666Y402500D01*
X295562Y402470D01*
X295414Y402455D01*
X295250Y402426D01*
X295057Y402396D01*
X294849Y402381D01*
X294507D01*
X294389Y402396D01*
X294225D01*
X294032Y402411D01*
X293824Y402441D01*
X293631Y402485D01*
X293423Y402530D01*
X293393D01*
X293333Y402559D01*
X293244Y402589D01*
X293125Y402634D01*
X292977Y402693D01*
X292828Y402767D01*
X292680Y402857D01*
X292546Y402946D01*
X292531Y402961D01*
X292486Y402990D01*
X292427Y403050D01*
X292353Y403139D01*
X292264Y403228D01*
X292189Y403347D01*
X292100Y403466D01*
X292026Y403600D01*
Y403614D01*
X291996Y403659D01*
X291981Y403748D01*
X291952Y403837D01*
X291922Y403971D01*
X291892Y404105D01*
X291877Y404268D01*
X291863Y404432D01*
Y404446D01*
Y404461D01*
Y404506D01*
Y404565D01*
X291892Y404699D01*
X291922Y404877D01*
X291966Y405085D01*
X292041Y405308D01*
X292145Y405531D01*
X292278Y405739D01*
X292293Y405769D01*
X292368Y405828D01*
X292457Y405947D01*
X292605Y406081D01*
X292799Y406230D01*
X293022Y406408D01*
X293289Y406571D01*
X293601Y406750D01*
X293586D01*
X293571Y406764D01*
X293527Y406794D01*
X293467Y406824D01*
X293319Y406913D01*
X293140Y407017D01*
X292947Y407151D01*
X292754Y407314D01*
X292576Y407493D01*
X292412Y407671D01*
X292397Y407701D01*
X292353Y407760D01*
X292293Y407864D01*
X292234Y408013D01*
X292160Y408176D01*
X292100Y408369D01*
X292056Y408592D01*
X292041Y408830D01*
Y408845D01*
Y408889D01*
X292056Y408979D01*
Y409068D01*
X292085Y409187D01*
X292115Y409320D01*
X292145Y409454D01*
X292204Y409588D01*
X292219Y409603D01*
X292234Y409647D01*
X292278Y409721D01*
X292323Y409811D01*
X292397Y409915D01*
X292486Y410033D01*
X292576Y410152D01*
X292695Y410256D01*
X292709Y410271D01*
X292754Y410301D01*
X292828Y410360D01*
X292932Y410435D01*
X293051Y410509D01*
X293185Y410583D01*
X293348Y410658D01*
X293527Y410732D01*
X293556Y410747D01*
X293616Y410762D01*
X293720Y410791D01*
X293868Y410821D01*
X294047Y410851D01*
X294240Y410881D01*
X294463Y410910D01*
X294938D01*
X295102Y410895D01*
D02*
G37*
G36*
X202055Y408979D02*
X202233Y408964D01*
X202411Y408934D01*
X202619Y408904D01*
X202827Y408845D01*
X203035Y408770D01*
X203065Y408756D01*
X203125Y408726D01*
X203228Y408681D01*
X203362Y408622D01*
X203496Y408533D01*
X203659Y408414D01*
X203808Y408295D01*
X203957Y408146D01*
X203972Y408132D01*
X204016Y408072D01*
X204090Y407983D01*
X204179Y407864D01*
X204269Y407715D01*
X204358Y407552D01*
X204462Y407344D01*
X204536Y407121D01*
X204551Y407091D01*
X204566Y407017D01*
X204596Y406883D01*
X204640Y406720D01*
X204685Y406512D01*
X204714Y406274D01*
X204729Y406007D01*
X204744Y405724D01*
Y405710D01*
Y405695D01*
Y405650D01*
Y405606D01*
X204729Y405457D01*
X204714Y405279D01*
X204685Y405071D01*
X204655Y404833D01*
X204596Y404595D01*
X204521Y404357D01*
X204506Y404328D01*
X204477Y404253D01*
X204432Y404134D01*
X204373Y404001D01*
X204284Y403837D01*
X204179Y403659D01*
X204061Y403481D01*
X203912Y403302D01*
X203897Y403288D01*
X203838Y403228D01*
X203763Y403154D01*
X203645Y403050D01*
X203511Y402946D01*
X203347Y402827D01*
X203169Y402723D01*
X202961Y402619D01*
X202931Y402604D01*
X202857Y402589D01*
X202738Y402545D01*
X202590Y402500D01*
X202396Y402455D01*
X202188Y402426D01*
X201951Y402396D01*
X201683Y402381D01*
X201564D01*
X201445Y402396D01*
X201267Y402411D01*
X201089Y402426D01*
X200881Y402470D01*
X200658Y402515D01*
X200450Y402589D01*
X200420Y402604D01*
X200361Y402634D01*
X200257Y402678D01*
X200138Y402753D01*
X199989Y402827D01*
X199841Y402946D01*
X199677Y403065D01*
X199529Y403213D01*
X199514Y403228D01*
X199469Y403288D01*
X199395Y403377D01*
X199321Y403496D01*
X199231Y403644D01*
X199127Y403823D01*
X199038Y404016D01*
X198964Y404239D01*
X198949Y404268D01*
X198934Y404342D01*
X198905Y404476D01*
X198875Y404640D01*
X198830Y404848D01*
X198801Y405085D01*
X198786Y405353D01*
X198771Y405635D01*
Y405650D01*
Y405665D01*
Y405710D01*
Y405769D01*
X198786Y405903D01*
X198801Y406096D01*
X198815Y406304D01*
X198860Y406527D01*
X198905Y406764D01*
X198979Y407002D01*
X198994Y407032D01*
X199023Y407106D01*
X199068Y407225D01*
X199127Y407359D01*
X199217Y407522D01*
X199321Y407701D01*
X199440Y407879D01*
X199573Y408057D01*
X199588Y408072D01*
X199648Y408132D01*
X199737Y408206D01*
X199841Y408310D01*
X199989Y408414D01*
X200153Y408533D01*
X200331Y408637D01*
X200539Y408741D01*
X200569Y408756D01*
X200643Y408785D01*
X200762Y408815D01*
X200910Y408875D01*
X201104Y408919D01*
X201312Y408949D01*
X201564Y408979D01*
X201817Y408993D01*
X201936D01*
X202055Y408979D01*
D02*
G37*
G36*
X180613D02*
X180791Y408964D01*
X180970Y408934D01*
X181178Y408904D01*
X181386Y408845D01*
X181594Y408770D01*
X181623Y408756D01*
X181683Y408726D01*
X181787Y408681D01*
X181921Y408622D01*
X182054Y408533D01*
X182218Y408414D01*
X182367Y408295D01*
X182515Y408146D01*
X182530Y408132D01*
X182575Y408072D01*
X182649Y407983D01*
X182738Y407864D01*
X182827Y407715D01*
X182916Y407552D01*
X183020Y407344D01*
X183095Y407121D01*
X183109Y407091D01*
X183124Y407017D01*
X183154Y406883D01*
X183199Y406720D01*
X183243Y406512D01*
X183273Y406274D01*
X183288Y406007D01*
X183303Y405724D01*
Y405710D01*
Y405695D01*
Y405650D01*
Y405606D01*
X183288Y405457D01*
X183273Y405279D01*
X183243Y405071D01*
X183214Y404833D01*
X183154Y404595D01*
X183080Y404357D01*
X183065Y404328D01*
X183035Y404253D01*
X182991Y404134D01*
X182931Y404001D01*
X182842Y403837D01*
X182738Y403659D01*
X182619Y403481D01*
X182470Y403302D01*
X182456Y403288D01*
X182396Y403228D01*
X182322Y403154D01*
X182203Y403050D01*
X182069Y402946D01*
X181906Y402827D01*
X181728Y402723D01*
X181520Y402619D01*
X181490Y402604D01*
X181416Y402589D01*
X181297Y402545D01*
X181148Y402500D01*
X180955Y402455D01*
X180747Y402426D01*
X180509Y402396D01*
X180242Y402381D01*
X180123D01*
X180004Y402396D01*
X179826Y402411D01*
X179647Y402426D01*
X179439Y402470D01*
X179216Y402515D01*
X179008Y402589D01*
X178979Y402604D01*
X178919Y402634D01*
X178815Y402678D01*
X178696Y402753D01*
X178548Y402827D01*
X178399Y402946D01*
X178236Y403065D01*
X178087Y403213D01*
X178072Y403228D01*
X178028Y403288D01*
X177953Y403377D01*
X177879Y403496D01*
X177790Y403644D01*
X177686Y403823D01*
X177597Y404016D01*
X177523Y404239D01*
X177508Y404268D01*
X177493Y404342D01*
X177463Y404476D01*
X177433Y404640D01*
X177389Y404848D01*
X177359Y405085D01*
X177344Y405353D01*
X177329Y405635D01*
Y405650D01*
Y405665D01*
Y405710D01*
Y405769D01*
X177344Y405903D01*
X177359Y406096D01*
X177374Y406304D01*
X177418Y406527D01*
X177463Y406764D01*
X177537Y407002D01*
X177552Y407032D01*
X177582Y407106D01*
X177626Y407225D01*
X177686Y407359D01*
X177775Y407522D01*
X177879Y407701D01*
X177998Y407879D01*
X178132Y408057D01*
X178146Y408072D01*
X178206Y408132D01*
X178295Y408206D01*
X178399Y408310D01*
X178548Y408414D01*
X178711Y408533D01*
X178890Y408637D01*
X179097Y408741D01*
X179127Y408756D01*
X179202Y408785D01*
X179320Y408815D01*
X179469Y408875D01*
X179662Y408919D01*
X179870Y408949D01*
X180123Y408979D01*
X180375Y408993D01*
X180494D01*
X180613Y408979D01*
D02*
G37*
G36*
X246279Y424034D02*
X246398Y424019D01*
X246516Y423975D01*
X246531D01*
X246546Y423960D01*
X246621Y423930D01*
X246710Y423871D01*
X246799Y423782D01*
X246814Y423767D01*
X246873Y423707D01*
X246918Y423618D01*
X246977Y423499D01*
X246992Y423470D01*
X247022Y423410D01*
X247036Y423306D01*
X247051Y423172D01*
Y423158D01*
Y423143D01*
X247036Y423068D01*
X247022Y422950D01*
X246977Y422831D01*
X246962Y422801D01*
X246933Y422742D01*
X246873Y422652D01*
X246799Y422548D01*
X246784Y422533D01*
X246724Y422489D01*
X246635Y422430D01*
X246516Y422370D01*
X246487Y422355D01*
X246413Y422340D01*
X246308Y422326D01*
X246175Y422311D01*
X246145D01*
X246071Y422326D01*
X245952Y422340D01*
X245833Y422370D01*
X245803Y422385D01*
X245744Y422415D01*
X245640Y422474D01*
X245551Y422548D01*
X245536Y422578D01*
X245491Y422637D01*
X245432Y422727D01*
X245372Y422831D01*
Y422846D01*
X245357Y422860D01*
X245343Y422935D01*
X245328Y423039D01*
X245313Y423172D01*
Y423187D01*
Y423202D01*
X245328Y423276D01*
X245343Y423381D01*
X245372Y423499D01*
Y423514D01*
X245387Y423529D01*
X245417Y423603D01*
X245476Y423693D01*
X245551Y423782D01*
X245565Y423811D01*
X245625Y423856D01*
X245714Y423915D01*
X245833Y423975D01*
X245848D01*
X245863Y423990D01*
X245937Y424019D01*
X246041Y424034D01*
X246175Y424049D01*
X246204D01*
X246279Y424034D01*
D02*
G37*
G36*
X253976Y421479D02*
X254124D01*
X254436Y421449D01*
X254451D01*
X254511Y421434D01*
X254615D01*
X254734Y421419D01*
X254882Y421389D01*
X255046Y421375D01*
X255402Y421300D01*
Y420320D01*
X255372D01*
X255313Y420334D01*
X255209Y420364D01*
X255090Y420394D01*
X254927Y420409D01*
X254763Y420438D01*
X254407Y420498D01*
X254392D01*
X254332Y420513D01*
X254243Y420528D01*
X254139Y420542D01*
X254005D01*
X253872Y420557D01*
X253604Y420572D01*
X253456D01*
X253367Y420557D01*
X253129Y420542D01*
X252906Y420498D01*
X252891D01*
X252861Y420483D01*
X252802Y420468D01*
X252742Y420453D01*
X252594Y420394D01*
X252445Y420320D01*
X252416Y420305D01*
X252356Y420245D01*
X252282Y420171D01*
X252208Y420067D01*
X252193Y420037D01*
X252178Y419978D01*
X252148Y419874D01*
X252133Y419740D01*
Y419710D01*
X252148Y419636D01*
X252163Y419547D01*
X252193Y419428D01*
X252208Y419398D01*
X252252Y419339D01*
X252311Y419264D01*
X252430Y419160D01*
X252445D01*
X252460Y419131D01*
X252505Y419116D01*
X252564Y419071D01*
X252728Y418997D01*
X252936Y418893D01*
X252950D01*
X252995Y418878D01*
X253069Y418848D01*
X253158Y418819D01*
X253292Y418774D01*
X253426Y418730D01*
X253604Y418685D01*
X253783Y418626D01*
X253812Y418611D01*
X253872Y418596D01*
X253976Y418566D01*
X254109Y418522D01*
X254258Y418462D01*
X254422Y418403D01*
X254585Y418343D01*
X254734Y418269D01*
X254748Y418254D01*
X254793Y418239D01*
X254867Y418195D01*
X254956Y418150D01*
X255164Y418031D01*
X255358Y417868D01*
X255372Y417853D01*
X255402Y417823D01*
X255432Y417779D01*
X255491Y417719D01*
X255595Y417556D01*
X255699Y417363D01*
Y417348D01*
X255714Y417318D01*
X255744Y417259D01*
X255759Y417184D01*
X255788Y417080D01*
X255803Y416976D01*
X255818Y416724D01*
Y416709D01*
Y416664D01*
Y416605D01*
X255803Y416530D01*
X255774Y416337D01*
X255699Y416129D01*
Y416114D01*
X255685Y416085D01*
X255655Y416040D01*
X255610Y415966D01*
X255521Y415817D01*
X255387Y415654D01*
X255372Y415639D01*
X255358Y415624D01*
X255313Y415579D01*
X255254Y415535D01*
X255105Y415416D01*
X254927Y415297D01*
X254912D01*
X254882Y415267D01*
X254837Y415253D01*
X254763Y415208D01*
X254585Y415134D01*
X254377Y415059D01*
X254362D01*
X254332Y415045D01*
X254273Y415030D01*
X254184Y415015D01*
X253991Y414970D01*
X253768Y414926D01*
X253708D01*
X253649Y414911D01*
X253575D01*
X253381Y414896D01*
X253158Y414881D01*
X252921D01*
X252772Y414896D01*
X252594D01*
X252386Y414911D01*
X251970Y414941D01*
X251940D01*
X251881Y414955D01*
X251777Y414970D01*
X251643Y414985D01*
X251479Y415015D01*
X251301Y415045D01*
X250915Y415134D01*
Y416144D01*
X250944D01*
X251004Y416114D01*
X251123Y416085D01*
X251257Y416055D01*
X251420Y416010D01*
X251613Y415966D01*
X252014Y415891D01*
X252044D01*
X252104Y415877D01*
X252222Y415862D01*
X252356D01*
X252519Y415847D01*
X252713Y415832D01*
X253114Y415817D01*
X253248D01*
X253381Y415832D01*
X253560Y415847D01*
X253753Y415862D01*
X253946Y415906D01*
X254124Y415951D01*
X254288Y416025D01*
X254303Y416040D01*
X254347Y416070D01*
X254407Y416114D01*
X254481Y416189D01*
X254555Y416278D01*
X254615Y416382D01*
X254659Y416501D01*
X254674Y416634D01*
Y416649D01*
Y416664D01*
X254659Y416739D01*
X254644Y416842D01*
X254600Y416946D01*
X254585Y416976D01*
X254555Y417036D01*
X254481Y417110D01*
X254377Y417199D01*
X254347Y417229D01*
X254317Y417244D01*
X254258Y417288D01*
X254199Y417318D01*
X254109Y417363D01*
X254005Y417422D01*
X253887Y417467D01*
X253872D01*
X253827Y417496D01*
X253753Y417526D01*
X253649Y417556D01*
X253530Y417600D01*
X253367Y417660D01*
X253203Y417719D01*
X252995Y417779D01*
X252980D01*
X252921Y417794D01*
X252846Y417823D01*
X252728Y417853D01*
X252609Y417897D01*
X252475Y417942D01*
X252193Y418061D01*
X252178Y418076D01*
X252133Y418091D01*
X252059Y418120D01*
X251985Y418165D01*
X251777Y418299D01*
X251569Y418447D01*
X251554Y418462D01*
X251524Y418492D01*
X251479Y418536D01*
X251420Y418596D01*
X251286Y418759D01*
X251152Y418967D01*
Y418982D01*
X251123Y419027D01*
X251108Y419086D01*
X251078Y419175D01*
X251049Y419279D01*
X251034Y419398D01*
X251004Y419532D01*
Y419681D01*
Y419696D01*
Y419725D01*
Y419785D01*
X251019Y419859D01*
X251049Y420037D01*
X251123Y420260D01*
Y420275D01*
X251152Y420320D01*
X251182Y420379D01*
X251227Y420453D01*
X251271Y420542D01*
X251346Y420632D01*
X251435Y420736D01*
X251539Y420840D01*
X251554Y420854D01*
X251598Y420884D01*
X251658Y420944D01*
X251747Y421003D01*
X251866Y421077D01*
X251999Y421152D01*
X252163Y421226D01*
X252341Y421300D01*
X252371Y421315D01*
X252430Y421330D01*
X252549Y421360D01*
X252698Y421404D01*
X252876Y421434D01*
X253099Y421464D01*
X253337Y421479D01*
X253619Y421493D01*
X253857D01*
X253976Y421479D01*
D02*
G37*
G36*
X240157D02*
X240335Y421464D01*
X240543Y421419D01*
X240781Y421330D01*
X241033Y421211D01*
X241271Y421063D01*
X241375Y420959D01*
X241479Y420840D01*
X241509Y420810D01*
X241524Y420780D01*
X241554Y420721D01*
X241598Y420646D01*
X241643Y420572D01*
X241732Y420364D01*
X241821Y420097D01*
X241910Y419770D01*
X241955Y419383D01*
X241970Y418938D01*
X240855D01*
Y418952D01*
Y418967D01*
Y419012D01*
Y419071D01*
X240840Y419220D01*
X240826Y419398D01*
X240796Y419606D01*
X240751Y419799D01*
X240692Y419993D01*
X240603Y420156D01*
X240588Y420171D01*
X240558Y420215D01*
X240499Y420275D01*
X240409Y420349D01*
X240291Y420424D01*
X240172Y420483D01*
X240008Y420528D01*
X239830Y420542D01*
X239741D01*
X239696Y420528D01*
X239548Y420513D01*
X239384Y420453D01*
X239369D01*
X239340Y420438D01*
X239295Y420424D01*
X239250Y420394D01*
X239102Y420320D01*
X238923Y420201D01*
X238909Y420186D01*
X238879Y420171D01*
X238834Y420126D01*
X238775Y420082D01*
X238612Y419933D01*
X238418Y419740D01*
X238403Y419725D01*
X238374Y419696D01*
X238314Y419636D01*
X238255Y419562D01*
X238166Y419458D01*
X238062Y419354D01*
X237854Y419086D01*
Y415000D01*
X236739D01*
Y421375D01*
X237735D01*
X237764Y420186D01*
Y420201D01*
X237794Y420215D01*
X237868Y420305D01*
X237973Y420424D01*
X238121Y420572D01*
X238285Y420736D01*
X238478Y420899D01*
X238671Y421048D01*
X238879Y421181D01*
X238909Y421196D01*
X238968Y421226D01*
X239087Y421285D01*
X239221Y421345D01*
X239399Y421389D01*
X239577Y421449D01*
X239785Y421479D01*
X239993Y421493D01*
X240082D01*
X240157Y421479D01*
D02*
G37*
G36*
X182801Y421449D02*
X182950D01*
X183098Y421434D01*
X183425Y421389D01*
X183440D01*
X183500Y421375D01*
X183589Y421360D01*
X183693Y421330D01*
X183811Y421300D01*
X183960Y421270D01*
X184257Y421166D01*
Y420112D01*
X184242Y420126D01*
X184183Y420141D01*
X184109Y420186D01*
X183990Y420230D01*
X183871Y420275D01*
X183722Y420334D01*
X183410Y420424D01*
X183395D01*
X183336Y420438D01*
X183247Y420453D01*
X183143Y420483D01*
X183009Y420498D01*
X182846Y420513D01*
X182519Y420528D01*
X182444D01*
X182370Y420513D01*
X182266D01*
X182147Y420483D01*
X181999Y420453D01*
X181865Y420424D01*
X181716Y420364D01*
X181702D01*
X181657Y420334D01*
X181583Y420290D01*
X181493Y420245D01*
X181285Y420097D01*
X181063Y419889D01*
X181048Y419874D01*
X181018Y419829D01*
X180959Y419770D01*
X180899Y419681D01*
X180825Y419577D01*
X180751Y419458D01*
X180676Y419309D01*
X180617Y419146D01*
Y419131D01*
X180587Y419071D01*
X180572Y418982D01*
X180543Y418863D01*
X180513Y418715D01*
X180483Y418551D01*
X180468Y418358D01*
X180453Y418165D01*
Y418150D01*
Y418120D01*
Y418061D01*
X180468Y417972D01*
Y417883D01*
X180483Y417764D01*
X180528Y417511D01*
X180587Y417229D01*
X180691Y416946D01*
X180825Y416664D01*
X181003Y416427D01*
X181033Y416397D01*
X181107Y416337D01*
X181241Y416248D01*
X181404Y416144D01*
X181627Y416040D01*
X181895Y415951D01*
X182207Y415891D01*
X182563Y415862D01*
X182727D01*
X182846Y415877D01*
X182964D01*
X183113Y415906D01*
X183425Y415951D01*
X183440D01*
X183500Y415966D01*
X183589Y415996D01*
X183693Y416025D01*
X183811Y416070D01*
X183960Y416129D01*
X184257Y416263D01*
Y415238D01*
X184242D01*
X184183Y415208D01*
X184094Y415178D01*
X183975Y415134D01*
X183841Y415104D01*
X183693Y415059D01*
X183351Y414985D01*
X183336D01*
X183277Y414970D01*
X183187Y414955D01*
X183069D01*
X182935Y414941D01*
X182771Y414926D01*
X182430Y414911D01*
X182281D01*
X182177Y414926D01*
X182058Y414941D01*
X181910Y414955D01*
X181746Y414985D01*
X181568Y415015D01*
X181196Y415104D01*
X180810Y415253D01*
X180617Y415357D01*
X180438Y415461D01*
X180260Y415579D01*
X180097Y415728D01*
X180082Y415743D01*
X180067Y415773D01*
X180022Y415817D01*
X179978Y415877D01*
X179918Y415966D01*
X179844Y416070D01*
X179770Y416189D01*
X179696Y416337D01*
X179621Y416501D01*
X179547Y416679D01*
X179487Y416872D01*
X179413Y417080D01*
X179369Y417318D01*
X179324Y417571D01*
X179309Y417838D01*
X179294Y418120D01*
Y418135D01*
Y418150D01*
Y418195D01*
Y418254D01*
X179309Y418388D01*
X179324Y418581D01*
X179354Y418789D01*
X179384Y419012D01*
X179443Y419250D01*
X179517Y419487D01*
X179532Y419517D01*
X179562Y419591D01*
X179621Y419710D01*
X179696Y419844D01*
X179785Y420008D01*
X179889Y420186D01*
X180022Y420364D01*
X180171Y420528D01*
X180186Y420542D01*
X180245Y420602D01*
X180334Y420676D01*
X180468Y420780D01*
X180617Y420884D01*
X180780Y421003D01*
X180988Y421107D01*
X181196Y421211D01*
X181226Y421226D01*
X181300Y421256D01*
X181419Y421285D01*
X181583Y421345D01*
X181776Y421389D01*
X181999Y421419D01*
X182236Y421449D01*
X182504Y421464D01*
X182682D01*
X182801Y421449D01*
D02*
G37*
G36*
X246903Y415921D02*
X248805D01*
Y415000D01*
X243693D01*
Y415921D01*
X245788D01*
Y420453D01*
X243901D01*
Y421375D01*
X246903D01*
Y415921D01*
D02*
G37*
G36*
X220617Y422326D02*
X218165D01*
Y415000D01*
X217021D01*
Y422326D01*
X214570D01*
Y423291D01*
X220617D01*
Y422326D01*
D02*
G37*
G36*
X187690Y418447D02*
X190557Y421375D01*
X192014D01*
X189027Y418432D01*
X192177Y415000D01*
X190662D01*
X187690Y418403D01*
Y415000D01*
X186590D01*
Y423975D01*
X187690D01*
Y418447D01*
D02*
G37*
G36*
X167704Y423276D02*
X167883Y423262D01*
X168091Y423232D01*
X168507Y423143D01*
X168536D01*
X168611Y423113D01*
X168715Y423083D01*
X168848Y423039D01*
X169012Y422979D01*
X169175Y422905D01*
X169339Y422801D01*
X169502Y422697D01*
X169517Y422682D01*
X169577Y422637D01*
X169651Y422578D01*
X169755Y422489D01*
X169859Y422370D01*
X169978Y422236D01*
X170082Y422088D01*
X170186Y421909D01*
X170201Y421895D01*
X170230Y421820D01*
X170275Y421716D01*
X170319Y421582D01*
X170364Y421419D01*
X170409Y421226D01*
X170438Y421003D01*
X170453Y420750D01*
Y420721D01*
Y420661D01*
X170438Y420557D01*
X170424Y420424D01*
X170409Y420275D01*
X170379Y420097D01*
X170319Y419918D01*
X170260Y419725D01*
X170245Y419710D01*
X170230Y419636D01*
X170171Y419547D01*
X170112Y419428D01*
X170037Y419294D01*
X169933Y419146D01*
X169814Y418982D01*
X169666Y418834D01*
X169651Y418819D01*
X169591Y418774D01*
X169502Y418700D01*
X169383Y418611D01*
X169235Y418507D01*
X169071Y418403D01*
X168863Y418299D01*
X168640Y418210D01*
X168611Y418195D01*
X168536Y418180D01*
X168403Y418135D01*
X168224Y418091D01*
X168001Y418046D01*
X167749Y418016D01*
X167467Y417987D01*
X167155Y417972D01*
X166129D01*
Y415000D01*
X165000D01*
Y423291D01*
X167556D01*
X167704Y423276D01*
D02*
G37*
G36*
X231598Y421375D02*
X234466D01*
Y420453D01*
X231598D01*
Y417199D01*
Y417169D01*
Y417080D01*
X231613Y416961D01*
X231643Y416813D01*
X231687Y416649D01*
X231747Y416486D01*
X231836Y416323D01*
X231955Y416174D01*
X231970Y416159D01*
X232029Y416129D01*
X232103Y416070D01*
X232237Y416010D01*
X232386Y415951D01*
X232564Y415891D01*
X232787Y415862D01*
X233039Y415847D01*
X233232D01*
X233337Y415862D01*
X233441D01*
X233693Y415891D01*
X233708D01*
X233753Y415906D01*
X233827D01*
X233931Y415921D01*
X234050Y415951D01*
X234184Y415981D01*
X234466Y416040D01*
Y415089D01*
X234451D01*
X234406Y415074D01*
X234317Y415059D01*
X234228Y415045D01*
X234109Y415015D01*
X233976Y415000D01*
X233678Y414955D01*
X233604D01*
X233530Y414941D01*
X233426D01*
X233307Y414926D01*
X233173D01*
X232876Y414911D01*
X232757D01*
X232683Y414926D01*
X232579D01*
X232460Y414941D01*
X232207Y414985D01*
X231910Y415045D01*
X231613Y415134D01*
X231331Y415267D01*
X231078Y415446D01*
X231048Y415476D01*
X230989Y415550D01*
X230900Y415684D01*
X230796Y415862D01*
X230677Y416100D01*
X230588Y416382D01*
X230528Y416724D01*
X230499Y417110D01*
Y420453D01*
X228715D01*
Y421375D01*
X230499D01*
Y423113D01*
X231598Y423410D01*
Y421375D01*
D02*
G37*
G36*
X203009D02*
X205877D01*
Y420453D01*
X203009D01*
Y417199D01*
Y417169D01*
Y417080D01*
X203024Y416961D01*
X203054Y416813D01*
X203099Y416649D01*
X203158Y416486D01*
X203247Y416323D01*
X203366Y416174D01*
X203381Y416159D01*
X203440Y416129D01*
X203514Y416070D01*
X203648Y416010D01*
X203797Y415951D01*
X203975Y415891D01*
X204198Y415862D01*
X204451Y415847D01*
X204644D01*
X204748Y415862D01*
X204852D01*
X205104Y415891D01*
X205119D01*
X205164Y415906D01*
X205238D01*
X205342Y415921D01*
X205461Y415951D01*
X205595Y415981D01*
X205877Y416040D01*
Y415089D01*
X205862D01*
X205818Y415074D01*
X205728Y415059D01*
X205639Y415045D01*
X205520Y415015D01*
X205387Y415000D01*
X205090Y414955D01*
X205015D01*
X204941Y414941D01*
X204837D01*
X204718Y414926D01*
X204584D01*
X204287Y414911D01*
X204168D01*
X204094Y414926D01*
X203990D01*
X203871Y414941D01*
X203619Y414985D01*
X203321Y415045D01*
X203024Y415134D01*
X202742Y415267D01*
X202489Y415446D01*
X202460Y415476D01*
X202400Y415550D01*
X202311Y415684D01*
X202207Y415862D01*
X202088Y416100D01*
X201999Y416382D01*
X201940Y416724D01*
X201910Y417110D01*
Y420453D01*
X200127D01*
Y421375D01*
X201910D01*
Y423113D01*
X203009Y423410D01*
Y421375D01*
D02*
G37*
G36*
X225030Y421479D02*
X225194Y421464D01*
X225372Y421434D01*
X225565Y421404D01*
X225773Y421345D01*
X225966Y421270D01*
X225996Y421256D01*
X226056Y421226D01*
X226145Y421181D01*
X226264Y421122D01*
X226412Y421033D01*
X226546Y420929D01*
X226695Y420810D01*
X226828Y420676D01*
X226843Y420661D01*
X226888Y420617D01*
X226947Y420528D01*
X227036Y420424D01*
X227111Y420290D01*
X227200Y420126D01*
X227289Y419948D01*
X227363Y419755D01*
X227378Y419725D01*
X227393Y419666D01*
X227423Y419547D01*
X227467Y419398D01*
X227497Y419220D01*
X227527Y418997D01*
X227542Y418774D01*
X227556Y418522D01*
Y418507D01*
Y418477D01*
Y418432D01*
Y418388D01*
Y418254D01*
X227542Y418120D01*
Y418091D01*
Y418031D01*
Y417942D01*
X227527Y417838D01*
X223069D01*
Y417823D01*
Y417794D01*
Y417749D01*
X223084Y417675D01*
X223099Y417496D01*
X223143Y417273D01*
X223203Y417036D01*
X223292Y416783D01*
X223426Y416530D01*
X223604Y416323D01*
X223634Y416308D01*
X223708Y416248D01*
X223827Y416159D01*
X224005Y416070D01*
X224228Y415966D01*
X224495Y415891D01*
X224822Y415832D01*
X225179Y415802D01*
X225536D01*
X225729Y415817D01*
X225833D01*
X225907Y415832D01*
X226070Y415847D01*
X226264Y415862D01*
X226278D01*
X226308Y415877D01*
X226368D01*
X226427Y415891D01*
X226591Y415921D01*
X226769Y415951D01*
X226784D01*
X226813Y415966D01*
X226858Y415981D01*
X226917Y415996D01*
X227051Y416025D01*
X227215Y416070D01*
Y415163D01*
X227200D01*
X227140Y415149D01*
X227036Y415119D01*
X226917Y415089D01*
X226769Y415059D01*
X226591Y415015D01*
X226397Y414985D01*
X226189Y414955D01*
X226160D01*
X226085Y414941D01*
X225981Y414926D01*
X225833D01*
X225654Y414911D01*
X225461Y414896D01*
X225238Y414881D01*
X224882D01*
X224733Y414896D01*
X224540Y414911D01*
X224317Y414926D01*
X224079Y414970D01*
X223842Y415015D01*
X223604Y415089D01*
X223574Y415104D01*
X223515Y415134D01*
X223396Y415178D01*
X223262Y415253D01*
X223113Y415342D01*
X222950Y415461D01*
X222787Y415579D01*
X222638Y415728D01*
X222623Y415743D01*
X222579Y415802D01*
X222504Y415891D01*
X222430Y416025D01*
X222341Y416174D01*
X222252Y416352D01*
X222163Y416545D01*
X222088Y416768D01*
Y416798D01*
X222059Y416872D01*
X222029Y417006D01*
X221999Y417184D01*
X221969Y417377D01*
X221940Y417615D01*
X221925Y417883D01*
X221910Y418165D01*
Y418180D01*
Y418195D01*
Y418284D01*
X221925Y418418D01*
X221940Y418581D01*
X221954Y418774D01*
X221999Y418997D01*
X222044Y419220D01*
X222103Y419443D01*
X222118Y419473D01*
X222133Y419547D01*
X222177Y419651D01*
X222252Y419799D01*
X222326Y419963D01*
X222415Y420141D01*
X222534Y420320D01*
X222653Y420498D01*
X222668Y420513D01*
X222727Y420572D01*
X222801Y420661D01*
X222906Y420765D01*
X223039Y420884D01*
X223188Y421003D01*
X223366Y421122D01*
X223559Y421226D01*
X223589Y421241D01*
X223663Y421270D01*
X223767Y421315D01*
X223916Y421360D01*
X224109Y421404D01*
X224317Y421449D01*
X224540Y421479D01*
X224793Y421493D01*
X224911D01*
X225030Y421479D01*
D02*
G37*
G36*
X196442D02*
X196605Y421464D01*
X196783Y421434D01*
X196977Y421404D01*
X197185Y421345D01*
X197378Y421270D01*
X197407Y421256D01*
X197467Y421226D01*
X197556Y421181D01*
X197675Y421122D01*
X197824Y421033D01*
X197957Y420929D01*
X198106Y420810D01*
X198240Y420676D01*
X198254Y420661D01*
X198299Y420617D01*
X198358Y420528D01*
X198448Y420424D01*
X198522Y420290D01*
X198611Y420126D01*
X198700Y419948D01*
X198775Y419755D01*
X198789Y419725D01*
X198804Y419666D01*
X198834Y419547D01*
X198878Y419398D01*
X198908Y419220D01*
X198938Y418997D01*
X198953Y418774D01*
X198968Y418522D01*
Y418507D01*
Y418477D01*
Y418432D01*
Y418388D01*
Y418254D01*
X198953Y418120D01*
Y418091D01*
Y418031D01*
Y417942D01*
X198938Y417838D01*
X194480D01*
Y417823D01*
Y417794D01*
Y417749D01*
X194495Y417675D01*
X194510Y417496D01*
X194555Y417273D01*
X194614Y417036D01*
X194703Y416783D01*
X194837Y416530D01*
X195015Y416323D01*
X195045Y416308D01*
X195119Y416248D01*
X195238Y416159D01*
X195416Y416070D01*
X195639Y415966D01*
X195907Y415891D01*
X196234Y415832D01*
X196590Y415802D01*
X196947D01*
X197140Y415817D01*
X197244D01*
X197318Y415832D01*
X197482Y415847D01*
X197675Y415862D01*
X197690D01*
X197719Y415877D01*
X197779D01*
X197838Y415891D01*
X198002Y415921D01*
X198180Y415951D01*
X198195D01*
X198225Y415966D01*
X198269Y415981D01*
X198329Y415996D01*
X198463Y416025D01*
X198626Y416070D01*
Y415163D01*
X198611D01*
X198552Y415149D01*
X198448Y415119D01*
X198329Y415089D01*
X198180Y415059D01*
X198002Y415015D01*
X197809Y414985D01*
X197601Y414955D01*
X197571D01*
X197497Y414941D01*
X197393Y414926D01*
X197244D01*
X197066Y414911D01*
X196873Y414896D01*
X196650Y414881D01*
X196293D01*
X196145Y414896D01*
X195951Y414911D01*
X195728Y414926D01*
X195491Y414970D01*
X195253Y415015D01*
X195015Y415089D01*
X194986Y415104D01*
X194926Y415134D01*
X194807Y415178D01*
X194673Y415253D01*
X194525Y415342D01*
X194361Y415461D01*
X194198Y415579D01*
X194049Y415728D01*
X194035Y415743D01*
X193990Y415802D01*
X193916Y415891D01*
X193841Y416025D01*
X193752Y416174D01*
X193663Y416352D01*
X193574Y416545D01*
X193500Y416768D01*
Y416798D01*
X193470Y416872D01*
X193440Y417006D01*
X193410Y417184D01*
X193381Y417377D01*
X193351Y417615D01*
X193336Y417883D01*
X193321Y418165D01*
Y418180D01*
Y418195D01*
Y418284D01*
X193336Y418418D01*
X193351Y418581D01*
X193366Y418774D01*
X193410Y418997D01*
X193455Y419220D01*
X193514Y419443D01*
X193529Y419473D01*
X193544Y419547D01*
X193589Y419651D01*
X193663Y419799D01*
X193737Y419963D01*
X193827Y420141D01*
X193945Y420320D01*
X194064Y420498D01*
X194079Y420513D01*
X194139Y420572D01*
X194213Y420661D01*
X194317Y420765D01*
X194450Y420884D01*
X194599Y421003D01*
X194777Y421122D01*
X194971Y421226D01*
X195000Y421241D01*
X195075Y421270D01*
X195179Y421315D01*
X195327Y421360D01*
X195520Y421404D01*
X195728Y421449D01*
X195951Y421479D01*
X196204Y421493D01*
X196323D01*
X196442Y421479D01*
D02*
G37*
G36*
X175000D02*
X175178Y421464D01*
X175357Y421434D01*
X175565Y421404D01*
X175773Y421345D01*
X175981Y421270D01*
X176010Y421256D01*
X176070Y421226D01*
X176174Y421181D01*
X176308Y421122D01*
X176441Y421033D01*
X176605Y420914D01*
X176754Y420795D01*
X176902Y420646D01*
X176917Y420632D01*
X176961Y420572D01*
X177036Y420483D01*
X177125Y420364D01*
X177214Y420215D01*
X177303Y420052D01*
X177407Y419844D01*
X177482Y419621D01*
X177496Y419591D01*
X177511Y419517D01*
X177541Y419383D01*
X177586Y419220D01*
X177630Y419012D01*
X177660Y418774D01*
X177675Y418507D01*
X177690Y418224D01*
Y418210D01*
Y418195D01*
Y418150D01*
Y418106D01*
X177675Y417957D01*
X177660Y417779D01*
X177630Y417571D01*
X177600Y417333D01*
X177541Y417095D01*
X177467Y416857D01*
X177452Y416828D01*
X177422Y416753D01*
X177377Y416634D01*
X177318Y416501D01*
X177229Y416337D01*
X177125Y416159D01*
X177006Y415981D01*
X176857Y415802D01*
X176843Y415788D01*
X176783Y415728D01*
X176709Y415654D01*
X176590Y415550D01*
X176456Y415446D01*
X176293Y415327D01*
X176115Y415223D01*
X175907Y415119D01*
X175877Y415104D01*
X175802Y415089D01*
X175684Y415045D01*
X175535Y415000D01*
X175342Y414955D01*
X175134Y414926D01*
X174896Y414896D01*
X174629Y414881D01*
X174510D01*
X174391Y414896D01*
X174213Y414911D01*
X174034Y414926D01*
X173826Y414970D01*
X173603Y415015D01*
X173395Y415089D01*
X173366Y415104D01*
X173306Y415134D01*
X173202Y415178D01*
X173083Y415253D01*
X172935Y415327D01*
X172786Y415446D01*
X172623Y415565D01*
X172474Y415713D01*
X172459Y415728D01*
X172415Y415788D01*
X172340Y415877D01*
X172266Y415996D01*
X172177Y416144D01*
X172073Y416323D01*
X171984Y416516D01*
X171909Y416739D01*
X171895Y416768D01*
X171880Y416842D01*
X171850Y416976D01*
X171820Y417140D01*
X171776Y417348D01*
X171746Y417585D01*
X171731Y417853D01*
X171716Y418135D01*
Y418150D01*
Y418165D01*
Y418210D01*
Y418269D01*
X171731Y418403D01*
X171746Y418596D01*
X171761Y418804D01*
X171805Y419027D01*
X171850Y419264D01*
X171924Y419502D01*
X171939Y419532D01*
X171969Y419606D01*
X172013Y419725D01*
X172073Y419859D01*
X172162Y420022D01*
X172266Y420201D01*
X172385Y420379D01*
X172519Y420557D01*
X172533Y420572D01*
X172593Y420632D01*
X172682Y420706D01*
X172786Y420810D01*
X172935Y420914D01*
X173098Y421033D01*
X173277Y421137D01*
X173484Y421241D01*
X173514Y421256D01*
X173589Y421285D01*
X173707Y421315D01*
X173856Y421375D01*
X174049Y421419D01*
X174257Y421449D01*
X174510Y421479D01*
X174762Y421493D01*
X174881D01*
X175000Y421479D01*
D02*
G37*
%LPC*%
G36*
X117196Y319915D02*
X117107D01*
X117002Y319900D01*
X116869Y319885D01*
X116720Y319855D01*
X116557Y319796D01*
X116408Y319736D01*
X116245Y319647D01*
X116230Y319632D01*
X116185Y319603D01*
X116111Y319543D01*
X116022Y319469D01*
X115918Y319365D01*
X115814Y319246D01*
X115710Y319112D01*
X115606Y318949D01*
X115591Y318934D01*
X115561Y318874D01*
X115517Y318771D01*
X115472Y318652D01*
X115398Y318503D01*
X115338Y318325D01*
X115279Y318132D01*
X115234Y317909D01*
Y317879D01*
X115219Y317805D01*
X115204Y317686D01*
X115175Y317537D01*
X115160Y317344D01*
X115130Y317136D01*
X115115Y316913D01*
Y316660D01*
Y316646D01*
Y316631D01*
Y316542D01*
Y316393D01*
X115130Y316215D01*
X115145Y316007D01*
X115160Y315784D01*
X115219Y315308D01*
Y315279D01*
X115249Y315204D01*
X115264Y315100D01*
X115309Y314952D01*
X115368Y314788D01*
X115427Y314625D01*
X115591Y314268D01*
X115606Y314253D01*
X115635Y314194D01*
X115695Y314120D01*
X115769Y314030D01*
X115858Y313912D01*
X115962Y313808D01*
X116096Y313704D01*
X116230Y313600D01*
X116245Y313585D01*
X116304Y313570D01*
X116393Y313525D01*
X116497Y313481D01*
X116646Y313436D01*
X116809Y313406D01*
X116988Y313377D01*
X117196Y313362D01*
X117285D01*
X117389Y313377D01*
X117522Y313391D01*
X117671Y313421D01*
X117820Y313466D01*
X117983Y313525D01*
X118132Y313614D01*
X118147Y313629D01*
X118206Y313659D01*
X118265Y313718D01*
X118370Y313793D01*
X118474Y313897D01*
X118577Y314016D01*
X118682Y314149D01*
X118786Y314313D01*
X118800Y314328D01*
X118830Y314387D01*
X118875Y314491D01*
X118934Y314610D01*
X118994Y314759D01*
X119068Y314937D01*
X119127Y315130D01*
X119172Y315338D01*
Y315368D01*
X119187Y315442D01*
X119216Y315561D01*
X119246Y315724D01*
X119261Y315903D01*
X119291Y316126D01*
X119306Y316348D01*
Y316601D01*
Y316616D01*
Y316631D01*
Y316720D01*
Y316869D01*
X119291Y317047D01*
X119276Y317255D01*
X119261Y317478D01*
X119187Y317938D01*
Y317968D01*
X119172Y318042D01*
X119142Y318161D01*
X119098Y318295D01*
X119038Y318458D01*
X118979Y318637D01*
X118904Y318815D01*
X118815Y318979D01*
X118800Y318993D01*
X118771Y319053D01*
X118711Y319127D01*
X118637Y319231D01*
X118548Y319335D01*
X118429Y319454D01*
X118310Y319558D01*
X118161Y319662D01*
X118147Y319677D01*
X118087Y319707D01*
X117998Y319736D01*
X117894Y319796D01*
X117745Y319840D01*
X117582Y319870D01*
X117404Y319900D01*
X117196Y319915D01*
D02*
G37*
G36*
X321924Y319840D02*
X320706D01*
Y313481D01*
X321657D01*
X321805Y313496D01*
X321984Y313525D01*
X322192Y313585D01*
X322430Y313644D01*
X322697Y313748D01*
X322965Y313882D01*
X323217Y314045D01*
X323485Y314253D01*
X323722Y314506D01*
X323930Y314818D01*
X324034Y314996D01*
X324109Y315175D01*
X324183Y315383D01*
X324257Y315606D01*
X324302Y315843D01*
X324346Y316096D01*
X324361Y316363D01*
X324376Y316646D01*
Y316660D01*
Y316690D01*
Y316735D01*
Y316794D01*
X324361Y316958D01*
Y317166D01*
X324332Y317404D01*
X324302Y317656D01*
X324257Y317909D01*
X324198Y318146D01*
Y318176D01*
X324168Y318250D01*
X324123Y318354D01*
X324079Y318503D01*
X324005Y318652D01*
X323915Y318815D01*
X323811Y318979D01*
X323693Y319127D01*
X323678Y319142D01*
X323633Y319187D01*
X323559Y319261D01*
X323470Y319335D01*
X323351Y319424D01*
X323202Y319513D01*
X323039Y319588D01*
X322860Y319662D01*
X322831Y319677D01*
X322771Y319692D01*
X322667Y319722D01*
X322519Y319751D01*
X322355Y319781D01*
X322147Y319811D01*
X321924Y319840D01*
D02*
G37*
G36*
X307184Y357340D02*
X306129D01*
Y354606D01*
X307184D01*
X307273Y354621D01*
X307511Y354651D01*
X307749Y354696D01*
X307764D01*
X307808Y354710D01*
X307868Y354740D01*
X307942Y354770D01*
X308120Y354844D01*
X308299Y354963D01*
X308314Y354978D01*
X308343Y354993D01*
X308432Y355082D01*
X308551Y355215D01*
X308655Y355394D01*
Y355409D01*
X308670Y355438D01*
X308700Y355498D01*
X308730Y355572D01*
X308745Y355661D01*
X308774Y355765D01*
X308789Y356003D01*
Y356018D01*
Y356033D01*
Y356107D01*
X308774Y356226D01*
X308730Y356375D01*
X308685Y356538D01*
X308611Y356701D01*
X308507Y356865D01*
X308358Y356999D01*
X308343Y357014D01*
X308284Y357058D01*
X308180Y357103D01*
X308061Y357177D01*
X307883Y357236D01*
X307689Y357281D01*
X307452Y357326D01*
X307184Y357340D01*
D02*
G37*
G36*
X315401Y392415D02*
X315312D01*
X315208Y392400D01*
X315074Y392385D01*
X314926Y392355D01*
X314762Y392296D01*
X314614Y392236D01*
X314450Y392147D01*
X314436Y392132D01*
X314391Y392103D01*
X314317Y392043D01*
X314227Y391969D01*
X314123Y391865D01*
X314019Y391746D01*
X313915Y391612D01*
X313811Y391449D01*
X313797Y391434D01*
X313767Y391375D01*
X313722Y391270D01*
X313678Y391152D01*
X313603Y391003D01*
X313544Y390825D01*
X313484Y390632D01*
X313440Y390409D01*
Y390379D01*
X313425Y390305D01*
X313410Y390186D01*
X313381Y390037D01*
X313366Y389844D01*
X313336Y389636D01*
X313321Y389413D01*
Y389160D01*
Y389146D01*
Y389131D01*
Y389042D01*
Y388893D01*
X313336Y388715D01*
X313351Y388507D01*
X313366Y388284D01*
X313425Y387808D01*
Y387779D01*
X313455Y387704D01*
X313470Y387600D01*
X313514Y387452D01*
X313574Y387288D01*
X313633Y387125D01*
X313797Y386768D01*
X313811Y386753D01*
X313841Y386694D01*
X313901Y386620D01*
X313975Y386530D01*
X314064Y386412D01*
X314168Y386308D01*
X314302Y386204D01*
X314436Y386100D01*
X314450Y386085D01*
X314510Y386070D01*
X314599Y386025D01*
X314703Y385981D01*
X314851Y385936D01*
X315015Y385906D01*
X315193Y385877D01*
X315401Y385862D01*
X315490D01*
X315595Y385877D01*
X315728Y385891D01*
X315877Y385921D01*
X316025Y385966D01*
X316189Y386025D01*
X316337Y386114D01*
X316352Y386129D01*
X316412Y386159D01*
X316471Y386218D01*
X316575Y386293D01*
X316679Y386397D01*
X316783Y386516D01*
X316887Y386649D01*
X316991Y386813D01*
X317006Y386828D01*
X317036Y386887D01*
X317080Y386991D01*
X317140Y387110D01*
X317199Y387259D01*
X317274Y387437D01*
X317333Y387630D01*
X317377Y387838D01*
Y387868D01*
X317392Y387942D01*
X317422Y388061D01*
X317452Y388224D01*
X317467Y388403D01*
X317496Y388626D01*
X317511Y388848D01*
Y389101D01*
Y389116D01*
Y389131D01*
Y389220D01*
Y389369D01*
X317496Y389547D01*
X317482Y389755D01*
X317467Y389978D01*
X317392Y390438D01*
Y390468D01*
X317377Y390542D01*
X317348Y390661D01*
X317303Y390795D01*
X317244Y390959D01*
X317184Y391137D01*
X317110Y391315D01*
X317021Y391479D01*
X317006Y391493D01*
X316976Y391553D01*
X316917Y391627D01*
X316843Y391731D01*
X316754Y391835D01*
X316635Y391954D01*
X316516Y392058D01*
X316367Y392162D01*
X316352Y392177D01*
X316293Y392207D01*
X316204Y392236D01*
X316100Y392296D01*
X315951Y392340D01*
X315788Y392370D01*
X315609Y392400D01*
X315401Y392415D01*
D02*
G37*
G36*
X260361Y405397D02*
X258801D01*
X258712Y405383D01*
X258474Y405368D01*
X258237Y405308D01*
X258222D01*
X258192Y405294D01*
X258132Y405279D01*
X258058Y405249D01*
X257910Y405175D01*
X257746Y405071D01*
X257717Y405041D01*
X257642Y404967D01*
X257553Y404848D01*
X257479Y404699D01*
Y404684D01*
X257464Y404669D01*
X257449Y404625D01*
X257434Y404565D01*
X257404Y404417D01*
X257390Y404224D01*
Y404209D01*
Y404194D01*
Y404120D01*
X257404Y404001D01*
X257434Y403867D01*
X257449Y403837D01*
X257479Y403763D01*
X257538Y403674D01*
X257612Y403570D01*
X257642Y403555D01*
X257702Y403496D01*
X257820Y403436D01*
X257954Y403377D01*
X257969D01*
X257999Y403362D01*
X258029Y403347D01*
X258088D01*
X258251Y403317D01*
X258445Y403302D01*
X258519D01*
X258593Y403317D01*
X258697Y403332D01*
X258831Y403362D01*
X258979Y403391D01*
X259143Y403451D01*
X259321Y403525D01*
X259351Y403540D01*
X259410Y403570D01*
X259500Y403629D01*
X259633Y403704D01*
X259797Y403808D01*
X259960Y403927D01*
X260153Y404075D01*
X260361Y404253D01*
Y405397D01*
D02*
G37*
G36*
X238920D02*
X237360D01*
X237271Y405383D01*
X237033Y405368D01*
X236795Y405308D01*
X236780D01*
X236750Y405294D01*
X236691Y405279D01*
X236617Y405249D01*
X236468Y405175D01*
X236305Y405071D01*
X236275Y405041D01*
X236201Y404967D01*
X236112Y404848D01*
X236037Y404699D01*
Y404684D01*
X236022Y404669D01*
X236007Y404625D01*
X235993Y404565D01*
X235963Y404417D01*
X235948Y404224D01*
Y404209D01*
Y404194D01*
Y404120D01*
X235963Y404001D01*
X235993Y403867D01*
X236007Y403837D01*
X236037Y403763D01*
X236097Y403674D01*
X236171Y403570D01*
X236201Y403555D01*
X236260Y403496D01*
X236379Y403436D01*
X236513Y403377D01*
X236528D01*
X236557Y403362D01*
X236587Y403347D01*
X236646D01*
X236810Y403317D01*
X237003Y403302D01*
X237077D01*
X237152Y403317D01*
X237256Y403332D01*
X237389Y403362D01*
X237538Y403391D01*
X237701Y403451D01*
X237880Y403525D01*
X237909Y403540D01*
X237969Y403570D01*
X238058Y403629D01*
X238192Y403704D01*
X238355Y403808D01*
X238519Y403927D01*
X238712Y404075D01*
X238920Y404253D01*
Y405397D01*
D02*
G37*
G36*
X165992Y409751D02*
X164580Y405323D01*
X167404D01*
X165992Y409751D01*
D02*
G37*
G36*
X294671Y409989D02*
X294552D01*
X294418Y409974D01*
X294270Y409959D01*
X294091Y409915D01*
X293898Y409870D01*
X293720Y409796D01*
X293556Y409707D01*
X293542Y409692D01*
X293497Y409662D01*
X293438Y409588D01*
X293363Y409499D01*
X293289Y409395D01*
X293230Y409246D01*
X293185Y409082D01*
X293170Y408889D01*
Y408875D01*
Y408845D01*
Y408800D01*
X293185Y408741D01*
X293215Y408592D01*
X293259Y408429D01*
Y408414D01*
X293274Y408399D01*
X293333Y408310D01*
X293423Y408176D01*
X293542Y408042D01*
X293556Y408028D01*
X293586Y408013D01*
X293631Y407983D01*
X293690Y407938D01*
X293839Y407820D01*
X294047Y407686D01*
X294062Y407671D01*
X294106Y407656D01*
X294166Y407626D01*
X294255Y407582D01*
X294359Y407522D01*
X294492Y407463D01*
X294775Y407329D01*
X294790D01*
X294804Y407344D01*
X294894Y407389D01*
X295013Y407448D01*
X295176Y407537D01*
X295354Y407641D01*
X295533Y407760D01*
X295696Y407879D01*
X295845Y408013D01*
X295860Y408028D01*
X295904Y408072D01*
X295963Y408161D01*
X296023Y408265D01*
X296082Y408384D01*
X296142Y408533D01*
X296186Y408696D01*
X296201Y408875D01*
Y408904D01*
Y408964D01*
X296186Y409068D01*
X296157Y409187D01*
X296097Y409320D01*
X296038Y409454D01*
X295934Y409588D01*
X295800Y409707D01*
X295785Y409721D01*
X295726Y409751D01*
X295637Y409796D01*
X295503Y409855D01*
X295354Y409900D01*
X295161Y409944D01*
X294923Y409974D01*
X294671Y409989D01*
D02*
G37*
G36*
X294582Y406274D02*
X294567Y406259D01*
X294507Y406230D01*
X294433Y406200D01*
X294329Y406141D01*
X294091Y405992D01*
X293854Y405843D01*
X293839Y405828D01*
X293809Y405814D01*
X293750Y405769D01*
X293690Y405724D01*
X293527Y405591D01*
X293378Y405427D01*
Y405412D01*
X293348Y405397D01*
X293319Y405353D01*
X293274Y405294D01*
X293200Y405145D01*
X293125Y404981D01*
Y404967D01*
X293111Y404937D01*
X293096Y404892D01*
Y404833D01*
X293066Y404684D01*
X293051Y404506D01*
Y404491D01*
Y404461D01*
Y404402D01*
X293066Y404342D01*
X293096Y404179D01*
X293170Y404001D01*
Y403986D01*
X293200Y403971D01*
X293259Y403867D01*
X293363Y403748D01*
X293497Y403629D01*
X293512D01*
X293542Y403600D01*
X293586Y403585D01*
X293645Y403540D01*
X293809Y403466D01*
X294017Y403406D01*
X294032D01*
X294076Y403391D01*
X294136Y403377D01*
X294210D01*
X294314Y403362D01*
X294418Y403347D01*
X294671Y403332D01*
X294790D01*
X294879Y403347D01*
X295087Y403362D01*
X295310Y403391D01*
X295325D01*
X295354Y403406D01*
X295414Y403421D01*
X295488Y403451D01*
X295651Y403510D01*
X295815Y403600D01*
X295830D01*
X295860Y403629D01*
X295949Y403704D01*
X296053Y403823D01*
X296172Y403971D01*
Y403986D01*
X296186Y404016D01*
X296216Y404060D01*
X296246Y404120D01*
X296290Y404283D01*
X296305Y404491D01*
Y404506D01*
Y404536D01*
Y404580D01*
X296290Y404640D01*
X296276Y404788D01*
X296216Y404952D01*
Y404967D01*
X296201Y404996D01*
X296186Y405041D01*
X296157Y405085D01*
X296068Y405234D01*
X295949Y405383D01*
X295934Y405397D01*
X295919Y405427D01*
X295874Y405472D01*
X295815Y405516D01*
X295741Y405591D01*
X295637Y405665D01*
X295533Y405739D01*
X295414Y405814D01*
X295399Y405828D01*
X295354Y405858D01*
X295280Y405903D01*
X295191Y405962D01*
X295072Y406022D01*
X294923Y406096D01*
X294760Y406185D01*
X294582Y406274D01*
D02*
G37*
G36*
X201906Y408057D02*
X201668D01*
X201579Y408042D01*
X201460Y408028D01*
X201327Y408013D01*
X201178Y407968D01*
X201029Y407924D01*
X200896Y407849D01*
X200881Y407834D01*
X200836Y407820D01*
X200777Y407775D01*
X200702Y407715D01*
X200613Y407641D01*
X200509Y407552D01*
X200331Y407329D01*
X200316Y407314D01*
X200301Y407270D01*
X200257Y407210D01*
X200212Y407121D01*
X200153Y407017D01*
X200093Y406883D01*
X200049Y406750D01*
X200004Y406586D01*
Y406571D01*
X199989Y406512D01*
X199974Y406423D01*
X199960Y406319D01*
X199930Y406170D01*
X199915Y406022D01*
X199900Y405680D01*
Y405650D01*
Y405576D01*
Y405472D01*
X199915Y405323D01*
X199930Y405160D01*
X199945Y404996D01*
X200019Y404640D01*
Y404625D01*
X200049Y404565D01*
X200078Y404476D01*
X200123Y404387D01*
X200227Y404134D01*
X200390Y403897D01*
X200405Y403882D01*
X200435Y403852D01*
X200480Y403793D01*
X200554Y403733D01*
X200643Y403674D01*
X200732Y403600D01*
X200970Y403466D01*
X200985D01*
X201029Y403436D01*
X201104Y403421D01*
X201193Y403391D01*
X201312Y403362D01*
X201445Y403347D01*
X201594Y403317D01*
X201847D01*
X201936Y403332D01*
X202040Y403347D01*
X202174Y403362D01*
X202322Y403406D01*
X202456Y403451D01*
X202590Y403510D01*
X202604Y403525D01*
X202649Y403540D01*
X202708Y403585D01*
X202798Y403644D01*
X202991Y403808D01*
X203169Y404016D01*
X203184Y404030D01*
X203199Y404075D01*
X203243Y404149D01*
X203288Y404239D01*
X203347Y404342D01*
X203407Y404476D01*
X203451Y404625D01*
X203496Y404773D01*
Y404788D01*
X203511Y404848D01*
X203541Y404937D01*
X203555Y405056D01*
X203585Y405190D01*
X203600Y405338D01*
X203615Y405680D01*
Y405710D01*
Y405784D01*
Y405888D01*
X203600Y406036D01*
X203585Y406200D01*
X203555Y406363D01*
X203481Y406720D01*
Y406735D01*
X203451Y406794D01*
X203422Y406883D01*
X203392Y406973D01*
X203273Y407210D01*
X203199Y407329D01*
X203110Y407448D01*
X203095Y407463D01*
X203065Y407493D01*
X203020Y407552D01*
X202946Y407612D01*
X202857Y407686D01*
X202753Y407760D01*
X202515Y407894D01*
X202500Y407909D01*
X202456Y407924D01*
X202382Y407953D01*
X202292Y407983D01*
X202174Y408013D01*
X202055Y408028D01*
X201906Y408057D01*
D02*
G37*
G36*
X180464D02*
X180227D01*
X180138Y408042D01*
X180019Y408028D01*
X179885Y408013D01*
X179736Y407968D01*
X179588Y407924D01*
X179454Y407849D01*
X179439Y407834D01*
X179395Y407820D01*
X179335Y407775D01*
X179261Y407715D01*
X179172Y407641D01*
X179068Y407552D01*
X178890Y407329D01*
X178875Y407314D01*
X178860Y407270D01*
X178815Y407210D01*
X178771Y407121D01*
X178711Y407017D01*
X178652Y406883D01*
X178607Y406750D01*
X178563Y406586D01*
Y406571D01*
X178548Y406512D01*
X178533Y406423D01*
X178518Y406319D01*
X178488Y406170D01*
X178473Y406022D01*
X178459Y405680D01*
Y405650D01*
Y405576D01*
Y405472D01*
X178473Y405323D01*
X178488Y405160D01*
X178503Y404996D01*
X178577Y404640D01*
Y404625D01*
X178607Y404565D01*
X178637Y404476D01*
X178682Y404387D01*
X178785Y404134D01*
X178949Y403897D01*
X178964Y403882D01*
X178993Y403852D01*
X179038Y403793D01*
X179112Y403733D01*
X179202Y403674D01*
X179291Y403600D01*
X179528Y403466D01*
X179543D01*
X179588Y403436D01*
X179662Y403421D01*
X179751Y403391D01*
X179870Y403362D01*
X180004Y403347D01*
X180152Y403317D01*
X180405D01*
X180494Y403332D01*
X180598Y403347D01*
X180732Y403362D01*
X180881Y403406D01*
X181014Y403451D01*
X181148Y403510D01*
X181163Y403525D01*
X181208Y403540D01*
X181267Y403585D01*
X181356Y403644D01*
X181549Y403808D01*
X181728Y404016D01*
X181742Y404030D01*
X181757Y404075D01*
X181802Y404149D01*
X181846Y404239D01*
X181906Y404342D01*
X181965Y404476D01*
X182010Y404625D01*
X182054Y404773D01*
Y404788D01*
X182069Y404848D01*
X182099Y404937D01*
X182114Y405056D01*
X182144Y405190D01*
X182159Y405338D01*
X182173Y405680D01*
Y405710D01*
Y405784D01*
Y405888D01*
X182159Y406036D01*
X182144Y406200D01*
X182114Y406363D01*
X182040Y406720D01*
Y406735D01*
X182010Y406794D01*
X181980Y406883D01*
X181950Y406973D01*
X181832Y407210D01*
X181757Y407329D01*
X181668Y407448D01*
X181653Y407463D01*
X181623Y407493D01*
X181579Y407552D01*
X181505Y407612D01*
X181416Y407686D01*
X181311Y407760D01*
X181074Y407894D01*
X181059Y407909D01*
X181014Y407924D01*
X180940Y407953D01*
X180851Y407983D01*
X180732Y408013D01*
X180613Y408028D01*
X180464Y408057D01*
D02*
G37*
G36*
X167273Y422355D02*
X166129D01*
Y418938D01*
X167348D01*
X167437Y418952D01*
X167526Y418967D01*
X167749Y418997D01*
X168001Y419042D01*
X168254Y419116D01*
X168507Y419220D01*
X168730Y419369D01*
X168759Y419383D01*
X168819Y419458D01*
X168908Y419562D01*
X169012Y419696D01*
X169101Y419889D01*
X169190Y420112D01*
X169250Y420379D01*
X169279Y420691D01*
Y420706D01*
Y420721D01*
Y420765D01*
X169265Y420825D01*
X169250Y420973D01*
X169220Y421152D01*
X169146Y421345D01*
X169056Y421553D01*
X168923Y421746D01*
X168745Y421924D01*
X168715Y421939D01*
X168655Y421999D01*
X168536Y422058D01*
X168373Y422147D01*
X168150Y422221D01*
X167912Y422296D01*
X167615Y422340D01*
X167273Y422355D01*
D02*
G37*
G36*
X224748Y420617D02*
X224614D01*
X224540Y420602D01*
X224317Y420557D01*
X224094Y420468D01*
X224079D01*
X224050Y420438D01*
X223990Y420409D01*
X223916Y420364D01*
X223752Y420245D01*
X223574Y420067D01*
X223559Y420052D01*
X223545Y420022D01*
X223500Y419963D01*
X223455Y419903D01*
X223396Y419814D01*
X223336Y419710D01*
X223232Y419458D01*
Y419443D01*
X223218Y419398D01*
X223188Y419324D01*
X223158Y419235D01*
X223128Y419116D01*
X223113Y418982D01*
X223069Y418685D01*
X226412D01*
Y418700D01*
Y418759D01*
Y418834D01*
Y418938D01*
X226397Y419057D01*
X226383Y419190D01*
X226323Y419458D01*
Y419473D01*
X226308Y419517D01*
X226278Y419591D01*
X226249Y419666D01*
X226145Y419859D01*
X226011Y420067D01*
X225996Y420082D01*
X225981Y420112D01*
X225922Y420156D01*
X225863Y420215D01*
X225788Y420275D01*
X225699Y420349D01*
X225476Y420468D01*
X225461D01*
X225417Y420498D01*
X225357Y420513D01*
X225268Y420542D01*
X225164Y420572D01*
X225045Y420587D01*
X224748Y420617D01*
D02*
G37*
G36*
X196159D02*
X196026D01*
X195951Y420602D01*
X195728Y420557D01*
X195506Y420468D01*
X195491D01*
X195461Y420438D01*
X195401Y420409D01*
X195327Y420364D01*
X195164Y420245D01*
X194986Y420067D01*
X194971Y420052D01*
X194956Y420022D01*
X194911Y419963D01*
X194867Y419903D01*
X194807Y419814D01*
X194748Y419710D01*
X194644Y419458D01*
Y419443D01*
X194629Y419398D01*
X194599Y419324D01*
X194569Y419235D01*
X194540Y419116D01*
X194525Y418982D01*
X194480Y418685D01*
X197824D01*
Y418700D01*
Y418759D01*
Y418834D01*
Y418938D01*
X197809Y419057D01*
X197794Y419190D01*
X197734Y419458D01*
Y419473D01*
X197719Y419517D01*
X197690Y419591D01*
X197660Y419666D01*
X197556Y419859D01*
X197422Y420067D01*
X197407Y420082D01*
X197393Y420112D01*
X197333Y420156D01*
X197274Y420215D01*
X197199Y420275D01*
X197110Y420349D01*
X196887Y420468D01*
X196873D01*
X196828Y420498D01*
X196768Y420513D01*
X196679Y420542D01*
X196575Y420572D01*
X196457Y420587D01*
X196159Y420617D01*
D02*
G37*
G36*
X174851Y420557D02*
X174614D01*
X174525Y420542D01*
X174406Y420528D01*
X174272Y420513D01*
X174123Y420468D01*
X173975Y420424D01*
X173841Y420349D01*
X173826Y420334D01*
X173782Y420320D01*
X173722Y420275D01*
X173648Y420215D01*
X173559Y420141D01*
X173455Y420052D01*
X173277Y419829D01*
X173262Y419814D01*
X173247Y419770D01*
X173202Y419710D01*
X173158Y419621D01*
X173098Y419517D01*
X173039Y419383D01*
X172994Y419250D01*
X172950Y419086D01*
Y419071D01*
X172935Y419012D01*
X172920Y418923D01*
X172905Y418819D01*
X172875Y418670D01*
X172860Y418522D01*
X172846Y418180D01*
Y418150D01*
Y418076D01*
Y417972D01*
X172860Y417823D01*
X172875Y417660D01*
X172890Y417496D01*
X172964Y417140D01*
Y417125D01*
X172994Y417065D01*
X173024Y416976D01*
X173068Y416887D01*
X173172Y416634D01*
X173336Y416397D01*
X173351Y416382D01*
X173381Y416352D01*
X173425Y416293D01*
X173499Y416233D01*
X173589Y416174D01*
X173678Y416100D01*
X173915Y415966D01*
X173930D01*
X173975Y415936D01*
X174049Y415921D01*
X174138Y415891D01*
X174257Y415862D01*
X174391Y415847D01*
X174540Y415817D01*
X174792D01*
X174881Y415832D01*
X174985Y415847D01*
X175119Y415862D01*
X175268Y415906D01*
X175401Y415951D01*
X175535Y416010D01*
X175550Y416025D01*
X175595Y416040D01*
X175654Y416085D01*
X175743Y416144D01*
X175936Y416308D01*
X176115Y416516D01*
X176129Y416530D01*
X176144Y416575D01*
X176189Y416649D01*
X176233Y416739D01*
X176293Y416842D01*
X176352Y416976D01*
X176397Y417125D01*
X176441Y417273D01*
Y417288D01*
X176456Y417348D01*
X176486Y417437D01*
X176501Y417556D01*
X176531Y417690D01*
X176545Y417838D01*
X176560Y418180D01*
Y418210D01*
Y418284D01*
Y418388D01*
X176545Y418536D01*
X176531Y418700D01*
X176501Y418863D01*
X176427Y419220D01*
Y419235D01*
X176397Y419294D01*
X176367Y419383D01*
X176337Y419473D01*
X176218Y419710D01*
X176144Y419829D01*
X176055Y419948D01*
X176040Y419963D01*
X176010Y419993D01*
X175966Y420052D01*
X175892Y420112D01*
X175802Y420186D01*
X175699Y420260D01*
X175461Y420394D01*
X175446Y420409D01*
X175401Y420424D01*
X175327Y420453D01*
X175238Y420483D01*
X175119Y420513D01*
X175000Y420528D01*
X174851Y420557D01*
D02*
G37*
%LPD*%
D10*
X231799Y294000D02*
X238799D01*
Y345999D01*
X231799D02*
X238799D01*
X186201Y294000D02*
Y345999D01*
Y294000D02*
X231799D01*
X186201Y345999D02*
X231799D01*
D12*
X340499Y231500D02*
Y242501D01*
X304000D02*
X340499D01*
Y172499D02*
Y183500D01*
X304000Y172499D02*
X340499D01*
X54501Y242501D02*
X91000D01*
X54501Y231500D02*
Y242501D01*
Y172499D02*
X91000D01*
X54501D02*
Y183500D01*
X91000Y172499D02*
X92809Y167558D01*
X95758Y160586D01*
X97028Y157965D01*
X98905Y154312D01*
X100800Y150932D01*
X103088Y147157D01*
X105082Y144246D01*
X107437Y140894D01*
X111054Y136284D01*
X114465Y132321D01*
X118961Y127571D01*
X301500Y165999D02*
X304000Y172499D01*
X298501Y159001D02*
X301500Y165999D01*
X296499Y155001D02*
X298501Y159001D01*
X293703Y150114D02*
X296499Y155001D01*
X289738Y143929D02*
X293703Y150114D01*
X284500Y137000D02*
X289738Y143929D01*
X280949Y132766D02*
X284500Y137000D01*
X276039Y127592D02*
X280949Y132766D01*
X302077Y247840D02*
X304000Y242501D01*
X297924Y257160D02*
X302077Y247840D01*
X294360Y263751D02*
X297924Y257160D01*
X290975Y269308D02*
X294360Y263751D01*
X287015Y274800D02*
X290975Y269308D01*
X282765Y280268D02*
X287015Y274800D01*
X278143Y285272D02*
X282765Y280268D01*
X275912Y287332D02*
X278143Y285272D01*
X91000Y242501D02*
X92499Y246499D01*
X94602Y251919D01*
X97028Y257116D01*
X100759Y264033D01*
X105755Y271752D01*
X110142Y277617D01*
X115359Y283647D01*
X118821Y287233D01*
X118999Y287500D02*
X276001D01*
X118999Y127500D02*
X276001D01*
D30*
X230486Y339050D02*
G03*
X230486Y339050I-4016J0D01*
G01*
X311800Y246870D02*
Y254490D01*
X307990Y250680D02*
X315610D01*
M02*
