G04 Layer_Color=8388736*
%FSLAX44Y44*%
%MOMM*%
G71*
G01*
G75*
%ADD15C,0.2540*%
%ADD42C,0.1524*%
%ADD43R,1.5199X0.4902*%
G36*
X201082Y519481D02*
X201248Y519462D01*
X201433Y519425D01*
X201637Y519388D01*
X201878Y519351D01*
X202378Y519184D01*
X202637Y519092D01*
X202896Y518962D01*
X203155Y518832D01*
X203415Y518647D01*
X203655Y518462D01*
X203896Y518240D01*
X203915Y518221D01*
X203952Y518184D01*
X204007Y518110D01*
X204081Y518018D01*
X204174Y517888D01*
X204285Y517721D01*
X204396Y517536D01*
X204507Y517333D01*
X204618Y517110D01*
X204729Y516833D01*
X204841Y516555D01*
X204933Y516240D01*
X205007Y515907D01*
X205063Y515555D01*
X205100Y515185D01*
X205118Y514777D01*
Y514759D01*
Y514703D01*
Y514611D01*
Y514481D01*
X205100Y514333D01*
X205081Y514148D01*
Y513963D01*
X205044Y513759D01*
X204989Y513296D01*
X204877Y512833D01*
X204748Y512370D01*
X204563Y511944D01*
Y511926D01*
X204544Y511907D01*
X204507Y511852D01*
X204470Y511778D01*
X204340Y511592D01*
X204174Y511370D01*
X203952Y511111D01*
X203674Y510852D01*
X203359Y510592D01*
X202989Y510352D01*
X202970D01*
X202952Y510333D01*
X202896Y510296D01*
X202804Y510259D01*
X202711Y510222D01*
X202600Y510185D01*
X202322Y510074D01*
X202007Y509981D01*
X201619Y509889D01*
X201211Y509815D01*
X200767Y509796D01*
X200582D01*
X200434Y509815D01*
X200267Y509833D01*
X200082Y509870D01*
X199860Y509907D01*
X199637Y509944D01*
X199137Y510093D01*
X198860Y510204D01*
X198600Y510315D01*
X198341Y510463D01*
X198082Y510630D01*
X197841Y510815D01*
X197600Y511037D01*
X197582Y511055D01*
X197545Y511092D01*
X197489Y511166D01*
X197415Y511278D01*
X197323Y511407D01*
X197230Y511555D01*
X197119Y511741D01*
X197008Y511963D01*
X196897Y512203D01*
X196786Y512481D01*
X196693Y512777D01*
X196601Y513092D01*
X196527Y513444D01*
X196471Y513814D01*
X196434Y514222D01*
X196415Y514648D01*
Y514685D01*
Y514759D01*
X196434Y514888D01*
Y515074D01*
X196452Y515277D01*
X196490Y515536D01*
X196527Y515796D01*
X196601Y516092D01*
X196675Y516388D01*
X196767Y516703D01*
X196878Y517036D01*
X197027Y517351D01*
X197175Y517647D01*
X197378Y517944D01*
X197582Y518221D01*
X197841Y518462D01*
X197860Y518481D01*
X197897Y518499D01*
X197971Y518555D01*
X198063Y518629D01*
X198174Y518703D01*
X198323Y518795D01*
X198471Y518888D01*
X198656Y518980D01*
X198860Y519073D01*
X199082Y519166D01*
X199582Y519332D01*
X200156Y519462D01*
X200452Y519481D01*
X200767Y519499D01*
X200952D01*
X201082Y519481D01*
D02*
G37*
G36*
X180213D02*
X180361Y519462D01*
X180547Y519425D01*
X180750Y519388D01*
X180991Y519332D01*
X181213Y519277D01*
X181472Y519184D01*
X181713Y519092D01*
X181973Y518962D01*
X182232Y518814D01*
X182491Y518647D01*
X182732Y518444D01*
X182954Y518221D01*
X182972Y518203D01*
X183009Y518166D01*
X183065Y518092D01*
X183139Y517981D01*
X183232Y517851D01*
X183324Y517703D01*
X183435Y517518D01*
X183546Y517295D01*
X183657Y517055D01*
X183769Y516796D01*
X183861Y516499D01*
X183954Y516185D01*
X184028Y515833D01*
X184083Y515462D01*
X184120Y515074D01*
X184139Y514648D01*
Y514629D01*
Y514555D01*
Y514426D01*
X184120Y514240D01*
X177177D01*
Y514222D01*
Y514166D01*
X177195Y514092D01*
Y513981D01*
X177214Y513851D01*
X177251Y513703D01*
X177306Y513370D01*
X177417Y513000D01*
X177565Y512592D01*
X177769Y512222D01*
X178028Y511889D01*
X178047D01*
X178065Y511852D01*
X178177Y511759D01*
X178343Y511629D01*
X178565Y511500D01*
X178862Y511352D01*
X179195Y511222D01*
X179565Y511129D01*
X179769Y511111D01*
X179991Y511092D01*
X180139D01*
X180306Y511111D01*
X180510Y511148D01*
X180732Y511204D01*
X180991Y511278D01*
X181232Y511389D01*
X181472Y511537D01*
X181491Y511555D01*
X181584Y511629D01*
X181695Y511741D01*
X181824Y511889D01*
X181973Y512092D01*
X182139Y512352D01*
X182306Y512648D01*
X182454Y513000D01*
X184083Y512796D01*
Y512777D01*
X184065Y512741D01*
X184046Y512666D01*
X184009Y512555D01*
X183954Y512444D01*
X183898Y512296D01*
X183750Y511981D01*
X183565Y511629D01*
X183306Y511259D01*
X183009Y510907D01*
X182639Y510574D01*
X182621D01*
X182584Y510537D01*
X182528Y510500D01*
X182454Y510444D01*
X182343Y510389D01*
X182232Y510333D01*
X182084Y510259D01*
X181917Y510185D01*
X181732Y510111D01*
X181547Y510037D01*
X181084Y509926D01*
X180565Y509833D01*
X179991Y509796D01*
X179788D01*
X179658Y509815D01*
X179491Y509833D01*
X179288Y509870D01*
X179065Y509907D01*
X178825Y509944D01*
X178306Y510093D01*
X178028Y510204D01*
X177769Y510315D01*
X177491Y510463D01*
X177232Y510630D01*
X176992Y510815D01*
X176751Y511037D01*
X176732Y511055D01*
X176695Y511092D01*
X176640Y511166D01*
X176566Y511278D01*
X176473Y511407D01*
X176380Y511555D01*
X176269Y511741D01*
X176158Y511944D01*
X176047Y512185D01*
X175936Y512444D01*
X175844Y512741D01*
X175751Y513055D01*
X175677Y513388D01*
X175621Y513759D01*
X175584Y514148D01*
X175566Y514555D01*
Y514574D01*
Y514666D01*
Y514777D01*
X175584Y514944D01*
X175603Y515148D01*
X175621Y515370D01*
X175658Y515629D01*
X175714Y515888D01*
X175862Y516481D01*
X175955Y516777D01*
X176066Y517092D01*
X176214Y517388D01*
X176380Y517666D01*
X176566Y517944D01*
X176769Y518203D01*
X176788Y518221D01*
X176825Y518258D01*
X176899Y518314D01*
X176992Y518406D01*
X177103Y518499D01*
X177251Y518610D01*
X177417Y518740D01*
X177621Y518851D01*
X177825Y518980D01*
X178065Y519092D01*
X178325Y519203D01*
X178602Y519295D01*
X178899Y519388D01*
X179214Y519444D01*
X179547Y519481D01*
X179899Y519499D01*
X180084D01*
X180213Y519481D01*
D02*
G37*
G36*
X134422D02*
X134570Y519462D01*
X134755Y519425D01*
X134959Y519388D01*
X135199Y519332D01*
X135422Y519277D01*
X135681Y519184D01*
X135922Y519092D01*
X136181Y518962D01*
X136440Y518814D01*
X136699Y518647D01*
X136940Y518444D01*
X137162Y518221D01*
X137181Y518203D01*
X137218Y518166D01*
X137273Y518092D01*
X137347Y517981D01*
X137440Y517851D01*
X137533Y517703D01*
X137644Y517518D01*
X137755Y517295D01*
X137866Y517055D01*
X137977Y516796D01*
X138070Y516499D01*
X138162Y516185D01*
X138236Y515833D01*
X138292Y515462D01*
X138329Y515074D01*
X138347Y514648D01*
Y514629D01*
Y514555D01*
Y514426D01*
X138329Y514240D01*
X131385D01*
Y514222D01*
Y514166D01*
X131404Y514092D01*
Y513981D01*
X131422Y513851D01*
X131459Y513703D01*
X131515Y513370D01*
X131626Y513000D01*
X131774Y512592D01*
X131978Y512222D01*
X132237Y511889D01*
X132255D01*
X132274Y511852D01*
X132385Y511759D01*
X132552Y511629D01*
X132774Y511500D01*
X133070Y511352D01*
X133403Y511222D01*
X133774Y511129D01*
X133977Y511111D01*
X134200Y511092D01*
X134348D01*
X134514Y511111D01*
X134718Y511148D01*
X134940Y511204D01*
X135199Y511278D01*
X135440Y511389D01*
X135681Y511537D01*
X135700Y511555D01*
X135792Y511629D01*
X135903Y511741D01*
X136033Y511889D01*
X136181Y512092D01*
X136348Y512352D01*
X136514Y512648D01*
X136662Y513000D01*
X138292Y512796D01*
Y512777D01*
X138273Y512741D01*
X138255Y512666D01*
X138218Y512555D01*
X138162Y512444D01*
X138107Y512296D01*
X137958Y511981D01*
X137773Y511629D01*
X137514Y511259D01*
X137218Y510907D01*
X136847Y510574D01*
X136829D01*
X136792Y510537D01*
X136736Y510500D01*
X136662Y510444D01*
X136551Y510389D01*
X136440Y510333D01*
X136292Y510259D01*
X136125Y510185D01*
X135940Y510111D01*
X135755Y510037D01*
X135292Y509926D01*
X134774Y509833D01*
X134200Y509796D01*
X133996D01*
X133866Y509815D01*
X133700Y509833D01*
X133496Y509870D01*
X133274Y509907D01*
X133033Y509944D01*
X132515Y510093D01*
X132237Y510204D01*
X131978Y510315D01*
X131700Y510463D01*
X131441Y510630D01*
X131200Y510815D01*
X130959Y511037D01*
X130941Y511055D01*
X130904Y511092D01*
X130848Y511166D01*
X130774Y511278D01*
X130681Y511407D01*
X130589Y511555D01*
X130478Y511741D01*
X130367Y511944D01*
X130256Y512185D01*
X130145Y512444D01*
X130052Y512741D01*
X129959Y513055D01*
X129885Y513388D01*
X129830Y513759D01*
X129793Y514148D01*
X129774Y514555D01*
Y514574D01*
Y514666D01*
Y514777D01*
X129793Y514944D01*
X129811Y515148D01*
X129830Y515370D01*
X129867Y515629D01*
X129922Y515888D01*
X130070Y516481D01*
X130163Y516777D01*
X130274Y517092D01*
X130422Y517388D01*
X130589Y517666D01*
X130774Y517944D01*
X130978Y518203D01*
X130996Y518221D01*
X131033Y518258D01*
X131107Y518314D01*
X131200Y518406D01*
X131311Y518499D01*
X131459Y518610D01*
X131626Y518740D01*
X131830Y518851D01*
X132033Y518980D01*
X132274Y519092D01*
X132533Y519203D01*
X132811Y519295D01*
X133107Y519388D01*
X133422Y519444D01*
X133755Y519481D01*
X134107Y519499D01*
X134292D01*
X134422Y519481D01*
D02*
G37*
G36*
X39051Y510000D02*
X37478D01*
Y519295D01*
X39051D01*
Y510000D01*
D02*
G37*
G36*
X4055Y519481D02*
X4333Y519462D01*
X4629Y519425D01*
X4944Y519351D01*
X5277Y519277D01*
X5592Y519166D01*
X5610D01*
X5629Y519147D01*
X5722Y519110D01*
X5870Y519036D01*
X6055Y518943D01*
X6259Y518814D01*
X6462Y518666D01*
X6647Y518499D01*
X6814Y518314D01*
X6833Y518295D01*
X6870Y518221D01*
X6944Y518092D01*
X7036Y517944D01*
X7129Y517721D01*
X7222Y517481D01*
X7296Y517203D01*
X7370Y516888D01*
X5833Y516684D01*
Y516721D01*
X5814Y516796D01*
X5777Y516925D01*
X5722Y517092D01*
X5629Y517258D01*
X5518Y517444D01*
X5388Y517629D01*
X5203Y517795D01*
X5185Y517814D01*
X5111Y517851D01*
X4999Y517925D01*
X4833Y517999D01*
X4648Y518073D01*
X4407Y518147D01*
X4111Y518184D01*
X3796Y518203D01*
X3611D01*
X3426Y518184D01*
X3185Y518166D01*
X2944Y518110D01*
X2685Y518055D01*
X2444Y517962D01*
X2241Y517832D01*
X2222Y517814D01*
X2166Y517777D01*
X2092Y517703D01*
X2018Y517592D01*
X1926Y517481D01*
X1852Y517333D01*
X1796Y517166D01*
X1778Y516999D01*
Y516981D01*
Y516944D01*
X1796Y516888D01*
Y516814D01*
X1852Y516629D01*
X1963Y516444D01*
X1981Y516425D01*
X2000Y516407D01*
X2037Y516351D01*
X2111Y516296D01*
X2185Y516240D01*
X2296Y516166D01*
X2426Y516110D01*
X2574Y516036D01*
X2592D01*
X2629Y516018D01*
X2703Y515999D01*
X2833Y515944D01*
X3018Y515888D01*
X3259Y515833D01*
X3407Y515777D01*
X3574Y515740D01*
X3759Y515685D01*
X3963Y515629D01*
X3981D01*
X4037Y515611D01*
X4129Y515592D01*
X4240Y515555D01*
X4370Y515518D01*
X4537Y515481D01*
X4888Y515370D01*
X5277Y515259D01*
X5666Y515129D01*
X6018Y515000D01*
X6166Y514944D01*
X6296Y514888D01*
X6333Y514870D01*
X6407Y514833D01*
X6518Y514777D01*
X6684Y514685D01*
X6851Y514574D01*
X7018Y514426D01*
X7184Y514259D01*
X7333Y514074D01*
X7351Y514055D01*
X7388Y513981D01*
X7462Y513870D01*
X7536Y513703D01*
X7592Y513500D01*
X7666Y513277D01*
X7703Y513018D01*
X7721Y512722D01*
Y512685D01*
Y512592D01*
X7703Y512444D01*
X7666Y512240D01*
X7610Y512018D01*
X7518Y511778D01*
X7407Y511500D01*
X7258Y511241D01*
X7240Y511204D01*
X7166Y511129D01*
X7073Y511000D01*
X6925Y510852D01*
X6722Y510685D01*
X6499Y510500D01*
X6240Y510333D01*
X5925Y510167D01*
X5907D01*
X5888Y510148D01*
X5777Y510111D01*
X5592Y510056D01*
X5351Y509981D01*
X5055Y509907D01*
X4722Y509852D01*
X4370Y509815D01*
X3963Y509796D01*
X3796D01*
X3666Y509815D01*
X3518D01*
X3333Y509833D01*
X3148Y509852D01*
X2944Y509889D01*
X2500Y509981D01*
X2037Y510111D01*
X1592Y510296D01*
X1389Y510407D01*
X1204Y510537D01*
X1185Y510555D01*
X1167Y510574D01*
X1055Y510685D01*
X889Y510852D01*
X704Y511111D01*
X500Y511426D01*
X296Y511796D01*
X130Y512259D01*
X0Y512777D01*
X1555Y513018D01*
Y513000D01*
Y512981D01*
X1592Y512870D01*
X1629Y512685D01*
X1704Y512481D01*
X1796Y512259D01*
X1907Y512018D01*
X2074Y511778D01*
X2278Y511574D01*
X2315Y511555D01*
X2389Y511500D01*
X2537Y511426D01*
X2722Y511333D01*
X2963Y511241D01*
X3240Y511166D01*
X3574Y511111D01*
X3963Y511092D01*
X4148D01*
X4333Y511111D01*
X4574Y511148D01*
X4833Y511204D01*
X5111Y511278D01*
X5351Y511370D01*
X5573Y511518D01*
X5592Y511537D01*
X5666Y511592D01*
X5740Y511685D01*
X5851Y511815D01*
X5944Y511963D01*
X6036Y512148D01*
X6092Y512333D01*
X6111Y512555D01*
Y512574D01*
Y512648D01*
X6092Y512741D01*
X6055Y512870D01*
X5999Y513000D01*
X5907Y513129D01*
X5796Y513277D01*
X5629Y513388D01*
X5610Y513407D01*
X5555Y513426D01*
X5462Y513481D01*
X5314Y513537D01*
X5092Y513611D01*
X4962Y513666D01*
X4814Y513703D01*
X4648Y513759D01*
X4462Y513814D01*
X4259Y513870D01*
X4018Y513926D01*
X4000D01*
X3944Y513944D01*
X3851Y513963D01*
X3740Y514000D01*
X3592Y514037D01*
X3426Y514092D01*
X3074Y514185D01*
X2666Y514314D01*
X2278Y514426D01*
X1907Y514555D01*
X1741Y514629D01*
X1611Y514685D01*
X1574Y514703D01*
X1500Y514740D01*
X1389Y514814D01*
X1241Y514907D01*
X1074Y515037D01*
X907Y515185D01*
X741Y515351D01*
X593Y515555D01*
X574Y515574D01*
X537Y515648D01*
X481Y515777D01*
X426Y515925D01*
X370Y516110D01*
X315Y516333D01*
X278Y516555D01*
X259Y516814D01*
Y516851D01*
Y516925D01*
X278Y517036D01*
X296Y517203D01*
X333Y517370D01*
X370Y517573D01*
X444Y517758D01*
X537Y517962D01*
X556Y517981D01*
X593Y518055D01*
X648Y518147D01*
X741Y518277D01*
X852Y518406D01*
X981Y518573D01*
X1129Y518721D01*
X1315Y518851D01*
X1333Y518869D01*
X1389Y518888D01*
X1463Y518943D01*
X1574Y518999D01*
X1722Y519073D01*
X1889Y519147D01*
X2092Y519221D01*
X2315Y519295D01*
X2352Y519314D01*
X2426Y519332D01*
X2555Y519369D01*
X2722Y519406D01*
X2926Y519444D01*
X3148Y519462D01*
X3407Y519499D01*
X3851D01*
X4055Y519481D01*
D02*
G37*
G36*
X164511D02*
X164789Y519462D01*
X165104Y519425D01*
X165419Y519369D01*
X165733Y519295D01*
X166030Y519203D01*
X166067Y519184D01*
X166159Y519147D01*
X166289Y519092D01*
X166455Y519018D01*
X166641Y518907D01*
X166826Y518795D01*
X166992Y518647D01*
X167141Y518499D01*
X167159Y518481D01*
X167196Y518425D01*
X167252Y518332D01*
X167326Y518221D01*
X167418Y518055D01*
X167493Y517888D01*
X167567Y517684D01*
X167622Y517444D01*
Y517425D01*
X167641Y517370D01*
X167659Y517258D01*
X167678Y517110D01*
Y516907D01*
X167696Y516666D01*
X167715Y516351D01*
Y515999D01*
Y513889D01*
Y513870D01*
Y513796D01*
Y513685D01*
Y513537D01*
Y513370D01*
Y513166D01*
X167733Y512722D01*
Y512259D01*
X167752Y511796D01*
X167770Y511592D01*
Y511407D01*
X167789Y511241D01*
X167807Y511111D01*
Y511092D01*
X167826Y511018D01*
X167844Y510907D01*
X167900Y510759D01*
X167937Y510592D01*
X168011Y510407D01*
X168104Y510204D01*
X168196Y510000D01*
X166548D01*
X166530Y510019D01*
X166511Y510093D01*
X166474Y510185D01*
X166418Y510333D01*
X166363Y510500D01*
X166326Y510704D01*
X166289Y510926D01*
X166252Y511166D01*
X166233D01*
X166215Y511129D01*
X166104Y511037D01*
X165937Y510907D01*
X165715Y510741D01*
X165437Y510574D01*
X165159Y510389D01*
X164863Y510222D01*
X164548Y510093D01*
X164511Y510074D01*
X164400Y510056D01*
X164234Y510000D01*
X164030Y509944D01*
X163771Y509889D01*
X163474Y509852D01*
X163141Y509815D01*
X162808Y509796D01*
X162660D01*
X162549Y509815D01*
X162419D01*
X162271Y509833D01*
X161938Y509889D01*
X161567Y509981D01*
X161160Y510111D01*
X160790Y510296D01*
X160456Y510537D01*
X160419Y510574D01*
X160327Y510667D01*
X160197Y510833D01*
X160049Y511055D01*
X159901Y511333D01*
X159771Y511648D01*
X159678Y512037D01*
X159660Y512222D01*
X159641Y512444D01*
Y512481D01*
Y512555D01*
X159660Y512685D01*
X159678Y512852D01*
X159715Y513055D01*
X159771Y513259D01*
X159845Y513481D01*
X159938Y513685D01*
X159956Y513703D01*
X159993Y513777D01*
X160067Y513889D01*
X160160Y514018D01*
X160271Y514166D01*
X160419Y514314D01*
X160567Y514463D01*
X160752Y514592D01*
X160771Y514611D01*
X160845Y514648D01*
X160938Y514722D01*
X161086Y514796D01*
X161252Y514870D01*
X161456Y514962D01*
X161660Y515037D01*
X161901Y515111D01*
X161919D01*
X161993Y515129D01*
X162104Y515166D01*
X162252Y515185D01*
X162437Y515222D01*
X162678Y515259D01*
X162956Y515314D01*
X163289Y515351D01*
X163308D01*
X163382Y515370D01*
X163474D01*
X163604Y515388D01*
X163752Y515407D01*
X163937Y515444D01*
X164141Y515462D01*
X164363Y515499D01*
X164808Y515592D01*
X165289Y515685D01*
X165715Y515796D01*
X165919Y515851D01*
X166104Y515907D01*
Y515925D01*
Y515962D01*
X166122Y516073D01*
Y516203D01*
Y516277D01*
Y516314D01*
Y516333D01*
Y516351D01*
Y516462D01*
X166104Y516647D01*
X166067Y516851D01*
X166011Y517073D01*
X165919Y517295D01*
X165807Y517499D01*
X165659Y517666D01*
X165641Y517684D01*
X165548Y517758D01*
X165400Y517832D01*
X165215Y517944D01*
X164956Y518036D01*
X164659Y518129D01*
X164289Y518184D01*
X163863Y518203D01*
X163678D01*
X163493Y518184D01*
X163234Y518147D01*
X162974Y518110D01*
X162697Y518036D01*
X162437Y517944D01*
X162215Y517814D01*
X162197Y517795D01*
X162123Y517740D01*
X162030Y517647D01*
X161919Y517499D01*
X161808Y517314D01*
X161678Y517073D01*
X161567Y516777D01*
X161456Y516444D01*
X159919Y516647D01*
Y516666D01*
X159938Y516684D01*
Y516740D01*
X159956Y516814D01*
X160012Y516981D01*
X160086Y517221D01*
X160178Y517462D01*
X160289Y517721D01*
X160438Y517981D01*
X160604Y518221D01*
X160623Y518240D01*
X160697Y518314D01*
X160808Y518425D01*
X160956Y518573D01*
X161160Y518721D01*
X161401Y518869D01*
X161678Y519036D01*
X161993Y519166D01*
X162012D01*
X162030Y519184D01*
X162086Y519203D01*
X162160Y519221D01*
X162345Y519277D01*
X162604Y519332D01*
X162900Y519388D01*
X163271Y519444D01*
X163659Y519481D01*
X164104Y519499D01*
X164308D01*
X164511Y519481D01*
D02*
G37*
G36*
X46106D02*
X46310Y519462D01*
X46551Y519425D01*
X46810Y519369D01*
X47088Y519295D01*
X47347Y519184D01*
X47384Y519166D01*
X47458Y519129D01*
X47588Y519073D01*
X47736Y518980D01*
X47921Y518869D01*
X48088Y518721D01*
X48254Y518573D01*
X48402Y518388D01*
X48421Y518369D01*
X48458Y518295D01*
X48513Y518203D01*
X48606Y518073D01*
X48680Y517888D01*
X48754Y517703D01*
X48847Y517481D01*
X48902Y517240D01*
Y517221D01*
X48921Y517147D01*
X48939Y517036D01*
X48958Y516888D01*
Y516666D01*
X48976Y516407D01*
X48995Y516092D01*
Y515703D01*
Y510000D01*
X47421D01*
Y515629D01*
Y515648D01*
Y515666D01*
Y515796D01*
Y515962D01*
X47403Y516166D01*
X47384Y516407D01*
X47347Y516647D01*
X47291Y516870D01*
X47236Y517073D01*
Y517092D01*
X47199Y517147D01*
X47143Y517240D01*
X47088Y517351D01*
X46995Y517462D01*
X46884Y517592D01*
X46736Y517721D01*
X46569Y517832D01*
X46551Y517851D01*
X46495Y517888D01*
X46384Y517925D01*
X46255Y517981D01*
X46106Y518036D01*
X45921Y518092D01*
X45699Y518110D01*
X45477Y518129D01*
X45384D01*
X45310Y518110D01*
X45125Y518092D01*
X44884Y518055D01*
X44625Y517962D01*
X44329Y517851D01*
X44033Y517703D01*
X43755Y517481D01*
X43718Y517444D01*
X43644Y517351D01*
X43588Y517277D01*
X43533Y517184D01*
X43458Y517073D01*
X43403Y516944D01*
X43329Y516796D01*
X43255Y516610D01*
X43199Y516407D01*
X43144Y516185D01*
X43107Y515944D01*
X43070Y515685D01*
X43033Y515370D01*
Y515055D01*
Y510000D01*
X41459D01*
Y519295D01*
X42866D01*
Y517962D01*
X42884Y517981D01*
X42922Y518036D01*
X42977Y518110D01*
X43051Y518203D01*
X43162Y518314D01*
X43292Y518444D01*
X43440Y518592D01*
X43625Y518740D01*
X43810Y518869D01*
X44033Y519018D01*
X44273Y519147D01*
X44532Y519258D01*
X44829Y519351D01*
X45125Y519425D01*
X45458Y519481D01*
X45810Y519499D01*
X45958D01*
X46106Y519481D01*
D02*
G37*
G36*
X81269D02*
X81399D01*
X81529Y519462D01*
X81843Y519406D01*
X82177Y519314D01*
X82528Y519166D01*
X82880Y518980D01*
X83177Y518721D01*
X83214Y518684D01*
X83288Y518573D01*
X83417Y518406D01*
X83473Y518277D01*
X83547Y518147D01*
X83621Y517981D01*
X83677Y517814D01*
X83751Y517629D01*
X83806Y517407D01*
X83843Y517184D01*
X83880Y516925D01*
X83917Y516666D01*
Y516370D01*
Y510000D01*
X82343D01*
Y515833D01*
Y515851D01*
Y515870D01*
Y515981D01*
Y516147D01*
X82325Y516351D01*
X82306Y516573D01*
X82288Y516796D01*
X82251Y517018D01*
X82195Y517184D01*
Y517203D01*
X82158Y517258D01*
X82121Y517333D01*
X82066Y517425D01*
X81992Y517536D01*
X81899Y517647D01*
X81788Y517758D01*
X81640Y517870D01*
X81621Y517888D01*
X81566Y517907D01*
X81492Y517944D01*
X81362Y517999D01*
X81232Y518055D01*
X81066Y518092D01*
X80899Y518110D01*
X80695Y518129D01*
X80603D01*
X80529Y518110D01*
X80344Y518092D01*
X80121Y518055D01*
X79862Y517962D01*
X79584Y517851D01*
X79307Y517684D01*
X79047Y517462D01*
X79029Y517425D01*
X78955Y517333D01*
X78844Y517184D01*
X78733Y516962D01*
X78603Y516666D01*
X78510Y516314D01*
X78436Y515888D01*
X78399Y515388D01*
Y510000D01*
X76825D01*
Y516018D01*
Y516036D01*
Y516073D01*
Y516110D01*
Y516185D01*
X76807Y516388D01*
X76770Y516610D01*
X76733Y516870D01*
X76659Y517129D01*
X76566Y517370D01*
X76437Y517592D01*
X76418Y517610D01*
X76363Y517684D01*
X76270Y517758D01*
X76140Y517870D01*
X75974Y517962D01*
X75751Y518055D01*
X75492Y518110D01*
X75177Y518129D01*
X75066D01*
X74937Y518110D01*
X74788Y518092D01*
X74603Y518036D01*
X74381Y517981D01*
X74177Y517888D01*
X73955Y517777D01*
X73937Y517758D01*
X73863Y517703D01*
X73770Y517629D01*
X73640Y517518D01*
X73511Y517370D01*
X73381Y517184D01*
X73252Y516981D01*
X73141Y516740D01*
X73122Y516703D01*
X73103Y516610D01*
X73067Y516462D01*
X73011Y516259D01*
X72955Y515981D01*
X72918Y515648D01*
X72900Y515259D01*
X72881Y514814D01*
Y510000D01*
X71307D01*
Y519295D01*
X72715D01*
Y517962D01*
X72733Y517999D01*
X72789Y518073D01*
X72900Y518203D01*
X73029Y518351D01*
X73196Y518536D01*
X73400Y518721D01*
X73622Y518907D01*
X73881Y519073D01*
X73918Y519092D01*
X74011Y519147D01*
X74159Y519203D01*
X74363Y519295D01*
X74603Y519369D01*
X74881Y519425D01*
X75196Y519481D01*
X75529Y519499D01*
X75696D01*
X75900Y519481D01*
X76122Y519444D01*
X76399Y519388D01*
X76677Y519314D01*
X76955Y519203D01*
X77214Y519055D01*
X77251Y519036D01*
X77325Y518980D01*
X77436Y518888D01*
X77585Y518740D01*
X77733Y518573D01*
X77899Y518369D01*
X78047Y518129D01*
X78159Y517851D01*
X78177Y517870D01*
X78214Y517925D01*
X78270Y517999D01*
X78362Y518110D01*
X78473Y518240D01*
X78603Y518369D01*
X78751Y518518D01*
X78936Y518684D01*
X79140Y518832D01*
X79344Y518980D01*
X79584Y519110D01*
X79844Y519240D01*
X80121Y519351D01*
X80418Y519425D01*
X80714Y519481D01*
X81047Y519499D01*
X81177D01*
X81269Y519481D01*
D02*
G37*
G36*
X66345D02*
X66475D01*
X66604Y519462D01*
X66919Y519406D01*
X67252Y519314D01*
X67604Y519166D01*
X67956Y518980D01*
X68252Y518721D01*
X68289Y518684D01*
X68363Y518573D01*
X68493Y518406D01*
X68548Y518277D01*
X68622Y518147D01*
X68697Y517981D01*
X68752Y517814D01*
X68826Y517629D01*
X68882Y517407D01*
X68919Y517184D01*
X68956Y516925D01*
X68993Y516666D01*
Y516370D01*
Y510000D01*
X67419D01*
Y515833D01*
Y515851D01*
Y515870D01*
Y515981D01*
Y516147D01*
X67400Y516351D01*
X67382Y516573D01*
X67363Y516796D01*
X67326Y517018D01*
X67271Y517184D01*
Y517203D01*
X67234Y517258D01*
X67197Y517333D01*
X67141Y517425D01*
X67067Y517536D01*
X66975Y517647D01*
X66863Y517758D01*
X66715Y517870D01*
X66697Y517888D01*
X66641Y517907D01*
X66567Y517944D01*
X66438Y517999D01*
X66308Y518055D01*
X66141Y518092D01*
X65975Y518110D01*
X65771Y518129D01*
X65678D01*
X65604Y518110D01*
X65419Y518092D01*
X65197Y518055D01*
X64938Y517962D01*
X64660Y517851D01*
X64382Y517684D01*
X64123Y517462D01*
X64104Y517425D01*
X64030Y517333D01*
X63919Y517184D01*
X63808Y516962D01*
X63679Y516666D01*
X63586Y516314D01*
X63512Y515888D01*
X63475Y515388D01*
Y510000D01*
X61901D01*
Y516018D01*
Y516036D01*
Y516073D01*
Y516110D01*
Y516185D01*
X61883Y516388D01*
X61845Y516610D01*
X61808Y516870D01*
X61734Y517129D01*
X61642Y517370D01*
X61512Y517592D01*
X61494Y517610D01*
X61438Y517684D01*
X61346Y517758D01*
X61216Y517870D01*
X61049Y517962D01*
X60827Y518055D01*
X60568Y518110D01*
X60253Y518129D01*
X60142D01*
X60012Y518110D01*
X59864Y518092D01*
X59679Y518036D01*
X59457Y517981D01*
X59253Y517888D01*
X59031Y517777D01*
X59012Y517758D01*
X58938Y517703D01*
X58846Y517629D01*
X58716Y517518D01*
X58587Y517370D01*
X58457Y517184D01*
X58327Y516981D01*
X58216Y516740D01*
X58198Y516703D01*
X58179Y516610D01*
X58142Y516462D01*
X58087Y516259D01*
X58031Y515981D01*
X57994Y515648D01*
X57976Y515259D01*
X57957Y514814D01*
Y510000D01*
X56383D01*
Y519295D01*
X57790D01*
Y517962D01*
X57809Y517999D01*
X57864Y518073D01*
X57976Y518203D01*
X58105Y518351D01*
X58272Y518536D01*
X58475Y518721D01*
X58698Y518907D01*
X58957Y519073D01*
X58994Y519092D01*
X59086Y519147D01*
X59235Y519203D01*
X59438Y519295D01*
X59679Y519369D01*
X59957Y519425D01*
X60272Y519481D01*
X60605Y519499D01*
X60771D01*
X60975Y519481D01*
X61197Y519444D01*
X61475Y519388D01*
X61753Y519314D01*
X62031Y519203D01*
X62290Y519055D01*
X62327Y519036D01*
X62401Y518980D01*
X62512Y518888D01*
X62660Y518740D01*
X62808Y518573D01*
X62975Y518369D01*
X63123Y518129D01*
X63234Y517851D01*
X63253Y517870D01*
X63290Y517925D01*
X63345Y517999D01*
X63438Y518110D01*
X63549Y518240D01*
X63679Y518369D01*
X63827Y518518D01*
X64012Y518684D01*
X64216Y518832D01*
X64419Y518980D01*
X64660Y519110D01*
X64919Y519240D01*
X65197Y519351D01*
X65493Y519425D01*
X65789Y519481D01*
X66123Y519499D01*
X66252D01*
X66345Y519481D01*
D02*
G37*
G36*
X108499D02*
X108665Y519462D01*
X108850Y519425D01*
X109054Y519388D01*
X109295Y519351D01*
X109795Y519184D01*
X110054Y519092D01*
X110313Y518962D01*
X110572Y518832D01*
X110832Y518647D01*
X111072Y518462D01*
X111313Y518240D01*
X111332Y518221D01*
X111369Y518184D01*
X111424Y518110D01*
X111498Y518018D01*
X111591Y517888D01*
X111702Y517721D01*
X111813Y517536D01*
X111924Y517333D01*
X112035Y517110D01*
X112146Y516833D01*
X112257Y516555D01*
X112350Y516240D01*
X112424Y515907D01*
X112480Y515555D01*
X112517Y515185D01*
X112535Y514777D01*
Y514759D01*
Y514703D01*
Y514611D01*
Y514481D01*
X112517Y514333D01*
X112498Y514148D01*
Y513963D01*
X112461Y513759D01*
X112406Y513296D01*
X112295Y512833D01*
X112165Y512370D01*
X111980Y511944D01*
Y511926D01*
X111961Y511907D01*
X111924Y511852D01*
X111887Y511778D01*
X111757Y511592D01*
X111591Y511370D01*
X111369Y511111D01*
X111091Y510852D01*
X110776Y510592D01*
X110406Y510352D01*
X110387D01*
X110369Y510333D01*
X110313Y510296D01*
X110221Y510259D01*
X110128Y510222D01*
X110017Y510185D01*
X109739Y510074D01*
X109424Y509981D01*
X109036Y509889D01*
X108628Y509815D01*
X108184Y509796D01*
X107999D01*
X107851Y509815D01*
X107684Y509833D01*
X107499Y509870D01*
X107276Y509907D01*
X107054Y509944D01*
X106554Y510093D01*
X106277Y510204D01*
X106017Y510315D01*
X105758Y510463D01*
X105499Y510630D01*
X105258Y510815D01*
X105017Y511037D01*
X104999Y511055D01*
X104962Y511092D01*
X104906Y511166D01*
X104832Y511278D01*
X104740Y511407D01*
X104647Y511555D01*
X104536Y511741D01*
X104425Y511963D01*
X104314Y512203D01*
X104203Y512481D01*
X104110Y512777D01*
X104018Y513092D01*
X103944Y513444D01*
X103888Y513814D01*
X103851Y514222D01*
X103832Y514648D01*
Y514685D01*
Y514759D01*
X103851Y514888D01*
Y515074D01*
X103869Y515277D01*
X103906Y515536D01*
X103944Y515796D01*
X104018Y516092D01*
X104092Y516388D01*
X104184Y516703D01*
X104295Y517036D01*
X104444Y517351D01*
X104592Y517647D01*
X104795Y517944D01*
X104999Y518221D01*
X105258Y518462D01*
X105277Y518481D01*
X105314Y518499D01*
X105388Y518555D01*
X105480Y518629D01*
X105591Y518703D01*
X105740Y518795D01*
X105888Y518888D01*
X106073Y518980D01*
X106277Y519073D01*
X106499Y519166D01*
X106999Y519332D01*
X107573Y519462D01*
X107869Y519481D01*
X108184Y519499D01*
X108369D01*
X108499Y519481D01*
D02*
G37*
G36*
X39051Y521017D02*
X37478D01*
Y522813D01*
X39051D01*
Y521017D01*
D02*
G37*
G36*
X11165D02*
X9592D01*
Y522813D01*
X11165D01*
Y521017D01*
D02*
G37*
G36*
X20665Y518240D02*
X15628Y512352D01*
X14647Y511259D01*
X14758D01*
X14832Y511278D01*
X15036Y511296D01*
X15295Y511315D01*
X15610D01*
X15943Y511333D01*
X16646Y511352D01*
X20942D01*
Y510000D01*
X12721D01*
Y511259D01*
X18628Y518073D01*
X18461D01*
X18276Y518055D01*
X18035D01*
X17757Y518036D01*
X17461D01*
X17146Y518018D01*
X13073D01*
Y519295D01*
X20665D01*
Y518240D01*
D02*
G37*
G36*
X194749Y519481D02*
X194953Y519444D01*
X195193Y519369D01*
X195452Y519277D01*
X195749Y519147D01*
X196064Y518980D01*
X195490Y517536D01*
X195471Y517555D01*
X195397Y517592D01*
X195286Y517647D01*
X195138Y517703D01*
X194971Y517758D01*
X194767Y517814D01*
X194564Y517851D01*
X194360Y517870D01*
X194268D01*
X194175Y517851D01*
X194045Y517832D01*
X193916Y517795D01*
X193749Y517740D01*
X193582Y517666D01*
X193434Y517555D01*
X193416Y517536D01*
X193360Y517499D01*
X193305Y517425D01*
X193212Y517333D01*
X193120Y517203D01*
X193027Y517055D01*
X192934Y516888D01*
X192860Y516684D01*
X192842Y516647D01*
X192823Y516536D01*
X192786Y516370D01*
X192731Y516147D01*
X192675Y515870D01*
X192638Y515555D01*
X192619Y515222D01*
X192601Y514851D01*
Y510000D01*
X191027D01*
Y519295D01*
X192453D01*
Y517888D01*
X192471Y517907D01*
X192545Y518036D01*
X192638Y518203D01*
X192786Y518406D01*
X192934Y518610D01*
X193101Y518832D01*
X193268Y519018D01*
X193434Y519166D01*
X193453Y519184D01*
X193508Y519221D01*
X193619Y519277D01*
X193731Y519332D01*
X193879Y519388D01*
X194064Y519444D01*
X194249Y519481D01*
X194453Y519499D01*
X194582D01*
X194749Y519481D01*
D02*
G37*
G36*
X173844D02*
X174047Y519444D01*
X174288Y519369D01*
X174547Y519277D01*
X174844Y519147D01*
X175158Y518980D01*
X174584Y517536D01*
X174566Y517555D01*
X174492Y517592D01*
X174381Y517647D01*
X174233Y517703D01*
X174066Y517758D01*
X173862Y517814D01*
X173659Y517851D01*
X173455Y517870D01*
X173362D01*
X173270Y517851D01*
X173140Y517832D01*
X173010Y517795D01*
X172844Y517740D01*
X172677Y517666D01*
X172529Y517555D01*
X172511Y517536D01*
X172455Y517499D01*
X172399Y517425D01*
X172307Y517333D01*
X172214Y517203D01*
X172122Y517055D01*
X172029Y516888D01*
X171955Y516684D01*
X171936Y516647D01*
X171918Y516536D01*
X171881Y516370D01*
X171825Y516147D01*
X171770Y515870D01*
X171733Y515555D01*
X171714Y515222D01*
X171696Y514851D01*
Y510000D01*
X170122D01*
Y519295D01*
X171548D01*
Y517888D01*
X171566Y517907D01*
X171640Y518036D01*
X171733Y518203D01*
X171881Y518406D01*
X172029Y518610D01*
X172196Y518832D01*
X172362Y519018D01*
X172529Y519166D01*
X172547Y519184D01*
X172603Y519221D01*
X172714Y519277D01*
X172825Y519332D01*
X172973Y519388D01*
X173159Y519444D01*
X173344Y519481D01*
X173547Y519499D01*
X173677D01*
X173844Y519481D01*
D02*
G37*
G36*
X143976D02*
X144180Y519444D01*
X144421Y519369D01*
X144680Y519277D01*
X144976Y519147D01*
X145291Y518980D01*
X144717Y517536D01*
X144698Y517555D01*
X144625Y517592D01*
X144513Y517647D01*
X144365Y517703D01*
X144199Y517758D01*
X143995Y517814D01*
X143791Y517851D01*
X143588Y517870D01*
X143495D01*
X143402Y517851D01*
X143273Y517832D01*
X143143Y517795D01*
X142977Y517740D01*
X142810Y517666D01*
X142662Y517555D01*
X142643Y517536D01*
X142588Y517499D01*
X142532Y517425D01*
X142439Y517333D01*
X142347Y517203D01*
X142254Y517055D01*
X142162Y516888D01*
X142088Y516684D01*
X142069Y516647D01*
X142051Y516536D01*
X142014Y516370D01*
X141958Y516147D01*
X141903Y515870D01*
X141866Y515555D01*
X141847Y515222D01*
X141828Y514851D01*
Y510000D01*
X140255D01*
Y519295D01*
X141680D01*
Y517888D01*
X141699Y517907D01*
X141773Y518036D01*
X141866Y518203D01*
X142014Y518406D01*
X142162Y518610D01*
X142328Y518832D01*
X142495Y519018D01*
X142662Y519166D01*
X142680Y519184D01*
X142736Y519221D01*
X142847Y519277D01*
X142958Y519332D01*
X143106Y519388D01*
X143291Y519444D01*
X143476Y519481D01*
X143680Y519499D01*
X143810D01*
X143976Y519481D01*
D02*
G37*
G36*
X234356Y510000D02*
X232893D01*
Y511166D01*
X232875Y511148D01*
X232856Y511111D01*
X232801Y511037D01*
X232726Y510944D01*
X232634Y510852D01*
X232523Y510741D01*
X232393Y510611D01*
X232227Y510481D01*
X232060Y510352D01*
X231875Y510222D01*
X231653Y510111D01*
X231412Y510019D01*
X231171Y509926D01*
X230893Y509852D01*
X230597Y509815D01*
X230282Y509796D01*
X230171D01*
X230097Y509815D01*
X229875Y509833D01*
X229616Y509870D01*
X229301Y509944D01*
X228949Y510056D01*
X228597Y510204D01*
X228245Y510407D01*
X228227D01*
X228208Y510444D01*
X228097Y510518D01*
X227931Y510667D01*
X227727Y510852D01*
X227486Y511092D01*
X227246Y511389D01*
X227005Y511722D01*
X226801Y512111D01*
Y512129D01*
X226783Y512166D01*
X226764Y512222D01*
X226727Y512296D01*
X226690Y512407D01*
X226635Y512537D01*
X226597Y512666D01*
X226560Y512833D01*
X226468Y513203D01*
X226375Y513629D01*
X226320Y514111D01*
X226301Y514629D01*
Y514648D01*
Y514685D01*
Y514759D01*
Y514870D01*
X226320Y514981D01*
Y515129D01*
X226357Y515462D01*
X226412Y515851D01*
X226505Y516277D01*
X226616Y516721D01*
X226764Y517147D01*
Y517166D01*
X226783Y517203D01*
X226820Y517258D01*
X226857Y517333D01*
X226968Y517536D01*
X227116Y517795D01*
X227301Y518073D01*
X227542Y518351D01*
X227820Y518647D01*
X228153Y518888D01*
X228171D01*
X228190Y518907D01*
X228245Y518943D01*
X228319Y518980D01*
X228505Y519073D01*
X228764Y519203D01*
X229060Y519314D01*
X229412Y519406D01*
X229801Y519481D01*
X230208Y519499D01*
X230356D01*
X230504Y519481D01*
X230708Y519462D01*
X230949Y519406D01*
X231208Y519351D01*
X231467Y519258D01*
X231708Y519129D01*
X231745Y519110D01*
X231819Y519073D01*
X231930Y518980D01*
X232078Y518888D01*
X232264Y518758D01*
X232430Y518592D01*
X232615Y518425D01*
X232782Y518221D01*
Y522813D01*
X234356D01*
Y510000D01*
D02*
G37*
G36*
X221579Y519481D02*
X221783Y519462D01*
X222024Y519425D01*
X222283Y519369D01*
X222561Y519295D01*
X222820Y519184D01*
X222857Y519166D01*
X222931Y519129D01*
X223061Y519073D01*
X223209Y518980D01*
X223394Y518869D01*
X223561Y518721D01*
X223727Y518573D01*
X223876Y518388D01*
X223894Y518369D01*
X223931Y518295D01*
X223987Y518203D01*
X224079Y518073D01*
X224153Y517888D01*
X224227Y517703D01*
X224320Y517481D01*
X224375Y517240D01*
Y517221D01*
X224394Y517147D01*
X224412Y517036D01*
X224431Y516888D01*
Y516666D01*
X224450Y516407D01*
X224468Y516092D01*
Y515703D01*
Y510000D01*
X222894D01*
Y515629D01*
Y515648D01*
Y515666D01*
Y515796D01*
Y515962D01*
X222876Y516166D01*
X222857Y516407D01*
X222820Y516647D01*
X222764Y516870D01*
X222709Y517073D01*
Y517092D01*
X222672Y517147D01*
X222616Y517240D01*
X222561Y517351D01*
X222468Y517462D01*
X222357Y517592D01*
X222209Y517721D01*
X222042Y517832D01*
X222024Y517851D01*
X221968Y517888D01*
X221857Y517925D01*
X221728Y517981D01*
X221579Y518036D01*
X221394Y518092D01*
X221172Y518110D01*
X220950Y518129D01*
X220857D01*
X220783Y518110D01*
X220598Y518092D01*
X220357Y518055D01*
X220098Y517962D01*
X219802Y517851D01*
X219506Y517703D01*
X219228Y517481D01*
X219191Y517444D01*
X219117Y517351D01*
X219061Y517277D01*
X219006Y517184D01*
X218932Y517073D01*
X218876Y516944D01*
X218802Y516796D01*
X218728Y516610D01*
X218672Y516407D01*
X218617Y516185D01*
X218580Y515944D01*
X218543Y515685D01*
X218506Y515370D01*
Y515055D01*
Y510000D01*
X216932D01*
Y519295D01*
X218339D01*
Y517962D01*
X218358Y517981D01*
X218395Y518036D01*
X218450Y518110D01*
X218524Y518203D01*
X218635Y518314D01*
X218765Y518444D01*
X218913Y518592D01*
X219098Y518740D01*
X219283Y518869D01*
X219506Y519018D01*
X219746Y519147D01*
X220006Y519258D01*
X220302Y519351D01*
X220598Y519425D01*
X220931Y519481D01*
X221283Y519499D01*
X221431D01*
X221579Y519481D01*
D02*
G37*
G36*
X124997D02*
X125201Y519462D01*
X125441Y519425D01*
X125701Y519369D01*
X125978Y519295D01*
X126237Y519184D01*
X126274Y519166D01*
X126349Y519129D01*
X126478Y519073D01*
X126626Y518980D01*
X126812Y518869D01*
X126978Y518721D01*
X127145Y518573D01*
X127293Y518388D01*
X127311Y518369D01*
X127348Y518295D01*
X127404Y518203D01*
X127497Y518073D01*
X127571Y517888D01*
X127645Y517703D01*
X127737Y517481D01*
X127793Y517240D01*
Y517221D01*
X127811Y517147D01*
X127830Y517036D01*
X127848Y516888D01*
Y516666D01*
X127867Y516407D01*
X127886Y516092D01*
Y515703D01*
Y510000D01*
X126312D01*
Y515629D01*
Y515648D01*
Y515666D01*
Y515796D01*
Y515962D01*
X126293Y516166D01*
X126274Y516407D01*
X126237Y516647D01*
X126182Y516870D01*
X126126Y517073D01*
Y517092D01*
X126089Y517147D01*
X126034Y517240D01*
X125978Y517351D01*
X125886Y517462D01*
X125775Y517592D01*
X125626Y517721D01*
X125460Y517832D01*
X125441Y517851D01*
X125386Y517888D01*
X125275Y517925D01*
X125145Y517981D01*
X124997Y518036D01*
X124812Y518092D01*
X124590Y518110D01*
X124367Y518129D01*
X124275D01*
X124201Y518110D01*
X124016Y518092D01*
X123775Y518055D01*
X123516Y517962D01*
X123219Y517851D01*
X122923Y517703D01*
X122645Y517481D01*
X122608Y517444D01*
X122534Y517351D01*
X122479Y517277D01*
X122423Y517184D01*
X122349Y517073D01*
X122294Y516944D01*
X122219Y516796D01*
X122145Y516610D01*
X122090Y516407D01*
X122034Y516185D01*
X121997Y515944D01*
X121960Y515685D01*
X121923Y515370D01*
Y515055D01*
Y510000D01*
X120349D01*
Y519295D01*
X121756D01*
Y517962D01*
X121775Y517981D01*
X121812Y518036D01*
X121868Y518110D01*
X121942Y518203D01*
X122053Y518314D01*
X122182Y518444D01*
X122331Y518592D01*
X122516Y518740D01*
X122701Y518869D01*
X122923Y519018D01*
X123164Y519147D01*
X123423Y519258D01*
X123719Y519351D01*
X124016Y519425D01*
X124349Y519481D01*
X124701Y519499D01*
X124849D01*
X124997Y519481D01*
D02*
G37*
G36*
X118090D02*
X118294Y519444D01*
X118535Y519369D01*
X118794Y519277D01*
X119090Y519147D01*
X119405Y518980D01*
X118831Y517536D01*
X118812Y517555D01*
X118738Y517592D01*
X118627Y517647D01*
X118479Y517703D01*
X118312Y517758D01*
X118109Y517814D01*
X117905Y517851D01*
X117701Y517870D01*
X117609D01*
X117516Y517851D01*
X117387Y517832D01*
X117257Y517795D01*
X117090Y517740D01*
X116924Y517666D01*
X116776Y517555D01*
X116757Y517536D01*
X116701Y517499D01*
X116646Y517425D01*
X116553Y517333D01*
X116461Y517203D01*
X116368Y517055D01*
X116276Y516888D01*
X116201Y516684D01*
X116183Y516647D01*
X116165Y516536D01*
X116127Y516370D01*
X116072Y516147D01*
X116016Y515870D01*
X115979Y515555D01*
X115961Y515222D01*
X115942Y514851D01*
Y510000D01*
X114368D01*
Y519295D01*
X115794D01*
Y517888D01*
X115813Y517907D01*
X115887Y518036D01*
X115979Y518203D01*
X116127Y518406D01*
X116276Y518610D01*
X116442Y518832D01*
X116609Y519018D01*
X116776Y519166D01*
X116794Y519184D01*
X116850Y519221D01*
X116961Y519277D01*
X117072Y519332D01*
X117220Y519388D01*
X117405Y519444D01*
X117590Y519481D01*
X117794Y519499D01*
X117923D01*
X118090Y519481D01*
D02*
G37*
G36*
X11165Y510000D02*
X9592D01*
Y519295D01*
X11165D01*
Y510000D01*
D02*
G37*
G36*
X214469D02*
X213062D01*
Y511352D01*
X213043Y511333D01*
X213006Y511278D01*
X212951Y511204D01*
X212858Y511111D01*
X212747Y511000D01*
X212617Y510852D01*
X212469Y510722D01*
X212284Y510574D01*
X212080Y510426D01*
X211858Y510296D01*
X211618Y510167D01*
X211358Y510037D01*
X211062Y509944D01*
X210766Y509870D01*
X210432Y509815D01*
X210099Y509796D01*
X209970D01*
X209803Y509815D01*
X209599Y509833D01*
X209359Y509870D01*
X209099Y509926D01*
X208840Y510000D01*
X208562Y510111D01*
X208525Y510130D01*
X208451Y510167D01*
X208322Y510241D01*
X208173Y510333D01*
X207988Y510444D01*
X207822Y510574D01*
X207655Y510722D01*
X207507Y510889D01*
X207488Y510907D01*
X207451Y510981D01*
X207396Y511074D01*
X207322Y511222D01*
X207229Y511389D01*
X207155Y511592D01*
X207081Y511815D01*
X207025Y512055D01*
Y512074D01*
X207007Y512148D01*
X206988Y512259D01*
Y512407D01*
X206970Y512629D01*
X206951Y512870D01*
X206933Y513185D01*
Y513537D01*
Y519295D01*
X208507D01*
Y514129D01*
Y514111D01*
Y514074D01*
Y514018D01*
Y513926D01*
Y513722D01*
X208525Y513463D01*
Y513185D01*
X208544Y512907D01*
X208562Y512666D01*
X208599Y512463D01*
Y512444D01*
X208636Y512370D01*
X208673Y512259D01*
X208729Y512111D01*
X208822Y511963D01*
X208933Y511796D01*
X209062Y511648D01*
X209229Y511500D01*
X209247Y511481D01*
X209321Y511444D01*
X209414Y511389D01*
X209562Y511333D01*
X209729Y511259D01*
X209932Y511204D01*
X210155Y511166D01*
X210414Y511148D01*
X210544D01*
X210673Y511166D01*
X210840Y511185D01*
X211043Y511241D01*
X211266Y511296D01*
X211506Y511389D01*
X211747Y511500D01*
X211784Y511518D01*
X211858Y511574D01*
X211969Y511648D01*
X212099Y511759D01*
X212247Y511907D01*
X212395Y512074D01*
X212525Y512259D01*
X212636Y512481D01*
X212654Y512518D01*
X212673Y512592D01*
X212710Y512741D01*
X212766Y512944D01*
X212821Y513203D01*
X212858Y513518D01*
X212877Y513889D01*
X212895Y514314D01*
Y519295D01*
X214469D01*
Y510000D01*
D02*
G37*
G36*
X26645Y519481D02*
X26793Y519462D01*
X26979Y519425D01*
X27182Y519388D01*
X27423Y519332D01*
X27645Y519277D01*
X27905Y519184D01*
X28145Y519092D01*
X28405Y518962D01*
X28664Y518814D01*
X28923Y518647D01*
X29164Y518444D01*
X29386Y518221D01*
X29404Y518203D01*
X29441Y518166D01*
X29497Y518092D01*
X29571Y517981D01*
X29664Y517851D01*
X29756Y517703D01*
X29867Y517518D01*
X29978Y517295D01*
X30089Y517055D01*
X30201Y516796D01*
X30293Y516499D01*
X30386Y516185D01*
X30460Y515833D01*
X30515Y515462D01*
X30552Y515074D01*
X30571Y514648D01*
Y514629D01*
Y514555D01*
Y514426D01*
X30552Y514240D01*
X23609D01*
Y514222D01*
Y514166D01*
X23627Y514092D01*
Y513981D01*
X23646Y513851D01*
X23683Y513703D01*
X23738Y513370D01*
X23849Y513000D01*
X23997Y512592D01*
X24201Y512222D01*
X24460Y511889D01*
X24479D01*
X24497Y511852D01*
X24609Y511759D01*
X24775Y511629D01*
X24997Y511500D01*
X25294Y511352D01*
X25627Y511222D01*
X25997Y511129D01*
X26201Y511111D01*
X26423Y511092D01*
X26571D01*
X26738Y511111D01*
X26942Y511148D01*
X27164Y511204D01*
X27423Y511278D01*
X27664Y511389D01*
X27905Y511537D01*
X27923Y511555D01*
X28016Y511629D01*
X28127Y511741D01*
X28256Y511889D01*
X28405Y512092D01*
X28571Y512352D01*
X28738Y512648D01*
X28886Y513000D01*
X30515Y512796D01*
Y512777D01*
X30497Y512741D01*
X30478Y512666D01*
X30441Y512555D01*
X30386Y512444D01*
X30330Y512296D01*
X30182Y511981D01*
X29997Y511629D01*
X29738Y511259D01*
X29441Y510907D01*
X29071Y510574D01*
X29053D01*
X29016Y510537D01*
X28960Y510500D01*
X28886Y510444D01*
X28775Y510389D01*
X28664Y510333D01*
X28516Y510259D01*
X28349Y510185D01*
X28164Y510111D01*
X27979Y510037D01*
X27516Y509926D01*
X26997Y509833D01*
X26423Y509796D01*
X26219D01*
X26090Y509815D01*
X25923Y509833D01*
X25720Y509870D01*
X25497Y509907D01*
X25257Y509944D01*
X24738Y510093D01*
X24460Y510204D01*
X24201Y510315D01*
X23923Y510463D01*
X23664Y510630D01*
X23424Y510815D01*
X23183Y511037D01*
X23164Y511055D01*
X23127Y511092D01*
X23072Y511166D01*
X22998Y511278D01*
X22905Y511407D01*
X22812Y511555D01*
X22701Y511741D01*
X22590Y511944D01*
X22479Y512185D01*
X22368Y512444D01*
X22276Y512741D01*
X22183Y513055D01*
X22109Y513388D01*
X22053Y513759D01*
X22016Y514148D01*
X21998Y514555D01*
Y514574D01*
Y514666D01*
Y514777D01*
X22016Y514944D01*
X22035Y515148D01*
X22053Y515370D01*
X22090Y515629D01*
X22146Y515888D01*
X22294Y516481D01*
X22387Y516777D01*
X22498Y517092D01*
X22646Y517388D01*
X22812Y517666D01*
X22998Y517944D01*
X23201Y518203D01*
X23220Y518221D01*
X23257Y518258D01*
X23331Y518314D01*
X23424Y518406D01*
X23535Y518499D01*
X23683Y518610D01*
X23849Y518740D01*
X24053Y518851D01*
X24257Y518980D01*
X24497Y519092D01*
X24757Y519203D01*
X25034Y519295D01*
X25331Y519388D01*
X25645Y519444D01*
X25979Y519481D01*
X26331Y519499D01*
X26516D01*
X26645Y519481D01*
D02*
G37*
G36*
X149661D02*
X149939Y519462D01*
X150235Y519425D01*
X150550Y519351D01*
X150883Y519277D01*
X151198Y519166D01*
X151216D01*
X151235Y519147D01*
X151327Y519110D01*
X151476Y519036D01*
X151661Y518943D01*
X151865Y518814D01*
X152068Y518666D01*
X152253Y518499D01*
X152420Y518314D01*
X152438Y518295D01*
X152476Y518221D01*
X152550Y518092D01*
X152642Y517944D01*
X152735Y517721D01*
X152827Y517481D01*
X152901Y517203D01*
X152976Y516888D01*
X151439Y516684D01*
Y516721D01*
X151420Y516796D01*
X151383Y516925D01*
X151327Y517092D01*
X151235Y517258D01*
X151124Y517444D01*
X150994Y517629D01*
X150809Y517795D01*
X150791Y517814D01*
X150716Y517851D01*
X150605Y517925D01*
X150439Y517999D01*
X150253Y518073D01*
X150013Y518147D01*
X149717Y518184D01*
X149402Y518203D01*
X149217D01*
X149031Y518184D01*
X148791Y518166D01*
X148550Y518110D01*
X148291Y518055D01*
X148050Y517962D01*
X147846Y517832D01*
X147828Y517814D01*
X147772Y517777D01*
X147698Y517703D01*
X147624Y517592D01*
X147532Y517481D01*
X147458Y517333D01*
X147402Y517166D01*
X147383Y516999D01*
Y516981D01*
Y516944D01*
X147402Y516888D01*
Y516814D01*
X147458Y516629D01*
X147569Y516444D01*
X147587Y516425D01*
X147606Y516407D01*
X147643Y516351D01*
X147717Y516296D01*
X147791Y516240D01*
X147902Y516166D01*
X148032Y516110D01*
X148180Y516036D01*
X148198D01*
X148235Y516018D01*
X148309Y515999D01*
X148439Y515944D01*
X148624Y515888D01*
X148865Y515833D01*
X149013Y515777D01*
X149180Y515740D01*
X149365Y515685D01*
X149568Y515629D01*
X149587D01*
X149642Y515611D01*
X149735Y515592D01*
X149846Y515555D01*
X149976Y515518D01*
X150142Y515481D01*
X150494Y515370D01*
X150883Y515259D01*
X151272Y515129D01*
X151624Y515000D01*
X151772Y514944D01*
X151902Y514888D01*
X151938Y514870D01*
X152013Y514833D01*
X152124Y514777D01*
X152290Y514685D01*
X152457Y514574D01*
X152624Y514426D01*
X152790Y514259D01*
X152938Y514074D01*
X152957Y514055D01*
X152994Y513981D01*
X153068Y513870D01*
X153142Y513703D01*
X153198Y513500D01*
X153272Y513277D01*
X153309Y513018D01*
X153327Y512722D01*
Y512685D01*
Y512592D01*
X153309Y512444D01*
X153272Y512240D01*
X153216Y512018D01*
X153124Y511778D01*
X153013Y511500D01*
X152864Y511241D01*
X152846Y511204D01*
X152772Y511129D01*
X152679Y511000D01*
X152531Y510852D01*
X152327Y510685D01*
X152105Y510500D01*
X151846Y510333D01*
X151531Y510167D01*
X151513D01*
X151494Y510148D01*
X151383Y510111D01*
X151198Y510056D01*
X150957Y509981D01*
X150661Y509907D01*
X150328Y509852D01*
X149976Y509815D01*
X149568Y509796D01*
X149402D01*
X149272Y509815D01*
X149124D01*
X148939Y509833D01*
X148754Y509852D01*
X148550Y509889D01*
X148106Y509981D01*
X147643Y510111D01*
X147198Y510296D01*
X146995Y510407D01*
X146809Y510537D01*
X146791Y510555D01*
X146772Y510574D01*
X146661Y510685D01*
X146495Y510852D01*
X146309Y511111D01*
X146106Y511426D01*
X145902Y511796D01*
X145736Y512259D01*
X145606Y512777D01*
X147161Y513018D01*
Y513000D01*
Y512981D01*
X147198Y512870D01*
X147235Y512685D01*
X147309Y512481D01*
X147402Y512259D01*
X147513Y512018D01*
X147680Y511778D01*
X147883Y511574D01*
X147920Y511555D01*
X147994Y511500D01*
X148143Y511426D01*
X148328Y511333D01*
X148568Y511241D01*
X148846Y511166D01*
X149180Y511111D01*
X149568Y511092D01*
X149754D01*
X149939Y511111D01*
X150180Y511148D01*
X150439Y511204D01*
X150716Y511278D01*
X150957Y511370D01*
X151179Y511518D01*
X151198Y511537D01*
X151272Y511592D01*
X151346Y511685D01*
X151457Y511815D01*
X151550Y511963D01*
X151642Y512148D01*
X151698Y512333D01*
X151716Y512555D01*
Y512574D01*
Y512648D01*
X151698Y512741D01*
X151661Y512870D01*
X151605Y513000D01*
X151513Y513129D01*
X151402Y513277D01*
X151235Y513388D01*
X151216Y513407D01*
X151161Y513426D01*
X151068Y513481D01*
X150920Y513537D01*
X150698Y513611D01*
X150568Y513666D01*
X150420Y513703D01*
X150253Y513759D01*
X150068Y513814D01*
X149865Y513870D01*
X149624Y513926D01*
X149605D01*
X149550Y513944D01*
X149457Y513963D01*
X149346Y514000D01*
X149198Y514037D01*
X149031Y514092D01*
X148680Y514185D01*
X148272Y514314D01*
X147883Y514426D01*
X147513Y514555D01*
X147346Y514629D01*
X147217Y514685D01*
X147180Y514703D01*
X147106Y514740D01*
X146995Y514814D01*
X146847Y514907D01*
X146680Y515037D01*
X146513Y515185D01*
X146347Y515351D01*
X146198Y515555D01*
X146180Y515574D01*
X146143Y515648D01*
X146087Y515777D01*
X146032Y515925D01*
X145976Y516110D01*
X145921Y516333D01*
X145884Y516555D01*
X145865Y516814D01*
Y516851D01*
Y516925D01*
X145884Y517036D01*
X145902Y517203D01*
X145939Y517370D01*
X145976Y517573D01*
X146050Y517758D01*
X146143Y517962D01*
X146161Y517981D01*
X146198Y518055D01*
X146254Y518147D01*
X146347Y518277D01*
X146458Y518406D01*
X146587Y518573D01*
X146735Y518721D01*
X146920Y518851D01*
X146939Y518869D01*
X146995Y518888D01*
X147069Y518943D01*
X147180Y518999D01*
X147328Y519073D01*
X147494Y519147D01*
X147698Y519221D01*
X147920Y519295D01*
X147957Y519314D01*
X148032Y519332D01*
X148161Y519369D01*
X148328Y519406D01*
X148532Y519444D01*
X148754Y519462D01*
X149013Y519499D01*
X149457D01*
X149661Y519481D01*
D02*
G37*
G36*
X99481D02*
X99592D01*
X99740Y519462D01*
X100092Y519406D01*
X100481Y519314D01*
X100888Y519166D01*
X101296Y518980D01*
X101685Y518721D01*
X101703D01*
X101721Y518684D01*
X101833Y518573D01*
X101999Y518406D01*
X102203Y518166D01*
X102407Y517870D01*
X102610Y517499D01*
X102795Y517073D01*
X102925Y516573D01*
X101388Y516333D01*
Y516351D01*
X101370Y516370D01*
X101351Y516481D01*
X101296Y516647D01*
X101203Y516851D01*
X101110Y517073D01*
X100962Y517314D01*
X100796Y517536D01*
X100611Y517721D01*
X100592Y517740D01*
X100518Y517795D01*
X100388Y517870D01*
X100240Y517962D01*
X100036Y518055D01*
X99814Y518129D01*
X99555Y518184D01*
X99277Y518203D01*
X99166D01*
X99074Y518184D01*
X98870Y518166D01*
X98592Y518092D01*
X98296Y517999D01*
X97963Y517851D01*
X97648Y517629D01*
X97500Y517499D01*
X97352Y517351D01*
Y517333D01*
X97315Y517314D01*
X97277Y517258D01*
X97240Y517184D01*
X97185Y517092D01*
X97111Y516981D01*
X97055Y516851D01*
X96981Y516703D01*
X96907Y516518D01*
X96852Y516314D01*
X96778Y516092D01*
X96722Y515851D01*
X96685Y515592D01*
X96648Y515296D01*
X96611Y514981D01*
Y514648D01*
Y514629D01*
Y514574D01*
Y514463D01*
X96629Y514351D01*
Y514185D01*
X96648Y514018D01*
X96704Y513611D01*
X96778Y513166D01*
X96907Y512703D01*
X97074Y512296D01*
X97185Y512092D01*
X97315Y511926D01*
X97352Y511889D01*
X97444Y511796D01*
X97611Y511666D01*
X97815Y511518D01*
X98092Y511352D01*
X98407Y511222D01*
X98777Y511129D01*
X98981Y511111D01*
X99185Y511092D01*
X99222D01*
X99333Y511111D01*
X99518Y511129D01*
X99722Y511166D01*
X99962Y511222D01*
X100222Y511333D01*
X100481Y511463D01*
X100722Y511648D01*
X100759Y511666D01*
X100814Y511759D01*
X100925Y511889D01*
X101055Y512092D01*
X101185Y512333D01*
X101333Y512629D01*
X101444Y513000D01*
X101518Y513407D01*
X103073Y513203D01*
Y513185D01*
X103055Y513129D01*
X103036Y513055D01*
X103018Y512944D01*
X102981Y512796D01*
X102944Y512648D01*
X102814Y512277D01*
X102647Y511889D01*
X102407Y511463D01*
X102110Y511055D01*
X101944Y510870D01*
X101758Y510685D01*
X101740Y510667D01*
X101703Y510648D01*
X101647Y510611D01*
X101573Y510555D01*
X101481Y510481D01*
X101351Y510407D01*
X101203Y510333D01*
X101055Y510241D01*
X100685Y510074D01*
X100240Y509944D01*
X99759Y509833D01*
X99481Y509815D01*
X99203Y509796D01*
X99018D01*
X98889Y509815D01*
X98722Y509833D01*
X98537Y509870D01*
X98333Y509907D01*
X98111Y509944D01*
X97611Y510093D01*
X97370Y510204D01*
X97111Y510315D01*
X96852Y510463D01*
X96611Y510630D01*
X96370Y510815D01*
X96148Y511037D01*
X96130Y511055D01*
X96093Y511092D01*
X96037Y511166D01*
X95963Y511259D01*
X95889Y511389D01*
X95778Y511555D01*
X95685Y511741D01*
X95574Y511944D01*
X95463Y512185D01*
X95370Y512463D01*
X95259Y512741D01*
X95185Y513074D01*
X95111Y513407D01*
X95056Y513796D01*
X95019Y514185D01*
X95000Y514611D01*
Y514629D01*
Y514685D01*
Y514759D01*
Y514870D01*
X95019Y515000D01*
Y515148D01*
X95037Y515314D01*
X95056Y515499D01*
X95111Y515907D01*
X95204Y516351D01*
X95315Y516796D01*
X95481Y517240D01*
Y517258D01*
X95500Y517295D01*
X95537Y517351D01*
X95574Y517425D01*
X95685Y517629D01*
X95852Y517870D01*
X96074Y518147D01*
X96333Y518425D01*
X96648Y518703D01*
X97000Y518925D01*
X97018D01*
X97055Y518943D01*
X97111Y518980D01*
X97185Y519018D01*
X97277Y519055D01*
X97389Y519110D01*
X97666Y519221D01*
X97981Y519314D01*
X98370Y519406D01*
X98777Y519481D01*
X99222Y519499D01*
X99370D01*
X99481Y519481D01*
D02*
G37*
%LPC*%
G36*
X200767Y518203D02*
X200656D01*
X200563Y518184D01*
X200359Y518166D01*
X200082Y518092D01*
X199767Y517981D01*
X199434Y517832D01*
X199119Y517610D01*
X198952Y517462D01*
X198804Y517314D01*
Y517295D01*
X198767Y517277D01*
X198730Y517221D01*
X198674Y517147D01*
X198619Y517055D01*
X198563Y516944D01*
X198489Y516796D01*
X198415Y516647D01*
X198341Y516462D01*
X198267Y516277D01*
X198211Y516055D01*
X198156Y515814D01*
X198100Y515555D01*
X198063Y515277D01*
X198045Y514962D01*
X198026Y514648D01*
Y514629D01*
Y514574D01*
Y514481D01*
X198045Y514351D01*
Y514203D01*
X198063Y514037D01*
X198119Y513648D01*
X198211Y513203D01*
X198360Y512759D01*
X198545Y512333D01*
X198674Y512148D01*
X198804Y511963D01*
X198823D01*
X198841Y511926D01*
X198952Y511833D01*
X199119Y511685D01*
X199341Y511537D01*
X199619Y511370D01*
X199952Y511222D01*
X200341Y511129D01*
X200545Y511111D01*
X200767Y511092D01*
X200878D01*
X200970Y511111D01*
X201174Y511148D01*
X201452Y511204D01*
X201748Y511315D01*
X202082Y511463D01*
X202396Y511685D01*
X202563Y511833D01*
X202711Y511981D01*
X202730Y512000D01*
X202748Y512018D01*
X202785Y512074D01*
X202841Y512148D01*
X202896Y512240D01*
X202970Y512352D01*
X203044Y512500D01*
X203118Y512648D01*
X203193Y512833D01*
X203248Y513037D01*
X203322Y513259D01*
X203378Y513500D01*
X203433Y513777D01*
X203470Y514055D01*
X203507Y514370D01*
Y514703D01*
Y514722D01*
Y514777D01*
Y514870D01*
X203489Y514981D01*
Y515129D01*
X203470Y515296D01*
X203415Y515685D01*
X203322Y516092D01*
X203174Y516536D01*
X202970Y516944D01*
X202859Y517147D01*
X202711Y517314D01*
Y517333D01*
X202674Y517351D01*
X202563Y517462D01*
X202396Y517592D01*
X202174Y517758D01*
X201896Y517925D01*
X201563Y518073D01*
X201193Y518166D01*
X200989Y518184D01*
X200767Y518203D01*
D02*
G37*
G36*
X179917D02*
X179806D01*
X179732Y518184D01*
X179528Y518166D01*
X179288Y518110D01*
X178991Y518018D01*
X178676Y517888D01*
X178380Y517703D01*
X178084Y517462D01*
X178047Y517425D01*
X177973Y517333D01*
X177843Y517166D01*
X177714Y516944D01*
X177565Y516684D01*
X177436Y516351D01*
X177325Y515962D01*
X177269Y515536D01*
X182472D01*
Y515555D01*
Y515592D01*
X182454Y515648D01*
Y515722D01*
X182417Y515944D01*
X182361Y516185D01*
X182269Y516481D01*
X182176Y516759D01*
X182028Y517036D01*
X181861Y517277D01*
Y517295D01*
X181824Y517314D01*
X181732Y517425D01*
X181565Y517573D01*
X181343Y517740D01*
X181065Y517907D01*
X180732Y518055D01*
X180343Y518166D01*
X180139Y518184D01*
X179917Y518203D01*
D02*
G37*
G36*
X134126D02*
X134015D01*
X133940Y518184D01*
X133737Y518166D01*
X133496Y518110D01*
X133200Y518018D01*
X132885Y517888D01*
X132589Y517703D01*
X132292Y517462D01*
X132255Y517425D01*
X132181Y517333D01*
X132052Y517166D01*
X131922Y516944D01*
X131774Y516684D01*
X131644Y516351D01*
X131533Y515962D01*
X131478Y515536D01*
X136681D01*
Y515555D01*
Y515592D01*
X136662Y515648D01*
Y515722D01*
X136625Y515944D01*
X136570Y516185D01*
X136477Y516481D01*
X136385Y516759D01*
X136236Y517036D01*
X136070Y517277D01*
Y517295D01*
X136033Y517314D01*
X135940Y517425D01*
X135773Y517573D01*
X135551Y517740D01*
X135274Y517907D01*
X134940Y518055D01*
X134551Y518166D01*
X134348Y518184D01*
X134126Y518203D01*
D02*
G37*
G36*
X166122Y514666D02*
X166104D01*
X166085Y514648D01*
X166030Y514629D01*
X165956Y514611D01*
X165863Y514574D01*
X165752Y514537D01*
X165622Y514500D01*
X165474Y514463D01*
X165308Y514407D01*
X165104Y514370D01*
X164900Y514314D01*
X164659Y514259D01*
X164400Y514203D01*
X164141Y514148D01*
X163845Y514111D01*
X163530Y514055D01*
X163493D01*
X163382Y514037D01*
X163197Y514000D01*
X162993Y513963D01*
X162771Y513926D01*
X162549Y513870D01*
X162345Y513814D01*
X162160Y513740D01*
X162141D01*
X162086Y513703D01*
X162012Y513666D01*
X161938Y513611D01*
X161715Y513463D01*
X161530Y513240D01*
Y513222D01*
X161493Y513185D01*
X161475Y513111D01*
X161437Y513018D01*
X161401Y512907D01*
X161364Y512796D01*
X161345Y512648D01*
X161326Y512500D01*
Y512481D01*
Y512389D01*
X161345Y512277D01*
X161382Y512129D01*
X161437Y511963D01*
X161530Y511796D01*
X161641Y511611D01*
X161789Y511444D01*
X161808Y511426D01*
X161882Y511389D01*
X161993Y511315D01*
X162141Y511241D01*
X162345Y511166D01*
X162586Y511092D01*
X162863Y511055D01*
X163197Y511037D01*
X163345D01*
X163530Y511055D01*
X163734Y511092D01*
X163993Y511129D01*
X164252Y511204D01*
X164530Y511296D01*
X164808Y511426D01*
X164845Y511444D01*
X164919Y511500D01*
X165048Y511592D01*
X165196Y511722D01*
X165363Y511870D01*
X165548Y512055D01*
X165696Y512277D01*
X165844Y512518D01*
X165863Y512537D01*
X165882Y512611D01*
X165919Y512741D01*
X165974Y512907D01*
X166030Y513129D01*
X166067Y513388D01*
X166085Y513703D01*
X166104Y514074D01*
X166122Y514666D01*
D02*
G37*
G36*
X108184Y518203D02*
X108073D01*
X107980Y518184D01*
X107776Y518166D01*
X107499Y518092D01*
X107184Y517981D01*
X106851Y517832D01*
X106536Y517610D01*
X106369Y517462D01*
X106221Y517314D01*
Y517295D01*
X106184Y517277D01*
X106147Y517221D01*
X106091Y517147D01*
X106036Y517055D01*
X105980Y516944D01*
X105906Y516796D01*
X105832Y516647D01*
X105758Y516462D01*
X105684Y516277D01*
X105628Y516055D01*
X105573Y515814D01*
X105517Y515555D01*
X105480Y515277D01*
X105462Y514962D01*
X105443Y514648D01*
Y514629D01*
Y514574D01*
Y514481D01*
X105462Y514351D01*
Y514203D01*
X105480Y514037D01*
X105536Y513648D01*
X105628Y513203D01*
X105777Y512759D01*
X105962Y512333D01*
X106091Y512148D01*
X106221Y511963D01*
X106240D01*
X106258Y511926D01*
X106369Y511833D01*
X106536Y511685D01*
X106758Y511537D01*
X107036Y511370D01*
X107369Y511222D01*
X107758Y511129D01*
X107962Y511111D01*
X108184Y511092D01*
X108295D01*
X108387Y511111D01*
X108591Y511148D01*
X108869Y511204D01*
X109165Y511315D01*
X109499Y511463D01*
X109813Y511685D01*
X109980Y511833D01*
X110128Y511981D01*
X110147Y512000D01*
X110165Y512018D01*
X110202Y512074D01*
X110258Y512148D01*
X110313Y512240D01*
X110387Y512352D01*
X110461Y512500D01*
X110535Y512648D01*
X110610Y512833D01*
X110665Y513037D01*
X110739Y513259D01*
X110795Y513500D01*
X110850Y513777D01*
X110887Y514055D01*
X110924Y514370D01*
Y514703D01*
Y514722D01*
Y514777D01*
Y514870D01*
X110906Y514981D01*
Y515129D01*
X110887Y515296D01*
X110832Y515685D01*
X110739Y516092D01*
X110591Y516536D01*
X110387Y516944D01*
X110276Y517147D01*
X110128Y517314D01*
Y517333D01*
X110091Y517351D01*
X109980Y517462D01*
X109813Y517592D01*
X109591Y517758D01*
X109313Y517925D01*
X108980Y518073D01*
X108610Y518166D01*
X108406Y518184D01*
X108184Y518203D01*
D02*
G37*
G36*
X230375D02*
X230282D01*
X230208Y518184D01*
X230005Y518166D01*
X229764Y518092D01*
X229486Y517999D01*
X229190Y517832D01*
X228894Y517629D01*
X228745Y517481D01*
X228616Y517333D01*
Y517314D01*
X228579Y517295D01*
X228560Y517240D01*
X228505Y517166D01*
X228449Y517073D01*
X228394Y516962D01*
X228338Y516833D01*
X228264Y516684D01*
X228190Y516499D01*
X228134Y516296D01*
X228079Y516073D01*
X228023Y515833D01*
X227986Y515574D01*
X227949Y515277D01*
X227912Y514962D01*
Y514629D01*
Y514611D01*
Y514555D01*
Y514463D01*
X227931Y514333D01*
Y514185D01*
X227949Y514018D01*
X228005Y513629D01*
X228097Y513203D01*
X228227Y512759D01*
X228412Y512333D01*
X228523Y512148D01*
X228653Y511963D01*
X228671D01*
X228690Y511926D01*
X228782Y511833D01*
X228949Y511685D01*
X229153Y511537D01*
X229412Y511370D01*
X229727Y511222D01*
X230060Y511129D01*
X230245Y511111D01*
X230430Y511092D01*
X230523D01*
X230597Y511111D01*
X230801Y511129D01*
X231041Y511204D01*
X231319Y511296D01*
X231616Y511444D01*
X231912Y511648D01*
X232060Y511778D01*
X232190Y511926D01*
Y511944D01*
X232227Y511963D01*
X232264Y512018D01*
X232301Y512092D01*
X232356Y512185D01*
X232430Y512277D01*
X232486Y512426D01*
X232560Y512574D01*
X232634Y512741D01*
X232689Y512926D01*
X232764Y513148D01*
X232819Y513370D01*
X232856Y513629D01*
X232893Y513889D01*
X232930Y514185D01*
Y514500D01*
Y514518D01*
Y514592D01*
Y514685D01*
X232912Y514814D01*
Y514962D01*
X232893Y515148D01*
X232875Y515351D01*
X232838Y515574D01*
X232745Y516018D01*
X232615Y516481D01*
X232430Y516925D01*
X232319Y517110D01*
X232190Y517295D01*
Y517314D01*
X232152Y517333D01*
X232060Y517444D01*
X231893Y517592D01*
X231689Y517758D01*
X231430Y517925D01*
X231115Y518055D01*
X230764Y518166D01*
X230578Y518184D01*
X230375Y518203D01*
D02*
G37*
G36*
X26349D02*
X26238D01*
X26164Y518184D01*
X25960Y518166D01*
X25720Y518110D01*
X25423Y518018D01*
X25108Y517888D01*
X24812Y517703D01*
X24516Y517462D01*
X24479Y517425D01*
X24405Y517333D01*
X24275Y517166D01*
X24146Y516944D01*
X23997Y516684D01*
X23868Y516351D01*
X23757Y515962D01*
X23701Y515536D01*
X28904D01*
Y515555D01*
Y515592D01*
X28886Y515648D01*
Y515722D01*
X28849Y515944D01*
X28793Y516185D01*
X28701Y516481D01*
X28608Y516759D01*
X28460Y517036D01*
X28293Y517277D01*
Y517295D01*
X28256Y517314D01*
X28164Y517425D01*
X27997Y517573D01*
X27775Y517740D01*
X27497Y517907D01*
X27164Y518055D01*
X26775Y518166D01*
X26571Y518184D01*
X26349Y518203D01*
D02*
G37*
%LPD*%
D15*
X330000Y0D02*
G03*
X362500Y37500I-2500J35000D01*
G01*
X0Y35000D02*
G03*
X35000Y0I35000J0D01*
G01*
Y450000D02*
G03*
X0Y415000I0J-35000D01*
G01*
X362500Y415000D02*
G03*
X325000Y450000I-36250J-1250D01*
G01*
X-27540Y0D02*
X0D01*
X-27540Y450000D02*
X0D01*
X-25000Y0D02*
Y181324D01*
Y260548D02*
Y450000D01*
Y0D02*
X-19920Y15240D01*
X-30080D02*
X-25000Y0D01*
X-30080Y434760D02*
X-25000Y450000D01*
X-19920Y434760D01*
X362500Y462500D02*
Y492540D01*
X0Y452500D02*
Y492540D01*
X216798Y490000D02*
X362500D01*
X0D02*
X137573D01*
X347260Y495080D02*
X362500Y490000D01*
X347260Y484920D02*
X362500Y490000D01*
X0D02*
X15240Y484920D01*
X0Y490000D02*
X15240Y495080D01*
X362500Y37500D02*
Y415000D01*
X35000Y450000D02*
X325000D01*
X35000Y0D02*
X330000D01*
X0Y35000D02*
Y415000D01*
Y0D02*
Y4998D01*
X2499D01*
X3332Y4165D01*
Y2499D01*
X2499Y1666D01*
X0D01*
X8331Y4165D02*
X7498Y4998D01*
X5831D01*
X4998Y4165D01*
Y833D01*
X5831Y0D01*
X7498D01*
X8331Y833D01*
X9997Y4998D02*
Y0D01*
X12496D01*
X13329Y833D01*
Y1666D01*
X12496Y2499D01*
X9997D01*
X12496D01*
X13329Y3332D01*
Y4165D01*
X12496Y4998D01*
X9997D01*
X23326D02*
X19993D01*
Y0D01*
X23326D01*
X19993Y2499D02*
X21660D01*
X28324Y4998D02*
Y0D01*
X25825D01*
X24992Y833D01*
Y2499D01*
X25825Y3332D01*
X28324D01*
X31656Y-1666D02*
X32489D01*
X33322Y-833D01*
Y3332D01*
X30823D01*
X29990Y2499D01*
Y833D01*
X30823Y0D01*
X33322D01*
X37488D02*
X35822D01*
X34989Y833D01*
Y2499D01*
X35822Y3332D01*
X37488D01*
X38321Y2499D01*
Y1666D01*
X34989D01*
D42*
X-13319Y193005D02*
X-28554D01*
X-20937Y185387D01*
Y195544D01*
X-28554Y210779D02*
Y200623D01*
X-20937D01*
X-23476Y205701D01*
Y208240D01*
X-20937Y210779D01*
X-15859D01*
X-13319Y208240D01*
Y203162D01*
X-15859Y200623D01*
X-10780Y218397D02*
X-13319Y220936D01*
X-15859D01*
Y218397D01*
X-13319D01*
Y220936D01*
X-10780Y218397D01*
X-8241Y215858D01*
X-26015Y231093D02*
X-28554Y233632D01*
Y238710D01*
X-26015Y241249D01*
X-15859D01*
X-13319Y238710D01*
Y233632D01*
X-15859Y231093D01*
X-26015D01*
Y246328D02*
X-28554Y248867D01*
Y253945D01*
X-26015Y256485D01*
X-15859D01*
X-13319Y253945D01*
Y248867D01*
X-15859Y246328D01*
X-26015D01*
X141637Y491015D02*
X144177Y493554D01*
X149255D01*
X151794Y491015D01*
Y488476D01*
X149255Y485937D01*
X146716D01*
X149255D01*
X151794Y483398D01*
Y480858D01*
X149255Y478319D01*
X144177D01*
X141637Y480858D01*
X167029Y493554D02*
X161951Y491015D01*
X156873Y485937D01*
Y480858D01*
X159412Y478319D01*
X164490D01*
X167029Y480858D01*
Y483398D01*
X164490Y485937D01*
X156873D01*
X174647Y475780D02*
X177186Y478319D01*
Y480858D01*
X174647D01*
Y478319D01*
X177186D01*
X174647Y475780D01*
X172108Y473241D01*
X197499Y478319D02*
X187343D01*
X197499Y488476D01*
Y491015D01*
X194960Y493554D01*
X189882D01*
X187343Y491015D01*
X212735Y493554D02*
X202578D01*
Y485937D01*
X207656Y488476D01*
X210195D01*
X212735Y485937D01*
Y480858D01*
X210195Y478319D01*
X205117D01*
X202578Y480858D01*
D43*
X178601Y339050D02*
D03*
Y326350D02*
D03*
Y313650D02*
D03*
Y300950D02*
D03*
X246404D02*
D03*
Y313650D02*
D03*
Y326350D02*
D03*
Y339050D02*
D03*
M02*
