G04 Layer_Physical_Order=1*
G04 Layer_Color=255*
%FSLAX25Y25*%
%MOIN*%
G70*
G01*
G75*
%ADD10R,0.09000X0.02362*%
%ADD11R,0.04331X0.03937*%
%ADD12R,0.03150X0.07874*%
%ADD13R,0.03543X0.03150*%
%ADD14R,0.03937X0.03150*%
%ADD15C,0.01000*%
%ADD16C,0.06000*%
%ADD17C,0.05905*%
%ADD18R,0.05905X0.05905*%
%ADD19O,0.05905X0.11811*%
%ADD20C,0.03150*%
%ADD21O,0.14800X0.07400*%
%ADD22C,0.01968*%
G36*
X130839Y176913D02*
X132709Y176412D01*
X134497Y175671D01*
X136173Y174704D01*
X137708Y173525D01*
X139077Y172157D01*
X140255Y170622D01*
X141222Y168945D01*
X141963Y167157D01*
X142464Y165288D01*
X142717Y163369D01*
Y162402D01*
Y14764D01*
Y13796D01*
X142464Y11877D01*
X141963Y10008D01*
X141222Y8220D01*
X140255Y6544D01*
X139077Y5008D01*
X137708Y3640D01*
X136173Y2462D01*
X134497Y1494D01*
X132709Y753D01*
X130839Y253D01*
X128920Y0D01*
X13796D01*
X11877Y253D01*
X10008Y753D01*
X8220Y1494D01*
X6544Y2462D01*
X5008Y3640D01*
X3640Y5008D01*
X2462Y6544D01*
X1494Y8220D01*
X753Y10008D01*
X253Y11877D01*
X0Y13796D01*
Y14764D01*
Y162402D01*
Y163369D01*
X253Y165288D01*
X753Y167157D01*
X1494Y168945D01*
X2462Y170622D01*
X3640Y172157D01*
X5008Y173525D01*
X6544Y174704D01*
X8220Y175671D01*
X10008Y176412D01*
X11877Y176913D01*
X13796Y177165D01*
X128920D01*
X130839Y176913D01*
D02*
G37*
%LPC*%
G36*
X120878Y80819D02*
X115858D01*
Y80138D01*
X115936Y79748D01*
X116157Y79417D01*
X116488Y79196D01*
X116878Y79118D01*
X120878D01*
Y80819D01*
D02*
G37*
G36*
X6890Y120237D02*
X5962Y120115D01*
X5098Y119757D01*
X4356Y119187D01*
X3786Y118445D01*
X3429Y117581D01*
X3306Y116654D01*
X3429Y115726D01*
X3786Y114862D01*
X4356Y114120D01*
X5098Y113550D01*
X5962Y113192D01*
X6890Y113070D01*
X7817Y113192D01*
X8487Y113470D01*
X9821Y112136D01*
Y109423D01*
X9321Y109266D01*
X8681Y109757D01*
X7817Y110115D01*
X6890Y110237D01*
X5962Y110115D01*
X5098Y109757D01*
X4356Y109187D01*
X3786Y108445D01*
X3429Y107581D01*
X3306Y106653D01*
X3351Y106315D01*
X1175Y104139D01*
X932Y103776D01*
X847Y103347D01*
X847Y103346D01*
Y61024D01*
X847Y61024D01*
X932Y60594D01*
X1175Y60231D01*
X9049Y52357D01*
X9049Y52357D01*
X9413Y52113D01*
X9843Y52028D01*
X22501D01*
Y47672D01*
X21831Y47394D01*
X21089Y46825D01*
X20519Y46083D01*
X20161Y45219D01*
X20039Y44291D01*
Y38386D01*
X20161Y37458D01*
X20519Y36594D01*
X21089Y35852D01*
X21831Y35282D01*
X22695Y34924D01*
X23622Y34802D01*
X24550Y34924D01*
X25414Y35282D01*
X26156Y35852D01*
X26726Y36594D01*
X27084Y37458D01*
X27206Y38386D01*
Y44291D01*
X27084Y45219D01*
X26726Y46083D01*
X26156Y46825D01*
X25414Y47394D01*
X24744Y47672D01*
Y52028D01*
X26319D01*
Y51181D01*
X26510Y50722D01*
X26969Y50532D01*
X31300D01*
X31759Y50722D01*
X31949Y51181D01*
Y55118D01*
X31759Y55577D01*
X31300Y55768D01*
X29665D01*
Y63512D01*
X29992Y63839D01*
X62008D01*
X62008Y63839D01*
X62355Y63908D01*
X62652Y63759D01*
X62855Y63602D01*
Y54598D01*
X62528Y54271D01*
X46724D01*
X40980Y60015D01*
X40985Y60039D01*
X40862Y60658D01*
X40512Y61182D01*
X39988Y61532D01*
X39370Y61655D01*
X38752Y61532D01*
X38228Y61182D01*
X38008Y60852D01*
X37455Y60809D01*
X37430Y60818D01*
X37257Y61077D01*
X36601Y61515D01*
X36326Y61570D01*
Y59646D01*
X35826D01*
Y59146D01*
X33903D01*
X33957Y58872D01*
X34396Y58216D01*
X34705Y58009D01*
Y56138D01*
X33661D01*
X33271Y56060D01*
X32940Y55839D01*
X32719Y55508D01*
X32641Y55118D01*
Y53650D01*
X35826D01*
Y52650D01*
X32641D01*
Y51181D01*
X32719Y50791D01*
X32940Y50460D01*
X33129Y50334D01*
X33190Y49876D01*
X33163Y49755D01*
X33018Y49659D01*
X32580Y49003D01*
X32525Y48728D01*
X36535D01*
X36619Y48813D01*
X36619Y48813D01*
X36862Y49177D01*
X36948Y49606D01*
X36948Y49606D01*
Y50161D01*
X37992D01*
X38382Y50239D01*
X38713Y50460D01*
X38934Y50791D01*
X39011Y51181D01*
Y51269D01*
X39473Y51460D01*
X42905Y48029D01*
X42621Y47605D01*
X42266Y47752D01*
X41338Y47875D01*
X40411Y47752D01*
X39547Y47394D01*
X38805Y46825D01*
X38235Y46083D01*
X37877Y45219D01*
X37755Y44291D01*
Y38386D01*
X37877Y37458D01*
X38235Y36594D01*
X38805Y35852D01*
X39547Y35282D01*
X40217Y35005D01*
Y26575D01*
Y22082D01*
X39547Y21804D01*
X38805Y21235D01*
X38235Y20493D01*
X37877Y19628D01*
X37755Y18701D01*
Y12796D01*
X37877Y11868D01*
X38235Y11004D01*
X38805Y10262D01*
X39547Y9692D01*
X40411Y9334D01*
X41338Y9212D01*
X42266Y9334D01*
X43130Y9692D01*
X43872Y10262D01*
X44442Y11004D01*
X44800Y11868D01*
X44922Y12796D01*
Y18701D01*
X44800Y19628D01*
X44442Y20493D01*
X43872Y21235D01*
X43130Y21804D01*
X42460Y22082D01*
Y25453D01*
X43306D01*
X43307Y25453D01*
X43307Y25453D01*
X78602D01*
Y22082D01*
X77932Y21804D01*
X77190Y21235D01*
X76621Y20493D01*
X76263Y19628D01*
X76141Y18701D01*
Y12796D01*
X76263Y11868D01*
X76621Y11004D01*
X77190Y10262D01*
X77932Y9692D01*
X78797Y9334D01*
X79724Y9212D01*
X80651Y9334D01*
X81516Y9692D01*
X82258Y10262D01*
X82827Y11004D01*
X83185Y11868D01*
X83307Y12796D01*
Y18701D01*
X83185Y19628D01*
X82827Y20493D01*
X82258Y21235D01*
X81516Y21804D01*
X80846Y22082D01*
Y26438D01*
X117973D01*
Y22082D01*
X117302Y21804D01*
X116560Y21235D01*
X115991Y20493D01*
X115633Y19628D01*
X115511Y18701D01*
Y12796D01*
X115633Y11868D01*
X115991Y11004D01*
X116560Y10262D01*
X117302Y9692D01*
X118167Y9334D01*
X119094Y9212D01*
X120022Y9334D01*
X120886Y9692D01*
X121628Y10262D01*
X122197Y11004D01*
X122555Y11868D01*
X122678Y12796D01*
Y18701D01*
X122555Y19628D01*
X122197Y20493D01*
X121628Y21235D01*
X120886Y21804D01*
X120216Y22082D01*
Y27559D01*
Y35005D01*
X120886Y35282D01*
X121628Y35852D01*
X122197Y36594D01*
X122555Y37458D01*
X122678Y38386D01*
Y44291D01*
X122555Y45219D01*
X122197Y46083D01*
X121628Y46825D01*
X120886Y47394D01*
X120022Y47752D01*
X119094Y47875D01*
X118167Y47752D01*
X117302Y47394D01*
X116560Y46825D01*
X115991Y46083D01*
X115633Y45219D01*
X115511Y44291D01*
Y38386D01*
X115633Y37458D01*
X115991Y36594D01*
X116560Y35852D01*
X117302Y35282D01*
X117973Y35005D01*
Y28681D01*
X80846D01*
Y35005D01*
X81516Y35282D01*
X82258Y35852D01*
X82827Y36594D01*
X83185Y37458D01*
X83307Y38386D01*
Y44291D01*
X83185Y45219D01*
X82827Y46083D01*
X82258Y46825D01*
X81516Y47394D01*
X80651Y47752D01*
X79724Y47875D01*
X78797Y47752D01*
X77932Y47394D01*
X77190Y46825D01*
X76621Y46083D01*
X76263Y45219D01*
X76141Y44291D01*
Y38386D01*
X76263Y37458D01*
X76621Y36594D01*
X77190Y35852D01*
X77932Y35282D01*
X78602Y35005D01*
Y28024D01*
X78275Y27696D01*
X43308D01*
X43307Y27697D01*
X43307Y27697D01*
X42460D01*
Y35005D01*
X43130Y35282D01*
X43872Y35852D01*
X44442Y36594D01*
X44800Y37458D01*
X44922Y38386D01*
Y44291D01*
X44800Y45219D01*
X44652Y45574D01*
X45076Y45857D01*
X46123Y44811D01*
Y30512D01*
X46123Y30512D01*
X46208Y30083D01*
X46451Y29719D01*
X47435Y28734D01*
X47799Y28491D01*
X48228Y28406D01*
X48228Y28406D01*
X70866D01*
X70866Y28406D01*
X71295Y28491D01*
X71659Y28734D01*
X73628Y30703D01*
X73628Y30703D01*
X73871Y31067D01*
X73956Y31496D01*
Y50161D01*
X76378D01*
X76768Y50239D01*
X77099Y50460D01*
X77320Y50791D01*
X77397Y51181D01*
Y52028D01*
X93039D01*
X94351Y50717D01*
Y36417D01*
X94351Y36417D01*
X94436Y35988D01*
X94679Y35624D01*
X97632Y32671D01*
X97632Y32671D01*
X97996Y32428D01*
X98425Y32343D01*
X98425Y32343D01*
X108268D01*
X108268Y32343D01*
X108697Y32428D01*
X109061Y32671D01*
X114375Y37986D01*
X114375Y37986D01*
X114618Y38350D01*
X114704Y38779D01*
X114704Y38779D01*
Y50161D01*
X115748D01*
X116138Y50239D01*
X116469Y50460D01*
X116690Y50791D01*
X116767Y51181D01*
Y52028D01*
X125984D01*
X125984Y52028D01*
X126414Y52113D01*
X126777Y52357D01*
X129730Y55309D01*
X129730Y55309D01*
X129973Y55673D01*
X130059Y56102D01*
X130059Y56102D01*
Y79724D01*
X129973Y80154D01*
X129730Y80518D01*
X129730Y80518D01*
X128136Y82112D01*
X127772Y82355D01*
X127342Y82441D01*
X126890Y82536D01*
X126820Y82890D01*
X126599Y83221D01*
X126268Y83442D01*
X125878Y83520D01*
X121878D01*
Y81319D01*
Y79118D01*
X125878D01*
X126268Y79196D01*
X126599Y79417D01*
X126740Y79628D01*
X127179Y79747D01*
X127329Y79746D01*
X127815Y79260D01*
Y56567D01*
X125520Y54271D01*
X116767D01*
Y55118D01*
X116690Y55508D01*
X116469Y55839D01*
X116138Y56060D01*
X115748Y56138D01*
X114082D01*
Y53150D01*
X113582D01*
Y52650D01*
X110397D01*
Y51181D01*
X110475Y50791D01*
X110696Y50460D01*
X111027Y50239D01*
X111417Y50161D01*
X112461D01*
Y39244D01*
X107803Y34586D01*
X102796D01*
X102696Y35086D01*
X103170Y35282D01*
X103912Y35852D01*
X104481Y36594D01*
X104840Y37458D01*
X104962Y38386D01*
Y44291D01*
X104840Y45219D01*
X104481Y46083D01*
X103912Y46825D01*
X103170Y47394D01*
X102500Y47672D01*
Y52028D01*
X104075D01*
Y51181D01*
X104265Y50722D01*
X104725Y50532D01*
X109056D01*
X109515Y50722D01*
X109705Y51181D01*
Y55118D01*
X109515Y55577D01*
X109056Y55768D01*
X108012D01*
Y59448D01*
X108012Y59448D01*
X107926Y59878D01*
X107683Y60241D01*
X107683Y60241D01*
X102499Y65425D01*
Y74341D01*
X102999Y74548D01*
X112022Y65526D01*
X112022Y65526D01*
X112386Y65283D01*
X112815Y65197D01*
X112815Y65197D01*
X116228D01*
Y65138D01*
X116419Y64679D01*
X116878Y64489D01*
X125878D01*
X126337Y64679D01*
X126527Y65138D01*
Y67500D01*
X126337Y67959D01*
X125878Y68149D01*
X116878D01*
X116419Y67959D01*
X116228Y67500D01*
Y67440D01*
X113279D01*
X104468Y76252D01*
Y91535D01*
X104468Y91535D01*
X104383Y91965D01*
X104139Y92329D01*
X104139Y92329D01*
X89376Y107092D01*
X89012Y107335D01*
X88583Y107421D01*
X88583Y107421D01*
X47285D01*
X47176Y107630D01*
X47479Y108130D01*
X90087D01*
X105178Y93039D01*
Y77756D01*
X105178Y77756D01*
X105263Y77327D01*
X105506Y76963D01*
X111943Y70526D01*
X111943Y70526D01*
X112307Y70283D01*
X112736Y70197D01*
X112736Y70197D01*
X116228D01*
Y70138D01*
X116419Y69679D01*
X116878Y69489D01*
X125878D01*
X126337Y69679D01*
X126527Y70138D01*
Y72500D01*
X126337Y72959D01*
X125878Y73149D01*
X116878D01*
X116419Y72959D01*
X116228Y72500D01*
Y72440D01*
X113201D01*
X107421Y78220D01*
Y93504D01*
X107421Y93504D01*
X107335Y93933D01*
X107092Y94297D01*
X107092Y94297D01*
X91344Y110045D01*
X90980Y110288D01*
X90551Y110373D01*
X90551Y110373D01*
X46614D01*
X46568Y110404D01*
X46139Y110489D01*
X46139Y110489D01*
X44412D01*
X44412Y110489D01*
X43983Y110404D01*
X43938Y110373D01*
X39671D01*
X39479Y110583D01*
X39699Y111083D01*
X92055D01*
X108130Y95008D01*
Y78740D01*
X108130Y78740D01*
X108216Y78311D01*
X108459Y77947D01*
X110880Y75526D01*
X110880Y75526D01*
X111244Y75283D01*
X111673Y75197D01*
X116228D01*
Y75138D01*
X116419Y74679D01*
X116878Y74489D01*
X125878D01*
X126337Y74679D01*
X126527Y75138D01*
Y77500D01*
X126337Y77959D01*
X125878Y78149D01*
X116878D01*
X116419Y77959D01*
X116228Y77500D01*
Y77441D01*
X112138D01*
X110373Y79205D01*
Y95472D01*
X110373Y95472D01*
X110288Y95902D01*
X110045Y96266D01*
X110045Y96266D01*
X93313Y112998D01*
X92949Y113241D01*
X92520Y113326D01*
X92520Y113326D01*
X36606D01*
X36590Y113445D01*
X36157Y114491D01*
X35468Y115390D01*
X34569Y116079D01*
X33523Y116512D01*
X32401Y116660D01*
X25001D01*
X23878Y116512D01*
X22832Y116079D01*
X21934Y115390D01*
X21245Y114491D01*
X20811Y113445D01*
X20664Y112323D01*
X20811Y111200D01*
X21245Y110154D01*
X21934Y109256D01*
X22832Y108567D01*
X23878Y108133D01*
X25001Y107986D01*
X32401D01*
X33523Y108133D01*
X34569Y108567D01*
X35468Y109256D01*
X36157Y110154D01*
X36542Y111083D01*
X37375D01*
X37527Y110583D01*
X37244Y110394D01*
X36893Y109870D01*
X36770Y109252D01*
X36893Y108634D01*
X37244Y108110D01*
X37768Y107760D01*
X38386Y107637D01*
X39004Y107760D01*
X39528Y108110D01*
X39542Y108130D01*
X43381D01*
X43729Y107630D01*
X43660Y107283D01*
X43783Y106665D01*
X44133Y106141D01*
X44657Y105791D01*
X45276Y105668D01*
X45300Y105673D01*
X45467Y105506D01*
X45831Y105263D01*
X46260Y105178D01*
X46260Y105178D01*
X88118D01*
X102225Y91071D01*
Y82155D01*
X101725Y81948D01*
X101561Y82112D01*
X101197Y82355D01*
X100768Y82441D01*
X100307Y82494D01*
Y82500D01*
X100117Y82959D01*
X99658Y83149D01*
X90658D01*
X90199Y82959D01*
X90008Y82500D01*
Y82407D01*
X89748Y82355D01*
X89384Y82112D01*
X87790Y80518D01*
X87546Y80154D01*
X87461Y79724D01*
X87461Y79724D01*
Y75208D01*
X86209Y73956D01*
X67619D01*
X67619Y73956D01*
X67190Y73871D01*
X66826Y73628D01*
X66826Y73628D01*
X61249Y68051D01*
X28543D01*
X28114Y67965D01*
X27750Y67722D01*
X27750Y67722D01*
X25782Y65754D01*
X25539Y65390D01*
X25453Y64961D01*
X25453Y64961D01*
Y58535D01*
X23157Y56240D01*
X11291D01*
X5059Y62472D01*
Y93050D01*
X5497Y93385D01*
X5962Y93192D01*
X6890Y93070D01*
X7817Y93192D01*
X8681Y93550D01*
X9424Y94120D01*
X9993Y94862D01*
X10351Y95726D01*
X10473Y96653D01*
X10351Y97581D01*
X9993Y98445D01*
X9424Y99187D01*
X8681Y99757D01*
X7817Y100115D01*
X6890Y100237D01*
X5962Y100115D01*
X5098Y99757D01*
X4356Y99187D01*
X3786Y98445D01*
X3590Y97971D01*
X3090Y98071D01*
Y102882D01*
X4330Y104121D01*
X4356Y104120D01*
X5098Y103550D01*
X5962Y103192D01*
X6890Y103070D01*
X7817Y103192D01*
X8681Y103550D01*
X9424Y104120D01*
X9656Y104422D01*
X9664Y104422D01*
X10220Y104336D01*
X18075Y96481D01*
X18070Y96457D01*
X18193Y95838D01*
X18543Y95315D01*
X19067Y94964D01*
X19685Y94841D01*
X20303Y94964D01*
X20827Y95315D01*
X21177Y95838D01*
X21300Y96457D01*
X21177Y97075D01*
X20827Y97599D01*
X20303Y97949D01*
X19685Y98072D01*
X19661Y98067D01*
X12064Y105664D01*
Y112601D01*
X12064Y112601D01*
X11979Y113030D01*
X11736Y113394D01*
X11736Y113394D01*
X10074Y115056D01*
X10351Y115726D01*
X10473Y116654D01*
X10351Y117581D01*
X9993Y118445D01*
X9424Y119187D01*
X8681Y119757D01*
X7817Y120115D01*
X6890Y120237D01*
D02*
G37*
G36*
X35326Y61570D02*
X35052Y61515D01*
X34396Y61077D01*
X33957Y60420D01*
X33903Y60146D01*
X35326D01*
Y61570D01*
D02*
G37*
G36*
X37075Y101823D02*
X29201D01*
Y97582D01*
X32401D01*
X33628Y97744D01*
X34771Y98217D01*
X35753Y98971D01*
X36506Y99953D01*
X36980Y101096D01*
X37075Y101823D01*
D02*
G37*
G36*
X28201D02*
X20326D01*
X20422Y101096D01*
X20895Y99953D01*
X21649Y98971D01*
X22630Y98217D01*
X23774Y97744D01*
X25001Y97582D01*
X28201D01*
Y101823D01*
D02*
G37*
G36*
X120878Y83520D02*
X116878D01*
X116488Y83442D01*
X116157Y83221D01*
X115936Y82890D01*
X115858Y82500D01*
Y81819D01*
X120878D01*
Y83520D01*
D02*
G37*
G36*
X101378Y22285D02*
X100451Y22162D01*
X99586Y21804D01*
X98844Y21235D01*
X98275Y20493D01*
X97917Y19628D01*
X97795Y18701D01*
Y12796D01*
X97917Y11868D01*
X98275Y11004D01*
X98844Y10262D01*
X99586Y9692D01*
X100451Y9334D01*
X101378Y9212D01*
X102306Y9334D01*
X103170Y9692D01*
X103912Y10262D01*
X104481Y11004D01*
X104840Y11868D01*
X104962Y12796D01*
Y18701D01*
X104840Y19628D01*
X104481Y20493D01*
X103912Y21235D01*
X103170Y21804D01*
X102306Y22162D01*
X101378Y22285D01*
D02*
G37*
G36*
X62008D02*
X61081Y22162D01*
X60216Y21804D01*
X59474Y21235D01*
X58905Y20493D01*
X58547Y19628D01*
X58425Y18701D01*
Y12796D01*
X58547Y11868D01*
X58905Y11004D01*
X59474Y10262D01*
X60216Y9692D01*
X61081Y9334D01*
X62008Y9212D01*
X62936Y9334D01*
X63800Y9692D01*
X64542Y10262D01*
X65111Y11004D01*
X65469Y11868D01*
X65592Y12796D01*
Y18701D01*
X65469Y19628D01*
X65111Y20493D01*
X64542Y21235D01*
X63800Y21804D01*
X62936Y22162D01*
X62008Y22285D01*
D02*
G37*
G36*
X23622D02*
X22695Y22162D01*
X21831Y21804D01*
X21089Y21235D01*
X20519Y20493D01*
X20161Y19628D01*
X20039Y18701D01*
Y12796D01*
X20161Y11868D01*
X20519Y11004D01*
X21089Y10262D01*
X21831Y9692D01*
X22695Y9334D01*
X23622Y9212D01*
X24550Y9334D01*
X25414Y9692D01*
X26156Y10262D01*
X26726Y11004D01*
X27084Y11868D01*
X27206Y12796D01*
Y18701D01*
X27084Y19628D01*
X26726Y20493D01*
X26156Y21235D01*
X25414Y21804D01*
X24550Y22162D01*
X23622Y22285D01*
D02*
G37*
G36*
X113082Y56138D02*
X111417D01*
X111027Y56060D01*
X110696Y55839D01*
X110475Y55508D01*
X110397Y55118D01*
Y53650D01*
X113082D01*
Y56138D01*
D02*
G37*
G36*
X36373Y47728D02*
X34949D01*
Y46305D01*
X35223Y46359D01*
X35879Y46798D01*
X36318Y47454D01*
X36373Y47728D01*
D02*
G37*
G36*
X33949D02*
X32525D01*
X32580Y47454D01*
X33018Y46798D01*
X33675Y46359D01*
X33949Y46305D01*
Y47728D01*
D02*
G37*
G36*
X28201Y107063D02*
X25001D01*
X23774Y106902D01*
X22630Y106428D01*
X21649Y105675D01*
X20895Y104693D01*
X20422Y103550D01*
X20326Y102823D01*
X28201D01*
Y107063D01*
D02*
G37*
G36*
X16732Y175945D02*
X12795D01*
X12336Y175755D01*
X12146Y175295D01*
Y172145D01*
X12336Y171686D01*
X12795Y171496D01*
X16732D01*
X17191Y171686D01*
X17381Y172145D01*
Y175295D01*
X17191Y175755D01*
X16732Y175945D01*
D02*
G37*
G36*
X46260Y167087D02*
X42717D01*
X42258Y166897D01*
X42068Y166437D01*
Y163287D01*
X42258Y162828D01*
X42717Y162638D01*
X46260D01*
X46719Y162828D01*
X46909Y163287D01*
Y166437D01*
X46719Y166897D01*
X46260Y167087D01*
D02*
G37*
G36*
X16338D02*
X12795D01*
X12336Y166897D01*
X12146Y166437D01*
Y163287D01*
X12336Y162828D01*
X12795Y162638D01*
X16338D01*
X16797Y162828D01*
X16987Y163287D01*
Y166437D01*
X16797Y166897D01*
X16338Y167087D01*
D02*
G37*
G36*
X46260Y175945D02*
X42323D01*
X41864Y175755D01*
X41674Y175295D01*
Y172145D01*
X41864Y171686D01*
X42323Y171496D01*
X46260D01*
X46719Y171686D01*
X46909Y172145D01*
Y175295D01*
X46719Y175755D01*
X46260Y175945D01*
D02*
G37*
G36*
X128937Y171947D02*
X128906Y171934D01*
X128873Y171944D01*
X127330Y171792D01*
X127271Y171761D01*
X127205Y171767D01*
X125721Y171317D01*
X125669Y171275D01*
X125603Y171268D01*
X124235Y170537D01*
X124193Y170486D01*
X124129Y170466D01*
X122930Y169483D01*
X122899Y169424D01*
X122840Y169393D01*
X121856Y168193D01*
X121837Y168130D01*
X121786Y168088D01*
X121054Y166720D01*
X121048Y166654D01*
X121006Y166602D01*
X120555Y165118D01*
X120562Y165052D01*
X120531Y164993D01*
X120379Y163450D01*
X120398Y163386D01*
X120379Y163322D01*
X120531Y161779D01*
X120562Y161720D01*
X120555Y161654D01*
X121006Y160169D01*
X121048Y160118D01*
X121054Y160052D01*
X121786Y158684D01*
X121837Y158642D01*
X121856Y158578D01*
X122840Y157379D01*
X122899Y157348D01*
X122930Y157289D01*
X124129Y156305D01*
X124193Y156286D01*
X124235Y156234D01*
X125603Y155503D01*
X125669Y155497D01*
X125721Y155455D01*
X127205Y155004D01*
X127271Y155011D01*
X127330Y154979D01*
X128873Y154827D01*
X128906Y154837D01*
X128937Y154824D01*
X128968Y154837D01*
X129001Y154827D01*
X130544Y154979D01*
X130603Y155011D01*
X130669Y155004D01*
X132153Y155455D01*
X132205Y155497D01*
X132271Y155503D01*
X133639Y156234D01*
X133681Y156286D01*
X133745Y156305D01*
X134944Y157289D01*
X134975Y157348D01*
X135034Y157379D01*
X136018Y158578D01*
X136037Y158642D01*
X136088Y158684D01*
X136820Y160052D01*
X136826Y160118D01*
X136868Y160169D01*
X137319Y161654D01*
X137312Y161720D01*
X137343Y161779D01*
X137495Y163322D01*
X137476Y163386D01*
X137495Y163450D01*
X137343Y164993D01*
X137312Y165052D01*
X137319Y165118D01*
X136868Y166602D01*
X136826Y166654D01*
X136820Y166720D01*
X136088Y168088D01*
X136037Y168130D01*
X136018Y168193D01*
X135034Y169393D01*
X134975Y169424D01*
X134944Y169483D01*
X133745Y170466D01*
X133681Y170486D01*
X133639Y170537D01*
X132271Y171268D01*
X132205Y171275D01*
X132153Y171317D01*
X130669Y171767D01*
X130603Y171761D01*
X130544Y171792D01*
X129001Y171944D01*
X128968Y171934D01*
X128937Y171947D01*
D02*
G37*
G36*
X35434Y171547D02*
X35372Y171521D01*
X35307Y171534D01*
X34692Y171412D01*
X34585Y171340D01*
X34458Y171315D01*
X33937Y170967D01*
X33865Y170860D01*
X33758Y170788D01*
X33410Y170267D01*
X33385Y170140D01*
X33313Y170033D01*
X33191Y169418D01*
X33216Y169291D01*
X33191Y169165D01*
X33313Y168550D01*
X33385Y168443D01*
X33410Y168316D01*
X33758Y167795D01*
X33865Y167723D01*
X33937Y167616D01*
X34458Y167268D01*
X34585Y167243D01*
X34692Y167171D01*
X35307Y167049D01*
X35372Y167062D01*
X35434Y167036D01*
X35495Y167062D01*
X35560Y167049D01*
X36175Y167171D01*
X36282Y167243D01*
X36409Y167268D01*
X36930Y167616D01*
X37002Y167723D01*
X37109Y167795D01*
X37457Y168316D01*
X37482Y168443D01*
X37554Y168550D01*
X37676Y169165D01*
X37651Y169291D01*
X37676Y169418D01*
X37554Y170033D01*
X37482Y170140D01*
X37457Y170267D01*
X37109Y170788D01*
X37002Y170860D01*
X36930Y170967D01*
X36409Y171315D01*
X36282Y171340D01*
X36175Y171412D01*
X35560Y171534D01*
X35495Y171521D01*
X35434Y171547D01*
D02*
G37*
G36*
X23622D02*
X23560Y171521D01*
X23495Y171534D01*
X22880Y171412D01*
X22773Y171340D01*
X22646Y171315D01*
X22125Y170967D01*
X22053Y170860D01*
X21946Y170788D01*
X21598Y170267D01*
X21573Y170140D01*
X21501Y170033D01*
X21379Y169418D01*
X21404Y169291D01*
X21379Y169165D01*
X21501Y168550D01*
X21573Y168443D01*
X21598Y168316D01*
X21946Y167795D01*
X22053Y167723D01*
X22125Y167616D01*
X22646Y167268D01*
X22773Y167243D01*
X22880Y167171D01*
X23495Y167049D01*
X23560Y167062D01*
X23622Y167036D01*
X23683Y167062D01*
X23748Y167049D01*
X24363Y167171D01*
X24470Y167243D01*
X24597Y167268D01*
X25118Y167616D01*
X25190Y167723D01*
X25297Y167795D01*
X25645Y168316D01*
X25670Y168443D01*
X25742Y168550D01*
X25864Y169165D01*
X25839Y169291D01*
X25864Y169418D01*
X25742Y170033D01*
X25670Y170140D01*
X25645Y170267D01*
X25297Y170788D01*
X25190Y170860D01*
X25118Y170967D01*
X24597Y171315D01*
X24470Y171340D01*
X24363Y171412D01*
X23748Y171534D01*
X23683Y171521D01*
X23622Y171547D01*
D02*
G37*
G36*
X10862Y146153D02*
X7390D01*
Y142681D01*
X9843D01*
X10233Y142759D01*
X10564Y142980D01*
X10785Y143311D01*
X10862Y143701D01*
Y146153D01*
D02*
G37*
G36*
X9843Y150626D02*
X7390D01*
Y147153D01*
X10862D01*
Y149606D01*
X10785Y149996D01*
X10564Y150327D01*
X10233Y150548D01*
X9843Y150626D01*
D02*
G37*
G36*
X32401Y107063D02*
X29201D01*
Y102823D01*
X37075D01*
X36980Y103550D01*
X36506Y104693D01*
X35753Y105675D01*
X34771Y106428D01*
X33628Y106902D01*
X32401Y107063D01*
D02*
G37*
G36*
X6890Y130237D02*
X5962Y130115D01*
X5098Y129757D01*
X4356Y129187D01*
X3786Y128445D01*
X3429Y127581D01*
X3306Y126654D01*
X3429Y125726D01*
X3786Y124862D01*
X4356Y124120D01*
X5098Y123550D01*
X5962Y123192D01*
X6890Y123070D01*
X7817Y123192D01*
X8681Y123550D01*
X9424Y124120D01*
X9993Y124862D01*
X10271Y125532D01*
X18983D01*
X19067Y125476D01*
X19685Y125353D01*
X20303Y125476D01*
X20827Y125826D01*
X21177Y126350D01*
X21300Y126969D01*
X21177Y127587D01*
X20827Y128111D01*
X20303Y128461D01*
X19685Y128584D01*
X19067Y128461D01*
X18543Y128111D01*
X18319Y127775D01*
X10271D01*
X9993Y128445D01*
X9424Y129187D01*
X8681Y129757D01*
X7817Y130115D01*
X6890Y130237D01*
D02*
G37*
G36*
X39674Y165610D02*
X36524D01*
X36064Y165420D01*
X35874Y164960D01*
Y162145D01*
X31102D01*
X31102Y162145D01*
X30673Y162060D01*
X30309Y161817D01*
X30309Y161816D01*
X28974Y160481D01*
X28512Y160673D01*
Y164960D01*
X28322Y165420D01*
X27863Y165610D01*
X24713D01*
X24253Y165420D01*
X24063Y164960D01*
Y157086D01*
X24253Y156627D01*
X24713Y156437D01*
X25166D01*
Y141035D01*
X25166Y141035D01*
X25251Y140606D01*
X25495Y140242D01*
X26766Y138971D01*
X26766Y138971D01*
X27130Y138728D01*
X27559Y138642D01*
X27559Y138642D01*
X33984D01*
X36280Y136346D01*
Y135152D01*
X35780Y134982D01*
X35468Y135390D01*
X34569Y136079D01*
X33523Y136512D01*
X32401Y136660D01*
X25001D01*
X23878Y136512D01*
X22832Y136079D01*
X21934Y135390D01*
X21245Y134491D01*
X20811Y133445D01*
X20811Y133444D01*
X19717D01*
X15714Y137447D01*
X15350Y137690D01*
X14921Y137775D01*
X14921Y137775D01*
X10271D01*
X9993Y138445D01*
X9424Y139187D01*
X8681Y139757D01*
X7817Y140115D01*
X6890Y140237D01*
X5962Y140115D01*
X5292Y139837D01*
X3959Y141171D01*
Y142681D01*
X6390D01*
Y146653D01*
Y150626D01*
X4074D01*
Y152422D01*
X5734D01*
X5748Y152401D01*
X6272Y152051D01*
X6890Y151928D01*
X7508Y152051D01*
X8032Y152401D01*
X8382Y152925D01*
X8505Y153543D01*
X8382Y154161D01*
X8032Y154685D01*
X7508Y155036D01*
X6890Y155159D01*
X6272Y155036D01*
X5748Y154685D01*
X5734Y154665D01*
X2953D01*
X2524Y154579D01*
X2160Y154336D01*
X1917Y153972D01*
X1831Y153543D01*
Y150537D01*
X1801Y150491D01*
X1715Y150062D01*
X1715Y150062D01*
Y140706D01*
X1715Y140706D01*
X1801Y140277D01*
X2044Y139913D01*
X3706Y138251D01*
X3429Y137581D01*
X3306Y136653D01*
X3429Y135726D01*
X3786Y134862D01*
X4356Y134120D01*
X5098Y133550D01*
X5962Y133192D01*
X6890Y133070D01*
X7817Y133192D01*
X8681Y133550D01*
X9424Y134120D01*
X9993Y134862D01*
X10271Y135532D01*
X14457D01*
X18459Y131530D01*
X18459Y131530D01*
X18823Y131287D01*
X19252Y131201D01*
X19252Y131201D01*
X20811D01*
X20811Y131200D01*
X21245Y130154D01*
X21934Y129256D01*
X22832Y128567D01*
X23878Y128133D01*
X25001Y127986D01*
X32401D01*
X33523Y128133D01*
X34569Y128567D01*
X35468Y129256D01*
X35780Y129663D01*
X36280Y129493D01*
Y125152D01*
X35780Y124982D01*
X35468Y125390D01*
X34569Y126079D01*
X33523Y126512D01*
X32401Y126660D01*
X25001D01*
X23878Y126512D01*
X22832Y126079D01*
X21934Y125390D01*
X21245Y124491D01*
X20811Y123445D01*
X20664Y122323D01*
X20811Y121200D01*
X21245Y120154D01*
X21934Y119256D01*
X22832Y118567D01*
X23878Y118133D01*
X25001Y117986D01*
X32401D01*
X33523Y118133D01*
X34569Y118567D01*
X35468Y119256D01*
X35780Y119663D01*
X36280Y119493D01*
Y118110D01*
X36280Y118110D01*
X36365Y117681D01*
X36608Y117317D01*
X39561Y114365D01*
X39561Y114364D01*
X39925Y114121D01*
X40354Y114036D01*
X94024D01*
X111083Y96976D01*
Y90551D01*
X111083Y90551D01*
X111169Y90122D01*
X111412Y89758D01*
X113380Y87790D01*
X113380Y87790D01*
X113744Y87546D01*
X114173Y87461D01*
X122860D01*
X122874Y87441D01*
X123398Y87090D01*
X124016Y86967D01*
X124634Y87090D01*
X125158Y87441D01*
X125508Y87964D01*
X125631Y88583D01*
X125508Y89201D01*
X125158Y89725D01*
X124634Y90075D01*
X124016Y90198D01*
X123398Y90075D01*
X122874Y89725D01*
X122860Y89704D01*
X114638D01*
X113326Y91016D01*
Y97441D01*
X113326Y97441D01*
X113241Y97870D01*
X112998Y98234D01*
X112998Y98234D01*
X95281Y115951D01*
X94917Y116194D01*
X94488Y116279D01*
X94488Y116279D01*
X40819D01*
X38523Y118575D01*
Y136811D01*
X38523Y136811D01*
X38438Y137240D01*
X38195Y137604D01*
X38195Y137604D01*
X35242Y140557D01*
X34878Y140800D01*
X34449Y140885D01*
X34449Y140885D01*
X28024D01*
X27409Y141500D01*
Y142984D01*
X27909Y143283D01*
X28006Y143232D01*
X28035Y143083D01*
X28385Y142559D01*
X28909Y142209D01*
X29528Y142086D01*
X30146Y142209D01*
X30670Y142559D01*
X31020Y143083D01*
X31143Y143701D01*
X31020Y144319D01*
X30670Y144843D01*
X30146Y145193D01*
X29665Y145289D01*
Y155747D01*
X29756Y155838D01*
X29756Y155838D01*
X29999Y156202D01*
X30084Y156631D01*
X30084Y156631D01*
Y158419D01*
X31567Y159902D01*
X35874D01*
Y157086D01*
X36064Y156627D01*
X36524Y156437D01*
X39674D01*
X40133Y156627D01*
X40323Y157086D01*
Y164960D01*
X40133Y165420D01*
X39674Y165610D01*
D02*
G37*
G36*
X21957D02*
X18807D01*
X18347Y165420D01*
X18157Y164960D01*
Y157086D01*
X18347Y156627D01*
X18807Y156437D01*
X21957D01*
X22416Y156627D01*
X22606Y157086D01*
Y164960D01*
X22416Y165420D01*
X21957Y165610D01*
D02*
G37*
%LPD*%
G36*
X90199Y69679D02*
X90658Y69489D01*
X99658D01*
X99756Y69529D01*
X100256Y69195D01*
Y68443D01*
X99756Y68109D01*
X99658Y68149D01*
X90658D01*
X90199Y67959D01*
X90008Y67500D01*
Y67440D01*
X88209D01*
X88209Y67441D01*
X87779Y67355D01*
X87415Y67112D01*
X79916Y59612D01*
X79672Y59248D01*
X79587Y58819D01*
X79587Y58819D01*
Y58243D01*
X79567Y58229D01*
X79216Y57705D01*
X79093Y57087D01*
X79216Y56468D01*
X79567Y55944D01*
X80090Y55594D01*
X80709Y55471D01*
X81327Y55594D01*
X81851Y55944D01*
X82201Y56468D01*
X82324Y57087D01*
X82201Y57705D01*
X81851Y58229D01*
X82124Y58648D01*
X88673Y65197D01*
X90008D01*
Y65138D01*
X90199Y64679D01*
X90658Y64489D01*
X99658D01*
X99827Y64559D01*
X100270Y64535D01*
X100454Y64363D01*
X100585Y64168D01*
X105769Y58984D01*
Y55768D01*
X104725D01*
X104265Y55577D01*
X104075Y55118D01*
Y54271D01*
X100394D01*
X100394Y54271D01*
X99964Y54186D01*
X99601Y53943D01*
X99357Y53579D01*
X99272Y53150D01*
X99357Y52720D01*
X99601Y52357D01*
X100257Y51701D01*
Y47672D01*
X99586Y47394D01*
X98844Y46825D01*
X98275Y46083D01*
X97917Y45219D01*
X97795Y44291D01*
Y38386D01*
X97917Y37458D01*
X98275Y36594D01*
X98844Y35852D01*
X99586Y35282D01*
X100060Y35086D01*
X99961Y34586D01*
X98890D01*
X96594Y36882D01*
Y51181D01*
X96509Y51610D01*
X96266Y51974D01*
X96266Y51974D01*
X94297Y53943D01*
X93933Y54186D01*
X93504Y54271D01*
X93504Y54271D01*
X77397D01*
Y55118D01*
X77320Y55508D01*
X77099Y55839D01*
X76768Y56060D01*
X76378Y56138D01*
X74712D01*
Y53150D01*
X74212D01*
Y52650D01*
X71027D01*
Y51181D01*
X71105Y50791D01*
X71326Y50460D01*
X71657Y50239D01*
X71713Y50228D01*
Y31961D01*
X70402Y30649D01*
X48693D01*
X48366Y30976D01*
Y45276D01*
X48280Y45705D01*
X48037Y46069D01*
X48037Y46069D01*
X40163Y53943D01*
X39799Y54186D01*
X39370Y54271D01*
X39011Y54587D01*
Y55118D01*
X38934Y55508D01*
X38713Y55839D01*
X38382Y56060D01*
X37992Y56138D01*
X36948D01*
Y58009D01*
X37257Y58216D01*
X37669Y58833D01*
X37894Y58889D01*
X38214Y58917D01*
X38228Y58897D01*
X38752Y58547D01*
X39370Y58424D01*
X39394Y58429D01*
X45467Y52357D01*
X45467Y52357D01*
X45831Y52113D01*
X46260Y52028D01*
X60886D01*
Y47672D01*
X60216Y47394D01*
X59474Y46825D01*
X58905Y46083D01*
X58547Y45219D01*
X58425Y44291D01*
Y38386D01*
X58547Y37458D01*
X58905Y36594D01*
X59474Y35852D01*
X60216Y35282D01*
X61081Y34924D01*
X62008Y34802D01*
X62936Y34924D01*
X63800Y35282D01*
X64542Y35852D01*
X65111Y36594D01*
X65469Y37458D01*
X65592Y38386D01*
Y44291D01*
X65469Y45219D01*
X65111Y46083D01*
X64542Y46825D01*
X63800Y47394D01*
X63129Y47672D01*
Y52028D01*
X64705D01*
Y51181D01*
X64895Y50722D01*
X65355Y50532D01*
X69686D01*
X70145Y50722D01*
X70335Y51181D01*
Y55118D01*
X70145Y55577D01*
X69686Y55768D01*
X65355D01*
X65098Y55939D01*
Y63512D01*
X70099Y68513D01*
X87999D01*
X87999Y68513D01*
X88428Y68599D01*
X88792Y68842D01*
X89724Y69773D01*
X90199Y69679D01*
D02*
G37*
%LPC*%
G36*
X73712Y56138D02*
X72047D01*
X71657Y56060D01*
X71326Y55839D01*
X71105Y55508D01*
X71027Y55118D01*
Y53650D01*
X73712D01*
Y56138D01*
D02*
G37*
%LPD*%
D10*
X95158Y81319D02*
D03*
Y76319D02*
D03*
Y66319D02*
D03*
X121378Y81319D02*
D03*
Y76319D02*
D03*
Y66319D02*
D03*
X95158Y71319D02*
D03*
X121378D02*
D03*
D11*
X106890Y53150D02*
D03*
X113582D02*
D03*
X74212D02*
D03*
X67520D02*
D03*
X29134D02*
D03*
X35826D02*
D03*
D12*
X26288Y161023D02*
D03*
X38099D02*
D03*
X20382D02*
D03*
D13*
X44489Y164862D02*
D03*
X14567D02*
D03*
D14*
X44292Y173720D02*
D03*
X14764D02*
D03*
D15*
X2837Y140706D02*
X6890Y136653D01*
X2837Y140706D02*
Y150062D01*
X2953Y150178D01*
Y153543D01*
X6890D01*
X19252Y132323D02*
X28701D01*
X10943Y105199D02*
Y112601D01*
X6890Y116654D02*
X10943Y112601D01*
X28543Y53741D02*
X29134Y53150D01*
X112815Y66319D02*
X121378D01*
X103347Y75787D02*
X112815Y66319D01*
X103347Y75787D02*
Y91535D01*
X114173Y88583D02*
X124016D01*
X112205Y90551D02*
X114173Y88583D01*
X112205Y90551D02*
Y97441D01*
X94488Y115157D02*
X112205Y97441D01*
X46255Y109252D02*
X90551D01*
X46139Y109368D02*
X46255Y109252D01*
X44412Y109368D02*
X46139D01*
X44297Y109252D02*
X44412Y109368D01*
X90551Y109252D02*
X106299Y93504D01*
X88583Y106299D02*
X103347Y91535D01*
X46260Y106299D02*
X88583D01*
X45276Y107283D02*
X46260Y106299D01*
X28819Y112205D02*
X92520D01*
X28701Y112323D02*
X28819Y112205D01*
X92520D02*
X109252Y95472D01*
X6890Y126654D02*
X19370D01*
X19685Y126969D01*
X106299Y77756D02*
Y93504D01*
Y77756D02*
X112736Y71319D01*
X121378D01*
X109252Y78740D02*
Y95472D01*
Y78740D02*
X111673Y76319D01*
X121378D01*
X35826Y53150D02*
X39370D01*
X47244Y45276D01*
Y30512D02*
Y45276D01*
Y30512D02*
X48228Y29528D01*
X70866D01*
X72835Y31496D01*
Y51772D01*
X74212Y53150D01*
X34449Y48228D02*
X35826Y49606D01*
Y53150D01*
X121378Y81319D02*
X127342D01*
X128937Y79724D01*
Y56102D02*
Y79724D01*
X125984Y53150D02*
X128937Y56102D01*
X113582Y53150D02*
X125984D01*
X113582Y38779D02*
Y53150D01*
X108268Y33465D02*
X113582Y38779D01*
X98425Y33465D02*
X108268D01*
X95472Y36417D02*
X98425Y33465D01*
X95472Y36417D02*
Y51181D01*
X93504Y53150D02*
X95472Y51181D01*
X74212Y53150D02*
X93504D01*
X106890D02*
Y59448D01*
X80709Y57087D02*
Y58819D01*
X88209Y66319D01*
X95158D01*
Y81319D02*
X100768D01*
X101378Y80709D01*
Y64961D02*
Y80709D01*
Y64961D02*
X106890Y59448D01*
X79724Y27559D02*
X119094D01*
Y41338D01*
Y15748D02*
Y27559D01*
X41338Y15748D02*
Y26575D01*
X79724Y27559D02*
Y41338D01*
Y15748D02*
Y27559D01*
X41338Y26575D02*
Y41338D01*
X78740Y26575D02*
X79724Y27559D01*
X46260Y53150D02*
X62008D01*
X10943Y105199D02*
X19685Y96457D01*
X101378Y41338D02*
Y52165D01*
X100394Y53150D02*
X101378Y52165D01*
X100394Y53150D02*
X106890D01*
X62008Y41339D02*
X62008Y41338D01*
X62008Y41339D02*
Y53150D01*
X5276Y106653D02*
X6890D01*
X1969Y103347D02*
X5276Y106653D01*
X1969Y61024D02*
Y103347D01*
Y61024D02*
X9843Y53150D01*
X23622D01*
X23622Y41338D02*
Y53149D01*
X23622Y53150D02*
X23622Y53149D01*
X23622Y53150D02*
X29134D01*
X6890Y136653D02*
X14921D01*
X19252Y132323D01*
X28543Y53741D02*
Y63976D01*
X29528Y64961D01*
X62008D01*
X68282Y71235D01*
X92421Y76319D02*
X95158D01*
X63976Y63976D02*
X69635Y69635D01*
X89683Y71319D02*
X95158D01*
X69635Y69635D02*
X87999D01*
X89683Y71319D01*
X68282Y71235D02*
X87336D01*
X92421Y76319D01*
X61714Y66929D02*
X67619Y72835D01*
X86673D01*
X28543Y66929D02*
X61714D01*
X26575Y64961D02*
X28543Y66929D01*
X3937Y62008D02*
Y93701D01*
X6890Y96653D01*
X3937Y62008D02*
X10827Y55118D01*
X23622D01*
X26575Y58071D01*
Y64961D01*
X86673Y72835D02*
X88583Y74744D01*
Y79724D01*
X90177Y81319D01*
X95158D01*
X62008Y53150D02*
X62992D01*
X63976Y54134D02*
Y63976D01*
Y53150D02*
Y54134D01*
X62992Y53150D02*
X63976D01*
X67520D01*
X62992D02*
X63976Y54134D01*
X43307Y26575D02*
X78740D01*
X43307Y26575D02*
X43307Y26575D01*
X41338Y26575D02*
X43307D01*
X27559Y139764D02*
X34449D01*
X37402Y136811D01*
Y118110D02*
Y136811D01*
Y118110D02*
X40354Y115157D01*
X94488D01*
X31102Y161023D02*
X38099D01*
X26288Y141035D02*
X27559Y139764D01*
X26288Y141035D02*
Y161023D01*
X28543Y144685D02*
X29528Y143701D01*
X28543Y144685D02*
Y156211D01*
X28963Y156631D01*
Y158884D01*
X31102Y161023D01*
X38386Y109252D02*
X44297D01*
X35826Y53150D02*
Y59646D01*
X39370Y60039D02*
X46260Y53150D01*
D16*
X128937Y163386D02*
D03*
D17*
X6890Y96653D02*
D03*
Y106653D02*
D03*
Y116654D02*
D03*
Y126654D02*
D03*
Y136653D02*
D03*
D18*
Y146653D02*
D03*
D19*
X79724Y41338D02*
D03*
Y15748D02*
D03*
X62008Y41338D02*
D03*
Y15748D02*
D03*
X23622D02*
D03*
Y41338D02*
D03*
X41338Y15748D02*
D03*
Y41338D02*
D03*
X119094D02*
D03*
Y15748D02*
D03*
X101378Y41338D02*
D03*
Y15748D02*
D03*
D20*
X35434Y169291D02*
D03*
X23622D02*
D03*
D21*
X28701Y102323D02*
D03*
Y112323D02*
D03*
Y122323D02*
D03*
Y132323D02*
D03*
D22*
X6890Y153543D02*
D03*
X29528Y143701D02*
D03*
X124016Y88583D02*
D03*
X19685Y126969D02*
D03*
X45276Y107283D02*
D03*
X34449Y48228D02*
D03*
X80709Y57087D02*
D03*
X19685Y96457D02*
D03*
X38386Y109252D02*
D03*
X35826Y59646D02*
D03*
X39370Y60039D02*
D03*
M02*
