G04 Layer_Color=65535*
%FSLAX44Y44*%
%MOMM*%
G71*
G01*
G75*
%ADD15C,0.2540*%
%ADD25C,0.2032*%
%ADD26C,0.1270*%
%ADD27C,0.0254*%
D15*
X42140Y168950D02*
X319000D01*
Y435650D01*
X40870D02*
X319000D01*
X40870Y170220D02*
Y435650D01*
X281531Y418864D02*
X291688D01*
X286609D01*
Y403629D01*
X296766D02*
Y418864D01*
X304384D01*
X306923Y416325D01*
Y411246D01*
X304384Y408707D01*
X296766D01*
X322158Y418864D02*
X317080Y416325D01*
X312001Y411246D01*
Y406168D01*
X314540Y403629D01*
X319619D01*
X322158Y406168D01*
Y408707D01*
X319619Y411246D01*
X312001D01*
X281531Y381364D02*
X291688D01*
X286609D01*
Y366129D01*
X296766D02*
Y381364D01*
X304384D01*
X306923Y378825D01*
Y373746D01*
X304384Y371207D01*
X296766D01*
X312001Y378825D02*
X314540Y381364D01*
X319619D01*
X322158Y378825D01*
Y376286D01*
X319619Y373746D01*
X317080D01*
X319619D01*
X322158Y371207D01*
Y368668D01*
X319619Y366129D01*
X314540D01*
X312001Y368668D01*
X281531Y343864D02*
X291688D01*
X286609D01*
Y328629D01*
X296766D02*
Y343864D01*
X304384D01*
X306923Y341325D01*
Y336246D01*
X304384Y333707D01*
X296766D01*
X312001Y328629D02*
X317080D01*
X314540D01*
Y343864D01*
X312001Y341325D01*
D25*
X297501Y72500D02*
G03*
X297501Y72500I-17501J0D01*
G01*
D02*
G03*
X297501Y72500I-17501J0D01*
G01*
X100001D02*
G03*
X100001Y72500I-17501J0D01*
G01*
D02*
G03*
X100001Y72500I-17501J0D01*
G01*
X197501D02*
G03*
X197501Y72500I-17501J0D01*
G01*
D02*
G03*
X197501Y72500I-17501J0D01*
G01*
X58650Y251500D02*
X71350D01*
X58650Y353100D02*
X71350D01*
X248999Y57499D02*
Y87501D01*
X311001Y57499D02*
Y87501D01*
X270000Y103501D02*
X290000D01*
X270000Y41499D02*
X290000D01*
X72500D02*
X92500D01*
X72500Y103501D02*
X92500D01*
X113501Y57499D02*
Y87501D01*
X51499Y57499D02*
Y87501D01*
X148999Y57499D02*
Y87501D01*
X211001Y57499D02*
Y87501D01*
X170000Y103501D02*
X190000D01*
X170000Y41499D02*
X190000D01*
D26*
X108500Y423000D02*
Y435999D01*
X74500Y443500D02*
X105000D01*
X61500D02*
X74500D01*
X45000D02*
X61500D01*
X41500Y423000D02*
Y435999D01*
X72000Y416500D02*
X89001D01*
X61500Y458499D02*
X74500D01*
Y443500D02*
Y458499D01*
X61500Y443500D02*
Y458499D01*
X333204Y431796D02*
X340388D01*
X333204D02*
X333204Y424612D01*
X328714Y427306D02*
X337828Y436421D01*
X333204Y424612D02*
X340388Y431796D01*
D27*
X34880Y628D02*
X328758D01*
X33102Y882D02*
X330536D01*
X31578Y1136D02*
X332060D01*
X30308Y1390D02*
X333330D01*
X29292Y1644D02*
X334346D01*
X28276Y1898D02*
X335362D01*
X27514Y2152D02*
X336124D01*
X26752Y2406D02*
X336886D01*
X25990Y2660D02*
X337648D01*
X25228Y2914D02*
X338410D01*
X24720Y3168D02*
X339172D01*
X23958Y3422D02*
X339680D01*
X23450Y3676D02*
X340188D01*
X22688Y3930D02*
X340950D01*
X22180Y4184D02*
X341458D01*
X21672Y4438D02*
X341966D01*
X21164Y4692D02*
X342474D01*
X20656Y4946D02*
X342982D01*
X20148Y5200D02*
X343490D01*
X19640Y5454D02*
X343998D01*
X19386Y5708D02*
X344252D01*
X18878Y5962D02*
X344760D01*
X18370Y6216D02*
X345268D01*
X18116Y6470D02*
X345522D01*
X17608Y6724D02*
X346030D01*
X17100Y6978D02*
X346538D01*
X16846Y7232D02*
X346792D01*
X16338Y7486D02*
X347300D01*
X16084Y7740D02*
X347554D01*
X15830Y7994D02*
X347808D01*
X15322Y8248D02*
X348316D01*
X15068Y8502D02*
X348570D01*
X14814Y8756D02*
X348824D01*
X14306Y9010D02*
X349332D01*
X14052Y9264D02*
X349586D01*
X13798Y9518D02*
X349840D01*
X13544Y9772D02*
X350094D01*
X13290Y10026D02*
X350602D01*
X12782Y10280D02*
X350856D01*
X12528Y10534D02*
X351110D01*
X12274Y10788D02*
X351364D01*
X12020Y11042D02*
X351618D01*
X11766Y11296D02*
X351872D01*
X11512Y11550D02*
X352126D01*
X11258Y11804D02*
X352380D01*
X11004Y12058D02*
X352634D01*
X10750Y12312D02*
X352888D01*
X10496Y12566D02*
X353142D01*
X10242Y12820D02*
X353396D01*
X9988Y13074D02*
X353650D01*
X9734Y13328D02*
X353904D01*
X9480Y13582D02*
X354158D01*
X9226Y13836D02*
X354412D01*
X8972Y14090D02*
X354666D01*
X8718Y14344D02*
X354920D01*
X8718Y14598D02*
X354920D01*
X8464Y14852D02*
X355174D01*
X8210Y15106D02*
X355428D01*
X7956Y15360D02*
X355682D01*
X7702Y15614D02*
X355936D01*
X7702Y15868D02*
X355936D01*
X7448Y16122D02*
X356190D01*
X7194Y16376D02*
X356444D01*
X6940Y16630D02*
X356698D01*
X6686Y16884D02*
X356952D01*
X6686Y17138D02*
X356952D01*
X6432Y17392D02*
X357206D01*
X6178Y17646D02*
X357460D01*
X6178Y17900D02*
X357460D01*
X5924Y18154D02*
X357714D01*
X5670Y18408D02*
X357968D01*
X5670Y18662D02*
X357968D01*
X5416Y18916D02*
X358222D01*
X5162Y19170D02*
X358476D01*
X5162Y19424D02*
X358476D01*
X4908Y19678D02*
X358730D01*
X4908Y19932D02*
X358730D01*
X4654Y20186D02*
X358984D01*
X4400Y20440D02*
X359238D01*
X4400Y20694D02*
X359238D01*
X4146Y20948D02*
X359492D01*
X4146Y21202D02*
X359492D01*
X3892Y21456D02*
X359746D01*
X3892Y21710D02*
X359746D01*
X3638Y21964D02*
X360000D01*
X3638Y22218D02*
X360000D01*
X3384Y22472D02*
X360254D01*
X3384Y22726D02*
X360254D01*
X3130Y22980D02*
X360508D01*
X3130Y23234D02*
X360508D01*
X2876Y23488D02*
X360762D01*
X2876Y23742D02*
X360762D01*
X2622Y23996D02*
X361016D01*
X2622Y24250D02*
X361016D01*
X2368Y24504D02*
X361270D01*
X2368Y24758D02*
X361270D01*
X2368Y25012D02*
X361270D01*
X2114Y25266D02*
X361524D01*
X2114Y25520D02*
X361524D01*
X1860Y25774D02*
X361778D01*
X1860Y26028D02*
X361778D01*
X1860Y26282D02*
X361778D01*
X1606Y26536D02*
X362032D01*
X1606Y26790D02*
X362032D01*
X1352Y27044D02*
X362286D01*
X1352Y27298D02*
X362286D01*
X1352Y27552D02*
X362286D01*
X1098Y27806D02*
X362540D01*
X1098Y28060D02*
X362540D01*
X1098Y28314D02*
X362540D01*
X844Y28568D02*
X362794D01*
X844Y28822D02*
X362794D01*
X844Y29076D02*
X362794D01*
X844Y29330D02*
X362794D01*
X590Y29584D02*
X363048D01*
X590Y29838D02*
X363048D01*
X590Y30092D02*
X363048D01*
X336Y30346D02*
X363302D01*
X336Y30600D02*
X363302D01*
X336Y30854D02*
X363302D01*
X336Y31108D02*
X363302D01*
X336Y31362D02*
X363302D01*
X82Y31616D02*
X363556D01*
X82Y31870D02*
X363556D01*
X82Y32124D02*
X363556D01*
X82Y32378D02*
X363556D01*
X-172Y32632D02*
X363810D01*
X-172Y32886D02*
X363810D01*
X-172Y33140D02*
X363810D01*
X-172Y33394D02*
X363810D01*
X-172Y33648D02*
X363810D01*
X-172Y33902D02*
X363810D01*
X-426Y34156D02*
X364064D01*
X-426Y34410D02*
X364064D01*
X-426Y34664D02*
X364064D01*
X-426Y34918D02*
X364064D01*
X-426Y35172D02*
X364064D01*
X-426Y35426D02*
X364064D01*
X-426Y35680D02*
X364064D01*
X-680Y35934D02*
X364064D01*
X-680Y36188D02*
X364318D01*
X-680Y36442D02*
X364318D01*
X-680Y36696D02*
X364318D01*
X-680Y36950D02*
X364318D01*
X-680Y37204D02*
X364318D01*
X-680Y37458D02*
X364318D01*
X-680Y37712D02*
X364318D01*
X-680Y37966D02*
X364318D01*
X-680Y38220D02*
X364318D01*
X-680Y38474D02*
X364318D01*
X-680Y38728D02*
X364318D01*
X-680Y38982D02*
X364318D01*
X-680Y39236D02*
X364318D01*
X-680Y39490D02*
X364318D01*
X-680Y39744D02*
X364318D01*
X-680Y39998D02*
X364318D01*
X-680Y40252D02*
X364318D01*
X-680Y40506D02*
X364318D01*
X-680Y40760D02*
X364318D01*
X-680Y41014D02*
X364318D01*
X-680Y41268D02*
X364318D01*
X-680Y41522D02*
X364318D01*
X-680Y41776D02*
X364318D01*
X-680Y42030D02*
X364318D01*
X-680Y42284D02*
X364318D01*
X-680Y42538D02*
X364318D01*
X-680Y42792D02*
X364318D01*
X-680Y43046D02*
X364318D01*
X-680Y43300D02*
X364318D01*
X-680Y43554D02*
X364318D01*
X-680Y43808D02*
X364318D01*
X-680Y44062D02*
X364318D01*
X-680Y44316D02*
X364318D01*
X-680Y44570D02*
X364318D01*
X-680Y44824D02*
X364318D01*
X-680Y45078D02*
X364318D01*
X-680Y45332D02*
X364318D01*
X-680Y45586D02*
X364318D01*
X-680Y45840D02*
X364318D01*
X-680Y46094D02*
X364318D01*
X-680Y46348D02*
X364318D01*
X-680Y46602D02*
X364318D01*
X-680Y46856D02*
X364318D01*
X-680Y47110D02*
X364318D01*
X-680Y47364D02*
X364318D01*
X-680Y47618D02*
X364318D01*
X-680Y47872D02*
X364318D01*
X-680Y48126D02*
X364318D01*
X-680Y48380D02*
X364318D01*
X-680Y48634D02*
X364318D01*
X-680Y48888D02*
X364318D01*
X-680Y49142D02*
X364318D01*
X-680Y49396D02*
X364318D01*
X-680Y49650D02*
X364318D01*
X-680Y49904D02*
X364318D01*
X-680Y50158D02*
X364318D01*
X-680Y50412D02*
X364318D01*
X-680Y50666D02*
X364318D01*
X-680Y50920D02*
X364318D01*
X-680Y51174D02*
X364318D01*
X-680Y51428D02*
X364318D01*
X-680Y51682D02*
X364318D01*
X-680Y51936D02*
X364318D01*
X-680Y52190D02*
X364318D01*
X-680Y52444D02*
X364318D01*
X-680Y52698D02*
X364318D01*
X-680Y52952D02*
X364318D01*
X-680Y53206D02*
X364318D01*
X-680Y53460D02*
X364318D01*
X-680Y53714D02*
X364318D01*
X-680Y53968D02*
X364318D01*
X-680Y54222D02*
X364318D01*
X-680Y54476D02*
X364318D01*
X-680Y54730D02*
X364318D01*
X-680Y54984D02*
X364318D01*
X-680Y55238D02*
X364318D01*
X-680Y55492D02*
X364318D01*
X-680Y55746D02*
X364318D01*
X-680Y56000D02*
X364318D01*
X-680Y56254D02*
X364318D01*
X-680Y56508D02*
X364318D01*
X-680Y56762D02*
X364318D01*
X-680Y57016D02*
X364318D01*
X-680Y57270D02*
X364318D01*
X-680Y57524D02*
X364318D01*
X-680Y57778D02*
X364318D01*
X-680Y58032D02*
X364318D01*
X-680Y58286D02*
X364318D01*
X-680Y58540D02*
X364318D01*
X-680Y58794D02*
X364318D01*
X-680Y59048D02*
X364318D01*
X-680Y59302D02*
X364318D01*
X-680Y59556D02*
X364318D01*
X-680Y59810D02*
X364318D01*
X-680Y60064D02*
X364318D01*
X-680Y60318D02*
X364318D01*
X-680Y60572D02*
X364318D01*
X-680Y60826D02*
X364318D01*
X-680Y61080D02*
X364318D01*
X-680Y61334D02*
X364318D01*
X-680Y61588D02*
X364318D01*
X-680Y61842D02*
X364318D01*
X-680Y62096D02*
X364318D01*
X-680Y62350D02*
X364318D01*
X-680Y62604D02*
X364318D01*
X-680Y62858D02*
X364318D01*
X-680Y63112D02*
X364318D01*
X-680Y63366D02*
X364318D01*
X-680Y63620D02*
X364318D01*
X-680Y63874D02*
X364318D01*
X-680Y64128D02*
X364318D01*
X-680Y64382D02*
X364318D01*
X-680Y64636D02*
X364318D01*
X-680Y64890D02*
X364318D01*
X-680Y65144D02*
X364318D01*
X-680Y65398D02*
X364318D01*
X-680Y65652D02*
X364318D01*
X-680Y65906D02*
X364318D01*
X-680Y66160D02*
X364318D01*
X-680Y66414D02*
X364318D01*
X-680Y66668D02*
X364318D01*
X-680Y66922D02*
X364318D01*
X-680Y67176D02*
X364318D01*
X-680Y67430D02*
X364318D01*
X-680Y67684D02*
X364318D01*
X-680Y67938D02*
X364318D01*
X-680Y68192D02*
X364318D01*
X-680Y68446D02*
X364318D01*
X-680Y68700D02*
X364318D01*
X-680Y68954D02*
X364318D01*
X-680Y69208D02*
X364318D01*
X-680Y69462D02*
X364318D01*
X-680Y69716D02*
X364318D01*
X-680Y69970D02*
X364318D01*
X-680Y70224D02*
X364318D01*
X-680Y70478D02*
X364318D01*
X-680Y70732D02*
X364318D01*
X-680Y70986D02*
X364318D01*
X-680Y71240D02*
X364318D01*
X-680Y71494D02*
X364318D01*
X-680Y71748D02*
X364318D01*
X-680Y72002D02*
X364318D01*
X-680Y72256D02*
X364318D01*
X-680Y72510D02*
X364318D01*
X-680Y72764D02*
X364318D01*
X-680Y73018D02*
X364318D01*
X-680Y73272D02*
X364318D01*
X-680Y73526D02*
X364318D01*
X-680Y73780D02*
X364318D01*
X-680Y74034D02*
X364318D01*
X-680Y74288D02*
X364318D01*
X-680Y74542D02*
X364318D01*
X-680Y74796D02*
X364318D01*
X-680Y75050D02*
X364318D01*
X-680Y75304D02*
X364318D01*
X-680Y75558D02*
X364318D01*
X-680Y75812D02*
X364318D01*
X-680Y76066D02*
X364318D01*
X-680Y76320D02*
X364318D01*
X-680Y76574D02*
X364318D01*
X-680Y76828D02*
X364318D01*
X-680Y77082D02*
X364318D01*
X-680Y77336D02*
X364318D01*
X-680Y77590D02*
X364318D01*
X-680Y77844D02*
X364318D01*
X-680Y78098D02*
X364318D01*
X-680Y78352D02*
X364318D01*
X-680Y78606D02*
X364318D01*
X-680Y78860D02*
X364318D01*
X-680Y79114D02*
X364318D01*
X-680Y79368D02*
X364318D01*
X-680Y79622D02*
X364318D01*
X-680Y79876D02*
X364318D01*
X-680Y80130D02*
X364318D01*
X-680Y80384D02*
X364318D01*
X-680Y80638D02*
X364318D01*
X-680Y80892D02*
X364318D01*
X-680Y81146D02*
X364318D01*
X-680Y81400D02*
X364318D01*
X-680Y81654D02*
X364318D01*
X-680Y81908D02*
X364318D01*
X-680Y82162D02*
X364318D01*
X-680Y82416D02*
X364318D01*
X-680Y82670D02*
X364318D01*
X-680Y82924D02*
X364318D01*
X-680Y83178D02*
X364318D01*
X-680Y83432D02*
X364318D01*
X-680Y83686D02*
X364318D01*
X-680Y83940D02*
X364318D01*
X-680Y84194D02*
X364318D01*
X-680Y84448D02*
X364318D01*
X-680Y84702D02*
X364318D01*
X-680Y84956D02*
X364318D01*
X-680Y85210D02*
X364318D01*
X-680Y85464D02*
X364318D01*
X-680Y85718D02*
X364318D01*
X-680Y85972D02*
X364318D01*
X-680Y86226D02*
X364318D01*
X-680Y86480D02*
X364318D01*
X-680Y86734D02*
X364318D01*
X-680Y86988D02*
X364318D01*
X-680Y87242D02*
X364318D01*
X-680Y87496D02*
X364318D01*
X-680Y87750D02*
X364318D01*
X-680Y88004D02*
X364318D01*
X-680Y88258D02*
X364318D01*
X-680Y88512D02*
X364318D01*
X-680Y88766D02*
X364318D01*
X-680Y89020D02*
X364318D01*
X-680Y89274D02*
X364318D01*
X-680Y89528D02*
X364318D01*
X-680Y89782D02*
X364318D01*
X-680Y90036D02*
X364318D01*
X-680Y90290D02*
X364318D01*
X-680Y90544D02*
X364318D01*
X-680Y90798D02*
X364318D01*
X-680Y91052D02*
X364318D01*
X-680Y91306D02*
X364318D01*
X-680Y91560D02*
X364318D01*
X-680Y91814D02*
X364318D01*
X-680Y92068D02*
X364318D01*
X-680Y92322D02*
X364318D01*
X-680Y92576D02*
X364318D01*
X-680Y92830D02*
X364318D01*
X-680Y93084D02*
X364318D01*
X-680Y93338D02*
X364318D01*
X-680Y93592D02*
X364318D01*
X-680Y93846D02*
X364318D01*
X-680Y94100D02*
X364318D01*
X-680Y94354D02*
X364318D01*
X-680Y94608D02*
X364318D01*
X-680Y94862D02*
X364318D01*
X-680Y95116D02*
X364318D01*
X-680Y95370D02*
X364318D01*
X-680Y95624D02*
X364318D01*
X-680Y95878D02*
X364318D01*
X-680Y96132D02*
X364318D01*
X-680Y96386D02*
X364318D01*
X-680Y96640D02*
X364318D01*
X-680Y96894D02*
X364318D01*
X-680Y97148D02*
X364318D01*
X-680Y97402D02*
X364318D01*
X-680Y97656D02*
X364318D01*
X-680Y97910D02*
X364318D01*
X-680Y98164D02*
X364318D01*
X-680Y98418D02*
X364318D01*
X-680Y98672D02*
X364318D01*
X-680Y98926D02*
X364318D01*
X-680Y99180D02*
X364318D01*
X-680Y99434D02*
X364318D01*
X-680Y99688D02*
X364318D01*
X-680Y99942D02*
X364318D01*
X-680Y100196D02*
X364318D01*
X-680Y100450D02*
X364318D01*
X-680Y100704D02*
X364318D01*
X-680Y100958D02*
X364318D01*
X-680Y101212D02*
X364318D01*
X-680Y101466D02*
X364318D01*
X-680Y101720D02*
X364318D01*
X-680Y101974D02*
X364318D01*
X-680Y102228D02*
X364318D01*
X-680Y102482D02*
X364318D01*
X-680Y102736D02*
X364318D01*
X-680Y102990D02*
X364318D01*
X-680Y103244D02*
X364318D01*
X-680Y103498D02*
X364318D01*
X-680Y103752D02*
X364318D01*
X-680Y104006D02*
X364318D01*
X-680Y104260D02*
X364318D01*
X-680Y104514D02*
X364318D01*
X-680Y104768D02*
X364318D01*
X-680Y105022D02*
X364318D01*
X-680Y105276D02*
X364318D01*
X-680Y105530D02*
X364318D01*
X-680Y105784D02*
X364318D01*
X-680Y106038D02*
X364318D01*
X-680Y106292D02*
X364318D01*
X-680Y106546D02*
X364318D01*
X-680Y106800D02*
X364318D01*
X-680Y107054D02*
X364318D01*
X-680Y107308D02*
X364318D01*
X-680Y107562D02*
X364318D01*
X-680Y107816D02*
X364318D01*
X-680Y108070D02*
X364318D01*
X-680Y108324D02*
X364318D01*
X-680Y108578D02*
X364318D01*
X-680Y108832D02*
X364318D01*
X-680Y109086D02*
X364318D01*
X-680Y109340D02*
X364318D01*
X-680Y109594D02*
X364318D01*
X-680Y109848D02*
X364318D01*
X-680Y110102D02*
X364318D01*
X-680Y110356D02*
X364318D01*
X-680Y110610D02*
X364318D01*
X-680Y110864D02*
X364318D01*
X-680Y111118D02*
X364318D01*
X-680Y111372D02*
X364318D01*
X-680Y111626D02*
X364318D01*
X-680Y111880D02*
X364318D01*
X-680Y112134D02*
X364318D01*
X-680Y112388D02*
X364318D01*
X-680Y112642D02*
X364318D01*
X-680Y112896D02*
X364318D01*
X-680Y113150D02*
X364318D01*
X-680Y113404D02*
X364318D01*
X-680Y113658D02*
X364318D01*
X-680Y113912D02*
X364318D01*
X-680Y114166D02*
X364318D01*
X-680Y114420D02*
X364318D01*
X-680Y114674D02*
X364318D01*
X-680Y114928D02*
X364318D01*
X-680Y115182D02*
X364318D01*
X-680Y115436D02*
X364318D01*
X-680Y115690D02*
X364318D01*
X-680Y115944D02*
X364318D01*
X-680Y116198D02*
X364318D01*
X-680Y116452D02*
X364318D01*
X-680Y116706D02*
X364318D01*
X-680Y116960D02*
X364318D01*
X-680Y117214D02*
X364318D01*
X-680Y117468D02*
X364318D01*
X-680Y117722D02*
X364318D01*
X-680Y117976D02*
X364318D01*
X-680Y118230D02*
X364318D01*
X-680Y118484D02*
X364318D01*
X-680Y118738D02*
X364318D01*
X-680Y118992D02*
X364318D01*
X-680Y119246D02*
X364318D01*
X-680Y119500D02*
X364318D01*
X-680Y119754D02*
X364318D01*
X-680Y120008D02*
X364318D01*
X-680Y120262D02*
X364318D01*
X-680Y120516D02*
X364318D01*
X-680Y120770D02*
X364318D01*
X-680Y121024D02*
X364318D01*
X-680Y121278D02*
X364318D01*
X-680Y121532D02*
X364318D01*
X-680Y121786D02*
X364318D01*
X-680Y122040D02*
X364318D01*
X-680Y122294D02*
X364318D01*
X-680Y122548D02*
X364318D01*
X-680Y122802D02*
X364318D01*
X-680Y123056D02*
X364318D01*
X-680Y123310D02*
X364318D01*
X-680Y123564D02*
X364318D01*
X-680Y123818D02*
X364318D01*
X-680Y124072D02*
X364318D01*
X-680Y124326D02*
X364318D01*
X-680Y124580D02*
X364318D01*
X-680Y124834D02*
X364318D01*
X-680Y125088D02*
X364318D01*
X-680Y125342D02*
X364318D01*
X-680Y125596D02*
X364318D01*
X-680Y125850D02*
X364318D01*
X-680Y126104D02*
X364318D01*
X-680Y126358D02*
X364318D01*
X-680Y126612D02*
X364318D01*
X-680Y126866D02*
X364318D01*
X-680Y127120D02*
X364318D01*
X-680Y127374D02*
X364318D01*
X-680Y127628D02*
X364318D01*
X-680Y127882D02*
X364318D01*
X-680Y128136D02*
X364318D01*
X-680Y128390D02*
X364318D01*
X-680Y128644D02*
X364318D01*
X-680Y128898D02*
X364318D01*
X-680Y129152D02*
X364318D01*
X-680Y129406D02*
X364318D01*
X-680Y129660D02*
X364318D01*
X-680Y129914D02*
X364318D01*
X-680Y130168D02*
X364318D01*
X-680Y130422D02*
X364318D01*
X-680Y130676D02*
X364318D01*
X-680Y130930D02*
X364318D01*
X-680Y131184D02*
X364318D01*
X-680Y131438D02*
X364318D01*
X-680Y131692D02*
X364318D01*
X-680Y131946D02*
X364318D01*
X-680Y132200D02*
X364318D01*
X-680Y132454D02*
X364318D01*
X-680Y132708D02*
X364318D01*
X-680Y132962D02*
X364318D01*
X-680Y133216D02*
X364318D01*
X-680Y133470D02*
X364318D01*
X-680Y133724D02*
X364318D01*
X-680Y133978D02*
X364318D01*
X-680Y134232D02*
X364318D01*
X-680Y134486D02*
X364318D01*
X-680Y134740D02*
X364318D01*
X-680Y134994D02*
X364318D01*
X-680Y135248D02*
X364318D01*
X-680Y135502D02*
X364318D01*
X-680Y135756D02*
X364318D01*
X-680Y136010D02*
X364318D01*
X-680Y136264D02*
X364318D01*
X-680Y136518D02*
X364318D01*
X-680Y136772D02*
X364318D01*
X-680Y137026D02*
X364318D01*
X-680Y137280D02*
X364318D01*
X-680Y137534D02*
X364318D01*
X-680Y137788D02*
X364318D01*
X-680Y138042D02*
X364318D01*
X-680Y138296D02*
X364318D01*
X-680Y138550D02*
X364318D01*
X-680Y138804D02*
X364318D01*
X-680Y139058D02*
X364318D01*
X-680Y139312D02*
X364318D01*
X-680Y139566D02*
X364318D01*
X-680Y139820D02*
X364318D01*
X-680Y140074D02*
X364318D01*
X-680Y140328D02*
X364318D01*
X-680Y140582D02*
X364318D01*
X-680Y140836D02*
X364318D01*
X-680Y141090D02*
X364318D01*
X-680Y141344D02*
X364318D01*
X-680Y141598D02*
X364318D01*
X-680Y141852D02*
X364318D01*
X-680Y142106D02*
X364318D01*
X-680Y142360D02*
X364318D01*
X-680Y142614D02*
X364318D01*
X-680Y142868D02*
X364318D01*
X-680Y143122D02*
X364318D01*
X-680Y143376D02*
X364318D01*
X-680Y143630D02*
X364318D01*
X-680Y143884D02*
X364318D01*
X-680Y144138D02*
X364318D01*
X-680Y144392D02*
X364318D01*
X-680Y144646D02*
X364318D01*
X-680Y144900D02*
X364318D01*
X-680Y145154D02*
X364318D01*
X-680Y145408D02*
X364318D01*
X-680Y145662D02*
X364318D01*
X-680Y145916D02*
X364318D01*
X-680Y146170D02*
X364318D01*
X-680Y146424D02*
X364318D01*
X244684Y146678D02*
X364318D01*
X-680D02*
X230968D01*
X249256Y146932D02*
X364318D01*
X-680D02*
X226396D01*
X252558Y147186D02*
X364318D01*
X-680D02*
X223348D01*
X255098Y147440D02*
X364318D01*
X-680D02*
X220808D01*
X257384Y147694D02*
X364318D01*
X-680D02*
X218522D01*
X259416Y147948D02*
X364318D01*
X-680D02*
X216490D01*
X261194Y148202D02*
X364318D01*
X-680D02*
X214458D01*
X262972Y148456D02*
X364318D01*
X-680D02*
X212934D01*
X264496Y148710D02*
X364318D01*
X-680D02*
X211410D01*
X266020Y148964D02*
X364318D01*
X-680D02*
X209886D01*
X267544Y149218D02*
X364318D01*
X-680D02*
X208362D01*
X268814Y149472D02*
X364318D01*
X-680D02*
X207092D01*
X270084Y149726D02*
X364318D01*
X-680D02*
X205822D01*
X271354Y149980D02*
X364318D01*
X-680D02*
X204552D01*
X272624Y150234D02*
X364318D01*
X-680D02*
X203282D01*
X273640Y150488D02*
X364318D01*
X-680D02*
X202012D01*
X274656Y150742D02*
X364318D01*
X-680D02*
X200996D01*
X275926Y150996D02*
X364318D01*
X-680D02*
X199980D01*
X276942Y151250D02*
X364318D01*
X-680D02*
X198964D01*
X277958Y151504D02*
X364318D01*
X-680D02*
X197948D01*
X278974Y151758D02*
X364318D01*
X-680D02*
X196932D01*
X279736Y152012D02*
X364318D01*
X-680D02*
X195916D01*
X280752Y152266D02*
X364318D01*
X-680D02*
X194900D01*
X281768Y152520D02*
X364318D01*
X-680D02*
X194138D01*
X282530Y152774D02*
X364318D01*
X-680D02*
X193122D01*
X283546Y153028D02*
X364318D01*
X-680D02*
X192360D01*
X284308Y153282D02*
X364318D01*
X-680D02*
X191344D01*
X285324Y153536D02*
X364318D01*
X-680D02*
X190582D01*
X286086Y153790D02*
X364318D01*
X-680D02*
X189820D01*
X286848Y154044D02*
X364318D01*
X-680D02*
X188804D01*
X287610Y154298D02*
X364318D01*
X-680D02*
X188042D01*
X288372Y154552D02*
X364318D01*
X-680D02*
X187280D01*
X289388Y154806D02*
X364318D01*
X-680D02*
X186518D01*
X289896Y155060D02*
X364318D01*
X-680D02*
X185756D01*
X290658Y155314D02*
X364318D01*
X-680D02*
X184994D01*
X291420Y155568D02*
X364318D01*
X-680D02*
X184232D01*
X292182Y155822D02*
X364318D01*
X-680D02*
X183470D01*
X292944Y156076D02*
X364318D01*
X-680D02*
X182708D01*
X293706Y156330D02*
X364318D01*
X-680D02*
X182200D01*
X294468Y156584D02*
X364318D01*
X-680D02*
X181438D01*
X294976Y156838D02*
X364318D01*
X-680D02*
X180676D01*
X295738Y157092D02*
X364318D01*
X-680D02*
X180168D01*
X296500Y157346D02*
X364318D01*
X-680D02*
X179406D01*
X297008Y157600D02*
X364318D01*
X-680D02*
X178644D01*
X297770Y157854D02*
X364318D01*
X-680D02*
X178136D01*
X298278Y158108D02*
X364318D01*
X-680D02*
X177374D01*
X299040Y158362D02*
X364318D01*
X-680D02*
X176866D01*
X299548Y158616D02*
X364318D01*
X-680D02*
X176104D01*
X300310Y158870D02*
X364318D01*
X-680D02*
X175596D01*
X300818Y159124D02*
X364318D01*
X-680D02*
X174834D01*
X301326Y159378D02*
X364318D01*
X-680D02*
X174326D01*
X302088Y159632D02*
X364318D01*
X-680D02*
X173818D01*
X302596Y159886D02*
X364318D01*
X-680D02*
X173056D01*
X303104Y160140D02*
X364318D01*
X-680D02*
X172548D01*
X303866Y160394D02*
X364318D01*
X-680D02*
X172040D01*
X304374Y160648D02*
X364318D01*
X-680D02*
X171532D01*
X304882Y160902D02*
X364318D01*
X-680D02*
X170770D01*
X305390Y161156D02*
X364318D01*
X-680D02*
X170262D01*
X306152Y161410D02*
X364318D01*
X-680D02*
X169754D01*
X306660Y161664D02*
X364318D01*
X-680D02*
X169246D01*
X307168Y161918D02*
X364318D01*
X-680D02*
X168738D01*
X307676Y162172D02*
X364318D01*
X-680D02*
X167976D01*
X308184Y162426D02*
X364318D01*
X-680D02*
X167468D01*
X308692Y162680D02*
X364318D01*
X-680D02*
X166960D01*
X309200Y162934D02*
X364318D01*
X-680D02*
X166452D01*
X309708Y163188D02*
X364318D01*
X-680D02*
X165944D01*
X310216Y163442D02*
X364318D01*
X-680D02*
X165436D01*
X310978Y163696D02*
X364318D01*
X-680D02*
X164928D01*
X311232Y163950D02*
X364318D01*
X-680D02*
X164420D01*
X311740Y164204D02*
X364318D01*
X-680D02*
X163912D01*
X312248Y164458D02*
X364318D01*
X-680D02*
X163404D01*
X312756Y164712D02*
X364318D01*
X-680D02*
X162896D01*
X313264Y164966D02*
X364318D01*
X-680D02*
X162388D01*
X313772Y165220D02*
X364318D01*
X229952D02*
X242906D01*
X-680D02*
X161880D01*
X314280Y165474D02*
X364318D01*
X225634D02*
X247224D01*
X-680D02*
X161372D01*
X314788Y165728D02*
X364318D01*
X222586D02*
X250272D01*
X-680D02*
X160864D01*
X315296Y165982D02*
X364318D01*
X220300D02*
X252558D01*
X-680D02*
X160610D01*
X315804Y166236D02*
X364318D01*
X218014D02*
X254844D01*
X-680D02*
X160102D01*
X316312Y166490D02*
X364318D01*
X216236D02*
X256622D01*
X-680D02*
X159594D01*
X316566Y166744D02*
X364318D01*
X214458D02*
X258400D01*
X-680D02*
X159086D01*
X317074Y166998D02*
X364318D01*
X212934D02*
X259924D01*
X-680D02*
X158578D01*
X317582Y167252D02*
X364318D01*
X211410D02*
X261448D01*
X-680D02*
X158324D01*
X318090Y167506D02*
X364318D01*
X210140D02*
X262972D01*
X-680D02*
X157816D01*
X318598Y167760D02*
X364318D01*
X208616D02*
X264242D01*
X-680D02*
X157308D01*
X318852Y168014D02*
X364318D01*
X207346D02*
X265512D01*
X-680D02*
X156800D01*
X319360Y168268D02*
X364318D01*
X206076D02*
X266782D01*
X-680D02*
X156292D01*
X319868Y168522D02*
X364318D01*
X205060D02*
X268052D01*
X-680D02*
X156038D01*
X320122Y168776D02*
X364318D01*
X203790D02*
X269068D01*
X-680D02*
X155530D01*
X320630Y169030D02*
X364318D01*
X202774D02*
X270084D01*
X-680D02*
X155022D01*
X321138Y169284D02*
X364318D01*
X201758D02*
X271100D01*
X-680D02*
X154768D01*
X321646Y169538D02*
X364318D01*
X200742D02*
X272116D01*
X-680D02*
X154260D01*
X321900Y169792D02*
X364318D01*
X199726D02*
X273132D01*
X-680D02*
X153752D01*
X322408Y170046D02*
X364318D01*
X198710D02*
X274148D01*
X-680D02*
X153498D01*
X322916Y170300D02*
X364318D01*
X197948D02*
X275164D01*
X-680D02*
X152990D01*
X323170Y170554D02*
X364318D01*
X196932D02*
X275926D01*
X-680D02*
X152482D01*
X323678Y170808D02*
X364318D01*
X196170D02*
X276942D01*
X-680D02*
X152228D01*
X323932Y171062D02*
X364318D01*
X195154D02*
X277704D01*
X-680D02*
X151720D01*
X324440Y171316D02*
X364318D01*
X194392D02*
X278720D01*
X-680D02*
X151212D01*
X324948Y171570D02*
X364318D01*
X193376D02*
X279482D01*
X-680D02*
X150958D01*
X325202Y171824D02*
X364318D01*
X192614D02*
X280244D01*
X-680D02*
X150450D01*
X325710Y172078D02*
X364318D01*
X191852D02*
X281006D01*
X-680D02*
X150196D01*
X325964Y172332D02*
X364318D01*
X191090D02*
X281768D01*
X-680D02*
X149688D01*
X326472Y172586D02*
X364318D01*
X190328D02*
X282530D01*
X-680D02*
X149434D01*
X326980Y172840D02*
X364318D01*
X189566D02*
X283292D01*
X-680D02*
X148926D01*
X327234Y173094D02*
X364318D01*
X188804D02*
X284054D01*
X-680D02*
X148418D01*
X327742Y173348D02*
X364318D01*
X188042D02*
X284816D01*
X-680D02*
X148164D01*
X327996Y173602D02*
X364318D01*
X187280D02*
X285578D01*
X-680D02*
X147656D01*
X328504Y173856D02*
X364318D01*
X186772D02*
X286340D01*
X-680D02*
X147402D01*
X328758Y174110D02*
X364318D01*
X186010D02*
X286848D01*
X-680D02*
X146894D01*
X329266Y174364D02*
X364318D01*
X185248D02*
X287610D01*
X-680D02*
X146640D01*
X329520Y174618D02*
X364318D01*
X184740D02*
X288372D01*
X-680D02*
X146132D01*
X330028Y174872D02*
X364318D01*
X183978D02*
X288880D01*
X-680D02*
X145878D01*
X330282Y175126D02*
X364318D01*
X183470D02*
X289642D01*
X-680D02*
X145370D01*
X330536Y175380D02*
X364318D01*
X182708D02*
X290150D01*
X-680D02*
X145116D01*
X331044Y175634D02*
X364318D01*
X182200D02*
X290912D01*
X-680D02*
X144862D01*
X331298Y175888D02*
X364318D01*
X181438D02*
X291420D01*
X-680D02*
X144354D01*
X331806Y176142D02*
X364318D01*
X180930D02*
X292182D01*
X-680D02*
X144100D01*
X332060Y176396D02*
X364318D01*
X180168D02*
X292690D01*
X-680D02*
X143592D01*
X332568Y176650D02*
X364318D01*
X179660D02*
X293198D01*
X-680D02*
X143338D01*
X332822Y176904D02*
X364318D01*
X179152D02*
X293960D01*
X-680D02*
X142830D01*
X333076Y177158D02*
X364318D01*
X178390D02*
X294468D01*
X-680D02*
X142576D01*
X333584Y177412D02*
X364318D01*
X177882D02*
X294976D01*
X-680D02*
X142322D01*
X333838Y177666D02*
X364318D01*
X177374D02*
X295738D01*
X-680D02*
X141814D01*
X334346Y177920D02*
X364318D01*
X176866D02*
X296246D01*
X-680D02*
X141560D01*
X334600Y178174D02*
X364318D01*
X176104D02*
X296754D01*
X-680D02*
X141052D01*
X334854Y178428D02*
X364318D01*
X175596D02*
X297262D01*
X-680D02*
X140798D01*
X335362Y178682D02*
X364318D01*
X175088D02*
X297770D01*
X-680D02*
X140544D01*
X335616Y178936D02*
X364318D01*
X174580D02*
X298532D01*
X-680D02*
X140036D01*
X335870Y179190D02*
X364318D01*
X174072D02*
X299040D01*
X-680D02*
X139782D01*
X336378Y179444D02*
X364318D01*
X173564D02*
X299548D01*
X-680D02*
X139528D01*
X336632Y179698D02*
X364318D01*
X173056D02*
X300056D01*
X-680D02*
X139020D01*
X336886Y179952D02*
X364318D01*
X172548D02*
X300564D01*
X-680D02*
X138766D01*
X337394Y180206D02*
X364318D01*
X171786D02*
X301072D01*
X-680D02*
X138512D01*
X337648Y180460D02*
X364318D01*
X171278D02*
X301580D01*
X-680D02*
X138258D01*
X337902Y180714D02*
X364318D01*
X170770D02*
X302088D01*
X-680D02*
X137750D01*
X338410Y180968D02*
X364318D01*
X170516D02*
X302596D01*
X-680D02*
X137496D01*
X338664Y181222D02*
X364318D01*
X170008D02*
X303104D01*
X-680D02*
X137242D01*
X338918Y181476D02*
X364318D01*
X169500D02*
X303612D01*
X-680D02*
X136734D01*
X339172Y181730D02*
X364318D01*
X168992D02*
X304120D01*
X-680D02*
X136480D01*
X339680Y181984D02*
X364318D01*
X168484D02*
X304628D01*
X-680D02*
X136226D01*
X339934Y182238D02*
X364318D01*
X167976D02*
X304882D01*
X-680D02*
X135972D01*
X340188Y182492D02*
X364318D01*
X167468D02*
X305390D01*
X-680D02*
X135464D01*
X340442Y182746D02*
X364318D01*
X166960D02*
X305898D01*
X-680D02*
X135210D01*
X340950Y183000D02*
X364318D01*
X166452D02*
X306406D01*
X-680D02*
X134956D01*
X341204Y183254D02*
X364318D01*
X166198D02*
X306914D01*
X-680D02*
X134702D01*
X341458Y183508D02*
X364318D01*
X165690D02*
X307422D01*
X-680D02*
X134194D01*
X341712Y183762D02*
X364318D01*
X165182D02*
X307676D01*
X-680D02*
X133940D01*
X342220Y184016D02*
X364318D01*
X164674D02*
X308184D01*
X-680D02*
X133686D01*
X342474Y184270D02*
X364318D01*
X164166D02*
X308692D01*
X-680D02*
X133432D01*
X342728Y184524D02*
X364318D01*
X163912D02*
X309200D01*
X-680D02*
X133178D01*
X342982Y184778D02*
X364318D01*
X163404D02*
X309454D01*
X-680D02*
X132670D01*
X343236Y185032D02*
X364318D01*
X162896D02*
X309962D01*
X-680D02*
X132416D01*
X343744Y185286D02*
X364318D01*
X162642D02*
X310470D01*
X-680D02*
X132162D01*
X343998Y185540D02*
X364318D01*
X162134D02*
X310724D01*
X-680D02*
X131908D01*
X344252Y185794D02*
X364318D01*
X161626D02*
X311232D01*
X-680D02*
X131654D01*
X344506Y186048D02*
X364318D01*
X161372D02*
X311740D01*
X-680D02*
X131146D01*
X344760Y186302D02*
X364318D01*
X160864D02*
X311994D01*
X-680D02*
X130892D01*
X345014Y186556D02*
X364318D01*
X160356D02*
X312502D01*
X-680D02*
X130638D01*
X345522Y186810D02*
X364318D01*
X160102D02*
X313010D01*
X-680D02*
X130384D01*
X345776Y187064D02*
X364318D01*
X159594D02*
X313264D01*
X-680D02*
X130130D01*
X346030Y187318D02*
X364318D01*
X159086D02*
X313772D01*
X-680D02*
X129876D01*
X346284Y187572D02*
X364318D01*
X158832D02*
X314026D01*
X-680D02*
X129622D01*
X346538Y187826D02*
X364318D01*
X158324D02*
X314534D01*
X-680D02*
X129114D01*
X346792Y188080D02*
X364318D01*
X158070D02*
X315042D01*
X-680D02*
X128860D01*
X347046Y188334D02*
X364318D01*
X157562D02*
X315296D01*
X-680D02*
X128606D01*
X347554Y188588D02*
X364318D01*
X157308D02*
X315804D01*
X-680D02*
X128352D01*
X347808Y188842D02*
X364318D01*
X156800D02*
X316058D01*
X-680D02*
X128098D01*
X348062Y189096D02*
X364318D01*
X156546D02*
X316566D01*
X-680D02*
X127844D01*
X348316Y189350D02*
X364318D01*
X156038D02*
X316820D01*
X-680D02*
X127590D01*
X348570Y189604D02*
X364318D01*
X155784D02*
X317328D01*
X-680D02*
X127336D01*
X348824Y189858D02*
X364318D01*
X155276D02*
X317582D01*
X-680D02*
X127082D01*
X349078Y190112D02*
X364318D01*
X155022D02*
X318090D01*
X-680D02*
X126828D01*
X349332Y190366D02*
X364318D01*
X154514D02*
X318344D01*
X-680D02*
X126320D01*
X349586Y190620D02*
X364318D01*
X154260D02*
X318852D01*
X-680D02*
X126066D01*
X349840Y190874D02*
X364318D01*
X153752D02*
X319106D01*
X-680D02*
X125812D01*
X350094Y191128D02*
X364318D01*
X153498D02*
X319360D01*
X-680D02*
X125558D01*
X350348Y191382D02*
X364318D01*
X152990D02*
X319868D01*
X-680D02*
X125304D01*
X350602Y191636D02*
X364318D01*
X152736D02*
X320122D01*
X-680D02*
X125050D01*
X351110Y191890D02*
X364318D01*
X152482D02*
X320630D01*
X-680D02*
X124796D01*
X351364Y192144D02*
X364318D01*
X151974D02*
X320884D01*
X-680D02*
X124542D01*
X351618Y192398D02*
X364318D01*
X151720D02*
X321392D01*
X-680D02*
X124288D01*
X351872Y192652D02*
X364318D01*
X151212D02*
X321646D01*
X-680D02*
X124034D01*
X352126Y192906D02*
X364318D01*
X150958D02*
X321900D01*
X-680D02*
X123780D01*
X352380Y193160D02*
X364318D01*
X150704D02*
X322408D01*
X-680D02*
X123526D01*
X352634Y193414D02*
X364318D01*
X150196D02*
X322662D01*
X-680D02*
X123272D01*
X352888Y193668D02*
X364318D01*
X149942D02*
X322916D01*
X-680D02*
X123018D01*
X353142Y193922D02*
X364318D01*
X149688D02*
X323424D01*
X-680D02*
X122764D01*
X353396Y194176D02*
X364318D01*
X149180D02*
X323678D01*
X-680D02*
X122510D01*
X353650Y194430D02*
X364318D01*
X148926D02*
X323932D01*
X-680D02*
X122256D01*
X353904Y194684D02*
X364318D01*
X148672D02*
X324440D01*
X-680D02*
X122002D01*
X354158Y194938D02*
X364318D01*
X148164D02*
X324694D01*
X-680D02*
X121748D01*
X354412Y195192D02*
X364318D01*
X147910D02*
X324948D01*
X-680D02*
X121494D01*
X354666Y195446D02*
X364318D01*
X147656D02*
X325456D01*
X-680D02*
X121240D01*
X354920Y195700D02*
X364318D01*
X147148D02*
X325710D01*
X-680D02*
X120986D01*
X355174Y195954D02*
X364318D01*
X146894D02*
X325964D01*
X-680D02*
X120732D01*
X355428Y196208D02*
X364318D01*
X146640D02*
X326218D01*
X-680D02*
X120478D01*
X355682Y196462D02*
X364318D01*
X146386D02*
X326726D01*
X-680D02*
X120224D01*
X355936Y196716D02*
X364318D01*
X145878D02*
X326980D01*
X-680D02*
X119970D01*
X356190Y196970D02*
X364318D01*
X145624D02*
X327234D01*
X-680D02*
X119716D01*
X356190Y197224D02*
X364318D01*
X145370D02*
X327488D01*
X-680D02*
X119462D01*
X356444Y197478D02*
X364318D01*
X145116D02*
X327996D01*
X-680D02*
X119208D01*
X356698Y197732D02*
X364318D01*
X144608D02*
X328250D01*
X-680D02*
X118954D01*
X356952Y197986D02*
X364318D01*
X144354D02*
X328504D01*
X-680D02*
X118700D01*
X357206Y198240D02*
X364318D01*
X144100D02*
X328758D01*
X-680D02*
X118446D01*
X357460Y198494D02*
X364318D01*
X143846D02*
X329266D01*
X-680D02*
X118192D01*
X357714Y198748D02*
X364318D01*
X143592D02*
X329520D01*
X-680D02*
X117938D01*
X357968Y199002D02*
X364318D01*
X143084D02*
X329774D01*
X-680D02*
X117684D01*
X358222Y199256D02*
X364318D01*
X142830D02*
X330028D01*
X-680D02*
X117684D01*
X358476Y199510D02*
X364318D01*
X142576D02*
X330282D01*
X-680D02*
X117430D01*
X358730Y199764D02*
X364318D01*
X142322D02*
X330790D01*
X-680D02*
X117176D01*
X358984Y200018D02*
X364318D01*
X142068D02*
X331044D01*
X-680D02*
X116922D01*
X359238Y200272D02*
X364318D01*
X141560D02*
X331298D01*
X-680D02*
X116668D01*
X359492Y200526D02*
X364318D01*
X141306D02*
X331552D01*
X-680D02*
X116414D01*
X359492Y200780D02*
X364318D01*
X141052D02*
X331806D01*
X-680D02*
X116160D01*
X359746Y201034D02*
X364318D01*
X140798D02*
X332060D01*
X-680D02*
X115906D01*
X360000Y201288D02*
X364318D01*
X140544D02*
X332314D01*
X-680D02*
X115652D01*
X360254Y201542D02*
X364318D01*
X140290D02*
X332822D01*
X-680D02*
X115398D01*
X360508Y201796D02*
X364318D01*
X140036D02*
X333076D01*
X-680D02*
X115398D01*
X360762Y202050D02*
X364318D01*
X139528D02*
X333330D01*
X-680D02*
X115144D01*
X361016Y202304D02*
X364318D01*
X139274D02*
X333584D01*
X-680D02*
X114890D01*
X361270Y202558D02*
X364318D01*
X139020D02*
X333838D01*
X-680D02*
X114636D01*
X361524Y202812D02*
X364318D01*
X138766D02*
X334092D01*
X-680D02*
X114382D01*
X361524Y203066D02*
X364318D01*
X138512D02*
X334346D01*
X-680D02*
X114128D01*
X361778Y203320D02*
X364318D01*
X138258D02*
X334600D01*
X-680D02*
X113874D01*
X362032Y203574D02*
X364318D01*
X138004D02*
X334854D01*
X-680D02*
X113620D01*
X362286Y203828D02*
X364318D01*
X137750D02*
X335362D01*
X-680D02*
X113620D01*
X362540Y204082D02*
X364318D01*
X137496D02*
X335616D01*
X-680D02*
X113366D01*
X362794Y204336D02*
X364318D01*
X137242D02*
X335870D01*
X-680D02*
X113112D01*
X362794Y204590D02*
X364318D01*
X136988D02*
X336124D01*
X-680D02*
X112858D01*
X363048Y204844D02*
X364318D01*
X136480D02*
X336378D01*
X-680D02*
X112604D01*
X363302Y205098D02*
X364318D01*
X136226D02*
X336632D01*
X-680D02*
X112350D01*
X363556Y205352D02*
X364318D01*
X135972D02*
X336886D01*
X-680D02*
X112096D01*
X363810Y205606D02*
X364318D01*
X135718D02*
X337140D01*
X-680D02*
X112096D01*
X364064Y205860D02*
X364318D01*
X135464D02*
X337394D01*
X-680D02*
X111842D01*
X135210Y206114D02*
X337648D01*
X-680D02*
X111588D01*
X134956Y206368D02*
X337902D01*
X-680D02*
X111334D01*
X134702Y206622D02*
X338156D01*
X-680D02*
X111080D01*
X134448Y206876D02*
X338410D01*
X-680D02*
X111080D01*
X134194Y207130D02*
X338664D01*
X-680D02*
X110826D01*
X133940Y207384D02*
X338918D01*
X-680D02*
X110572D01*
X133686Y207638D02*
X339172D01*
X-680D02*
X110318D01*
X133432Y207892D02*
X339426D01*
X-680D02*
X110064D01*
X133178Y208146D02*
X339680D01*
X-680D02*
X110064D01*
X132924Y208400D02*
X339934D01*
X-680D02*
X109810D01*
X132670Y208654D02*
X340188D01*
X-680D02*
X109556D01*
X132416Y208908D02*
X340442D01*
X-680D02*
X109302D01*
X132162Y209162D02*
X340696D01*
X-680D02*
X109048D01*
X131908Y209416D02*
X340950D01*
X-680D02*
X109048D01*
X131654Y209670D02*
X341204D01*
X-680D02*
X108794D01*
X131400Y209924D02*
X341458D01*
X-680D02*
X108540D01*
X131146Y210178D02*
X341712D01*
X-680D02*
X108286D01*
X130892Y210432D02*
X341966D01*
X-680D02*
X108032D01*
X130892Y210686D02*
X342220D01*
X-680D02*
X108032D01*
X130638Y210940D02*
X342474D01*
X-680D02*
X107778D01*
X130384Y211194D02*
X342728D01*
X-680D02*
X107524D01*
X130130Y211448D02*
X342982D01*
X-680D02*
X107270D01*
X129876Y211702D02*
X342982D01*
X-680D02*
X107270D01*
X129622Y211956D02*
X343236D01*
X-680D02*
X107016D01*
X129368Y212210D02*
X343490D01*
X-680D02*
X106762D01*
X129114Y212464D02*
X343744D01*
X-680D02*
X106508D01*
X128860Y212718D02*
X343998D01*
X-680D02*
X106508D01*
X128606Y212972D02*
X344252D01*
X-680D02*
X106254D01*
X128352Y213226D02*
X344506D01*
X-680D02*
X106000D01*
X128098Y213480D02*
X344760D01*
X-680D02*
X105746D01*
X128098Y213734D02*
X345014D01*
X-680D02*
X105746D01*
X127844Y213988D02*
X345268D01*
X-680D02*
X105492D01*
X127590Y214242D02*
X345268D01*
X-680D02*
X105238D01*
X127336Y214496D02*
X345522D01*
X-680D02*
X105238D01*
X127082Y214750D02*
X345776D01*
X-680D02*
X104984D01*
X126828Y215004D02*
X346030D01*
X-680D02*
X104730D01*
X126574Y215258D02*
X346284D01*
X-680D02*
X104476D01*
X126320Y215512D02*
X346538D01*
X-680D02*
X104476D01*
X126320Y215766D02*
X346792D01*
X-680D02*
X104222D01*
X126066Y216020D02*
X347046D01*
X-680D02*
X103968D01*
X125812Y216274D02*
X347046D01*
X-680D02*
X103968D01*
X125558Y216528D02*
X347300D01*
X-680D02*
X103714D01*
X125304Y216782D02*
X347554D01*
X-680D02*
X103460D01*
X125050Y217036D02*
X347808D01*
X-680D02*
X103206D01*
X124796Y217290D02*
X348062D01*
X-680D02*
X103206D01*
X124796Y217544D02*
X348316D01*
X-680D02*
X102952D01*
X124542Y217798D02*
X348316D01*
X-680D02*
X102698D01*
X124288Y218052D02*
X348570D01*
X-680D02*
X102698D01*
X124034Y218306D02*
X348824D01*
X-680D02*
X102444D01*
X123780Y218560D02*
X349078D01*
X-680D02*
X102190D01*
X123780Y218814D02*
X349332D01*
X-680D02*
X102190D01*
X123526Y219068D02*
X349586D01*
X-680D02*
X101936D01*
X123272Y219322D02*
X349586D01*
X-680D02*
X101682D01*
X123018Y219576D02*
X349840D01*
X-680D02*
X101682D01*
X122764Y219830D02*
X350094D01*
X-680D02*
X101428D01*
X122764Y220084D02*
X350348D01*
X-680D02*
X101174D01*
X122510Y220338D02*
X350602D01*
X-680D02*
X101174D01*
X122256Y220592D02*
X350602D01*
X-680D02*
X100920D01*
X122002Y220846D02*
X350856D01*
X-680D02*
X100666D01*
X121748Y221100D02*
X351110D01*
X-680D02*
X100666D01*
X121748Y221354D02*
X351364D01*
X-680D02*
X100412D01*
X121494Y221608D02*
X351364D01*
X-680D02*
X100158D01*
X121240Y221862D02*
X351618D01*
X-680D02*
X100158D01*
X120986Y222116D02*
X351872D01*
X-680D02*
X99904D01*
X120986Y222370D02*
X352126D01*
X-680D02*
X99650D01*
X120732Y222624D02*
X352126D01*
X-680D02*
X99650D01*
X120478Y222878D02*
X352380D01*
X-680D02*
X99396D01*
X120224Y223132D02*
X352634D01*
X-680D02*
X99396D01*
X120224Y223386D02*
X352888D01*
X-680D02*
X99142D01*
X119970Y223640D02*
X352888D01*
X-680D02*
X98888D01*
X119716Y223894D02*
X353142D01*
X-680D02*
X98888D01*
X119462Y224148D02*
X353396D01*
X-680D02*
X98634D01*
X119462Y224402D02*
X353650D01*
X-680D02*
X98634D01*
X119208Y224656D02*
X353650D01*
X-680D02*
X98380D01*
X118954Y224910D02*
X353904D01*
X-680D02*
X98126D01*
X118700Y225164D02*
X354158D01*
X-680D02*
X98126D01*
X118700Y225418D02*
X354412D01*
X-680D02*
X97872D01*
X118446Y225672D02*
X354412D01*
X-680D02*
X97618D01*
X118192Y225926D02*
X354666D01*
X-680D02*
X97618D01*
X118192Y226180D02*
X354920D01*
X-680D02*
X97364D01*
X117938Y226434D02*
X354920D01*
X-680D02*
X97364D01*
X117684Y226688D02*
X355174D01*
X-680D02*
X97110D01*
X117430Y226942D02*
X355428D01*
X-680D02*
X96856D01*
X117430Y227196D02*
X355682D01*
X-680D02*
X96856D01*
X117176Y227450D02*
X355682D01*
X-680D02*
X96602D01*
X116922Y227704D02*
X355936D01*
X-680D02*
X96602D01*
X116922Y227958D02*
X356190D01*
X-680D02*
X96348D01*
X116668Y228212D02*
X356190D01*
X-680D02*
X96348D01*
X116414Y228466D02*
X356444D01*
X-680D02*
X96094D01*
X116414Y228720D02*
X356698D01*
X-680D02*
X95840D01*
X116160Y228974D02*
X356698D01*
X-680D02*
X95840D01*
X115906Y229228D02*
X356952D01*
X-680D02*
X95586D01*
X115906Y229482D02*
X357206D01*
X-680D02*
X95586D01*
X115652Y229736D02*
X357206D01*
X-680D02*
X95332D01*
X115398Y229990D02*
X357460D01*
X-680D02*
X95078D01*
X115398Y230244D02*
X357714D01*
X-680D02*
X95078D01*
X115144Y230498D02*
X357714D01*
X-680D02*
X94824D01*
X220808Y230752D02*
X357968D01*
X114890D02*
X218268D01*
X-680D02*
X94824D01*
X221570Y231006D02*
X358222D01*
X114890D02*
X217506D01*
X-680D02*
X94570D01*
X222078Y231260D02*
X358222D01*
X114636D02*
X216744D01*
X-680D02*
X94570D01*
X222586Y231514D02*
X358476D01*
X114382D02*
X216490D01*
X-680D02*
X94316D01*
X222840Y231768D02*
X358730D01*
X114382D02*
X215982D01*
X-680D02*
X94316D01*
X223348Y232022D02*
X358730D01*
X114128D02*
X215728D01*
X-680D02*
X94062D01*
X223602Y232276D02*
X358984D01*
X113874D02*
X215474D01*
X-680D02*
X94062D01*
X223856Y232530D02*
X359238D01*
X113874D02*
X215220D01*
X-680D02*
X93808D01*
X224110Y232784D02*
X359238D01*
X113620D02*
X214966D01*
X-680D02*
X93554D01*
X224364Y233038D02*
X359492D01*
X113366D02*
X214712D01*
X-680D02*
X93554D01*
X224618Y233292D02*
X359492D01*
X113366D02*
X214458D01*
X-680D02*
X93300D01*
X224872Y233546D02*
X359746D01*
X113112D02*
X214458D01*
X-680D02*
X93300D01*
X225126Y233800D02*
X360000D01*
X113112D02*
X214204D01*
X-680D02*
X93046D01*
X225380Y234054D02*
X360000D01*
X112858D02*
X214204D01*
X-680D02*
X93046D01*
X225634Y234308D02*
X360254D01*
X112604D02*
X213950D01*
X-680D02*
X92792D01*
X225888Y234562D02*
X360254D01*
X112604D02*
X213950D01*
X-680D02*
X92792D01*
X226142Y234816D02*
X360508D01*
X112350D02*
X213950D01*
X-680D02*
X92538D01*
X226396Y235070D02*
X360762D01*
X112350D02*
X213696D01*
X-680D02*
X92538D01*
X226650Y235324D02*
X360762D01*
X112096D02*
X213696D01*
X-680D02*
X92284D01*
X292690Y235578D02*
X361016D01*
X226904D02*
X291420D01*
X111842D02*
X213696D01*
X-680D02*
X92284D01*
X293706Y235832D02*
X361270D01*
X227158D02*
X290150D01*
X111842D02*
X213696D01*
X-680D02*
X92030D01*
X294468Y236086D02*
X361270D01*
X227412D02*
X289388D01*
X111588D02*
X213696D01*
X-680D02*
X92030D01*
X294722Y236340D02*
X361524D01*
X227666D02*
X289134D01*
X111588D02*
X213696D01*
X-680D02*
X91776D01*
X295230Y236594D02*
X361524D01*
X227920D02*
X288626D01*
X111334D02*
X213696D01*
X-680D02*
X91776D01*
X295484Y236848D02*
X361778D01*
X228174D02*
X288372D01*
X111080D02*
X213696D01*
X-680D02*
X91522D01*
X295992Y237102D02*
X361778D01*
X260940D02*
X288118D01*
X228428D02*
X258400D01*
X111080D02*
X213696D01*
X-680D02*
X91522D01*
X296246Y237356D02*
X362032D01*
X261702D02*
X287610D01*
X228682D02*
X257384D01*
X110826D02*
X213696D01*
X-680D02*
X91268D01*
X296500Y237610D02*
X362286D01*
X262210D02*
X287610D01*
X228936D02*
X256876D01*
X110826D02*
X213696D01*
X-680D02*
X91268D01*
X296754Y237864D02*
X362286D01*
X262718D02*
X287356D01*
X229190D02*
X256368D01*
X110572D02*
X213696D01*
X-680D02*
X91014D01*
X297008Y238118D02*
X362540D01*
X262972D02*
X287102D01*
X229444D02*
X256114D01*
X110318D02*
X213950D01*
X-680D02*
X91014D01*
X297262Y238372D02*
X362540D01*
X263480D02*
X286848D01*
X229698D02*
X255860D01*
X110318D02*
X213950D01*
X-680D02*
X90760D01*
X297516Y238626D02*
X362794D01*
X263734D02*
X286848D01*
X229952D02*
X255606D01*
X110064D02*
X213950D01*
X-680D02*
X90760D01*
X297770Y238880D02*
X363048D01*
X263988D02*
X286594D01*
X230206D02*
X255352D01*
X110064D02*
X214204D01*
X-680D02*
X90506D01*
X298024Y239134D02*
X363048D01*
X264242D02*
X286594D01*
X230460D02*
X255098D01*
X109810D02*
X214204D01*
X-680D02*
X90506D01*
X298278Y239388D02*
X363302D01*
X264496D02*
X286340D01*
X230714D02*
X254844D01*
X109810D02*
X214458D01*
X-680D02*
X90252D01*
X298532Y239642D02*
X363302D01*
X264750D02*
X286340D01*
X230968D02*
X254590D01*
X109556D02*
X214458D01*
X-680D02*
X90252D01*
X298786Y239896D02*
X363556D01*
X265004D02*
X286340D01*
X231222D02*
X254590D01*
X109556D02*
X214712D01*
X-680D02*
X89998D01*
X299040Y240150D02*
X363556D01*
X265258D02*
X286340D01*
X231476D02*
X254336D01*
X109302D02*
X214966D01*
X-680D02*
X89998D01*
X299294Y240404D02*
X363810D01*
X265512D02*
X286086D01*
X231730D02*
X254336D01*
X109048D02*
X215220D01*
X-680D02*
X89744D01*
X299548Y240658D02*
X363810D01*
X265766D02*
X286086D01*
X231984D02*
X254082D01*
X109048D02*
X215474D01*
X-680D02*
X89744D01*
X299802Y240912D02*
X364064D01*
X266020D02*
X286086D01*
X232238D02*
X254082D01*
X108794D02*
X215728D01*
X-680D02*
X89490D01*
X300056Y241166D02*
X364064D01*
X266274D02*
X286086D01*
X232492D02*
X254082D01*
X108794D02*
X215982D01*
X-680D02*
X89490D01*
X300310Y241420D02*
X364318D01*
X266528D02*
X286086D01*
X232746D02*
X253828D01*
X108540D02*
X216236D01*
X-680D02*
X89236D01*
X300564Y241674D02*
X364318D01*
X266782D02*
X286086D01*
X233000D02*
X253828D01*
X108540D02*
X216490D01*
X-680D02*
X89236D01*
X300818Y241928D02*
X364318D01*
X267036D02*
X286086D01*
X233254D02*
X253828D01*
X108286D02*
X216744D01*
X-680D02*
X89236D01*
X301072Y242182D02*
X364318D01*
X267290D02*
X286086D01*
X233508D02*
X253828D01*
X108286D02*
X216998D01*
X-680D02*
X88982D01*
X301326Y242436D02*
X364318D01*
X267544D02*
X286086D01*
X233762D02*
X253828D01*
X108032D02*
X217252D01*
X-680D02*
X88982D01*
X301580Y242690D02*
X364318D01*
X267798D02*
X286340D01*
X234016D02*
X253828D01*
X108032D02*
X217506D01*
X-680D02*
X88728D01*
X301834Y242944D02*
X364318D01*
X268052D02*
X286340D01*
X234270D02*
X253828D01*
X107778D02*
X217760D01*
X-680D02*
X88728D01*
X302088Y243198D02*
X364318D01*
X268306D02*
X286340D01*
X234524D02*
X253828D01*
X107778D02*
X218014D01*
X-680D02*
X88474D01*
X302342Y243452D02*
X364318D01*
X268560D02*
X286594D01*
X234778D02*
X253828D01*
X107524D02*
X218268D01*
X-680D02*
X88474D01*
X302596Y243706D02*
X364318D01*
X268814D02*
X286594D01*
X235032D02*
X253828D01*
X107524D02*
X218522D01*
X-680D02*
X88220D01*
X302850Y243960D02*
X364318D01*
X269068D02*
X286594D01*
X235286D02*
X253828D01*
X107270D02*
X218776D01*
X-680D02*
X88220D01*
X303104Y244214D02*
X364318D01*
X269322D02*
X286848D01*
X235540D02*
X253828D01*
X107016D02*
X219030D01*
X-680D02*
X87966D01*
X303358Y244468D02*
X364318D01*
X269576D02*
X287102D01*
X235794D02*
X254082D01*
X107016D02*
X219284D01*
X-680D02*
X87966D01*
X303612Y244722D02*
X364318D01*
X269830D02*
X287102D01*
X236048D02*
X254082D01*
X106762D02*
X219538D01*
X-680D02*
X87966D01*
X303866Y244976D02*
X364318D01*
X270084D02*
X287356D01*
X236302D02*
X254082D01*
X106762D02*
X219792D01*
X-680D02*
X87712D01*
X304120Y245230D02*
X364318D01*
X270338D02*
X287610D01*
X236556D02*
X254336D01*
X106508D02*
X220046D01*
X-680D02*
X87712D01*
X304374Y245484D02*
X364318D01*
X270592D02*
X287864D01*
X236810D02*
X254336D01*
X106508D02*
X220300D01*
X-680D02*
X87458D01*
X304628Y245738D02*
X364318D01*
X270846D02*
X288118D01*
X237064D02*
X254590D01*
X106254D02*
X220554D01*
X-680D02*
X87458D01*
X304882Y245992D02*
X364318D01*
X271100D02*
X288372D01*
X237318D02*
X254590D01*
X106254D02*
X220808D01*
X-680D02*
X87204D01*
X305136Y246246D02*
X364318D01*
X271354D02*
X288626D01*
X237572D02*
X254844D01*
X106000D02*
X221062D01*
X-680D02*
X87204D01*
X305390Y246500D02*
X364318D01*
X271608D02*
X288880D01*
X237826D02*
X255098D01*
X106000D02*
X221316D01*
X-680D02*
X87204D01*
X305644Y246754D02*
X364318D01*
X271862D02*
X289134D01*
X238080D02*
X255352D01*
X106000D02*
X221570D01*
X-680D02*
X86950D01*
X305898Y247008D02*
X364318D01*
X272116D02*
X289388D01*
X238334D02*
X255606D01*
X105746D02*
X221824D01*
X-680D02*
X86950D01*
X306152Y247262D02*
X364318D01*
X272370D02*
X289642D01*
X238588D02*
X255860D01*
X105746D02*
X222078D01*
X-680D02*
X86696D01*
X306406Y247516D02*
X364318D01*
X272624D02*
X289896D01*
X238842D02*
X256114D01*
X105492D02*
X222332D01*
X-680D02*
X86696D01*
X306660Y247770D02*
X364318D01*
X272878D02*
X290150D01*
X239096D02*
X256368D01*
X105492D02*
X222586D01*
X-680D02*
X86442D01*
X306914Y248024D02*
X364318D01*
X273132D02*
X290404D01*
X239350D02*
X256622D01*
X105238D02*
X222840D01*
X-680D02*
X86442D01*
X307168Y248278D02*
X364318D01*
X273386D02*
X290658D01*
X239604D02*
X256876D01*
X105238D02*
X223094D01*
X-680D02*
X86442D01*
X307422Y248532D02*
X364318D01*
X273640D02*
X290912D01*
X239858D02*
X257130D01*
X104984D02*
X223348D01*
X-680D02*
X86188D01*
X307676Y248786D02*
X364318D01*
X273894D02*
X291166D01*
X240112D02*
X257384D01*
X104984D02*
X223602D01*
X-680D02*
X86188D01*
X307930Y249040D02*
X364318D01*
X274148D02*
X291420D01*
X240366D02*
X257638D01*
X104730D02*
X223856D01*
X-680D02*
X85934D01*
X308184Y249294D02*
X364318D01*
X274402D02*
X291674D01*
X240620D02*
X257892D01*
X104730D02*
X224110D01*
X-680D02*
X85934D01*
X308438Y249548D02*
X364318D01*
X274656D02*
X291928D01*
X240874D02*
X258146D01*
X104476D02*
X224364D01*
X-680D02*
X85934D01*
X308692Y249802D02*
X364318D01*
X274910D02*
X292182D01*
X241128D02*
X258400D01*
X104476D02*
X224618D01*
X-680D02*
X85680D01*
X308946Y250056D02*
X364318D01*
X275164D02*
X292436D01*
X241382D02*
X258654D01*
X104222D02*
X224872D01*
X-680D02*
X85680D01*
X309200Y250310D02*
X364318D01*
X275418D02*
X292690D01*
X241636D02*
X258908D01*
X104222D02*
X225126D01*
X-680D02*
X85426D01*
X309454Y250564D02*
X364318D01*
X275672D02*
X292944D01*
X241890D02*
X259162D01*
X103968D02*
X225380D01*
X-680D02*
X85426D01*
X309708Y250818D02*
X364318D01*
X275926D02*
X293198D01*
X242144D02*
X259416D01*
X103968D02*
X225634D01*
X-680D02*
X85426D01*
X309962Y251072D02*
X364318D01*
X276180D02*
X293452D01*
X242398D02*
X259670D01*
X103968D02*
X225888D01*
X-680D02*
X85172D01*
X310216Y251326D02*
X364318D01*
X276434D02*
X293706D01*
X242652D02*
X259924D01*
X103714D02*
X226142D01*
X-680D02*
X85172D01*
X310470Y251580D02*
X364318D01*
X276688D02*
X293960D01*
X242906D02*
X260178D01*
X103714D02*
X226396D01*
X-680D02*
X84918D01*
X310724Y251834D02*
X364318D01*
X276942D02*
X294214D01*
X243160D02*
X260432D01*
X103460D02*
X226650D01*
X-680D02*
X84918D01*
X310978Y252088D02*
X364318D01*
X277196D02*
X294468D01*
X243414D02*
X260686D01*
X103460D02*
X226904D01*
X-680D02*
X84918D01*
X311232Y252342D02*
X364318D01*
X277450D02*
X294722D01*
X243668D02*
X260940D01*
X103206D02*
X227158D01*
X-680D02*
X84664D01*
X311486Y252596D02*
X364318D01*
X277704D02*
X294976D01*
X243922D02*
X261194D01*
X103206D02*
X227412D01*
X-680D02*
X84664D01*
X311740Y252850D02*
X364318D01*
X277958D02*
X295230D01*
X244176D02*
X261448D01*
X103206D02*
X227666D01*
X-680D02*
X84664D01*
X311740Y253104D02*
X364318D01*
X278212D02*
X295484D01*
X244430D02*
X261702D01*
X102952D02*
X227920D01*
X-680D02*
X84410D01*
X311994Y253358D02*
X364318D01*
X278466D02*
X295738D01*
X244684D02*
X261956D01*
X102952D02*
X228174D01*
X-680D02*
X84410D01*
X312248Y253612D02*
X364318D01*
X278720D02*
X295992D01*
X244938D02*
X262210D01*
X102698D02*
X228428D01*
X-680D02*
X84410D01*
X312502Y253866D02*
X364318D01*
X278974D02*
X296246D01*
X245192D02*
X262464D01*
X102698D02*
X228682D01*
X-680D02*
X84156D01*
X312502Y254120D02*
X364318D01*
X279228D02*
X296500D01*
X245446D02*
X262718D01*
X102444D02*
X228936D01*
X-680D02*
X84156D01*
X312756Y254374D02*
X364318D01*
X279482D02*
X296754D01*
X245700D02*
X262972D01*
X102444D02*
X229190D01*
X-680D02*
X83902D01*
X312756Y254628D02*
X364318D01*
X279736D02*
X297008D01*
X245954D02*
X263226D01*
X102444D02*
X229444D01*
X-680D02*
X83902D01*
X313010Y254882D02*
X364318D01*
X279990D02*
X297262D01*
X246208D02*
X263480D01*
X102190D02*
X229698D01*
X-680D02*
X83902D01*
X313010Y255136D02*
X364318D01*
X280244D02*
X297516D01*
X246462D02*
X263734D01*
X102190D02*
X229952D01*
X-680D02*
X83648D01*
X313010Y255390D02*
X364318D01*
X280498D02*
X297770D01*
X246716D02*
X263988D01*
X101936D02*
X230206D01*
X-680D02*
X83648D01*
X313010Y255644D02*
X364318D01*
X280752D02*
X298024D01*
X246970D02*
X264242D01*
X101936D02*
X230460D01*
X-680D02*
X83648D01*
X313264Y255898D02*
X364318D01*
X281006D02*
X298278D01*
X247224D02*
X264496D01*
X101936D02*
X230714D01*
X-680D02*
X83394D01*
X313264Y256152D02*
X364318D01*
X281260D02*
X298532D01*
X247478D02*
X264750D01*
X101682D02*
X230968D01*
X-680D02*
X83394D01*
X313264Y256406D02*
X364318D01*
X281514D02*
X298786D01*
X247732D02*
X265004D01*
X101682D02*
X231222D01*
X-680D02*
X83394D01*
X313264Y256660D02*
X364318D01*
X281768D02*
X299040D01*
X247986D02*
X265258D01*
X101428D02*
X231476D01*
X-680D02*
X83140D01*
X313264Y256914D02*
X364318D01*
X282022D02*
X299294D01*
X248240D02*
X265512D01*
X101428D02*
X231730D01*
X-680D02*
X83140D01*
X313264Y257168D02*
X364318D01*
X282276D02*
X299548D01*
X248494D02*
X265766D01*
X101428D02*
X231984D01*
X-680D02*
X83140D01*
X313264Y257422D02*
X364318D01*
X282530D02*
X299802D01*
X248748D02*
X266020D01*
X101174D02*
X232238D01*
X-680D02*
X82886D01*
X313264Y257676D02*
X364318D01*
X282784D02*
X300056D01*
X249002D02*
X266274D01*
X101174D02*
X232492D01*
X-680D02*
X82886D01*
X313264Y257930D02*
X364318D01*
X283038D02*
X300310D01*
X249256D02*
X266528D01*
X100920D02*
X232746D01*
X-680D02*
X82886D01*
X313010Y258184D02*
X364318D01*
X283292D02*
X300564D01*
X249510D02*
X266782D01*
X100920D02*
X233000D01*
X-680D02*
X82632D01*
X313010Y258438D02*
X364318D01*
X283546D02*
X300818D01*
X249764D02*
X267036D01*
X100920D02*
X233254D01*
X-680D02*
X82632D01*
X313010Y258692D02*
X364318D01*
X283800D02*
X301072D01*
X250018D02*
X267290D01*
X100666D02*
X233508D01*
X-680D02*
X82378D01*
X312756Y258946D02*
X364318D01*
X284054D02*
X301326D01*
X250272D02*
X267544D01*
X100666D02*
X233762D01*
X-680D02*
X82378D01*
X312756Y259200D02*
X364318D01*
X284308D02*
X301580D01*
X250526D02*
X267798D01*
X100412D02*
X234016D01*
X-680D02*
X82378D01*
X312756Y259454D02*
X364318D01*
X284562D02*
X301834D01*
X250780D02*
X268052D01*
X100412D02*
X234270D01*
X-680D02*
X82378D01*
X312502Y259708D02*
X364318D01*
X284816D02*
X302088D01*
X251034D02*
X268306D01*
X100412D02*
X234524D01*
X-680D02*
X82124D01*
X312248Y259962D02*
X364318D01*
X285070D02*
X302342D01*
X251288D02*
X268560D01*
X100158D02*
X234778D01*
X-680D02*
X82124D01*
X312248Y260216D02*
X364318D01*
X285324D02*
X302596D01*
X251542D02*
X268814D01*
X100158D02*
X235032D01*
X-680D02*
X82124D01*
X311994Y260470D02*
X364318D01*
X285578D02*
X302850D01*
X251796D02*
X269068D01*
X100158D02*
X235286D01*
X-680D02*
X81870D01*
X311740Y260724D02*
X364318D01*
X285832D02*
X303104D01*
X252050D02*
X269322D01*
X99904D02*
X235540D01*
X-680D02*
X81870D01*
X311486Y260978D02*
X364318D01*
X286086D02*
X303358D01*
X252304D02*
X269576D01*
X99904D02*
X235794D01*
X-680D02*
X81870D01*
X311232Y261232D02*
X364318D01*
X286340D02*
X303612D01*
X252558D02*
X269830D01*
X99650D02*
X236048D01*
X-680D02*
X81616D01*
X310978Y261486D02*
X364318D01*
X286594D02*
X303866D01*
X252812D02*
X270084D01*
X99650D02*
X236302D01*
X-680D02*
X81616D01*
X310724Y261740D02*
X364318D01*
X286848D02*
X304120D01*
X253066D02*
X270338D01*
X99650D02*
X236556D01*
X-680D02*
X81616D01*
X310216Y261994D02*
X364318D01*
X287102D02*
X304628D01*
X253320D02*
X270592D01*
X99396D02*
X236810D01*
X-680D02*
X81362D01*
X309708Y262248D02*
X364318D01*
X287356D02*
X305136D01*
X253574D02*
X270846D01*
X99396D02*
X237064D01*
X-680D02*
X81362D01*
X308946Y262502D02*
X364318D01*
X287610D02*
X305898D01*
X253828D02*
X271100D01*
X99396D02*
X237318D01*
X-680D02*
X81362D01*
X287864Y262756D02*
X364318D01*
X254082D02*
X271354D01*
X99142D02*
X237572D01*
X-680D02*
X81108D01*
X288118Y263010D02*
X364318D01*
X254336D02*
X271608D01*
X99142D02*
X237826D01*
X-680D02*
X81108D01*
X288372Y263264D02*
X364318D01*
X254590D02*
X271862D01*
X99142D02*
X238080D01*
X-680D02*
X81108D01*
X288626Y263518D02*
X364318D01*
X254844D02*
X272116D01*
X98888D02*
X238334D01*
X-680D02*
X81108D01*
X288880Y263772D02*
X364318D01*
X255098D02*
X272370D01*
X98888D02*
X238588D01*
X-680D02*
X80854D01*
X289134Y264026D02*
X364318D01*
X255352D02*
X272624D01*
X98888D02*
X238842D01*
X-680D02*
X80854D01*
X289388Y264280D02*
X364318D01*
X255606D02*
X272878D01*
X98634D02*
X239096D01*
X-680D02*
X80854D01*
X289642Y264534D02*
X364318D01*
X255860D02*
X273132D01*
X98634D02*
X239350D01*
X-680D02*
X80600D01*
X289896Y264788D02*
X364318D01*
X256114D02*
X273386D01*
X98634D02*
X239604D01*
X-680D02*
X80600D01*
X290150Y265042D02*
X364318D01*
X256368D02*
X273640D01*
X98380D02*
X239858D01*
X-680D02*
X80600D01*
X290404Y265296D02*
X364318D01*
X256622D02*
X273894D01*
X98380D02*
X240112D01*
X-680D02*
X80346D01*
X290658Y265550D02*
X364318D01*
X256876D02*
X274148D01*
X98380D02*
X240366D01*
X-680D02*
X80346D01*
X290912Y265804D02*
X364318D01*
X257130D02*
X274402D01*
X98126D02*
X240620D01*
X-680D02*
X80346D01*
X291166Y266058D02*
X364318D01*
X257384D02*
X274656D01*
X98126D02*
X240874D01*
X-680D02*
X80346D01*
X291420Y266312D02*
X364318D01*
X257638D02*
X274910D01*
X98126D02*
X241128D01*
X-680D02*
X80092D01*
X291674Y266566D02*
X364318D01*
X257892D02*
X275164D01*
X97872D02*
X241382D01*
X-680D02*
X80092D01*
X291928Y266820D02*
X364318D01*
X258146D02*
X275418D01*
X97872D02*
X241636D01*
X-680D02*
X80092D01*
X292182Y267074D02*
X364318D01*
X258400D02*
X275672D01*
X97872D02*
X241890D01*
X-680D02*
X79838D01*
X292436Y267328D02*
X364318D01*
X258654D02*
X275926D01*
X97618D02*
X242144D01*
X-680D02*
X79838D01*
X292690Y267582D02*
X364318D01*
X258908D02*
X276180D01*
X97618D02*
X242398D01*
X-680D02*
X79838D01*
X292944Y267836D02*
X364318D01*
X259162D02*
X276434D01*
X97618D02*
X242652D01*
X-680D02*
X79838D01*
X293198Y268090D02*
X364318D01*
X259416D02*
X276688D01*
X97618D02*
X242906D01*
X-680D02*
X79584D01*
X293452Y268344D02*
X364318D01*
X259670D02*
X276942D01*
X97364D02*
X243160D01*
X-680D02*
X79584D01*
X293706Y268598D02*
X364318D01*
X259924D02*
X277196D01*
X97364D02*
X243414D01*
X-680D02*
X79584D01*
X293960Y268852D02*
X364318D01*
X260178D02*
X277450D01*
X97364D02*
X243668D01*
X-680D02*
X79584D01*
X294214Y269106D02*
X364318D01*
X260432D02*
X277704D01*
X97110D02*
X243922D01*
X-680D02*
X79330D01*
X294468Y269360D02*
X364318D01*
X260686D02*
X277958D01*
X97110D02*
X244176D01*
X-680D02*
X79330D01*
X294722Y269614D02*
X364318D01*
X260940D02*
X278212D01*
X97110D02*
X244430D01*
X-680D02*
X79330D01*
X294976Y269868D02*
X364318D01*
X261194D02*
X278466D01*
X97110D02*
X244684D01*
X-680D02*
X79330D01*
X295230Y270122D02*
X364318D01*
X261448D02*
X278720D01*
X96856D02*
X244938D01*
X-680D02*
X79076D01*
X295484Y270376D02*
X364318D01*
X261702D02*
X278974D01*
X96856D02*
X245192D01*
X-680D02*
X79076D01*
X295738Y270630D02*
X364318D01*
X261956D02*
X279228D01*
X96856D02*
X245446D01*
X-680D02*
X79076D01*
X295992Y270884D02*
X364318D01*
X262210D02*
X279482D01*
X227158D02*
X245700D01*
X96602D02*
X224364D01*
X-680D02*
X79076D01*
X296246Y271138D02*
X364318D01*
X262464D02*
X279736D01*
X227920D02*
X245954D01*
X96602D02*
X223602D01*
X-680D02*
X78822D01*
X296500Y271392D02*
X364318D01*
X262718D02*
X279990D01*
X228428D02*
X246208D01*
X96602D02*
X223094D01*
X-680D02*
X78822D01*
X296754Y271646D02*
X364318D01*
X262972D02*
X280244D01*
X228936D02*
X246462D01*
X96348D02*
X222586D01*
X-680D02*
X78822D01*
X297008Y271900D02*
X364318D01*
X263226D02*
X280498D01*
X229190D02*
X246716D01*
X96348D02*
X222332D01*
X-680D02*
X78822D01*
X297262Y272154D02*
X364318D01*
X263480D02*
X280752D01*
X229698D02*
X246970D01*
X96348D02*
X222078D01*
X-680D02*
X78568D01*
X297516Y272408D02*
X364318D01*
X263734D02*
X281006D01*
X229952D02*
X247224D01*
X96348D02*
X221824D01*
X-680D02*
X78568D01*
X297770Y272662D02*
X364318D01*
X263988D02*
X281260D01*
X230206D02*
X247478D01*
X96094D02*
X221570D01*
X-680D02*
X78568D01*
X298024Y272916D02*
X364318D01*
X264242D02*
X281514D01*
X230460D02*
X247732D01*
X96094D02*
X221316D01*
X-680D02*
X78568D01*
X298278Y273170D02*
X364318D01*
X264496D02*
X281768D01*
X230714D02*
X247986D01*
X96094D02*
X221062D01*
X-680D02*
X78314D01*
X298532Y273424D02*
X364318D01*
X264750D02*
X282022D01*
X230968D02*
X248240D01*
X96094D02*
X220808D01*
X-680D02*
X78314D01*
X298786Y273678D02*
X364318D01*
X265004D02*
X282276D01*
X231222D02*
X248494D01*
X95840D02*
X220808D01*
X-680D02*
X78314D01*
X299040Y273932D02*
X364318D01*
X265258D02*
X282530D01*
X231476D02*
X248748D01*
X95840D02*
X220554D01*
X-680D02*
X78314D01*
X299294Y274186D02*
X364318D01*
X265512D02*
X282784D01*
X231730D02*
X249002D01*
X95840D02*
X220554D01*
X-680D02*
X78060D01*
X299548Y274440D02*
X364318D01*
X265766D02*
X283038D01*
X231984D02*
X249256D01*
X95840D02*
X220300D01*
X-680D02*
X78060D01*
X299802Y274694D02*
X364318D01*
X266020D02*
X283292D01*
X232238D02*
X249510D01*
X95586D02*
X220300D01*
X-680D02*
X78060D01*
X300056Y274948D02*
X364318D01*
X266274D02*
X283546D01*
X232492D02*
X249764D01*
X95586D02*
X220300D01*
X-680D02*
X78060D01*
X300310Y275202D02*
X364318D01*
X266528D02*
X283800D01*
X232746D02*
X250018D01*
X95586D02*
X220046D01*
X-680D02*
X78060D01*
X300564Y275456D02*
X364318D01*
X266782D02*
X284054D01*
X233000D02*
X250272D01*
X95586D02*
X220046D01*
X-680D02*
X77806D01*
X300818Y275710D02*
X364318D01*
X267036D02*
X284308D01*
X233254D02*
X250526D01*
X95332D02*
X220046D01*
X-680D02*
X77806D01*
X301072Y275964D02*
X364318D01*
X267290D02*
X284562D01*
X233508D02*
X250780D01*
X95332D02*
X220046D01*
X-680D02*
X77806D01*
X301326Y276218D02*
X364318D01*
X267544D02*
X284816D01*
X233762D02*
X251034D01*
X95332D02*
X220046D01*
X-680D02*
X77806D01*
X301580Y276472D02*
X364318D01*
X267798D02*
X285070D01*
X234016D02*
X251288D01*
X95332D02*
X220046D01*
X-680D02*
X77806D01*
X301834Y276726D02*
X364318D01*
X268052D02*
X285324D01*
X234270D02*
X251542D01*
X95078D02*
X220046D01*
X-680D02*
X77552D01*
X302088Y276980D02*
X364318D01*
X268306D02*
X285578D01*
X234524D02*
X251796D01*
X95078D02*
X220046D01*
X-680D02*
X77552D01*
X302342Y277234D02*
X364318D01*
X268560D02*
X285832D01*
X234778D02*
X252050D01*
X95078D02*
X220046D01*
X-680D02*
X77552D01*
X302596Y277488D02*
X364318D01*
X268814D02*
X286086D01*
X235032D02*
X252304D01*
X95078D02*
X220046D01*
X-680D02*
X77552D01*
X302850Y277742D02*
X364318D01*
X269068D02*
X286340D01*
X235286D02*
X252558D01*
X94824D02*
X220046D01*
X-680D02*
X77298D01*
X303104Y277996D02*
X364318D01*
X269322D02*
X286594D01*
X235540D02*
X252812D01*
X94824D02*
X220046D01*
X-680D02*
X77298D01*
X303358Y278250D02*
X364318D01*
X269576D02*
X286848D01*
X235794D02*
X253066D01*
X94824D02*
X220300D01*
X-680D02*
X77298D01*
X303612Y278504D02*
X364318D01*
X269830D02*
X287102D01*
X236048D02*
X253320D01*
X94824D02*
X220300D01*
X-680D02*
X77298D01*
X303866Y278758D02*
X364318D01*
X270084D02*
X287356D01*
X236302D02*
X253574D01*
X94824D02*
X220300D01*
X-680D02*
X77298D01*
X304120Y279012D02*
X364318D01*
X270338D02*
X287610D01*
X236556D02*
X253828D01*
X94570D02*
X220554D01*
X-680D02*
X77298D01*
X304374Y279266D02*
X364318D01*
X270592D02*
X287864D01*
X236810D02*
X254082D01*
X94570D02*
X220554D01*
X-680D02*
X77044D01*
X304628Y279520D02*
X364318D01*
X270846D02*
X288118D01*
X237064D02*
X254336D01*
X94570D02*
X220808D01*
X-680D02*
X77044D01*
X304882Y279774D02*
X364318D01*
X271100D02*
X288372D01*
X237318D02*
X254590D01*
X94570D02*
X220808D01*
X-680D02*
X77044D01*
X305136Y280028D02*
X364318D01*
X271354D02*
X288626D01*
X237572D02*
X254844D01*
X94316D02*
X221062D01*
X-680D02*
X77044D01*
X305390Y280282D02*
X364318D01*
X271608D02*
X288880D01*
X237826D02*
X255098D01*
X94316D02*
X221316D01*
X-680D02*
X77044D01*
X305644Y280536D02*
X364318D01*
X271862D02*
X289134D01*
X238080D02*
X255352D01*
X94316D02*
X221570D01*
X-680D02*
X76790D01*
X305898Y280790D02*
X364318D01*
X272116D02*
X289388D01*
X238334D02*
X255606D01*
X94316D02*
X221824D01*
X-680D02*
X76790D01*
X306152Y281044D02*
X364318D01*
X272370D02*
X289642D01*
X238588D02*
X255860D01*
X94316D02*
X222078D01*
X-680D02*
X76790D01*
X306406Y281298D02*
X364318D01*
X272624D02*
X289896D01*
X238842D02*
X256114D01*
X94062D02*
X222332D01*
X-680D02*
X76790D01*
X306660Y281552D02*
X364318D01*
X272878D02*
X290150D01*
X239096D02*
X256368D01*
X94062D02*
X222586D01*
X-680D02*
X76790D01*
X306914Y281806D02*
X364318D01*
X273132D02*
X290404D01*
X239350D02*
X256622D01*
X94062D02*
X222840D01*
X-680D02*
X76536D01*
X307168Y282060D02*
X364318D01*
X273386D02*
X290658D01*
X239604D02*
X256876D01*
X94062D02*
X223094D01*
X-680D02*
X76536D01*
X307422Y282314D02*
X364318D01*
X273640D02*
X290912D01*
X239858D02*
X257130D01*
X94062D02*
X223348D01*
X-680D02*
X76536D01*
X307676Y282568D02*
X364318D01*
X273894D02*
X291166D01*
X240112D02*
X257384D01*
X93808D02*
X223602D01*
X-680D02*
X76536D01*
X307930Y282822D02*
X364318D01*
X274148D02*
X291420D01*
X240366D02*
X257638D01*
X93808D02*
X223856D01*
X-680D02*
X76536D01*
X308184Y283076D02*
X364318D01*
X274402D02*
X291674D01*
X240620D02*
X257892D01*
X93808D02*
X224110D01*
X-680D02*
X76536D01*
X308438Y283330D02*
X364318D01*
X274656D02*
X291928D01*
X240874D02*
X258146D01*
X93808D02*
X224364D01*
X-680D02*
X76282D01*
X308692Y283584D02*
X364318D01*
X274910D02*
X292182D01*
X241128D02*
X258400D01*
X93808D02*
X224618D01*
X-680D02*
X76282D01*
X308946Y283838D02*
X364318D01*
X275164D02*
X292436D01*
X241382D02*
X258654D01*
X93554D02*
X224872D01*
X-680D02*
X76282D01*
X309200Y284092D02*
X364318D01*
X275418D02*
X292690D01*
X241636D02*
X258908D01*
X93554D02*
X225126D01*
X-680D02*
X76282D01*
X309454Y284346D02*
X364318D01*
X275672D02*
X292944D01*
X241890D02*
X259162D01*
X93554D02*
X225380D01*
X-680D02*
X76282D01*
X309708Y284600D02*
X364318D01*
X275926D02*
X293198D01*
X242144D02*
X259416D01*
X93554D02*
X225634D01*
X-680D02*
X76282D01*
X309962Y284854D02*
X364318D01*
X276180D02*
X293452D01*
X242398D02*
X259670D01*
X93554D02*
X225888D01*
X-680D02*
X76028D01*
X310216Y285108D02*
X364318D01*
X276434D02*
X293706D01*
X242652D02*
X259924D01*
X93554D02*
X226142D01*
X-680D02*
X76028D01*
X310470Y285362D02*
X364318D01*
X276688D02*
X293960D01*
X242906D02*
X260178D01*
X93300D02*
X226396D01*
X-680D02*
X76028D01*
X310470Y285616D02*
X364318D01*
X276942D02*
X294214D01*
X243160D02*
X260432D01*
X93300D02*
X226650D01*
X-680D02*
X76028D01*
X310724Y285870D02*
X364318D01*
X277196D02*
X294468D01*
X243414D02*
X260686D01*
X93300D02*
X226904D01*
X-680D02*
X76028D01*
X310978Y286124D02*
X364318D01*
X277450D02*
X294722D01*
X243668D02*
X260940D01*
X93300D02*
X227158D01*
X-680D02*
X76028D01*
X310978Y286378D02*
X364318D01*
X277704D02*
X294976D01*
X243922D02*
X261194D01*
X93300D02*
X227412D01*
X-680D02*
X76028D01*
X311232Y286632D02*
X364318D01*
X277958D02*
X295230D01*
X244176D02*
X261448D01*
X93300D02*
X227666D01*
X-680D02*
X75774D01*
X311232Y286886D02*
X364318D01*
X278212D02*
X295484D01*
X244430D02*
X261702D01*
X93046D02*
X227920D01*
X-680D02*
X75774D01*
X311486Y287140D02*
X364318D01*
X278466D02*
X295738D01*
X244684D02*
X261956D01*
X93046D02*
X228174D01*
X-680D02*
X75774D01*
X311486Y287394D02*
X364318D01*
X278720D02*
X295992D01*
X244938D02*
X262210D01*
X93046D02*
X228428D01*
X-680D02*
X75774D01*
X311740Y287648D02*
X364318D01*
X278974D02*
X296246D01*
X245192D02*
X262464D01*
X93046D02*
X228682D01*
X-680D02*
X75774D01*
X311740Y287902D02*
X364318D01*
X279228D02*
X296500D01*
X245446D02*
X262718D01*
X93046D02*
X228936D01*
X-680D02*
X75774D01*
X311740Y288156D02*
X364318D01*
X279482D02*
X296754D01*
X245700D02*
X262972D01*
X93046D02*
X229190D01*
X-680D02*
X75774D01*
X311740Y288410D02*
X364318D01*
X279736D02*
X297008D01*
X245954D02*
X263226D01*
X92792D02*
X229444D01*
X-680D02*
X75520D01*
X311740Y288664D02*
X364318D01*
X279990D02*
X297262D01*
X246208D02*
X263480D01*
X92792D02*
X229698D01*
X-680D02*
X75520D01*
X311740Y288918D02*
X364318D01*
X280244D02*
X297516D01*
X246462D02*
X263734D01*
X92792D02*
X229952D01*
X-680D02*
X75520D01*
X311740Y289172D02*
X364318D01*
X280498D02*
X297770D01*
X246716D02*
X263988D01*
X92792D02*
X230206D01*
X-680D02*
X75520D01*
X311740Y289426D02*
X364318D01*
X280752D02*
X298024D01*
X246970D02*
X264242D01*
X92792D02*
X230460D01*
X-680D02*
X75520D01*
X311740Y289680D02*
X364318D01*
X281006D02*
X298278D01*
X247224D02*
X264496D01*
X92792D02*
X230714D01*
X-680D02*
X75520D01*
X311740Y289934D02*
X364318D01*
X281260D02*
X298532D01*
X247478D02*
X264750D01*
X161880D02*
X230968D01*
X92792D02*
X158832D01*
X-680D02*
X75520D01*
X311740Y290188D02*
X364318D01*
X281514D02*
X298786D01*
X247732D02*
X265004D01*
X162642D02*
X231222D01*
X92538D02*
X158070D01*
X-680D02*
X75266D01*
X311740Y290442D02*
X364318D01*
X281768D02*
X299040D01*
X247986D02*
X265258D01*
X163150D02*
X231476D01*
X92538D02*
X157562D01*
X-680D02*
X75266D01*
X311740Y290696D02*
X364318D01*
X282022D02*
X299294D01*
X248240D02*
X265512D01*
X163658D02*
X231730D01*
X92538D02*
X157054D01*
X-680D02*
X75266D01*
X311486Y290950D02*
X364318D01*
X282276D02*
X299548D01*
X248494D02*
X265766D01*
X163912D02*
X231984D01*
X92538D02*
X156800D01*
X-680D02*
X75266D01*
X311486Y291204D02*
X364318D01*
X282530D02*
X299802D01*
X248748D02*
X266020D01*
X164166D02*
X232238D01*
X92538D02*
X156546D01*
X-680D02*
X75266D01*
X311486Y291458D02*
X364318D01*
X282784D02*
X300056D01*
X249002D02*
X266274D01*
X164420D02*
X232492D01*
X92538D02*
X156292D01*
X-680D02*
X75266D01*
X311232Y291712D02*
X364318D01*
X283038D02*
X300310D01*
X249256D02*
X266528D01*
X164674D02*
X232746D01*
X92538D02*
X156038D01*
X-680D02*
X75266D01*
X311232Y291966D02*
X364318D01*
X283292D02*
X300564D01*
X249510D02*
X266782D01*
X164928D02*
X233000D01*
X92284D02*
X155784D01*
X-680D02*
X75266D01*
X310978Y292220D02*
X364318D01*
X283546D02*
X300818D01*
X249764D02*
X267036D01*
X165182D02*
X233254D01*
X92284D02*
X155530D01*
X-680D02*
X75266D01*
X310978Y292474D02*
X364318D01*
X283800D02*
X301072D01*
X250018D02*
X267290D01*
X165436D02*
X233508D01*
X92284D02*
X155530D01*
X-680D02*
X75012D01*
X310724Y292728D02*
X364318D01*
X284054D02*
X301326D01*
X250272D02*
X267544D01*
X165690D02*
X233762D01*
X92284D02*
X155276D01*
X-680D02*
X75012D01*
X310470Y292982D02*
X364318D01*
X284308D02*
X301580D01*
X250526D02*
X267798D01*
X165944D02*
X234016D01*
X92284D02*
X155276D01*
X-680D02*
X75012D01*
X310216Y293236D02*
X364318D01*
X284562D02*
X301834D01*
X250780D02*
X268052D01*
X166198D02*
X234270D01*
X92284D02*
X155022D01*
X-680D02*
X75012D01*
X309962Y293490D02*
X364318D01*
X284816D02*
X302088D01*
X251034D02*
X268306D01*
X166452D02*
X234524D01*
X92284D02*
X155022D01*
X-680D02*
X75012D01*
X309708Y293744D02*
X364318D01*
X285070D02*
X302342D01*
X251288D02*
X268560D01*
X166706D02*
X234778D01*
X92284D02*
X154768D01*
X-680D02*
X75012D01*
X309454Y293998D02*
X364318D01*
X285324D02*
X302596D01*
X251542D02*
X268814D01*
X166960D02*
X235032D01*
X92284D02*
X154768D01*
X-680D02*
X75012D01*
X308946Y294252D02*
X364318D01*
X285578D02*
X303104D01*
X251796D02*
X269068D01*
X167214D02*
X235286D01*
X92030D02*
X154768D01*
X-680D02*
X75012D01*
X308438Y294506D02*
X364318D01*
X285832D02*
X303612D01*
X252050D02*
X269322D01*
X167468D02*
X235540D01*
X92030D02*
X154514D01*
X-680D02*
X75012D01*
X307930Y294760D02*
X364318D01*
X286086D02*
X304120D01*
X252304D02*
X269576D01*
X167722D02*
X235794D01*
X92030D02*
X154514D01*
X-680D02*
X75012D01*
X306914Y295014D02*
X364318D01*
X286340D02*
X305136D01*
X252558D02*
X269830D01*
X167976D02*
X236048D01*
X92030D02*
X154514D01*
X-680D02*
X74758D01*
X286594Y295268D02*
X364318D01*
X252812D02*
X270084D01*
X168230D02*
X236302D01*
X92030D02*
X154514D01*
X-680D02*
X74758D01*
X286848Y295522D02*
X364318D01*
X253066D02*
X270338D01*
X168484D02*
X236556D01*
X92030D02*
X154514D01*
X-680D02*
X74758D01*
X287102Y295776D02*
X364318D01*
X253320D02*
X270592D01*
X168738D02*
X236810D01*
X92030D02*
X154514D01*
X-680D02*
X74758D01*
X287356Y296030D02*
X364318D01*
X253574D02*
X270846D01*
X168992D02*
X237064D01*
X92030D02*
X154514D01*
X-680D02*
X74758D01*
X287610Y296284D02*
X364318D01*
X253828D02*
X271100D01*
X202012D02*
X237318D01*
X169246D02*
X198964D01*
X92030D02*
X154514D01*
X-680D02*
X74758D01*
X287864Y296538D02*
X364318D01*
X254082D02*
X271354D01*
X202774D02*
X237572D01*
X169500D02*
X198202D01*
X91776D02*
X154514D01*
X-680D02*
X74758D01*
X288118Y296792D02*
X364318D01*
X254336D02*
X271608D01*
X203282D02*
X237826D01*
X169754D02*
X197694D01*
X91776D02*
X154768D01*
X-680D02*
X74758D01*
X288372Y297046D02*
X364318D01*
X254590D02*
X271862D01*
X203790D02*
X238080D01*
X170008D02*
X197186D01*
X91776D02*
X154768D01*
X-680D02*
X74758D01*
X288626Y297300D02*
X364318D01*
X254844D02*
X272116D01*
X204044D02*
X238334D01*
X170262D02*
X196932D01*
X91776D02*
X154768D01*
X-680D02*
X74758D01*
X288880Y297554D02*
X364318D01*
X255098D02*
X272370D01*
X204298D02*
X238588D01*
X170516D02*
X196678D01*
X91776D02*
X154768D01*
X-680D02*
X74758D01*
X289134Y297808D02*
X364318D01*
X255352D02*
X272624D01*
X204552D02*
X238842D01*
X170770D02*
X196424D01*
X91776D02*
X155022D01*
X-680D02*
X74504D01*
X289388Y298062D02*
X364318D01*
X255606D02*
X272878D01*
X204806D02*
X239096D01*
X171024D02*
X196170D01*
X91776D02*
X155022D01*
X-680D02*
X74504D01*
X289642Y298316D02*
X364318D01*
X255860D02*
X273132D01*
X205060D02*
X239350D01*
X171278D02*
X195916D01*
X91776D02*
X155276D01*
X-680D02*
X74504D01*
X289896Y298570D02*
X364318D01*
X256114D02*
X273386D01*
X205314D02*
X239604D01*
X171532D02*
X195662D01*
X91776D02*
X155276D01*
X-680D02*
X74504D01*
X290150Y298824D02*
X364318D01*
X256368D02*
X273640D01*
X205568D02*
X239858D01*
X171786D02*
X195408D01*
X91776D02*
X155530D01*
X-680D02*
X74504D01*
X290404Y299078D02*
X364318D01*
X256622D02*
X273894D01*
X230206D02*
X240112D01*
X205822D02*
X227158D01*
X172040D02*
X195408D01*
X91776D02*
X155784D01*
X-680D02*
X74504D01*
X290658Y299332D02*
X364318D01*
X256876D02*
X274148D01*
X230968D02*
X240366D01*
X206076D02*
X226396D01*
X172294D02*
X195154D01*
X91776D02*
X156038D01*
X-680D02*
X74504D01*
X290912Y299586D02*
X364318D01*
X257130D02*
X274402D01*
X231476D02*
X240620D01*
X206330D02*
X225888D01*
X172548D02*
X195154D01*
X91522D02*
X156038D01*
X-680D02*
X74504D01*
X291166Y299840D02*
X364318D01*
X257384D02*
X274656D01*
X231730D02*
X240874D01*
X206584D02*
X225380D01*
X172802D02*
X194900D01*
X91522D02*
X156292D01*
X-680D02*
X74504D01*
X291420Y300094D02*
X364318D01*
X257638D02*
X274910D01*
X232238D02*
X241128D01*
X206838D02*
X225126D01*
X173056D02*
X194900D01*
X91522D02*
X156546D01*
X-680D02*
X74504D01*
X291674Y300348D02*
X364318D01*
X257892D02*
X275164D01*
X232492D02*
X241382D01*
X207092D02*
X224872D01*
X173310D02*
X194900D01*
X91522D02*
X156800D01*
X-680D02*
X74504D01*
X291928Y300602D02*
X364318D01*
X258146D02*
X275418D01*
X232746D02*
X241636D01*
X207346D02*
X224618D01*
X173564D02*
X194900D01*
X91522D02*
X157054D01*
X-680D02*
X74504D01*
X292182Y300856D02*
X364318D01*
X258400D02*
X275672D01*
X233000D02*
X241890D01*
X207600D02*
X224364D01*
X173818D02*
X194646D01*
X91522D02*
X157308D01*
X-680D02*
X74504D01*
X292436Y301110D02*
X364318D01*
X258654D02*
X275926D01*
X233254D02*
X242144D01*
X207854D02*
X224110D01*
X174072D02*
X194646D01*
X91522D02*
X157562D01*
X-680D02*
X74504D01*
X292690Y301364D02*
X364318D01*
X258908D02*
X276180D01*
X233508D02*
X242398D01*
X208108D02*
X223856D01*
X174326D02*
X194646D01*
X91522D02*
X157816D01*
X-680D02*
X74504D01*
X292944Y301618D02*
X364318D01*
X259162D02*
X276434D01*
X233762D02*
X242652D01*
X208362D02*
X223602D01*
X174580D02*
X194646D01*
X91522D02*
X158070D01*
X-680D02*
X74504D01*
X293198Y301872D02*
X364318D01*
X259416D02*
X276688D01*
X234016D02*
X242906D01*
X208616D02*
X223602D01*
X174834D02*
X194646D01*
X91522D02*
X158324D01*
X-680D02*
X74250D01*
X293452Y302126D02*
X364318D01*
X259670D02*
X276942D01*
X234270D02*
X243160D01*
X208870D02*
X223348D01*
X175088D02*
X194646D01*
X91522D02*
X158578D01*
X-680D02*
X74250D01*
X293706Y302380D02*
X364318D01*
X259924D02*
X277196D01*
X234524D02*
X243414D01*
X209124D02*
X223348D01*
X175342D02*
X194646D01*
X91522D02*
X158832D01*
X-680D02*
X74250D01*
X293960Y302634D02*
X364318D01*
X260178D02*
X277450D01*
X234778D02*
X243668D01*
X209378D02*
X223094D01*
X175596D02*
X194646D01*
X91522D02*
X159086D01*
X-680D02*
X74250D01*
X294214Y302888D02*
X364318D01*
X260432D02*
X277704D01*
X235032D02*
X243922D01*
X209632D02*
X223094D01*
X175850D02*
X194646D01*
X91522D02*
X159340D01*
X-680D02*
X74250D01*
X294468Y303142D02*
X364318D01*
X260686D02*
X277958D01*
X235286D02*
X244176D01*
X209886D02*
X223094D01*
X176104D02*
X194646D01*
X91522D02*
X159594D01*
X-680D02*
X74250D01*
X294722Y303396D02*
X364318D01*
X260940D02*
X278212D01*
X235540D02*
X244430D01*
X210140D02*
X222840D01*
X176358D02*
X194900D01*
X91522D02*
X159848D01*
X-680D02*
X74250D01*
X294976Y303650D02*
X364318D01*
X261194D02*
X278466D01*
X235794D02*
X244684D01*
X210394D02*
X222840D01*
X176612D02*
X194900D01*
X91268D02*
X160102D01*
X-680D02*
X74250D01*
X295230Y303904D02*
X364318D01*
X261448D02*
X278720D01*
X236048D02*
X244938D01*
X210648D02*
X222840D01*
X176866D02*
X194900D01*
X91268D02*
X160356D01*
X-680D02*
X74250D01*
X295484Y304158D02*
X364318D01*
X261702D02*
X278974D01*
X236302D02*
X245192D01*
X210902D02*
X222840D01*
X177120D02*
X195154D01*
X91268D02*
X160610D01*
X-680D02*
X74250D01*
X295738Y304412D02*
X364318D01*
X261956D02*
X279228D01*
X236556D02*
X245446D01*
X211156D02*
X222840D01*
X177374D02*
X195154D01*
X91268D02*
X160864D01*
X-680D02*
X74250D01*
X295992Y304666D02*
X364318D01*
X262210D02*
X279482D01*
X236810D02*
X245700D01*
X211410D02*
X222840D01*
X177628D02*
X195408D01*
X91268D02*
X161118D01*
X-680D02*
X74250D01*
X296246Y304920D02*
X364318D01*
X262464D02*
X279736D01*
X237064D02*
X245954D01*
X211664D02*
X222840D01*
X177882D02*
X195408D01*
X91268D02*
X161372D01*
X-680D02*
X74250D01*
X296500Y305174D02*
X364318D01*
X262718D02*
X279990D01*
X237318D02*
X246208D01*
X211918D02*
X222840D01*
X178136D02*
X195662D01*
X91268D02*
X161626D01*
X-680D02*
X74250D01*
X296754Y305428D02*
X364318D01*
X262972D02*
X280244D01*
X237572D02*
X246462D01*
X212172D02*
X222840D01*
X178390D02*
X195916D01*
X91268D02*
X161880D01*
X-680D02*
X74250D01*
X297008Y305682D02*
X364318D01*
X263226D02*
X280498D01*
X237826D02*
X246716D01*
X212426D02*
X222840D01*
X178644D02*
X195916D01*
X91268D02*
X162134D01*
X-680D02*
X74250D01*
X297262Y305936D02*
X364318D01*
X263480D02*
X280752D01*
X238080D02*
X246970D01*
X212680D02*
X222840D01*
X178898D02*
X196170D01*
X91268D02*
X162388D01*
X-680D02*
X74250D01*
X297516Y306190D02*
X364318D01*
X263734D02*
X281006D01*
X238334D02*
X247224D01*
X212934D02*
X223094D01*
X179152D02*
X196424D01*
X91268D02*
X162642D01*
X-680D02*
X74250D01*
X297770Y306444D02*
X364318D01*
X263988D02*
X281260D01*
X238588D02*
X247478D01*
X213188D02*
X223094D01*
X179406D02*
X196678D01*
X91268D02*
X162896D01*
X-680D02*
X74250D01*
X298024Y306698D02*
X364318D01*
X264242D02*
X281514D01*
X238842D02*
X247732D01*
X213442D02*
X223094D01*
X179660D02*
X196932D01*
X91268D02*
X163150D01*
X-680D02*
X74250D01*
X298278Y306952D02*
X364318D01*
X264496D02*
X281768D01*
X239096D02*
X247986D01*
X213696D02*
X223348D01*
X179914D02*
X197186D01*
X91268D02*
X163404D01*
X-680D02*
X74250D01*
X298532Y307206D02*
X364318D01*
X264750D02*
X282022D01*
X239350D02*
X248240D01*
X213950D02*
X223348D01*
X180168D02*
X197440D01*
X91268D02*
X163658D01*
X-680D02*
X74250D01*
X298786Y307460D02*
X364318D01*
X265004D02*
X282276D01*
X239604D02*
X248494D01*
X214204D02*
X223348D01*
X180422D02*
X197694D01*
X91268D02*
X163912D01*
X-680D02*
X74250D01*
X299040Y307714D02*
X364318D01*
X265258D02*
X282530D01*
X239858D02*
X248748D01*
X214458D02*
X223602D01*
X180676D02*
X197948D01*
X91268D02*
X164166D01*
X-680D02*
X74250D01*
X299294Y307968D02*
X364318D01*
X265512D02*
X282784D01*
X240112D02*
X249002D01*
X214712D02*
X223856D01*
X180930D02*
X198202D01*
X91268D02*
X164420D01*
X-680D02*
X74250D01*
X299548Y308222D02*
X364318D01*
X265766D02*
X283038D01*
X240366D02*
X249256D01*
X214966D02*
X223856D01*
X181184D02*
X198456D01*
X91268D02*
X164674D01*
X-680D02*
X74250D01*
X299802Y308476D02*
X364318D01*
X266020D02*
X283292D01*
X240620D02*
X249510D01*
X215220D02*
X224110D01*
X181438D02*
X198710D01*
X91268D02*
X164928D01*
X-680D02*
X74250D01*
X300056Y308730D02*
X364318D01*
X266274D02*
X283546D01*
X240874D02*
X249764D01*
X215474D02*
X224364D01*
X181692D02*
X198964D01*
X91268D02*
X165182D01*
X-680D02*
X74250D01*
X300310Y308984D02*
X364318D01*
X266528D02*
X283800D01*
X241128D02*
X250018D01*
X215728D02*
X224618D01*
X181946D02*
X199218D01*
X91268D02*
X165436D01*
X-680D02*
X74250D01*
X300564Y309238D02*
X364318D01*
X266782D02*
X284054D01*
X241382D02*
X250272D01*
X215982D02*
X224872D01*
X182200D02*
X199472D01*
X91268D02*
X165690D01*
X-680D02*
X74250D01*
X300818Y309492D02*
X364318D01*
X267036D02*
X284308D01*
X241636D02*
X250526D01*
X216236D02*
X225126D01*
X182454D02*
X199726D01*
X91268D02*
X165944D01*
X-680D02*
X74250D01*
X301072Y309746D02*
X364318D01*
X267290D02*
X284562D01*
X241890D02*
X250780D01*
X216490D02*
X225380D01*
X182708D02*
X199980D01*
X91268D02*
X166198D01*
X-680D02*
X74250D01*
X301326Y310000D02*
X364318D01*
X267544D02*
X284816D01*
X242144D02*
X251034D01*
X216744D02*
X225634D01*
X182962D02*
X200234D01*
X91268D02*
X166452D01*
X-680D02*
X74250D01*
X301580Y310254D02*
X364318D01*
X267798D02*
X285070D01*
X242398D02*
X251288D01*
X216998D02*
X225888D01*
X183216D02*
X200488D01*
X91268D02*
X166706D01*
X-680D02*
X74250D01*
X301834Y310508D02*
X364318D01*
X268052D02*
X285324D01*
X242652D02*
X251542D01*
X217252D02*
X226142D01*
X183470D02*
X200742D01*
X91268D02*
X166960D01*
X-680D02*
X74250D01*
X302088Y310762D02*
X364318D01*
X268306D02*
X285578D01*
X242906D02*
X251796D01*
X217506D02*
X226396D01*
X183724D02*
X200996D01*
X91268D02*
X167214D01*
X-680D02*
X74250D01*
X302342Y311016D02*
X364318D01*
X268560D02*
X285832D01*
X243160D02*
X252050D01*
X217760D02*
X226650D01*
X183978D02*
X201250D01*
X91268D02*
X167468D01*
X-680D02*
X74250D01*
X302596Y311270D02*
X364318D01*
X268814D02*
X286086D01*
X243414D02*
X252304D01*
X218014D02*
X226904D01*
X184232D02*
X201504D01*
X91268D02*
X167722D01*
X-680D02*
X74250D01*
X302850Y311524D02*
X364318D01*
X269068D02*
X286340D01*
X243668D02*
X252558D01*
X218268D02*
X227158D01*
X184486D02*
X201758D01*
X91268D02*
X167976D01*
X-680D02*
X74250D01*
X303104Y311778D02*
X364318D01*
X269322D02*
X286594D01*
X243922D02*
X252812D01*
X218522D02*
X227412D01*
X184740D02*
X202012D01*
X91268D02*
X168230D01*
X-680D02*
X74250D01*
X303358Y312032D02*
X364318D01*
X269576D02*
X286848D01*
X244176D02*
X253066D01*
X218776D02*
X227666D01*
X184994D02*
X202266D01*
X91268D02*
X168484D01*
X-680D02*
X74250D01*
X303612Y312286D02*
X364318D01*
X269830D02*
X287102D01*
X244430D02*
X253320D01*
X219030D02*
X227920D01*
X185248D02*
X202520D01*
X91268D02*
X168738D01*
X-680D02*
X74250D01*
X303866Y312540D02*
X364318D01*
X270084D02*
X287356D01*
X244684D02*
X253574D01*
X219284D02*
X228174D01*
X185502D02*
X202774D01*
X91268D02*
X168992D01*
X-680D02*
X74250D01*
X304120Y312794D02*
X364318D01*
X270338D02*
X287610D01*
X244938D02*
X253828D01*
X219538D02*
X228428D01*
X185756D02*
X203028D01*
X91268D02*
X169246D01*
X-680D02*
X74250D01*
X304374Y313048D02*
X364318D01*
X270592D02*
X287864D01*
X245192D02*
X254082D01*
X219792D02*
X228682D01*
X186010D02*
X203282D01*
X91268D02*
X169500D01*
X-680D02*
X74250D01*
X304628Y313302D02*
X364318D01*
X270846D02*
X288118D01*
X245446D02*
X254336D01*
X220046D02*
X228936D01*
X186264D02*
X203536D01*
X91268D02*
X169754D01*
X-680D02*
X74250D01*
X304882Y313556D02*
X364318D01*
X271100D02*
X288372D01*
X245700D02*
X254590D01*
X220300D02*
X229190D01*
X186518D02*
X203790D01*
X91268D02*
X170008D01*
X-680D02*
X74250D01*
X305136Y313810D02*
X364318D01*
X271354D02*
X288626D01*
X245954D02*
X254844D01*
X220554D02*
X229444D01*
X186772D02*
X204044D01*
X91268D02*
X170262D01*
X-680D02*
X74250D01*
X305390Y314064D02*
X364318D01*
X271608D02*
X288880D01*
X246208D02*
X255098D01*
X220808D02*
X229698D01*
X187026D02*
X204298D01*
X91268D02*
X170516D01*
X-680D02*
X74250D01*
X305644Y314318D02*
X364318D01*
X271862D02*
X289134D01*
X246462D02*
X255352D01*
X221062D02*
X229952D01*
X187280D02*
X204552D01*
X91268D02*
X170770D01*
X-680D02*
X74250D01*
X305898Y314572D02*
X364318D01*
X272116D02*
X289388D01*
X246716D02*
X255606D01*
X221316D02*
X230206D01*
X187534D02*
X204806D01*
X91268D02*
X171024D01*
X-680D02*
X74250D01*
X306152Y314826D02*
X364318D01*
X272370D02*
X289642D01*
X246970D02*
X255860D01*
X221570D02*
X230460D01*
X187788D02*
X205060D01*
X91268D02*
X171278D01*
X-680D02*
X74250D01*
X306406Y315080D02*
X364318D01*
X272624D02*
X289896D01*
X247224D02*
X256114D01*
X221824D02*
X230714D01*
X188042D02*
X205314D01*
X91268D02*
X171532D01*
X-680D02*
X74250D01*
X306660Y315334D02*
X364318D01*
X272878D02*
X290150D01*
X247478D02*
X256368D01*
X222078D02*
X230968D01*
X188296D02*
X205568D01*
X91268D02*
X171786D01*
X-680D02*
X74250D01*
X306914Y315588D02*
X364318D01*
X273132D02*
X290404D01*
X247732D02*
X256622D01*
X222332D02*
X231222D01*
X188550D02*
X205822D01*
X91268D02*
X172040D01*
X-680D02*
X74250D01*
X307168Y315842D02*
X364318D01*
X273386D02*
X290658D01*
X247986D02*
X256876D01*
X222586D02*
X231476D01*
X188804D02*
X206076D01*
X91268D02*
X172294D01*
X-680D02*
X74250D01*
X307422Y316096D02*
X364318D01*
X273640D02*
X290912D01*
X248240D02*
X257130D01*
X222840D02*
X231730D01*
X189058D02*
X206330D01*
X91268D02*
X172548D01*
X-680D02*
X74250D01*
X307676Y316350D02*
X364318D01*
X273894D02*
X291166D01*
X248494D02*
X257384D01*
X223094D02*
X231984D01*
X189312D02*
X206584D01*
X91268D02*
X172802D01*
X-680D02*
X74250D01*
X307930Y316604D02*
X364318D01*
X274148D02*
X291420D01*
X248748D02*
X257638D01*
X223348D02*
X232238D01*
X189566D02*
X206838D01*
X91268D02*
X173056D01*
X-680D02*
X74250D01*
X308184Y316858D02*
X364318D01*
X274402D02*
X291674D01*
X248748D02*
X257892D01*
X223602D02*
X232492D01*
X189820D02*
X207092D01*
X91268D02*
X173310D01*
X-680D02*
X74250D01*
X308438Y317112D02*
X364318D01*
X274656D02*
X291928D01*
X249002D02*
X258146D01*
X223856D02*
X232746D01*
X190074D02*
X207346D01*
X91522D02*
X173564D01*
X-680D02*
X74250D01*
X308692Y317366D02*
X364318D01*
X274910D02*
X292182D01*
X249256D02*
X258400D01*
X224110D02*
X233000D01*
X190328D02*
X207600D01*
X91522D02*
X173818D01*
X-680D02*
X74250D01*
X308946Y317620D02*
X364318D01*
X275164D02*
X292436D01*
X249256D02*
X258654D01*
X224364D02*
X233254D01*
X190582D02*
X207854D01*
X91522D02*
X174072D01*
X-680D02*
X74250D01*
X309200Y317874D02*
X364318D01*
X275418D02*
X292690D01*
X249510D02*
X258908D01*
X224618D02*
X233508D01*
X190836D02*
X208108D01*
X91522D02*
X174326D01*
X-680D02*
X74250D01*
X309454Y318128D02*
X364318D01*
X275672D02*
X292944D01*
X249510D02*
X259162D01*
X224872D02*
X233762D01*
X191090D02*
X208362D01*
X91522D02*
X174580D01*
X-680D02*
X74250D01*
X309708Y318382D02*
X364318D01*
X275926D02*
X293198D01*
X249764D02*
X259416D01*
X225126D02*
X234016D01*
X191344D02*
X208616D01*
X91522D02*
X174834D01*
X-680D02*
X74250D01*
X309962Y318636D02*
X364318D01*
X276180D02*
X293452D01*
X249764D02*
X259670D01*
X225380D02*
X234270D01*
X191598D02*
X208870D01*
X91522D02*
X175088D01*
X-680D02*
X74250D01*
X310216Y318890D02*
X364318D01*
X276434D02*
X293706D01*
X249764D02*
X259924D01*
X225634D02*
X234524D01*
X191852D02*
X209124D01*
X91522D02*
X175342D01*
X-680D02*
X74250D01*
X310470Y319144D02*
X364318D01*
X276688D02*
X293960D01*
X249764D02*
X260178D01*
X225888D02*
X234778D01*
X192106D02*
X209378D01*
X91522D02*
X175596D01*
X-680D02*
X74504D01*
X310724Y319398D02*
X364318D01*
X276688D02*
X294214D01*
X249764D02*
X260432D01*
X226142D02*
X235032D01*
X192360D02*
X209632D01*
X91522D02*
X175850D01*
X-680D02*
X74504D01*
X310978Y319652D02*
X364318D01*
X276942D02*
X294468D01*
X250018D02*
X260686D01*
X226396D02*
X235286D01*
X192614D02*
X209886D01*
X91522D02*
X176104D01*
X-680D02*
X74504D01*
X311232Y319906D02*
X364318D01*
X277196D02*
X294722D01*
X250018D02*
X260940D01*
X226650D02*
X235540D01*
X192868D02*
X210140D01*
X91522D02*
X176358D01*
X-680D02*
X74504D01*
X311486Y320160D02*
X364318D01*
X277450D02*
X294976D01*
X250018D02*
X261194D01*
X226904D02*
X235794D01*
X193122D02*
X210394D01*
X91522D02*
X176612D01*
X-680D02*
X74504D01*
X311740Y320414D02*
X364318D01*
X277450D02*
X295230D01*
X250018D02*
X261448D01*
X227158D02*
X236048D01*
X193376D02*
X210648D01*
X91522D02*
X176866D01*
X-680D02*
X74504D01*
X311994Y320668D02*
X364318D01*
X277704D02*
X295484D01*
X250018D02*
X261702D01*
X227412D02*
X236302D01*
X193630D02*
X210902D01*
X91522D02*
X177120D01*
X-680D02*
X74504D01*
X312248Y320922D02*
X364318D01*
X277704D02*
X295738D01*
X250018D02*
X261956D01*
X227666D02*
X236556D01*
X193884D02*
X211156D01*
X91522D02*
X177374D01*
X-680D02*
X74504D01*
X312502Y321176D02*
X364318D01*
X277704D02*
X295992D01*
X249764D02*
X262210D01*
X227920D02*
X236810D01*
X194138D02*
X211410D01*
X91522D02*
X177628D01*
X-680D02*
X74504D01*
X312756Y321430D02*
X364318D01*
X277958D02*
X296246D01*
X249764D02*
X262464D01*
X228174D02*
X237064D01*
X194392D02*
X211664D01*
X91776D02*
X177882D01*
X-680D02*
X74504D01*
X313010Y321684D02*
X364318D01*
X277958D02*
X296500D01*
X249764D02*
X262718D01*
X228428D02*
X237318D01*
X194646D02*
X211918D01*
X91776D02*
X178136D01*
X-680D02*
X74504D01*
X313264Y321938D02*
X364318D01*
X277958D02*
X296754D01*
X249764D02*
X262972D01*
X228682D02*
X237572D01*
X194900D02*
X212172D01*
X91776D02*
X178390D01*
X-680D02*
X74504D01*
X313518Y322192D02*
X364318D01*
X277958D02*
X297008D01*
X249510D02*
X263226D01*
X228936D02*
X237826D01*
X195154D02*
X212426D01*
X91776D02*
X178644D01*
X-680D02*
X74504D01*
X313772Y322446D02*
X364318D01*
X277958D02*
X297262D01*
X249510D02*
X263480D01*
X229190D02*
X238080D01*
X195408D02*
X212680D01*
X91776D02*
X178898D01*
X-680D02*
X74504D01*
X314026Y322700D02*
X364318D01*
X277958D02*
X297516D01*
X249256D02*
X263734D01*
X229444D02*
X238334D01*
X195662D02*
X212934D01*
X91776D02*
X179152D01*
X-680D02*
X74504D01*
X314280Y322954D02*
X364318D01*
X278212D02*
X297770D01*
X249256D02*
X263988D01*
X229698D02*
X238588D01*
X195916D02*
X213188D01*
X91776D02*
X179406D01*
X-680D02*
X74758D01*
X314534Y323208D02*
X364318D01*
X277958D02*
X298024D01*
X249002D02*
X264242D01*
X229952D02*
X238842D01*
X196170D02*
X213442D01*
X91776D02*
X179660D01*
X-680D02*
X74758D01*
X314788Y323462D02*
X364318D01*
X277958D02*
X298278D01*
X249002D02*
X264496D01*
X230206D02*
X239096D01*
X196424D02*
X213696D01*
X91776D02*
X179914D01*
X-680D02*
X74758D01*
X315042Y323716D02*
X364318D01*
X277958D02*
X298532D01*
X248748D02*
X264750D01*
X230460D02*
X239350D01*
X196678D02*
X213950D01*
X91776D02*
X180168D01*
X-680D02*
X74758D01*
X315296Y323970D02*
X364318D01*
X277958D02*
X298786D01*
X248494D02*
X265004D01*
X230714D02*
X239604D01*
X196932D02*
X214204D01*
X91776D02*
X180422D01*
X-680D02*
X74758D01*
X315550Y324224D02*
X364318D01*
X277958D02*
X299040D01*
X248240D02*
X265258D01*
X230968D02*
X239858D01*
X197186D02*
X214458D01*
X92030D02*
X180676D01*
X-680D02*
X74758D01*
X315804Y324478D02*
X364318D01*
X277958D02*
X299294D01*
X247986D02*
X265512D01*
X231222D02*
X240112D01*
X197440D02*
X214712D01*
X92030D02*
X180930D01*
X-680D02*
X74758D01*
X316058Y324732D02*
X364318D01*
X277704D02*
X299548D01*
X247732D02*
X265766D01*
X231476D02*
X240366D01*
X197694D02*
X214966D01*
X92030D02*
X181184D01*
X-680D02*
X74758D01*
X316312Y324986D02*
X364318D01*
X277704D02*
X299802D01*
X247478D02*
X266020D01*
X231730D02*
X240874D01*
X197948D02*
X215220D01*
X92030D02*
X181438D01*
X-680D02*
X74758D01*
X316566Y325240D02*
X364318D01*
X277704D02*
X300056D01*
X246970D02*
X266274D01*
X231984D02*
X241128D01*
X198202D02*
X215474D01*
X92030D02*
X181692D01*
X-680D02*
X74758D01*
X316820Y325494D02*
X364318D01*
X277450D02*
X300310D01*
X246462D02*
X266528D01*
X232238D02*
X241636D01*
X198456D02*
X215728D01*
X92030D02*
X181946D01*
X-680D02*
X74758D01*
X316820Y325748D02*
X364318D01*
X277450D02*
X300564D01*
X245954D02*
X266782D01*
X232492D02*
X242398D01*
X198710D02*
X215982D01*
X92030D02*
X182200D01*
X-680D02*
X74758D01*
X317074Y326002D02*
X364318D01*
X277196D02*
X300818D01*
X244938D02*
X267036D01*
X232746D02*
X243414D01*
X198964D02*
X216236D01*
X92030D02*
X182454D01*
X-680D02*
X75012D01*
X317328Y326256D02*
X364318D01*
X277196D02*
X301072D01*
X233000D02*
X267290D01*
X199218D02*
X216490D01*
X92030D02*
X182708D01*
X-680D02*
X75012D01*
X317328Y326510D02*
X364318D01*
X276942D02*
X301326D01*
X233254D02*
X267544D01*
X199472D02*
X216744D01*
X92030D02*
X182962D01*
X-680D02*
X75012D01*
X317582Y326764D02*
X364318D01*
X276688D02*
X301580D01*
X233508D02*
X267798D01*
X199726D02*
X216998D01*
X92284D02*
X183216D01*
X-680D02*
X75012D01*
X317582Y327018D02*
X364318D01*
X276434D02*
X301834D01*
X233762D02*
X268052D01*
X199980D02*
X217252D01*
X92284D02*
X183470D01*
X-680D02*
X75012D01*
X317836Y327272D02*
X364318D01*
X276180D02*
X302088D01*
X234016D02*
X268306D01*
X200234D02*
X217506D01*
X92284D02*
X183724D01*
X-680D02*
X75012D01*
X317836Y327526D02*
X364318D01*
X275926D02*
X302342D01*
X234270D02*
X268560D01*
X200488D02*
X217760D01*
X92284D02*
X183978D01*
X-680D02*
X75012D01*
X318090Y327780D02*
X364318D01*
X275672D02*
X302596D01*
X234524D02*
X268814D01*
X200742D02*
X218014D01*
X92284D02*
X184232D01*
X-680D02*
X75012D01*
X318090Y328034D02*
X364318D01*
X275164D02*
X302850D01*
X234778D02*
X269322D01*
X200996D02*
X218268D01*
X92284D02*
X184486D01*
X-680D02*
X75012D01*
X318090Y328288D02*
X364318D01*
X274656D02*
X303104D01*
X235032D02*
X269830D01*
X201250D02*
X218522D01*
X92284D02*
X184740D01*
X-680D02*
X75266D01*
X318090Y328542D02*
X364318D01*
X274148D02*
X303358D01*
X235286D02*
X270338D01*
X201504D02*
X218776D01*
X92284D02*
X184994D01*
X-680D02*
X75266D01*
X318090Y328796D02*
X364318D01*
X273132D02*
X303612D01*
X235540D02*
X271354D01*
X201758D02*
X219030D01*
X92538D02*
X185248D01*
X-680D02*
X75266D01*
X318090Y329050D02*
X364318D01*
X235794D02*
X303866D01*
X202012D02*
X219284D01*
X92538D02*
X185502D01*
X-680D02*
X75266D01*
X318090Y329304D02*
X364318D01*
X236048D02*
X304120D01*
X202266D02*
X219538D01*
X92538D02*
X185756D01*
X-680D02*
X75266D01*
X318090Y329558D02*
X364318D01*
X236302D02*
X304374D01*
X202520D02*
X219792D01*
X92538D02*
X186010D01*
X-680D02*
X75266D01*
X318090Y329812D02*
X364318D01*
X236556D02*
X304628D01*
X202774D02*
X220046D01*
X92538D02*
X186264D01*
X-680D02*
X75266D01*
X318090Y330066D02*
X364318D01*
X236810D02*
X304882D01*
X203028D02*
X220300D01*
X168230D02*
X186518D01*
X92538D02*
X165182D01*
X-680D02*
X75266D01*
X318090Y330320D02*
X364318D01*
X237064D02*
X305136D01*
X203282D02*
X220554D01*
X168992D02*
X186772D01*
X92538D02*
X164420D01*
X-680D02*
X75266D01*
X318090Y330574D02*
X364318D01*
X237318D02*
X305390D01*
X203536D02*
X220808D01*
X169500D02*
X187026D01*
X92538D02*
X163912D01*
X-680D02*
X75520D01*
X318090Y330828D02*
X364318D01*
X237572D02*
X305644D01*
X203790D02*
X221062D01*
X170008D02*
X187280D01*
X92792D02*
X163404D01*
X-680D02*
X75520D01*
X317836Y331082D02*
X364318D01*
X237826D02*
X305898D01*
X204044D02*
X221316D01*
X170262D02*
X187534D01*
X92792D02*
X163150D01*
X-680D02*
X75520D01*
X317836Y331336D02*
X364318D01*
X238080D02*
X306152D01*
X204298D02*
X221570D01*
X170516D02*
X187788D01*
X92792D02*
X162896D01*
X-680D02*
X75520D01*
X317836Y331590D02*
X364318D01*
X238334D02*
X306406D01*
X204552D02*
X221824D01*
X170770D02*
X188042D01*
X92792D02*
X162642D01*
X-680D02*
X75520D01*
X317582Y331844D02*
X364318D01*
X238588D02*
X306660D01*
X204806D02*
X222078D01*
X171024D02*
X188296D01*
X92792D02*
X162388D01*
X-680D02*
X75520D01*
X317582Y332098D02*
X364318D01*
X238842D02*
X306914D01*
X205060D02*
X222332D01*
X171278D02*
X188550D01*
X92792D02*
X162134D01*
X-680D02*
X75520D01*
X317328Y332352D02*
X364318D01*
X239096D02*
X307168D01*
X205314D02*
X222586D01*
X171532D02*
X188804D01*
X92792D02*
X161880D01*
X-680D02*
X75774D01*
X317074Y332606D02*
X364318D01*
X239350D02*
X307422D01*
X205568D02*
X222840D01*
X171786D02*
X189058D01*
X93046D02*
X161880D01*
X-680D02*
X75774D01*
X317074Y332860D02*
X364318D01*
X239604D02*
X307676D01*
X205822D02*
X223094D01*
X172040D02*
X189312D01*
X93046D02*
X161626D01*
X-680D02*
X75774D01*
X316820Y333114D02*
X364318D01*
X239858D02*
X307930D01*
X206076D02*
X223348D01*
X172294D02*
X189566D01*
X93046D02*
X161372D01*
X-680D02*
X75774D01*
X316566Y333368D02*
X364318D01*
X240112D02*
X308184D01*
X206330D02*
X223602D01*
X172548D02*
X189820D01*
X93046D02*
X161372D01*
X-680D02*
X75774D01*
X316312Y333622D02*
X364318D01*
X240366D02*
X308438D01*
X206584D02*
X223856D01*
X172802D02*
X190074D01*
X93046D02*
X161372D01*
X-680D02*
X75774D01*
X316058Y333876D02*
X364318D01*
X240620D02*
X308692D01*
X206838D02*
X224110D01*
X173056D02*
X190328D01*
X93046D02*
X161118D01*
X-680D02*
X75774D01*
X315804Y334130D02*
X364318D01*
X240874D02*
X308946D01*
X207092D02*
X224364D01*
X173310D02*
X190582D01*
X93300D02*
X161118D01*
X-680D02*
X75774D01*
X315296Y334384D02*
X364318D01*
X241128D02*
X309454D01*
X207346D02*
X224618D01*
X173564D02*
X190836D01*
X93300D02*
X161118D01*
X-680D02*
X76028D01*
X314788Y334638D02*
X364318D01*
X241382D02*
X309962D01*
X207600D02*
X224872D01*
X173818D02*
X191090D01*
X93300D02*
X160864D01*
X-680D02*
X76028D01*
X314280Y334892D02*
X364318D01*
X241636D02*
X310470D01*
X207854D02*
X225126D01*
X174072D02*
X191344D01*
X93300D02*
X160864D01*
X-680D02*
X76028D01*
X313010Y335146D02*
X364318D01*
X241890D02*
X311486D01*
X208108D02*
X225380D01*
X174326D02*
X191598D01*
X93300D02*
X160864D01*
X-680D02*
X76028D01*
X242144Y335400D02*
X364318D01*
X208362D02*
X225634D01*
X174580D02*
X191852D01*
X93300D02*
X160864D01*
X-680D02*
X76028D01*
X242398Y335654D02*
X364318D01*
X208616D02*
X225888D01*
X174834D02*
X192106D01*
X93554D02*
X160864D01*
X-680D02*
X76028D01*
X242652Y335908D02*
X364318D01*
X208870D02*
X226142D01*
X175088D02*
X192360D01*
X93554D02*
X160864D01*
X-680D02*
X76282D01*
X242906Y336162D02*
X364318D01*
X209124D02*
X226396D01*
X175342D02*
X192614D01*
X93554D02*
X160864D01*
X-680D02*
X76282D01*
X243160Y336416D02*
X364318D01*
X209378D02*
X226650D01*
X175596D02*
X192868D01*
X93554D02*
X160864D01*
X-680D02*
X76282D01*
X243414Y336670D02*
X364318D01*
X209632D02*
X226904D01*
X175850D02*
X193122D01*
X93554D02*
X160864D01*
X-680D02*
X76282D01*
X243668Y336924D02*
X364318D01*
X209886D02*
X227158D01*
X176104D02*
X193376D01*
X93808D02*
X161118D01*
X-680D02*
X76282D01*
X243922Y337178D02*
X364318D01*
X210140D02*
X227412D01*
X176358D02*
X193630D01*
X93808D02*
X161118D01*
X-680D02*
X76282D01*
X244176Y337432D02*
X364318D01*
X210394D02*
X227666D01*
X176612D02*
X193884D01*
X93808D02*
X161118D01*
X-680D02*
X76536D01*
X244430Y337686D02*
X364318D01*
X210648D02*
X227920D01*
X176866D02*
X194138D01*
X93808D02*
X161118D01*
X-680D02*
X76536D01*
X244684Y337940D02*
X364318D01*
X210902D02*
X228174D01*
X177120D02*
X194392D01*
X93808D02*
X161372D01*
X-680D02*
X76536D01*
X244938Y338194D02*
X364318D01*
X211156D02*
X228428D01*
X177374D02*
X194646D01*
X94062D02*
X161372D01*
X-680D02*
X76536D01*
X245192Y338448D02*
X364318D01*
X211410D02*
X228682D01*
X177628D02*
X194900D01*
X94062D02*
X161626D01*
X-680D02*
X76536D01*
X245446Y338702D02*
X364318D01*
X211664D02*
X228936D01*
X177882D02*
X195154D01*
X94062D02*
X161626D01*
X-680D02*
X76536D01*
X245700Y338956D02*
X364318D01*
X211918D02*
X229190D01*
X178136D02*
X195408D01*
X94062D02*
X161880D01*
X-680D02*
X76790D01*
X245954Y339210D02*
X364318D01*
X212172D02*
X229444D01*
X178390D02*
X195662D01*
X94062D02*
X162134D01*
X-680D02*
X76790D01*
X246208Y339464D02*
X364318D01*
X212426D02*
X229698D01*
X178644D02*
X195916D01*
X94316D02*
X162388D01*
X-680D02*
X76790D01*
X246462Y339718D02*
X364318D01*
X212680D02*
X229952D01*
X178898D02*
X196170D01*
X94316D02*
X162388D01*
X-680D02*
X76790D01*
X246716Y339972D02*
X364318D01*
X212934D02*
X230206D01*
X179152D02*
X196424D01*
X94316D02*
X162642D01*
X-680D02*
X76790D01*
X246970Y340226D02*
X364318D01*
X213188D02*
X230460D01*
X179406D02*
X196678D01*
X94316D02*
X162896D01*
X-680D02*
X77044D01*
X247224Y340480D02*
X364318D01*
X213442D02*
X230714D01*
X179660D02*
X196932D01*
X94316D02*
X163150D01*
X-680D02*
X77044D01*
X247478Y340734D02*
X364318D01*
X213696D02*
X230968D01*
X179914D02*
X197186D01*
X94570D02*
X163404D01*
X-680D02*
X77044D01*
X247732Y340988D02*
X364318D01*
X213950D02*
X231222D01*
X180168D02*
X197440D01*
X94570D02*
X163658D01*
X-680D02*
X77044D01*
X247986Y341242D02*
X364318D01*
X214204D02*
X231476D01*
X180422D02*
X197694D01*
X94570D02*
X163912D01*
X-680D02*
X77044D01*
X248240Y341496D02*
X364318D01*
X214458D02*
X231730D01*
X180676D02*
X197948D01*
X94570D02*
X164166D01*
X-680D02*
X77044D01*
X248494Y341750D02*
X364318D01*
X214712D02*
X231984D01*
X180930D02*
X198202D01*
X94570D02*
X164420D01*
X-680D02*
X77298D01*
X248748Y342004D02*
X364318D01*
X214966D02*
X232238D01*
X181184D02*
X198456D01*
X94824D02*
X164674D01*
X-680D02*
X77298D01*
X249002Y342258D02*
X364318D01*
X215220D02*
X232492D01*
X181438D02*
X198710D01*
X94824D02*
X164928D01*
X-680D02*
X77298D01*
X249256Y342512D02*
X364318D01*
X215474D02*
X232746D01*
X181692D02*
X198964D01*
X94824D02*
X165182D01*
X-680D02*
X77298D01*
X249510Y342766D02*
X364318D01*
X215728D02*
X233000D01*
X181946D02*
X199218D01*
X94824D02*
X165436D01*
X-680D02*
X77298D01*
X249764Y343020D02*
X364318D01*
X215982D02*
X233254D01*
X182200D02*
X199472D01*
X95078D02*
X165690D01*
X-680D02*
X77552D01*
X250018Y343274D02*
X364318D01*
X216236D02*
X233508D01*
X182454D02*
X199726D01*
X95078D02*
X165944D01*
X-680D02*
X77552D01*
X250272Y343528D02*
X364318D01*
X216490D02*
X233762D01*
X182708D02*
X199980D01*
X95078D02*
X166198D01*
X-680D02*
X77552D01*
X250526Y343782D02*
X364318D01*
X216744D02*
X234016D01*
X182962D02*
X200234D01*
X95078D02*
X166452D01*
X-680D02*
X77552D01*
X250780Y344036D02*
X364318D01*
X216998D02*
X234270D01*
X183216D02*
X200488D01*
X95332D02*
X166706D01*
X-680D02*
X77552D01*
X251034Y344290D02*
X364318D01*
X217252D02*
X234524D01*
X183470D02*
X200742D01*
X95332D02*
X166960D01*
X-680D02*
X77806D01*
X251288Y344544D02*
X364318D01*
X217506D02*
X234778D01*
X183724D02*
X200996D01*
X95332D02*
X167214D01*
X-680D02*
X77806D01*
X251542Y344798D02*
X364318D01*
X217760D02*
X235032D01*
X183978D02*
X201250D01*
X95332D02*
X167468D01*
X-680D02*
X77806D01*
X251796Y345052D02*
X364318D01*
X218014D02*
X235286D01*
X184232D02*
X201504D01*
X95332D02*
X167722D01*
X-680D02*
X77806D01*
X251796Y345306D02*
X364318D01*
X218268D02*
X235540D01*
X184486D02*
X201758D01*
X95586D02*
X167976D01*
X-680D02*
X78060D01*
X252050Y345560D02*
X364318D01*
X218522D02*
X235794D01*
X184740D02*
X202012D01*
X95586D02*
X168230D01*
X-680D02*
X78060D01*
X252050Y345814D02*
X364318D01*
X218776D02*
X236048D01*
X184994D02*
X202266D01*
X95586D02*
X168484D01*
X-680D02*
X78060D01*
X252304Y346068D02*
X364318D01*
X219030D02*
X236302D01*
X185248D02*
X202520D01*
X95586D02*
X168738D01*
X-680D02*
X78060D01*
X252304Y346322D02*
X364318D01*
X219284D02*
X236556D01*
X185502D02*
X202774D01*
X95840D02*
X168992D01*
X-680D02*
X78060D01*
X252558Y346576D02*
X364318D01*
X219538D02*
X236810D01*
X185756D02*
X203028D01*
X95840D02*
X169246D01*
X-680D02*
X78314D01*
X252558Y346830D02*
X364318D01*
X219792D02*
X237064D01*
X186010D02*
X203282D01*
X95840D02*
X169500D01*
X-680D02*
X78314D01*
X252558Y347084D02*
X364318D01*
X220046D02*
X237318D01*
X186264D02*
X203536D01*
X95840D02*
X169754D01*
X-680D02*
X78314D01*
X252558Y347338D02*
X364318D01*
X220300D02*
X237572D01*
X186518D02*
X203790D01*
X96094D02*
X170008D01*
X-680D02*
X78314D01*
X252812Y347592D02*
X364318D01*
X220554D02*
X237826D01*
X186772D02*
X204044D01*
X96094D02*
X170262D01*
X-680D02*
X78568D01*
X252812Y347846D02*
X364318D01*
X220808D02*
X238080D01*
X187026D02*
X204298D01*
X96094D02*
X170516D01*
X-680D02*
X78568D01*
X252812Y348100D02*
X364318D01*
X221062D02*
X238334D01*
X187280D02*
X204552D01*
X96348D02*
X170770D01*
X-680D02*
X78568D01*
X252812Y348354D02*
X364318D01*
X221316D02*
X238588D01*
X187534D02*
X204806D01*
X96348D02*
X171024D01*
X-680D02*
X78568D01*
X252812Y348608D02*
X364318D01*
X221570D02*
X238842D01*
X187788D02*
X205060D01*
X96348D02*
X171278D01*
X-680D02*
X78822D01*
X252812Y348862D02*
X364318D01*
X221824D02*
X239096D01*
X188042D02*
X205314D01*
X96348D02*
X171532D01*
X-680D02*
X78822D01*
X252812Y349116D02*
X364318D01*
X222078D02*
X239350D01*
X188296D02*
X205568D01*
X96602D02*
X171786D01*
X-680D02*
X78822D01*
X252558Y349370D02*
X364318D01*
X222332D02*
X239604D01*
X188550D02*
X205822D01*
X96602D02*
X172040D01*
X-680D02*
X78822D01*
X252558Y349624D02*
X364318D01*
X222586D02*
X239858D01*
X188804D02*
X206076D01*
X96602D02*
X172294D01*
X-680D02*
X78822D01*
X252558Y349878D02*
X364318D01*
X222840D02*
X240112D01*
X189058D02*
X206330D01*
X96602D02*
X172548D01*
X-680D02*
X79076D01*
X252558Y350132D02*
X364318D01*
X223094D02*
X240366D01*
X189312D02*
X206584D01*
X96856D02*
X172802D01*
X-680D02*
X79076D01*
X252304Y350386D02*
X364318D01*
X223348D02*
X240620D01*
X189566D02*
X206838D01*
X96856D02*
X173056D01*
X-680D02*
X79076D01*
X252304Y350640D02*
X364318D01*
X223602D02*
X240874D01*
X189820D02*
X207092D01*
X96856D02*
X173310D01*
X-680D02*
X79076D01*
X252050Y350894D02*
X364318D01*
X223856D02*
X241128D01*
X190074D02*
X207346D01*
X97110D02*
X173564D01*
X-680D02*
X79330D01*
X252050Y351148D02*
X364318D01*
X224110D02*
X241382D01*
X190328D02*
X207600D01*
X97110D02*
X173818D01*
X-680D02*
X79330D01*
X251796Y351402D02*
X364318D01*
X224364D02*
X241636D01*
X190582D02*
X207854D01*
X97110D02*
X174072D01*
X-680D02*
X79330D01*
X251796Y351656D02*
X364318D01*
X224618D02*
X241890D01*
X190836D02*
X208108D01*
X97364D02*
X174326D01*
X-680D02*
X79584D01*
X251542Y351910D02*
X364318D01*
X224872D02*
X242144D01*
X191090D02*
X208362D01*
X97364D02*
X174580D01*
X-680D02*
X79584D01*
X251288Y352164D02*
X364318D01*
X225126D02*
X242398D01*
X191344D02*
X208616D01*
X97364D02*
X174834D01*
X-680D02*
X79584D01*
X251034Y352418D02*
X364318D01*
X225380D02*
X242652D01*
X191598D02*
X208870D01*
X97364D02*
X175088D01*
X-680D02*
X79584D01*
X250780Y352672D02*
X364318D01*
X225634D02*
X242906D01*
X191852D02*
X209124D01*
X97618D02*
X175342D01*
X-680D02*
X79838D01*
X250526Y352926D02*
X364318D01*
X225888D02*
X243414D01*
X192106D02*
X209378D01*
X97618D02*
X175596D01*
X-680D02*
X79838D01*
X250272Y353180D02*
X364318D01*
X226142D02*
X243668D01*
X192360D02*
X209632D01*
X97618D02*
X175850D01*
X-680D02*
X79838D01*
X249764Y353434D02*
X364318D01*
X226396D02*
X244176D01*
X192614D02*
X209886D01*
X97872D02*
X176104D01*
X-680D02*
X79838D01*
X249256Y353688D02*
X364318D01*
X226650D02*
X244430D01*
X192868D02*
X210140D01*
X97872D02*
X176358D01*
X-680D02*
X80092D01*
X248494Y353942D02*
X364318D01*
X226904D02*
X245192D01*
X193122D02*
X210394D01*
X97872D02*
X176612D01*
X-680D02*
X80092D01*
X246970Y354196D02*
X364318D01*
X227158D02*
X246716D01*
X193376D02*
X210648D01*
X98126D02*
X176866D01*
X-680D02*
X80092D01*
X227412Y354450D02*
X364318D01*
X193630D02*
X210902D01*
X98126D02*
X177120D01*
X-680D02*
X80092D01*
X227666Y354704D02*
X364318D01*
X193884D02*
X211156D01*
X98126D02*
X177374D01*
X-680D02*
X80346D01*
X227920Y354958D02*
X364318D01*
X194138D02*
X211410D01*
X98380D02*
X177628D01*
X-680D02*
X80346D01*
X228174Y355212D02*
X364318D01*
X194392D02*
X211664D01*
X98380D02*
X177882D01*
X-680D02*
X80346D01*
X228428Y355466D02*
X364318D01*
X194646D02*
X211918D01*
X98380D02*
X178136D01*
X-680D02*
X80600D01*
X228682Y355720D02*
X364318D01*
X194900D02*
X212172D01*
X98380D02*
X178390D01*
X-680D02*
X80600D01*
X228936Y355974D02*
X364318D01*
X195154D02*
X212426D01*
X98634D02*
X178644D01*
X-680D02*
X80600D01*
X229190Y356228D02*
X364318D01*
X195408D02*
X212680D01*
X98634D02*
X178898D01*
X-680D02*
X80854D01*
X229444Y356482D02*
X364318D01*
X195662D02*
X212934D01*
X98634D02*
X179152D01*
X-680D02*
X80854D01*
X229698Y356736D02*
X364318D01*
X195916D02*
X213188D01*
X98888D02*
X179406D01*
X-680D02*
X80854D01*
X229952Y356990D02*
X364318D01*
X196170D02*
X213442D01*
X98888D02*
X179660D01*
X-680D02*
X80854D01*
X230206Y357244D02*
X364318D01*
X196424D02*
X213696D01*
X99142D02*
X179914D01*
X-680D02*
X81108D01*
X230460Y357498D02*
X364318D01*
X196678D02*
X213950D01*
X99142D02*
X180168D01*
X-680D02*
X81108D01*
X230714Y357752D02*
X364318D01*
X196932D02*
X214204D01*
X99142D02*
X180422D01*
X-680D02*
X81108D01*
X230968Y358006D02*
X364318D01*
X197186D02*
X214458D01*
X99396D02*
X180676D01*
X-680D02*
X81362D01*
X231222Y358260D02*
X364318D01*
X197440D02*
X214712D01*
X99396D02*
X180930D01*
X-680D02*
X81362D01*
X231476Y358514D02*
X364318D01*
X197694D02*
X214966D01*
X99396D02*
X181184D01*
X-680D02*
X81362D01*
X231730Y358768D02*
X364318D01*
X197948D02*
X215220D01*
X99650D02*
X181438D01*
X-680D02*
X81616D01*
X231984Y359022D02*
X364318D01*
X198202D02*
X215474D01*
X99650D02*
X181692D01*
X-680D02*
X81616D01*
X232238Y359276D02*
X364318D01*
X198456D02*
X215728D01*
X99650D02*
X181946D01*
X-680D02*
X81616D01*
X232492Y359530D02*
X364318D01*
X198710D02*
X215982D01*
X99904D02*
X182200D01*
X-680D02*
X81616D01*
X232746Y359784D02*
X364318D01*
X198964D02*
X216236D01*
X99904D02*
X182454D01*
X-680D02*
X81870D01*
X233000Y360038D02*
X364318D01*
X199218D02*
X216490D01*
X99904D02*
X182708D01*
X-680D02*
X81870D01*
X233254Y360292D02*
X364318D01*
X199472D02*
X216744D01*
X100158D02*
X182962D01*
X-680D02*
X81870D01*
X233508Y360546D02*
X364318D01*
X199726D02*
X216998D01*
X100158D02*
X183216D01*
X-680D02*
X82124D01*
X233762Y360800D02*
X364318D01*
X199980D02*
X217252D01*
X100412D02*
X183470D01*
X-680D02*
X82124D01*
X234016Y361054D02*
X364318D01*
X200234D02*
X217506D01*
X100412D02*
X183724D01*
X-680D02*
X82124D01*
X234270Y361308D02*
X364318D01*
X200488D02*
X217760D01*
X100412D02*
X183978D01*
X-680D02*
X82378D01*
X234524Y361562D02*
X364318D01*
X200742D02*
X218014D01*
X100666D02*
X184232D01*
X-680D02*
X82378D01*
X234778Y361816D02*
X364318D01*
X200996D02*
X218268D01*
X100666D02*
X184486D01*
X-680D02*
X82378D01*
X235032Y362070D02*
X364318D01*
X201250D02*
X218522D01*
X100666D02*
X184740D01*
X-680D02*
X82632D01*
X235286Y362324D02*
X364318D01*
X201504D02*
X218776D01*
X100920D02*
X184994D01*
X-680D02*
X82632D01*
X235540Y362578D02*
X364318D01*
X201758D02*
X219030D01*
X100920D02*
X185248D01*
X-680D02*
X82632D01*
X235794Y362832D02*
X364318D01*
X202012D02*
X219284D01*
X101174D02*
X185502D01*
X-680D02*
X82886D01*
X236048Y363086D02*
X364318D01*
X202266D02*
X219538D01*
X101174D02*
X185756D01*
X-680D02*
X82886D01*
X236302Y363340D02*
X364318D01*
X202520D02*
X219792D01*
X101174D02*
X186010D01*
X-680D02*
X82886D01*
X236556Y363594D02*
X364318D01*
X202774D02*
X220046D01*
X101428D02*
X186264D01*
X-680D02*
X83140D01*
X236810Y363848D02*
X364318D01*
X203028D02*
X220300D01*
X101428D02*
X186518D01*
X-680D02*
X83140D01*
X237064Y364102D02*
X364318D01*
X203282D02*
X220554D01*
X101682D02*
X186772D01*
X-680D02*
X83140D01*
X237318Y364356D02*
X364318D01*
X203536D02*
X220808D01*
X101682D02*
X187026D01*
X-680D02*
X83394D01*
X237572Y364610D02*
X364318D01*
X203790D02*
X221062D01*
X101682D02*
X187280D01*
X-680D02*
X83394D01*
X237826Y364864D02*
X364318D01*
X204044D02*
X221316D01*
X101936D02*
X187534D01*
X-680D02*
X83394D01*
X238080Y365118D02*
X364318D01*
X204298D02*
X221570D01*
X101936D02*
X187788D01*
X-680D02*
X83648D01*
X238334Y365372D02*
X364318D01*
X204552D02*
X221824D01*
X102190D02*
X188042D01*
X-680D02*
X83648D01*
X238588Y365626D02*
X364318D01*
X204806D02*
X222078D01*
X102190D02*
X188296D01*
X-680D02*
X83902D01*
X238842Y365880D02*
X364318D01*
X205060D02*
X222332D01*
X102190D02*
X188550D01*
X-680D02*
X83902D01*
X239096Y366134D02*
X364318D01*
X205314D02*
X222586D01*
X170008D02*
X188804D01*
X102444D02*
X168230D01*
X-680D02*
X83902D01*
X239350Y366388D02*
X364318D01*
X205568D02*
X222840D01*
X171024D02*
X189058D01*
X102444D02*
X167214D01*
X-680D02*
X84156D01*
X239604Y366642D02*
X364318D01*
X205822D02*
X223094D01*
X171786D02*
X189312D01*
X102698D02*
X166706D01*
X-680D02*
X84156D01*
X239858Y366896D02*
X364318D01*
X206076D02*
X223348D01*
X172040D02*
X189566D01*
X102698D02*
X166198D01*
X-680D02*
X84156D01*
X240112Y367150D02*
X364318D01*
X206330D02*
X223602D01*
X172548D02*
X189820D01*
X102698D02*
X165944D01*
X-680D02*
X84410D01*
X240366Y367404D02*
X364318D01*
X206584D02*
X223856D01*
X172802D02*
X190074D01*
X102952D02*
X165436D01*
X-680D02*
X84410D01*
X240620Y367658D02*
X364318D01*
X206838D02*
X224110D01*
X173056D02*
X190328D01*
X102952D02*
X165182D01*
X-680D02*
X84664D01*
X240874Y367912D02*
X364318D01*
X207092D02*
X224364D01*
X173310D02*
X190582D01*
X103206D02*
X164928D01*
X-680D02*
X84664D01*
X241128Y368166D02*
X364318D01*
X207346D02*
X224618D01*
X173564D02*
X190836D01*
X103206D02*
X164674D01*
X-680D02*
X84664D01*
X241382Y368420D02*
X364318D01*
X207600D02*
X224872D01*
X173818D02*
X191090D01*
X103460D02*
X164420D01*
X-680D02*
X84918D01*
X241636Y368674D02*
X364318D01*
X207854D02*
X225126D01*
X174072D02*
X191344D01*
X103460D02*
X164420D01*
X-680D02*
X84918D01*
X241890Y368928D02*
X364318D01*
X208108D02*
X225380D01*
X174326D02*
X191598D01*
X103460D02*
X164166D01*
X-680D02*
X84918D01*
X242144Y369182D02*
X364318D01*
X208362D02*
X225634D01*
X174580D02*
X191852D01*
X103714D02*
X163912D01*
X-680D02*
X85172D01*
X242398Y369436D02*
X364318D01*
X208616D02*
X225888D01*
X174834D02*
X192106D01*
X103714D02*
X163912D01*
X-680D02*
X85172D01*
X242652Y369690D02*
X364318D01*
X208870D02*
X226142D01*
X175088D02*
X192360D01*
X103968D02*
X163658D01*
X-680D02*
X85426D01*
X242906Y369944D02*
X364318D01*
X209124D02*
X226396D01*
X175342D02*
X192614D01*
X103968D02*
X163658D01*
X-680D02*
X85426D01*
X243160Y370198D02*
X364318D01*
X209378D02*
X226650D01*
X175596D02*
X192868D01*
X104222D02*
X163658D01*
X-680D02*
X85426D01*
X243414Y370452D02*
X364318D01*
X209632D02*
X226904D01*
X175850D02*
X193122D01*
X104222D02*
X163404D01*
X-680D02*
X85680D01*
X243668Y370706D02*
X364318D01*
X209886D02*
X227158D01*
X176104D02*
X193376D01*
X104476D02*
X163404D01*
X-680D02*
X85680D01*
X243922Y370960D02*
X364318D01*
X210140D02*
X227412D01*
X176358D02*
X193630D01*
X104476D02*
X163404D01*
X-680D02*
X85934D01*
X244176Y371214D02*
X364318D01*
X210394D02*
X227666D01*
X176612D02*
X193884D01*
X104730D02*
X163404D01*
X-680D02*
X85934D01*
X244430Y371468D02*
X364318D01*
X210648D02*
X227920D01*
X176866D02*
X194138D01*
X104730D02*
X163404D01*
X-680D02*
X85934D01*
X244684Y371722D02*
X364318D01*
X210902D02*
X228174D01*
X177120D02*
X194392D01*
X104730D02*
X163404D01*
X-680D02*
X86188D01*
X244938Y371976D02*
X364318D01*
X211156D02*
X228428D01*
X177374D02*
X194646D01*
X104984D02*
X163404D01*
X-680D02*
X86188D01*
X245192Y372230D02*
X364318D01*
X211410D02*
X228682D01*
X177628D02*
X194900D01*
X104984D02*
X163404D01*
X-680D02*
X86442D01*
X245446Y372484D02*
X364318D01*
X211664D02*
X228936D01*
X177882D02*
X195154D01*
X105238D02*
X163404D01*
X-680D02*
X86442D01*
X245700Y372738D02*
X364318D01*
X211918D02*
X229190D01*
X178136D02*
X195408D01*
X105238D02*
X163404D01*
X-680D02*
X86442D01*
X245954Y372992D02*
X364318D01*
X212172D02*
X229444D01*
X178390D02*
X195662D01*
X105492D02*
X163404D01*
X-680D02*
X86696D01*
X246208Y373246D02*
X364318D01*
X212426D02*
X229698D01*
X178644D02*
X195916D01*
X105492D02*
X163404D01*
X-680D02*
X86696D01*
X246462Y373500D02*
X364318D01*
X212680D02*
X229952D01*
X178898D02*
X196170D01*
X105746D02*
X163658D01*
X-680D02*
X86950D01*
X246716Y373754D02*
X364318D01*
X212934D02*
X230206D01*
X179152D02*
X196424D01*
X105746D02*
X163658D01*
X-680D02*
X86950D01*
X246970Y374008D02*
X364318D01*
X213188D02*
X230460D01*
X179406D02*
X196678D01*
X106000D02*
X163658D01*
X-680D02*
X86950D01*
X247224Y374262D02*
X364318D01*
X213442D02*
X230714D01*
X179660D02*
X196932D01*
X106000D02*
X163912D01*
X-680D02*
X87204D01*
X247478Y374516D02*
X364318D01*
X213696D02*
X230968D01*
X179914D02*
X197186D01*
X106254D02*
X163912D01*
X-680D02*
X87204D01*
X247732Y374770D02*
X364318D01*
X213950D02*
X231222D01*
X180168D02*
X197440D01*
X106254D02*
X164166D01*
X-680D02*
X87458D01*
X247986Y375024D02*
X364318D01*
X214204D02*
X231476D01*
X180422D02*
X197694D01*
X106508D02*
X164166D01*
X-680D02*
X87458D01*
X248240Y375278D02*
X364318D01*
X214458D02*
X231730D01*
X180676D02*
X197948D01*
X106508D02*
X164420D01*
X-680D02*
X87712D01*
X248494Y375532D02*
X364318D01*
X214712D02*
X231984D01*
X180930D02*
X198202D01*
X106762D02*
X164674D01*
X-680D02*
X87712D01*
X248748Y375786D02*
X364318D01*
X214966D02*
X232238D01*
X181184D02*
X198456D01*
X106762D02*
X164928D01*
X-680D02*
X87712D01*
X249002Y376040D02*
X364318D01*
X215220D02*
X232492D01*
X181438D02*
X198710D01*
X107016D02*
X164928D01*
X-680D02*
X87966D01*
X249256Y376294D02*
X364318D01*
X215474D02*
X232746D01*
X181692D02*
X198964D01*
X107016D02*
X165182D01*
X-680D02*
X87966D01*
X249510Y376548D02*
X364318D01*
X215728D02*
X233000D01*
X181946D02*
X199218D01*
X107270D02*
X165436D01*
X-680D02*
X88220D01*
X249764Y376802D02*
X364318D01*
X215982D02*
X233254D01*
X182200D02*
X199472D01*
X107270D02*
X165690D01*
X-680D02*
X88220D01*
X250018Y377056D02*
X364318D01*
X216236D02*
X233508D01*
X182454D02*
X199726D01*
X107524D02*
X165944D01*
X-680D02*
X88474D01*
X250272Y377310D02*
X364318D01*
X216490D02*
X233762D01*
X182708D02*
X199980D01*
X107524D02*
X166198D01*
X-680D02*
X88474D01*
X250526Y377564D02*
X364318D01*
X216744D02*
X234016D01*
X182962D02*
X200234D01*
X107778D02*
X166452D01*
X-680D02*
X88728D01*
X250780Y377818D02*
X364318D01*
X216998D02*
X234270D01*
X183216D02*
X200488D01*
X107778D02*
X166706D01*
X-680D02*
X88728D01*
X251034Y378072D02*
X364318D01*
X217252D02*
X234524D01*
X183470D02*
X200742D01*
X108032D02*
X166960D01*
X-680D02*
X88728D01*
X251288Y378326D02*
X364318D01*
X217506D02*
X234778D01*
X183724D02*
X200996D01*
X108032D02*
X167214D01*
X-680D02*
X88982D01*
X251542Y378580D02*
X364318D01*
X217760D02*
X235032D01*
X183978D02*
X201250D01*
X108286D02*
X167468D01*
X-680D02*
X88982D01*
X251796Y378834D02*
X364318D01*
X218014D02*
X235286D01*
X184232D02*
X201504D01*
X108286D02*
X167722D01*
X-680D02*
X89236D01*
X252050Y379088D02*
X364318D01*
X218014D02*
X235540D01*
X184486D02*
X201758D01*
X108540D02*
X167976D01*
X-680D02*
X89236D01*
X252304Y379342D02*
X364318D01*
X218268D02*
X235794D01*
X184740D02*
X202012D01*
X108540D02*
X168230D01*
X-680D02*
X89490D01*
X252558Y379596D02*
X364064D01*
X218522D02*
X236048D01*
X184994D02*
X202266D01*
X108794D02*
X168484D01*
X-680D02*
X89490D01*
X252812Y379850D02*
X364064D01*
X218522D02*
X236302D01*
X185248D02*
X202520D01*
X109048D02*
X168738D01*
X-680D02*
X89744D01*
X253066Y380104D02*
X363810D01*
X218522D02*
X236556D01*
X185502D02*
X202774D01*
X109048D02*
X168992D01*
X-680D02*
X89744D01*
X253320Y380358D02*
X363810D01*
X218776D02*
X236810D01*
X185756D02*
X203028D01*
X109302D02*
X169246D01*
X-680D02*
X89998D01*
X253574Y380612D02*
X363556D01*
X218776D02*
X237064D01*
X186010D02*
X203282D01*
X109302D02*
X169500D01*
X-680D02*
X89998D01*
X253828Y380866D02*
X363302D01*
X218776D02*
X237318D01*
X186264D02*
X203536D01*
X109556D02*
X169754D01*
X-680D02*
X90252D01*
X254082Y381120D02*
X363302D01*
X219030D02*
X237572D01*
X186518D02*
X203790D01*
X109556D02*
X170008D01*
X-680D02*
X90252D01*
X254336Y381374D02*
X363048D01*
X219030D02*
X237826D01*
X186772D02*
X204044D01*
X109810D02*
X170262D01*
X-680D02*
X90506D01*
X254590Y381628D02*
X363048D01*
X219030D02*
X238080D01*
X187026D02*
X204298D01*
X109810D02*
X170516D01*
X-680D02*
X90506D01*
X254844Y381882D02*
X362794D01*
X219030D02*
X238334D01*
X187280D02*
X204552D01*
X110064D02*
X170770D01*
X-680D02*
X90760D01*
X255098Y382136D02*
X362794D01*
X219030D02*
X238588D01*
X187534D02*
X204806D01*
X110318D02*
X171024D01*
X-680D02*
X90760D01*
X255352Y382390D02*
X362540D01*
X219030D02*
X238842D01*
X187788D02*
X205060D01*
X110318D02*
X171278D01*
X-680D02*
X91014D01*
X255606Y382644D02*
X362540D01*
X219030D02*
X239096D01*
X188042D02*
X205314D01*
X110572D02*
X171532D01*
X-680D02*
X91014D01*
X255860Y382898D02*
X362286D01*
X219030D02*
X239350D01*
X188296D02*
X205568D01*
X110572D02*
X171786D01*
X-680D02*
X91014D01*
X256114Y383152D02*
X362032D01*
X218776D02*
X239604D01*
X188550D02*
X205822D01*
X110826D02*
X172040D01*
X-680D02*
X91268D01*
X256368Y383406D02*
X362032D01*
X218776D02*
X239858D01*
X188804D02*
X206076D01*
X110826D02*
X172294D01*
X-680D02*
X91268D01*
X256622Y383660D02*
X361778D01*
X218776D02*
X240112D01*
X189058D02*
X206330D01*
X111080D02*
X172548D01*
X-680D02*
X91522D01*
X256876Y383914D02*
X361778D01*
X218776D02*
X240366D01*
X189312D02*
X206584D01*
X111334D02*
X172802D01*
X-680D02*
X91522D01*
X257130Y384168D02*
X361524D01*
X218522D02*
X240620D01*
X189566D02*
X206838D01*
X111334D02*
X173056D01*
X-680D02*
X91776D01*
X257384Y384422D02*
X361270D01*
X218522D02*
X240874D01*
X189566D02*
X207092D01*
X111588D02*
X173310D01*
X-680D02*
X91776D01*
X257638Y384676D02*
X361270D01*
X218268D02*
X241128D01*
X189820D02*
X207346D01*
X111588D02*
X173564D01*
X-680D02*
X92030D01*
X257892Y384930D02*
X361016D01*
X218268D02*
X241382D01*
X189820D02*
X207600D01*
X111842D02*
X173818D01*
X-680D02*
X92284D01*
X258146Y385184D02*
X361016D01*
X218014D02*
X241636D01*
X190074D02*
X207854D01*
X112096D02*
X174072D01*
X-680D02*
X92284D01*
X258146Y385438D02*
X360762D01*
X218014D02*
X241890D01*
X190074D02*
X208108D01*
X112096D02*
X174326D01*
X-680D02*
X92538D01*
X258400Y385692D02*
X360508D01*
X217760D02*
X242144D01*
X190328D02*
X208362D01*
X112350D02*
X174580D01*
X-680D02*
X92538D01*
X258400Y385946D02*
X360508D01*
X217506D02*
X242398D01*
X190328D02*
X208616D01*
X112350D02*
X174834D01*
X-680D02*
X92792D01*
X258654Y386200D02*
X360254D01*
X217252D02*
X242652D01*
X190328D02*
X208870D01*
X112604D02*
X175088D01*
X-680D02*
X92792D01*
X258654Y386454D02*
X360254D01*
X216998D02*
X242906D01*
X190328D02*
X209124D01*
X112858D02*
X175342D01*
X-680D02*
X93046D01*
X258908Y386708D02*
X360000D01*
X216744D02*
X243160D01*
X190582D02*
X209632D01*
X112858D02*
X175596D01*
X-680D02*
X93046D01*
X258908Y386962D02*
X359746D01*
X216490D02*
X243414D01*
X190582D02*
X209886D01*
X113112D02*
X175850D01*
X-680D02*
X93300D01*
X258908Y387216D02*
X359746D01*
X215982D02*
X243668D01*
X190582D02*
X210394D01*
X113366D02*
X176104D01*
X-680D02*
X93300D01*
X258908Y387470D02*
X359492D01*
X215474D02*
X243922D01*
X190582D02*
X210902D01*
X113366D02*
X176358D01*
X-680D02*
X93554D01*
X259162Y387724D02*
X359492D01*
X214712D02*
X244176D01*
X190582D02*
X211410D01*
X113620D02*
X176612D01*
X-680D02*
X93554D01*
X259162Y387978D02*
X359238D01*
X190582D02*
X244430D01*
X113620D02*
X176866D01*
X-680D02*
X93808D01*
X259162Y388232D02*
X358984D01*
X190328D02*
X244684D01*
X113874D02*
X177120D01*
X-680D02*
X93808D01*
X259162Y388486D02*
X358984D01*
X190328D02*
X244938D01*
X114128D02*
X177374D01*
X-680D02*
X94062D01*
X259162Y388740D02*
X358730D01*
X190328D02*
X245192D01*
X114128D02*
X177628D01*
X-680D02*
X94062D01*
X259162Y388994D02*
X358476D01*
X190328D02*
X245446D01*
X114382D02*
X177882D01*
X-680D02*
X94316D01*
X258908Y389248D02*
X358476D01*
X190074D02*
X245700D01*
X114636D02*
X178136D01*
X-680D02*
X94570D01*
X258908Y389502D02*
X358222D01*
X190074D02*
X245954D01*
X114636D02*
X178390D01*
X-680D02*
X94570D01*
X258908Y389756D02*
X357968D01*
X190074D02*
X246208D01*
X114890D02*
X178644D01*
X-680D02*
X94824D01*
X258908Y390010D02*
X357968D01*
X189820D02*
X246462D01*
X115144D02*
X178898D01*
X-680D02*
X94824D01*
X258908Y390264D02*
X357714D01*
X189820D02*
X246716D01*
X115144D02*
X179152D01*
X-680D02*
X95078D01*
X258654Y390518D02*
X357460D01*
X189566D02*
X246970D01*
X115398D02*
X179406D01*
X-680D02*
X95078D01*
X258654Y390772D02*
X357460D01*
X189312D02*
X247224D01*
X115652D02*
X179660D01*
X-680D02*
X95332D01*
X258400Y391026D02*
X357206D01*
X189312D02*
X247478D01*
X115652D02*
X179914D01*
X-680D02*
X95332D01*
X258400Y391280D02*
X356952D01*
X189058D02*
X247732D01*
X115906D02*
X180168D01*
X-680D02*
X95586D01*
X258146Y391534D02*
X356952D01*
X188804D02*
X247986D01*
X116160D02*
X180422D01*
X-680D02*
X95840D01*
X258146Y391788D02*
X356698D01*
X188550D02*
X248240D01*
X116160D02*
X180930D01*
X-680D02*
X95840D01*
X257892Y392042D02*
X356444D01*
X188296D02*
X248494D01*
X116414D02*
X181184D01*
X-680D02*
X96094D01*
X257638Y392296D02*
X356444D01*
X187788D02*
X248748D01*
X116668D02*
X181438D01*
X-680D02*
X96094D01*
X257384Y392550D02*
X356190D01*
X187280D02*
X249002D01*
X116668D02*
X181946D01*
X-680D02*
X96348D01*
X257130Y392804D02*
X355936D01*
X186772D02*
X249256D01*
X116922D02*
X182454D01*
X-680D02*
X96348D01*
X256876Y393058D02*
X355936D01*
X186010D02*
X249764D01*
X117176D02*
X183216D01*
X-680D02*
X96602D01*
X256368Y393312D02*
X355682D01*
X117176D02*
X250018D01*
X-680D02*
X96856D01*
X256114Y393566D02*
X355428D01*
X117430D02*
X250526D01*
X-680D02*
X96856D01*
X255606Y393820D02*
X355428D01*
X117684D02*
X251034D01*
X-680D02*
X97110D01*
X254844Y394074D02*
X355174D01*
X117684D02*
X251542D01*
X-680D02*
X97110D01*
X117938Y394328D02*
X354920D01*
X-680D02*
X97364D01*
X118192Y394582D02*
X354666D01*
X-680D02*
X97618D01*
X118446Y394836D02*
X354666D01*
X-680D02*
X97618D01*
X118446Y395090D02*
X354412D01*
X-680D02*
X97872D01*
X118700Y395344D02*
X354158D01*
X-680D02*
X97872D01*
X118954Y395598D02*
X354158D01*
X-680D02*
X98126D01*
X118954Y395852D02*
X353904D01*
X-680D02*
X98380D01*
X119208Y396106D02*
X353650D01*
X-680D02*
X98380D01*
X119462Y396360D02*
X353396D01*
X-680D02*
X98634D01*
X119716Y396614D02*
X353396D01*
X-680D02*
X98888D01*
X119716Y396868D02*
X353142D01*
X-680D02*
X98888D01*
X119970Y397122D02*
X352888D01*
X-680D02*
X99142D01*
X120224Y397376D02*
X352634D01*
X-680D02*
X99142D01*
X120478Y397630D02*
X352634D01*
X-680D02*
X99396D01*
X120478Y397884D02*
X352380D01*
X-680D02*
X99650D01*
X120732Y398138D02*
X352126D01*
X-680D02*
X99650D01*
X120986Y398392D02*
X351872D01*
X-680D02*
X99904D01*
X121240Y398646D02*
X351872D01*
X-680D02*
X100158D01*
X121240Y398900D02*
X351618D01*
X-680D02*
X100158D01*
X121494Y399154D02*
X351364D01*
X-680D02*
X100412D01*
X121748Y399408D02*
X351110D01*
X-680D02*
X100666D01*
X122002Y399662D02*
X351110D01*
X-680D02*
X100666D01*
X122256Y399916D02*
X350856D01*
X-680D02*
X100920D01*
X122256Y400170D02*
X350602D01*
X-680D02*
X100920D01*
X122510Y400424D02*
X350348D01*
X-680D02*
X101174D01*
X122764Y400678D02*
X350094D01*
X-680D02*
X101428D01*
X123018Y400932D02*
X350094D01*
X-680D02*
X101428D01*
X123272Y401186D02*
X349840D01*
X-680D02*
X101682D01*
X123272Y401440D02*
X349586D01*
X-680D02*
X101936D01*
X123526Y401694D02*
X349332D01*
X-680D02*
X101936D01*
X123780Y401948D02*
X349078D01*
X-680D02*
X102190D01*
X124034Y402202D02*
X349078D01*
X-680D02*
X102444D01*
X124288Y402456D02*
X348824D01*
X-680D02*
X102444D01*
X124288Y402710D02*
X348570D01*
X-680D02*
X102698D01*
X124542Y402964D02*
X348316D01*
X-680D02*
X102952D01*
X124796Y403218D02*
X348062D01*
X-680D02*
X103206D01*
X125050Y403472D02*
X347808D01*
X-680D02*
X103206D01*
X125304Y403726D02*
X347808D01*
X-680D02*
X103460D01*
X125558Y403980D02*
X347554D01*
X-680D02*
X103714D01*
X125558Y404234D02*
X347300D01*
X-680D02*
X103714D01*
X125812Y404488D02*
X347046D01*
X-680D02*
X103968D01*
X126066Y404742D02*
X346792D01*
X-680D02*
X104222D01*
X126320Y404996D02*
X346538D01*
X-680D02*
X104222D01*
X126574Y405250D02*
X346284D01*
X-680D02*
X104476D01*
X126828Y405504D02*
X346284D01*
X-680D02*
X104730D01*
X127082Y405758D02*
X346030D01*
X-680D02*
X104984D01*
X127082Y406012D02*
X345776D01*
X-680D02*
X104984D01*
X127336Y406266D02*
X345522D01*
X-680D02*
X105238D01*
X127590Y406520D02*
X345268D01*
X-680D02*
X105492D01*
X127844Y406774D02*
X345014D01*
X-680D02*
X105492D01*
X128098Y407028D02*
X344760D01*
X-680D02*
X105746D01*
X128352Y407282D02*
X344506D01*
X-680D02*
X106000D01*
X128606Y407536D02*
X344506D01*
X-680D02*
X106254D01*
X128860Y407790D02*
X344252D01*
X-680D02*
X106254D01*
X129114Y408044D02*
X343998D01*
X-680D02*
X106508D01*
X129114Y408298D02*
X343744D01*
X-680D02*
X106762D01*
X129368Y408552D02*
X343490D01*
X-680D02*
X107016D01*
X129622Y408806D02*
X343236D01*
X-680D02*
X107016D01*
X129876Y409060D02*
X342982D01*
X-680D02*
X107270D01*
X130130Y409314D02*
X342728D01*
X-680D02*
X107524D01*
X130384Y409568D02*
X342474D01*
X-680D02*
X107778D01*
X130638Y409822D02*
X342220D01*
X-680D02*
X107778D01*
X130892Y410076D02*
X341966D01*
X-680D02*
X108032D01*
X131146Y410330D02*
X341712D01*
X-680D02*
X108286D01*
X131400Y410584D02*
X341458D01*
X-680D02*
X108540D01*
X131654Y410838D02*
X341204D01*
X-680D02*
X108540D01*
X131908Y411092D02*
X341204D01*
X-680D02*
X108794D01*
X132162Y411346D02*
X340950D01*
X-680D02*
X109048D01*
X132416Y411600D02*
X340696D01*
X-680D02*
X109302D01*
X132670Y411854D02*
X340442D01*
X-680D02*
X109556D01*
X132924Y412108D02*
X340188D01*
X-680D02*
X109556D01*
X133178Y412362D02*
X339934D01*
X-680D02*
X109810D01*
X133432Y412616D02*
X339680D01*
X-680D02*
X110064D01*
X133686Y412870D02*
X339426D01*
X-680D02*
X110318D01*
X133940Y413124D02*
X339172D01*
X-680D02*
X110572D01*
X134194Y413378D02*
X338918D01*
X-680D02*
X110572D01*
X134448Y413632D02*
X338664D01*
X-680D02*
X110826D01*
X134702Y413886D02*
X338410D01*
X-680D02*
X111080D01*
X134956Y414140D02*
X338156D01*
X-680D02*
X111334D01*
X135210Y414394D02*
X337902D01*
X-680D02*
X111588D01*
X364064Y414648D02*
X364318D01*
X135464D02*
X337648D01*
X-680D02*
X111842D01*
X363810Y414902D02*
X364318D01*
X135718D02*
X337394D01*
X-680D02*
X111842D01*
X363556Y415156D02*
X364064D01*
X135972D02*
X336886D01*
X-680D02*
X112096D01*
X363302Y415410D02*
X364064D01*
X136226D02*
X336632D01*
X-426D02*
X112350D01*
X363302Y415664D02*
X364064D01*
X136480D02*
X336378D01*
X-426D02*
X112604D01*
X363048Y415918D02*
X364064D01*
X136734D02*
X336124D01*
X-426D02*
X112858D01*
X362794Y416172D02*
X364064D01*
X136988D02*
X335870D01*
X-426D02*
X113112D01*
X362540Y416426D02*
X364064D01*
X137242D02*
X335616D01*
X-426D02*
X113112D01*
X362286Y416680D02*
X364064D01*
X137496D02*
X335362D01*
X-426D02*
X113366D01*
X362032Y416934D02*
X364064D01*
X137750D02*
X335108D01*
X-426D02*
X113620D01*
X362032Y417188D02*
X363810D01*
X138004D02*
X334854D01*
X-172D02*
X113874D01*
X361778Y417442D02*
X363810D01*
X138258D02*
X334600D01*
X-172D02*
X114128D01*
X361524Y417696D02*
X363810D01*
X138766D02*
X334346D01*
X-172D02*
X114382D01*
X361270Y417950D02*
X363810D01*
X139020D02*
X334092D01*
X-172D02*
X114636D01*
X361016Y418204D02*
X363810D01*
X139274D02*
X333838D01*
X-172D02*
X114636D01*
X360762Y418458D02*
X363810D01*
X139528D02*
X333330D01*
X-172D02*
X114890D01*
X360508Y418712D02*
X363556D01*
X139782D02*
X333076D01*
X82D02*
X115144D01*
X360254Y418966D02*
X363556D01*
X140036D02*
X332822D01*
X82D02*
X115398D01*
X360254Y419220D02*
X363556D01*
X140290D02*
X332568D01*
X82D02*
X115652D01*
X360000Y419474D02*
X363556D01*
X140544D02*
X332314D01*
X82D02*
X115906D01*
X359746Y419728D02*
X363302D01*
X140798D02*
X332060D01*
X336D02*
X116160D01*
X359492Y419982D02*
X363302D01*
X141306D02*
X331806D01*
X336D02*
X116414D01*
X359238Y420236D02*
X363302D01*
X141560D02*
X331552D01*
X336D02*
X116668D01*
X358984Y420490D02*
X363302D01*
X141814D02*
X331044D01*
X336D02*
X116668D01*
X358730Y420744D02*
X363302D01*
X142068D02*
X330790D01*
X336D02*
X116922D01*
X358476Y420998D02*
X363048D01*
X142322D02*
X330536D01*
X590D02*
X117176D01*
X358222Y421252D02*
X363048D01*
X142576D02*
X330282D01*
X590D02*
X117430D01*
X357968Y421506D02*
X363048D01*
X143084D02*
X330028D01*
X590D02*
X117684D01*
X357714Y421760D02*
X362794D01*
X143338D02*
X329520D01*
X844D02*
X117938D01*
X357460Y422014D02*
X362794D01*
X143592D02*
X329266D01*
X844D02*
X118192D01*
X357460Y422268D02*
X362794D01*
X143846D02*
X329012D01*
X844D02*
X118446D01*
X357206Y422522D02*
X362794D01*
X144100D02*
X328758D01*
X844D02*
X118700D01*
X356952Y422776D02*
X362540D01*
X144608D02*
X328504D01*
X1098D02*
X118954D01*
X356698Y423030D02*
X362540D01*
X144862D02*
X327996D01*
X1098D02*
X119208D01*
X356444Y423284D02*
X362540D01*
X145116D02*
X327742D01*
X1098D02*
X119462D01*
X356190Y423538D02*
X362286D01*
X145370D02*
X327488D01*
X1352D02*
X119716D01*
X355936Y423792D02*
X362286D01*
X145878D02*
X327234D01*
X1352D02*
X119970D01*
X355682Y424046D02*
X362286D01*
X146132D02*
X326726D01*
X1352D02*
X120224D01*
X355428Y424300D02*
X362032D01*
X146386D02*
X326472D01*
X1606D02*
X120478D01*
X355174Y424554D02*
X362032D01*
X146640D02*
X326218D01*
X1606D02*
X120732D01*
X354920Y424808D02*
X361778D01*
X147148D02*
X325964D01*
X1860D02*
X120986D01*
X354666Y425062D02*
X361778D01*
X147402D02*
X325456D01*
X1860D02*
X121240D01*
X354412Y425316D02*
X361778D01*
X147656D02*
X325202D01*
X1860D02*
X121240D01*
X354158Y425570D02*
X361524D01*
X148164D02*
X324948D01*
X2114D02*
X121494D01*
X353904Y425824D02*
X361524D01*
X148418D02*
X324440D01*
X2114D02*
X121748D01*
X353650Y426078D02*
X361270D01*
X148672D02*
X324186D01*
X2368D02*
X122002D01*
X353396Y426332D02*
X361270D01*
X148926D02*
X323932D01*
X2368D02*
X122256D01*
X353142Y426586D02*
X361270D01*
X149434D02*
X323424D01*
X2368D02*
X122510D01*
X352888Y426840D02*
X361016D01*
X149688D02*
X323170D01*
X2622D02*
X122764D01*
X352634Y427094D02*
X361016D01*
X149942D02*
X322916D01*
X2622D02*
X123272D01*
X352380Y427348D02*
X360762D01*
X150450D02*
X322408D01*
X2876D02*
X123526D01*
X352126Y427602D02*
X360762D01*
X150704D02*
X322154D01*
X2876D02*
X123780D01*
X351872Y427856D02*
X360508D01*
X151212D02*
X321900D01*
X3130D02*
X124034D01*
X351618Y428110D02*
X360508D01*
X151466D02*
X321392D01*
X3130D02*
X124288D01*
X351364Y428364D02*
X360254D01*
X151720D02*
X321138D01*
X3384D02*
X124542D01*
X351110Y428618D02*
X360254D01*
X152228D02*
X320884D01*
X3384D02*
X124796D01*
X350856Y428872D02*
X360000D01*
X152482D02*
X320376D01*
X3638D02*
X125050D01*
X350602Y429126D02*
X360000D01*
X152990D02*
X320122D01*
X3638D02*
X125304D01*
X350348Y429380D02*
X359746D01*
X153244D02*
X319614D01*
X3892D02*
X125558D01*
X350094Y429634D02*
X359746D01*
X153498D02*
X319360D01*
X3892D02*
X125812D01*
X349840Y429888D02*
X359492D01*
X154006D02*
X318852D01*
X4146D02*
X126066D01*
X349332Y430142D02*
X359492D01*
X154260D02*
X318598D01*
X4146D02*
X126320D01*
X349078Y430396D02*
X359238D01*
X154768D02*
X318090D01*
X4400D02*
X126574D01*
X348824Y430650D02*
X359238D01*
X155022D02*
X317836D01*
X4400D02*
X126828D01*
X348570Y430904D02*
X358984D01*
X155530D02*
X317582D01*
X4654D02*
X127082D01*
X348316Y431158D02*
X358730D01*
X155784D02*
X317074D01*
X4908D02*
X127336D01*
X348062Y431412D02*
X358730D01*
X156292D02*
X316820D01*
X4908D02*
X127590D01*
X347808Y431666D02*
X358476D01*
X156546D02*
X316312D01*
X5162D02*
X128098D01*
X347554Y431920D02*
X358476D01*
X157054D02*
X315804D01*
X5162D02*
X128352D01*
X347300Y432174D02*
X358222D01*
X157308D02*
X315550D01*
X5416D02*
X128606D01*
X347046Y432428D02*
X357968D01*
X157816D02*
X315042D01*
X5670D02*
X128860D01*
X346792Y432682D02*
X357968D01*
X158070D02*
X314788D01*
X5670D02*
X129114D01*
X346284Y432936D02*
X357714D01*
X158578D02*
X314280D01*
X5924D02*
X129368D01*
X346030Y433190D02*
X357460D01*
X159086D02*
X314026D01*
X6178D02*
X129622D01*
X345776Y433444D02*
X357460D01*
X159340D02*
X313518D01*
X6178D02*
X129876D01*
X345522Y433698D02*
X357206D01*
X159848D02*
X313010D01*
X6432D02*
X130384D01*
X345268Y433952D02*
X356952D01*
X160102D02*
X312756D01*
X6686D02*
X130638D01*
X345014Y434206D02*
X356952D01*
X160610D02*
X312248D01*
X6686D02*
X130892D01*
X344760Y434460D02*
X356698D01*
X161118D02*
X311994D01*
X6940D02*
X131146D01*
X344252Y434714D02*
X356444D01*
X161372D02*
X311486D01*
X7194D02*
X131400D01*
X343998Y434968D02*
X356190D01*
X161880D02*
X310978D01*
X7448D02*
X131654D01*
X343744Y435222D02*
X355936D01*
X162388D02*
X310724D01*
X7448D02*
X132162D01*
X343490Y435476D02*
X355936D01*
X162642D02*
X310216D01*
X7702D02*
X132416D01*
X343236Y435730D02*
X355682D01*
X163150D02*
X309708D01*
X7956D02*
X132670D01*
X342728Y435984D02*
X355428D01*
X163658D02*
X309200D01*
X8210D02*
X132924D01*
X342474Y436238D02*
X355174D01*
X164166D02*
X308946D01*
X8464D02*
X133178D01*
X342220Y436492D02*
X354920D01*
X164420D02*
X308438D01*
X8718D02*
X133686D01*
X341966Y436746D02*
X354920D01*
X164928D02*
X307930D01*
X8718D02*
X133940D01*
X341712Y437000D02*
X354666D01*
X165436D02*
X307676D01*
X8972D02*
X134194D01*
X341204Y437254D02*
X354412D01*
X165944D02*
X307168D01*
X9226D02*
X134448D01*
X340950Y437508D02*
X354158D01*
X166198D02*
X306660D01*
X9480D02*
X134702D01*
X340696Y437762D02*
X353904D01*
X166706D02*
X306152D01*
X9734D02*
X135210D01*
X340442Y438016D02*
X353650D01*
X167214D02*
X305644D01*
X9988D02*
X135464D01*
X339934Y438270D02*
X353396D01*
X167722D02*
X305136D01*
X10242D02*
X135718D01*
X339680Y438524D02*
X353142D01*
X168230D02*
X304882D01*
X10496D02*
X135972D01*
X339426Y438778D02*
X352888D01*
X168738D02*
X304374D01*
X10750D02*
X136480D01*
X339172Y439032D02*
X352634D01*
X169246D02*
X303866D01*
X11004D02*
X136734D01*
X338664Y439286D02*
X352380D01*
X169754D02*
X303358D01*
X11258D02*
X136988D01*
X338410Y439540D02*
X352126D01*
X170008D02*
X302850D01*
X11512D02*
X137242D01*
X338156Y439794D02*
X351872D01*
X170516D02*
X302342D01*
X11766D02*
X137750D01*
X337648Y440048D02*
X351618D01*
X171024D02*
X301834D01*
X12020D02*
X138004D01*
X337394Y440302D02*
X351364D01*
X171532D02*
X301326D01*
X12274D02*
X138258D01*
X337140Y440556D02*
X351110D01*
X172040D02*
X300818D01*
X12528D02*
X138766D01*
X336886Y440810D02*
X350856D01*
X172548D02*
X300310D01*
X12782D02*
X139020D01*
X336378Y441064D02*
X350602D01*
X173310D02*
X299802D01*
X13036D02*
X139274D01*
X336124Y441318D02*
X350094D01*
X173818D02*
X299294D01*
X13544D02*
X139782D01*
X335870Y441572D02*
X349840D01*
X174326D02*
X298786D01*
X13798D02*
X140036D01*
X335362Y441826D02*
X349586D01*
X174834D02*
X298278D01*
X14052D02*
X140290D01*
X335108Y442080D02*
X349332D01*
X175342D02*
X297516D01*
X14306D02*
X140798D01*
X334854Y442334D02*
X348824D01*
X175850D02*
X297008D01*
X14814D02*
X141052D01*
X334346Y442588D02*
X348570D01*
X176358D02*
X296500D01*
X15068D02*
X141306D01*
X334092Y442842D02*
X348316D01*
X177120D02*
X295992D01*
X15322D02*
X141814D01*
X333584Y443096D02*
X347808D01*
X177628D02*
X295484D01*
X15830D02*
X142068D01*
X333330Y443350D02*
X347554D01*
X178136D02*
X294722D01*
X16084D02*
X142576D01*
X333076Y443604D02*
X347300D01*
X178644D02*
X294214D01*
X16338D02*
X142830D01*
X332568Y443858D02*
X346792D01*
X179406D02*
X293706D01*
X16846D02*
X143084D01*
X332314Y444112D02*
X346538D01*
X179914D02*
X292944D01*
X17100D02*
X143592D01*
X331806Y444366D02*
X346030D01*
X180422D02*
X292436D01*
X17608D02*
X143846D01*
X331552Y444620D02*
X345522D01*
X181184D02*
X291928D01*
X18116D02*
X144354D01*
X331044Y444874D02*
X345268D01*
X181692D02*
X291166D01*
X18370D02*
X144608D01*
X330790Y445128D02*
X344760D01*
X182454D02*
X290658D01*
X18878D02*
X144862D01*
X330536Y445382D02*
X344252D01*
X182962D02*
X289896D01*
X19386D02*
X145370D01*
X330028Y445636D02*
X343998D01*
X183724D02*
X289388D01*
X19640D02*
X145624D01*
X329774Y445890D02*
X343490D01*
X184232D02*
X288626D01*
X20148D02*
X146132D01*
X329266Y446144D02*
X342982D01*
X184994D02*
X287864D01*
X20656D02*
X146386D01*
X329012Y446398D02*
X342474D01*
X185756D02*
X287356D01*
X21164D02*
X146894D01*
X328504Y446652D02*
X341966D01*
X186264D02*
X286594D01*
X21672D02*
X147148D01*
X328250Y446906D02*
X341458D01*
X187026D02*
X285832D01*
X22180D02*
X147656D01*
X327742Y447160D02*
X340950D01*
X187788D02*
X285324D01*
X22688D02*
X147910D01*
X327488Y447414D02*
X340188D01*
X188550D02*
X284562D01*
X23450D02*
X148418D01*
X326980Y447668D02*
X339680D01*
X189312D02*
X283800D01*
X23958D02*
X148672D01*
X326726Y447922D02*
X339172D01*
X189820D02*
X283038D01*
X24720D02*
X149180D01*
X326218Y448176D02*
X338410D01*
X190582D02*
X282276D01*
X25228D02*
X149688D01*
X325710Y448430D02*
X337648D01*
X191344D02*
X281514D01*
X25990D02*
X149942D01*
X325456Y448684D02*
X336886D01*
X192360D02*
X280752D01*
X26752D02*
X150450D01*
X324948Y448938D02*
X336124D01*
X193122D02*
X279990D01*
X27514D02*
X150704D01*
X324694Y449192D02*
X335362D01*
X193884D02*
X278974D01*
X28276D02*
X151212D01*
X324186Y449446D02*
X334346D01*
X194646D02*
X278212D01*
X29292D02*
X151466D01*
X323678Y449700D02*
X333330D01*
X195662D02*
X277450D01*
X30308D02*
X151974D01*
X323424Y449954D02*
X332060D01*
X196424D02*
X276434D01*
X31578D02*
X152482D01*
X322916Y450208D02*
X330536D01*
X197186D02*
X275672D01*
X33102D02*
X152736D01*
X322662Y450462D02*
X328758D01*
X198202D02*
X274656D01*
X34880D02*
X153244D01*
M02*
