M48
;Layer_Color=9474304
;FILE_FORMAT=4:4
METRIC,TZ
;TYPE=PLATED
T1F00S00C0.3000
T2F00S00C0.8001
T3F00S00C1.0000
T4F00S00C1.1176
%
T01
X70000Y130000
X170000Y150000
X271501Y153499
X165000Y284999
X157500Y302500
X145000Y305000
X155000Y337500
X342500Y330000
X132500Y325000
X100000
X97500Y395000
X82500
X66770Y393230
X35000Y382500
X40000Y292499
X27500Y292500
Y262500
X72500Y145000
X97500
X123500Y423500
T02
X59999Y430000
X90001
T03
X60001Y40001
X104999
Y104999
X60001
X157501
X202499
X257501
X302499
Y40001
X257501
X202499
X157501
T04
X65000Y264200
Y289600
Y315000
Y340400
M30
