G04 Layer_Color=8388736*
%FSLAX25Y25*%
%MOIN*%
G70*
G01*
G75*
%ADD32R,0.09800X0.03162*%
%ADD33R,0.05131X0.04737*%
%ADD34R,0.03950X0.08674*%
%ADD35R,0.04343X0.03950*%
%ADD36R,0.04737X0.03950*%
%ADD37C,0.06800*%
%ADD38C,0.06706*%
%ADD39R,0.06706X0.06706*%
%ADD40O,0.06706X0.12611*%
%ADD41C,0.03950*%
%ADD42O,0.15600X0.08200*%
%ADD43C,0.02768*%
D32*
X95158Y81319D02*
D03*
Y76319D02*
D03*
Y66319D02*
D03*
X121378Y81319D02*
D03*
Y76319D02*
D03*
Y66319D02*
D03*
X95158Y71319D02*
D03*
X121378D02*
D03*
D33*
X106890Y53150D02*
D03*
X113582D02*
D03*
X74212D02*
D03*
X67520D02*
D03*
X29134D02*
D03*
X35826D02*
D03*
D34*
X26288Y161023D02*
D03*
X38099D02*
D03*
X20382D02*
D03*
D35*
X44489Y164862D02*
D03*
X14567D02*
D03*
D36*
X44292Y173720D02*
D03*
X14764D02*
D03*
D37*
X128937Y163386D02*
D03*
D38*
X6890Y96653D02*
D03*
Y106653D02*
D03*
Y116654D02*
D03*
Y126654D02*
D03*
Y136653D02*
D03*
D39*
Y146653D02*
D03*
D40*
X79724Y41338D02*
D03*
Y15748D02*
D03*
X62008Y41338D02*
D03*
Y15748D02*
D03*
X23622D02*
D03*
Y41338D02*
D03*
X41338Y15748D02*
D03*
Y41338D02*
D03*
X119094D02*
D03*
Y15748D02*
D03*
X101378Y41338D02*
D03*
Y15748D02*
D03*
D41*
X35434Y169291D02*
D03*
X23622D02*
D03*
D42*
X28701Y102323D02*
D03*
Y112323D02*
D03*
Y122323D02*
D03*
Y132323D02*
D03*
D43*
X6890Y153543D02*
D03*
X29528Y143701D02*
D03*
X124016Y88583D02*
D03*
X19685Y126969D02*
D03*
X45276Y107283D02*
D03*
X34449Y48228D02*
D03*
X80709Y57087D02*
D03*
X19685Y96457D02*
D03*
X38386Y109252D02*
D03*
X35826Y59646D02*
D03*
X39370Y60039D02*
D03*
M02*
