G04 Layer_Physical_Order=1*
G04 Layer_Color=255*
%FSLAX44Y44*%
%MOMM*%
G71*
G01*
G75*
%ADD10R,0.9000X0.8000*%
%ADD11R,0.8001X2.0000*%
%ADD12R,0.8999X0.8001*%
%ADD13R,1.0000X0.8001*%
G04:AMPARAMS|DCode=14|XSize=0.8mm|YSize=1.2mm|CornerRadius=0mm|HoleSize=0mm|Usage=FLASHONLY|Rotation=135.000|XOffset=0mm|YOffset=0mm|HoleType=Round|Shape=Rectangle|*
%AMROTATEDRECTD14*
4,1,4,0.7071,0.1414,-0.1414,-0.7071,-0.7071,-0.1414,0.1414,0.7071,0.7071,0.1414,0.0*
%
%ADD14ROTATEDRECTD14*%

%ADD15C,0.2540*%
%ADD16O,3.7592X1.8796*%
%ADD17O,1.5000X3.0000*%
%ADD18C,0.8001*%
%ADD19C,0.5000*%
G36*
X362500Y0D02*
X0D01*
Y450000D01*
X362500D01*
Y0D01*
D02*
G37*
%LPC*%
G36*
X102386Y143730D02*
X98770D01*
Y140114D01*
X99466Y140252D01*
X101134Y141366D01*
X102248Y143034D01*
X102386Y143730D01*
D02*
G37*
G36*
X72500Y149103D02*
X70930Y148791D01*
X69599Y147901D01*
X68710Y146570D01*
X68397Y145000D01*
X68710Y143430D01*
X69599Y142099D01*
X69651Y142064D01*
Y138143D01*
X62794D01*
X62794Y138143D01*
X61704Y137926D01*
X60780Y137308D01*
X57986Y134514D01*
X57368Y133590D01*
X57151Y132500D01*
X57151Y132500D01*
Y121087D01*
X55450Y120382D01*
X53565Y118935D01*
X52118Y117050D01*
X51209Y114855D01*
X50899Y112499D01*
Y97499D01*
X51209Y95144D01*
X52118Y92948D01*
X53565Y91063D01*
X55450Y89617D01*
X57152Y88912D01*
Y56088D01*
X55450Y55383D01*
X53565Y53937D01*
X52118Y52052D01*
X51209Y49856D01*
X50899Y47501D01*
Y32501D01*
X51209Y30145D01*
X52118Y27950D01*
X53565Y26065D01*
X55450Y24618D01*
X57645Y23709D01*
X60001Y23399D01*
X62356Y23709D01*
X64552Y24618D01*
X66437Y26065D01*
X67883Y27950D01*
X68792Y30145D01*
X69103Y32501D01*
Y47501D01*
X68792Y49856D01*
X67883Y52052D01*
X66437Y53937D01*
X64552Y55383D01*
X62849Y56088D01*
Y88912D01*
X64552Y89617D01*
X66437Y91063D01*
X67883Y92948D01*
X68792Y95144D01*
X69103Y97499D01*
Y112499D01*
X68792Y114855D01*
X67883Y117050D01*
X66437Y118935D01*
X64552Y120382D01*
X62849Y121087D01*
Y130494D01*
X63981Y131554D01*
X64196Y131270D01*
X70000D01*
Y130000D01*
X71270D01*
Y125114D01*
X71967Y125252D01*
X73634Y126366D01*
X74158Y127151D01*
X85999D01*
X85999Y127151D01*
X87089Y127368D01*
X88013Y127986D01*
X93013Y132986D01*
X93013Y132986D01*
X93631Y133910D01*
X93848Y135000D01*
Y137319D01*
X96230Y139701D01*
Y143730D01*
X92201D01*
X88984Y140513D01*
X88367Y139589D01*
X88150Y138499D01*
X88150Y138499D01*
Y136180D01*
X84819Y132849D01*
X77452D01*
X77053Y133365D01*
X76675Y134119D01*
X76850Y135000D01*
X76633Y136090D01*
X76016Y137014D01*
X75349Y137681D01*
Y142064D01*
X75401Y142099D01*
X76290Y143430D01*
X76603Y145000D01*
X76290Y146570D01*
X75401Y147901D01*
X74070Y148791D01*
X72500Y149103D01*
D02*
G37*
G36*
X170000Y154103D02*
X168430Y153791D01*
X167099Y152901D01*
X166210Y151570D01*
X165897Y150000D01*
X166210Y148430D01*
X167099Y147099D01*
X168430Y146209D01*
X168652Y146165D01*
Y136180D01*
X167821Y135349D01*
X160000D01*
X160000Y135349D01*
X158910Y135132D01*
X157986Y134514D01*
X155486Y132014D01*
X154868Y131090D01*
X154651Y130000D01*
X154651Y130000D01*
Y121087D01*
X152950Y120382D01*
X151065Y118935D01*
X149618Y117050D01*
X148709Y114855D01*
X148399Y112499D01*
Y97499D01*
X148709Y95144D01*
X149618Y92948D01*
X151065Y91063D01*
X152950Y89617D01*
X154652Y88912D01*
Y56088D01*
X152950Y55383D01*
X151065Y53937D01*
X149618Y52052D01*
X148709Y49856D01*
X148399Y47501D01*
Y32501D01*
X148709Y30145D01*
X149618Y27950D01*
X151065Y26065D01*
X152950Y24618D01*
X155145Y23709D01*
X157501Y23399D01*
X159856Y23709D01*
X162052Y24618D01*
X163937Y26065D01*
X165383Y27950D01*
X166292Y30145D01*
X166602Y32501D01*
Y47501D01*
X166292Y49856D01*
X165383Y52052D01*
X163937Y53937D01*
X162052Y55383D01*
X160349Y56088D01*
Y88912D01*
X162052Y89617D01*
X163937Y91063D01*
X165383Y92948D01*
X166292Y95144D01*
X166602Y97499D01*
Y112499D01*
X166292Y114855D01*
X165383Y117050D01*
X163937Y118935D01*
X162052Y120382D01*
X160349Y121087D01*
Y128820D01*
X161180Y129651D01*
X169001D01*
X169001Y129651D01*
X170091Y129868D01*
X171015Y130486D01*
X173515Y132986D01*
X173515Y132986D01*
X174133Y133910D01*
X174350Y135000D01*
Y148499D01*
X174133Y149589D01*
X174047Y149718D01*
X174103Y150000D01*
X173790Y151570D01*
X172901Y152901D01*
X171570Y153791D01*
X170000Y154103D01*
D02*
G37*
G36*
X96230Y149886D02*
X95534Y149748D01*
X93866Y148634D01*
X92752Y146966D01*
X92614Y146270D01*
X96230D01*
Y149886D01*
D02*
G37*
G36*
X157500Y306603D02*
X155930Y306290D01*
X154599Y305401D01*
X153709Y304070D01*
X153397Y302500D01*
X153709Y300930D01*
X154599Y299599D01*
X154651Y299564D01*
Y289999D01*
X154651Y289999D01*
X154868Y288909D01*
X155486Y287985D01*
X160485Y282985D01*
X160485Y282985D01*
X161409Y282367D01*
X161997Y282251D01*
X162099Y282098D01*
X163430Y281209D01*
X165000Y280897D01*
X166570Y281209D01*
X167901Y282098D01*
X168790Y283429D01*
X169102Y284999D01*
X168790Y286569D01*
X167901Y287901D01*
X166570Y288790D01*
X165000Y289102D01*
X163430Y288790D01*
X163015Y288513D01*
X160349Y291179D01*
Y299564D01*
X160401Y299599D01*
X161290Y300930D01*
X161603Y302500D01*
X161290Y304070D01*
X160401Y305401D01*
X159070Y306290D01*
X157500Y306603D01*
D02*
G37*
G36*
X86272Y262930D02*
X66270D01*
Y252159D01*
X74398D01*
X77514Y252569D01*
X80419Y253772D01*
X82912Y255686D01*
X84826Y258179D01*
X86029Y261084D01*
X86272Y262930D01*
D02*
G37*
G36*
X98770Y149886D02*
Y146270D01*
X102386D01*
X102248Y146966D01*
X101134Y148634D01*
X99466Y149748D01*
X98770Y149886D01*
D02*
G37*
G36*
X68730Y128730D02*
X65114D01*
X65252Y128034D01*
X66366Y126366D01*
X68033Y125252D01*
X68730Y125114D01*
Y128730D01*
D02*
G37*
G36*
X271501Y157602D02*
X269931Y157289D01*
X268600Y156400D01*
X267711Y155069D01*
X267398Y153499D01*
X267711Y151929D01*
X268600Y150598D01*
X268652Y150563D01*
Y137849D01*
X262500D01*
X261410Y137632D01*
X260486Y137014D01*
X260486Y137014D01*
X255486Y132014D01*
X254868Y131090D01*
X254651Y130000D01*
X254651Y130000D01*
Y121087D01*
X252950Y120382D01*
X251065Y118935D01*
X249618Y117050D01*
X248709Y114855D01*
X248399Y112499D01*
Y97499D01*
X248709Y95144D01*
X249618Y92948D01*
X251065Y91063D01*
X252950Y89617D01*
X254652Y88912D01*
Y56088D01*
X252950Y55383D01*
X251065Y53937D01*
X249618Y52052D01*
X248709Y49856D01*
X248399Y47501D01*
Y32501D01*
X248709Y30145D01*
X249618Y27950D01*
X251065Y26065D01*
X252950Y24618D01*
X255145Y23709D01*
X257501Y23399D01*
X259856Y23709D01*
X262052Y24618D01*
X263937Y26065D01*
X265383Y27950D01*
X266292Y30145D01*
X266602Y32501D01*
Y47501D01*
X266292Y49856D01*
X265383Y52052D01*
X263937Y53937D01*
X262052Y55383D01*
X260349Y56088D01*
Y88912D01*
X262052Y89617D01*
X263937Y91063D01*
X265383Y92948D01*
X266292Y95144D01*
X266602Y97499D01*
Y112499D01*
X266292Y114855D01*
X265383Y117050D01*
X263937Y118935D01*
X262052Y120382D01*
X260349Y121087D01*
Y128820D01*
X263680Y132151D01*
X271501D01*
X272591Y132368D01*
X273515Y132986D01*
X274133Y133910D01*
X274350Y135000D01*
Y150563D01*
X274402Y150598D01*
X275292Y151929D01*
X275604Y153499D01*
X275292Y155069D01*
X274402Y156400D01*
X273071Y157289D01*
X271501Y157602D01*
D02*
G37*
G36*
X202499Y56603D02*
X200144Y56292D01*
X197948Y55383D01*
X196063Y53937D01*
X194617Y52052D01*
X193708Y49856D01*
X193398Y47501D01*
Y32501D01*
X193708Y30145D01*
X194617Y27950D01*
X196063Y26065D01*
X197948Y24618D01*
X200144Y23709D01*
X202499Y23399D01*
X204855Y23709D01*
X207050Y24618D01*
X208935Y26065D01*
X210382Y27950D01*
X211291Y30145D01*
X211601Y32501D01*
Y47501D01*
X211291Y49856D01*
X210382Y52052D01*
X208935Y53937D01*
X207050Y55383D01*
X204855Y56292D01*
X202499Y56603D01*
D02*
G37*
G36*
X104999D02*
X102644Y56292D01*
X100448Y55383D01*
X98563Y53937D01*
X97117Y52052D01*
X96208Y49856D01*
X95897Y47501D01*
Y32501D01*
X96208Y30145D01*
X97117Y27950D01*
X98563Y26065D01*
X100448Y24618D01*
X102644Y23709D01*
X104999Y23399D01*
X107355Y23709D01*
X109550Y24618D01*
X111435Y26065D01*
X112882Y27950D01*
X113791Y30145D01*
X114101Y32501D01*
Y47501D01*
X113791Y49856D01*
X112882Y52052D01*
X111435Y53937D01*
X109550Y55383D01*
X107355Y56292D01*
X104999Y56603D01*
D02*
G37*
G36*
X302499D02*
X300144Y56292D01*
X297948Y55383D01*
X296063Y53937D01*
X294617Y52052D01*
X293708Y49856D01*
X293398Y47501D01*
Y32501D01*
X293708Y30145D01*
X294617Y27950D01*
X296063Y26065D01*
X297948Y24618D01*
X300144Y23709D01*
X302499Y23399D01*
X304855Y23709D01*
X307050Y24618D01*
X308935Y26065D01*
X310382Y27950D01*
X311291Y30145D01*
X311601Y32501D01*
Y47501D01*
X311291Y49856D01*
X310382Y52052D01*
X308935Y53937D01*
X307050Y55383D01*
X304855Y56292D01*
X302499Y56603D01*
D02*
G37*
G36*
Y121601D02*
X300144Y121291D01*
X297948Y120382D01*
X296063Y118935D01*
X294617Y117050D01*
X293708Y114855D01*
X293398Y112499D01*
Y97499D01*
X293708Y95144D01*
X294617Y92948D01*
X296063Y91063D01*
X297948Y89617D01*
X300144Y88708D01*
X302499Y88398D01*
X304855Y88708D01*
X307050Y89617D01*
X308935Y91063D01*
X310382Y92948D01*
X311291Y95144D01*
X311601Y97499D01*
Y112499D01*
X311291Y114855D01*
X310382Y117050D01*
X308935Y118935D01*
X307050Y120382D01*
X304855Y121291D01*
X302499Y121601D01*
D02*
G37*
G36*
X202499D02*
X200144Y121291D01*
X197948Y120382D01*
X196063Y118935D01*
X194617Y117050D01*
X193708Y114855D01*
X193398Y112499D01*
Y97499D01*
X193708Y95144D01*
X194617Y92948D01*
X196063Y91063D01*
X197948Y89617D01*
X200144Y88708D01*
X202499Y88398D01*
X204855Y88708D01*
X207050Y89617D01*
X208935Y91063D01*
X210382Y92948D01*
X211291Y95144D01*
X211601Y97499D01*
Y112499D01*
X211291Y114855D01*
X210382Y117050D01*
X208935Y118935D01*
X207050Y120382D01*
X204855Y121291D01*
X202499Y121601D01*
D02*
G37*
G36*
X104999D02*
X102644Y121291D01*
X100448Y120382D01*
X98563Y118935D01*
X97117Y117050D01*
X96208Y114855D01*
X95897Y112499D01*
Y97499D01*
X96208Y95144D01*
X97117Y92948D01*
X98563Y91063D01*
X100448Y89617D01*
X102644Y88708D01*
X104999Y88398D01*
X107355Y88708D01*
X109550Y89617D01*
X111435Y91063D01*
X112882Y92948D01*
X113791Y95144D01*
X114101Y97499D01*
Y112499D01*
X113791Y114855D01*
X112882Y117050D01*
X111435Y118935D01*
X109550Y120382D01*
X107355Y121291D01*
X104999Y121601D01*
D02*
G37*
G36*
X41499Y424400D02*
X32499D01*
X31333Y423917D01*
X30850Y422751D01*
Y414750D01*
X31333Y413583D01*
X32499Y413100D01*
X41499D01*
X42665Y413583D01*
X43148Y414750D01*
Y422751D01*
X42665Y423917D01*
X41499Y424400D01*
D02*
G37*
G36*
X42499Y446900D02*
X32499D01*
X31333Y446417D01*
X30850Y445250D01*
Y437249D01*
X31333Y436083D01*
X32499Y435600D01*
X42499D01*
X43666Y436083D01*
X44149Y437249D01*
Y445250D01*
X43666Y446417D01*
X42499Y446900D01*
D02*
G37*
G36*
X70771Y420649D02*
X62770D01*
X61603Y420166D01*
X61120Y418999D01*
Y398999D01*
X61603Y397833D01*
X62770Y397350D01*
X63582D01*
X63835Y396080D01*
X62980Y394800D01*
X62668Y393230D01*
X62980Y391660D01*
X63869Y390328D01*
X65200Y389439D01*
X66770Y389127D01*
X68341Y389439D01*
X69672Y390328D01*
X70561Y391660D01*
X70873Y393230D01*
X70561Y394800D01*
X69706Y396080D01*
X69959Y397350D01*
X70771D01*
X71937Y397833D01*
X72421Y398999D01*
Y418999D01*
X71937Y420166D01*
X70771Y420649D01*
D02*
G37*
G36*
X55770D02*
X47769D01*
X46602Y420166D01*
X46119Y418999D01*
Y398999D01*
X46602Y397833D01*
X47769Y397350D01*
X55770D01*
X56936Y397833D01*
X57419Y398999D01*
Y418999D01*
X56936Y420166D01*
X55770Y420649D01*
D02*
G37*
G36*
X90001Y435728D02*
X89845Y435664D01*
X89679Y435697D01*
X88118Y435386D01*
X87846Y435204D01*
X87524Y435140D01*
X86201Y434256D01*
X86018Y433983D01*
X85745Y433801D01*
X84861Y432477D01*
X84797Y432155D01*
X84615Y431883D01*
X84305Y430322D01*
X84368Y430000D01*
X84305Y429678D01*
X84615Y428117D01*
X84797Y427845D01*
X84861Y427523D01*
X85745Y426199D01*
X86018Y426017D01*
X86201Y425744D01*
X87524Y424860D01*
X87846Y424796D01*
X88118Y424614D01*
X89679Y424303D01*
X89845Y424336D01*
X90001Y424272D01*
X90157Y424336D01*
X90323Y424303D01*
X91884Y424614D01*
X92157Y424796D01*
X92479Y424860D01*
X93802Y425744D01*
X93984Y426017D01*
X94257Y426199D01*
X95141Y427523D01*
X95205Y427845D01*
X95387Y428117D01*
X95698Y429678D01*
X95634Y430000D01*
X95698Y430322D01*
X95387Y431883D01*
X95205Y432155D01*
X95141Y432477D01*
X94257Y433801D01*
X93984Y433983D01*
X93802Y434256D01*
X92479Y435140D01*
X92157Y435204D01*
X91884Y435386D01*
X90323Y435697D01*
X90157Y435664D01*
X90001Y435728D01*
D02*
G37*
G36*
X331026Y444109D02*
X329860Y443626D01*
X329860Y443626D01*
X327631Y441397D01*
X327381Y441648D01*
X326457Y442265D01*
X325367Y442482D01*
X325367Y442482D01*
X322133D01*
X322133Y442482D01*
X321043Y442265D01*
X320119Y441648D01*
X320119Y441647D01*
X318820Y440349D01*
X138650D01*
Y441500D01*
X138166Y442666D01*
X137000Y443150D01*
X128000D01*
X126834Y442666D01*
X126350Y441500D01*
Y433500D01*
X126834Y432334D01*
X128000Y431850D01*
X137000D01*
X138166Y432334D01*
X138650Y433500D01*
Y434651D01*
X142963D01*
X143449Y433478D01*
X140486Y430514D01*
X140027Y429828D01*
X139654Y429673D01*
X139047Y429542D01*
X138558Y429514D01*
X137991Y429893D01*
X137000Y430090D01*
X133770D01*
Y423500D01*
X131230D01*
Y430090D01*
X128000D01*
X127009Y429893D01*
X126169Y429331D01*
X125607Y428491D01*
X124770Y428482D01*
Y423500D01*
X122230D01*
Y428386D01*
X121533Y428248D01*
X119866Y427134D01*
X118752Y425466D01*
X118657Y424984D01*
X117536Y424385D01*
X117501Y424400D01*
X108501D01*
X107335Y423917D01*
X106852Y422751D01*
Y414750D01*
X106891Y414655D01*
X106186Y413599D01*
X102420D01*
Y418999D01*
X101937Y420166D01*
X100771Y420649D01*
X92770D01*
X91603Y420166D01*
X91120Y418999D01*
Y398999D01*
X91159Y398905D01*
X90454Y397849D01*
X85436D01*
X85401Y397901D01*
X84070Y398791D01*
X82500Y399103D01*
X80930Y398791D01*
X79599Y397901D01*
X78710Y396570D01*
X78397Y395000D01*
X78710Y393430D01*
X79599Y392099D01*
X80930Y391209D01*
X82500Y390897D01*
X84070Y391209D01*
X85401Y392099D01*
X85436Y392151D01*
X88963D01*
X89449Y390978D01*
X83820Y385349D01*
X37936D01*
X37901Y385401D01*
X36570Y386291D01*
X35000Y386603D01*
X33430Y386291D01*
X32099Y385401D01*
X31209Y384070D01*
X30897Y382500D01*
X31209Y380930D01*
X32099Y379599D01*
X33430Y378709D01*
X35000Y378397D01*
X36570Y378709D01*
X37901Y379599D01*
X37936Y379651D01*
X85000D01*
X85000Y379651D01*
X86090Y379868D01*
X87014Y380486D01*
X97438Y390910D01*
X97500Y390897D01*
X99070Y391209D01*
X100401Y392099D01*
X101291Y393430D01*
X101603Y395000D01*
X101341Y396316D01*
X101291Y396570D01*
X101937Y397833D01*
X102420Y398999D01*
Y407901D01*
X138250D01*
X138250Y407901D01*
X139340Y408118D01*
X140264Y408736D01*
X144514Y412986D01*
X144514Y412986D01*
X145132Y413910D01*
X145349Y415000D01*
Y427320D01*
X148180Y430151D01*
X315820D01*
X327986Y417986D01*
X328910Y417368D01*
X330000Y417151D01*
X330000Y417151D01*
X335776D01*
X335776Y417151D01*
X336823Y417359D01*
X337808Y416374D01*
X338967Y415894D01*
X338974Y415891D01*
X340140Y416374D01*
X340140Y416374D01*
X348626Y424860D01*
X349106Y426019D01*
X349109Y426026D01*
X348626Y427192D01*
X348625Y427192D01*
X342969Y432849D01*
X341809Y433330D01*
X341802Y433332D01*
X340636Y432849D01*
X340636Y432849D01*
X332151Y424364D01*
X331949Y423876D01*
X330494Y423535D01*
X328535Y425494D01*
X328876Y426949D01*
X329364Y427151D01*
X329364Y427151D01*
X337849Y435636D01*
X338330Y436796D01*
X338332Y436802D01*
X337849Y437969D01*
X337849Y437969D01*
X332192Y443626D01*
X331033Y444106D01*
X331026Y444109D01*
D02*
G37*
G36*
X117501Y446900D02*
X107501D01*
X106334Y446417D01*
X105851Y445250D01*
Y437249D01*
X106334Y436083D01*
X107501Y435600D01*
X117501D01*
X118667Y436083D01*
X119150Y437249D01*
Y445250D01*
X118667Y446417D01*
X117501Y446900D01*
D02*
G37*
G36*
X59999Y435728D02*
X59843Y435664D01*
X59677Y435697D01*
X58116Y435386D01*
X57843Y435204D01*
X57521Y435140D01*
X56198Y434256D01*
X56016Y433983D01*
X55743Y433801D01*
X54859Y432477D01*
X54795Y432155D01*
X54612Y431883D01*
X54302Y430322D01*
X54366Y430000D01*
X54302Y429678D01*
X54612Y428117D01*
X54795Y427845D01*
X54859Y427523D01*
X55743Y426199D01*
X56016Y426017D01*
X56198Y425744D01*
X57521Y424860D01*
X57843Y424796D01*
X58116Y424614D01*
X59677Y424303D01*
X59843Y424336D01*
X59999Y424272D01*
X60155Y424336D01*
X60321Y424303D01*
X61881Y424614D01*
X62154Y424796D01*
X62476Y424860D01*
X63799Y425744D01*
X63982Y426017D01*
X64254Y426199D01*
X65139Y427523D01*
X65203Y427845D01*
X65385Y428117D01*
X65696Y429678D01*
X65631Y430000D01*
X65696Y430322D01*
X65385Y431883D01*
X65203Y432155D01*
X65139Y432477D01*
X64254Y433801D01*
X63982Y433983D01*
X63799Y434256D01*
X62476Y435140D01*
X62154Y435204D01*
X61881Y435386D01*
X60321Y435697D01*
X60155Y435664D01*
X59999Y435728D01*
D02*
G37*
G36*
X26230Y297386D02*
X25533Y297248D01*
X23866Y296134D01*
X22752Y294466D01*
X22614Y293770D01*
X26230D01*
Y297386D01*
D02*
G37*
G36*
X145000Y309103D02*
X143430Y308790D01*
X142099Y307901D01*
X141209Y306570D01*
X140897Y305000D01*
X140910Y304938D01*
X115212Y279241D01*
X80925D01*
X80494Y280511D01*
X82188Y281810D01*
X83938Y284092D01*
X85039Y286749D01*
X85414Y289600D01*
X85039Y292451D01*
X83938Y295108D01*
X82188Y297390D01*
X79906Y299140D01*
X77249Y300241D01*
X74398Y300616D01*
X55602D01*
X52751Y300241D01*
X50094Y299140D01*
X47812Y297390D01*
X46062Y295108D01*
X45896Y294708D01*
X44546Y294768D01*
X43633Y296133D01*
X41966Y297247D01*
X41270Y297386D01*
Y292499D01*
Y287613D01*
X41966Y287752D01*
X43420Y288723D01*
X44285Y288520D01*
X44761Y288267D01*
X44961Y286749D01*
X46062Y284092D01*
X47812Y281810D01*
X49696Y280365D01*
X49462Y279024D01*
X48538Y278406D01*
X48538Y278406D01*
X40480Y270349D01*
X32500D01*
X32500Y270349D01*
X31410Y270132D01*
X30486Y269514D01*
X27562Y266591D01*
X27500Y266603D01*
X25930Y266290D01*
X24599Y265401D01*
X23709Y264070D01*
X23397Y262500D01*
X23709Y260930D01*
X24599Y259599D01*
X25930Y258710D01*
X27500Y258397D01*
X29070Y258710D01*
X30401Y259599D01*
X31291Y260930D01*
X31603Y262500D01*
X31590Y262562D01*
X33680Y264651D01*
X41660D01*
X41660Y264651D01*
X42358Y264790D01*
X42922Y264513D01*
X43345Y264195D01*
X43599Y263908D01*
X43971Y261084D01*
X45174Y258179D01*
X47088Y255686D01*
X49581Y253772D01*
X52485Y252569D01*
X55602Y252159D01*
X63730D01*
Y264200D01*
X65000D01*
Y265470D01*
X86272D01*
X86029Y267316D01*
X84826Y270221D01*
X83251Y272273D01*
X83823Y273543D01*
X116392D01*
X116392Y273543D01*
X117482Y273760D01*
X118406Y274378D01*
X144938Y300910D01*
X145000Y300897D01*
X146570Y301210D01*
X147901Y302099D01*
X148791Y303430D01*
X149103Y305000D01*
X148791Y306570D01*
X147901Y307901D01*
X146570Y308790D01*
X145000Y309103D01*
D02*
G37*
G36*
X28770Y297386D02*
Y292500D01*
Y287614D01*
X29467Y287752D01*
X31134Y288866D01*
X31658Y289651D01*
X35842D01*
X36366Y288866D01*
X38033Y287752D01*
X38730Y287613D01*
Y292499D01*
Y297386D01*
X38033Y297247D01*
X36366Y296133D01*
X35842Y295349D01*
X31658D01*
X31134Y296134D01*
X29467Y297248D01*
X28770Y297386D01*
D02*
G37*
G36*
X26230Y291230D02*
X22614D01*
X22752Y290534D01*
X23866Y288866D01*
X25533Y287752D01*
X26230Y287614D01*
Y291230D01*
D02*
G37*
G36*
X132500Y329103D02*
X130930Y328791D01*
X129599Y327901D01*
X129564Y327849D01*
X102936D01*
X102901Y327901D01*
X101570Y328791D01*
X100000Y329103D01*
X98430Y328791D01*
X97099Y327901D01*
X96209Y326570D01*
X95897Y325000D01*
X96209Y323430D01*
X97099Y322099D01*
X98430Y321209D01*
X100000Y320897D01*
X101570Y321209D01*
X102901Y322099D01*
X102936Y322151D01*
X129564D01*
X129599Y322099D01*
X130930Y321209D01*
X132500Y320897D01*
X134070Y321209D01*
X135401Y322099D01*
X136291Y323430D01*
X136603Y325000D01*
X136291Y326570D01*
X135401Y327901D01*
X134070Y328791D01*
X132500Y329103D01*
D02*
G37*
G36*
X74398Y351416D02*
X55602D01*
X52751Y351041D01*
X50094Y349940D01*
X47812Y348190D01*
X46062Y345908D01*
X44961Y343251D01*
X44586Y340400D01*
X44961Y337549D01*
X46062Y334892D01*
X47812Y332610D01*
X50094Y330860D01*
X52751Y329759D01*
X55602Y329384D01*
X74398D01*
X77249Y329759D01*
X79906Y330860D01*
X82188Y332610D01*
X83938Y334892D01*
X85039Y337549D01*
X85414Y340400D01*
X85039Y343251D01*
X83938Y345908D01*
X82188Y348190D01*
X79906Y349940D01*
X77249Y351041D01*
X74398Y351416D01*
D02*
G37*
G36*
Y326016D02*
X55602D01*
X52751Y325641D01*
X50094Y324540D01*
X47812Y322790D01*
X46062Y320508D01*
X44961Y317851D01*
X44586Y315000D01*
X44961Y312149D01*
X46062Y309492D01*
X47812Y307210D01*
X50094Y305460D01*
X52751Y304359D01*
X55602Y303984D01*
X74398D01*
X77249Y304359D01*
X79906Y305460D01*
X82188Y307210D01*
X83938Y309492D01*
X85039Y312149D01*
X85414Y315000D01*
X85039Y317851D01*
X83938Y320508D01*
X82188Y322790D01*
X79906Y324540D01*
X77249Y325641D01*
X74398Y326016D01*
D02*
G37*
G36*
X155000Y341603D02*
X153430Y341291D01*
X152099Y340401D01*
X151209Y339070D01*
X150897Y337500D01*
X151209Y335930D01*
X152099Y334599D01*
X153430Y333709D01*
X155000Y333397D01*
X156570Y333709D01*
X157901Y334599D01*
X157936Y334651D01*
X331320D01*
X335486Y330486D01*
X335486Y330486D01*
X336410Y329868D01*
X337500Y329651D01*
X338466D01*
X338709Y328430D01*
X339599Y327099D01*
X340930Y326209D01*
X342500Y325897D01*
X344070Y326209D01*
X345401Y327099D01*
X346291Y328430D01*
X346603Y330000D01*
X346291Y331570D01*
X345401Y332901D01*
X345249Y333003D01*
X345132Y333590D01*
X344514Y334514D01*
X343590Y335132D01*
X342500Y335349D01*
X338680D01*
X334514Y339514D01*
X333590Y340132D01*
X332500Y340349D01*
X332500Y340349D01*
X157936D01*
X157901Y340401D01*
X156570Y341291D01*
X155000Y341603D01*
D02*
G37*
%LPD*%
D10*
X132500Y437500D02*
D03*
Y423500D02*
D03*
D11*
X66770Y408999D02*
D03*
X96770D02*
D03*
X51769D02*
D03*
D12*
X113001Y418750D02*
D03*
X36999D02*
D03*
D13*
X112501Y441250D02*
D03*
X37499D02*
D03*
D14*
X329612Y435388D02*
D03*
X340388Y424612D02*
D03*
D15*
X82500Y395000D02*
X97500D01*
X40000Y292499D02*
Y292500D01*
X40000Y292500D01*
X27500D02*
X40000D01*
X60000Y132500D02*
X62794Y135294D01*
X72193D01*
X72487Y135000D02*
X74001D01*
X72193Y135294D02*
X72487Y135000D01*
X70000Y130000D02*
X85999D01*
X90999Y135000D01*
X337500Y332500D02*
X342500D01*
X142500Y428500D02*
X147000Y433000D01*
X142500Y415000D02*
Y428500D01*
X138250Y410750D02*
X142500Y415000D01*
X98521Y410750D02*
X138250D01*
X96770Y408999D02*
X98521Y410750D01*
X129000Y427000D02*
X132500Y423500D01*
X97500Y395000D02*
Y408270D01*
X96770Y408999D02*
X97500Y408270D01*
X262500Y135000D02*
X271501D01*
X257500Y130000D02*
X262500Y135000D01*
X257500Y105000D02*
Y130000D01*
Y105000D02*
X257501Y104999D01*
X169001Y132500D02*
X171501Y135000D01*
X160000Y132500D02*
X169001D01*
X157500Y130000D02*
X160000Y132500D01*
X157500Y105000D02*
Y130000D01*
Y105000D02*
X157501Y104999D01*
X90999Y138499D02*
X97500Y145000D01*
X90999Y135000D02*
Y138499D01*
X60000Y105000D02*
Y132500D01*
Y105000D02*
X60001Y104999D01*
Y40001D02*
Y104999D01*
X157501Y40001D02*
Y104999D01*
X257501Y40001D02*
Y104999D01*
X66770Y393230D02*
Y408999D01*
X155000Y337500D02*
X332500D01*
X337500Y332500D01*
X342500Y330000D02*
Y332500D01*
X123500Y423500D02*
X132500D01*
X32500Y267500D02*
X41660D01*
X27500Y262500D02*
X32500Y267500D01*
X72500Y136501D02*
Y145000D01*
Y136501D02*
X74001Y135000D01*
X171501D02*
Y148499D01*
X170000Y150000D02*
X171501Y148499D01*
X100000Y325000D02*
X132500D01*
X271501Y135000D02*
Y153499D01*
X162499Y284999D02*
X165000D01*
X157500Y289999D02*
X162499Y284999D01*
X157500Y289999D02*
Y302500D01*
X116392Y276392D02*
X145000Y305000D01*
X41660Y267500D02*
X50552Y276392D01*
X116392D01*
X35000Y382500D02*
X85000D01*
X97500Y395000D01*
X132500Y437500D02*
X320000D01*
X322133Y439633D01*
X147000Y433000D02*
X317000D01*
X330000Y420000D01*
X335776D01*
X340388Y424612D01*
X322133Y439633D02*
X325367D01*
X329612Y435388D01*
D16*
X65000Y264200D02*
D03*
Y289600D02*
D03*
Y315000D02*
D03*
Y340400D02*
D03*
D17*
X257501Y40001D02*
D03*
Y104999D02*
D03*
X302499Y40001D02*
D03*
Y104999D02*
D03*
X104999D02*
D03*
Y40001D02*
D03*
X60001Y104999D02*
D03*
Y40001D02*
D03*
X157501D02*
D03*
Y104999D02*
D03*
X202499Y40001D02*
D03*
Y104999D02*
D03*
D18*
X90001Y430000D02*
D03*
X59999D02*
D03*
D19*
X82500Y395000D02*
D03*
X40000Y292499D02*
D03*
X27500Y292500D02*
D03*
X70000Y130000D02*
D03*
X97500Y395000D02*
D03*
Y145000D02*
D03*
X66770Y393230D02*
D03*
X155000Y337500D02*
D03*
X342500Y330000D02*
D03*
X123500Y423500D02*
D03*
X145000Y305000D02*
D03*
X27500Y262500D02*
D03*
X72500Y145000D02*
D03*
X170000Y150000D02*
D03*
X100000Y325000D02*
D03*
X132500D02*
D03*
X271501Y153499D02*
D03*
X165000Y284999D02*
D03*
X157500Y302500D02*
D03*
X35000Y382500D02*
D03*
M02*
