G04*
G04 #@! TF.GenerationSoftware,Altium Limited,Altium Designer,18.0.9 (584)*
G04*
G04 Layer_Color=16711935*
%FSLAX44Y44*%
%MOMM*%
G71*
G01*
G75*
%ADD20O,3.9624X2.0828*%
%ADD21C,1.0033*%
%ADD22O,1.7032X3.2032*%
%ADD23C,0.7032*%
G04:AMPARAMS|DCode=40|XSize=1.7033mm|YSize=1.7033mm|CornerRadius=0.8517mm|HoleSize=0mm|Usage=FLASHONLY|Rotation=90.000|XOffset=0mm|YOffset=0mm|HoleType=Round|Shape=RoundedRectangle|*
%AMROUNDEDRECTD40*
21,1,1.7033,0.0000,0,0,90.0*
21,1,0.0000,1.7033,0,0,90.0*
1,1,1.7033,0.0000,0.0000*
1,1,1.7033,0.0000,0.0000*
1,1,1.7033,0.0000,0.0000*
1,1,1.7033,0.0000,0.0000*
%
%ADD40ROUNDEDRECTD40*%
G04:AMPARAMS|DCode=41|XSize=1.7033mm|YSize=1.7033mm|CornerRadius=0.8517mm|HoleSize=0mm|Usage=FLASHONLY|Rotation=180.000|XOffset=0mm|YOffset=0mm|HoleType=Round|Shape=RoundedRectangle|*
%AMROUNDEDRECTD41*
21,1,1.7033,0.0000,0,0,180.0*
21,1,0.0000,1.7033,0,0,180.0*
1,1,1.7033,0.0000,0.0000*
1,1,1.7033,0.0000,0.0000*
1,1,1.7033,0.0000,0.0000*
1,1,1.7033,0.0000,0.0000*
%
%ADD41ROUNDEDRECTD41*%
%ADD42R,3.4031X4.4031*%
%ADD43R,11.2032X7.2032*%
%ADD44R,2.4892X0.8032*%
D20*
X65000Y264200D02*
D03*
Y289600D02*
D03*
Y315000D02*
D03*
Y340400D02*
D03*
D21*
X59999Y430000D02*
D03*
X90001D02*
D03*
D22*
X202499Y104999D02*
D03*
Y40001D02*
D03*
X157501Y104999D02*
D03*
Y40001D02*
D03*
X60001D02*
D03*
Y104999D02*
D03*
X104999Y40001D02*
D03*
Y104999D02*
D03*
X302499D02*
D03*
Y40001D02*
D03*
X257501Y104999D02*
D03*
Y40001D02*
D03*
D23*
X35000Y382500D02*
D03*
X157500Y302500D02*
D03*
X165000Y284999D02*
D03*
X271501Y153499D02*
D03*
X132500Y325000D02*
D03*
X100000D02*
D03*
X170000Y150000D02*
D03*
X72500Y145000D02*
D03*
X27500Y262500D02*
D03*
X145000Y305000D02*
D03*
X123500Y423500D02*
D03*
X342500Y330000D02*
D03*
X155000Y337500D02*
D03*
X66770Y393230D02*
D03*
X97500Y145000D02*
D03*
X192500D02*
D03*
X288499Y144001D02*
D03*
X295000Y147500D02*
D03*
X97500Y395000D02*
D03*
D40*
X287500Y350000D02*
D03*
X137500Y387500D02*
D03*
Y350000D02*
D03*
Y312500D02*
D03*
X287500Y387500D02*
D03*
D41*
Y312500D02*
D03*
D42*
X344000Y207500D02*
D03*
X51000D02*
D03*
D43*
X197500D02*
D03*
D44*
X179201Y300950D02*
D03*
Y313650D02*
D03*
Y339050D02*
D03*
X245800Y300950D02*
D03*
Y313650D02*
D03*
Y339050D02*
D03*
X179201Y326350D02*
D03*
X245800D02*
D03*
M02*
