G04 Layer_Color=8388736*
%FSLAX44Y44*%
%MOMM*%
G71*
G01*
G75*
G04:AMPARAMS|DCode=28|XSize=1.0032mm|YSize=1.4032mm|CornerRadius=0mm|HoleSize=0mm|Usage=FLASHONLY|Rotation=135.000|XOffset=0mm|YOffset=0mm|HoleType=Round|Shape=Rectangle|*
%AMROTATEDRECTD28*
4,1,4,0.8508,0.1414,-0.1414,-0.8508,-0.8508,-0.1414,0.1414,0.8508,0.8508,0.1414,0.0*
%
%ADD28ROTATEDRECTD28*%

%ADD29R,1.0033X2.2032*%
%ADD30R,1.2032X1.0033*%
%ADD31R,1.1031X1.0033*%
%ADD32R,1.1032X1.0032*%
%ADD33C,1.0033*%
%ADD34O,1.7032X3.2032*%
%ADD35O,3.9624X2.0828*%
%ADD36C,0.7032*%
D28*
X340388Y424612D02*
D03*
X329612Y435388D02*
D03*
D29*
X51769Y408999D02*
D03*
X96770D02*
D03*
X66770D02*
D03*
D30*
X37499Y441250D02*
D03*
X112501D02*
D03*
D31*
X36999Y418750D02*
D03*
X113001D02*
D03*
D32*
X132500Y423500D02*
D03*
Y437500D02*
D03*
D33*
X59999Y430000D02*
D03*
X90001D02*
D03*
D34*
X202499Y104999D02*
D03*
Y40001D02*
D03*
X157501Y104999D02*
D03*
Y40001D02*
D03*
X60001D02*
D03*
Y104999D02*
D03*
X104999Y40001D02*
D03*
Y104999D02*
D03*
X302499D02*
D03*
Y40001D02*
D03*
X257501Y104999D02*
D03*
Y40001D02*
D03*
D35*
X65000Y340400D02*
D03*
Y315000D02*
D03*
Y289600D02*
D03*
Y264200D02*
D03*
D36*
X35000Y382500D02*
D03*
X157500Y302500D02*
D03*
X165000Y284999D02*
D03*
X271501Y153499D02*
D03*
X132500Y325000D02*
D03*
X100000D02*
D03*
X170000Y150000D02*
D03*
X72500Y145000D02*
D03*
X27500Y262500D02*
D03*
X145000Y305000D02*
D03*
X123500Y423500D02*
D03*
X342500Y330000D02*
D03*
X155000Y337500D02*
D03*
X66770Y393230D02*
D03*
X97500Y145000D02*
D03*
Y395000D02*
D03*
X70000Y130000D02*
D03*
X27500Y292500D02*
D03*
X40000Y292499D02*
D03*
X82500Y395000D02*
D03*
M02*
