G04 Layer_Color=32896*
%FSLAX44Y44*%
%MOMM*%
G71*
G01*
G75*
%ADD15C,0.2540*%
%ADD25C,0.2032*%
%ADD27C,0.1270*%
G36*
X230421Y434830D02*
X227968D01*
Y427500D01*
X226826D01*
Y434830D01*
X224373D01*
Y435789D01*
X230421D01*
Y434830D01*
D02*
G37*
G36*
X205215Y433970D02*
X205413Y433942D01*
X205610Y433886D01*
X205765Y433830D01*
X205920Y433773D01*
X206019Y433717D01*
X206089Y433689D01*
X206118Y433675D01*
X206329Y433548D01*
X206526Y433393D01*
X206710Y433223D01*
X206879Y433068D01*
X207020Y432913D01*
X207133Y432800D01*
X207203Y432716D01*
X207231Y432702D01*
Y432688D01*
X207260Y433872D01*
X208260D01*
Y427500D01*
X207147D01*
Y431588D01*
X207034Y431729D01*
X206935Y431856D01*
X206837Y431955D01*
X206752Y432053D01*
X206681Y432138D01*
X206625Y432194D01*
X206597Y432223D01*
X206583Y432237D01*
X206385Y432420D01*
X206230Y432575D01*
X206160Y432617D01*
X206118Y432659D01*
X206089Y432674D01*
X206075Y432688D01*
X205906Y432800D01*
X205751Y432885D01*
X205695Y432913D01*
X205652Y432927D01*
X205624Y432942D01*
X205610D01*
X205441Y432998D01*
X205300Y433012D01*
X205258Y433026D01*
X205173D01*
X204990Y433012D01*
X204835Y432970D01*
X204708Y432899D01*
X204595Y432843D01*
X204511Y432772D01*
X204440Y432702D01*
X204412Y432659D01*
X204398Y432645D01*
X204313Y432490D01*
X204243Y432293D01*
X204200Y432096D01*
X204172Y431898D01*
X204158Y431729D01*
X204144Y431588D01*
Y431532D01*
Y431489D01*
Y431461D01*
Y431447D01*
X203030D01*
Y431673D01*
X203044Y431884D01*
X203059Y432081D01*
X203087Y432279D01*
X203129Y432448D01*
X203171Y432603D01*
X203214Y432730D01*
X203256Y432857D01*
X203298Y432970D01*
X203355Y433068D01*
X203397Y433153D01*
X203425Y433223D01*
X203467Y433266D01*
X203482Y433308D01*
X203510Y433336D01*
X203608Y433449D01*
X203721Y433548D01*
X203961Y433717D01*
X204200Y433830D01*
X204440Y433900D01*
X204666Y433956D01*
X204764Y433970D01*
X204835D01*
X204905Y433985D01*
X205004D01*
X205215Y433970D01*
D02*
G37*
G36*
X201085Y432956D02*
X199210D01*
Y428416D01*
X201296D01*
Y427500D01*
X196193D01*
Y428416D01*
X198096D01*
Y433872D01*
X201085D01*
Y432956D01*
D02*
G37*
G36*
X257182Y421470D02*
X257365Y421456D01*
X257435Y421442D01*
X257492D01*
X257520Y421428D01*
X257534D01*
X257717Y421372D01*
X257887Y421315D01*
X257943Y421273D01*
X257999Y421259D01*
X258028Y421231D01*
X258042D01*
X258225Y421118D01*
X258380Y421005D01*
X258451Y420963D01*
X258507Y420921D01*
X258535Y420893D01*
X258549Y420878D01*
X258732Y420709D01*
X258916Y420526D01*
X258986Y420456D01*
X259043Y420399D01*
X259071Y420357D01*
X259085Y420343D01*
X259127Y421372D01*
X260100D01*
Y415000D01*
X259000D01*
Y419215D01*
X258888Y419356D01*
X258789Y419469D01*
X258704Y419581D01*
X258620Y419680D01*
X258549Y419751D01*
X258507Y419807D01*
X258479Y419835D01*
X258465Y419849D01*
X258281Y420019D01*
X258140Y420145D01*
X258084Y420188D01*
X258042Y420216D01*
X258013Y420244D01*
X257999D01*
X257844Y420343D01*
X257717Y420413D01*
X257633Y420442D01*
X257619Y420456D01*
X257605D01*
X257464Y420498D01*
X257323Y420512D01*
X257266Y420526D01*
X257196D01*
X256999Y420512D01*
X256829Y420470D01*
X256688Y420413D01*
X256576Y420343D01*
X256477Y420272D01*
X256420Y420216D01*
X256378Y420174D01*
X256364Y420159D01*
X256266Y420019D01*
X256195Y419835D01*
X256153Y419652D01*
X256110Y419483D01*
X256096Y419314D01*
X256082Y419187D01*
Y419130D01*
Y419088D01*
Y419074D01*
Y419060D01*
Y415000D01*
X254983D01*
Y419145D01*
X255011Y419553D01*
X255067Y419906D01*
X255138Y420216D01*
X255236Y420456D01*
X255335Y420653D01*
X255406Y420780D01*
X255462Y420864D01*
X255490Y420893D01*
X255702Y421090D01*
X255941Y421231D01*
X256181Y421344D01*
X256420Y421414D01*
X256646Y421456D01*
X256745Y421470D01*
X256815D01*
X256886Y421485D01*
X256984D01*
X257182Y421470D01*
D02*
G37*
G36*
X270673Y424022D02*
X270884Y423994D01*
X271081Y423937D01*
X271434Y423811D01*
X271744Y423656D01*
X271998Y423458D01*
X272209Y423247D01*
X272392Y423007D01*
X272519Y422782D01*
X272632Y422542D01*
X272717Y422302D01*
X272773Y422091D01*
X272815Y421893D01*
X272843Y421738D01*
X272858Y421612D01*
Y421527D01*
Y421513D01*
Y421499D01*
Y420442D01*
X274902D01*
Y419525D01*
X272858D01*
Y415000D01*
X271730D01*
Y419525D01*
X268939D01*
Y420442D01*
X271730D01*
Y421555D01*
X271716Y421837D01*
X271659Y422077D01*
X271589Y422288D01*
X271504Y422471D01*
X271392Y422626D01*
X271265Y422753D01*
X271124Y422852D01*
X270983Y422937D01*
X270856Y423007D01*
X270715Y423049D01*
X270588Y423092D01*
X270475Y423106D01*
X270391Y423120D01*
X270306Y423134D01*
X270250D01*
X269996Y423120D01*
X269742Y423106D01*
X269489Y423078D01*
X269263Y423049D01*
X269051Y423007D01*
X268882Y422979D01*
X268826Y422965D01*
X268784D01*
X268755Y422951D01*
X268741D01*
Y423909D01*
X269037Y423952D01*
X269305Y423994D01*
X269559Y424022D01*
X269770Y424036D01*
X269954Y424050D01*
X270447D01*
X270673Y424022D01*
D02*
G37*
G36*
X282500Y415000D02*
X281330D01*
X280752Y416804D01*
X277284D01*
X276706Y415000D01*
X275480D01*
X278200Y423289D01*
X279751D01*
X282500Y415000D01*
D02*
G37*
G36*
X270499Y433970D02*
X270738Y433942D01*
X270950Y433900D01*
X271147Y433858D01*
X271302Y433815D01*
X271415Y433773D01*
X271485Y433745D01*
X271514Y433731D01*
X271711Y433632D01*
X271894Y433519D01*
X272063Y433407D01*
X272204Y433294D01*
X272317Y433195D01*
X272402Y433111D01*
X272458Y433054D01*
X272472Y433040D01*
X272613Y432871D01*
X272726Y432688D01*
X272839Y432519D01*
X272923Y432349D01*
X272994Y432208D01*
X273036Y432081D01*
X273064Y432011D01*
X273078Y431997D01*
Y431983D01*
X273149Y431757D01*
X273191Y431518D01*
X273233Y431292D01*
X273248Y431081D01*
X273262Y430911D01*
X273276Y430770D01*
Y430714D01*
Y430672D01*
Y430658D01*
Y430644D01*
X273262Y430362D01*
X273248Y430094D01*
X273219Y429854D01*
X273177Y429643D01*
X273135Y429474D01*
X273107Y429347D01*
X273092Y429262D01*
X273078Y429248D01*
Y429234D01*
X272994Y429022D01*
X272909Y428825D01*
X272810Y428642D01*
X272726Y428501D01*
X272641Y428374D01*
X272571Y428289D01*
X272529Y428233D01*
X272514Y428219D01*
X272359Y428078D01*
X272204Y427951D01*
X272063Y427838D01*
X271908Y427754D01*
X271781Y427683D01*
X271683Y427641D01*
X271626Y427613D01*
X271598Y427599D01*
X271387Y427528D01*
X271175Y427472D01*
X270964Y427444D01*
X270767Y427415D01*
X270611Y427401D01*
X270470Y427387D01*
X270358D01*
X270090Y427401D01*
X269850Y427430D01*
X269639Y427458D01*
X269441Y427514D01*
X269286Y427556D01*
X269174Y427585D01*
X269103Y427613D01*
X269075Y427627D01*
X268878Y427726D01*
X268680Y427838D01*
X268525Y427951D01*
X268384Y428050D01*
X268271Y428148D01*
X268187Y428233D01*
X268130Y428289D01*
X268116Y428303D01*
X267975Y428473D01*
X267848Y428656D01*
X267750Y428839D01*
X267665Y429008D01*
X267595Y429149D01*
X267552Y429262D01*
X267524Y429333D01*
X267510Y429361D01*
X267440Y429600D01*
X267383Y429840D01*
X267355Y430066D01*
X267327Y430277D01*
X267313Y430460D01*
X267299Y430601D01*
Y430658D01*
Y430700D01*
Y430714D01*
Y430728D01*
X267313Y431010D01*
X267327Y431278D01*
X267369Y431518D01*
X267397Y431729D01*
X267440Y431884D01*
X267482Y432011D01*
X267496Y432096D01*
X267510Y432124D01*
X267595Y432335D01*
X267679Y432533D01*
X267778Y432716D01*
X267877Y432857D01*
X267961Y432984D01*
X268032Y433068D01*
X268074Y433125D01*
X268088Y433139D01*
X268229Y433280D01*
X268384Y433407D01*
X268539Y433519D01*
X268680Y433604D01*
X268807Y433675D01*
X268906Y433717D01*
X268976Y433745D01*
X269004Y433759D01*
X269216Y433830D01*
X269427Y433886D01*
X269625Y433928D01*
X269822Y433956D01*
X269977Y433970D01*
X270118Y433985D01*
X270231D01*
X270499Y433970D01*
D02*
G37*
G36*
X232216Y415000D02*
X231145D01*
X231004Y420089D01*
X230975Y422147D01*
X230595Y420878D01*
X229425Y417707D01*
X228650D01*
X227423Y421005D01*
X227028Y422147D01*
X226958Y420174D01*
X226789Y415000D01*
X225689D01*
X226084Y423289D01*
X227465D01*
X228650Y420159D01*
X228988Y419102D01*
X229354Y420159D01*
X230468Y423289D01*
X231807D01*
X232216Y415000D01*
D02*
G37*
G36*
X167215D02*
X166087D01*
Y419060D01*
X162971Y415000D01*
X161562D01*
X164987Y419342D01*
X161717Y423289D01*
X163042D01*
X166087Y419426D01*
Y423289D01*
X167215D01*
Y415000D01*
D02*
G37*
G36*
X186373Y421470D02*
X186471D01*
X186556Y421456D01*
X186612D01*
X186654Y421442D01*
X186669D01*
X186894Y421414D01*
X186993Y421400D01*
X187077Y421386D01*
X187148Y421372D01*
X187204Y421358D01*
X187247Y421344D01*
X187261D01*
X187458Y421301D01*
X187641Y421259D01*
X187712Y421245D01*
X187768Y421231D01*
X187796Y421217D01*
X187810D01*
X187994Y421160D01*
X188135Y421118D01*
X188191Y421104D01*
X188219Y421090D01*
X188248Y421076D01*
X188262D01*
Y420075D01*
X188064Y420145D01*
X187867Y420216D01*
X187684Y420272D01*
X187514Y420329D01*
X187388Y420357D01*
X187275Y420385D01*
X187218Y420413D01*
X187190D01*
X186796Y420484D01*
X186626Y420512D01*
X186457Y420526D01*
X186316Y420540D01*
X186119D01*
X185865Y420526D01*
X185639Y420484D01*
X185442Y420427D01*
X185287Y420371D01*
X185174Y420315D01*
X185090Y420258D01*
X185033Y420216D01*
X185019Y420202D01*
X184892Y420061D01*
X184808Y419920D01*
X184737Y419765D01*
X184695Y419624D01*
X184667Y419497D01*
X184653Y419398D01*
Y419328D01*
Y419300D01*
Y418750D01*
X186232D01*
X186471Y418722D01*
X186697Y418693D01*
X186894Y418665D01*
X187092Y418623D01*
X187261Y418581D01*
X187416Y418524D01*
X187557Y418482D01*
X187684Y418426D01*
X187796Y418369D01*
X187881Y418327D01*
X187951Y418285D01*
X188022Y418256D01*
X188064Y418228D01*
X188078Y418200D01*
X188092D01*
X188219Y418087D01*
X188318Y417975D01*
X188417Y417862D01*
X188501Y417735D01*
X188628Y417481D01*
X188713Y417241D01*
X188755Y417030D01*
X188769Y416931D01*
X188783Y416847D01*
X188797Y416790D01*
Y416734D01*
Y416706D01*
Y416692D01*
X188783Y416424D01*
X188755Y416297D01*
X188741Y416184D01*
X188713Y416100D01*
X188699Y416029D01*
X188685Y415987D01*
Y415973D01*
X188586Y415747D01*
X188515Y415648D01*
X188459Y415564D01*
X188403Y415493D01*
X188360Y415437D01*
X188332Y415409D01*
X188318Y415395D01*
X188106Y415240D01*
X187909Y415113D01*
X187810Y415070D01*
X187740Y415042D01*
X187698Y415014D01*
X187684D01*
X187373Y414944D01*
X187218Y414915D01*
X187063Y414901D01*
X186936D01*
X186838Y414887D01*
X186753D01*
X186528Y414901D01*
X186330Y414930D01*
X186133Y414958D01*
X185964Y415000D01*
X185823Y415042D01*
X185724Y415085D01*
X185654Y415099D01*
X185625Y415113D01*
X185428Y415211D01*
X185231Y415324D01*
X185061Y415451D01*
X184892Y415564D01*
X184765Y415677D01*
X184653Y415761D01*
X184596Y415818D01*
X184568Y415846D01*
X184540Y415000D01*
X183539D01*
Y419384D01*
X183553Y419581D01*
X183567Y419751D01*
X183595Y419920D01*
X183624Y420047D01*
X183666Y420159D01*
X183694Y420244D01*
X183708Y420300D01*
X183722Y420315D01*
X183793Y420456D01*
X183863Y420582D01*
X183948Y420695D01*
X184032Y420794D01*
X184103Y420864D01*
X184159Y420921D01*
X184202Y420949D01*
X184216Y420963D01*
X184343Y421062D01*
X184470Y421132D01*
X184596Y421203D01*
X184723Y421259D01*
X184822Y421301D01*
X184907Y421330D01*
X184977Y421358D01*
X184991D01*
X185343Y421428D01*
X185527Y421456D01*
X185682Y421470D01*
X185823Y421485D01*
X186274D01*
X186373Y421470D01*
D02*
G37*
G36*
X191654Y433970D02*
X191908Y433956D01*
X192119Y433928D01*
X192303Y433900D01*
X192458Y433858D01*
X192556Y433830D01*
X192627Y433815D01*
X192655Y433801D01*
X192838Y433731D01*
X192993Y433646D01*
X193134Y433576D01*
X193247Y433505D01*
X193332Y433435D01*
X193402Y433378D01*
X193444Y433350D01*
X193458Y433336D01*
X193557Y433237D01*
X193656Y433125D01*
X193726Y433026D01*
X193783Y432942D01*
X193825Y432857D01*
X193853Y432800D01*
X193881Y432758D01*
Y432744D01*
X193952Y432519D01*
X193966Y432420D01*
X193980Y432335D01*
X193994Y432265D01*
Y432208D01*
Y432180D01*
Y432166D01*
Y432025D01*
X193966Y431884D01*
X193952Y431757D01*
X193924Y431659D01*
X193895Y431574D01*
X193881Y431518D01*
X193853Y431475D01*
Y431461D01*
X193726Y431250D01*
X193585Y431095D01*
X193529Y431024D01*
X193473Y430982D01*
X193444Y430954D01*
X193430Y430940D01*
X193219Y430785D01*
X193007Y430672D01*
X192923Y430630D01*
X192852Y430587D01*
X192810Y430573D01*
X192796Y430559D01*
X192514Y430446D01*
X192387Y430404D01*
X192260Y430362D01*
X192162Y430319D01*
X192077Y430305D01*
X192021Y430277D01*
X192006D01*
X191795Y430221D01*
X191626Y430164D01*
X191471Y430108D01*
X191344Y430066D01*
X191231Y430023D01*
X191161Y429995D01*
X191118Y429967D01*
X191104D01*
X190991Y429925D01*
X190879Y429868D01*
X190794Y429826D01*
X190724Y429798D01*
X190681Y429756D01*
X190639Y429741D01*
X190611Y429713D01*
X190498Y429615D01*
X190428Y429530D01*
X190399Y429474D01*
X190385Y429445D01*
X190343Y429347D01*
X190329Y429248D01*
X190315Y429178D01*
Y429164D01*
Y429149D01*
X190329Y429008D01*
X190371Y428881D01*
X190442Y428769D01*
X190512Y428684D01*
X190583Y428614D01*
X190653Y428571D01*
X190695Y428543D01*
X190710Y428529D01*
X190865Y428459D01*
X191048Y428402D01*
X191245Y428374D01*
X191443Y428346D01*
X191612Y428332D01*
X191753Y428318D01*
X191880D01*
X192288Y428332D01*
X192472Y428346D01*
X192641Y428360D01*
X192782D01*
X192880Y428374D01*
X192951Y428388D01*
X192979D01*
X193388Y428459D01*
X193571Y428501D01*
X193741Y428543D01*
X193881Y428586D01*
X193980Y428614D01*
X194051Y428642D01*
X194079D01*
Y427627D01*
X193698Y427542D01*
X193529Y427514D01*
X193360Y427486D01*
X193233Y427472D01*
X193120Y427458D01*
X193064Y427444D01*
X193036D01*
X192613Y427415D01*
X192415Y427401D01*
X192232D01*
X192077Y427387D01*
X191837D01*
X191612Y427401D01*
X191429Y427415D01*
X191344Y427430D01*
X191288D01*
X191245Y427444D01*
X191231D01*
X191006Y427486D01*
X190893Y427500D01*
X190808Y427528D01*
X190738Y427542D01*
X190667Y427556D01*
X190639Y427570D01*
X190625D01*
X190414Y427641D01*
X190244Y427711D01*
X190174Y427754D01*
X190117Y427768D01*
X190089Y427796D01*
X190075D01*
X189892Y427923D01*
X189737Y428036D01*
X189681Y428078D01*
X189638Y428120D01*
X189624Y428134D01*
X189610Y428148D01*
X189483Y428318D01*
X189384Y428473D01*
X189342Y428529D01*
X189314Y428586D01*
X189300Y428614D01*
Y428628D01*
X189229Y428839D01*
X189187Y429037D01*
X189173Y429107D01*
Y429178D01*
Y429220D01*
Y429234D01*
X189187Y429488D01*
X189201Y429586D01*
X189229Y429685D01*
X189244Y429756D01*
X189272Y429826D01*
X189286Y429854D01*
Y429868D01*
X189328Y429967D01*
X189384Y430066D01*
X189497Y430221D01*
X189554Y430277D01*
X189596Y430319D01*
X189624Y430348D01*
X189638Y430362D01*
X189836Y430517D01*
X190033Y430658D01*
X190132Y430700D01*
X190188Y430742D01*
X190244Y430756D01*
X190259Y430770D01*
X190414Y430841D01*
X190569Y430897D01*
X190724Y430968D01*
X190879Y431010D01*
X191020Y431067D01*
X191118Y431095D01*
X191189Y431109D01*
X191217Y431123D01*
X191400Y431179D01*
X191555Y431222D01*
X191696Y431264D01*
X191823Y431306D01*
X191922Y431348D01*
X191992Y431363D01*
X192035Y431391D01*
X192049D01*
X192162Y431447D01*
X192260Y431489D01*
X192345Y431532D01*
X192429Y431574D01*
X192486Y431616D01*
X192528Y431630D01*
X192542Y431659D01*
X192556D01*
X192669Y431757D01*
X192754Y431842D01*
X192796Y431898D01*
X192810Y431926D01*
X192838Y432039D01*
X192852Y432138D01*
X192866Y432208D01*
Y432223D01*
Y432237D01*
X192852Y432364D01*
X192824Y432462D01*
X192810Y432533D01*
X192796Y432561D01*
X192726Y432659D01*
X192655Y432744D01*
X192584Y432800D01*
X192556Y432815D01*
X192401Y432885D01*
X192260Y432956D01*
X192190Y432970D01*
X192133Y432984D01*
X192105Y432998D01*
X192091D01*
X191866Y433040D01*
X191640Y433054D01*
X191541Y433068D01*
X191400D01*
X191118Y433054D01*
X190991Y433040D01*
X190865D01*
X190752Y433026D01*
X190667Y433012D01*
X190597Y432998D01*
X190583D01*
X190230Y432942D01*
X190061Y432913D01*
X189920Y432885D01*
X189779Y432857D01*
X189681Y432843D01*
X189624Y432815D01*
X189596D01*
Y433801D01*
X189779Y433830D01*
X189963Y433872D01*
X190117Y433886D01*
X190259Y433914D01*
X190385Y433928D01*
X190470D01*
X190540Y433942D01*
X190555D01*
X190879Y433970D01*
X191020D01*
X191133Y433985D01*
X191386D01*
X191654Y433970D01*
D02*
G37*
G36*
X224364Y417199D02*
X224336Y416790D01*
X224279Y416438D01*
X224209Y416128D01*
X224110Y415888D01*
X224026Y415691D01*
X223941Y415564D01*
X223885Y415479D01*
X223871Y415451D01*
X223659Y415268D01*
X223419Y415127D01*
X223180Y415028D01*
X222940Y414958D01*
X222729Y414915D01*
X222630Y414901D01*
X222546D01*
X222489Y414887D01*
X222390D01*
X222179Y414901D01*
X222010Y414915D01*
X221939Y414930D01*
X221883D01*
X221855Y414944D01*
X221841D01*
X221657Y415000D01*
X221488Y415056D01*
X221432Y415085D01*
X221375Y415113D01*
X221347Y415127D01*
X221333D01*
X221150Y415240D01*
X220981Y415338D01*
X220924Y415395D01*
X220868Y415437D01*
X220840Y415451D01*
X220826Y415465D01*
X220628Y415648D01*
X220445Y415832D01*
X220375Y415902D01*
X220318Y415959D01*
X220290Y416001D01*
X220276Y416015D01*
X220233Y415000D01*
X219247D01*
Y421372D01*
X220346D01*
Y417143D01*
X220459Y417002D01*
X220558Y416875D01*
X220657Y416762D01*
X220741Y416678D01*
X220812Y416593D01*
X220868Y416537D01*
X220896Y416508D01*
X220910Y416494D01*
X221079Y416325D01*
X221220Y416198D01*
X221277Y416142D01*
X221319Y416114D01*
X221347Y416100D01*
X221361Y416086D01*
X221516Y416001D01*
X221643Y415930D01*
X221700Y415916D01*
X221742Y415902D01*
X221756Y415888D01*
X221770D01*
X221911Y415860D01*
X222038Y415846D01*
X222137Y415832D01*
X222165D01*
X222362Y415846D01*
X222531Y415888D01*
X222672Y415973D01*
X222799Y416057D01*
X222912Y416170D01*
X222997Y416297D01*
X223067Y416424D01*
X223123Y416565D01*
X223208Y416819D01*
X223236Y416945D01*
X223250Y417058D01*
Y417157D01*
X223264Y417227D01*
Y417270D01*
Y417284D01*
Y421372D01*
X224364D01*
Y417199D01*
D02*
G37*
G36*
X154114Y438536D02*
X154466Y438499D01*
X154781Y438425D01*
X155059Y438351D01*
X155281Y438277D01*
X155448Y438203D01*
X155559Y438166D01*
X155577Y438147D01*
X155596D01*
X155892Y437999D01*
X156151Y437814D01*
X156392Y437647D01*
X156595Y437481D01*
X156762Y437332D01*
X156892Y437221D01*
X156966Y437147D01*
X157003Y437110D01*
X156207Y436166D01*
X156021Y436332D01*
X155855Y436499D01*
X155670Y436629D01*
X155522Y436740D01*
X155373Y436832D01*
X155262Y436906D01*
X155188Y436944D01*
X155170Y436962D01*
X154948Y437073D01*
X154725Y437147D01*
X154522Y437203D01*
X154318Y437240D01*
X154151Y437258D01*
X154022Y437277D01*
X153726D01*
X153559Y437258D01*
X153429Y437221D01*
X153300Y437203D01*
X153188Y437166D01*
X153114Y437129D01*
X153077Y437110D01*
X153059D01*
X152818Y436962D01*
X152614Y436832D01*
X152559Y436758D01*
X152503Y436721D01*
X152485Y436684D01*
X152466Y436666D01*
X152318Y436443D01*
X152207Y436240D01*
X152170Y436147D01*
X152152Y436073D01*
X152133Y436036D01*
Y436018D01*
X152059Y435758D01*
X152041Y435499D01*
X152022Y435407D01*
Y435332D01*
Y435277D01*
Y435258D01*
X152041Y434962D01*
X152059Y434814D01*
Y434703D01*
X152078Y434610D01*
X152096Y434536D01*
X152114Y434481D01*
Y434462D01*
X152189Y434184D01*
X152300Y433944D01*
X152355Y433833D01*
X152411Y433759D01*
X152429Y433703D01*
X152448Y433685D01*
X152652Y433370D01*
X152763Y433222D01*
X152874Y433074D01*
X152966Y432962D01*
X153040Y432870D01*
X153096Y432796D01*
X153114Y432777D01*
X153281Y432592D01*
X153466Y432388D01*
X153651Y432185D01*
X153837Y432000D01*
X154003Y431833D01*
X154133Y431703D01*
X154207Y431629D01*
X154244Y431592D01*
X157040Y428796D01*
Y427500D01*
X149855D01*
Y428889D01*
X155151D01*
X153188Y430815D01*
X152929Y431055D01*
X152707Y431296D01*
X152503Y431500D01*
X152318Y431685D01*
X152189Y431833D01*
X152078Y431944D01*
X152003Y432018D01*
X151985Y432037D01*
X151800Y432240D01*
X151633Y432444D01*
X151485Y432629D01*
X151355Y432796D01*
X151263Y432944D01*
X151189Y433036D01*
X151152Y433111D01*
X151133Y433129D01*
X150911Y433518D01*
X150818Y433703D01*
X150744Y433870D01*
X150689Y433999D01*
X150652Y434110D01*
X150615Y434184D01*
Y434203D01*
X150522Y434610D01*
X150485Y434814D01*
X150467Y434981D01*
X150448Y435147D01*
Y435258D01*
Y435351D01*
Y435370D01*
X150467Y435647D01*
X150485Y435888D01*
X150522Y436110D01*
X150559Y436314D01*
X150615Y436481D01*
X150652Y436592D01*
X150670Y436684D01*
X150689Y436703D01*
X150781Y436925D01*
X150892Y437110D01*
X151004Y437277D01*
X151115Y437425D01*
X151226Y437536D01*
X151300Y437629D01*
X151355Y437684D01*
X151374Y437703D01*
X151707Y437980D01*
X151874Y438073D01*
X152041Y438166D01*
X152189Y438240D01*
X152300Y438295D01*
X152374Y438314D01*
X152392Y438332D01*
X152614Y438406D01*
X152855Y438462D01*
X153077Y438499D01*
X153281Y438536D01*
X153466D01*
X153596Y438554D01*
X153726D01*
X154114Y438536D01*
D02*
G37*
G36*
X213918Y421470D02*
X214115Y421442D01*
X214313Y421386D01*
X214468Y421330D01*
X214623Y421273D01*
X214722Y421217D01*
X214792Y421189D01*
X214820Y421175D01*
X215032Y421048D01*
X215229Y420893D01*
X215412Y420723D01*
X215581Y420568D01*
X215723Y420413D01*
X215835Y420300D01*
X215906Y420216D01*
X215934Y420202D01*
Y420188D01*
X215962Y421372D01*
X216963D01*
Y415000D01*
X215849D01*
Y419088D01*
X215737Y419229D01*
X215638Y419356D01*
X215539Y419455D01*
X215455Y419553D01*
X215384Y419638D01*
X215328Y419694D01*
X215300Y419723D01*
X215285Y419737D01*
X215088Y419920D01*
X214933Y420075D01*
X214863Y420117D01*
X214820Y420159D01*
X214792Y420174D01*
X214778Y420188D01*
X214609Y420300D01*
X214454Y420385D01*
X214397Y420413D01*
X214355Y420427D01*
X214327Y420442D01*
X214313D01*
X214144Y420498D01*
X214003Y420512D01*
X213960Y420526D01*
X213876D01*
X213692Y420512D01*
X213538Y420470D01*
X213411Y420399D01*
X213298Y420343D01*
X213213Y420272D01*
X213143Y420202D01*
X213115Y420159D01*
X213100Y420145D01*
X213016Y419990D01*
X212945Y419793D01*
X212903Y419596D01*
X212875Y419398D01*
X212861Y419229D01*
X212847Y419088D01*
Y419032D01*
Y418989D01*
Y418961D01*
Y418947D01*
X211733D01*
Y419173D01*
X211747Y419384D01*
X211761Y419581D01*
X211789Y419779D01*
X211832Y419948D01*
X211874Y420103D01*
X211916Y420230D01*
X211959Y420357D01*
X212001Y420470D01*
X212057Y420568D01*
X212100Y420653D01*
X212128Y420723D01*
X212170Y420766D01*
X212184Y420808D01*
X212212Y420836D01*
X212311Y420949D01*
X212424Y421048D01*
X212663Y421217D01*
X212903Y421330D01*
X213143Y421400D01*
X213368Y421456D01*
X213467Y421470D01*
X213538D01*
X213608Y421485D01*
X213707D01*
X213918Y421470D01*
D02*
G37*
G36*
X258403Y427500D02*
X257304D01*
Y430911D01*
X254329Y427500D01*
X252807D01*
X255965Y430926D01*
X252976Y433872D01*
X254442D01*
X257304Y430954D01*
Y436466D01*
X258403D01*
Y427500D01*
D02*
G37*
G36*
X249029Y433970D02*
X249254Y433942D01*
X249466Y433900D01*
X249649Y433858D01*
X249790Y433801D01*
X249903Y433759D01*
X249973Y433731D01*
X250002Y433717D01*
X250199Y433604D01*
X250368Y433491D01*
X250523Y433364D01*
X250664Y433252D01*
X250763Y433139D01*
X250847Y433054D01*
X250904Y432998D01*
X250918Y432984D01*
X251045Y432815D01*
X251157Y432631D01*
X251256Y432448D01*
X251341Y432293D01*
X251397Y432138D01*
X251439Y432025D01*
X251468Y431955D01*
X251482Y431941D01*
Y431926D01*
X251538Y431701D01*
X251580Y431475D01*
X251623Y431264D01*
X251637Y431081D01*
X251651Y430911D01*
X251665Y430785D01*
Y430700D01*
Y430686D01*
Y430672D01*
X251651Y430390D01*
X251637Y430122D01*
X251609Y429897D01*
X251580Y429685D01*
X251552Y429516D01*
X251524Y429389D01*
X251496Y429304D01*
Y429290D01*
Y429276D01*
X251425Y429065D01*
X251327Y428853D01*
X251242Y428684D01*
X251143Y428529D01*
X251059Y428416D01*
X250988Y428318D01*
X250946Y428261D01*
X250932Y428247D01*
X250777Y428092D01*
X250622Y427965D01*
X250453Y427852D01*
X250298Y427768D01*
X250171Y427697D01*
X250058Y427641D01*
X249988Y427613D01*
X249959Y427599D01*
X249734Y427528D01*
X249494Y427472D01*
X249254Y427444D01*
X249029Y427415D01*
X248846Y427401D01*
X248691Y427387D01*
X248324D01*
X248113Y427401D01*
X247915Y427415D01*
X247732Y427430D01*
X247591Y427444D01*
X247478Y427458D01*
X247408Y427472D01*
X247379D01*
X247168Y427500D01*
X246971Y427528D01*
X246802Y427570D01*
X246646Y427599D01*
X246520Y427627D01*
X246435Y427655D01*
X246365Y427669D01*
X246350D01*
Y428571D01*
X246506Y428529D01*
X246661Y428501D01*
X246717Y428487D01*
X246759Y428473D01*
X246787Y428459D01*
X246802D01*
X246985Y428430D01*
X247140Y428402D01*
X247210Y428388D01*
X247267D01*
X247295Y428374D01*
X247309D01*
X247492Y428360D01*
X247676Y428332D01*
X247746D01*
X247803Y428318D01*
X247845D01*
X248042Y428303D01*
X248395D01*
X248761Y428332D01*
X249071Y428388D01*
X249339Y428473D01*
X249565Y428571D01*
X249748Y428656D01*
X249875Y428741D01*
X249945Y428797D01*
X249973Y428825D01*
X250157Y429037D01*
X250284Y429276D01*
X250382Y429530D01*
X250439Y429770D01*
X250481Y429995D01*
X250495Y430094D01*
Y430178D01*
X250509Y430235D01*
Y430291D01*
Y430319D01*
Y430334D01*
X246040D01*
X246026Y430432D01*
Y430517D01*
Y430587D01*
Y430615D01*
X246012Y430756D01*
Y430883D01*
Y430940D01*
Y430982D01*
Y431010D01*
Y431024D01*
X246026Y431278D01*
X246040Y431504D01*
X246068Y431701D01*
X246097Y431884D01*
X246139Y432025D01*
X246167Y432138D01*
X246181Y432208D01*
X246195Y432237D01*
X246266Y432434D01*
X246350Y432617D01*
X246449Y432772D01*
X246534Y432913D01*
X246604Y433012D01*
X246675Y433097D01*
X246717Y433153D01*
X246731Y433167D01*
X246872Y433308D01*
X247013Y433435D01*
X247168Y433534D01*
X247295Y433618D01*
X247422Y433689D01*
X247521Y433731D01*
X247577Y433759D01*
X247605Y433773D01*
X247803Y433844D01*
X248000Y433900D01*
X248197Y433928D01*
X248380Y433956D01*
X248535Y433970D01*
X248662Y433985D01*
X248775D01*
X249029Y433970D01*
D02*
G37*
G36*
X220440D02*
X220666Y433942D01*
X220877Y433900D01*
X221060Y433858D01*
X221201Y433801D01*
X221314Y433759D01*
X221385Y433731D01*
X221413Y433717D01*
X221610Y433604D01*
X221779Y433491D01*
X221935Y433364D01*
X222075Y433252D01*
X222174Y433139D01*
X222259Y433054D01*
X222315Y432998D01*
X222329Y432984D01*
X222456Y432815D01*
X222569Y432631D01*
X222668Y432448D01*
X222752Y432293D01*
X222808Y432138D01*
X222851Y432025D01*
X222879Y431955D01*
X222893Y431941D01*
Y431926D01*
X222949Y431701D01*
X222992Y431475D01*
X223034Y431264D01*
X223048Y431081D01*
X223062Y430911D01*
X223076Y430785D01*
Y430700D01*
Y430686D01*
Y430672D01*
X223062Y430390D01*
X223048Y430122D01*
X223020Y429897D01*
X222992Y429685D01*
X222964Y429516D01*
X222935Y429389D01*
X222907Y429304D01*
Y429290D01*
Y429276D01*
X222837Y429065D01*
X222738Y428853D01*
X222653Y428684D01*
X222555Y428529D01*
X222470Y428416D01*
X222400Y428318D01*
X222357Y428261D01*
X222343Y428247D01*
X222188Y428092D01*
X222033Y427965D01*
X221864Y427852D01*
X221709Y427768D01*
X221582Y427697D01*
X221469Y427641D01*
X221399Y427613D01*
X221371Y427599D01*
X221145Y427528D01*
X220905Y427472D01*
X220666Y427444D01*
X220440Y427415D01*
X220257Y427401D01*
X220102Y427387D01*
X219735D01*
X219524Y427401D01*
X219326Y427415D01*
X219143Y427430D01*
X219002Y427444D01*
X218890Y427458D01*
X218819Y427472D01*
X218791D01*
X218579Y427500D01*
X218382Y427528D01*
X218213Y427570D01*
X218058Y427599D01*
X217931Y427627D01*
X217846Y427655D01*
X217776Y427669D01*
X217762D01*
Y428571D01*
X217917Y428529D01*
X218072Y428501D01*
X218128Y428487D01*
X218171Y428473D01*
X218199Y428459D01*
X218213D01*
X218396Y428430D01*
X218551Y428402D01*
X218622Y428388D01*
X218678D01*
X218706Y428374D01*
X218720D01*
X218904Y428360D01*
X219087Y428332D01*
X219157D01*
X219214Y428318D01*
X219256D01*
X219453Y428303D01*
X219806D01*
X220172Y428332D01*
X220483Y428388D01*
X220750Y428473D01*
X220976Y428571D01*
X221159Y428656D01*
X221286Y428741D01*
X221357Y428797D01*
X221385Y428825D01*
X221568Y429037D01*
X221695Y429276D01*
X221793Y429530D01*
X221850Y429770D01*
X221892Y429995D01*
X221906Y430094D01*
Y430178D01*
X221920Y430235D01*
Y430291D01*
Y430319D01*
Y430334D01*
X217452D01*
X217437Y430432D01*
Y430517D01*
Y430587D01*
Y430615D01*
X217423Y430756D01*
Y430883D01*
Y430940D01*
Y430982D01*
Y431010D01*
Y431024D01*
X217437Y431278D01*
X217452Y431504D01*
X217480Y431701D01*
X217508Y431884D01*
X217550Y432025D01*
X217579Y432138D01*
X217593Y432208D01*
X217607Y432237D01*
X217677Y432434D01*
X217762Y432617D01*
X217860Y432772D01*
X217945Y432913D01*
X218015Y433012D01*
X218086Y433097D01*
X218128Y433153D01*
X218142Y433167D01*
X218283Y433308D01*
X218424Y433435D01*
X218579Y433534D01*
X218706Y433618D01*
X218833Y433689D01*
X218932Y433731D01*
X218988Y433759D01*
X219016Y433773D01*
X219214Y433844D01*
X219411Y433900D01*
X219608Y433928D01*
X219792Y433956D01*
X219947Y433970D01*
X220074Y433985D01*
X220186D01*
X220440Y433970D01*
D02*
G37*
G36*
X214505Y435620D02*
Y433872D01*
X216282D01*
Y432942D01*
X214505D01*
Y429615D01*
X214477Y429220D01*
X214407Y428881D01*
X214322Y428600D01*
X214209Y428360D01*
X214097Y428177D01*
X214012Y428050D01*
X213941Y427979D01*
X213913Y427951D01*
X213801Y427852D01*
X213659Y427768D01*
X213378Y427641D01*
X213081Y427542D01*
X212800Y427486D01*
X212532Y427444D01*
X212419Y427430D01*
X212320D01*
X212236Y427415D01*
X212123D01*
X211827Y427430D01*
X211686D01*
X211573Y427444D01*
X211460D01*
X211390Y427458D01*
X211319D01*
X211023Y427500D01*
X210896Y427514D01*
X210770Y427542D01*
X210671Y427556D01*
X210600Y427570D01*
X210544Y427585D01*
X210530D01*
Y428543D01*
X210812Y428473D01*
X210939Y428445D01*
X211052Y428430D01*
X211150Y428402D01*
X211221D01*
X211277Y428388D01*
X211291D01*
X211545Y428360D01*
X211672D01*
X211770Y428346D01*
X211968D01*
X212222Y428360D01*
X212433Y428402D01*
X212616Y428459D01*
X212771Y428515D01*
X212884Y428571D01*
X212969Y428628D01*
X213025Y428670D01*
X213039Y428684D01*
X213166Y428825D01*
X213251Y428980D01*
X213321Y429149D01*
X213363Y429319D01*
X213392Y429474D01*
X213406Y429586D01*
Y429671D01*
Y429685D01*
Y429699D01*
Y432942D01*
X210530D01*
Y433872D01*
X213406D01*
Y435916D01*
X214505Y435620D01*
D02*
G37*
G36*
X243094D02*
Y433872D01*
X244870D01*
Y432942D01*
X243094D01*
Y429615D01*
X243066Y429220D01*
X242995Y428881D01*
X242911Y428600D01*
X242798Y428360D01*
X242685Y428177D01*
X242601Y428050D01*
X242530Y427979D01*
X242502Y427951D01*
X242389Y427852D01*
X242248Y427768D01*
X241966Y427641D01*
X241670Y427542D01*
X241388Y427486D01*
X241120Y427444D01*
X241008Y427430D01*
X240909D01*
X240824Y427415D01*
X240712D01*
X240416Y427430D01*
X240275D01*
X240162Y427444D01*
X240049D01*
X239979Y427458D01*
X239908D01*
X239612Y427500D01*
X239485Y427514D01*
X239358Y427542D01*
X239260Y427556D01*
X239189Y427570D01*
X239133Y427585D01*
X239119D01*
Y428543D01*
X239401Y428473D01*
X239527Y428445D01*
X239640Y428430D01*
X239739Y428402D01*
X239809D01*
X239866Y428388D01*
X239880D01*
X240134Y428360D01*
X240261D01*
X240359Y428346D01*
X240557D01*
X240810Y428360D01*
X241022Y428402D01*
X241205Y428459D01*
X241360Y428515D01*
X241473Y428571D01*
X241558Y428628D01*
X241614Y428670D01*
X241628Y428684D01*
X241755Y428825D01*
X241839Y428980D01*
X241910Y429149D01*
X241952Y429319D01*
X241980Y429474D01*
X241994Y429586D01*
Y429671D01*
Y429685D01*
Y429699D01*
Y432942D01*
X239119D01*
Y433872D01*
X241994D01*
Y435916D01*
X243094Y435620D01*
D02*
G37*
G36*
X262759Y433942D02*
X262999Y433914D01*
X263225Y433886D01*
X263422Y433844D01*
X263577Y433787D01*
X263704Y433759D01*
X263774Y433731D01*
X263803Y433717D01*
X264014Y433618D01*
X264211Y433505D01*
X264380Y433393D01*
X264536Y433294D01*
X264648Y433195D01*
X264747Y433111D01*
X264803Y433054D01*
X264818Y433040D01*
X264973Y432871D01*
X265100Y432688D01*
X265212Y432519D01*
X265311Y432349D01*
X265381Y432208D01*
X265438Y432081D01*
X265466Y432011D01*
X265480Y431997D01*
Y431983D01*
X265551Y431757D01*
X265607Y431518D01*
X265649Y431278D01*
X265677Y431067D01*
X265692Y430883D01*
X265706Y430742D01*
Y430686D01*
Y430644D01*
Y430630D01*
Y430615D01*
X265692Y430334D01*
X265677Y430066D01*
X265635Y429812D01*
X265579Y429586D01*
X265522Y429375D01*
X265452Y429178D01*
X265381Y428994D01*
X265297Y428839D01*
X265226Y428698D01*
X265156Y428571D01*
X265085Y428473D01*
X265029Y428388D01*
X264973Y428318D01*
X264930Y428275D01*
X264916Y428247D01*
X264902Y428233D01*
X264747Y428092D01*
X264564Y427965D01*
X264380Y427852D01*
X264197Y427768D01*
X264000Y427683D01*
X263803Y427613D01*
X263436Y427514D01*
X263253Y427486D01*
X263098Y427458D01*
X262957Y427444D01*
X262830Y427430D01*
X262717Y427415D01*
X262576D01*
X262224Y427430D01*
X262055Y427444D01*
X261914Y427458D01*
X261801Y427472D01*
X261716Y427486D01*
X261646Y427500D01*
X261632D01*
X261307Y427570D01*
X261152Y427613D01*
X261011Y427641D01*
X260899Y427683D01*
X260814Y427711D01*
X260758Y427740D01*
X260744D01*
Y428769D01*
X261040Y428628D01*
X261180Y428571D01*
X261293Y428529D01*
X261406Y428501D01*
X261491Y428473D01*
X261547Y428459D01*
X261561D01*
X261871Y428402D01*
X262026Y428388D01*
X262153Y428374D01*
X262266Y428360D01*
X262435D01*
X262788Y428388D01*
X263098Y428445D01*
X263365Y428543D01*
X263591Y428642D01*
X263774Y428741D01*
X263901Y428839D01*
X263972Y428896D01*
X264000Y428924D01*
X264183Y429164D01*
X264324Y429431D01*
X264409Y429727D01*
X264479Y429995D01*
X264522Y430249D01*
X264536Y430362D01*
Y430460D01*
X264550Y430531D01*
Y430587D01*
Y430630D01*
Y430644D01*
X264536Y430855D01*
X264522Y431038D01*
X264493Y431208D01*
X264465Y431363D01*
X264437Y431475D01*
X264423Y431574D01*
X264395Y431630D01*
Y431645D01*
X264324Y431800D01*
X264254Y431941D01*
X264183Y432067D01*
X264099Y432180D01*
X264042Y432265D01*
X263986Y432321D01*
X263958Y432364D01*
X263944Y432378D01*
X263831Y432490D01*
X263718Y432575D01*
X263605Y432659D01*
X263507Y432730D01*
X263422Y432772D01*
X263337Y432815D01*
X263295Y432843D01*
X263281D01*
X263140Y432899D01*
X262999Y432942D01*
X262858Y432970D01*
X262731Y432998D01*
X262633D01*
X262548Y433012D01*
X262477D01*
X262139Y432998D01*
X261998Y432984D01*
X261857Y432970D01*
X261744Y432942D01*
X261660Y432927D01*
X261603Y432913D01*
X261589D01*
X261279Y432829D01*
X261138Y432772D01*
X261011Y432716D01*
X260899Y432674D01*
X260814Y432631D01*
X260758Y432617D01*
X260744Y432603D01*
Y433660D01*
X261040Y433759D01*
X261180Y433801D01*
X261307Y433830D01*
X261420Y433858D01*
X261505Y433872D01*
X261561Y433886D01*
X261575D01*
X261900Y433928D01*
X262055Y433942D01*
X262210D01*
X262322Y433956D01*
X262506D01*
X262759Y433942D01*
D02*
G37*
G36*
X280000Y427500D02*
X278872D01*
Y430475D01*
X277857D01*
X277547Y430489D01*
X277251Y430517D01*
X276997Y430545D01*
X276786Y430601D01*
X276603Y430644D01*
X276476Y430672D01*
X276391Y430700D01*
X276363Y430714D01*
X276137Y430813D01*
X275940Y430911D01*
X275771Y431024D01*
X275616Y431123D01*
X275503Y431208D01*
X275418Y431278D01*
X275362Y431334D01*
X275348Y431348D01*
X275207Y431504D01*
X275080Y431659D01*
X274981Y431800D01*
X274897Y431941D01*
X274841Y432053D01*
X274784Y432152D01*
X274770Y432208D01*
X274756Y432237D01*
X274685Y432420D01*
X274643Y432603D01*
X274601Y432786D01*
X274587Y432942D01*
X274573Y433068D01*
X274559Y433167D01*
Y433223D01*
Y433252D01*
X274573Y433505D01*
X274601Y433731D01*
X274643Y433928D01*
X274685Y434097D01*
X274728Y434238D01*
X274770Y434337D01*
X274798Y434393D01*
X274812Y434422D01*
X274911Y434591D01*
X275024Y434746D01*
X275137Y434873D01*
X275249Y434986D01*
X275348Y435084D01*
X275433Y435141D01*
X275489Y435183D01*
X275503Y435197D01*
X275672Y435310D01*
X275841Y435394D01*
X275996Y435479D01*
X276152Y435535D01*
X276292Y435592D01*
X276391Y435620D01*
X276462Y435648D01*
X276490D01*
X276913Y435733D01*
X277110Y435761D01*
X277293Y435775D01*
X277448Y435789D01*
X280000D01*
Y427500D01*
D02*
G37*
G36*
X250387Y421470D02*
X250641Y421456D01*
X250852Y421428D01*
X251035Y421400D01*
X251191Y421358D01*
X251289Y421330D01*
X251360Y421315D01*
X251388Y421301D01*
X251571Y421231D01*
X251726Y421146D01*
X251867Y421076D01*
X251980Y421005D01*
X252065Y420935D01*
X252135Y420878D01*
X252177Y420850D01*
X252191Y420836D01*
X252290Y420737D01*
X252389Y420625D01*
X252459Y420526D01*
X252516Y420442D01*
X252558Y420357D01*
X252586Y420300D01*
X252614Y420258D01*
Y420244D01*
X252685Y420019D01*
X252699Y419920D01*
X252713Y419835D01*
X252727Y419765D01*
Y419708D01*
Y419680D01*
Y419666D01*
Y419525D01*
X252699Y419384D01*
X252685Y419257D01*
X252657Y419159D01*
X252628Y419074D01*
X252614Y419018D01*
X252586Y418975D01*
Y418961D01*
X252459Y418750D01*
X252318Y418595D01*
X252262Y418524D01*
X252206Y418482D01*
X252177Y418454D01*
X252163Y418440D01*
X251952Y418285D01*
X251740Y418172D01*
X251656Y418130D01*
X251585Y418087D01*
X251543Y418073D01*
X251529Y418059D01*
X251247Y417946D01*
X251120Y417904D01*
X250993Y417862D01*
X250895Y417819D01*
X250810Y417805D01*
X250753Y417777D01*
X250739D01*
X250528Y417721D01*
X250359Y417664D01*
X250204Y417608D01*
X250077Y417566D01*
X249964Y417523D01*
X249894Y417495D01*
X249851Y417467D01*
X249837D01*
X249725Y417425D01*
X249612Y417368D01*
X249527Y417326D01*
X249457Y417298D01*
X249414Y417256D01*
X249372Y417241D01*
X249344Y417213D01*
X249231Y417115D01*
X249161Y417030D01*
X249132Y416974D01*
X249118Y416945D01*
X249076Y416847D01*
X249062Y416748D01*
X249048Y416678D01*
Y416664D01*
Y416649D01*
X249062Y416508D01*
X249104Y416381D01*
X249175Y416269D01*
X249245Y416184D01*
X249316Y416114D01*
X249386Y416071D01*
X249428Y416043D01*
X249443Y416029D01*
X249598Y415959D01*
X249781Y415902D01*
X249978Y415874D01*
X250176Y415846D01*
X250345Y415832D01*
X250486Y415818D01*
X250613D01*
X251021Y415832D01*
X251205Y415846D01*
X251374Y415860D01*
X251515D01*
X251614Y415874D01*
X251684Y415888D01*
X251712D01*
X252121Y415959D01*
X252304Y416001D01*
X252473Y416043D01*
X252614Y416086D01*
X252713Y416114D01*
X252784Y416142D01*
X252812D01*
Y415127D01*
X252431Y415042D01*
X252262Y415014D01*
X252093Y414986D01*
X251966Y414972D01*
X251853Y414958D01*
X251797Y414944D01*
X251768D01*
X251346Y414915D01*
X251148Y414901D01*
X250965D01*
X250810Y414887D01*
X250570D01*
X250345Y414901D01*
X250161Y414915D01*
X250077Y414930D01*
X250021D01*
X249978Y414944D01*
X249964D01*
X249739Y414986D01*
X249626Y415000D01*
X249541Y415028D01*
X249471Y415042D01*
X249400Y415056D01*
X249372Y415070D01*
X249358D01*
X249146Y415141D01*
X248977Y415211D01*
X248907Y415254D01*
X248850Y415268D01*
X248822Y415296D01*
X248808D01*
X248625Y415423D01*
X248470Y415536D01*
X248413Y415578D01*
X248371Y415620D01*
X248357Y415634D01*
X248343Y415648D01*
X248216Y415818D01*
X248117Y415973D01*
X248075Y416029D01*
X248047Y416086D01*
X248033Y416114D01*
Y416128D01*
X247962Y416339D01*
X247920Y416537D01*
X247906Y416607D01*
Y416678D01*
Y416720D01*
Y416734D01*
X247920Y416988D01*
X247934Y417086D01*
X247962Y417185D01*
X247976Y417256D01*
X248005Y417326D01*
X248019Y417354D01*
Y417368D01*
X248061Y417467D01*
X248117Y417566D01*
X248230Y417721D01*
X248287Y417777D01*
X248329Y417819D01*
X248357Y417848D01*
X248371Y417862D01*
X248568Y418017D01*
X248766Y418158D01*
X248865Y418200D01*
X248921Y418242D01*
X248977Y418256D01*
X248991Y418270D01*
X249146Y418341D01*
X249302Y418397D01*
X249457Y418468D01*
X249612Y418510D01*
X249753Y418567D01*
X249851Y418595D01*
X249922Y418609D01*
X249950Y418623D01*
X250133Y418679D01*
X250288Y418722D01*
X250429Y418764D01*
X250556Y418806D01*
X250655Y418848D01*
X250725Y418863D01*
X250768Y418891D01*
X250782D01*
X250895Y418947D01*
X250993Y418989D01*
X251078Y419032D01*
X251162Y419074D01*
X251219Y419116D01*
X251261Y419130D01*
X251275Y419159D01*
X251289D01*
X251402Y419257D01*
X251487Y419342D01*
X251529Y419398D01*
X251543Y419426D01*
X251571Y419539D01*
X251585Y419638D01*
X251599Y419708D01*
Y419723D01*
Y419737D01*
X251585Y419864D01*
X251557Y419962D01*
X251543Y420033D01*
X251529Y420061D01*
X251458Y420159D01*
X251388Y420244D01*
X251317Y420300D01*
X251289Y420315D01*
X251134Y420385D01*
X250993Y420456D01*
X250923Y420470D01*
X250866Y420484D01*
X250838Y420498D01*
X250824D01*
X250599Y420540D01*
X250373Y420554D01*
X250274Y420568D01*
X250133D01*
X249851Y420554D01*
X249725Y420540D01*
X249598D01*
X249485Y420526D01*
X249400Y420512D01*
X249330Y420498D01*
X249316D01*
X248963Y420442D01*
X248794Y420413D01*
X248653Y420385D01*
X248512Y420357D01*
X248413Y420343D01*
X248357Y420315D01*
X248329D01*
Y421301D01*
X248512Y421330D01*
X248695Y421372D01*
X248850Y421386D01*
X248991Y421414D01*
X249118Y421428D01*
X249203D01*
X249273Y421442D01*
X249287D01*
X249612Y421470D01*
X249753D01*
X249865Y421485D01*
X250119D01*
X250387Y421470D01*
D02*
G37*
G36*
X264907D02*
X265147Y421442D01*
X265358Y421400D01*
X265555Y421358D01*
X265711Y421315D01*
X265823Y421273D01*
X265894Y421245D01*
X265922Y421231D01*
X266119Y421132D01*
X266303Y421019D01*
X266472Y420907D01*
X266613Y420794D01*
X266726Y420695D01*
X266810Y420611D01*
X266866Y420554D01*
X266880Y420540D01*
X267022Y420371D01*
X267134Y420188D01*
X267247Y420019D01*
X267332Y419849D01*
X267402Y419708D01*
X267444Y419581D01*
X267473Y419511D01*
X267487Y419497D01*
Y419483D01*
X267557Y419257D01*
X267600Y419018D01*
X267642Y418792D01*
X267656Y418581D01*
X267670Y418411D01*
X267684Y418270D01*
Y418214D01*
Y418172D01*
Y418158D01*
Y418144D01*
X267670Y417862D01*
X267656Y417594D01*
X267628Y417354D01*
X267585Y417143D01*
X267543Y416974D01*
X267515Y416847D01*
X267501Y416762D01*
X267487Y416748D01*
Y416734D01*
X267402Y416522D01*
X267318Y416325D01*
X267219Y416142D01*
X267134Y416001D01*
X267050Y415874D01*
X266979Y415789D01*
X266937Y415733D01*
X266923Y415719D01*
X266768Y415578D01*
X266613Y415451D01*
X266472Y415338D01*
X266317Y415254D01*
X266190Y415183D01*
X266091Y415141D01*
X266035Y415113D01*
X266007Y415099D01*
X265795Y415028D01*
X265584Y414972D01*
X265372Y414944D01*
X265175Y414915D01*
X265020Y414901D01*
X264879Y414887D01*
X264766D01*
X264498Y414901D01*
X264258Y414930D01*
X264047Y414958D01*
X263850Y415014D01*
X263695Y415056D01*
X263582Y415085D01*
X263511Y415113D01*
X263483Y415127D01*
X263286Y415226D01*
X263088Y415338D01*
X262933Y415451D01*
X262792Y415550D01*
X262680Y415648D01*
X262595Y415733D01*
X262539Y415789D01*
X262525Y415803D01*
X262384Y415973D01*
X262257Y416156D01*
X262158Y416339D01*
X262073Y416508D01*
X262003Y416649D01*
X261961Y416762D01*
X261933Y416833D01*
X261918Y416861D01*
X261848Y417100D01*
X261791Y417340D01*
X261763Y417566D01*
X261735Y417777D01*
X261721Y417960D01*
X261707Y418101D01*
Y418158D01*
Y418200D01*
Y418214D01*
Y418228D01*
X261721Y418510D01*
X261735Y418778D01*
X261777Y419018D01*
X261806Y419229D01*
X261848Y419384D01*
X261890Y419511D01*
X261904Y419596D01*
X261918Y419624D01*
X262003Y419835D01*
X262087Y420033D01*
X262186Y420216D01*
X262285Y420357D01*
X262369Y420484D01*
X262440Y420568D01*
X262482Y420625D01*
X262496Y420639D01*
X262637Y420780D01*
X262792Y420907D01*
X262948Y421019D01*
X263088Y421104D01*
X263215Y421175D01*
X263314Y421217D01*
X263384Y421245D01*
X263413Y421259D01*
X263624Y421330D01*
X263836Y421386D01*
X264033Y421428D01*
X264230Y421456D01*
X264385Y421470D01*
X264526Y421485D01*
X264639D01*
X264907Y421470D01*
D02*
G37*
G36*
X202640Y423064D02*
X200766D01*
Y415916D01*
X202852D01*
Y415000D01*
X197749D01*
Y415916D01*
X199652D01*
Y423966D01*
X202640D01*
Y423064D01*
D02*
G37*
G36*
X198956Y436522D02*
X199069Y436508D01*
X199140Y436480D01*
X199154Y436466D01*
X199168D01*
X199281Y436409D01*
X199365Y436339D01*
X199422Y436297D01*
X199450Y436268D01*
X199520Y436184D01*
X199577Y436099D01*
X199619Y436029D01*
X199633Y436015D01*
Y436001D01*
X199661Y435888D01*
X199675Y435775D01*
X199689Y435690D01*
Y435676D01*
Y435662D01*
X199675Y435535D01*
X199661Y435423D01*
X199647Y435352D01*
X199633Y435338D01*
Y435324D01*
X199577Y435211D01*
X199520Y435126D01*
X199464Y435070D01*
X199450Y435042D01*
X199351Y434971D01*
X199266Y434915D01*
X199196Y434873D01*
X199168Y434859D01*
X199055Y434830D01*
X198942Y434816D01*
X198858Y434802D01*
X198829D01*
X198703Y434816D01*
X198590Y434830D01*
X198519Y434845D01*
X198491Y434859D01*
X198378Y434915D01*
X198294Y434971D01*
X198237Y435028D01*
X198223Y435042D01*
X198139Y435141D01*
X198082Y435225D01*
X198040Y435296D01*
X198026Y435324D01*
X197984Y435437D01*
X197970Y435549D01*
X197955Y435634D01*
Y435648D01*
Y435662D01*
X197970Y435789D01*
X197984Y435902D01*
X198012Y435972D01*
X198026Y436001D01*
X198082Y436113D01*
X198153Y436198D01*
X198195Y436254D01*
X198223Y436268D01*
X198308Y436353D01*
X198393Y436409D01*
X198463Y436452D01*
X198477Y436466D01*
X198491D01*
X198604Y436508D01*
X198717Y436522D01*
X198801Y436536D01*
X198829D01*
X198956Y436522D01*
D02*
G37*
G36*
X150538Y423402D02*
X150764Y423388D01*
X150975Y423359D01*
X151144Y423331D01*
X151285Y423289D01*
X151398Y423261D01*
X151454Y423247D01*
X151482Y423233D01*
X151666Y423162D01*
X151821Y423092D01*
X151962Y423007D01*
X152089Y422937D01*
X152187Y422866D01*
X152258Y422824D01*
X152300Y422782D01*
X152314Y422767D01*
X152427Y422655D01*
X152526Y422542D01*
X152610Y422429D01*
X152681Y422316D01*
X152737Y422232D01*
X152779Y422161D01*
X152794Y422105D01*
X152808Y422091D01*
X152864Y421950D01*
X152892Y421823D01*
X152920Y421696D01*
X152949Y421569D01*
Y421470D01*
X152963Y421400D01*
Y421344D01*
Y421330D01*
X152949Y421090D01*
X152906Y420878D01*
X152850Y420681D01*
X152779Y420512D01*
X152709Y420371D01*
X152653Y420258D01*
X152610Y420202D01*
X152596Y420174D01*
X152441Y419990D01*
X152244Y419821D01*
X152060Y419666D01*
X151863Y419525D01*
X151680Y419412D01*
X151539Y419328D01*
X151482Y419300D01*
X151440Y419271D01*
X151426Y419257D01*
X151412D01*
X151722Y419088D01*
X151990Y418905D01*
X152215Y418736D01*
X152399Y418581D01*
X152540Y418440D01*
X152638Y418341D01*
X152709Y418270D01*
X152723Y418242D01*
X152864Y418031D01*
X152963Y417805D01*
X153047Y417580D01*
X153090Y417382D01*
X153118Y417199D01*
X153132Y417058D01*
X153146Y417002D01*
Y416959D01*
Y416945D01*
Y416931D01*
X153132Y416762D01*
X153118Y416607D01*
X153090Y416466D01*
X153061Y416353D01*
X153033Y416241D01*
X153005Y416170D01*
X152977Y416114D01*
Y416100D01*
X152906Y415973D01*
X152822Y415846D01*
X152737Y415733D01*
X152653Y415634D01*
X152568Y415564D01*
X152512Y415508D01*
X152469Y415465D01*
X152455Y415451D01*
X152314Y415352D01*
X152173Y415268D01*
X152018Y415197D01*
X151891Y415141D01*
X151764Y415099D01*
X151666Y415056D01*
X151609Y415042D01*
X151581Y415028D01*
X151384Y414986D01*
X151172Y414944D01*
X150975Y414915D01*
X150792Y414901D01*
X150623D01*
X150496Y414887D01*
X150157D01*
X149946Y414915D01*
X149763Y414930D01*
X149593Y414958D01*
X149452Y414986D01*
X149340Y415000D01*
X149283Y415028D01*
X149255D01*
X149058Y415085D01*
X148889Y415155D01*
X148734Y415226D01*
X148593Y415296D01*
X148494Y415352D01*
X148409Y415409D01*
X148353Y415437D01*
X148339Y415451D01*
X148198Y415564D01*
X148071Y415677D01*
X147972Y415789D01*
X147888Y415902D01*
X147817Y416001D01*
X147775Y416071D01*
X147747Y416128D01*
X147733Y416142D01*
X147662Y416297D01*
X147606Y416466D01*
X147563Y416621D01*
X147535Y416762D01*
X147521Y416889D01*
X147507Y417002D01*
Y417058D01*
Y417086D01*
X147535Y417382D01*
X147549Y417509D01*
X147578Y417608D01*
X147606Y417707D01*
X147620Y417777D01*
X147648Y417819D01*
Y417834D01*
X147761Y418073D01*
X147817Y418172D01*
X147874Y418270D01*
X147930Y418341D01*
X147972Y418397D01*
X148000Y418426D01*
X148015Y418440D01*
X148198Y418637D01*
X148367Y418792D01*
X148452Y418848D01*
X148508Y418891D01*
X148550Y418919D01*
X148564Y418933D01*
X148804Y419088D01*
X148917Y419159D01*
X149016Y419229D01*
X149114Y419271D01*
X149185Y419314D01*
X149227Y419328D01*
X149241Y419342D01*
X148987Y419483D01*
X148748Y419638D01*
X148550Y419793D01*
X148395Y419934D01*
X148268Y420047D01*
X148170Y420145D01*
X148113Y420202D01*
X148099Y420230D01*
X147958Y420427D01*
X147859Y420639D01*
X147789Y420836D01*
X147747Y421034D01*
X147704Y421203D01*
X147690Y421344D01*
Y421386D01*
Y421428D01*
Y421442D01*
Y421456D01*
Y421626D01*
X147719Y421767D01*
X147747Y421908D01*
X147775Y422034D01*
X147803Y422119D01*
X147831Y422204D01*
X147845Y422246D01*
X147859Y422260D01*
X147930Y422387D01*
X148015Y422514D01*
X148099Y422612D01*
X148170Y422711D01*
X148254Y422782D01*
X148311Y422838D01*
X148353Y422866D01*
X148367Y422880D01*
X148494Y422965D01*
X148635Y423049D01*
X148762Y423120D01*
X148889Y423176D01*
X149001Y423219D01*
X149086Y423247D01*
X149142Y423275D01*
X149171D01*
X149354Y423317D01*
X149551Y423359D01*
X149734Y423388D01*
X149918Y423402D01*
X150073Y423416D01*
X150298D01*
X150538Y423402D01*
D02*
G37*
G36*
X243465Y421470D02*
X243705Y421442D01*
X243916Y421400D01*
X244114Y421358D01*
X244269Y421315D01*
X244382Y421273D01*
X244452Y421245D01*
X244480Y421231D01*
X244678Y421132D01*
X244861Y421019D01*
X245030Y420907D01*
X245171Y420794D01*
X245284Y420695D01*
X245368Y420611D01*
X245425Y420554D01*
X245439Y420540D01*
X245580Y420371D01*
X245693Y420188D01*
X245805Y420019D01*
X245890Y419849D01*
X245961Y419708D01*
X246003Y419581D01*
X246031Y419511D01*
X246045Y419497D01*
Y419483D01*
X246116Y419257D01*
X246158Y419018D01*
X246200Y418792D01*
X246214Y418581D01*
X246228Y418411D01*
X246243Y418270D01*
Y418214D01*
Y418172D01*
Y418158D01*
Y418144D01*
X246228Y417862D01*
X246214Y417594D01*
X246186Y417354D01*
X246144Y417143D01*
X246101Y416974D01*
X246073Y416847D01*
X246059Y416762D01*
X246045Y416748D01*
Y416734D01*
X245961Y416522D01*
X245876Y416325D01*
X245777Y416142D01*
X245693Y416001D01*
X245608Y415874D01*
X245538Y415789D01*
X245495Y415733D01*
X245481Y415719D01*
X245326Y415578D01*
X245171Y415451D01*
X245030Y415338D01*
X244875Y415254D01*
X244748Y415183D01*
X244650Y415141D01*
X244593Y415113D01*
X244565Y415099D01*
X244354Y415028D01*
X244142Y414972D01*
X243931Y414944D01*
X243733Y414915D01*
X243578Y414901D01*
X243437Y414887D01*
X243324D01*
X243057Y414901D01*
X242817Y414930D01*
X242605Y414958D01*
X242408Y415014D01*
X242253Y415056D01*
X242140Y415085D01*
X242070Y415113D01*
X242042Y415127D01*
X241844Y415226D01*
X241647Y415338D01*
X241492Y415451D01*
X241351Y415550D01*
X241238Y415648D01*
X241154Y415733D01*
X241097Y415789D01*
X241083Y415803D01*
X240942Y415973D01*
X240815Y416156D01*
X240716Y416339D01*
X240632Y416508D01*
X240561Y416649D01*
X240519Y416762D01*
X240491Y416833D01*
X240477Y416861D01*
X240406Y417100D01*
X240350Y417340D01*
X240322Y417566D01*
X240294Y417777D01*
X240280Y417960D01*
X240265Y418101D01*
Y418158D01*
Y418200D01*
Y418214D01*
Y418228D01*
X240280Y418510D01*
X240294Y418778D01*
X240336Y419018D01*
X240364Y419229D01*
X240406Y419384D01*
X240449Y419511D01*
X240463Y419596D01*
X240477Y419624D01*
X240561Y419835D01*
X240646Y420033D01*
X240745Y420216D01*
X240843Y420357D01*
X240928Y420484D01*
X240998Y420568D01*
X241041Y420625D01*
X241055Y420639D01*
X241196Y420780D01*
X241351Y420907D01*
X241506Y421019D01*
X241647Y421104D01*
X241774Y421175D01*
X241872Y421217D01*
X241943Y421245D01*
X241971Y421259D01*
X242183Y421330D01*
X242394Y421386D01*
X242591Y421428D01*
X242789Y421456D01*
X242944Y421470D01*
X243085Y421485D01*
X243198D01*
X243465Y421470D01*
D02*
G37*
G36*
X207814D02*
X207913D01*
X207997Y421456D01*
X208054D01*
X208096Y421442D01*
X208110D01*
X208336Y421414D01*
X208434Y421400D01*
X208519Y421386D01*
X208589Y421372D01*
X208646Y421358D01*
X208688Y421344D01*
X208702D01*
X208900Y421301D01*
X209083Y421259D01*
X209153Y421245D01*
X209210Y421231D01*
X209238Y421217D01*
X209252D01*
X209435Y421160D01*
X209576Y421118D01*
X209633Y421104D01*
X209661Y421090D01*
X209689Y421076D01*
X209703D01*
Y420075D01*
X209506Y420145D01*
X209308Y420216D01*
X209125Y420272D01*
X208956Y420329D01*
X208829Y420357D01*
X208716Y420385D01*
X208660Y420413D01*
X208632D01*
X208237Y420484D01*
X208068Y420512D01*
X207899Y420526D01*
X207758Y420540D01*
X207560D01*
X207307Y420526D01*
X207081Y420484D01*
X206884Y420427D01*
X206729Y420371D01*
X206616Y420315D01*
X206531Y420258D01*
X206475Y420216D01*
X206461Y420202D01*
X206334Y420061D01*
X206249Y419920D01*
X206179Y419765D01*
X206136Y419624D01*
X206108Y419497D01*
X206094Y419398D01*
Y419328D01*
Y419300D01*
Y418750D01*
X207673D01*
X207913Y418722D01*
X208138Y418693D01*
X208336Y418665D01*
X208533Y418623D01*
X208702Y418581D01*
X208857Y418524D01*
X208998Y418482D01*
X209125Y418426D01*
X209238Y418369D01*
X209322Y418327D01*
X209393Y418285D01*
X209463Y418256D01*
X209506Y418228D01*
X209520Y418200D01*
X209534D01*
X209661Y418087D01*
X209760Y417975D01*
X209858Y417862D01*
X209943Y417735D01*
X210070Y417481D01*
X210154Y417241D01*
X210196Y417030D01*
X210211Y416931D01*
X210225Y416847D01*
X210239Y416790D01*
Y416734D01*
Y416706D01*
Y416692D01*
X210225Y416424D01*
X210196Y416297D01*
X210182Y416184D01*
X210154Y416100D01*
X210140Y416029D01*
X210126Y415987D01*
Y415973D01*
X210027Y415747D01*
X209957Y415648D01*
X209900Y415564D01*
X209844Y415493D01*
X209802Y415437D01*
X209774Y415409D01*
X209760Y415395D01*
X209548Y415240D01*
X209351Y415113D01*
X209252Y415070D01*
X209181Y415042D01*
X209139Y415014D01*
X209125D01*
X208815Y414944D01*
X208660Y414915D01*
X208505Y414901D01*
X208378D01*
X208279Y414887D01*
X208195D01*
X207969Y414901D01*
X207772Y414930D01*
X207574Y414958D01*
X207405Y415000D01*
X207264Y415042D01*
X207166Y415085D01*
X207095Y415099D01*
X207067Y415113D01*
X206870Y415211D01*
X206672Y415324D01*
X206503Y415451D01*
X206334Y415564D01*
X206207Y415677D01*
X206094Y415761D01*
X206038Y415818D01*
X206010Y415846D01*
X205982Y415000D01*
X204981D01*
Y419384D01*
X204995Y419581D01*
X205009Y419751D01*
X205037Y419920D01*
X205065Y420047D01*
X205107Y420159D01*
X205136Y420244D01*
X205150Y420300D01*
X205164Y420315D01*
X205234Y420456D01*
X205305Y420582D01*
X205389Y420695D01*
X205474Y420794D01*
X205544Y420864D01*
X205601Y420921D01*
X205643Y420949D01*
X205657Y420963D01*
X205784Y421062D01*
X205911Y421132D01*
X206038Y421203D01*
X206165Y421259D01*
X206263Y421301D01*
X206348Y421330D01*
X206418Y421358D01*
X206433D01*
X206785Y421428D01*
X206968Y421456D01*
X207123Y421470D01*
X207264Y421485D01*
X207715D01*
X207814Y421470D01*
D02*
G37*
G36*
X172594Y435999D02*
X172890Y435962D01*
X173168Y435906D01*
X173409Y435851D01*
X173594Y435777D01*
X173742Y435721D01*
X173834Y435684D01*
X173871Y435666D01*
X174131Y435518D01*
X174353Y435370D01*
X174557Y435203D01*
X174742Y435055D01*
X174871Y434907D01*
X174982Y434795D01*
X175057Y434721D01*
X175075Y434703D01*
X175242Y434481D01*
X175390Y434240D01*
X175520Y433999D01*
X175631Y433796D01*
X175705Y433592D01*
X175760Y433444D01*
X175797Y433351D01*
X175816Y433333D01*
Y433314D01*
X175890Y433018D01*
X175945Y432722D01*
X176001Y432444D01*
X176019Y432203D01*
X176038Y431981D01*
X176056Y431814D01*
Y431703D01*
Y431685D01*
Y431666D01*
X176038Y431296D01*
X176019Y430944D01*
X175982Y430648D01*
X175945Y430370D01*
X175908Y430148D01*
X175871Y429981D01*
X175834Y429870D01*
Y429852D01*
Y429833D01*
X175742Y429555D01*
X175612Y429278D01*
X175501Y429055D01*
X175371Y428852D01*
X175260Y428704D01*
X175168Y428574D01*
X175112Y428500D01*
X175094Y428481D01*
X174890Y428278D01*
X174686Y428111D01*
X174464Y427963D01*
X174260Y427852D01*
X174094Y427759D01*
X173946Y427685D01*
X173853Y427648D01*
X173816Y427630D01*
X173520Y427537D01*
X173205Y427463D01*
X172890Y427426D01*
X172594Y427389D01*
X172353Y427370D01*
X172150Y427352D01*
X171668D01*
X171390Y427370D01*
X171131Y427389D01*
X170890Y427407D01*
X170705Y427426D01*
X170557Y427444D01*
X170464Y427463D01*
X170427D01*
X170150Y427500D01*
X169890Y427537D01*
X169668Y427593D01*
X169465Y427630D01*
X169298Y427667D01*
X169187Y427704D01*
X169094Y427722D01*
X169076D01*
Y428907D01*
X169279Y428852D01*
X169483Y428815D01*
X169557Y428796D01*
X169613Y428778D01*
X169650Y428759D01*
X169668D01*
X169909Y428722D01*
X170113Y428685D01*
X170205Y428667D01*
X170279D01*
X170316Y428648D01*
X170335D01*
X170576Y428629D01*
X170816Y428592D01*
X170909D01*
X170983Y428574D01*
X171038D01*
X171298Y428555D01*
X171761D01*
X172242Y428592D01*
X172649Y428667D01*
X173001Y428778D01*
X173298Y428907D01*
X173538Y429018D01*
X173705Y429129D01*
X173797Y429203D01*
X173834Y429241D01*
X174075Y429518D01*
X174242Y429833D01*
X174371Y430166D01*
X174445Y430481D01*
X174501Y430777D01*
X174520Y430907D01*
Y431018D01*
X174538Y431092D01*
Y431166D01*
Y431203D01*
Y431222D01*
X168668D01*
X168650Y431352D01*
Y431463D01*
Y431555D01*
Y431592D01*
X168631Y431777D01*
Y431944D01*
Y432018D01*
Y432074D01*
Y432111D01*
Y432129D01*
X168650Y432463D01*
X168668Y432759D01*
X168705Y433018D01*
X168742Y433259D01*
X168798Y433444D01*
X168835Y433592D01*
X168853Y433685D01*
X168872Y433722D01*
X168965Y433981D01*
X169076Y434221D01*
X169205Y434425D01*
X169317Y434610D01*
X169409Y434740D01*
X169502Y434851D01*
X169557Y434925D01*
X169576Y434944D01*
X169761Y435129D01*
X169946Y435295D01*
X170150Y435425D01*
X170316Y435536D01*
X170483Y435629D01*
X170613Y435684D01*
X170687Y435721D01*
X170724Y435740D01*
X170983Y435832D01*
X171242Y435906D01*
X171501Y435944D01*
X171742Y435981D01*
X171946Y435999D01*
X172113Y436018D01*
X172261D01*
X172594Y435999D01*
D02*
G37*
G36*
X315014Y307500D02*
X313887D01*
Y310150D01*
Y314337D01*
X313224Y312674D01*
X310912Y307500D01*
X309376D01*
Y315789D01*
X310503D01*
Y313435D01*
Y308994D01*
X311307Y310883D01*
X313506Y315789D01*
X315014D01*
Y307500D01*
D02*
G37*
G36*
X122110Y355902D02*
X122378Y355888D01*
X122618Y355859D01*
X122829Y355817D01*
X122998Y355775D01*
X123111Y355747D01*
X123196Y355733D01*
X123224Y355718D01*
X123435Y355634D01*
X123618Y355549D01*
X123788Y355465D01*
X123914Y355380D01*
X124027Y355310D01*
X124112Y355253D01*
X124168Y355211D01*
X124182Y355197D01*
X124309Y355070D01*
X124422Y354943D01*
X124521Y354816D01*
X124591Y354704D01*
X124648Y354605D01*
X124704Y354534D01*
X124718Y354478D01*
X124732Y354464D01*
X124789Y354309D01*
X124831Y354154D01*
X124859Y354013D01*
X124873Y353886D01*
X124887Y353773D01*
X124901Y353689D01*
Y353632D01*
Y353618D01*
X124887Y353449D01*
X124873Y353280D01*
X124845Y353139D01*
X124803Y353012D01*
X124775Y352913D01*
X124746Y352843D01*
X124732Y352786D01*
X124718Y352772D01*
X124563Y352533D01*
X124478Y352420D01*
X124408Y352335D01*
X124337Y352251D01*
X124281Y352194D01*
X124253Y352166D01*
X124239Y352152D01*
X123999Y351969D01*
X123872Y351898D01*
X123774Y351828D01*
X123675Y351771D01*
X123604Y351743D01*
X123548Y351715D01*
X123534Y351701D01*
X123238Y351560D01*
X123111Y351503D01*
X122984Y351447D01*
X122886Y351405D01*
X122815Y351363D01*
X122759Y351348D01*
X122745Y351334D01*
X122448Y351222D01*
X122308Y351165D01*
X122195Y351123D01*
X122082Y351081D01*
X122011Y351052D01*
X121955Y351038D01*
X121941Y351024D01*
X121659Y350897D01*
X121546Y350841D01*
X121448Y350785D01*
X121363Y350742D01*
X121307Y350700D01*
X121264Y350686D01*
X121250Y350672D01*
X121039Y350531D01*
X120954Y350460D01*
X120884Y350390D01*
X120827Y350334D01*
X120785Y350291D01*
X120771Y350263D01*
X120757Y350249D01*
X120686Y350150D01*
X120644Y350066D01*
X120588Y349882D01*
X120574Y349798D01*
X120559Y349741D01*
Y349699D01*
Y349685D01*
X120574Y349474D01*
X120588Y349375D01*
X120616Y349290D01*
X120630Y349220D01*
X120658Y349163D01*
X120672Y349135D01*
Y349121D01*
X120771Y348952D01*
X120898Y348825D01*
X120954Y348783D01*
X120997Y348741D01*
X121025Y348726D01*
X121039Y348712D01*
X121236Y348614D01*
X121433Y348529D01*
X121532Y348515D01*
X121588Y348487D01*
X121645Y348473D01*
X121659D01*
X121814Y348445D01*
X121969Y348430D01*
X122124Y348402D01*
X122265D01*
X122392Y348388D01*
X122871D01*
X123125Y348402D01*
X123351Y348416D01*
X123548Y348445D01*
X123717Y348459D01*
X123844Y348473D01*
X123914Y348487D01*
X123943D01*
X124154Y348529D01*
X124352Y348571D01*
X124535Y348614D01*
X124690Y348670D01*
X124817Y348712D01*
X124915Y348741D01*
X124972Y348755D01*
X125000Y348769D01*
Y347683D01*
X124831Y347641D01*
X124676Y347599D01*
X124619Y347585D01*
X124563Y347570D01*
X124535Y347556D01*
X124521D01*
X124323Y347528D01*
X124140Y347500D01*
X124070D01*
X124013Y347486D01*
X123957D01*
X123731Y347458D01*
X123534Y347430D01*
X123449D01*
X123393Y347415D01*
X123337D01*
X123083Y347401D01*
X122984D01*
X122871Y347387D01*
X122406D01*
X122152Y347415D01*
X121927Y347430D01*
X121729Y347458D01*
X121560Y347486D01*
X121433Y347500D01*
X121363Y347528D01*
X121335D01*
X121109Y347585D01*
X120912Y347655D01*
X120743Y347725D01*
X120588Y347796D01*
X120475Y347867D01*
X120376Y347923D01*
X120320Y347951D01*
X120306Y347965D01*
X120151Y348078D01*
X120010Y348205D01*
X119897Y348332D01*
X119798Y348445D01*
X119728Y348543D01*
X119671Y348628D01*
X119643Y348684D01*
X119629Y348698D01*
X119544Y348867D01*
X119488Y349051D01*
X119432Y349234D01*
X119403Y349389D01*
X119389Y349530D01*
X119375Y349643D01*
Y349713D01*
Y349741D01*
X119389Y349925D01*
X119403Y350080D01*
X119432Y350235D01*
X119474Y350362D01*
X119516Y350460D01*
X119544Y350531D01*
X119559Y350587D01*
X119573Y350601D01*
X119728Y350855D01*
X119812Y350968D01*
X119883Y351052D01*
X119953Y351137D01*
X120010Y351193D01*
X120052Y351222D01*
X120066Y351236D01*
X120292Y351419D01*
X120517Y351574D01*
X120616Y351630D01*
X120686Y351673D01*
X120743Y351687D01*
X120757Y351701D01*
X121053Y351842D01*
X121180Y351898D01*
X121307Y351955D01*
X121405Y351997D01*
X121490Y352025D01*
X121546Y352053D01*
X121560D01*
X121856Y352180D01*
X121983Y352237D01*
X122096Y352279D01*
X122209Y352321D01*
X122279Y352349D01*
X122336Y352378D01*
X122350D01*
X122632Y352490D01*
X122745Y352547D01*
X122843Y352603D01*
X122942Y352645D01*
X122998Y352688D01*
X123041Y352702D01*
X123055Y352716D01*
X123252Y352871D01*
X123407Y353012D01*
X123463Y353068D01*
X123506Y353111D01*
X123520Y353139D01*
X123534Y353153D01*
X123590Y353252D01*
X123633Y353350D01*
X123689Y353534D01*
X123703Y353618D01*
X123717Y353675D01*
Y353717D01*
Y353731D01*
X123703Y353928D01*
X123647Y354097D01*
X123576Y354253D01*
X123492Y354379D01*
X123407Y354478D01*
X123337Y354548D01*
X123280Y354591D01*
X123266Y354605D01*
X123069Y354718D01*
X122857Y354802D01*
X122618Y354859D01*
X122378Y354901D01*
X122167Y354929D01*
X121997Y354943D01*
X121842D01*
X121504Y354929D01*
X121335Y354915D01*
X121194Y354901D01*
X121067Y354887D01*
X120982Y354873D01*
X120912Y354859D01*
X120898D01*
X120531Y354802D01*
X120362Y354760D01*
X120221Y354732D01*
X120094Y354704D01*
X119996Y354689D01*
X119939Y354661D01*
X119911D01*
Y355676D01*
X120066Y355704D01*
X120221Y355733D01*
X120278Y355747D01*
X120334Y355761D01*
X120376D01*
X120559Y355789D01*
X120715Y355817D01*
X120771D01*
X120827Y355831D01*
X120870D01*
X121053Y355859D01*
X121208Y355874D01*
X121278Y355888D01*
X121363D01*
X121532Y355902D01*
X121673Y355916D01*
X121814D01*
X122110Y355902D01*
D02*
G37*
G36*
X318891Y315902D02*
X319201Y315874D01*
X319469Y315817D01*
X319709Y315775D01*
X319906Y315718D01*
X320061Y315662D01*
X320118Y315648D01*
X320160Y315634D01*
X320174Y315620D01*
X320188D01*
X320442Y315493D01*
X320681Y315366D01*
X320893Y315225D01*
X321076Y315084D01*
X321231Y314957D01*
X321330Y314859D01*
X321400Y314788D01*
X321429Y314760D01*
X321612Y314534D01*
X321767Y314309D01*
X321908Y314069D01*
X322007Y313858D01*
X322105Y313660D01*
X322162Y313519D01*
X322190Y313463D01*
X322204Y313421D01*
X322218Y313393D01*
Y313378D01*
X322317Y313068D01*
X322387Y312758D01*
X322430Y312448D01*
X322458Y312166D01*
X322486Y311912D01*
Y311814D01*
X322500Y311715D01*
Y311644D01*
Y311588D01*
Y311560D01*
Y311546D01*
X322486Y311179D01*
X322458Y310827D01*
X322415Y310517D01*
X322373Y310263D01*
X322331Y310037D01*
X322303Y309953D01*
X322289Y309882D01*
X322274Y309826D01*
X322260Y309784D01*
X322246Y309755D01*
Y309741D01*
X322148Y309459D01*
X322021Y309206D01*
X321908Y308980D01*
X321781Y308797D01*
X321682Y308642D01*
X321598Y308529D01*
X321527Y308459D01*
X321513Y308430D01*
X321330Y308247D01*
X321133Y308092D01*
X320935Y307951D01*
X320752Y307838D01*
X320597Y307754D01*
X320470Y307697D01*
X320385Y307655D01*
X320371Y307641D01*
X320357D01*
X320089Y307556D01*
X319822Y307500D01*
X319568Y307444D01*
X319328Y307415D01*
X319131Y307401D01*
X318962Y307387D01*
X318821D01*
X318609Y307401D01*
X318426Y307415D01*
X318356D01*
X318299Y307430D01*
X318243D01*
X318031Y307458D01*
X317834Y307486D01*
X317763Y307500D01*
X317707D01*
X317665Y307514D01*
X317651D01*
X317425Y307556D01*
X317326Y307585D01*
X317242Y307613D01*
X317157Y307627D01*
X317101Y307641D01*
X317073Y307655D01*
X317059D01*
X316847Y307726D01*
X316664Y307810D01*
X316593Y307838D01*
X316537Y307866D01*
X316509Y307881D01*
X316495D01*
Y312124D01*
X319314D01*
Y311193D01*
X317608D01*
Y308557D01*
X317693Y308529D01*
X317763Y308501D01*
X317820Y308487D01*
X317848Y308473D01*
X317947Y308459D01*
X318031Y308430D01*
X318088Y308416D01*
X318116D01*
X318214Y308402D01*
X318313D01*
X318370Y308388D01*
X318652D01*
X318905Y308402D01*
X319131Y308416D01*
X319342Y308459D01*
X319526Y308501D01*
X319667Y308529D01*
X319779Y308571D01*
X319836Y308585D01*
X319864Y308600D01*
X320047Y308698D01*
X320202Y308797D01*
X320343Y308896D01*
X320470Y309008D01*
X320569Y309093D01*
X320639Y309163D01*
X320681Y309220D01*
X320696Y309234D01*
X320808Y309403D01*
X320907Y309572D01*
X320992Y309741D01*
X321062Y309911D01*
X321104Y310052D01*
X321147Y310164D01*
X321161Y310235D01*
X321175Y310263D01*
X321217Y310503D01*
X321259Y310728D01*
X321288Y310968D01*
X321302Y311179D01*
Y311363D01*
X321316Y311504D01*
Y311560D01*
Y311602D01*
Y311616D01*
Y311630D01*
X321302Y311898D01*
X321288Y312152D01*
X321259Y312378D01*
X321217Y312575D01*
X321189Y312730D01*
X321161Y312857D01*
X321147Y312927D01*
X321133Y312955D01*
X321062Y313181D01*
X320978Y313378D01*
X320879Y313548D01*
X320794Y313703D01*
X320724Y313815D01*
X320653Y313914D01*
X320611Y313971D01*
X320597Y313985D01*
X320456Y314140D01*
X320315Y314281D01*
X320174Y314393D01*
X320033Y314492D01*
X319920Y314563D01*
X319822Y314619D01*
X319765Y314647D01*
X319737Y314661D01*
X319540Y314746D01*
X319328Y314802D01*
X319131Y314844D01*
X318948Y314873D01*
X318792Y314887D01*
X318666Y314901D01*
X318341D01*
X318144Y314873D01*
X317975Y314859D01*
X317806Y314830D01*
X317679Y314802D01*
X317580Y314788D01*
X317524Y314760D01*
X317496D01*
X317143Y314647D01*
X316974Y314577D01*
X316833Y314520D01*
X316706Y314464D01*
X316621Y314422D01*
X316551Y314393D01*
X316537Y314379D01*
Y315507D01*
X316889Y315648D01*
X317045Y315704D01*
X317199Y315747D01*
X317326Y315775D01*
X317425Y315803D01*
X317481Y315817D01*
X317510D01*
X317890Y315874D01*
X318074Y315888D01*
X318229Y315902D01*
X318370Y315916D01*
X318567D01*
X318891Y315902D01*
D02*
G37*
G36*
X322500Y345000D02*
X321372D01*
Y348693D01*
X320851D01*
X320667Y348679D01*
X320526Y348665D01*
X320470Y348651D01*
X320428D01*
X320414Y348637D01*
X320400D01*
X320259Y348581D01*
X320146Y348538D01*
X320061Y348482D01*
X320047Y348468D01*
X320033D01*
X319906Y348369D01*
X319807Y348270D01*
X319751Y348186D01*
X319723Y348158D01*
Y348144D01*
X319610Y347989D01*
X319511Y347819D01*
X319483Y347749D01*
X319455Y347707D01*
X319427Y347664D01*
Y347650D01*
X318186Y345000D01*
X316903D01*
X318229Y347721D01*
X318327Y347890D01*
X318412Y348059D01*
X318496Y348186D01*
X318581Y348299D01*
X318637Y348397D01*
X318694Y348454D01*
X318722Y348496D01*
X318736Y348510D01*
X318835Y348623D01*
X318933Y348708D01*
X319032Y348792D01*
X319117Y348848D01*
X319201Y348891D01*
X319272Y348919D01*
X319314Y348947D01*
X319328D01*
X319173Y348989D01*
X319018Y349032D01*
X318891Y349088D01*
X318778Y349130D01*
X318694Y349173D01*
X318623Y349215D01*
X318581Y349229D01*
X318567Y349243D01*
X318341Y349412D01*
X318243Y349497D01*
X318158Y349567D01*
X318088Y349638D01*
X318045Y349694D01*
X318017Y349723D01*
X318003Y349737D01*
X317848Y349948D01*
X317749Y350159D01*
X317707Y350230D01*
X317679Y350300D01*
X317665Y350343D01*
Y350357D01*
X317594Y350625D01*
X317566Y350752D01*
X317552Y350864D01*
X317538Y350963D01*
Y351034D01*
Y351090D01*
Y351104D01*
Y351287D01*
X317566Y351442D01*
X317594Y351597D01*
X317622Y351724D01*
X317651Y351837D01*
X317679Y351922D01*
X317693Y351978D01*
X317707Y351992D01*
X317778Y352133D01*
X317848Y352274D01*
X317933Y352387D01*
X318017Y352486D01*
X318088Y352570D01*
X318144Y352626D01*
X318186Y352669D01*
X318200Y352683D01*
X318327Y352781D01*
X318468Y352866D01*
X318609Y352951D01*
X318750Y353007D01*
X318863Y353049D01*
X318962Y353092D01*
X319018Y353120D01*
X319046D01*
X319244Y353176D01*
X319455Y353218D01*
X319667Y353247D01*
X319864Y353275D01*
X320033D01*
X320160Y353289D01*
X322500D01*
Y345000D01*
D02*
G37*
G36*
X163836Y427500D02*
X162169D01*
X158873Y435869D01*
X160466D01*
X162502Y430352D01*
X162965Y428963D01*
X163410Y430314D01*
X165465Y435869D01*
X167113D01*
X163836Y427500D01*
D02*
G37*
G36*
X307938Y307500D02*
X305880D01*
X305612Y307528D01*
X305372Y307542D01*
X305161Y307570D01*
X304991Y307599D01*
X304865Y307613D01*
X304780Y307641D01*
X304752D01*
X304526Y307697D01*
X304315Y307768D01*
X304132Y307838D01*
X303976Y307909D01*
X303850Y307965D01*
X303751Y308022D01*
X303680Y308050D01*
X303666Y308064D01*
X303497Y308163D01*
X303342Y308275D01*
X303201Y308388D01*
X303088Y308487D01*
X302990Y308571D01*
X302919Y308656D01*
X302877Y308698D01*
X302863Y308712D01*
X302637Y309008D01*
X302553Y309163D01*
X302482Y309290D01*
X302426Y309403D01*
X302384Y309488D01*
X302355Y309558D01*
X302341Y309572D01*
X302214Y309925D01*
X302158Y310094D01*
X302116Y310249D01*
X302087Y310390D01*
X302059Y310489D01*
X302045Y310559D01*
Y310587D01*
X301989Y310996D01*
X301975Y311193D01*
X301961Y311363D01*
X301947Y311518D01*
Y311630D01*
Y311701D01*
Y311729D01*
X301961Y312110D01*
X301989Y312448D01*
X302031Y312772D01*
X302102Y313082D01*
X302172Y313350D01*
X302243Y313604D01*
X302341Y313829D01*
X302426Y314027D01*
X302510Y314210D01*
X302595Y314365D01*
X302680Y314492D01*
X302750Y314605D01*
X302821Y314690D01*
X302863Y314746D01*
X302891Y314774D01*
X302905Y314788D01*
X303088Y314971D01*
X303300Y315112D01*
X303525Y315253D01*
X303765Y315366D01*
X304005Y315465D01*
X304244Y315549D01*
X304484Y315606D01*
X304710Y315662D01*
X304935Y315704D01*
X305147Y315733D01*
X305330Y315761D01*
X305485Y315775D01*
X305626Y315789D01*
X307938D01*
Y307500D01*
D02*
G37*
G36*
X117078Y317330D02*
X115160D01*
Y310959D01*
X117078D01*
Y310000D01*
X112101D01*
Y310959D01*
X114018D01*
Y317330D01*
X112101D01*
Y318289D01*
X117078D01*
Y317330D01*
D02*
G37*
G36*
X185000Y427500D02*
X183519D01*
Y432351D01*
X182834D01*
X182593Y432333D01*
X182408Y432314D01*
X182334Y432296D01*
X182278D01*
X182260Y432277D01*
X182241D01*
X182056Y432203D01*
X181908Y432148D01*
X181797Y432074D01*
X181778Y432055D01*
X181760D01*
X181593Y431926D01*
X181463Y431796D01*
X181389Y431685D01*
X181352Y431648D01*
Y431629D01*
X181204Y431426D01*
X181075Y431203D01*
X181038Y431111D01*
X181000Y431055D01*
X180963Y431000D01*
Y430981D01*
X179334Y427500D01*
X177649D01*
X179389Y431074D01*
X179519Y431296D01*
X179630Y431518D01*
X179741Y431685D01*
X179852Y431833D01*
X179926Y431963D01*
X180000Y432037D01*
X180038Y432092D01*
X180056Y432111D01*
X180186Y432259D01*
X180315Y432370D01*
X180445Y432481D01*
X180556Y432555D01*
X180667Y432611D01*
X180760Y432648D01*
X180815Y432685D01*
X180834D01*
X180630Y432740D01*
X180426Y432796D01*
X180260Y432870D01*
X180112Y432925D01*
X180000Y432981D01*
X179908Y433036D01*
X179852Y433055D01*
X179834Y433074D01*
X179538Y433296D01*
X179408Y433407D01*
X179297Y433499D01*
X179204Y433592D01*
X179149Y433666D01*
X179112Y433703D01*
X179093Y433722D01*
X178890Y433999D01*
X178760Y434277D01*
X178704Y434370D01*
X178667Y434462D01*
X178649Y434518D01*
Y434536D01*
X178556Y434888D01*
X178519Y435055D01*
X178501Y435203D01*
X178482Y435332D01*
Y435425D01*
Y435499D01*
Y435518D01*
Y435758D01*
X178519Y435962D01*
X178556Y436166D01*
X178593Y436332D01*
X178630Y436481D01*
X178667Y436592D01*
X178686Y436666D01*
X178704Y436684D01*
X178797Y436869D01*
X178890Y437055D01*
X179001Y437203D01*
X179112Y437332D01*
X179204Y437443D01*
X179278Y437518D01*
X179334Y437573D01*
X179352Y437592D01*
X179519Y437721D01*
X179704Y437832D01*
X179889Y437943D01*
X180075Y438017D01*
X180223Y438073D01*
X180352Y438129D01*
X180426Y438166D01*
X180463D01*
X180723Y438240D01*
X181000Y438295D01*
X181278Y438332D01*
X181537Y438369D01*
X181760D01*
X181926Y438388D01*
X185000D01*
Y427500D01*
D02*
G37*
G36*
X125000Y310000D02*
X123929D01*
X123788Y315089D01*
X123759Y317147D01*
X123379Y315878D01*
X122209Y312707D01*
X121433D01*
X120207Y316005D01*
X119812Y317147D01*
X119742Y315174D01*
X119573Y310000D01*
X118473D01*
X118868Y318289D01*
X120249D01*
X121433Y315159D01*
X121772Y314102D01*
X122138Y315159D01*
X123252Y318289D01*
X124591D01*
X125000Y310000D01*
D02*
G37*
G36*
X107421Y318402D02*
X107689Y318388D01*
X107928Y318360D01*
X108140Y318317D01*
X108309Y318275D01*
X108422Y318247D01*
X108506Y318233D01*
X108535Y318218D01*
X108746Y318134D01*
X108929Y318049D01*
X109099Y317965D01*
X109226Y317880D01*
X109338Y317810D01*
X109423Y317753D01*
X109479Y317711D01*
X109493Y317697D01*
X109620Y317570D01*
X109733Y317443D01*
X109832Y317316D01*
X109902Y317204D01*
X109958Y317105D01*
X110015Y317034D01*
X110029Y316978D01*
X110043Y316964D01*
X110099Y316809D01*
X110142Y316654D01*
X110170Y316513D01*
X110184Y316386D01*
X110198Y316273D01*
X110212Y316189D01*
Y316132D01*
Y316118D01*
X110198Y315949D01*
X110184Y315780D01*
X110156Y315639D01*
X110114Y315512D01*
X110085Y315413D01*
X110057Y315343D01*
X110043Y315286D01*
X110029Y315272D01*
X109874Y315033D01*
X109789Y314920D01*
X109719Y314835D01*
X109648Y314751D01*
X109592Y314694D01*
X109564Y314666D01*
X109550Y314652D01*
X109310Y314469D01*
X109183Y314398D01*
X109085Y314328D01*
X108986Y314271D01*
X108915Y314243D01*
X108859Y314215D01*
X108845Y314201D01*
X108549Y314060D01*
X108422Y314004D01*
X108295Y313947D01*
X108196Y313905D01*
X108126Y313863D01*
X108069Y313848D01*
X108055Y313834D01*
X107759Y313722D01*
X107618Y313665D01*
X107506Y313623D01*
X107393Y313581D01*
X107322Y313552D01*
X107266Y313538D01*
X107252Y313524D01*
X106970Y313397D01*
X106857Y313341D01*
X106758Y313285D01*
X106674Y313242D01*
X106617Y313200D01*
X106575Y313186D01*
X106561Y313172D01*
X106350Y313031D01*
X106265Y312960D01*
X106195Y312890D01*
X106138Y312833D01*
X106096Y312791D01*
X106082Y312763D01*
X106068Y312749D01*
X105997Y312650D01*
X105955Y312566D01*
X105899Y312382D01*
X105885Y312298D01*
X105870Y312241D01*
Y312199D01*
Y312185D01*
X105885Y311974D01*
X105899Y311875D01*
X105927Y311790D01*
X105941Y311720D01*
X105969Y311663D01*
X105983Y311635D01*
Y311621D01*
X106082Y311452D01*
X106209Y311325D01*
X106265Y311283D01*
X106307Y311241D01*
X106336Y311226D01*
X106350Y311212D01*
X106547Y311114D01*
X106744Y311029D01*
X106843Y311015D01*
X106899Y310987D01*
X106956Y310973D01*
X106970D01*
X107125Y310944D01*
X107280Y310930D01*
X107435Y310902D01*
X107576D01*
X107703Y310888D01*
X108182D01*
X108436Y310902D01*
X108662Y310916D01*
X108859Y310944D01*
X109028Y310959D01*
X109155Y310973D01*
X109226Y310987D01*
X109254D01*
X109465Y311029D01*
X109663Y311071D01*
X109846Y311114D01*
X110001Y311170D01*
X110128Y311212D01*
X110226Y311241D01*
X110283Y311255D01*
X110311Y311269D01*
Y310183D01*
X110142Y310141D01*
X109987Y310099D01*
X109930Y310085D01*
X109874Y310070D01*
X109846Y310056D01*
X109832D01*
X109634Y310028D01*
X109451Y310000D01*
X109381D01*
X109324Y309986D01*
X109268D01*
X109042Y309958D01*
X108845Y309930D01*
X108760D01*
X108704Y309915D01*
X108647D01*
X108394Y309901D01*
X108295D01*
X108182Y309887D01*
X107717D01*
X107463Y309915D01*
X107238Y309930D01*
X107040Y309958D01*
X106871Y309986D01*
X106744Y310000D01*
X106674Y310028D01*
X106646D01*
X106420Y310085D01*
X106223Y310155D01*
X106054Y310226D01*
X105899Y310296D01*
X105786Y310366D01*
X105687Y310423D01*
X105631Y310451D01*
X105617Y310465D01*
X105462Y310578D01*
X105321Y310705D01*
X105208Y310832D01*
X105109Y310944D01*
X105039Y311043D01*
X104982Y311128D01*
X104954Y311184D01*
X104940Y311198D01*
X104855Y311367D01*
X104799Y311551D01*
X104743Y311734D01*
X104714Y311889D01*
X104700Y312030D01*
X104686Y312143D01*
Y312213D01*
Y312241D01*
X104700Y312425D01*
X104714Y312580D01*
X104743Y312735D01*
X104785Y312862D01*
X104827Y312960D01*
X104855Y313031D01*
X104869Y313087D01*
X104884Y313101D01*
X105039Y313355D01*
X105123Y313468D01*
X105194Y313552D01*
X105264Y313637D01*
X105321Y313693D01*
X105363Y313722D01*
X105377Y313736D01*
X105603Y313919D01*
X105828Y314074D01*
X105927Y314130D01*
X105997Y314173D01*
X106054Y314187D01*
X106068Y314201D01*
X106364Y314342D01*
X106491Y314398D01*
X106617Y314455D01*
X106716Y314497D01*
X106801Y314525D01*
X106857Y314553D01*
X106871D01*
X107167Y314680D01*
X107294Y314737D01*
X107407Y314779D01*
X107520Y314821D01*
X107590Y314849D01*
X107647Y314878D01*
X107661D01*
X107943Y314990D01*
X108055Y315047D01*
X108154Y315103D01*
X108253Y315145D01*
X108309Y315188D01*
X108351Y315202D01*
X108365Y315216D01*
X108563Y315371D01*
X108718Y315512D01*
X108774Y315568D01*
X108817Y315611D01*
X108831Y315639D01*
X108845Y315653D01*
X108901Y315752D01*
X108944Y315850D01*
X109000Y316033D01*
X109014Y316118D01*
X109028Y316175D01*
Y316217D01*
Y316231D01*
X109014Y316428D01*
X108958Y316597D01*
X108887Y316752D01*
X108803Y316879D01*
X108718Y316978D01*
X108647Y317048D01*
X108591Y317091D01*
X108577Y317105D01*
X108380Y317218D01*
X108168Y317302D01*
X107928Y317359D01*
X107689Y317401D01*
X107477Y317429D01*
X107308Y317443D01*
X107153D01*
X106815Y317429D01*
X106646Y317415D01*
X106505Y317401D01*
X106378Y317387D01*
X106293Y317373D01*
X106223Y317359D01*
X106209D01*
X105842Y317302D01*
X105673Y317260D01*
X105532Y317232D01*
X105405Y317204D01*
X105307Y317190D01*
X105250Y317161D01*
X105222D01*
Y318176D01*
X105377Y318204D01*
X105532Y318233D01*
X105588Y318247D01*
X105645Y318261D01*
X105687D01*
X105870Y318289D01*
X106025Y318317D01*
X106082D01*
X106138Y318331D01*
X106180D01*
X106364Y318360D01*
X106519Y318374D01*
X106589Y318388D01*
X106674D01*
X106843Y318402D01*
X106984Y318416D01*
X107125D01*
X107421Y318402D01*
D02*
G37*
G36*
X114582Y355888D02*
X114878Y355859D01*
X115146Y355803D01*
X115372Y355747D01*
X115555Y355690D01*
X115696Y355634D01*
X115752Y355620D01*
X115795Y355606D01*
X115809Y355592D01*
X115823D01*
X116062Y355465D01*
X116288Y355324D01*
X116485Y355183D01*
X116655Y355042D01*
X116796Y354915D01*
X116908Y354816D01*
X116965Y354746D01*
X116993Y354718D01*
X117162Y354506D01*
X117303Y354267D01*
X117430Y354041D01*
X117543Y353829D01*
X117613Y353632D01*
X117684Y353491D01*
X117698Y353435D01*
X117712Y353392D01*
X117726Y353364D01*
Y353350D01*
X117810Y353040D01*
X117867Y352730D01*
X117923Y352420D01*
X117951Y352152D01*
X117966Y351912D01*
Y351800D01*
X117980Y351715D01*
Y351645D01*
Y351588D01*
Y351560D01*
Y351546D01*
X117966Y351179D01*
X117937Y350827D01*
X117895Y350503D01*
X117839Y350192D01*
X117768Y349925D01*
X117684Y349671D01*
X117599Y349431D01*
X117514Y349234D01*
X117430Y349051D01*
X117345Y348881D01*
X117261Y348755D01*
X117190Y348642D01*
X117134Y348557D01*
X117092Y348501D01*
X117063Y348459D01*
X117049Y348445D01*
X116866Y348261D01*
X116655Y348106D01*
X116443Y347965D01*
X116232Y347838D01*
X116006Y347740D01*
X115781Y347655D01*
X115555Y347585D01*
X115344Y347528D01*
X115132Y347486D01*
X114949Y347458D01*
X114780Y347430D01*
X114639Y347415D01*
X114512D01*
X114413Y347401D01*
X114343D01*
X113934Y347415D01*
X113553Y347472D01*
X113201Y347528D01*
X112877Y347613D01*
X112736Y347641D01*
X112623Y347683D01*
X112510Y347711D01*
X112411Y347754D01*
X112341Y347768D01*
X112284Y347796D01*
X112256Y347810D01*
X112242D01*
Y348881D01*
X112595Y348726D01*
X112750Y348670D01*
X112891Y348628D01*
X113018Y348586D01*
X113116Y348557D01*
X113173Y348529D01*
X113201D01*
X113567Y348459D01*
X113736Y348445D01*
X113892Y348430D01*
X114018Y348416D01*
X114216D01*
X114441Y348430D01*
X114667Y348459D01*
X114864Y348487D01*
X115048Y348543D01*
X115217Y348600D01*
X115386Y348670D01*
X115527Y348755D01*
X115654Y348825D01*
X115766Y348896D01*
X115865Y348980D01*
X115950Y349051D01*
X116006Y349107D01*
X116062Y349163D01*
X116105Y349206D01*
X116119Y349220D01*
X116133Y349234D01*
X116246Y349403D01*
X116344Y349572D01*
X116514Y349953D01*
X116626Y350362D01*
X116697Y350756D01*
X116725Y350940D01*
X116753Y351109D01*
X116767Y351264D01*
Y351391D01*
X116782Y351503D01*
Y351588D01*
Y351645D01*
Y351659D01*
X116767Y351940D01*
X116753Y352194D01*
X116725Y352420D01*
X116697Y352617D01*
X116669Y352786D01*
X116641Y352913D01*
X116612Y352984D01*
Y353012D01*
X116542Y353223D01*
X116457Y353421D01*
X116373Y353604D01*
X116288Y353745D01*
X116218Y353872D01*
X116161Y353956D01*
X116119Y354013D01*
X116105Y354027D01*
X115978Y354182D01*
X115837Y354309D01*
X115696Y354422D01*
X115569Y354506D01*
X115470Y354577D01*
X115372Y354633D01*
X115315Y354661D01*
X115301Y354675D01*
X115118Y354746D01*
X114935Y354802D01*
X114752Y354845D01*
X114596Y354873D01*
X114455Y354887D01*
X114343Y354901D01*
X114032D01*
X113835Y354873D01*
X113652Y354859D01*
X113497Y354830D01*
X113370Y354802D01*
X113271Y354788D01*
X113215Y354760D01*
X113187D01*
X112834Y354647D01*
X112679Y354591D01*
X112538Y354534D01*
X112411Y354478D01*
X112327Y354436D01*
X112256Y354408D01*
X112242Y354393D01*
Y355507D01*
X112595Y355634D01*
X112750Y355690D01*
X112891Y355733D01*
X113018Y355761D01*
X113116Y355789D01*
X113173Y355803D01*
X113201D01*
X113581Y355859D01*
X113751Y355874D01*
X113920Y355888D01*
X114061Y355902D01*
X114272D01*
X114582Y355888D01*
D02*
G37*
G36*
X110424Y347500D02*
X109296D01*
Y351560D01*
X106180Y347500D01*
X104771D01*
X108196Y351842D01*
X104926Y355789D01*
X106251D01*
X109296Y351926D01*
Y355789D01*
X110424D01*
Y347500D01*
D02*
G37*
G36*
X100485Y318402D02*
X100711Y318374D01*
X100936Y318331D01*
X101120Y318289D01*
X101275Y318233D01*
X101402Y318190D01*
X101472Y318162D01*
X101500Y318148D01*
X101712Y318035D01*
X101909Y317922D01*
X102092Y317782D01*
X102247Y317655D01*
X102374Y317542D01*
X102459Y317443D01*
X102529Y317387D01*
X102543Y317359D01*
X102698Y317147D01*
X102839Y316936D01*
X102966Y316710D01*
X103065Y316499D01*
X103150Y316301D01*
X103206Y316160D01*
X103220Y316104D01*
X103234Y316062D01*
X103248Y316033D01*
Y316019D01*
X103333Y315709D01*
X103389Y315371D01*
X103446Y315061D01*
X103474Y314751D01*
X103488Y314497D01*
Y314384D01*
X103502Y314286D01*
Y314215D01*
Y314144D01*
Y314116D01*
Y314102D01*
X103488Y313750D01*
X103474Y313412D01*
X103446Y313101D01*
X103403Y312848D01*
X103375Y312622D01*
X103361Y312537D01*
X103347Y312467D01*
X103333Y312411D01*
Y312368D01*
X103319Y312340D01*
Y312326D01*
X103234Y312044D01*
X103150Y311790D01*
X103051Y311565D01*
X102966Y311367D01*
X102882Y311212D01*
X102811Y311100D01*
X102755Y311029D01*
X102741Y311001D01*
X102586Y310818D01*
X102417Y310648D01*
X102261Y310508D01*
X102092Y310381D01*
X101966Y310296D01*
X101853Y310226D01*
X101782Y310183D01*
X101754Y310169D01*
X101529Y310070D01*
X101289Y310000D01*
X101049Y309958D01*
X100838Y309930D01*
X100640Y309901D01*
X100499Y309887D01*
X100358D01*
X100119Y309901D01*
X99879Y309930D01*
X99668Y309972D01*
X99484Y310014D01*
X99329Y310056D01*
X99202Y310099D01*
X99132Y310127D01*
X99104Y310141D01*
X98878Y310254D01*
X98681Y310366D01*
X98512Y310493D01*
X98357Y310620D01*
X98230Y310733D01*
X98131Y310832D01*
X98075Y310888D01*
X98061Y310916D01*
X97906Y311128D01*
X97751Y311353D01*
X97638Y311579D01*
X97525Y311790D01*
X97455Y311988D01*
X97384Y312129D01*
X97370Y312185D01*
X97356Y312227D01*
X97342Y312255D01*
Y312270D01*
X97257Y312594D01*
X97187Y312918D01*
X97144Y313242D01*
X97102Y313538D01*
X97088Y313806D01*
Y313919D01*
X97074Y314018D01*
Y314088D01*
Y314159D01*
Y314187D01*
Y314201D01*
X97088Y314553D01*
X97102Y314892D01*
X97130Y315188D01*
X97172Y315441D01*
X97215Y315653D01*
X97229Y315737D01*
X97243Y315808D01*
X97257Y315878D01*
Y315921D01*
X97271Y315935D01*
Y315949D01*
X97356Y316231D01*
X97440Y316485D01*
X97539Y316710D01*
X97638Y316908D01*
X97722Y317063D01*
X97793Y317175D01*
X97849Y317246D01*
X97863Y317274D01*
X98018Y317471D01*
X98188Y317641D01*
X98343Y317782D01*
X98498Y317908D01*
X98639Y317993D01*
X98751Y318064D01*
X98822Y318106D01*
X98850Y318120D01*
X99076Y318218D01*
X99315Y318289D01*
X99541Y318345D01*
X99766Y318374D01*
X99950Y318402D01*
X100105Y318416D01*
X100232D01*
X100485Y318402D01*
D02*
G37*
G36*
X106758Y390888D02*
X107055Y390859D01*
X107322Y390803D01*
X107548Y390747D01*
X107731Y390690D01*
X107872Y390634D01*
X107928Y390620D01*
X107971Y390606D01*
X107985Y390592D01*
X107999D01*
X108239Y390465D01*
X108464Y390324D01*
X108662Y390183D01*
X108831Y390042D01*
X108972Y389915D01*
X109085Y389816D01*
X109141Y389746D01*
X109169Y389718D01*
X109338Y389506D01*
X109479Y389267D01*
X109606Y389041D01*
X109719Y388829D01*
X109789Y388632D01*
X109860Y388491D01*
X109874Y388435D01*
X109888Y388392D01*
X109902Y388364D01*
Y388350D01*
X109987Y388040D01*
X110043Y387730D01*
X110099Y387420D01*
X110128Y387152D01*
X110142Y386912D01*
Y386800D01*
X110156Y386715D01*
Y386645D01*
Y386588D01*
Y386560D01*
Y386546D01*
X110142Y386179D01*
X110114Y385827D01*
X110071Y385503D01*
X110015Y385192D01*
X109944Y384925D01*
X109860Y384671D01*
X109775Y384431D01*
X109691Y384234D01*
X109606Y384051D01*
X109522Y383881D01*
X109437Y383755D01*
X109366Y383642D01*
X109310Y383557D01*
X109268Y383501D01*
X109240Y383459D01*
X109226Y383445D01*
X109042Y383261D01*
X108831Y383106D01*
X108619Y382965D01*
X108408Y382838D01*
X108182Y382740D01*
X107957Y382655D01*
X107731Y382585D01*
X107520Y382528D01*
X107308Y382486D01*
X107125Y382458D01*
X106956Y382430D01*
X106815Y382415D01*
X106688D01*
X106589Y382401D01*
X106519D01*
X106110Y382415D01*
X105729Y382472D01*
X105377Y382528D01*
X105053Y382613D01*
X104912Y382641D01*
X104799Y382683D01*
X104686Y382711D01*
X104587Y382754D01*
X104517Y382768D01*
X104461Y382796D01*
X104432Y382810D01*
X104418D01*
Y383881D01*
X104771Y383726D01*
X104926Y383670D01*
X105067Y383628D01*
X105194Y383586D01*
X105292Y383557D01*
X105349Y383529D01*
X105377D01*
X105744Y383459D01*
X105913Y383445D01*
X106068Y383430D01*
X106195Y383416D01*
X106392D01*
X106617Y383430D01*
X106843Y383459D01*
X107040Y383487D01*
X107224Y383543D01*
X107393Y383600D01*
X107562Y383670D01*
X107703Y383755D01*
X107830Y383825D01*
X107943Y383896D01*
X108041Y383980D01*
X108126Y384051D01*
X108182Y384107D01*
X108239Y384163D01*
X108281Y384206D01*
X108295Y384220D01*
X108309Y384234D01*
X108422Y384403D01*
X108521Y384572D01*
X108690Y384953D01*
X108803Y385362D01*
X108873Y385756D01*
X108901Y385940D01*
X108929Y386109D01*
X108944Y386264D01*
Y386391D01*
X108958Y386503D01*
Y386588D01*
Y386645D01*
Y386659D01*
X108944Y386941D01*
X108929Y387194D01*
X108901Y387420D01*
X108873Y387617D01*
X108845Y387786D01*
X108817Y387913D01*
X108788Y387984D01*
Y388012D01*
X108718Y388223D01*
X108633Y388421D01*
X108549Y388604D01*
X108464Y388745D01*
X108394Y388872D01*
X108337Y388956D01*
X108295Y389013D01*
X108281Y389027D01*
X108154Y389182D01*
X108013Y389309D01*
X107872Y389422D01*
X107745Y389506D01*
X107647Y389577D01*
X107548Y389633D01*
X107492Y389661D01*
X107477Y389675D01*
X107294Y389746D01*
X107111Y389802D01*
X106928Y389845D01*
X106773Y389873D01*
X106632Y389887D01*
X106519Y389901D01*
X106209D01*
X106011Y389873D01*
X105828Y389859D01*
X105673Y389830D01*
X105546Y389802D01*
X105448Y389788D01*
X105391Y389760D01*
X105363D01*
X105010Y389647D01*
X104855Y389591D01*
X104714Y389534D01*
X104587Y389478D01*
X104503Y389436D01*
X104432Y389408D01*
X104418Y389393D01*
Y390507D01*
X104771Y390634D01*
X104926Y390690D01*
X105067Y390733D01*
X105194Y390761D01*
X105292Y390789D01*
X105349Y390803D01*
X105377D01*
X105758Y390859D01*
X105927Y390874D01*
X106096Y390888D01*
X106237Y390902D01*
X106448D01*
X106758Y390888D01*
D02*
G37*
G36*
X113906D02*
X114202Y390859D01*
X114469Y390803D01*
X114695Y390747D01*
X114878Y390690D01*
X115019Y390634D01*
X115076Y390620D01*
X115118Y390606D01*
X115132Y390592D01*
X115146D01*
X115386Y390465D01*
X115611Y390324D01*
X115809Y390183D01*
X115978Y390042D01*
X116119Y389915D01*
X116232Y389816D01*
X116288Y389746D01*
X116316Y389718D01*
X116485Y389506D01*
X116626Y389267D01*
X116753Y389041D01*
X116866Y388829D01*
X116937Y388632D01*
X117007Y388491D01*
X117021Y388435D01*
X117035Y388392D01*
X117049Y388364D01*
Y388350D01*
X117134Y388040D01*
X117190Y387730D01*
X117247Y387420D01*
X117275Y387152D01*
X117289Y386912D01*
Y386800D01*
X117303Y386715D01*
Y386645D01*
Y386588D01*
Y386560D01*
Y386546D01*
X117289Y386179D01*
X117261Y385827D01*
X117219Y385503D01*
X117162Y385192D01*
X117092Y384925D01*
X117007Y384671D01*
X116922Y384431D01*
X116838Y384234D01*
X116753Y384051D01*
X116669Y383881D01*
X116584Y383755D01*
X116514Y383642D01*
X116457Y383557D01*
X116415Y383501D01*
X116387Y383459D01*
X116373Y383445D01*
X116189Y383261D01*
X115978Y383106D01*
X115766Y382965D01*
X115555Y382838D01*
X115330Y382740D01*
X115104Y382655D01*
X114878Y382585D01*
X114667Y382528D01*
X114455Y382486D01*
X114272Y382458D01*
X114103Y382430D01*
X113962Y382415D01*
X113835D01*
X113736Y382401D01*
X113666D01*
X113257Y382415D01*
X112877Y382472D01*
X112524Y382528D01*
X112200Y382613D01*
X112059Y382641D01*
X111946Y382683D01*
X111833Y382711D01*
X111735Y382754D01*
X111664Y382768D01*
X111608Y382796D01*
X111580Y382810D01*
X111566D01*
Y383881D01*
X111918Y383726D01*
X112073Y383670D01*
X112214Y383628D01*
X112341Y383586D01*
X112440Y383557D01*
X112496Y383529D01*
X112524D01*
X112891Y383459D01*
X113060Y383445D01*
X113215Y383430D01*
X113342Y383416D01*
X113539D01*
X113765Y383430D01*
X113990Y383459D01*
X114188Y383487D01*
X114371Y383543D01*
X114540Y383600D01*
X114709Y383670D01*
X114850Y383755D01*
X114977Y383825D01*
X115090Y383896D01*
X115189Y383980D01*
X115273Y384051D01*
X115330Y384107D01*
X115386Y384163D01*
X115428Y384206D01*
X115442Y384220D01*
X115456Y384234D01*
X115569Y384403D01*
X115668Y384572D01*
X115837Y384953D01*
X115950Y385362D01*
X116020Y385756D01*
X116048Y385940D01*
X116077Y386109D01*
X116091Y386264D01*
Y386391D01*
X116105Y386503D01*
Y386588D01*
Y386645D01*
Y386659D01*
X116091Y386941D01*
X116077Y387194D01*
X116048Y387420D01*
X116020Y387617D01*
X115992Y387786D01*
X115964Y387913D01*
X115936Y387984D01*
Y388012D01*
X115865Y388223D01*
X115781Y388421D01*
X115696Y388604D01*
X115611Y388745D01*
X115541Y388872D01*
X115485Y388956D01*
X115442Y389013D01*
X115428Y389027D01*
X115301Y389182D01*
X115160Y389309D01*
X115019Y389422D01*
X114893Y389506D01*
X114794Y389577D01*
X114695Y389633D01*
X114639Y389661D01*
X114625Y389675D01*
X114441Y389746D01*
X114258Y389802D01*
X114075Y389845D01*
X113920Y389873D01*
X113779Y389887D01*
X113666Y389901D01*
X113356D01*
X113159Y389873D01*
X112975Y389859D01*
X112820Y389830D01*
X112693Y389802D01*
X112595Y389788D01*
X112538Y389760D01*
X112510D01*
X112158Y389647D01*
X112003Y389591D01*
X111862Y389534D01*
X111735Y389478D01*
X111650Y389436D01*
X111580Y389408D01*
X111566Y389393D01*
Y390507D01*
X111918Y390634D01*
X112073Y390690D01*
X112214Y390733D01*
X112341Y390761D01*
X112440Y390789D01*
X112496Y390803D01*
X112524D01*
X112905Y390859D01*
X113074Y390874D01*
X113243Y390888D01*
X113384Y390902D01*
X113596D01*
X113906Y390888D01*
D02*
G37*
G36*
X122251Y382500D02*
X120729D01*
X117909Y390789D01*
X119122D01*
X120912Y385192D01*
X121433Y383557D01*
X121941Y385192D01*
X123717Y390789D01*
X125000D01*
X122251Y382500D01*
D02*
G37*
G36*
X195775Y415000D02*
X194676D01*
Y419215D01*
X194563Y419356D01*
X194450Y419469D01*
X194352Y419581D01*
X194267Y419680D01*
X194210Y419751D01*
X194154Y419807D01*
X194126Y419835D01*
X194112Y419849D01*
X193929Y420019D01*
X193788Y420145D01*
X193731Y420188D01*
X193689Y420216D01*
X193675Y420244D01*
X193661D01*
X193506Y420343D01*
X193379Y420413D01*
X193322Y420427D01*
X193280Y420442D01*
X193266Y420456D01*
X193252D01*
X193097Y420498D01*
X192970Y420512D01*
X192914Y420526D01*
X192829D01*
X192646Y420512D01*
X192491Y420470D01*
X192350Y420413D01*
X192237Y420343D01*
X192152Y420272D01*
X192096Y420216D01*
X192054Y420174D01*
X192040Y420159D01*
X191941Y420004D01*
X191870Y419835D01*
X191828Y419652D01*
X191786Y419469D01*
X191772Y419314D01*
X191758Y419187D01*
Y419088D01*
Y419074D01*
Y419060D01*
Y415000D01*
X190658D01*
Y419145D01*
X190686Y419553D01*
X190743Y419906D01*
X190827Y420216D01*
X190912Y420456D01*
X191010Y420653D01*
X191095Y420780D01*
X191151Y420864D01*
X191180Y420893D01*
X191391Y421090D01*
X191631Y421231D01*
X191870Y421344D01*
X192110Y421414D01*
X192336Y421456D01*
X192420Y421470D01*
X192505D01*
X192561Y421485D01*
X192660D01*
X192857Y421470D01*
X193040Y421456D01*
X193111Y421442D01*
X193167Y421428D01*
X193195Y421414D01*
X193210D01*
X193393Y421358D01*
X193562Y421301D01*
X193618Y421273D01*
X193675Y421259D01*
X193703Y421231D01*
X193717D01*
X193900Y421118D01*
X194055Y421005D01*
X194112Y420963D01*
X194168Y420921D01*
X194196Y420893D01*
X194210Y420878D01*
X194394Y420709D01*
X194563Y420540D01*
X194619Y420470D01*
X194676Y420413D01*
X194704Y420371D01*
X194718Y420357D01*
X194676Y421358D01*
Y423966D01*
X195775D01*
Y415000D01*
D02*
G37*
G36*
X160180Y421950D02*
X159786Y421005D01*
X157798Y422077D01*
Y416029D01*
X159927D01*
Y415000D01*
X154725D01*
Y416029D01*
X156572D01*
Y423331D01*
X157558D01*
X160180Y421950D01*
D02*
G37*
G36*
X172191Y423402D02*
X172459Y423374D01*
X172698Y423317D01*
X172910Y423261D01*
X173079Y423204D01*
X173206Y423148D01*
X173291Y423120D01*
X173305Y423106D01*
X173319D01*
X173544Y422993D01*
X173742Y422852D01*
X173925Y422725D01*
X174080Y422598D01*
X174207Y422486D01*
X174305Y422401D01*
X174362Y422345D01*
X174390Y422316D01*
X173784Y421597D01*
X173643Y421724D01*
X173516Y421851D01*
X173375Y421950D01*
X173262Y422034D01*
X173150Y422105D01*
X173065Y422161D01*
X173009Y422189D01*
X172994Y422204D01*
X172825Y422288D01*
X172656Y422345D01*
X172501Y422387D01*
X172346Y422415D01*
X172219Y422429D01*
X172120Y422443D01*
X171895D01*
X171768Y422429D01*
X171669Y422401D01*
X171571Y422387D01*
X171486Y422359D01*
X171430Y422330D01*
X171402Y422316D01*
X171387D01*
X171204Y422204D01*
X171049Y422105D01*
X171007Y422048D01*
X170965Y422020D01*
X170950Y421992D01*
X170936Y421978D01*
X170824Y421809D01*
X170739Y421654D01*
X170711Y421583D01*
X170697Y421527D01*
X170683Y421499D01*
Y421485D01*
X170626Y421287D01*
X170612Y421090D01*
X170598Y421019D01*
Y420963D01*
Y420921D01*
Y420907D01*
X170612Y420681D01*
X170626Y420568D01*
Y420484D01*
X170640Y420413D01*
X170654Y420357D01*
X170669Y420315D01*
Y420300D01*
X170725Y420089D01*
X170809Y419906D01*
X170852Y419821D01*
X170894Y419765D01*
X170908Y419723D01*
X170922Y419708D01*
X171077Y419469D01*
X171162Y419356D01*
X171246Y419243D01*
X171317Y419159D01*
X171373Y419088D01*
X171416Y419032D01*
X171430Y419018D01*
X171557Y418877D01*
X171698Y418722D01*
X171838Y418567D01*
X171980Y418426D01*
X172106Y418299D01*
X172205Y418200D01*
X172262Y418144D01*
X172290Y418115D01*
X174418Y415987D01*
Y415000D01*
X168949D01*
Y416057D01*
X172980D01*
X171486Y417523D01*
X171289Y417707D01*
X171120Y417890D01*
X170965Y418045D01*
X170824Y418186D01*
X170725Y418299D01*
X170640Y418383D01*
X170584Y418440D01*
X170570Y418454D01*
X170429Y418609D01*
X170302Y418764D01*
X170189Y418905D01*
X170091Y419032D01*
X170020Y419145D01*
X169964Y419215D01*
X169935Y419271D01*
X169921Y419286D01*
X169752Y419581D01*
X169682Y419723D01*
X169625Y419849D01*
X169583Y419948D01*
X169555Y420033D01*
X169527Y420089D01*
Y420103D01*
X169456Y420413D01*
X169428Y420568D01*
X169414Y420695D01*
X169400Y420822D01*
Y420907D01*
Y420977D01*
Y420991D01*
X169414Y421203D01*
X169428Y421386D01*
X169456Y421555D01*
X169484Y421710D01*
X169527Y421837D01*
X169555Y421922D01*
X169569Y421992D01*
X169583Y422006D01*
X169653Y422175D01*
X169738Y422316D01*
X169823Y422443D01*
X169907Y422556D01*
X169992Y422641D01*
X170048Y422711D01*
X170091Y422753D01*
X170105Y422767D01*
X170358Y422979D01*
X170485Y423049D01*
X170612Y423120D01*
X170725Y423176D01*
X170809Y423219D01*
X170866Y423233D01*
X170880Y423247D01*
X171049Y423303D01*
X171232Y423345D01*
X171402Y423374D01*
X171557Y423402D01*
X171698D01*
X171796Y423416D01*
X171895D01*
X172191Y423402D01*
D02*
G37*
G36*
X309921Y393402D02*
X310189Y393388D01*
X310429Y393359D01*
X310640Y393317D01*
X310809Y393275D01*
X310922Y393247D01*
X311007Y393233D01*
X311035Y393218D01*
X311246Y393134D01*
X311429Y393049D01*
X311599Y392965D01*
X311726Y392880D01*
X311838Y392810D01*
X311923Y392753D01*
X311979Y392711D01*
X311993Y392697D01*
X312120Y392570D01*
X312233Y392443D01*
X312332Y392316D01*
X312402Y392204D01*
X312458Y392105D01*
X312515Y392034D01*
X312529Y391978D01*
X312543Y391964D01*
X312600Y391809D01*
X312642Y391654D01*
X312670Y391513D01*
X312684Y391386D01*
X312698Y391273D01*
X312712Y391189D01*
Y391132D01*
Y391118D01*
X312698Y390949D01*
X312684Y390780D01*
X312656Y390639D01*
X312614Y390512D01*
X312585Y390413D01*
X312557Y390343D01*
X312543Y390286D01*
X312529Y390272D01*
X312374Y390033D01*
X312289Y389920D01*
X312219Y389835D01*
X312148Y389751D01*
X312092Y389694D01*
X312064Y389666D01*
X312050Y389652D01*
X311810Y389469D01*
X311683Y389398D01*
X311584Y389328D01*
X311486Y389271D01*
X311415Y389243D01*
X311359Y389215D01*
X311345Y389201D01*
X311049Y389060D01*
X310922Y389003D01*
X310795Y388947D01*
X310696Y388905D01*
X310626Y388863D01*
X310569Y388848D01*
X310555Y388834D01*
X310259Y388722D01*
X310118Y388665D01*
X310006Y388623D01*
X309893Y388581D01*
X309822Y388552D01*
X309766Y388538D01*
X309752Y388524D01*
X309470Y388397D01*
X309357Y388341D01*
X309258Y388285D01*
X309174Y388242D01*
X309118Y388200D01*
X309075Y388186D01*
X309061Y388172D01*
X308850Y388031D01*
X308765Y387960D01*
X308695Y387890D01*
X308638Y387834D01*
X308596Y387791D01*
X308582Y387763D01*
X308568Y387749D01*
X308497Y387650D01*
X308455Y387566D01*
X308399Y387382D01*
X308384Y387298D01*
X308370Y387241D01*
Y387199D01*
Y387185D01*
X308384Y386974D01*
X308399Y386875D01*
X308427Y386790D01*
X308441Y386720D01*
X308469Y386663D01*
X308483Y386635D01*
Y386621D01*
X308582Y386452D01*
X308709Y386325D01*
X308765Y386283D01*
X308807Y386241D01*
X308836Y386226D01*
X308850Y386212D01*
X309047Y386114D01*
X309244Y386029D01*
X309343Y386015D01*
X309400Y385987D01*
X309456Y385973D01*
X309470D01*
X309625Y385945D01*
X309780Y385930D01*
X309935Y385902D01*
X310076D01*
X310203Y385888D01*
X310682D01*
X310936Y385902D01*
X311162Y385916D01*
X311359Y385945D01*
X311528Y385959D01*
X311655Y385973D01*
X311726Y385987D01*
X311754D01*
X311965Y386029D01*
X312162Y386071D01*
X312346Y386114D01*
X312501Y386170D01*
X312628Y386212D01*
X312726Y386241D01*
X312783Y386255D01*
X312811Y386269D01*
Y385183D01*
X312642Y385141D01*
X312487Y385099D01*
X312430Y385085D01*
X312374Y385070D01*
X312346Y385056D01*
X312332D01*
X312134Y385028D01*
X311951Y385000D01*
X311880D01*
X311824Y384986D01*
X311768D01*
X311542Y384958D01*
X311345Y384930D01*
X311260D01*
X311204Y384915D01*
X311147D01*
X310894Y384901D01*
X310795D01*
X310682Y384887D01*
X310217D01*
X309963Y384915D01*
X309738Y384930D01*
X309540Y384958D01*
X309371Y384986D01*
X309244Y385000D01*
X309174Y385028D01*
X309146D01*
X308920Y385085D01*
X308723Y385155D01*
X308554Y385225D01*
X308399Y385296D01*
X308286Y385367D01*
X308187Y385423D01*
X308131Y385451D01*
X308117Y385465D01*
X307962Y385578D01*
X307821Y385705D01*
X307708Y385832D01*
X307609Y385945D01*
X307539Y386043D01*
X307482Y386128D01*
X307454Y386184D01*
X307440Y386198D01*
X307355Y386367D01*
X307299Y386551D01*
X307243Y386734D01*
X307214Y386889D01*
X307200Y387030D01*
X307186Y387143D01*
Y387213D01*
Y387241D01*
X307200Y387425D01*
X307214Y387580D01*
X307243Y387735D01*
X307285Y387862D01*
X307327Y387960D01*
X307355Y388031D01*
X307369Y388087D01*
X307384Y388101D01*
X307539Y388355D01*
X307623Y388468D01*
X307694Y388552D01*
X307764Y388637D01*
X307821Y388693D01*
X307863Y388722D01*
X307877Y388736D01*
X308102Y388919D01*
X308328Y389074D01*
X308427Y389130D01*
X308497Y389173D01*
X308554Y389187D01*
X308568Y389201D01*
X308864Y389342D01*
X308991Y389398D01*
X309118Y389455D01*
X309216Y389497D01*
X309301Y389525D01*
X309357Y389553D01*
X309371D01*
X309667Y389680D01*
X309794Y389737D01*
X309907Y389779D01*
X310020Y389821D01*
X310090Y389849D01*
X310147Y389878D01*
X310161D01*
X310443Y389990D01*
X310555Y390047D01*
X310654Y390103D01*
X310753Y390145D01*
X310809Y390188D01*
X310851Y390202D01*
X310865Y390216D01*
X311063Y390371D01*
X311218Y390512D01*
X311274Y390568D01*
X311317Y390611D01*
X311331Y390639D01*
X311345Y390653D01*
X311401Y390752D01*
X311444Y390850D01*
X311500Y391034D01*
X311514Y391118D01*
X311528Y391175D01*
Y391217D01*
Y391231D01*
X311514Y391428D01*
X311458Y391597D01*
X311387Y391753D01*
X311303Y391879D01*
X311218Y391978D01*
X311147Y392048D01*
X311091Y392091D01*
X311077Y392105D01*
X310880Y392218D01*
X310668Y392302D01*
X310429Y392359D01*
X310189Y392401D01*
X309977Y392429D01*
X309808Y392443D01*
X309653D01*
X309315Y392429D01*
X309146Y392415D01*
X309005Y392401D01*
X308878Y392387D01*
X308793Y392373D01*
X308723Y392359D01*
X308709D01*
X308342Y392302D01*
X308173Y392260D01*
X308032Y392232D01*
X307905Y392204D01*
X307806Y392189D01*
X307750Y392161D01*
X307722D01*
Y393176D01*
X307877Y393204D01*
X308032Y393233D01*
X308088Y393247D01*
X308145Y393261D01*
X308187D01*
X308370Y393289D01*
X308525Y393317D01*
X308582D01*
X308638Y393331D01*
X308680D01*
X308864Y393359D01*
X309019Y393374D01*
X309089Y393388D01*
X309174D01*
X309343Y393402D01*
X309484Y393416D01*
X309625D01*
X309921Y393402D01*
D02*
G37*
G36*
X327500Y385000D02*
X326429D01*
X326288Y390089D01*
X326259Y392147D01*
X325879Y390878D01*
X324709Y387707D01*
X323933D01*
X322707Y391005D01*
X322312Y392147D01*
X322242Y390174D01*
X322073Y385000D01*
X320973D01*
X321368Y393289D01*
X322749D01*
X323933Y390159D01*
X324272Y389102D01*
X324638Y390159D01*
X325752Y393289D01*
X327091D01*
X327500Y385000D01*
D02*
G37*
G36*
X312843Y353402D02*
X313111Y353388D01*
X313351Y353359D01*
X313563Y353317D01*
X313732Y353275D01*
X313844Y353247D01*
X313929Y353233D01*
X313957Y353218D01*
X314169Y353134D01*
X314352Y353049D01*
X314521Y352965D01*
X314648Y352880D01*
X314761Y352810D01*
X314845Y352753D01*
X314902Y352711D01*
X314916Y352697D01*
X315043Y352570D01*
X315156Y352443D01*
X315254Y352316D01*
X315325Y352204D01*
X315381Y352105D01*
X315437Y352034D01*
X315452Y351978D01*
X315466Y351964D01*
X315522Y351809D01*
X315564Y351654D01*
X315592Y351513D01*
X315607Y351386D01*
X315621Y351273D01*
X315635Y351189D01*
Y351132D01*
Y351118D01*
X315621Y350949D01*
X315607Y350780D01*
X315578Y350639D01*
X315536Y350512D01*
X315508Y350413D01*
X315480Y350343D01*
X315466Y350286D01*
X315452Y350272D01*
X315296Y350033D01*
X315212Y349920D01*
X315141Y349835D01*
X315071Y349751D01*
X315014Y349694D01*
X314986Y349666D01*
X314972Y349652D01*
X314732Y349469D01*
X314606Y349398D01*
X314507Y349328D01*
X314408Y349271D01*
X314338Y349243D01*
X314281Y349215D01*
X314267Y349201D01*
X313971Y349060D01*
X313844Y349003D01*
X313718Y348947D01*
X313619Y348905D01*
X313548Y348863D01*
X313492Y348848D01*
X313478Y348834D01*
X313182Y348722D01*
X313041Y348665D01*
X312928Y348623D01*
X312815Y348581D01*
X312745Y348552D01*
X312689Y348538D01*
X312674Y348524D01*
X312392Y348397D01*
X312280Y348341D01*
X312181Y348285D01*
X312096Y348242D01*
X312040Y348200D01*
X311998Y348186D01*
X311984Y348172D01*
X311772Y348031D01*
X311688Y347960D01*
X311617Y347890D01*
X311561Y347834D01*
X311518Y347791D01*
X311504Y347763D01*
X311490Y347749D01*
X311420Y347650D01*
X311378Y347566D01*
X311321Y347382D01*
X311307Y347298D01*
X311293Y347241D01*
Y347199D01*
Y347185D01*
X311307Y346974D01*
X311321Y346875D01*
X311349Y346790D01*
X311363Y346720D01*
X311392Y346663D01*
X311406Y346635D01*
Y346621D01*
X311504Y346452D01*
X311631Y346325D01*
X311688Y346283D01*
X311730Y346241D01*
X311758Y346226D01*
X311772Y346212D01*
X311970Y346114D01*
X312167Y346029D01*
X312266Y346015D01*
X312322Y345987D01*
X312378Y345973D01*
X312392D01*
X312547Y345945D01*
X312703Y345930D01*
X312858Y345902D01*
X312999D01*
X313125Y345888D01*
X313605D01*
X313859Y345902D01*
X314084Y345916D01*
X314281Y345945D01*
X314451Y345959D01*
X314578Y345973D01*
X314648Y345987D01*
X314676D01*
X314888Y346029D01*
X315085Y346071D01*
X315268Y346114D01*
X315423Y346170D01*
X315550Y346212D01*
X315649Y346241D01*
X315705Y346255D01*
X315733Y346269D01*
Y345183D01*
X315564Y345141D01*
X315409Y345099D01*
X315353Y345085D01*
X315296Y345070D01*
X315268Y345056D01*
X315254D01*
X315057Y345028D01*
X314874Y345000D01*
X314803D01*
X314747Y344986D01*
X314690D01*
X314465Y344958D01*
X314267Y344930D01*
X314183D01*
X314126Y344915D01*
X314070D01*
X313816Y344901D01*
X313718D01*
X313605Y344887D01*
X313140D01*
X312886Y344915D01*
X312660Y344930D01*
X312463Y344958D01*
X312294Y344986D01*
X312167Y345000D01*
X312096Y345028D01*
X312068D01*
X311843Y345085D01*
X311645Y345155D01*
X311476Y345225D01*
X311321Y345296D01*
X311208Y345367D01*
X311110Y345423D01*
X311053Y345451D01*
X311039Y345465D01*
X310884Y345578D01*
X310743Y345705D01*
X310630Y345832D01*
X310532Y345945D01*
X310461Y346043D01*
X310405Y346128D01*
X310377Y346184D01*
X310362Y346198D01*
X310278Y346367D01*
X310222Y346551D01*
X310165Y346734D01*
X310137Y346889D01*
X310123Y347030D01*
X310109Y347143D01*
Y347213D01*
Y347241D01*
X310123Y347425D01*
X310137Y347580D01*
X310165Y347735D01*
X310207Y347862D01*
X310250Y347960D01*
X310278Y348031D01*
X310292Y348087D01*
X310306Y348101D01*
X310461Y348355D01*
X310546Y348468D01*
X310616Y348552D01*
X310687Y348637D01*
X310743Y348693D01*
X310785Y348722D01*
X310800Y348736D01*
X311025Y348919D01*
X311251Y349074D01*
X311349Y349130D01*
X311420Y349173D01*
X311476Y349187D01*
X311490Y349201D01*
X311786Y349342D01*
X311913Y349398D01*
X312040Y349455D01*
X312139Y349497D01*
X312223Y349525D01*
X312280Y349553D01*
X312294D01*
X312590Y349680D01*
X312717Y349737D01*
X312829Y349779D01*
X312942Y349821D01*
X313013Y349849D01*
X313069Y349878D01*
X313083D01*
X313365Y349990D01*
X313478Y350047D01*
X313577Y350103D01*
X313675Y350145D01*
X313732Y350188D01*
X313774Y350202D01*
X313788Y350216D01*
X313985Y350371D01*
X314140Y350512D01*
X314197Y350568D01*
X314239Y350611D01*
X314253Y350639D01*
X314267Y350653D01*
X314324Y350752D01*
X314366Y350850D01*
X314422Y351034D01*
X314436Y351118D01*
X314451Y351175D01*
Y351217D01*
Y351231D01*
X314436Y351428D01*
X314380Y351597D01*
X314310Y351753D01*
X314225Y351879D01*
X314140Y351978D01*
X314070Y352048D01*
X314014Y352091D01*
X314000Y352105D01*
X313802Y352218D01*
X313591Y352302D01*
X313351Y352359D01*
X313111Y352401D01*
X312900Y352429D01*
X312731Y352443D01*
X312576D01*
X312237Y352429D01*
X312068Y352415D01*
X311927Y352401D01*
X311800Y352387D01*
X311716Y352373D01*
X311645Y352359D01*
X311631D01*
X311265Y352302D01*
X311096Y352260D01*
X310954Y352232D01*
X310828Y352204D01*
X310729Y352189D01*
X310673Y352161D01*
X310644D01*
Y353176D01*
X310800Y353204D01*
X310954Y353233D01*
X311011Y353247D01*
X311067Y353261D01*
X311110D01*
X311293Y353289D01*
X311448Y353317D01*
X311504D01*
X311561Y353331D01*
X311603D01*
X311786Y353359D01*
X311941Y353374D01*
X312012Y353388D01*
X312096D01*
X312266Y353402D01*
X312407Y353416D01*
X312547D01*
X312843Y353402D01*
D02*
G37*
G36*
X308741Y352330D02*
X306288D01*
Y345000D01*
X305147D01*
Y352330D01*
X302694D01*
Y353289D01*
X308741D01*
Y352330D01*
D02*
G37*
G36*
X317280Y393402D02*
X317505Y393374D01*
X317731Y393331D01*
X317914Y393289D01*
X318069Y393233D01*
X318196Y393190D01*
X318267Y393162D01*
X318295Y393148D01*
X318506Y393035D01*
X318703Y392923D01*
X318887Y392781D01*
X319042Y392655D01*
X319169Y392542D01*
X319253Y392443D01*
X319324Y392387D01*
X319338Y392359D01*
X319493Y392147D01*
X319634Y391936D01*
X319761Y391710D01*
X319859Y391499D01*
X319944Y391301D01*
X320000Y391160D01*
X320014Y391104D01*
X320029Y391062D01*
X320043Y391034D01*
Y391019D01*
X320127Y390709D01*
X320184Y390371D01*
X320240Y390061D01*
X320268Y389751D01*
X320282Y389497D01*
Y389384D01*
X320296Y389286D01*
Y389215D01*
Y389145D01*
Y389116D01*
Y389102D01*
X320282Y388750D01*
X320268Y388411D01*
X320240Y388101D01*
X320198Y387848D01*
X320170Y387622D01*
X320155Y387537D01*
X320141Y387467D01*
X320127Y387411D01*
Y387368D01*
X320113Y387340D01*
Y387326D01*
X320029Y387044D01*
X319944Y386790D01*
X319845Y386565D01*
X319761Y386367D01*
X319676Y386212D01*
X319606Y386100D01*
X319549Y386029D01*
X319535Y386001D01*
X319380Y385818D01*
X319211Y385648D01*
X319056Y385508D01*
X318887Y385381D01*
X318760Y385296D01*
X318647Y385225D01*
X318577Y385183D01*
X318548Y385169D01*
X318323Y385070D01*
X318083Y385000D01*
X317844Y384958D01*
X317632Y384930D01*
X317435Y384901D01*
X317294Y384887D01*
X317153D01*
X316913Y384901D01*
X316674Y384930D01*
X316462Y384972D01*
X316279Y385014D01*
X316124Y385056D01*
X315997Y385099D01*
X315926Y385127D01*
X315898Y385141D01*
X315673Y385254D01*
X315475Y385367D01*
X315306Y385493D01*
X315151Y385620D01*
X315024Y385733D01*
X314925Y385832D01*
X314869Y385888D01*
X314855Y385916D01*
X314700Y386128D01*
X314545Y386353D01*
X314432Y386579D01*
X314319Y386790D01*
X314249Y386988D01*
X314178Y387129D01*
X314164Y387185D01*
X314150Y387227D01*
X314136Y387256D01*
Y387270D01*
X314051Y387594D01*
X313981Y387918D01*
X313939Y388242D01*
X313896Y388538D01*
X313882Y388806D01*
Y388919D01*
X313868Y389018D01*
Y389088D01*
Y389159D01*
Y389187D01*
Y389201D01*
X313882Y389553D01*
X313896Y389892D01*
X313925Y390188D01*
X313967Y390441D01*
X314009Y390653D01*
X314023Y390737D01*
X314037Y390808D01*
X314051Y390878D01*
Y390921D01*
X314066Y390935D01*
Y390949D01*
X314150Y391231D01*
X314235Y391485D01*
X314333Y391710D01*
X314432Y391908D01*
X314517Y392063D01*
X314587Y392175D01*
X314643Y392246D01*
X314658Y392274D01*
X314813Y392471D01*
X314982Y392641D01*
X315137Y392781D01*
X315292Y392908D01*
X315433Y392993D01*
X315546Y393064D01*
X315616Y393106D01*
X315644Y393120D01*
X315870Y393218D01*
X316110Y393289D01*
X316335Y393345D01*
X316561Y393374D01*
X316744Y393402D01*
X316899Y393416D01*
X317026D01*
X317280Y393402D01*
D02*
G37*
G36*
X305283Y392330D02*
X303366D01*
Y385959D01*
X305283D01*
Y385000D01*
X300307D01*
Y385959D01*
X302224D01*
Y392330D01*
X300307D01*
Y393289D01*
X305283D01*
Y392330D01*
D02*
G37*
%LPC*%
G36*
X279018Y422246D02*
X277608Y417819D01*
X280428D01*
X279018Y422246D01*
D02*
G37*
G36*
X270372Y433040D02*
X270132D01*
X269991Y433012D01*
X269864Y432998D01*
X269751Y432970D01*
X269653Y432942D01*
X269582Y432913D01*
X269540Y432899D01*
X269526Y432885D01*
X269286Y432744D01*
X269188Y432674D01*
X269103Y432603D01*
X269032Y432533D01*
X268976Y432476D01*
X268948Y432448D01*
X268934Y432434D01*
X268849Y432321D01*
X268779Y432194D01*
X268666Y431969D01*
X268624Y431856D01*
X268596Y431771D01*
X268567Y431715D01*
Y431701D01*
X268525Y431532D01*
X268483Y431363D01*
X268455Y431179D01*
X268440Y431024D01*
X268426Y430883D01*
Y430770D01*
Y430700D01*
Y430672D01*
X268440Y430334D01*
X268455Y430178D01*
X268483Y430052D01*
X268497Y429939D01*
X268525Y429840D01*
X268539Y429784D01*
Y429770D01*
X268581Y429615D01*
X268638Y429474D01*
X268680Y429347D01*
X268736Y429234D01*
X268793Y429149D01*
X268821Y429079D01*
X268849Y429037D01*
X268863Y429022D01*
X269047Y428811D01*
X269145Y428712D01*
X269230Y428642D01*
X269314Y428586D01*
X269385Y428543D01*
X269427Y428515D01*
X269441Y428501D01*
X269582Y428445D01*
X269723Y428402D01*
X269864Y428360D01*
X269991Y428346D01*
X270118Y428332D01*
X270203Y428318D01*
X270442D01*
X270597Y428346D01*
X270724Y428360D01*
X270851Y428388D01*
X270936Y428416D01*
X271020Y428430D01*
X271063Y428459D01*
X271077D01*
X271302Y428600D01*
X271401Y428670D01*
X271485Y428741D01*
X271556Y428797D01*
X271612Y428853D01*
X271640Y428881D01*
X271655Y428896D01*
X271810Y429135D01*
X271922Y429375D01*
X271965Y429474D01*
X271993Y429558D01*
X272021Y429615D01*
Y429629D01*
X272092Y429981D01*
X272120Y430164D01*
X272134Y430319D01*
Y430460D01*
X272148Y430573D01*
Y430644D01*
Y430672D01*
X272134Y431010D01*
X272120Y431165D01*
X272092Y431306D01*
X272078Y431419D01*
X272063Y431504D01*
X272049Y431560D01*
Y431574D01*
X272007Y431729D01*
X271951Y431870D01*
X271908Y431997D01*
X271852Y432110D01*
X271796Y432194D01*
X271767Y432265D01*
X271739Y432307D01*
X271725Y432321D01*
X271542Y432547D01*
X271443Y432631D01*
X271344Y432702D01*
X271274Y432758D01*
X271203Y432800D01*
X271161Y432829D01*
X271147Y432843D01*
X271006Y432913D01*
X270865Y432956D01*
X270724Y432998D01*
X270583Y433012D01*
X270470Y433026D01*
X270372Y433040D01*
D02*
G37*
G36*
X186203Y417904D02*
X184653D01*
Y416762D01*
X184850Y416579D01*
X185047Y416438D01*
X185231Y416311D01*
X185386Y416212D01*
X185513Y416128D01*
X185611Y416071D01*
X185668Y416043D01*
X185696Y416029D01*
X185879Y415959D01*
X186034Y415902D01*
X186189Y415860D01*
X186316Y415832D01*
X186429Y415818D01*
X186499Y415803D01*
X186570D01*
X186767Y415818D01*
X186922Y415846D01*
X186979D01*
X187021Y415860D01*
X187049Y415874D01*
X187063D01*
X187190Y415930D01*
X187303Y416001D01*
X187359Y416057D01*
X187388Y416071D01*
X187472Y416184D01*
X187528Y416283D01*
X187557Y416353D01*
X187571Y416367D01*
Y416381D01*
X187599Y416508D01*
X187613Y416621D01*
X187627Y416706D01*
Y416720D01*
Y416734D01*
X187613Y416917D01*
X187585Y417072D01*
X187571Y417129D01*
X187557Y417171D01*
X187543Y417199D01*
Y417213D01*
X187458Y417354D01*
X187359Y417481D01*
X187289Y417552D01*
X187275Y417580D01*
X187261D01*
X187106Y417678D01*
X186936Y417763D01*
X186866Y417791D01*
X186810Y417805D01*
X186781Y417819D01*
X186767D01*
X186528Y417876D01*
X186302Y417890D01*
X186203Y417904D01*
D02*
G37*
G36*
X248958Y433097D02*
X248676D01*
X248535Y433068D01*
X248409Y433054D01*
X248310Y433026D01*
X248225Y432998D01*
X248155Y432970D01*
X248113Y432956D01*
X248099Y432942D01*
X247873Y432815D01*
X247788Y432758D01*
X247704Y432688D01*
X247647Y432631D01*
X247605Y432589D01*
X247577Y432561D01*
X247563Y432547D01*
X247422Y432349D01*
X247323Y432152D01*
X247295Y432067D01*
X247267Y431997D01*
X247253Y431955D01*
Y431941D01*
X247182Y431673D01*
X247168Y431546D01*
X247154Y431433D01*
Y431334D01*
Y431250D01*
Y431193D01*
Y431179D01*
X250509D01*
X250467Y431475D01*
X250453Y431616D01*
X250424Y431729D01*
X250396Y431828D01*
X250368Y431898D01*
X250354Y431941D01*
Y431955D01*
X250241Y432194D01*
X250185Y432307D01*
X250128Y432392D01*
X250072Y432462D01*
X250030Y432519D01*
X250016Y432547D01*
X250002Y432561D01*
X249832Y432730D01*
X249663Y432857D01*
X249593Y432899D01*
X249536Y432927D01*
X249508Y432956D01*
X249494D01*
X249254Y433040D01*
X249142Y433068D01*
X249043Y433082D01*
X248958Y433097D01*
D02*
G37*
G36*
X220370D02*
X220088D01*
X219947Y433068D01*
X219820Y433054D01*
X219721Y433026D01*
X219637Y432998D01*
X219566Y432970D01*
X219524Y432956D01*
X219510Y432942D01*
X219284Y432815D01*
X219200Y432758D01*
X219115Y432688D01*
X219059Y432631D01*
X219016Y432589D01*
X218988Y432561D01*
X218974Y432547D01*
X218833Y432349D01*
X218734Y432152D01*
X218706Y432067D01*
X218678Y431997D01*
X218664Y431955D01*
Y431941D01*
X218594Y431673D01*
X218579Y431546D01*
X218565Y431433D01*
Y431334D01*
Y431250D01*
Y431193D01*
Y431179D01*
X221920D01*
X221878Y431475D01*
X221864Y431616D01*
X221836Y431729D01*
X221808Y431828D01*
X221779Y431898D01*
X221765Y431941D01*
Y431955D01*
X221653Y432194D01*
X221596Y432307D01*
X221540Y432392D01*
X221483Y432462D01*
X221441Y432519D01*
X221427Y432547D01*
X221413Y432561D01*
X221244Y432730D01*
X221075Y432857D01*
X221004Y432899D01*
X220948Y432927D01*
X220919Y432956D01*
X220905D01*
X220666Y433040D01*
X220553Y433068D01*
X220454Y433082D01*
X220370Y433097D01*
D02*
G37*
G36*
X278872Y434845D02*
X277730D01*
X277392Y434830D01*
X277096Y434774D01*
X276856Y434704D01*
X276645Y434633D01*
X276476Y434548D01*
X276363Y434478D01*
X276292Y434422D01*
X276264Y434408D01*
X276081Y434238D01*
X275954Y434041D01*
X275856Y433844D01*
X275799Y433646D01*
X275757Y433463D01*
X275743Y433322D01*
X275729Y433266D01*
Y433223D01*
Y433209D01*
Y433195D01*
X275757Y432885D01*
X275813Y432617D01*
X275898Y432392D01*
X275996Y432194D01*
X276109Y432053D01*
X276194Y431955D01*
X276250Y431884D01*
X276278Y431870D01*
X276504Y431729D01*
X276758Y431616D01*
X277011Y431546D01*
X277265Y431489D01*
X277477Y431461D01*
X277575Y431447D01*
X277660D01*
X277730Y431433D01*
X278872D01*
Y434845D01*
D02*
G37*
G36*
X264780Y420540D02*
X264540D01*
X264399Y420512D01*
X264273Y420498D01*
X264160Y420470D01*
X264061Y420442D01*
X263991Y420413D01*
X263948Y420399D01*
X263934Y420385D01*
X263695Y420244D01*
X263596Y420174D01*
X263511Y420103D01*
X263441Y420033D01*
X263384Y419976D01*
X263356Y419948D01*
X263342Y419934D01*
X263258Y419821D01*
X263187Y419694D01*
X263074Y419469D01*
X263032Y419356D01*
X263004Y419271D01*
X262976Y419215D01*
Y419201D01*
X262933Y419032D01*
X262891Y418863D01*
X262863Y418679D01*
X262849Y418524D01*
X262835Y418383D01*
Y418270D01*
Y418200D01*
Y418172D01*
X262849Y417834D01*
X262863Y417678D01*
X262891Y417552D01*
X262905Y417439D01*
X262933Y417340D01*
X262948Y417284D01*
Y417270D01*
X262990Y417115D01*
X263046Y416974D01*
X263088Y416847D01*
X263145Y416734D01*
X263201Y416649D01*
X263229Y416579D01*
X263258Y416537D01*
X263272Y416522D01*
X263455Y416311D01*
X263554Y416212D01*
X263638Y416142D01*
X263723Y416086D01*
X263793Y416043D01*
X263836Y416015D01*
X263850Y416001D01*
X263991Y415945D01*
X264132Y415902D01*
X264273Y415860D01*
X264399Y415846D01*
X264526Y415832D01*
X264611Y415818D01*
X264851D01*
X265006Y415846D01*
X265133Y415860D01*
X265259Y415888D01*
X265344Y415916D01*
X265429Y415930D01*
X265471Y415959D01*
X265485D01*
X265711Y416100D01*
X265809Y416170D01*
X265894Y416241D01*
X265964Y416297D01*
X266021Y416353D01*
X266049Y416381D01*
X266063Y416396D01*
X266218Y416635D01*
X266331Y416875D01*
X266373Y416974D01*
X266401Y417058D01*
X266429Y417115D01*
Y417129D01*
X266500Y417481D01*
X266528Y417664D01*
X266542Y417819D01*
Y417960D01*
X266556Y418073D01*
Y418144D01*
Y418172D01*
X266542Y418510D01*
X266528Y418665D01*
X266500Y418806D01*
X266486Y418919D01*
X266472Y419004D01*
X266458Y419060D01*
Y419074D01*
X266415Y419229D01*
X266359Y419370D01*
X266317Y419497D01*
X266260Y419610D01*
X266204Y419694D01*
X266176Y419765D01*
X266147Y419807D01*
X266133Y419821D01*
X265950Y420047D01*
X265851Y420131D01*
X265753Y420202D01*
X265682Y420258D01*
X265612Y420300D01*
X265569Y420329D01*
X265555Y420343D01*
X265414Y420413D01*
X265273Y420456D01*
X265133Y420498D01*
X264991Y420512D01*
X264879Y420526D01*
X264780Y420540D01*
D02*
G37*
G36*
X150439Y422500D02*
X150326D01*
X150073Y422486D01*
X149861Y422457D01*
X149664Y422415D01*
X149509Y422359D01*
X149382Y422302D01*
X149297Y422260D01*
X149241Y422232D01*
X149227Y422218D01*
X149086Y422105D01*
X148987Y421964D01*
X148917Y421823D01*
X148875Y421696D01*
X148832Y421569D01*
X148818Y421470D01*
Y421400D01*
Y421372D01*
X148832Y421203D01*
X148875Y421034D01*
X148931Y420893D01*
X148987Y420766D01*
X149058Y420667D01*
X149114Y420597D01*
X149157Y420540D01*
X149171Y420526D01*
X149312Y420385D01*
X149481Y420258D01*
X149664Y420145D01*
X149833Y420047D01*
X149988Y419962D01*
X150115Y419892D01*
X150200Y419849D01*
X150214Y419835D01*
X150228D01*
X150383Y419906D01*
X150524Y419962D01*
X150637Y420019D01*
X150749Y420075D01*
X150834Y420117D01*
X150890Y420159D01*
X150933Y420174D01*
X150947Y420188D01*
X151144Y420329D01*
X151299Y420442D01*
X151356Y420484D01*
X151398Y420526D01*
X151426Y420540D01*
X151440Y420554D01*
X151567Y420695D01*
X151666Y420808D01*
X151722Y420907D01*
X151736Y420921D01*
Y420935D01*
X151778Y421090D01*
X151807Y421245D01*
X151821Y421301D01*
Y421344D01*
Y421372D01*
Y421386D01*
X151807Y421583D01*
X151764Y421753D01*
X151694Y421893D01*
X151623Y422020D01*
X151553Y422105D01*
X151482Y422161D01*
X151440Y422204D01*
X151426Y422218D01*
X151271Y422316D01*
X151088Y422387D01*
X150905Y422429D01*
X150721Y422471D01*
X150566Y422486D01*
X150439Y422500D01*
D02*
G37*
G36*
X150425Y418778D02*
X150242Y418693D01*
X150087Y418609D01*
X149932Y418524D01*
X149819Y418454D01*
X149720Y418397D01*
X149650Y418355D01*
X149608Y418327D01*
X149593Y418313D01*
X149467Y418228D01*
X149368Y418158D01*
X149269Y418087D01*
X149199Y418017D01*
X149142Y417975D01*
X149100Y417932D01*
X149072Y417904D01*
X149058Y417890D01*
X148931Y417735D01*
X148846Y417594D01*
X148818Y417537D01*
X148804Y417495D01*
X148790Y417467D01*
Y417453D01*
X148734Y417284D01*
X148720Y417143D01*
X148705Y417072D01*
Y417030D01*
Y417002D01*
Y416988D01*
X148720Y416776D01*
X148762Y416621D01*
X148790Y416551D01*
X148818Y416508D01*
X148832Y416480D01*
Y416466D01*
X148945Y416325D01*
X149058Y416198D01*
X149142Y416128D01*
X149171Y416114D01*
X149185Y416100D01*
X149354Y416001D01*
X149523Y415945D01*
X149593Y415916D01*
X149650Y415902D01*
X149692Y415888D01*
X149706D01*
X149932Y415860D01*
X150129Y415846D01*
X150214Y415832D01*
X150326D01*
X150580Y415846D01*
X150693Y415860D01*
X150778Y415874D01*
X150862D01*
X150919Y415888D01*
X150961Y415902D01*
X150975D01*
X151186Y415973D01*
X151341Y416043D01*
X151412Y416071D01*
X151454Y416100D01*
X151482Y416128D01*
X151497D01*
X151637Y416255D01*
X151750Y416367D01*
X151807Y416466D01*
X151835Y416480D01*
Y416494D01*
X151905Y416664D01*
X151934Y416833D01*
X151948Y416903D01*
Y416959D01*
Y416988D01*
Y417002D01*
X151934Y417185D01*
X151905Y417340D01*
Y417397D01*
X151891Y417439D01*
X151877Y417467D01*
Y417481D01*
X151807Y417650D01*
X151722Y417791D01*
X151680Y417848D01*
X151652Y417890D01*
X151637Y417918D01*
X151623Y417932D01*
X151468Y418087D01*
X151313Y418228D01*
X151243Y418270D01*
X151186Y418313D01*
X151158Y418341D01*
X151144Y418355D01*
X150905Y418510D01*
X150679Y418651D01*
X150580Y418693D01*
X150496Y418736D01*
X150439Y418764D01*
X150425Y418778D01*
D02*
G37*
G36*
X243339Y420540D02*
X243099D01*
X242958Y420512D01*
X242831Y420498D01*
X242718Y420470D01*
X242620Y420442D01*
X242549Y420413D01*
X242507Y420399D01*
X242493Y420385D01*
X242253Y420244D01*
X242154Y420174D01*
X242070Y420103D01*
X241999Y420033D01*
X241943Y419976D01*
X241915Y419948D01*
X241901Y419934D01*
X241816Y419821D01*
X241746Y419694D01*
X241633Y419469D01*
X241590Y419356D01*
X241562Y419271D01*
X241534Y419215D01*
Y419201D01*
X241492Y419032D01*
X241450Y418863D01*
X241421Y418679D01*
X241407Y418524D01*
X241393Y418383D01*
Y418270D01*
Y418200D01*
Y418172D01*
X241407Y417834D01*
X241421Y417678D01*
X241450Y417552D01*
X241464Y417439D01*
X241492Y417340D01*
X241506Y417284D01*
Y417270D01*
X241548Y417115D01*
X241605Y416974D01*
X241647Y416847D01*
X241703Y416734D01*
X241760Y416649D01*
X241788Y416579D01*
X241816Y416537D01*
X241830Y416522D01*
X242013Y416311D01*
X242112Y416212D01*
X242197Y416142D01*
X242281Y416086D01*
X242352Y416043D01*
X242394Y416015D01*
X242408Y416001D01*
X242549Y415945D01*
X242690Y415902D01*
X242831Y415860D01*
X242958Y415846D01*
X243085Y415832D01*
X243169Y415818D01*
X243409D01*
X243564Y415846D01*
X243691Y415860D01*
X243818Y415888D01*
X243902Y415916D01*
X243987Y415930D01*
X244029Y415959D01*
X244043D01*
X244269Y416100D01*
X244368Y416170D01*
X244452Y416241D01*
X244523Y416297D01*
X244579Y416353D01*
X244607Y416381D01*
X244621Y416396D01*
X244776Y416635D01*
X244889Y416875D01*
X244932Y416974D01*
X244960Y417058D01*
X244988Y417115D01*
Y417129D01*
X245058Y417481D01*
X245087Y417664D01*
X245101Y417819D01*
Y417960D01*
X245115Y418073D01*
Y418144D01*
Y418172D01*
X245101Y418510D01*
X245087Y418665D01*
X245058Y418806D01*
X245044Y418919D01*
X245030Y419004D01*
X245016Y419060D01*
Y419074D01*
X244974Y419229D01*
X244917Y419370D01*
X244875Y419497D01*
X244819Y419610D01*
X244762Y419694D01*
X244734Y419765D01*
X244706Y419807D01*
X244692Y419821D01*
X244509Y420047D01*
X244410Y420131D01*
X244311Y420202D01*
X244241Y420258D01*
X244170Y420300D01*
X244128Y420329D01*
X244114Y420343D01*
X243973Y420413D01*
X243832Y420456D01*
X243691Y420498D01*
X243550Y420512D01*
X243437Y420526D01*
X243339Y420540D01*
D02*
G37*
G36*
X207645Y417904D02*
X206094D01*
Y416762D01*
X206292Y416579D01*
X206489Y416438D01*
X206672Y416311D01*
X206827Y416212D01*
X206954Y416128D01*
X207053Y416071D01*
X207109Y416043D01*
X207137Y416029D01*
X207321Y415959D01*
X207476Y415902D01*
X207631Y415860D01*
X207758Y415832D01*
X207871Y415818D01*
X207941Y415803D01*
X208011D01*
X208209Y415818D01*
X208364Y415846D01*
X208420D01*
X208463Y415860D01*
X208491Y415874D01*
X208505D01*
X208632Y415930D01*
X208745Y416001D01*
X208801Y416057D01*
X208829Y416071D01*
X208914Y416184D01*
X208970Y416283D01*
X208998Y416353D01*
X209012Y416367D01*
Y416381D01*
X209041Y416508D01*
X209055Y416621D01*
X209069Y416706D01*
Y416720D01*
Y416734D01*
X209055Y416917D01*
X209026Y417072D01*
X209012Y417129D01*
X208998Y417171D01*
X208984Y417199D01*
Y417213D01*
X208900Y417354D01*
X208801Y417481D01*
X208730Y417552D01*
X208716Y417580D01*
X208702D01*
X208547Y417678D01*
X208378Y417763D01*
X208307Y417791D01*
X208251Y417805D01*
X208223Y417819D01*
X208209D01*
X207969Y417876D01*
X207744Y417890D01*
X207645Y417904D01*
D02*
G37*
G36*
X172501Y434851D02*
X172131D01*
X171946Y434814D01*
X171779Y434795D01*
X171649Y434758D01*
X171538Y434721D01*
X171446Y434684D01*
X171390Y434666D01*
X171372Y434647D01*
X171075Y434481D01*
X170964Y434407D01*
X170853Y434314D01*
X170779Y434240D01*
X170724Y434184D01*
X170687Y434147D01*
X170668Y434129D01*
X170483Y433870D01*
X170353Y433610D01*
X170316Y433499D01*
X170279Y433407D01*
X170261Y433351D01*
Y433333D01*
X170168Y432981D01*
X170150Y432814D01*
X170131Y432666D01*
Y432537D01*
Y432425D01*
Y432351D01*
Y432333D01*
X174538D01*
X174483Y432722D01*
X174464Y432907D01*
X174427Y433055D01*
X174390Y433185D01*
X174353Y433277D01*
X174334Y433333D01*
Y433351D01*
X174186Y433666D01*
X174112Y433814D01*
X174038Y433925D01*
X173964Y434018D01*
X173909Y434092D01*
X173890Y434129D01*
X173871Y434147D01*
X173649Y434370D01*
X173427Y434536D01*
X173335Y434592D01*
X173260Y434629D01*
X173223Y434666D01*
X173205D01*
X172890Y434777D01*
X172742Y434814D01*
X172612Y434833D01*
X172501Y434851D01*
D02*
G37*
G36*
X321372Y352330D02*
X320315D01*
X320047Y352316D01*
X319807Y352274D01*
X319610Y352218D01*
X319441Y352161D01*
X319314Y352105D01*
X319215Y352048D01*
X319159Y352006D01*
X319145Y351992D01*
X319004Y351851D01*
X318905Y351696D01*
X318821Y351541D01*
X318778Y351372D01*
X318750Y351231D01*
X318722Y351118D01*
Y351034D01*
Y351019D01*
Y351005D01*
X318736Y350766D01*
X318764Y350653D01*
X318778Y350568D01*
X318807Y350484D01*
X318835Y350427D01*
X318849Y350399D01*
Y350385D01*
X318962Y350216D01*
X319074Y350075D01*
X319117Y350019D01*
X319159Y349976D01*
X319187Y349962D01*
X319201Y349948D01*
X319385Y349835D01*
X319554Y349751D01*
X319638Y349723D01*
X319695Y349694D01*
X319737Y349680D01*
X319751D01*
X319991Y349638D01*
X320118Y349610D01*
X320230D01*
X320329Y349596D01*
X321372D01*
Y352330D01*
D02*
G37*
G36*
X306810Y314830D02*
X305598D01*
X305372Y314802D01*
X305175Y314774D01*
X304991Y314746D01*
X304851Y314718D01*
X304738Y314690D01*
X304681Y314675D01*
X304653Y314661D01*
X304470Y314591D01*
X304301Y314506D01*
X304160Y314408D01*
X304033Y314323D01*
X303934Y314238D01*
X303864Y314168D01*
X303822Y314126D01*
X303807Y314111D01*
X303695Y313971D01*
X303582Y313801D01*
X303497Y313632D01*
X303427Y313477D01*
X303370Y313336D01*
X303328Y313223D01*
X303314Y313153D01*
X303300Y313139D01*
Y313125D01*
X303244Y312885D01*
X303201Y312631D01*
X303173Y312392D01*
X303145Y312152D01*
Y311955D01*
X303131Y311786D01*
Y311729D01*
Y311687D01*
Y311659D01*
Y311644D01*
X303145Y311363D01*
X303159Y311081D01*
X303201Y310827D01*
X303258Y310601D01*
X303314Y310376D01*
X303399Y310178D01*
X303483Y309981D01*
X303582Y309812D01*
X303793Y309502D01*
X304033Y309248D01*
X304287Y309037D01*
X304555Y308867D01*
X304822Y308741D01*
X305076Y308642D01*
X305316Y308571D01*
X305527Y308529D01*
X305711Y308501D01*
X305851Y308473D01*
X306810D01*
Y314830D01*
D02*
G37*
G36*
X183519Y437129D02*
X182130D01*
X181778Y437110D01*
X181463Y437055D01*
X181204Y436981D01*
X180982Y436906D01*
X180815Y436832D01*
X180686Y436758D01*
X180612Y436703D01*
X180593Y436684D01*
X180408Y436499D01*
X180278Y436295D01*
X180167Y436092D01*
X180112Y435869D01*
X180075Y435684D01*
X180038Y435536D01*
Y435425D01*
Y435407D01*
Y435388D01*
X180056Y435073D01*
X180093Y434925D01*
X180112Y434814D01*
X180149Y434703D01*
X180186Y434629D01*
X180204Y434592D01*
Y434573D01*
X180352Y434351D01*
X180501Y434166D01*
X180556Y434092D01*
X180612Y434036D01*
X180649Y434018D01*
X180667Y433999D01*
X180908Y433851D01*
X181130Y433740D01*
X181241Y433703D01*
X181315Y433666D01*
X181371Y433647D01*
X181389D01*
X181704Y433592D01*
X181871Y433555D01*
X182019D01*
X182148Y433536D01*
X183519D01*
Y437129D01*
D02*
G37*
G36*
X100387Y317429D02*
X100302D01*
X100105Y317415D01*
X99907Y317387D01*
X99752Y317344D01*
X99611Y317302D01*
X99499Y317260D01*
X99414Y317218D01*
X99358Y317190D01*
X99344Y317175D01*
X99202Y317077D01*
X99076Y316964D01*
X98963Y316851D01*
X98864Y316752D01*
X98794Y316654D01*
X98737Y316569D01*
X98709Y316513D01*
X98695Y316499D01*
X98610Y316329D01*
X98526Y316146D01*
X98469Y315977D01*
X98413Y315808D01*
X98371Y315667D01*
X98343Y315554D01*
X98329Y315484D01*
Y315470D01*
Y315455D01*
X98258Y314990D01*
X98230Y314765D01*
X98216Y314553D01*
X98202Y314384D01*
Y314243D01*
Y314187D01*
Y314144D01*
Y314130D01*
Y314116D01*
Y313863D01*
X98216Y313637D01*
X98244Y313412D01*
X98258Y313228D01*
X98286Y313073D01*
X98314Y312946D01*
X98329Y312876D01*
Y312848D01*
X98385Y312636D01*
X98441Y312439D01*
X98498Y312270D01*
X98568Y312115D01*
X98624Y311988D01*
X98667Y311903D01*
X98695Y311833D01*
X98709Y311819D01*
X98808Y311663D01*
X98921Y311523D01*
X99019Y311410D01*
X99132Y311311D01*
X99217Y311226D01*
X99287Y311170D01*
X99344Y311142D01*
X99358Y311128D01*
X99513Y311043D01*
X99668Y310987D01*
X99823Y310930D01*
X99978Y310902D01*
X100105Y310888D01*
X100203Y310874D01*
X100302D01*
X100499Y310888D01*
X100683Y310916D01*
X100852Y310944D01*
X100993Y311001D01*
X101106Y311043D01*
X101190Y311071D01*
X101247Y311100D01*
X101261Y311114D01*
X101402Y311212D01*
X101529Y311325D01*
X101641Y311424D01*
X101726Y311537D01*
X101810Y311635D01*
X101867Y311706D01*
X101895Y311762D01*
X101909Y311776D01*
X101994Y311945D01*
X102064Y312129D01*
X102121Y312298D01*
X102177Y312467D01*
X102219Y312608D01*
X102233Y312721D01*
X102261Y312791D01*
Y312819D01*
X102332Y313299D01*
X102346Y313524D01*
X102360Y313736D01*
X102374Y313905D01*
Y314046D01*
Y314102D01*
Y314144D01*
Y314159D01*
Y314173D01*
Y314412D01*
X102360Y314652D01*
X102332Y314863D01*
X102318Y315047D01*
X102290Y315202D01*
X102276Y315329D01*
X102261Y315399D01*
Y315427D01*
X102205Y315639D01*
X102149Y315836D01*
X102078Y316019D01*
X102022Y316160D01*
X101966Y316287D01*
X101923Y316386D01*
X101895Y316442D01*
X101881Y316456D01*
X101782Y316611D01*
X101670Y316752D01*
X101571Y316879D01*
X101472Y316978D01*
X101373Y317063D01*
X101303Y317119D01*
X101261Y317147D01*
X101247Y317161D01*
X101091Y317246D01*
X100936Y317316D01*
X100767Y317359D01*
X100626Y317401D01*
X100499Y317415D01*
X100387Y317429D01*
D02*
G37*
G36*
X317181Y392429D02*
X317096D01*
X316899Y392415D01*
X316702Y392387D01*
X316547Y392345D01*
X316406Y392302D01*
X316293Y392260D01*
X316208Y392218D01*
X316152Y392189D01*
X316138Y392175D01*
X315997Y392077D01*
X315870Y391964D01*
X315757Y391851D01*
X315658Y391753D01*
X315588Y391654D01*
X315532Y391569D01*
X315504Y391513D01*
X315489Y391499D01*
X315405Y391329D01*
X315320Y391146D01*
X315264Y390977D01*
X315207Y390808D01*
X315165Y390667D01*
X315137Y390554D01*
X315123Y390484D01*
Y390470D01*
Y390456D01*
X315052Y389990D01*
X315024Y389765D01*
X315010Y389553D01*
X314996Y389384D01*
Y389243D01*
Y389187D01*
Y389145D01*
Y389130D01*
Y389116D01*
Y388863D01*
X315010Y388637D01*
X315038Y388411D01*
X315052Y388228D01*
X315081Y388073D01*
X315109Y387946D01*
X315123Y387876D01*
Y387848D01*
X315179Y387636D01*
X315236Y387439D01*
X315292Y387270D01*
X315362Y387114D01*
X315419Y386988D01*
X315461Y386903D01*
X315489Y386833D01*
X315504Y386819D01*
X315602Y386663D01*
X315715Y386522D01*
X315814Y386410D01*
X315926Y386311D01*
X316011Y386226D01*
X316081Y386170D01*
X316138Y386142D01*
X316152Y386128D01*
X316307Y386043D01*
X316462Y385987D01*
X316617Y385930D01*
X316772Y385902D01*
X316899Y385888D01*
X316998Y385874D01*
X317096D01*
X317294Y385888D01*
X317477Y385916D01*
X317646Y385945D01*
X317787Y386001D01*
X317900Y386043D01*
X317985Y386071D01*
X318041Y386100D01*
X318055Y386114D01*
X318196Y386212D01*
X318323Y386325D01*
X318436Y386424D01*
X318520Y386537D01*
X318605Y386635D01*
X318661Y386706D01*
X318689Y386762D01*
X318703Y386776D01*
X318788Y386945D01*
X318859Y387129D01*
X318915Y387298D01*
X318971Y387467D01*
X319014Y387608D01*
X319028Y387721D01*
X319056Y387791D01*
Y387819D01*
X319126Y388299D01*
X319140Y388524D01*
X319155Y388736D01*
X319169Y388905D01*
Y389046D01*
Y389102D01*
Y389145D01*
Y389159D01*
Y389173D01*
Y389412D01*
X319155Y389652D01*
X319126Y389864D01*
X319112Y390047D01*
X319084Y390202D01*
X319070Y390329D01*
X319056Y390399D01*
Y390427D01*
X319000Y390639D01*
X318943Y390836D01*
X318873Y391019D01*
X318816Y391160D01*
X318760Y391287D01*
X318718Y391386D01*
X318689Y391442D01*
X318675Y391456D01*
X318577Y391612D01*
X318464Y391753D01*
X318365Y391879D01*
X318267Y391978D01*
X318168Y392063D01*
X318097Y392119D01*
X318055Y392147D01*
X318041Y392161D01*
X317886Y392246D01*
X317731Y392316D01*
X317562Y392359D01*
X317421Y392401D01*
X317294Y392415D01*
X317181Y392429D01*
D02*
G37*
%LPD*%
D15*
X230486Y339050D02*
G03*
X230486Y339050I-4016J0D01*
G01*
X311800Y246870D02*
Y254490D01*
X307990Y250680D02*
X315610D01*
D25*
X231799Y294000D02*
X238799D01*
Y345999D01*
X231799D02*
X238799D01*
X186201Y294000D02*
Y345999D01*
Y294000D02*
X231799D01*
X186201Y345999D02*
X231799D01*
D27*
X340499Y231500D02*
Y242501D01*
X304000D02*
X340499D01*
Y172499D02*
Y183500D01*
X304000Y172499D02*
X340499D01*
X54501Y242501D02*
X91000D01*
X54501Y231500D02*
Y242501D01*
Y172499D02*
X91000D01*
X54501D02*
Y183500D01*
X91000Y172499D02*
X92809Y167558D01*
X95758Y160586D01*
X97028Y157965D01*
X98905Y154312D01*
X100800Y150932D01*
X103088Y147157D01*
X105082Y144246D01*
X107437Y140894D01*
X111054Y136284D01*
X114465Y132321D01*
X118961Y127571D01*
X301500Y165999D02*
X304000Y172499D01*
X298501Y159001D02*
X301500Y165999D01*
X296499Y155001D02*
X298501Y159001D01*
X293703Y150114D02*
X296499Y155001D01*
X289738Y143929D02*
X293703Y150114D01*
X284500Y137000D02*
X289738Y143929D01*
X280949Y132766D02*
X284500Y137000D01*
X276039Y127592D02*
X280949Y132766D01*
X302077Y247840D02*
X304000Y242501D01*
X297924Y257160D02*
X302077Y247840D01*
X294360Y263751D02*
X297924Y257160D01*
X290975Y269308D02*
X294360Y263751D01*
X287015Y274800D02*
X290975Y269308D01*
X282765Y280268D02*
X287015Y274800D01*
X278143Y285272D02*
X282765Y280268D01*
X275912Y287332D02*
X278143Y285272D01*
X91000Y242501D02*
X92499Y246499D01*
X94602Y251919D01*
X97028Y257116D01*
X100759Y264033D01*
X105755Y271752D01*
X110142Y277617D01*
X115359Y283647D01*
X118821Y287233D01*
X118999Y287500D02*
X276001D01*
X118999Y127500D02*
X276001D01*
M02*
