G04*
G04 #@! TF.GenerationSoftware,Altium Limited,Altium Designer,18.0.9 (584)*
G04*
G04 Layer_Physical_Order=2*
G04 Layer_Color=16711680*
%FSLAX44Y44*%
%MOMM*%
G71*
G01*
G75*
%ADD30C,0.2540*%
%ADD31O,3.7592X1.8796*%
%ADD32C,0.8001*%
%ADD33O,1.5000X3.0000*%
%ADD34C,0.5000*%
G04:AMPARAMS|DCode=35|XSize=1.5001mm|YSize=1.5001mm|CornerRadius=0.7501mm|HoleSize=0mm|Usage=FLASHONLY|Rotation=90.000|XOffset=0mm|YOffset=0mm|HoleType=Round|Shape=RoundedRectangle|*
%AMROUNDEDRECTD35*
21,1,1.5001,0.0000,0,0,90.0*
21,1,0.0000,1.5001,0,0,90.0*
1,1,1.5001,0.0000,0.0000*
1,1,1.5001,0.0000,0.0000*
1,1,1.5001,0.0000,0.0000*
1,1,1.5001,0.0000,0.0000*
%
%ADD35ROUNDEDRECTD35*%
G04:AMPARAMS|DCode=36|XSize=1.5001mm|YSize=1.5001mm|CornerRadius=0.7501mm|HoleSize=0mm|Usage=FLASHONLY|Rotation=180.000|XOffset=0mm|YOffset=0mm|HoleType=Round|Shape=RoundedRectangle|*
%AMROUNDEDRECTD36*
21,1,1.5001,0.0000,0,0,180.0*
21,1,0.0000,1.5001,0,0,180.0*
1,1,1.5001,0.0000,0.0000*
1,1,1.5001,0.0000,0.0000*
1,1,1.5001,0.0000,0.0000*
1,1,1.5001,0.0000,0.0000*
%
%ADD36ROUNDEDRECTD36*%
%ADD37R,3.1999X4.1999*%
%ADD38R,11.0000X7.0000*%
%ADD39R,2.2860X0.6000*%
G36*
X362500Y230731D02*
X361523Y230023D01*
X361230Y230023D01*
X345349D01*
Y327064D01*
X345401Y327099D01*
X346291Y328430D01*
X346603Y330000D01*
X346291Y331570D01*
X345401Y332901D01*
X344070Y333791D01*
X342500Y334103D01*
X340930Y333791D01*
X339599Y332901D01*
X338709Y331570D01*
X338397Y330000D01*
X338709Y328430D01*
X339599Y327099D01*
X339651Y327064D01*
Y230023D01*
X326476D01*
Y184977D01*
X361230D01*
X361523Y184977D01*
X362500Y184269D01*
Y0D01*
X0D01*
Y450000D01*
X362500D01*
Y230731D01*
D02*
G37*
%LPC*%
G36*
X124770Y428386D02*
Y424770D01*
X128386D01*
X128248Y425466D01*
X127134Y427134D01*
X125466Y428248D01*
X124770Y428386D01*
D02*
G37*
G36*
X122230D02*
X121533Y428248D01*
X119866Y427134D01*
X118752Y425466D01*
X118614Y424770D01*
X122230D01*
Y428386D01*
D02*
G37*
G36*
X90001Y435633D02*
X87846Y435204D01*
X86018Y433983D01*
X84797Y432155D01*
X84368Y430000D01*
X84797Y427845D01*
X86018Y426017D01*
X87846Y424796D01*
X90001Y424367D01*
X92157Y424796D01*
X93984Y426017D01*
X95205Y427845D01*
X95634Y430000D01*
X95205Y432155D01*
X93984Y433983D01*
X92157Y435204D01*
X90001Y435633D01*
D02*
G37*
G36*
X59999D02*
X57843Y435204D01*
X56016Y433983D01*
X54795Y432155D01*
X54366Y430000D01*
X54795Y427845D01*
X56016Y426017D01*
X57843Y424796D01*
X59999Y424367D01*
X62154Y424796D01*
X63982Y426017D01*
X65203Y427845D01*
X65631Y430000D01*
X65203Y432155D01*
X63982Y433983D01*
X62154Y435204D01*
X59999Y435633D01*
D02*
G37*
G36*
X128386Y422230D02*
X124770D01*
Y418614D01*
X125466Y418752D01*
X127134Y419866D01*
X128248Y421534D01*
X128386Y422230D01*
D02*
G37*
G36*
X122230D02*
X118201D01*
X101320Y405349D01*
X57500D01*
X57500Y405349D01*
X56410Y405132D01*
X55486Y404514D01*
X55486Y404514D01*
X37986Y387014D01*
X37920Y386916D01*
X36570Y386291D01*
X35000Y386603D01*
X33430Y386291D01*
X32099Y385401D01*
X31209Y384070D01*
X30897Y382500D01*
X31209Y380930D01*
X32099Y379599D01*
X32151Y379564D01*
Y265068D01*
X30881Y264683D01*
X30401Y265401D01*
X29070Y266290D01*
X27500Y266603D01*
X25930Y266290D01*
X24599Y265401D01*
X23709Y264070D01*
X23397Y262500D01*
X23709Y260930D01*
X24599Y259599D01*
X24651Y259564D01*
Y256927D01*
X21422Y253698D01*
X20804Y252773D01*
X20587Y251683D01*
X20587Y251683D01*
Y183317D01*
X20587Y183317D01*
X20804Y182227D01*
X21422Y181302D01*
X28802Y173922D01*
X29727Y173304D01*
X30817Y173087D01*
X30817Y173087D01*
X65384D01*
X69651Y168820D01*
Y147936D01*
X69599Y147901D01*
X68710Y146570D01*
X68397Y145000D01*
X68710Y143430D01*
X69599Y142099D01*
X70930Y141209D01*
X72500Y140897D01*
X74070Y141209D01*
X75401Y142099D01*
X76290Y143430D01*
X76603Y145000D01*
X76290Y146570D01*
X75401Y147901D01*
X75349Y147936D01*
Y168827D01*
X76619Y169352D01*
X79651Y166320D01*
Y115000D01*
X79651Y115000D01*
X79868Y113910D01*
X80486Y112986D01*
X87986Y105486D01*
X87986Y105486D01*
X88910Y104868D01*
X90000Y104651D01*
X90000Y104651D01*
X95897D01*
Y97499D01*
X96208Y95144D01*
X97117Y92948D01*
X98563Y91063D01*
X100448Y89617D01*
X102151Y88912D01*
Y72500D01*
Y56088D01*
X100448Y55383D01*
X98563Y53937D01*
X97117Y52052D01*
X96208Y49856D01*
X95897Y47501D01*
Y32501D01*
X96208Y30145D01*
X97117Y27950D01*
X98563Y26065D01*
X100448Y24618D01*
X102644Y23709D01*
X104999Y23399D01*
X107355Y23709D01*
X109550Y24618D01*
X111435Y26065D01*
X112882Y27950D01*
X113791Y30145D01*
X114101Y32501D01*
Y47501D01*
X113791Y49856D01*
X112882Y52052D01*
X111435Y53937D01*
X109550Y55383D01*
X107848Y56088D01*
Y69651D01*
X199651D01*
Y56088D01*
X197948Y55383D01*
X196063Y53937D01*
X194617Y52052D01*
X193708Y49856D01*
X193398Y47501D01*
Y32501D01*
X193708Y30145D01*
X194617Y27950D01*
X196063Y26065D01*
X197948Y24618D01*
X200144Y23709D01*
X202499Y23399D01*
X204855Y23709D01*
X207050Y24618D01*
X208935Y26065D01*
X210382Y27950D01*
X211291Y30145D01*
X211601Y32501D01*
Y47501D01*
X211291Y49856D01*
X210382Y52052D01*
X208935Y53937D01*
X207050Y55383D01*
X205348Y56088D01*
Y69651D01*
X299651D01*
Y56088D01*
X297948Y55383D01*
X296063Y53937D01*
X294617Y52052D01*
X293708Y49856D01*
X293398Y47501D01*
Y32501D01*
X293708Y30145D01*
X294617Y27950D01*
X296063Y26065D01*
X297948Y24618D01*
X300144Y23709D01*
X302499Y23399D01*
X304855Y23709D01*
X307050Y24618D01*
X308935Y26065D01*
X310382Y27950D01*
X311291Y30145D01*
X311601Y32501D01*
Y47501D01*
X311291Y49856D01*
X310382Y52052D01*
X308935Y53937D01*
X307050Y55383D01*
X305348Y56088D01*
Y72500D01*
Y88912D01*
X307050Y89617D01*
X308935Y91063D01*
X310382Y92948D01*
X311291Y95144D01*
X311601Y97499D01*
Y112499D01*
X311291Y114855D01*
X310382Y117050D01*
X308935Y118935D01*
X307050Y120382D01*
X304855Y121291D01*
X302499Y121601D01*
X300144Y121291D01*
X297948Y120382D01*
X296063Y118935D01*
X294617Y117050D01*
X293708Y114855D01*
X293398Y112499D01*
Y97499D01*
X293708Y95144D01*
X294617Y92948D01*
X296063Y91063D01*
X297948Y89617D01*
X299651Y88912D01*
Y75349D01*
X205348D01*
Y88912D01*
X207050Y89617D01*
X208935Y91063D01*
X210382Y92948D01*
X211291Y95144D01*
X211601Y97499D01*
Y112499D01*
X211291Y114855D01*
X210382Y117050D01*
X208935Y118935D01*
X207050Y120382D01*
X204855Y121291D01*
X202499Y121601D01*
X200144Y121291D01*
X197948Y120382D01*
X196063Y118935D01*
X194617Y117050D01*
X193708Y114855D01*
X193398Y112499D01*
Y97499D01*
X193708Y95144D01*
X194617Y92948D01*
X196063Y91063D01*
X197948Y89617D01*
X199651Y88912D01*
Y75349D01*
X107848D01*
Y88912D01*
X109550Y89617D01*
X111435Y91063D01*
X112882Y92948D01*
X113791Y95144D01*
X114101Y97499D01*
Y112499D01*
X113791Y114855D01*
X112882Y117050D01*
X111435Y118935D01*
X109550Y120382D01*
X107355Y121291D01*
X104999Y121601D01*
X102644Y121291D01*
X100448Y120382D01*
X98563Y118935D01*
X97117Y117050D01*
X96208Y114855D01*
X95897Y112499D01*
Y110349D01*
X91180D01*
X85349Y116180D01*
Y156463D01*
X86522Y156949D01*
X93954Y149518D01*
X93866Y148634D01*
X92752Y146966D01*
X92614Y146270D01*
X97500D01*
Y145000D01*
X98770D01*
Y140114D01*
X99466Y140252D01*
X101134Y141366D01*
X101637Y142119D01*
X101704Y142074D01*
X102794Y141857D01*
X102794Y141857D01*
X188538D01*
X188866Y141366D01*
X190534Y140252D01*
X191230Y140114D01*
Y145000D01*
Y149886D01*
X190534Y149748D01*
X188866Y148634D01*
X188146Y147555D01*
X174617D01*
X173869Y148825D01*
X174103Y150000D01*
X173790Y151570D01*
X172901Y152901D01*
X171570Y153791D01*
X170000Y154103D01*
X168430Y153791D01*
X167099Y152901D01*
X167064Y152849D01*
X104427D01*
X93477Y163799D01*
Y170867D01*
X93260Y171957D01*
X92642Y172881D01*
X92642Y172881D01*
X75349Y190175D01*
Y228073D01*
X93578Y246302D01*
X93578Y246302D01*
X94196Y247227D01*
X94413Y248317D01*
Y320384D01*
X95919Y321891D01*
X97099Y322099D01*
X98430Y321209D01*
X100000Y320897D01*
X101570Y321209D01*
X102901Y322099D01*
X103791Y323430D01*
X104103Y325000D01*
X103791Y326570D01*
X102901Y327901D01*
X101570Y328791D01*
X100000Y329103D01*
X98430Y328791D01*
X97099Y327901D01*
X97064Y327849D01*
X95000D01*
X95000Y327849D01*
X93910Y327632D01*
X92986Y327014D01*
X92986Y327014D01*
X89550Y323578D01*
X88932Y322654D01*
X88715Y321564D01*
X88715Y321564D01*
Y289473D01*
X87542Y288987D01*
X87014Y289514D01*
X86396Y289928D01*
X86029Y292717D01*
X84826Y295620D01*
X82912Y298114D01*
X80419Y300028D01*
X77514Y301231D01*
X74398Y301641D01*
X66270D01*
Y289600D01*
Y277559D01*
X74398D01*
X77514Y277969D01*
X80419Y279172D01*
X82912Y281086D01*
X83449Y281785D01*
X84651Y281376D01*
Y270865D01*
X83381Y270434D01*
X82188Y271990D01*
X79906Y273740D01*
X77249Y274841D01*
X74398Y275216D01*
X55602D01*
X52751Y274841D01*
X50094Y273740D01*
X47812Y271990D01*
X46062Y269708D01*
X44961Y267051D01*
X44737Y265349D01*
X40000D01*
X39119Y265173D01*
X38365Y265552D01*
X37849Y265950D01*
Y293826D01*
X39119Y294352D01*
X42601Y290870D01*
X63730D01*
Y301641D01*
X55602D01*
X52485Y301231D01*
X49581Y300028D01*
X47088Y298114D01*
X46079Y296800D01*
X44812Y296717D01*
X42849Y298680D01*
Y379101D01*
X42926Y379217D01*
X43143Y380307D01*
X43143Y380307D01*
Y384114D01*
X58680Y399651D01*
X94932D01*
X95317Y398381D01*
X94599Y397901D01*
X93709Y396570D01*
X93397Y395000D01*
X93709Y393430D01*
X94599Y392099D01*
X95317Y391619D01*
X94932Y390349D01*
X73680D01*
X70861Y393168D01*
X70873Y393230D01*
X70561Y394800D01*
X69672Y396131D01*
X68341Y397020D01*
X66770Y397332D01*
X65200Y397020D01*
X63869Y396131D01*
X62980Y394800D01*
X62668Y393230D01*
X62980Y391660D01*
X63869Y390328D01*
X65200Y389439D01*
X66770Y389127D01*
X66832Y389139D01*
X70486Y385486D01*
X70486Y385486D01*
X71410Y384868D01*
X72500Y384651D01*
X72500Y384651D01*
X111320D01*
X115486Y380486D01*
X115486Y380486D01*
X116410Y379868D01*
X117500Y379651D01*
X126320D01*
X129651Y376320D01*
Y370000D01*
X129651Y370000D01*
X129868Y368910D01*
X130486Y367986D01*
X137986Y360486D01*
X137986Y360486D01*
X138295Y360279D01*
X137836Y359058D01*
X137500Y359103D01*
X135144Y358792D01*
X132949Y357883D01*
X131064Y356436D01*
X129617Y354551D01*
X128708Y352356D01*
X128398Y350000D01*
X128708Y347644D01*
X129617Y345449D01*
X131064Y343564D01*
X132949Y342117D01*
X134651Y341412D01*
Y332500D01*
X134651Y332500D01*
X134868Y331410D01*
X135486Y330486D01*
X136552Y329420D01*
X136080Y328112D01*
X135290Y327976D01*
X134070Y328791D01*
X132500Y329103D01*
X130930Y328791D01*
X129599Y327901D01*
X129119Y327183D01*
X127849Y327568D01*
Y335000D01*
X127632Y336090D01*
X127014Y337014D01*
X127014Y337014D01*
X121614Y342414D01*
X120690Y343032D01*
X119600Y343249D01*
X119600Y343249D01*
X85039D01*
X85039Y343251D01*
X83938Y345908D01*
X82188Y348190D01*
X79906Y349940D01*
X77249Y351041D01*
X74398Y351416D01*
X55602D01*
X52751Y351041D01*
X50094Y349940D01*
X47812Y348190D01*
X46062Y345908D01*
X44961Y343251D01*
X44586Y340400D01*
X44961Y337549D01*
X46062Y334892D01*
X47812Y332610D01*
X50094Y330860D01*
X52751Y329759D01*
X55602Y329384D01*
X74398D01*
X76311Y329636D01*
X76904Y328433D01*
X74477Y326006D01*
X74398Y326016D01*
X55602D01*
X52751Y325641D01*
X50094Y324540D01*
X47812Y322790D01*
X46062Y320508D01*
X44961Y317851D01*
X44586Y315000D01*
X44961Y312149D01*
X46062Y309492D01*
X47812Y307210D01*
X50094Y305460D01*
X52751Y304359D01*
X55602Y303984D01*
X74398D01*
X77249Y304359D01*
X79906Y305460D01*
X82188Y307210D01*
X83938Y309492D01*
X85039Y312149D01*
X85414Y315000D01*
X85039Y317851D01*
X83938Y320508D01*
X82188Y322790D01*
X81328Y323449D01*
X81245Y324716D01*
X90016Y333487D01*
X109984D01*
X118087Y325384D01*
Y305817D01*
X118087Y305817D01*
X118304Y304727D01*
X118922Y303802D01*
X133802Y288922D01*
X133802Y288922D01*
X134726Y288304D01*
X135817Y288087D01*
X135817Y288087D01*
X160696D01*
X161375Y286817D01*
X161209Y286569D01*
X160897Y284999D01*
X161209Y283429D01*
X162099Y282098D01*
X163430Y281209D01*
X165000Y280897D01*
X166570Y281209D01*
X167901Y282098D01*
X167936Y282151D01*
X202499D01*
X202499Y282151D01*
X203590Y282367D01*
X204514Y282985D01*
X205552Y284023D01*
X209114D01*
X209114Y284023D01*
X210204Y284240D01*
X210820Y284651D01*
X281320D01*
X287151Y278820D01*
Y163680D01*
X279819Y156348D01*
X274437D01*
X274402Y156400D01*
X273071Y157289D01*
X271501Y157602D01*
X269931Y157289D01*
X268600Y156400D01*
X267711Y155069D01*
X267398Y153499D01*
X267711Y151929D01*
X268600Y150598D01*
X269931Y149708D01*
X271501Y149396D01*
X273071Y149708D01*
X274402Y150598D01*
X274437Y150650D01*
X280999D01*
X280999Y150650D01*
X282089Y150867D01*
X283013Y151484D01*
X290881Y159353D01*
X292151Y158827D01*
Y151658D01*
X291366Y151134D01*
X290252Y149466D01*
X290123Y148817D01*
X289769Y148887D01*
Y144001D01*
Y139115D01*
X290465Y139254D01*
X292132Y140367D01*
X293246Y142035D01*
X293376Y142684D01*
X293730Y142614D01*
Y147500D01*
X295000D01*
Y148770D01*
X299886D01*
X299748Y149466D01*
X298634Y151134D01*
X297849Y151658D01*
Y284400D01*
X297632Y285490D01*
X297014Y286414D01*
X297014Y286414D01*
X282479Y300950D01*
X284432Y302903D01*
X284879Y302718D01*
X286230Y302540D01*
Y311230D01*
X277540D01*
X277718Y309879D01*
X278729Y307436D01*
X279675Y306204D01*
X277270Y303799D01*
X259770D01*
Y306490D01*
X247070D01*
Y300950D01*
Y295410D01*
X259770D01*
Y298101D01*
X277270D01*
X283605Y291766D01*
X283575Y291430D01*
X282500Y290349D01*
X282500Y290349D01*
X212532D01*
X212045Y291522D01*
X231325Y310801D01*
X232846D01*
Y309126D01*
X258754D01*
Y318174D01*
X232846D01*
Y316499D01*
X230145D01*
X230145Y316499D01*
X229054Y316282D01*
X228130Y315664D01*
X228130Y315664D01*
X220586Y308120D01*
X219413Y308606D01*
Y322884D01*
X220030Y323501D01*
X232846D01*
Y321826D01*
X258754D01*
Y330873D01*
X232846D01*
Y329198D01*
X218850D01*
X218850Y329198D01*
X217760Y328982D01*
X216835Y328364D01*
X216835Y328364D01*
X216522Y328051D01*
X215349Y328537D01*
Y368820D01*
X228680Y382151D01*
X280229D01*
X281064Y381064D01*
X282949Y379617D01*
X285144Y378708D01*
X287500Y378397D01*
X289856Y378708D01*
X292051Y379617D01*
X293936Y381064D01*
X295383Y382949D01*
X296292Y385144D01*
X296602Y387500D01*
X296292Y389856D01*
X295383Y392051D01*
X293936Y393936D01*
X292051Y395383D01*
X289856Y396292D01*
X287500Y396603D01*
X285144Y396292D01*
X282949Y395383D01*
X281064Y393936D01*
X279617Y392051D01*
X278708Y389856D01*
X278443Y387849D01*
X227500D01*
X227500Y387849D01*
X226410Y387632D01*
X225486Y387014D01*
X225486Y387014D01*
X210486Y372014D01*
X209868Y371090D01*
X209651Y370000D01*
X209651Y370000D01*
Y308680D01*
X204770Y303799D01*
X192155D01*
Y305473D01*
X166247D01*
Y305349D01*
X160436D01*
X160401Y305401D01*
X159070Y306290D01*
X157500Y306603D01*
X155930Y306290D01*
X154599Y305401D01*
X153709Y304070D01*
X153397Y302500D01*
X153709Y300930D01*
X154599Y299599D01*
X155317Y299119D01*
X154932Y297849D01*
X138680D01*
X133525Y303004D01*
X134244Y304080D01*
X135144Y303708D01*
X137500Y303398D01*
X139856Y303708D01*
X140326Y303902D01*
X141209Y303430D01*
X142099Y302099D01*
X143430Y301210D01*
X145000Y300897D01*
X146570Y301210D01*
X147901Y302099D01*
X148791Y303430D01*
X149103Y305000D01*
X148791Y306570D01*
X147901Y307901D01*
X147183Y308381D01*
X147568Y309651D01*
X166247D01*
Y309126D01*
X192155D01*
Y318174D01*
X166247D01*
Y315349D01*
X146088D01*
X145383Y317051D01*
X143936Y318936D01*
X142051Y320383D01*
X140848Y320881D01*
X141101Y322151D01*
X148650D01*
X148650Y322151D01*
X149740Y322368D01*
X150665Y322986D01*
X151180Y323501D01*
X166247D01*
Y321826D01*
X192155D01*
Y330873D01*
X166247D01*
Y329198D01*
X150000D01*
X150000Y329198D01*
X150000Y329198D01*
X144830D01*
X140349Y333680D01*
Y341412D01*
X142051Y342117D01*
X143936Y343564D01*
X145383Y345449D01*
X146292Y347644D01*
X146602Y350000D01*
X146292Y352356D01*
X145383Y354551D01*
X143936Y356436D01*
X142051Y357883D01*
X140848Y358381D01*
X141101Y359651D01*
X149651D01*
Y340000D01*
X149651Y340000D01*
X149868Y338910D01*
X150486Y337986D01*
X150910Y337562D01*
X150897Y337500D01*
X151209Y335930D01*
X152099Y334599D01*
X153430Y333709D01*
X155000Y333397D01*
X156570Y333709D01*
X157901Y334599D01*
X158791Y335930D01*
X159070Y337336D01*
X160000Y337151D01*
X166247D01*
Y334526D01*
X192155D01*
Y343573D01*
X166247D01*
Y342849D01*
X161180D01*
X160349Y343680D01*
Y365000D01*
X160349Y365000D01*
X160132Y366090D01*
X159514Y367014D01*
X157014Y369514D01*
X156090Y370132D01*
X155000Y370349D01*
X155000Y370349D01*
X143680D01*
X140349Y373680D01*
Y378912D01*
X142051Y379617D01*
X143936Y381064D01*
X145383Y382949D01*
X146292Y385144D01*
X146602Y387500D01*
X146292Y389856D01*
X145383Y392051D01*
X143936Y393936D01*
X142051Y395383D01*
X139856Y396292D01*
X137500Y396603D01*
X135144Y396292D01*
X132949Y395383D01*
X131064Y393936D01*
X129617Y392051D01*
X128912Y390349D01*
X121180D01*
X117014Y394514D01*
X116090Y395132D01*
X115000Y395349D01*
X115000Y395349D01*
X101533D01*
X101291Y396570D01*
X100401Y397901D01*
X99683Y398381D01*
X100068Y399651D01*
X102500D01*
X102500Y399651D01*
X103590Y399868D01*
X104514Y400486D01*
X122230Y418201D01*
Y422230D01*
D02*
G37*
G36*
X287500Y359103D02*
X285144Y358792D01*
X282949Y357883D01*
X281064Y356436D01*
X279617Y354551D01*
X278708Y352356D01*
X278398Y350000D01*
X278708Y347644D01*
X279413Y345942D01*
X273820Y340349D01*
X258754D01*
Y343573D01*
X232846D01*
Y334526D01*
X258754D01*
Y334651D01*
X275000D01*
X275000Y334651D01*
X276090Y334868D01*
X277014Y335486D01*
X283442Y341913D01*
X285144Y341208D01*
X287500Y340897D01*
X289856Y341208D01*
X292051Y342117D01*
X293936Y343564D01*
X295383Y345449D01*
X296292Y347644D01*
X296602Y350000D01*
X296292Y352356D01*
X295383Y354551D01*
X293936Y356436D01*
X292051Y357883D01*
X289856Y358792D01*
X287500Y359103D01*
D02*
G37*
G36*
X288770Y322460D02*
Y313770D01*
X297460D01*
X297282Y315121D01*
X296271Y317564D01*
X294661Y319661D01*
X292564Y321270D01*
X290121Y322282D01*
X288770Y322460D01*
D02*
G37*
G36*
X286230D02*
X284879Y322282D01*
X282436Y321270D01*
X280339Y319661D01*
X278729Y317564D01*
X277718Y315121D01*
X277540Y313770D01*
X286230D01*
Y322460D01*
D02*
G37*
G36*
X297460Y311230D02*
X288770D01*
Y302540D01*
X290121Y302718D01*
X292564Y303729D01*
X294661Y305339D01*
X296271Y307436D01*
X297282Y309879D01*
X297460Y311230D01*
D02*
G37*
G36*
X244530Y306490D02*
X231830D01*
Y302220D01*
X244530D01*
Y306490D01*
D02*
G37*
G36*
Y299680D02*
X231830D01*
Y295410D01*
X244530D01*
Y299680D01*
D02*
G37*
G36*
X63730Y288330D02*
X43728D01*
X43971Y286484D01*
X45174Y283580D01*
X47088Y281086D01*
X49581Y279172D01*
X52485Y277969D01*
X55602Y277559D01*
X63730D01*
Y288330D01*
D02*
G37*
G36*
X254024Y244024D02*
X140976D01*
Y170976D01*
X254024D01*
Y244024D01*
D02*
G37*
G36*
X299886Y146230D02*
X296270D01*
Y142614D01*
X296966Y142752D01*
X298634Y143866D01*
X299748Y145534D01*
X299886Y146230D01*
D02*
G37*
G36*
X96230Y143730D02*
X92614D01*
X92752Y143034D01*
X93866Y141366D01*
X95534Y140252D01*
X96230Y140114D01*
Y143730D01*
D02*
G37*
G36*
X193770Y149886D02*
Y145000D01*
Y140114D01*
X194466Y140252D01*
X196134Y141366D01*
X196658Y142151D01*
X283728D01*
X283751Y142035D01*
X284865Y140367D01*
X286532Y139254D01*
X287229Y139115D01*
Y144001D01*
Y148887D01*
X286532Y148749D01*
X285185Y147849D01*
X196658D01*
X196134Y148634D01*
X194466Y149748D01*
X193770Y149886D01*
D02*
G37*
G36*
X257501Y121601D02*
X255145Y121291D01*
X252950Y120382D01*
X251065Y118935D01*
X249618Y117050D01*
X248709Y114855D01*
X248399Y112499D01*
Y97499D01*
X248709Y95144D01*
X249618Y92948D01*
X251065Y91063D01*
X252950Y89617D01*
X255145Y88708D01*
X257501Y88398D01*
X259856Y88708D01*
X262052Y89617D01*
X263937Y91063D01*
X265383Y92948D01*
X266292Y95144D01*
X266602Y97499D01*
Y112499D01*
X266292Y114855D01*
X265383Y117050D01*
X263937Y118935D01*
X262052Y120382D01*
X259856Y121291D01*
X257501Y121601D01*
D02*
G37*
G36*
X157501D02*
X155145Y121291D01*
X152950Y120382D01*
X151065Y118935D01*
X149618Y117050D01*
X148709Y114855D01*
X148399Y112499D01*
Y97499D01*
X148709Y95144D01*
X149618Y92948D01*
X151065Y91063D01*
X152950Y89617D01*
X155145Y88708D01*
X157501Y88398D01*
X159856Y88708D01*
X162052Y89617D01*
X163937Y91063D01*
X165383Y92948D01*
X166292Y95144D01*
X166602Y97499D01*
Y112499D01*
X166292Y114855D01*
X165383Y117050D01*
X163937Y118935D01*
X162052Y120382D01*
X159856Y121291D01*
X157501Y121601D01*
D02*
G37*
G36*
X60001D02*
X57645Y121291D01*
X55450Y120382D01*
X53565Y118935D01*
X52118Y117050D01*
X51209Y114855D01*
X50899Y112499D01*
Y97499D01*
X51209Y95144D01*
X52118Y92948D01*
X53565Y91063D01*
X55450Y89617D01*
X57645Y88708D01*
X60001Y88398D01*
X62356Y88708D01*
X64552Y89617D01*
X66437Y91063D01*
X67883Y92948D01*
X68792Y95144D01*
X69103Y97499D01*
Y112499D01*
X68792Y114855D01*
X67883Y117050D01*
X66437Y118935D01*
X64552Y120382D01*
X62356Y121291D01*
X60001Y121601D01*
D02*
G37*
G36*
X257501Y56603D02*
X255145Y56292D01*
X252950Y55383D01*
X251065Y53937D01*
X249618Y52052D01*
X248709Y49856D01*
X248399Y47501D01*
Y32501D01*
X248709Y30145D01*
X249618Y27950D01*
X251065Y26065D01*
X252950Y24618D01*
X255145Y23709D01*
X257501Y23399D01*
X259856Y23709D01*
X262052Y24618D01*
X263937Y26065D01*
X265383Y27950D01*
X266292Y30145D01*
X266602Y32501D01*
Y47501D01*
X266292Y49856D01*
X265383Y52052D01*
X263937Y53937D01*
X262052Y55383D01*
X259856Y56292D01*
X257501Y56603D01*
D02*
G37*
G36*
X157501D02*
X155145Y56292D01*
X152950Y55383D01*
X151065Y53937D01*
X149618Y52052D01*
X148709Y49856D01*
X148399Y47501D01*
Y32501D01*
X148709Y30145D01*
X149618Y27950D01*
X151065Y26065D01*
X152950Y24618D01*
X155145Y23709D01*
X157501Y23399D01*
X159856Y23709D01*
X162052Y24618D01*
X163937Y26065D01*
X165383Y27950D01*
X166292Y30145D01*
X166602Y32501D01*
Y47501D01*
X166292Y49856D01*
X165383Y52052D01*
X163937Y53937D01*
X162052Y55383D01*
X159856Y56292D01*
X157501Y56603D01*
D02*
G37*
G36*
X60001D02*
X57645Y56292D01*
X55450Y55383D01*
X53565Y53937D01*
X52118Y52052D01*
X51209Y49856D01*
X50899Y47501D01*
Y32501D01*
X51209Y30145D01*
X52118Y27950D01*
X53565Y26065D01*
X55450Y24618D01*
X57645Y23709D01*
X60001Y23399D01*
X62356Y23709D01*
X64552Y24618D01*
X66437Y26065D01*
X67883Y27950D01*
X68792Y30145D01*
X69103Y32501D01*
Y47501D01*
X68792Y49856D01*
X67883Y52052D01*
X66437Y53937D01*
X64552Y55383D01*
X62356Y56292D01*
X60001Y56603D01*
D02*
G37*
%LPD*%
G36*
X46062Y258692D02*
X47812Y256410D01*
X50094Y254660D01*
X52751Y253559D01*
X55602Y253184D01*
X74398D01*
X77249Y253559D01*
X79906Y254660D01*
X82188Y256410D01*
X83381Y257966D01*
X84651Y257535D01*
Y251180D01*
X76320Y242849D01*
X62500D01*
X62500Y242849D01*
X61410Y242632D01*
X60486Y242014D01*
X60486Y242014D01*
X49511Y231039D01*
X32461D01*
Y208770D01*
X51000D01*
Y206230D01*
X32461D01*
Y185727D01*
X31288Y185241D01*
X30349Y186180D01*
Y248820D01*
X37014Y255486D01*
X37014Y255486D01*
X41180Y259651D01*
X45664D01*
X46062Y258692D01*
D02*
G37*
D30*
X35000Y257500D02*
X40000Y262500D01*
X27500Y250000D02*
X35000Y257500D01*
X40000Y384987D02*
Y385000D01*
Y384987D02*
X40294Y384693D01*
Y380307D02*
Y384693D01*
X40000Y380013D02*
X40294Y380307D01*
X40000Y297500D02*
Y380013D01*
X35000Y257500D02*
Y382500D01*
X245800Y339050D02*
X247349Y337500D01*
X275000D01*
X287500Y350000D01*
X177651Y302500D02*
X179201Y300950D01*
X157500Y302500D02*
X177651D01*
X165000Y284999D02*
X202499D01*
X204372Y286872D01*
X137500Y295000D02*
X205747D01*
X135817Y290936D02*
X207431D01*
X204372Y286872D02*
X209114D01*
X209742Y287500D01*
X282500D01*
X290000Y280000D01*
Y162500D02*
Y280000D01*
X280999Y153499D02*
X290000Y162500D01*
X271501Y153499D02*
X280999D01*
X150000Y326350D02*
X179201D01*
X143650D02*
X150000D01*
X148650Y325000D02*
X150000Y326350D01*
X132500Y325000D02*
X148650D01*
X95000D02*
X100000D01*
X91564Y321564D02*
X95000Y325000D01*
X91564Y248317D02*
Y321564D01*
X72500Y229253D02*
X91564Y248317D01*
X72500Y188995D02*
Y229253D01*
Y188995D02*
X90628Y170867D01*
Y162619D02*
Y170867D01*
Y162619D02*
X103247Y150000D01*
X170000D01*
X70000Y180000D02*
X82500Y167500D01*
Y115000D02*
Y167500D01*
X102794Y144706D02*
X192206D01*
X192500Y145000D01*
X102500D02*
X102794Y144706D01*
X72500Y145000D02*
Y170000D01*
X66564Y175936D02*
X72500Y170000D01*
X30817Y175936D02*
X66564D01*
X23436Y183317D02*
X30817Y175936D01*
X23436Y183317D02*
Y251683D01*
X27500Y255747D01*
Y262500D01*
X137500Y312500D02*
X145000Y305000D01*
X125000Y307500D02*
X137500Y295000D01*
X205747D02*
X216564Y305817D01*
X120936D02*
X135817Y290936D01*
X207431D02*
X230145Y313650D01*
X47900Y289600D02*
X65000D01*
X40000Y297500D02*
X47900Y289600D01*
X40000Y385000D02*
X57500Y402500D01*
X102500D01*
X123500Y423500D01*
X72500Y387500D02*
X112500D01*
X66770Y393230D02*
X72500Y387500D01*
X230145Y313650D02*
X245800D01*
X120936Y305817D02*
Y326564D01*
X111164Y336336D02*
X120936Y326564D01*
X88836Y336336D02*
X111164D01*
X67500Y315000D02*
X88836Y336336D01*
X65000Y315000D02*
X67500D01*
X65000Y340400D02*
X119600D01*
X125000Y335000D01*
Y307500D02*
Y335000D01*
X216564Y305817D02*
Y324064D01*
X218850Y326350D01*
X245800D01*
X285000Y385000D02*
X287500Y387500D01*
X227500Y385000D02*
X285000D01*
X212500Y370000D02*
X227500Y385000D01*
X212500Y307500D02*
Y370000D01*
X205950Y300950D02*
X212500Y307500D01*
X179201Y300950D02*
X205950D01*
X342500Y209000D02*
X344000Y207500D01*
X342500Y209000D02*
Y330000D01*
X152500Y340000D02*
X155000Y337500D01*
X160000Y340000D02*
X178251D01*
X157500Y342500D02*
X160000Y340000D01*
X157500Y342500D02*
Y365000D01*
X155000Y367500D02*
X157500Y365000D01*
X152500Y340000D02*
Y362500D01*
X140000D02*
X152500D01*
X132500Y370000D02*
X140000Y362500D01*
X132500Y370000D02*
Y377500D01*
X127500Y382500D02*
X132500Y377500D01*
X117500Y382500D02*
X127500D01*
X112500Y387500D02*
X117500Y382500D01*
X302499Y72500D02*
Y104999D01*
Y40001D02*
Y72500D01*
X202499D02*
X302499D01*
X202499D02*
Y104999D01*
Y40001D02*
Y72500D01*
X104999D02*
Y104999D01*
Y40001D02*
Y72500D01*
X202499D01*
X97500Y145000D02*
X102500D01*
X86564Y160936D02*
X102500Y145000D01*
X51000Y196500D02*
Y207500D01*
Y196500D02*
X63436Y184064D01*
X71683D01*
X86564Y169183D01*
Y160936D02*
Y169183D01*
X51000Y207500D02*
Y228500D01*
X62500Y240000D01*
X77500D01*
X87500Y250000D01*
Y285000D01*
X85000Y287500D02*
X87500Y285000D01*
X67100Y287500D02*
X85000D01*
X65000Y289600D02*
X67100Y287500D01*
X63300Y262500D02*
X65000Y264200D01*
X40000Y262500D02*
X63300D01*
X27500Y185000D02*
Y250000D01*
Y185000D02*
X32500Y180000D01*
X70000D01*
X82500Y115000D02*
X90000Y107500D01*
X102499D01*
X104999Y104999D01*
X192500Y145000D02*
X287500D01*
X288499Y144001D01*
X295000Y147500D02*
Y284400D01*
X278450Y300950D02*
X295000Y284400D01*
X245800Y300950D02*
X278450D01*
X287500Y310000D02*
Y312500D01*
X278450Y300950D02*
X287500Y310000D01*
X178051Y312500D02*
X179201Y313650D01*
X137500Y312500D02*
X178051D01*
X137500Y332500D02*
Y350000D01*
Y332500D02*
X143650Y326350D01*
X97500Y395000D02*
X100000Y392500D01*
X115000D01*
X120000Y387500D01*
X137500D01*
Y372500D02*
Y387500D01*
Y372500D02*
X142500Y367500D01*
X155000D01*
X178251Y340000D02*
X179201Y339050D01*
D31*
X65000Y264200D02*
D03*
Y289600D02*
D03*
Y315000D02*
D03*
Y340400D02*
D03*
D32*
X59999Y430000D02*
D03*
X90001D02*
D03*
D33*
X202499Y104999D02*
D03*
Y40001D02*
D03*
X157501Y104999D02*
D03*
Y40001D02*
D03*
X60001D02*
D03*
Y104999D02*
D03*
X104999Y40001D02*
D03*
Y104999D02*
D03*
X302499D02*
D03*
Y40001D02*
D03*
X257501Y104999D02*
D03*
Y40001D02*
D03*
D34*
X35000Y382500D02*
D03*
X157500Y302500D02*
D03*
X165000Y284999D02*
D03*
X271501Y153499D02*
D03*
X132500Y325000D02*
D03*
X100000D02*
D03*
X170000Y150000D02*
D03*
X72500Y145000D02*
D03*
X27500Y262500D02*
D03*
X145000Y305000D02*
D03*
X123500Y423500D02*
D03*
X342500Y330000D02*
D03*
X155000Y337500D02*
D03*
X66770Y393230D02*
D03*
X97500Y145000D02*
D03*
X192500D02*
D03*
X288499Y144001D02*
D03*
X295000Y147500D02*
D03*
X97500Y395000D02*
D03*
D35*
X287500Y350000D02*
D03*
X137500Y387500D02*
D03*
Y350000D02*
D03*
Y312500D02*
D03*
X287500Y387500D02*
D03*
D36*
Y312500D02*
D03*
D37*
X344000Y207500D02*
D03*
X51000D02*
D03*
D38*
X197500D02*
D03*
D39*
X179201Y300950D02*
D03*
Y313650D02*
D03*
Y339050D02*
D03*
X245800Y300950D02*
D03*
Y313650D02*
D03*
Y339050D02*
D03*
X179201Y326350D02*
D03*
X245800D02*
D03*
M02*
