G04 Layer_Color=16711935*
%FSLAX25Y25*%
%MOIN*%
G70*
G01*
G75*
%ADD37C,0.06800*%
%ADD38C,0.06706*%
%ADD39R,0.06706X0.06706*%
%ADD40O,0.06706X0.12611*%
%ADD41C,0.03950*%
%ADD42O,0.15600X0.08200*%
%ADD43C,0.02768*%
%ADD44R,0.13398X0.17335*%
%ADD45R,0.44107X0.28359*%
D37*
X128937Y163386D02*
D03*
D38*
X6890Y96653D02*
D03*
Y106653D02*
D03*
Y116654D02*
D03*
Y126654D02*
D03*
Y136653D02*
D03*
D39*
Y146653D02*
D03*
D40*
X79724Y41338D02*
D03*
Y15748D02*
D03*
X62008Y41338D02*
D03*
Y15748D02*
D03*
X23622D02*
D03*
Y41338D02*
D03*
X41338Y15748D02*
D03*
Y41338D02*
D03*
X119094D02*
D03*
Y15748D02*
D03*
X101378Y41338D02*
D03*
Y15748D02*
D03*
D41*
X35434Y169291D02*
D03*
X23622D02*
D03*
D42*
X28701Y102323D02*
D03*
Y112323D02*
D03*
Y122323D02*
D03*
Y132323D02*
D03*
D43*
X6890Y153543D02*
D03*
X29528Y143701D02*
D03*
X124016Y88583D02*
D03*
X19685Y126969D02*
D03*
X45276Y107283D02*
D03*
X34449Y48228D02*
D03*
X80709Y57087D02*
D03*
X19685Y96457D02*
D03*
X38386Y109252D02*
D03*
X35826Y59646D02*
D03*
X39370Y60039D02*
D03*
D44*
X135433Y81693D02*
D03*
X20079D02*
D03*
D45*
X77756D02*
D03*
M02*
