G04*
G04 #@! TF.GenerationSoftware,Altium Limited,Altium Designer,18.0.9 (584)*
G04*
G04 Layer_Color=32896*
%FSLAX44Y44*%
%MOMM*%
G71*
G01*
G75*
%ADD10C,0.2032*%
%ADD12C,0.1270*%
%ADD30C,0.2540*%
G36*
X120936Y310000D02*
X119866D01*
X119732Y315097D01*
X119703Y317147D01*
X119316Y315869D01*
X118157Y312704D01*
X117370D01*
X116137Y316003D01*
X115750Y317147D01*
X115676Y315186D01*
X115513Y310000D01*
X114413D01*
X114814Y318291D01*
X116181D01*
X117370Y315156D01*
X117712Y314101D01*
X118083Y315156D01*
X119198Y318291D01*
X120535D01*
X120936Y310000D01*
D02*
G37*
G36*
X113016Y317340D02*
X111099D01*
Y310966D01*
X113016D01*
Y310000D01*
X108038D01*
Y310966D01*
X109955D01*
Y317340D01*
X108038D01*
Y318291D01*
X113016D01*
Y317340D01*
D02*
G37*
G36*
X103373Y318395D02*
X103625Y318381D01*
X103863Y318351D01*
X104071Y318306D01*
X104235Y318262D01*
X104368Y318232D01*
X104443Y318217D01*
X104472Y318202D01*
X104680Y318128D01*
X104873Y318039D01*
X105037Y317950D01*
X105171Y317875D01*
X105289Y317801D01*
X105364Y317742D01*
X105423Y317697D01*
X105438Y317682D01*
X105572Y317563D01*
X105676Y317444D01*
X105780Y317311D01*
X105854Y317207D01*
X105914Y317103D01*
X105958Y317028D01*
X105973Y316969D01*
X105988Y316954D01*
X106047Y316805D01*
X106077Y316642D01*
X106107Y316508D01*
X106136Y316389D01*
Y316271D01*
X106151Y316196D01*
Y316137D01*
Y316122D01*
X106136Y315944D01*
X106122Y315780D01*
X106092Y315632D01*
X106062Y315513D01*
X106032Y315409D01*
X106003Y315334D01*
X105973Y315290D01*
Y315275D01*
X105809Y315022D01*
X105735Y314918D01*
X105661Y314829D01*
X105587Y314755D01*
X105527Y314695D01*
X105498Y314666D01*
X105483Y314651D01*
X105245Y314473D01*
X105022Y314324D01*
X104918Y314265D01*
X104844Y314220D01*
X104799Y314205D01*
X104784Y314190D01*
X104502Y314056D01*
X104368Y313997D01*
X104249Y313938D01*
X104145Y313893D01*
X104071Y313863D01*
X104012Y313848D01*
X103997Y313834D01*
X103700Y313715D01*
X103566Y313655D01*
X103432Y313611D01*
X103343Y313566D01*
X103254Y313536D01*
X103209Y313522D01*
X103194Y313507D01*
X102927Y313388D01*
X102808Y313328D01*
X102704Y313284D01*
X102630Y313239D01*
X102555Y313195D01*
X102526Y313180D01*
X102511Y313165D01*
X102303Y313031D01*
X102139Y312897D01*
X102080Y312838D01*
X102035Y312794D01*
X102021Y312764D01*
X102006Y312749D01*
X101946Y312660D01*
X101887Y312556D01*
X101842Y312377D01*
X101827Y312288D01*
X101812Y312229D01*
Y312184D01*
Y312169D01*
X101827Y311947D01*
X101872Y311783D01*
X101887Y311709D01*
X101917Y311664D01*
X101931Y311635D01*
Y311620D01*
X102035Y311456D01*
X102154Y311322D01*
X102243Y311233D01*
X102273Y311218D01*
X102288Y311204D01*
X102481Y311100D01*
X102689Y311010D01*
X102778Y310996D01*
X102853Y310966D01*
X102897Y310951D01*
X102912D01*
X103061Y310921D01*
X103224Y310906D01*
X103373Y310891D01*
X103521D01*
X103655Y310877D01*
X104130D01*
X104383Y310891D01*
X104606Y310906D01*
X104814Y310921D01*
X104977Y310936D01*
X105096Y310951D01*
X105171Y310966D01*
X105200D01*
X105408Y311010D01*
X105616Y311055D01*
X105795Y311100D01*
X105943Y311159D01*
X106077Y311204D01*
X106166Y311233D01*
X106241Y311248D01*
X106255Y311263D01*
Y310178D01*
X106092Y310134D01*
X105943Y310104D01*
X105869Y310089D01*
X105824Y310074D01*
X105795Y310059D01*
X105780D01*
X105572Y310015D01*
X105393Y310000D01*
X105319Y309985D01*
X105260Y309970D01*
X105215D01*
X104992Y309955D01*
X104784Y309926D01*
X104710D01*
X104650Y309911D01*
X104591D01*
X104353Y309896D01*
X104235D01*
X104130Y309881D01*
X103655D01*
X103402Y309896D01*
X103180Y309926D01*
X102986Y309955D01*
X102823Y309970D01*
X102704Y310000D01*
X102630Y310015D01*
X102600D01*
X102377Y310074D01*
X102184Y310149D01*
X102006Y310223D01*
X101857Y310297D01*
X101723Y310357D01*
X101634Y310416D01*
X101575Y310446D01*
X101560Y310461D01*
X101411Y310579D01*
X101278Y310698D01*
X101159Y310832D01*
X101069Y310951D01*
X100995Y311040D01*
X100936Y311129D01*
X100906Y311189D01*
X100891Y311204D01*
X100802Y311382D01*
X100743Y311560D01*
X100698Y311724D01*
X100668Y311887D01*
X100653Y312036D01*
X100639Y312140D01*
Y312214D01*
Y312244D01*
X100653Y312422D01*
X100668Y312586D01*
X100698Y312734D01*
X100728Y312853D01*
X100772Y312957D01*
X100802Y313031D01*
X100817Y313076D01*
X100832Y313091D01*
X100995Y313343D01*
X101069Y313462D01*
X101159Y313551D01*
X101233Y313626D01*
X101278Y313685D01*
X101322Y313715D01*
X101337Y313730D01*
X101575Y313908D01*
X101783Y314056D01*
X101887Y314116D01*
X101961Y314160D01*
X102006Y314175D01*
X102021Y314190D01*
X102303Y314324D01*
X102437Y314383D01*
X102570Y314443D01*
X102674Y314487D01*
X102749Y314517D01*
X102808Y314547D01*
X102823D01*
X103120Y314681D01*
X103254Y314725D01*
X103373Y314785D01*
X103462Y314814D01*
X103536Y314844D01*
X103596Y314874D01*
X103610D01*
X103878Y314993D01*
X103997Y315052D01*
X104101Y315112D01*
X104190Y315156D01*
X104249Y315186D01*
X104294Y315201D01*
X104309Y315215D01*
X104517Y315364D01*
X104665Y315498D01*
X104725Y315557D01*
X104769Y315602D01*
X104784Y315632D01*
X104799Y315646D01*
X104859Y315750D01*
X104903Y315840D01*
X104948Y316033D01*
X104963Y316107D01*
X104977Y316166D01*
Y316211D01*
Y316226D01*
X104963Y316419D01*
X104903Y316597D01*
X104829Y316746D01*
X104755Y316865D01*
X104665Y316969D01*
X104606Y317043D01*
X104546Y317088D01*
X104532Y317103D01*
X104339Y317207D01*
X104116Y317296D01*
X103878Y317355D01*
X103640Y317385D01*
X103432Y317415D01*
X103269Y317430D01*
X103105D01*
X102763Y317415D01*
X102600Y317400D01*
X102451D01*
X102332Y317385D01*
X102243Y317370D01*
X102169Y317355D01*
X102154D01*
X101798Y317296D01*
X101634Y317251D01*
X101486Y317222D01*
X101352Y317192D01*
X101263Y317177D01*
X101188Y317147D01*
X101173D01*
Y318158D01*
X101337Y318187D01*
X101486Y318217D01*
X101545Y318232D01*
X101590Y318247D01*
X101634D01*
X101812Y318277D01*
X101961Y318306D01*
X102035D01*
X102080Y318321D01*
X102125D01*
X102303Y318351D01*
X102466Y318366D01*
X102541Y318381D01*
X102630D01*
X102793Y318395D01*
X102942Y318410D01*
X103076D01*
X103373Y318395D01*
D02*
G37*
G36*
X96433D02*
X96656Y318366D01*
X96879Y318321D01*
X97058Y318277D01*
X97221Y318232D01*
X97340Y318187D01*
X97414Y318158D01*
X97444Y318143D01*
X97652Y318039D01*
X97860Y317920D01*
X98038Y317786D01*
X98187Y317652D01*
X98306Y317533D01*
X98410Y317444D01*
X98469Y317385D01*
X98484Y317355D01*
X98647Y317147D01*
X98781Y316924D01*
X98900Y316701D01*
X99004Y316493D01*
X99093Y316300D01*
X99153Y316152D01*
X99168Y316092D01*
X99182Y316048D01*
X99197Y316033D01*
Y316018D01*
X99286Y315706D01*
X99346Y315379D01*
X99390Y315052D01*
X99420Y314755D01*
X99435Y314487D01*
Y314383D01*
X99450Y314279D01*
Y314205D01*
Y314146D01*
Y314116D01*
Y314101D01*
X99435Y313745D01*
X99420Y313403D01*
X99390Y313106D01*
X99361Y312838D01*
X99331Y312615D01*
X99316Y312526D01*
X99301Y312452D01*
X99286Y312392D01*
X99272Y312348D01*
Y312333D01*
Y312318D01*
X99197Y312036D01*
X99093Y311783D01*
X99004Y311560D01*
X98915Y311367D01*
X98826Y311204D01*
X98751Y311100D01*
X98707Y311025D01*
X98692Y310996D01*
X98529Y310802D01*
X98365Y310639D01*
X98202Y310490D01*
X98038Y310371D01*
X97905Y310282D01*
X97801Y310223D01*
X97726Y310178D01*
X97697Y310163D01*
X97459Y310074D01*
X97221Y310000D01*
X96998Y309955D01*
X96775Y309911D01*
X96582Y309896D01*
X96433Y309881D01*
X96300D01*
X96047Y309896D01*
X95824Y309926D01*
X95601Y309955D01*
X95423Y310015D01*
X95260Y310059D01*
X95141Y310089D01*
X95066Y310119D01*
X95037Y310134D01*
X94814Y310238D01*
X94621Y310357D01*
X94427Y310490D01*
X94279Y310624D01*
X94160Y310743D01*
X94056Y310832D01*
X93997Y310891D01*
X93982Y310921D01*
X93818Y311129D01*
X93685Y311352D01*
X93566Y311575D01*
X93462Y311798D01*
X93373Y311976D01*
X93313Y312125D01*
X93298Y312184D01*
X93283Y312229D01*
X93268Y312244D01*
Y312259D01*
X93179Y312571D01*
X93120Y312912D01*
X93061Y313224D01*
X93031Y313536D01*
X93016Y313789D01*
Y313908D01*
X93001Y313997D01*
Y314086D01*
Y314146D01*
Y314175D01*
Y314190D01*
X93016Y314547D01*
X93031Y314874D01*
X93061Y315171D01*
X93105Y315438D01*
X93150Y315646D01*
X93179Y315810D01*
X93194Y315869D01*
Y315914D01*
X93209Y315929D01*
Y315944D01*
X93283Y316226D01*
X93387Y316479D01*
X93477Y316701D01*
X93581Y316895D01*
X93670Y317058D01*
X93744Y317177D01*
X93789Y317236D01*
X93804Y317266D01*
X93952Y317459D01*
X94115Y317638D01*
X94279Y317771D01*
X94442Y317890D01*
X94576Y317994D01*
X94680Y318054D01*
X94754Y318098D01*
X94784Y318113D01*
X95007Y318217D01*
X95260Y318291D01*
X95483Y318336D01*
X95705Y318381D01*
X95899Y318395D01*
X96047Y318410D01*
X96181D01*
X96433Y318395D01*
D02*
G37*
G36*
X105408Y350000D02*
X104279D01*
Y354057D01*
X101174Y350000D01*
X99762D01*
X103180Y354339D01*
X99911Y358291D01*
X101248D01*
X104279Y354428D01*
Y358291D01*
X105408D01*
Y350000D01*
D02*
G37*
G36*
X109584Y358381D02*
X109866Y358351D01*
X110134Y358291D01*
X110357Y358247D01*
X110535Y358187D01*
X110683Y358128D01*
X110772Y358098D01*
X110787Y358083D01*
X110802D01*
X111055Y357950D01*
X111278Y357816D01*
X111471Y357667D01*
X111649Y357533D01*
X111783Y357400D01*
X111887Y357296D01*
X111946Y357236D01*
X111976Y357207D01*
X112140Y356984D01*
X112288Y356761D01*
X112422Y356538D01*
X112526Y356315D01*
X112615Y356122D01*
X112675Y355973D01*
X112689Y355914D01*
X112704Y355869D01*
X112719Y355854D01*
Y355840D01*
X112808Y355528D01*
X112868Y355215D01*
X112912Y354918D01*
X112942Y354636D01*
X112957Y354398D01*
Y354294D01*
X112972Y354205D01*
Y354146D01*
Y354086D01*
Y354057D01*
Y354042D01*
X112957Y353670D01*
X112927Y353314D01*
X112882Y352987D01*
X112823Y352690D01*
X112749Y352407D01*
X112675Y352155D01*
X112585Y351932D01*
X112496Y351724D01*
X112422Y351530D01*
X112333Y351382D01*
X112258Y351248D01*
X112184Y351129D01*
X112125Y351040D01*
X112080Y350981D01*
X112050Y350951D01*
X112036Y350936D01*
X111857Y350758D01*
X111649Y350594D01*
X111441Y350461D01*
X111218Y350342D01*
X110995Y350238D01*
X110772Y350149D01*
X110550Y350074D01*
X110327Y350030D01*
X110134Y349985D01*
X109940Y349955D01*
X109762Y349926D01*
X109628Y349911D01*
X109495Y349896D01*
X109331D01*
X108930Y349911D01*
X108544Y349955D01*
X108187Y350030D01*
X107875Y350104D01*
X107741Y350149D01*
X107608Y350178D01*
X107504Y350223D01*
X107414Y350253D01*
X107340Y350267D01*
X107281Y350297D01*
X107251Y350312D01*
X107236D01*
Y351382D01*
X107578Y351233D01*
X107741Y351159D01*
X107890Y351114D01*
X108009Y351070D01*
X108098Y351055D01*
X108157Y351025D01*
X108187D01*
X108559Y350951D01*
X108722Y350936D01*
X108871Y350921D01*
X109004Y350906D01*
X109198D01*
X109420Y350921D01*
X109643Y350936D01*
X110030Y351040D01*
X110357Y351159D01*
X110624Y351323D01*
X110743Y351397D01*
X110847Y351471D01*
X110921Y351530D01*
X110995Y351590D01*
X111040Y351649D01*
X111085Y351694D01*
X111099Y351709D01*
X111114Y351724D01*
X111233Y351887D01*
X111322Y352065D01*
X111486Y352452D01*
X111605Y352853D01*
X111679Y353239D01*
X111709Y353418D01*
X111738Y353596D01*
X111753Y353745D01*
Y353878D01*
X111768Y353997D01*
Y354071D01*
Y354131D01*
Y354146D01*
X111753Y354428D01*
X111738Y354681D01*
X111709Y354918D01*
X111679Y355126D01*
X111649Y355290D01*
X111634Y355409D01*
X111605Y355483D01*
Y355513D01*
X111530Y355721D01*
X111456Y355929D01*
X111367Y356092D01*
X111278Y356241D01*
X111218Y356360D01*
X111159Y356449D01*
X111114Y356508D01*
X111099Y356523D01*
X110966Y356672D01*
X110832Y356805D01*
X110683Y356909D01*
X110564Y356999D01*
X110446Y357073D01*
X110357Y357118D01*
X110297Y357147D01*
X110282Y357162D01*
X110104Y357236D01*
X109911Y357296D01*
X109732Y357326D01*
X109569Y357355D01*
X109435Y357370D01*
X109331Y357385D01*
X109019D01*
X108826Y357370D01*
X108648Y357340D01*
X108499Y357326D01*
X108365Y357296D01*
X108276Y357266D01*
X108202Y357251D01*
X108187D01*
X107830Y357132D01*
X107667Y357073D01*
X107533Y357014D01*
X107414Y356969D01*
X107310Y356924D01*
X107251Y356895D01*
X107236Y356880D01*
Y357994D01*
X107578Y358128D01*
X107741Y358172D01*
X107890Y358217D01*
X108024Y358247D01*
X108113Y358276D01*
X108172Y358291D01*
X108202D01*
X108573Y358351D01*
X108752Y358366D01*
X108915Y358381D01*
X109064Y358395D01*
X109272D01*
X109584Y358381D01*
D02*
G37*
G36*
X117117Y358395D02*
X117370Y358381D01*
X117608Y358351D01*
X117816Y358306D01*
X117979Y358262D01*
X118113Y358232D01*
X118187Y358217D01*
X118217Y358202D01*
X118425Y358128D01*
X118618Y358039D01*
X118782Y357950D01*
X118915Y357875D01*
X119034Y357801D01*
X119108Y357742D01*
X119168Y357697D01*
X119183Y357682D01*
X119317Y357563D01*
X119420Y357444D01*
X119524Y357311D01*
X119599Y357207D01*
X119658Y357103D01*
X119703Y357028D01*
X119718Y356969D01*
X119733Y356954D01*
X119792Y356805D01*
X119822Y356642D01*
X119851Y356508D01*
X119881Y356389D01*
Y356270D01*
X119896Y356196D01*
Y356137D01*
Y356122D01*
X119881Y355944D01*
X119866Y355780D01*
X119837Y355632D01*
X119807Y355513D01*
X119777Y355409D01*
X119747Y355334D01*
X119718Y355290D01*
Y355275D01*
X119554Y355022D01*
X119480Y354918D01*
X119406Y354829D01*
X119331Y354755D01*
X119272Y354696D01*
X119242Y354666D01*
X119227Y354651D01*
X118990Y354473D01*
X118767Y354324D01*
X118663Y354264D01*
X118588Y354220D01*
X118544Y354205D01*
X118529Y354190D01*
X118247Y354057D01*
X118113Y353997D01*
X117994Y353938D01*
X117890Y353893D01*
X117816Y353863D01*
X117756Y353848D01*
X117741Y353834D01*
X117444Y353715D01*
X117310Y353655D01*
X117177Y353611D01*
X117088Y353566D01*
X116999Y353536D01*
X116954Y353522D01*
X116939Y353507D01*
X116672Y353388D01*
X116553Y353328D01*
X116449Y353284D01*
X116374Y353239D01*
X116300Y353195D01*
X116270Y353180D01*
X116256Y353165D01*
X116047Y353031D01*
X115884Y352897D01*
X115825Y352838D01*
X115780Y352794D01*
X115765Y352764D01*
X115750Y352749D01*
X115691Y352660D01*
X115631Y352556D01*
X115587Y352378D01*
X115572Y352288D01*
X115557Y352229D01*
Y352184D01*
Y352169D01*
X115572Y351946D01*
X115617Y351783D01*
X115631Y351709D01*
X115661Y351664D01*
X115676Y351634D01*
Y351620D01*
X115780Y351456D01*
X115899Y351323D01*
X115988Y351233D01*
X116018Y351218D01*
X116033Y351204D01*
X116226Y351100D01*
X116434Y351010D01*
X116523Y350996D01*
X116597Y350966D01*
X116642Y350951D01*
X116657D01*
X116805Y350921D01*
X116969Y350906D01*
X117117Y350892D01*
X117266D01*
X117400Y350877D01*
X117875D01*
X118128Y350892D01*
X118351Y350906D01*
X118559Y350921D01*
X118722Y350936D01*
X118841Y350951D01*
X118915Y350966D01*
X118945D01*
X119153Y351010D01*
X119361Y351055D01*
X119539Y351100D01*
X119688Y351159D01*
X119822Y351204D01*
X119911Y351233D01*
X119985Y351248D01*
X120000Y351263D01*
Y350178D01*
X119837Y350134D01*
X119688Y350104D01*
X119614Y350089D01*
X119569Y350074D01*
X119539Y350059D01*
X119524D01*
X119317Y350015D01*
X119138Y350000D01*
X119064Y349985D01*
X119004Y349970D01*
X118960D01*
X118737Y349955D01*
X118529Y349926D01*
X118455D01*
X118395Y349911D01*
X118336D01*
X118098Y349896D01*
X117979D01*
X117875Y349881D01*
X117400D01*
X117147Y349896D01*
X116924Y349926D01*
X116731Y349955D01*
X116568Y349970D01*
X116449Y350000D01*
X116374Y350015D01*
X116345D01*
X116122Y350074D01*
X115929Y350149D01*
X115750Y350223D01*
X115602Y350297D01*
X115468Y350357D01*
X115379Y350416D01*
X115319Y350446D01*
X115304Y350461D01*
X115156Y350579D01*
X115022Y350698D01*
X114903Y350832D01*
X114814Y350951D01*
X114740Y351040D01*
X114681Y351129D01*
X114651Y351189D01*
X114636Y351204D01*
X114547Y351382D01*
X114487Y351560D01*
X114443Y351724D01*
X114413Y351887D01*
X114398Y352036D01*
X114383Y352140D01*
Y352214D01*
Y352244D01*
X114398Y352422D01*
X114413Y352585D01*
X114443Y352734D01*
X114472Y352853D01*
X114517Y352957D01*
X114547Y353031D01*
X114562Y353076D01*
X114577Y353091D01*
X114740Y353343D01*
X114814Y353462D01*
X114903Y353551D01*
X114978Y353626D01*
X115022Y353685D01*
X115067Y353715D01*
X115082Y353730D01*
X115319Y353908D01*
X115527Y354057D01*
X115631Y354116D01*
X115706Y354160D01*
X115750Y354175D01*
X115765Y354190D01*
X116047Y354324D01*
X116181Y354383D01*
X116315Y354443D01*
X116419Y354487D01*
X116493Y354517D01*
X116553Y354547D01*
X116568D01*
X116865Y354681D01*
X116999Y354725D01*
X117117Y354785D01*
X117206Y354814D01*
X117281Y354844D01*
X117340Y354874D01*
X117355D01*
X117622Y354993D01*
X117741Y355052D01*
X117845Y355112D01*
X117935Y355156D01*
X117994Y355186D01*
X118039Y355201D01*
X118054Y355215D01*
X118261Y355364D01*
X118410Y355498D01*
X118469Y355557D01*
X118514Y355602D01*
X118529Y355632D01*
X118544Y355646D01*
X118603Y355750D01*
X118648Y355840D01*
X118692Y356033D01*
X118707Y356107D01*
X118722Y356166D01*
Y356211D01*
Y356226D01*
X118707Y356419D01*
X118648Y356597D01*
X118574Y356746D01*
X118499Y356865D01*
X118410Y356969D01*
X118351Y357043D01*
X118291Y357088D01*
X118276Y357103D01*
X118083Y357207D01*
X117860Y357296D01*
X117622Y357355D01*
X117385Y357385D01*
X117177Y357415D01*
X117013Y357430D01*
X116850D01*
X116508Y357415D01*
X116345Y357400D01*
X116196D01*
X116077Y357385D01*
X115988Y357370D01*
X115914Y357355D01*
X115899D01*
X115542Y357296D01*
X115379Y357251D01*
X115230Y357221D01*
X115097Y357192D01*
X115007Y357177D01*
X114933Y357147D01*
X114918D01*
Y358158D01*
X115082Y358187D01*
X115230Y358217D01*
X115290Y358232D01*
X115334Y358247D01*
X115379D01*
X115557Y358276D01*
X115706Y358306D01*
X115780D01*
X115825Y358321D01*
X115869D01*
X116047Y358351D01*
X116211Y358366D01*
X116285Y358381D01*
X116374D01*
X116538Y358395D01*
X116686Y358410D01*
X116820D01*
X117117Y358395D01*
D02*
G37*
G36*
X320011Y312500D02*
X318882D01*
Y315145D01*
Y319335D01*
X318213Y317671D01*
X315910Y312500D01*
X314365D01*
Y320791D01*
X315494D01*
Y318429D01*
Y313986D01*
X316296Y315873D01*
X318510Y320791D01*
X320011D01*
Y312500D01*
D02*
G37*
G36*
X323904Y320895D02*
X324201Y320866D01*
X324469Y320821D01*
X324706Y320762D01*
X324900Y320702D01*
X325048Y320658D01*
X325108Y320643D01*
X325152Y320628D01*
X325167Y320613D01*
X325182D01*
X325449Y320494D01*
X325687Y320360D01*
X325895Y320212D01*
X326073Y320078D01*
X326222Y319944D01*
X326341Y319840D01*
X326400Y319781D01*
X326430Y319751D01*
X326609Y319528D01*
X326772Y319291D01*
X326906Y319068D01*
X327010Y318845D01*
X327099Y318652D01*
X327158Y318503D01*
X327188Y318444D01*
X327203Y318399D01*
X327218Y318384D01*
Y318369D01*
X327307Y318057D01*
X327381Y317745D01*
X327426Y317433D01*
X327470Y317151D01*
X327485Y316913D01*
Y316809D01*
X327500Y316720D01*
Y316646D01*
Y316586D01*
Y316556D01*
Y316542D01*
X327485Y316170D01*
X327455Y315828D01*
X327426Y315516D01*
X327366Y315249D01*
X327322Y315026D01*
X327307Y314937D01*
X327292Y314863D01*
X327277Y314803D01*
X327262Y314759D01*
X327247Y314744D01*
Y314729D01*
X327143Y314447D01*
X327024Y314194D01*
X326906Y313971D01*
X326787Y313793D01*
X326683Y313629D01*
X326594Y313510D01*
X326534Y313451D01*
X326519Y313421D01*
X326326Y313243D01*
X326133Y313079D01*
X325940Y312946D01*
X325761Y312827D01*
X325598Y312753D01*
X325479Y312678D01*
X325390Y312649D01*
X325360Y312634D01*
X325093Y312545D01*
X324825Y312485D01*
X324573Y312441D01*
X324335Y312411D01*
X324127Y312396D01*
X323964Y312381D01*
X323815D01*
X323607Y312396D01*
X323429Y312411D01*
X323354D01*
X323295Y312426D01*
X323250D01*
X323027Y312455D01*
X322834Y312470D01*
X322745Y312485D01*
X322686Y312500D01*
X322641D01*
X322418Y312545D01*
X322240Y312604D01*
X322166Y312619D01*
X322106Y312634D01*
X322076Y312649D01*
X322062D01*
X321854Y312723D01*
X321660Y312797D01*
X321601Y312827D01*
X321541Y312857D01*
X321512Y312871D01*
X321497D01*
Y317121D01*
X324320D01*
Y316185D01*
X322611D01*
Y313540D01*
X322686Y313510D01*
X322775Y313481D01*
X322819Y313466D01*
X322849D01*
X322953Y313451D01*
X323042Y313421D01*
X323102Y313406D01*
X323131D01*
X323236Y313391D01*
X323325D01*
X323384Y313377D01*
X323666D01*
X323919Y313391D01*
X324142Y313406D01*
X324350Y313436D01*
X324528Y313481D01*
X324677Y313525D01*
X324781Y313555D01*
X324840Y313570D01*
X324870Y313585D01*
X325048Y313674D01*
X325212Y313778D01*
X325360Y313882D01*
X325479Y313986D01*
X325568Y314075D01*
X325643Y314149D01*
X325687Y314209D01*
X325702Y314224D01*
X325821Y314387D01*
X325910Y314565D01*
X325999Y314744D01*
X326059Y314892D01*
X326118Y315041D01*
X326148Y315145D01*
X326163Y315219D01*
X326178Y315249D01*
X326222Y315487D01*
X326267Y315724D01*
X326296Y315947D01*
X326311Y316170D01*
Y316348D01*
X326326Y316497D01*
Y316556D01*
Y316601D01*
Y316616D01*
Y316631D01*
X326311Y316898D01*
X326296Y317151D01*
X326267Y317374D01*
X326237Y317567D01*
X326207Y317730D01*
X326178Y317849D01*
X326148Y317924D01*
Y317953D01*
X326073Y318176D01*
X325984Y318369D01*
X325895Y318548D01*
X325806Y318696D01*
X325732Y318830D01*
X325672Y318919D01*
X325628Y318979D01*
X325613Y318993D01*
X325479Y319142D01*
X325331Y319276D01*
X325182Y319395D01*
X325048Y319484D01*
X324929Y319558D01*
X324840Y319618D01*
X324766Y319647D01*
X324751Y319662D01*
X324543Y319736D01*
X324350Y319796D01*
X324142Y319840D01*
X323964Y319870D01*
X323800Y319885D01*
X323681Y319900D01*
X323354D01*
X323146Y319870D01*
X322968Y319855D01*
X322819Y319825D01*
X322686Y319796D01*
X322597Y319781D01*
X322522Y319751D01*
X322507D01*
X322151Y319632D01*
X321987Y319573D01*
X321839Y319513D01*
X321720Y319469D01*
X321616Y319424D01*
X321556Y319395D01*
X321541Y319380D01*
Y320509D01*
X321898Y320643D01*
X322062Y320702D01*
X322210Y320732D01*
X322344Y320762D01*
X322433Y320791D01*
X322492Y320806D01*
X322522D01*
X322894Y320866D01*
X323072Y320881D01*
X323236Y320895D01*
X323369Y320910D01*
X323577D01*
X323904Y320895D01*
D02*
G37*
G36*
X312923Y312500D02*
X310873D01*
X310605Y312530D01*
X310368Y312545D01*
X310160Y312574D01*
X309981Y312604D01*
X309848Y312619D01*
X309773Y312649D01*
X309743D01*
X309521Y312708D01*
X309313Y312782D01*
X309119Y312842D01*
X308971Y312916D01*
X308837Y312976D01*
X308733Y313020D01*
X308674Y313050D01*
X308659Y313065D01*
X308480Y313169D01*
X308332Y313288D01*
X308198Y313391D01*
X308079Y313496D01*
X307990Y313585D01*
X307916Y313659D01*
X307871Y313704D01*
X307856Y313718D01*
X307633Y314016D01*
X307544Y314149D01*
X307470Y314283D01*
X307411Y314402D01*
X307366Y314491D01*
X307351Y314551D01*
X307336Y314565D01*
X307203Y314922D01*
X307143Y315100D01*
X307113Y315264D01*
X307084Y315397D01*
X307054Y315501D01*
X307039Y315561D01*
Y315591D01*
X306980Y316007D01*
X306965Y316200D01*
X306950Y316363D01*
X306935Y316512D01*
Y316631D01*
Y316705D01*
Y316735D01*
X306950Y317106D01*
X306980Y317448D01*
X307024Y317775D01*
X307084Y318072D01*
X307158Y318354D01*
X307247Y318607D01*
X307321Y318830D01*
X307411Y319023D01*
X307515Y319201D01*
X307589Y319365D01*
X307678Y319484D01*
X307752Y319588D01*
X307812Y319677D01*
X307856Y319736D01*
X307886Y319766D01*
X307901Y319781D01*
X308094Y319959D01*
X308302Y320108D01*
X308525Y320256D01*
X308748Y320360D01*
X309001Y320464D01*
X309238Y320539D01*
X309699Y320672D01*
X309922Y320702D01*
X310130Y320732D01*
X310323Y320762D01*
X310472Y320776D01*
X310605Y320791D01*
X312923D01*
Y312500D01*
D02*
G37*
G36*
X325000Y350000D02*
X323871D01*
Y353700D01*
X323351D01*
X323172Y353685D01*
X323039Y353670D01*
X322979Y353655D01*
X322935D01*
X322920Y353641D01*
X322905D01*
X322756Y353596D01*
X322637Y353536D01*
X322563Y353492D01*
X322533Y353477D01*
X322415Y353373D01*
X322310Y353269D01*
X322251Y353180D01*
X322221Y353165D01*
Y353150D01*
X322117Y352987D01*
X322013Y352823D01*
X321984Y352749D01*
X321954Y352704D01*
X321924Y352660D01*
Y352645D01*
X320691Y350000D01*
X319413D01*
X320736Y352734D01*
X320825Y352912D01*
X320914Y353061D01*
X321003Y353195D01*
X321077Y353314D01*
X321152Y353403D01*
X321196Y353462D01*
X321226Y353507D01*
X321241Y353522D01*
X321330Y353626D01*
X321434Y353715D01*
X321523Y353789D01*
X321612Y353848D01*
X321701Y353893D01*
X321761Y353923D01*
X321805Y353952D01*
X321820D01*
X321657Y353997D01*
X321523Y354042D01*
X321389Y354101D01*
X321285Y354146D01*
X321181Y354190D01*
X321122Y354235D01*
X321077Y354250D01*
X321062Y354264D01*
X320825Y354428D01*
X320736Y354502D01*
X320646Y354577D01*
X320587Y354651D01*
X320542Y354696D01*
X320513Y354725D01*
X320498Y354740D01*
X320349Y354963D01*
X320245Y355156D01*
X320201Y355245D01*
X320171Y355305D01*
X320156Y355349D01*
Y355364D01*
X320082Y355632D01*
X320067Y355750D01*
X320052Y355869D01*
X320037Y355973D01*
Y356048D01*
Y356092D01*
Y356107D01*
Y356285D01*
X320067Y356449D01*
X320082Y356612D01*
X320111Y356731D01*
X320141Y356850D01*
X320171Y356924D01*
X320186Y356984D01*
X320201Y356999D01*
X320260Y357147D01*
X320334Y357281D01*
X320423Y357385D01*
X320498Y357489D01*
X320572Y357578D01*
X320631Y357637D01*
X320676Y357667D01*
X320691Y357682D01*
X320825Y357786D01*
X320958Y357875D01*
X321107Y357950D01*
X321241Y358009D01*
X321360Y358068D01*
X321449Y358098D01*
X321508Y358128D01*
X321538D01*
X321746Y358187D01*
X321954Y358217D01*
X322162Y358247D01*
X322355Y358276D01*
X322533D01*
X322667Y358291D01*
X325000D01*
Y350000D01*
D02*
G37*
G36*
X311241Y357326D02*
X308789D01*
Y350000D01*
X307645D01*
Y357326D01*
X305193D01*
Y358291D01*
X311241D01*
Y357326D01*
D02*
G37*
G36*
X315357Y358395D02*
X315609Y358381D01*
X315847Y358351D01*
X316055Y358306D01*
X316218Y358262D01*
X316352Y358232D01*
X316426Y358217D01*
X316456Y358202D01*
X316664Y358128D01*
X316857Y358039D01*
X317021Y357950D01*
X317155Y357875D01*
X317273Y357801D01*
X317348Y357742D01*
X317407Y357697D01*
X317422Y357682D01*
X317556Y357563D01*
X317660Y357444D01*
X317764Y357311D01*
X317838Y357207D01*
X317897Y357103D01*
X317942Y357028D01*
X317957Y356969D01*
X317972Y356954D01*
X318031Y356805D01*
X318061Y356642D01*
X318091Y356508D01*
X318120Y356389D01*
Y356270D01*
X318135Y356196D01*
Y356137D01*
Y356122D01*
X318120Y355944D01*
X318105Y355780D01*
X318076Y355632D01*
X318046Y355513D01*
X318016Y355409D01*
X317987Y355334D01*
X317957Y355290D01*
Y355275D01*
X317793Y355022D01*
X317719Y354918D01*
X317645Y354829D01*
X317570Y354755D01*
X317511Y354696D01*
X317481Y354666D01*
X317467Y354651D01*
X317229Y354473D01*
X317006Y354324D01*
X316902Y354264D01*
X316828Y354220D01*
X316783Y354205D01*
X316768Y354190D01*
X316486Y354057D01*
X316352Y353997D01*
X316233Y353938D01*
X316129Y353893D01*
X316055Y353863D01*
X315996Y353848D01*
X315981Y353834D01*
X315683Y353715D01*
X315550Y353655D01*
X315416Y353611D01*
X315327Y353566D01*
X315238Y353536D01*
X315193Y353522D01*
X315178Y353507D01*
X314911Y353388D01*
X314792Y353328D01*
X314688Y353284D01*
X314614Y353239D01*
X314539Y353195D01*
X314510Y353180D01*
X314495Y353165D01*
X314287Y353031D01*
X314123Y352897D01*
X314064Y352838D01*
X314019Y352794D01*
X314004Y352764D01*
X313990Y352749D01*
X313930Y352660D01*
X313871Y352556D01*
X313826Y352378D01*
X313811Y352288D01*
X313796Y352229D01*
Y352184D01*
Y352169D01*
X313811Y351946D01*
X313856Y351783D01*
X313871Y351709D01*
X313900Y351664D01*
X313915Y351634D01*
Y351620D01*
X314019Y351456D01*
X314138Y351323D01*
X314227Y351233D01*
X314257Y351218D01*
X314272Y351204D01*
X314465Y351100D01*
X314673Y351010D01*
X314762Y350996D01*
X314837Y350966D01*
X314881Y350951D01*
X314896D01*
X315044Y350921D01*
X315208Y350906D01*
X315357Y350892D01*
X315505D01*
X315639Y350877D01*
X316114D01*
X316367Y350892D01*
X316590Y350906D01*
X316798Y350921D01*
X316961Y350936D01*
X317080Y350951D01*
X317155Y350966D01*
X317184D01*
X317392Y351010D01*
X317600Y351055D01*
X317778Y351100D01*
X317927Y351159D01*
X318061Y351204D01*
X318150Y351233D01*
X318224Y351248D01*
X318239Y351263D01*
Y350178D01*
X318076Y350134D01*
X317927Y350104D01*
X317853Y350089D01*
X317808Y350074D01*
X317778Y350059D01*
X317764D01*
X317556Y350015D01*
X317377Y350000D01*
X317303Y349985D01*
X317244Y349970D01*
X317199D01*
X316976Y349955D01*
X316768Y349926D01*
X316694D01*
X316634Y349911D01*
X316575D01*
X316337Y349896D01*
X316218D01*
X316114Y349881D01*
X315639D01*
X315386Y349896D01*
X315163Y349926D01*
X314970Y349955D01*
X314807Y349970D01*
X314688Y350000D01*
X314614Y350015D01*
X314584D01*
X314361Y350074D01*
X314168Y350149D01*
X313990Y350223D01*
X313841Y350297D01*
X313707Y350357D01*
X313618Y350416D01*
X313559Y350446D01*
X313544Y350461D01*
X313395Y350579D01*
X313261Y350698D01*
X313143Y350832D01*
X313053Y350951D01*
X312979Y351040D01*
X312920Y351129D01*
X312890Y351189D01*
X312875Y351204D01*
X312786Y351382D01*
X312726Y351560D01*
X312682Y351724D01*
X312652Y351887D01*
X312637Y352036D01*
X312623Y352140D01*
Y352214D01*
Y352244D01*
X312637Y352422D01*
X312652Y352585D01*
X312682Y352734D01*
X312712Y352853D01*
X312756Y352957D01*
X312786Y353031D01*
X312801Y353076D01*
X312816Y353091D01*
X312979Y353343D01*
X313053Y353462D01*
X313143Y353551D01*
X313217Y353626D01*
X313261Y353685D01*
X313306Y353715D01*
X313321Y353730D01*
X313559Y353908D01*
X313767Y354057D01*
X313871Y354116D01*
X313945Y354160D01*
X313990Y354175D01*
X314004Y354190D01*
X314287Y354324D01*
X314420Y354383D01*
X314554Y354443D01*
X314658Y354487D01*
X314732Y354517D01*
X314792Y354547D01*
X314807D01*
X315104Y354681D01*
X315238Y354725D01*
X315357Y354785D01*
X315446Y354814D01*
X315520Y354844D01*
X315579Y354874D01*
X315594D01*
X315862Y354993D01*
X315981Y355052D01*
X316085Y355112D01*
X316174Y355156D01*
X316233Y355186D01*
X316278Y355201D01*
X316293Y355215D01*
X316501Y355364D01*
X316649Y355498D01*
X316709Y355557D01*
X316753Y355602D01*
X316768Y355632D01*
X316783Y355646D01*
X316842Y355750D01*
X316887Y355840D01*
X316932Y356033D01*
X316946Y356107D01*
X316961Y356166D01*
Y356211D01*
Y356226D01*
X316946Y356419D01*
X316887Y356597D01*
X316813Y356746D01*
X316738Y356865D01*
X316649Y356969D01*
X316590Y357043D01*
X316530Y357088D01*
X316516Y357103D01*
X316322Y357207D01*
X316099Y357296D01*
X315862Y357355D01*
X315624Y357385D01*
X315416Y357415D01*
X315252Y357430D01*
X315089D01*
X314747Y357415D01*
X314584Y357400D01*
X314435D01*
X314316Y357385D01*
X314227Y357370D01*
X314153Y357355D01*
X314138D01*
X313782Y357296D01*
X313618Y357251D01*
X313469Y357221D01*
X313336Y357192D01*
X313246Y357177D01*
X313172Y357147D01*
X313157D01*
Y358158D01*
X313321Y358187D01*
X313469Y358217D01*
X313529Y358232D01*
X313573Y358247D01*
X313618D01*
X313796Y358276D01*
X313945Y358306D01*
X314019D01*
X314064Y358321D01*
X314108D01*
X314287Y358351D01*
X314450Y358366D01*
X314524Y358381D01*
X314614D01*
X314777Y358395D01*
X314926Y358410D01*
X315059D01*
X315357Y358395D01*
D02*
G37*
G36*
X330000Y385000D02*
X328930D01*
X328796Y390097D01*
X328767Y392147D01*
X328380Y390869D01*
X327221Y387704D01*
X326434D01*
X325201Y391003D01*
X324814Y392147D01*
X324740Y390186D01*
X324576Y385000D01*
X323477D01*
X323878Y393291D01*
X325245D01*
X326434Y390156D01*
X326776Y389101D01*
X327147Y390156D01*
X328261Y393291D01*
X329599D01*
X330000Y385000D01*
D02*
G37*
G36*
X307786Y392340D02*
X305869D01*
Y385966D01*
X307786D01*
Y385000D01*
X302808D01*
Y385966D01*
X304725D01*
Y392340D01*
X302808D01*
Y393291D01*
X307786D01*
Y392340D01*
D02*
G37*
G36*
X319792Y393395D02*
X320015Y393366D01*
X320238Y393321D01*
X320416Y393276D01*
X320579Y393232D01*
X320698Y393187D01*
X320773Y393158D01*
X320802Y393143D01*
X321010Y393039D01*
X321218Y392920D01*
X321397Y392786D01*
X321545Y392652D01*
X321664Y392533D01*
X321768Y392444D01*
X321828Y392385D01*
X321842Y392355D01*
X322006Y392147D01*
X322140Y391924D01*
X322258Y391701D01*
X322363Y391493D01*
X322452Y391300D01*
X322511Y391152D01*
X322526Y391092D01*
X322541Y391048D01*
X322556Y391033D01*
Y391018D01*
X322645Y390706D01*
X322704Y390379D01*
X322749Y390052D01*
X322779Y389755D01*
X322793Y389487D01*
Y389383D01*
X322808Y389279D01*
Y389205D01*
Y389146D01*
Y389116D01*
Y389101D01*
X322793Y388745D01*
X322779Y388403D01*
X322749Y388106D01*
X322719Y387838D01*
X322689Y387615D01*
X322674Y387526D01*
X322660Y387452D01*
X322645Y387392D01*
X322630Y387348D01*
Y387333D01*
Y387318D01*
X322556Y387036D01*
X322452Y386783D01*
X322363Y386560D01*
X322273Y386367D01*
X322184Y386204D01*
X322110Y386100D01*
X322065Y386025D01*
X322050Y385995D01*
X321887Y385802D01*
X321724Y385639D01*
X321560Y385490D01*
X321397Y385372D01*
X321263Y385282D01*
X321159Y385223D01*
X321085Y385178D01*
X321055Y385163D01*
X320817Y385074D01*
X320579Y385000D01*
X320356Y384955D01*
X320134Y384911D01*
X319940Y384896D01*
X319792Y384881D01*
X319658D01*
X319405Y384896D01*
X319183Y384926D01*
X318960Y384955D01*
X318782Y385015D01*
X318618Y385059D01*
X318499Y385089D01*
X318425Y385119D01*
X318395Y385134D01*
X318172Y385238D01*
X317979Y385357D01*
X317786Y385490D01*
X317637Y385624D01*
X317518Y385743D01*
X317414Y385832D01*
X317355Y385891D01*
X317340Y385921D01*
X317177Y386129D01*
X317043Y386352D01*
X316924Y386575D01*
X316820Y386798D01*
X316731Y386976D01*
X316672Y387125D01*
X316657Y387184D01*
X316642Y387229D01*
X316627Y387244D01*
Y387259D01*
X316538Y387571D01*
X316478Y387912D01*
X316419Y388224D01*
X316389Y388536D01*
X316374Y388789D01*
Y388908D01*
X316359Y388997D01*
Y389086D01*
Y389146D01*
Y389175D01*
Y389190D01*
X316374Y389547D01*
X316389Y389874D01*
X316419Y390171D01*
X316464Y390438D01*
X316508Y390646D01*
X316538Y390810D01*
X316553Y390869D01*
Y390914D01*
X316567Y390929D01*
Y390944D01*
X316642Y391226D01*
X316746Y391479D01*
X316835Y391701D01*
X316939Y391895D01*
X317028Y392058D01*
X317102Y392177D01*
X317147Y392236D01*
X317162Y392266D01*
X317310Y392459D01*
X317474Y392637D01*
X317637Y392771D01*
X317801Y392890D01*
X317934Y392994D01*
X318039Y393054D01*
X318113Y393098D01*
X318143Y393113D01*
X318365Y393217D01*
X318618Y393291D01*
X318841Y393336D01*
X319064Y393381D01*
X319257Y393395D01*
X319405Y393410D01*
X319539D01*
X319792Y393395D01*
D02*
G37*
G36*
X312437D02*
X312689Y393381D01*
X312927Y393351D01*
X313135Y393306D01*
X313298Y393262D01*
X313432Y393232D01*
X313507Y393217D01*
X313536Y393202D01*
X313744Y393128D01*
X313937Y393039D01*
X314101Y392950D01*
X314235Y392875D01*
X314354Y392801D01*
X314428Y392742D01*
X314487Y392697D01*
X314502Y392682D01*
X314636Y392563D01*
X314740Y392444D01*
X314844Y392311D01*
X314918Y392207D01*
X314978Y392103D01*
X315022Y392028D01*
X315037Y391969D01*
X315052Y391954D01*
X315111Y391805D01*
X315141Y391642D01*
X315171Y391508D01*
X315200Y391389D01*
Y391270D01*
X315215Y391196D01*
Y391137D01*
Y391122D01*
X315200Y390944D01*
X315186Y390780D01*
X315156Y390632D01*
X315126Y390513D01*
X315096Y390409D01*
X315067Y390334D01*
X315037Y390290D01*
Y390275D01*
X314874Y390022D01*
X314799Y389918D01*
X314725Y389829D01*
X314651Y389755D01*
X314591Y389695D01*
X314562Y389666D01*
X314547Y389651D01*
X314309Y389473D01*
X314086Y389324D01*
X313982Y389264D01*
X313908Y389220D01*
X313863Y389205D01*
X313848Y389190D01*
X313566Y389057D01*
X313432Y388997D01*
X313313Y388938D01*
X313209Y388893D01*
X313135Y388863D01*
X313076Y388848D01*
X313061Y388834D01*
X312764Y388715D01*
X312630Y388655D01*
X312496Y388611D01*
X312407Y388566D01*
X312318Y388536D01*
X312273Y388522D01*
X312258Y388507D01*
X311991Y388388D01*
X311872Y388328D01*
X311768Y388284D01*
X311694Y388239D01*
X311619Y388195D01*
X311590Y388180D01*
X311575Y388165D01*
X311367Y388031D01*
X311203Y387897D01*
X311144Y387838D01*
X311099Y387794D01*
X311084Y387764D01*
X311070Y387749D01*
X311010Y387660D01*
X310951Y387556D01*
X310906Y387377D01*
X310891Y387288D01*
X310877Y387229D01*
Y387184D01*
Y387169D01*
X310891Y386946D01*
X310936Y386783D01*
X310951Y386709D01*
X310980Y386664D01*
X310995Y386634D01*
Y386620D01*
X311099Y386456D01*
X311218Y386322D01*
X311307Y386233D01*
X311337Y386218D01*
X311352Y386204D01*
X311545Y386100D01*
X311753Y386010D01*
X311842Y385995D01*
X311917Y385966D01*
X311961Y385951D01*
X311976D01*
X312125Y385921D01*
X312288Y385906D01*
X312437Y385891D01*
X312585D01*
X312719Y385877D01*
X313195D01*
X313447Y385891D01*
X313670Y385906D01*
X313878Y385921D01*
X314041Y385936D01*
X314160Y385951D01*
X314235Y385966D01*
X314264D01*
X314472Y386010D01*
X314680Y386055D01*
X314859Y386100D01*
X315007Y386159D01*
X315141Y386204D01*
X315230Y386233D01*
X315304Y386248D01*
X315319Y386263D01*
Y385178D01*
X315156Y385134D01*
X315007Y385104D01*
X314933Y385089D01*
X314888Y385074D01*
X314859Y385059D01*
X314844D01*
X314636Y385015D01*
X314457Y385000D01*
X314383Y384985D01*
X314324Y384970D01*
X314279D01*
X314056Y384955D01*
X313848Y384926D01*
X313774D01*
X313715Y384911D01*
X313655D01*
X313417Y384896D01*
X313298D01*
X313195Y384881D01*
X312719D01*
X312466Y384896D01*
X312243Y384926D01*
X312050Y384955D01*
X311887Y384970D01*
X311768Y385000D01*
X311694Y385015D01*
X311664D01*
X311441Y385074D01*
X311248Y385149D01*
X311070Y385223D01*
X310921Y385297D01*
X310787Y385357D01*
X310698Y385416D01*
X310639Y385446D01*
X310624Y385461D01*
X310475Y385579D01*
X310341Y385698D01*
X310223Y385832D01*
X310133Y385951D01*
X310059Y386040D01*
X310000Y386129D01*
X309970Y386189D01*
X309955Y386204D01*
X309866Y386382D01*
X309807Y386560D01*
X309762Y386724D01*
X309732Y386887D01*
X309718Y387036D01*
X309703Y387140D01*
Y387214D01*
Y387244D01*
X309718Y387422D01*
X309732Y387585D01*
X309762Y387734D01*
X309792Y387853D01*
X309836Y387957D01*
X309866Y388031D01*
X309881Y388076D01*
X309896Y388091D01*
X310059Y388343D01*
X310133Y388462D01*
X310223Y388551D01*
X310297Y388626D01*
X310341Y388685D01*
X310386Y388715D01*
X310401Y388730D01*
X310639Y388908D01*
X310847Y389057D01*
X310951Y389116D01*
X311025Y389160D01*
X311070Y389175D01*
X311084Y389190D01*
X311367Y389324D01*
X311500Y389383D01*
X311634Y389443D01*
X311738Y389487D01*
X311813Y389517D01*
X311872Y389547D01*
X311887D01*
X312184Y389681D01*
X312318Y389725D01*
X312437Y389785D01*
X312526Y389814D01*
X312600Y389844D01*
X312659Y389874D01*
X312674D01*
X312942Y389993D01*
X313061Y390052D01*
X313165Y390112D01*
X313254Y390156D01*
X313313Y390186D01*
X313358Y390201D01*
X313373Y390215D01*
X313581Y390364D01*
X313729Y390498D01*
X313789Y390557D01*
X313833Y390602D01*
X313848Y390632D01*
X313863Y390646D01*
X313923Y390750D01*
X313967Y390840D01*
X314012Y391033D01*
X314027Y391107D01*
X314041Y391166D01*
Y391211D01*
Y391226D01*
X314027Y391419D01*
X313967Y391597D01*
X313893Y391746D01*
X313818Y391865D01*
X313729Y391969D01*
X313670Y392043D01*
X313610Y392088D01*
X313596Y392103D01*
X313403Y392207D01*
X313180Y392296D01*
X312942Y392355D01*
X312704Y392385D01*
X312496Y392415D01*
X312333Y392430D01*
X312169D01*
X311827Y392415D01*
X311664Y392400D01*
X311515D01*
X311397Y392385D01*
X311307Y392370D01*
X311233Y392355D01*
X311218D01*
X310862Y392296D01*
X310698Y392251D01*
X310550Y392221D01*
X310416Y392192D01*
X310327Y392177D01*
X310252Y392147D01*
X310238D01*
Y393158D01*
X310401Y393187D01*
X310550Y393217D01*
X310609Y393232D01*
X310654Y393247D01*
X310698D01*
X310877Y393276D01*
X311025Y393306D01*
X311099D01*
X311144Y393321D01*
X311189D01*
X311367Y393351D01*
X311530Y393366D01*
X311605Y393381D01*
X311694D01*
X311857Y393395D01*
X312006Y393410D01*
X312139D01*
X312437Y393395D01*
D02*
G37*
G36*
X172236Y385000D02*
X170721D01*
X167897Y393291D01*
X169101D01*
X170899Y387690D01*
X171419Y386055D01*
X171924Y387690D01*
X173722Y393291D01*
X175000D01*
X172236Y385000D01*
D02*
G37*
G36*
X163900Y393381D02*
X164183Y393351D01*
X164450Y393291D01*
X164673Y393247D01*
X164851Y393187D01*
X165000Y393128D01*
X165089Y393098D01*
X165104Y393083D01*
X165119D01*
X165371Y392950D01*
X165594Y392816D01*
X165787Y392667D01*
X165966Y392533D01*
X166099Y392400D01*
X166203Y392296D01*
X166263Y392236D01*
X166293Y392207D01*
X166456Y391984D01*
X166605Y391761D01*
X166738Y391538D01*
X166842Y391315D01*
X166932Y391122D01*
X166991Y390973D01*
X167006Y390914D01*
X167021Y390869D01*
X167036Y390854D01*
Y390840D01*
X167125Y390527D01*
X167184Y390215D01*
X167229Y389918D01*
X167258Y389636D01*
X167273Y389398D01*
Y389294D01*
X167288Y389205D01*
Y389146D01*
Y389086D01*
Y389057D01*
Y389042D01*
X167273Y388670D01*
X167244Y388313D01*
X167199Y387987D01*
X167140Y387690D01*
X167065Y387407D01*
X166991Y387155D01*
X166902Y386932D01*
X166813Y386724D01*
X166738Y386530D01*
X166649Y386382D01*
X166575Y386248D01*
X166501Y386129D01*
X166441Y386040D01*
X166397Y385981D01*
X166367Y385951D01*
X166352Y385936D01*
X166174Y385758D01*
X165966Y385594D01*
X165758Y385461D01*
X165535Y385342D01*
X165312Y385238D01*
X165089Y385149D01*
X164866Y385074D01*
X164643Y385030D01*
X164450Y384985D01*
X164257Y384955D01*
X164079Y384926D01*
X163945Y384911D01*
X163811Y384896D01*
X163648D01*
X163246Y384911D01*
X162860Y384955D01*
X162504Y385030D01*
X162192Y385104D01*
X162058Y385149D01*
X161924Y385178D01*
X161820Y385223D01*
X161731Y385253D01*
X161657Y385267D01*
X161597Y385297D01*
X161567Y385312D01*
X161553D01*
Y386382D01*
X161894Y386233D01*
X162058Y386159D01*
X162206Y386114D01*
X162325Y386070D01*
X162414Y386055D01*
X162474Y386025D01*
X162504D01*
X162875Y385951D01*
X163039Y385936D01*
X163187Y385921D01*
X163321Y385906D01*
X163514D01*
X163737Y385921D01*
X163960Y385936D01*
X164346Y386040D01*
X164673Y386159D01*
X164940Y386322D01*
X165059Y386397D01*
X165163Y386471D01*
X165238Y386530D01*
X165312Y386590D01*
X165357Y386649D01*
X165401Y386694D01*
X165416Y386709D01*
X165431Y386724D01*
X165550Y386887D01*
X165639Y387065D01*
X165802Y387452D01*
X165921Y387853D01*
X165996Y388239D01*
X166025Y388418D01*
X166055Y388596D01*
X166070Y388745D01*
Y388878D01*
X166085Y388997D01*
Y389071D01*
Y389131D01*
Y389146D01*
X166070Y389428D01*
X166055Y389681D01*
X166025Y389918D01*
X165996Y390126D01*
X165966Y390290D01*
X165951Y390409D01*
X165921Y390483D01*
Y390513D01*
X165847Y390721D01*
X165773Y390929D01*
X165683Y391092D01*
X165594Y391241D01*
X165535Y391360D01*
X165475Y391449D01*
X165431Y391508D01*
X165416Y391523D01*
X165282Y391672D01*
X165149Y391805D01*
X165000Y391909D01*
X164881Y391999D01*
X164762Y392073D01*
X164673Y392118D01*
X164614Y392147D01*
X164599Y392162D01*
X164420Y392236D01*
X164227Y392296D01*
X164049Y392326D01*
X163885Y392355D01*
X163752Y392370D01*
X163648Y392385D01*
X163336D01*
X163143Y392370D01*
X162964Y392340D01*
X162816Y392326D01*
X162682Y392296D01*
X162593Y392266D01*
X162518Y392251D01*
X162504D01*
X162147Y392132D01*
X161984Y392073D01*
X161850Y392013D01*
X161731Y391969D01*
X161627Y391924D01*
X161567Y391895D01*
X161553Y391880D01*
Y392994D01*
X161894Y393128D01*
X162058Y393172D01*
X162206Y393217D01*
X162340Y393247D01*
X162429Y393276D01*
X162489Y393291D01*
X162518D01*
X162890Y393351D01*
X163068Y393366D01*
X163232Y393381D01*
X163380Y393395D01*
X163588D01*
X163900Y393381D01*
D02*
G37*
G36*
X156753D02*
X157036Y393351D01*
X157303Y393291D01*
X157526Y393247D01*
X157704Y393187D01*
X157853Y393128D01*
X157942Y393098D01*
X157957Y393083D01*
X157972D01*
X158224Y392950D01*
X158447Y392816D01*
X158640Y392667D01*
X158819Y392533D01*
X158952Y392400D01*
X159056Y392296D01*
X159116Y392236D01*
X159145Y392207D01*
X159309Y391984D01*
X159458Y391761D01*
X159591Y391538D01*
X159695Y391315D01*
X159784Y391122D01*
X159844Y390973D01*
X159859Y390914D01*
X159874Y390869D01*
X159888Y390854D01*
Y390840D01*
X159978Y390527D01*
X160037Y390215D01*
X160082Y389918D01*
X160111Y389636D01*
X160126Y389398D01*
Y389294D01*
X160141Y389205D01*
Y389146D01*
Y389086D01*
Y389057D01*
Y389042D01*
X160126Y388670D01*
X160096Y388313D01*
X160052Y387987D01*
X159992Y387690D01*
X159918Y387407D01*
X159844Y387155D01*
X159755Y386932D01*
X159665Y386724D01*
X159591Y386530D01*
X159502Y386382D01*
X159428Y386248D01*
X159354Y386129D01*
X159294Y386040D01*
X159249Y385981D01*
X159220Y385951D01*
X159205Y385936D01*
X159027Y385758D01*
X158819Y385594D01*
X158610Y385461D01*
X158388Y385342D01*
X158165Y385238D01*
X157942Y385149D01*
X157719Y385074D01*
X157496Y385030D01*
X157303Y384985D01*
X157110Y384955D01*
X156931Y384926D01*
X156798Y384911D01*
X156664Y384896D01*
X156501D01*
X156099Y384911D01*
X155713Y384955D01*
X155356Y385030D01*
X155044Y385104D01*
X154911Y385149D01*
X154777Y385178D01*
X154673Y385223D01*
X154584Y385253D01*
X154509Y385267D01*
X154450Y385297D01*
X154420Y385312D01*
X154405D01*
Y386382D01*
X154747Y386233D01*
X154911Y386159D01*
X155059Y386114D01*
X155178Y386070D01*
X155267Y386055D01*
X155327Y386025D01*
X155356D01*
X155728Y385951D01*
X155891Y385936D01*
X156040Y385921D01*
X156174Y385906D01*
X156367D01*
X156590Y385921D01*
X156813Y385936D01*
X157199Y386040D01*
X157526Y386159D01*
X157793Y386322D01*
X157912Y386397D01*
X158016Y386471D01*
X158090Y386530D01*
X158165Y386590D01*
X158209Y386649D01*
X158254Y386694D01*
X158269Y386709D01*
X158284Y386724D01*
X158403Y386887D01*
X158492Y387065D01*
X158655Y387452D01*
X158774Y387853D01*
X158848Y388239D01*
X158878Y388418D01*
X158908Y388596D01*
X158923Y388745D01*
Y388878D01*
X158937Y388997D01*
Y389071D01*
Y389131D01*
Y389146D01*
X158923Y389428D01*
X158908Y389681D01*
X158878Y389918D01*
X158848Y390126D01*
X158819Y390290D01*
X158804Y390409D01*
X158774Y390483D01*
Y390513D01*
X158700Y390721D01*
X158625Y390929D01*
X158536Y391092D01*
X158447Y391241D01*
X158388Y391360D01*
X158328Y391449D01*
X158284Y391508D01*
X158269Y391523D01*
X158135Y391672D01*
X158001Y391805D01*
X157853Y391909D01*
X157734Y391999D01*
X157615Y392073D01*
X157526Y392118D01*
X157466Y392147D01*
X157451Y392162D01*
X157273Y392236D01*
X157080Y392296D01*
X156902Y392326D01*
X156738Y392355D01*
X156605Y392370D01*
X156501Y392385D01*
X156188D01*
X155995Y392370D01*
X155817Y392340D01*
X155668Y392326D01*
X155535Y392296D01*
X155446Y392266D01*
X155371Y392251D01*
X155356D01*
X155000Y392132D01*
X154836Y392073D01*
X154703Y392013D01*
X154584Y391969D01*
X154480Y391924D01*
X154420Y391895D01*
X154405Y391880D01*
Y392994D01*
X154747Y393128D01*
X154911Y393172D01*
X155059Y393217D01*
X155193Y393247D01*
X155282Y393276D01*
X155342Y393291D01*
X155371D01*
X155743Y393351D01*
X155921Y393366D01*
X156084Y393381D01*
X156233Y393395D01*
X156441D01*
X156753Y393381D01*
D02*
G37*
G36*
X169672Y418395D02*
X169939Y418366D01*
X170177Y418306D01*
X170385Y418262D01*
X170564Y418202D01*
X170697Y418143D01*
X170772Y418113D01*
X170801Y418098D01*
X171024Y417979D01*
X171232Y417845D01*
X171410Y417712D01*
X171559Y417593D01*
X171693Y417489D01*
X171782Y417400D01*
X171856Y417326D01*
X171871Y417311D01*
X171262Y416582D01*
X171128Y416716D01*
X170994Y416835D01*
X170861Y416939D01*
X170727Y417028D01*
X170623Y417103D01*
X170549Y417147D01*
X170489Y417177D01*
X170474Y417192D01*
X170311Y417266D01*
X170147Y417326D01*
X169984Y417370D01*
X169835Y417400D01*
X169702Y417415D01*
X169598Y417430D01*
X169508D01*
X169256Y417415D01*
X169137Y417385D01*
X169048Y417370D01*
X168974Y417340D01*
X168914Y417311D01*
X168884Y417296D01*
X168869D01*
X168676Y417192D01*
X168543Y417088D01*
X168454Y416999D01*
X168424Y416984D01*
Y416969D01*
X168305Y416805D01*
X168216Y416642D01*
X168186Y416582D01*
X168171Y416523D01*
X168156Y416493D01*
Y416479D01*
X168097Y416285D01*
X168082Y416092D01*
X168067Y416018D01*
Y415959D01*
Y415929D01*
Y415914D01*
X168082Y415676D01*
X168097Y415572D01*
Y415483D01*
X168112Y415409D01*
X168127Y415349D01*
X168141Y415320D01*
Y415305D01*
X168201Y415097D01*
X168290Y414903D01*
X168335Y414829D01*
X168364Y414770D01*
X168379Y414725D01*
X168394Y414710D01*
X168543Y414473D01*
X168706Y414250D01*
X168780Y414146D01*
X168840Y414071D01*
X168884Y414027D01*
X168899Y414012D01*
X169033Y413863D01*
X169167Y413715D01*
X169315Y413566D01*
X169449Y413432D01*
X169568Y413299D01*
X169672Y413209D01*
X169731Y413150D01*
X169761Y413120D01*
X171901Y410981D01*
Y410000D01*
X166433D01*
Y411055D01*
X170459D01*
X168959Y412511D01*
X168766Y412704D01*
X168602Y412883D01*
X168439Y413046D01*
X168305Y413180D01*
X168201Y413299D01*
X168127Y413388D01*
X168067Y413447D01*
X168052Y413462D01*
X167904Y413626D01*
X167785Y413774D01*
X167666Y413908D01*
X167577Y414042D01*
X167502Y414146D01*
X167443Y414220D01*
X167413Y414279D01*
X167398Y414294D01*
X167235Y414591D01*
X167161Y414725D01*
X167116Y414844D01*
X167072Y414948D01*
X167042Y415022D01*
X167012Y415082D01*
Y415097D01*
X166938Y415409D01*
X166908Y415557D01*
X166893Y415706D01*
X166878Y415810D01*
Y415914D01*
Y415973D01*
Y415988D01*
X166893Y416196D01*
X166908Y416389D01*
X166938Y416553D01*
X166968Y416701D01*
X167012Y416835D01*
X167042Y416924D01*
X167057Y416984D01*
X167072Y416999D01*
X167146Y417162D01*
X167220Y417311D01*
X167309Y417430D01*
X167384Y417548D01*
X167458Y417637D01*
X167517Y417697D01*
X167562Y417742D01*
X167577Y417756D01*
X167844Y417964D01*
X167963Y418039D01*
X168097Y418113D01*
X168201Y418158D01*
X168290Y418202D01*
X168349Y418232D01*
X168364D01*
X168543Y418291D01*
X168706Y418336D01*
X168884Y418366D01*
X169033Y418395D01*
X169167D01*
X169286Y418410D01*
X169375D01*
X169672Y418395D01*
D02*
G37*
G36*
X157696Y416939D02*
X157294Y416003D01*
X155288Y417088D01*
Y411025D01*
X157428D01*
Y410000D01*
X152213D01*
Y411025D01*
X154070D01*
Y418336D01*
X155051D01*
X157696Y416939D01*
D02*
G37*
G36*
X193268Y410000D02*
X192168D01*
Y414220D01*
X192050Y414354D01*
X191946Y414487D01*
X191856Y414591D01*
X191767Y414681D01*
X191693Y414755D01*
X191648Y414814D01*
X191619Y414844D01*
X191604Y414859D01*
X191425Y415022D01*
X191277Y415156D01*
X191217Y415201D01*
X191173Y415230D01*
X191158Y415260D01*
X191143D01*
X190995Y415349D01*
X190861Y415424D01*
X190772Y415453D01*
X190757Y415468D01*
X190742D01*
X190593Y415513D01*
X190460Y415527D01*
X190400Y415542D01*
X190326D01*
X190148Y415527D01*
X189984Y415483D01*
X189850Y415424D01*
X189746Y415364D01*
X189657Y415290D01*
X189583Y415230D01*
X189553Y415186D01*
X189538Y415171D01*
X189449Y415022D01*
X189375Y414844D01*
X189330Y414666D01*
X189286Y414487D01*
X189271Y414324D01*
X189256Y414190D01*
Y414101D01*
Y414086D01*
Y414071D01*
Y410000D01*
X188157D01*
Y414160D01*
X188171Y414562D01*
X188231Y414918D01*
X188320Y415215D01*
X188409Y415468D01*
X188513Y415661D01*
X188587Y415795D01*
X188647Y415869D01*
X188677Y415899D01*
X188885Y416092D01*
X189122Y416241D01*
X189375Y416345D01*
X189613Y416419D01*
X189821Y416464D01*
X189984Y416479D01*
X190058Y416493D01*
X190148D01*
X190356Y416479D01*
X190534Y416464D01*
X190593Y416449D01*
X190653D01*
X190683Y416434D01*
X190697D01*
X190876Y416375D01*
X191039Y416315D01*
X191113Y416285D01*
X191158Y416270D01*
X191188Y416241D01*
X191203D01*
X191381Y416122D01*
X191544Y416018D01*
X191619Y415959D01*
X191663Y415929D01*
X191693Y415899D01*
X191708Y415884D01*
X191886Y415721D01*
X192050Y415542D01*
X192124Y415468D01*
X192168Y415424D01*
X192198Y415379D01*
X192213Y415364D01*
X192168Y416375D01*
Y418975D01*
X193268D01*
Y410000D01*
D02*
G37*
G36*
X205393Y416479D02*
X205467Y416464D01*
X205527D01*
X205571Y416449D01*
X205586D01*
X205809Y416419D01*
X206002Y416389D01*
X206091Y416375D01*
X206151D01*
X206180Y416360D01*
X206195D01*
X206403Y416315D01*
X206567Y416270D01*
X206641Y416256D01*
X206686Y416241D01*
X206715Y416226D01*
X206730D01*
X206909Y416181D01*
X207057Y416137D01*
X207117Y416122D01*
X207161Y416107D01*
X207176Y416092D01*
X207191D01*
Y415097D01*
X206790Y415230D01*
X206611Y415290D01*
X206448Y415334D01*
X206314Y415379D01*
X206210Y415409D01*
X206151Y415424D01*
X206121D01*
X205735Y415498D01*
X205541Y415527D01*
X205378Y415542D01*
X205244Y415557D01*
X205051D01*
X204784Y415542D01*
X204561Y415498D01*
X204382Y415453D01*
X204219Y415394D01*
X204100Y415320D01*
X204011Y415275D01*
X203967Y415230D01*
X203952Y415215D01*
X203833Y415082D01*
X203744Y414933D01*
X203669Y414770D01*
X203625Y414621D01*
X203595Y414502D01*
X203580Y414383D01*
Y414324D01*
Y414294D01*
Y413745D01*
X205155D01*
X205393Y413715D01*
X205616Y413700D01*
X205824Y413655D01*
X206017Y413611D01*
X206180Y413566D01*
X206344Y413522D01*
X206478Y413477D01*
X206611Y413418D01*
X206715Y413373D01*
X206805Y413328D01*
X206879Y413284D01*
X206938Y413239D01*
X206983Y413224D01*
X206998Y413195D01*
X207013D01*
X207132Y413091D01*
X207250Y412972D01*
X207429Y412734D01*
X207547Y412481D01*
X207637Y412244D01*
X207681Y412021D01*
X207711Y411857D01*
X207726Y411783D01*
Y411739D01*
Y411709D01*
Y411694D01*
X207711Y411412D01*
X207696Y411293D01*
X207666Y411189D01*
X207652Y411100D01*
X207637Y411025D01*
X207622Y410981D01*
Y410966D01*
X207518Y410743D01*
X207458Y410639D01*
X207384Y410550D01*
X207339Y410490D01*
X207295Y410431D01*
X207265Y410401D01*
X207250Y410386D01*
X207042Y410223D01*
X206834Y410119D01*
X206745Y410074D01*
X206671Y410045D01*
X206626Y410015D01*
X206611D01*
X206463Y409970D01*
X206299Y409941D01*
X206151Y409911D01*
X206002Y409896D01*
X205868D01*
X205764Y409881D01*
X205675D01*
X205452Y409896D01*
X205244Y409911D01*
X205051Y409955D01*
X204888Y410000D01*
X204739Y410030D01*
X204635Y410074D01*
X204576Y410089D01*
X204546Y410104D01*
X204353Y410193D01*
X204160Y410312D01*
X203981Y410431D01*
X203818Y410565D01*
X203684Y410669D01*
X203580Y410758D01*
X203521Y410817D01*
X203491Y410847D01*
X203461Y410000D01*
X202466D01*
Y414383D01*
Y414577D01*
X202495Y414755D01*
X202525Y414903D01*
X202555Y415052D01*
X202585Y415156D01*
X202614Y415230D01*
X202629Y415290D01*
X202644Y415305D01*
X202718Y415453D01*
X202793Y415572D01*
X202882Y415691D01*
X202956Y415780D01*
X203030Y415854D01*
X203090Y415914D01*
X203134Y415944D01*
X203149Y415959D01*
X203402Y416137D01*
X203654Y416256D01*
X203759Y416300D01*
X203848Y416330D01*
X203907Y416360D01*
X203922D01*
X204279Y416434D01*
X204457Y416464D01*
X204620Y416479D01*
X204754Y416493D01*
X205185D01*
X205393Y416479D01*
D02*
G37*
G36*
X183951D02*
X184026Y416464D01*
X184085D01*
X184130Y416449D01*
X184145D01*
X184368Y416419D01*
X184561Y416389D01*
X184650Y416375D01*
X184709D01*
X184739Y416360D01*
X184754D01*
X184962Y416315D01*
X185125Y416270D01*
X185200Y416256D01*
X185244Y416241D01*
X185274Y416226D01*
X185289D01*
X185467Y416181D01*
X185616Y416137D01*
X185675Y416122D01*
X185720Y416107D01*
X185735Y416092D01*
X185749D01*
Y415097D01*
X185348Y415230D01*
X185170Y415290D01*
X185006Y415334D01*
X184873Y415379D01*
X184769Y415409D01*
X184709Y415424D01*
X184680D01*
X184293Y415498D01*
X184100Y415527D01*
X183937Y415542D01*
X183803Y415557D01*
X183610D01*
X183342Y415542D01*
X183119Y415498D01*
X182941Y415453D01*
X182778Y415394D01*
X182659Y415320D01*
X182570Y415275D01*
X182525Y415230D01*
X182510Y415215D01*
X182391Y415082D01*
X182302Y414933D01*
X182228Y414770D01*
X182183Y414621D01*
X182153Y414502D01*
X182139Y414383D01*
Y414324D01*
Y414294D01*
Y413745D01*
X183714D01*
X183951Y413715D01*
X184174Y413700D01*
X184382Y413655D01*
X184576Y413611D01*
X184739Y413566D01*
X184902Y413522D01*
X185036Y413477D01*
X185170Y413418D01*
X185274Y413373D01*
X185363Y413328D01*
X185437Y413284D01*
X185497Y413239D01*
X185541Y413224D01*
X185556Y413195D01*
X185571D01*
X185690Y413091D01*
X185809Y412972D01*
X185987Y412734D01*
X186106Y412481D01*
X186195Y412244D01*
X186240Y412021D01*
X186269Y411857D01*
X186284Y411783D01*
Y411739D01*
Y411709D01*
Y411694D01*
X186269Y411412D01*
X186255Y411293D01*
X186225Y411189D01*
X186210Y411100D01*
X186195Y411025D01*
X186180Y410981D01*
Y410966D01*
X186076Y410743D01*
X186017Y410639D01*
X185942Y410550D01*
X185898Y410490D01*
X185853Y410431D01*
X185824Y410401D01*
X185809Y410386D01*
X185601Y410223D01*
X185393Y410119D01*
X185304Y410074D01*
X185229Y410045D01*
X185185Y410015D01*
X185170D01*
X185021Y409970D01*
X184858Y409941D01*
X184709Y409911D01*
X184561Y409896D01*
X184427D01*
X184323Y409881D01*
X184234D01*
X184011Y409896D01*
X183803Y409911D01*
X183610Y409955D01*
X183446Y410000D01*
X183298Y410030D01*
X183194Y410074D01*
X183134Y410089D01*
X183104Y410104D01*
X182911Y410193D01*
X182718Y410312D01*
X182540Y410431D01*
X182376Y410565D01*
X182243Y410669D01*
X182139Y410758D01*
X182079Y410817D01*
X182050Y410847D01*
X182020Y410000D01*
X181024D01*
Y414383D01*
Y414577D01*
X181054Y414755D01*
X181084Y414903D01*
X181113Y415052D01*
X181143Y415156D01*
X181173Y415230D01*
X181188Y415290D01*
X181203Y415305D01*
X181277Y415453D01*
X181351Y415572D01*
X181440Y415691D01*
X181514Y415780D01*
X181589Y415854D01*
X181648Y415914D01*
X181693Y415944D01*
X181708Y415959D01*
X181960Y416137D01*
X182213Y416256D01*
X182317Y416300D01*
X182406Y416330D01*
X182465Y416360D01*
X182480D01*
X182837Y416434D01*
X183015Y416464D01*
X183179Y416479D01*
X183312Y416493D01*
X183743D01*
X183951Y416479D01*
D02*
G37*
G36*
X164694Y410000D02*
X163565D01*
Y414057D01*
X160459Y410000D01*
X159048D01*
X162465Y414339D01*
X159196Y418291D01*
X160534D01*
X163565Y414428D01*
Y418291D01*
X164694D01*
Y410000D01*
D02*
G37*
G36*
X229702D02*
X228632D01*
X228499Y415097D01*
X228469Y417147D01*
X228083Y415869D01*
X226924Y412704D01*
X226136D01*
X224903Y416003D01*
X224517Y417147D01*
X224442Y415186D01*
X224279Y410000D01*
X223179D01*
X223580Y418291D01*
X224947D01*
X226136Y415156D01*
X226478Y414101D01*
X226849Y415156D01*
X227964Y418291D01*
X229301D01*
X229702Y410000D01*
D02*
G37*
G36*
X221857Y412199D02*
X221842Y411783D01*
X221782Y411427D01*
X221708Y411129D01*
X221604Y410877D01*
X221515Y410698D01*
X221441Y410550D01*
X221381Y410476D01*
X221366Y410446D01*
X221158Y410253D01*
X220921Y410119D01*
X220668Y410015D01*
X220430Y409955D01*
X220222Y409911D01*
X220044Y409896D01*
X219970Y409881D01*
X219881D01*
X219673Y409896D01*
X219509Y409911D01*
X219435Y409926D01*
X219390D01*
X219360Y409941D01*
X219346D01*
X219152Y410000D01*
X218989Y410059D01*
X218915Y410074D01*
X218870Y410104D01*
X218840Y410119D01*
X218825D01*
X218632Y410223D01*
X218484Y410342D01*
X218409Y410386D01*
X218365Y410431D01*
X218335Y410446D01*
X218320Y410461D01*
X218127Y410639D01*
X217949Y410832D01*
X217875Y410906D01*
X217815Y410966D01*
X217785Y411010D01*
X217771Y411025D01*
X217741Y410000D01*
X216745D01*
Y416375D01*
X217845D01*
Y412140D01*
X217964Y412006D01*
X218068Y411872D01*
X218157Y411768D01*
X218246Y411679D01*
X218305Y411605D01*
X218365Y411545D01*
X218395Y411516D01*
X218409Y411501D01*
X218573Y411337D01*
X218722Y411204D01*
X218781Y411159D01*
X218825Y411129D01*
X218840Y411100D01*
X218855D01*
X219004Y411010D01*
X219137Y410936D01*
X219242Y410906D01*
X219256Y410891D01*
X219271D01*
X219420Y410862D01*
X219539Y410847D01*
X219628Y410832D01*
X219658D01*
X219851Y410847D01*
X220014Y410891D01*
X220163Y410966D01*
X220296Y411055D01*
X220401Y411174D01*
X220490Y411293D01*
X220564Y411427D01*
X220623Y411560D01*
X220698Y411828D01*
X220727Y411946D01*
X220742Y412065D01*
Y412155D01*
X220757Y412229D01*
Y412273D01*
Y412288D01*
Y416375D01*
X221857D01*
Y412199D01*
D02*
G37*
G36*
X280000Y410000D02*
X278826D01*
X278247Y411813D01*
X274785D01*
X274205Y410000D01*
X272972D01*
X275691Y418291D01*
X277236D01*
X280000Y410000D01*
D02*
G37*
G36*
X268157Y419019D02*
X268573Y418945D01*
X268915Y418811D01*
X269227Y418648D01*
X269480Y418455D01*
X269703Y418247D01*
X269866Y418009D01*
X270015Y417771D01*
X270119Y417533D01*
X270208Y417296D01*
X270267Y417088D01*
X270297Y416895D01*
X270327Y416731D01*
X270342Y416597D01*
Y416523D01*
Y416508D01*
Y416493D01*
Y415453D01*
X272392D01*
Y414532D01*
X270342D01*
Y410000D01*
X269212D01*
Y414532D01*
X266419D01*
Y415453D01*
X269212D01*
Y416568D01*
X269198Y416850D01*
X269153Y417088D01*
X269079Y417296D01*
X268975Y417474D01*
X268871Y417623D01*
X268737Y417742D01*
X268603Y417845D01*
X268469Y417935D01*
X268336Y417994D01*
X268202Y418039D01*
X268068Y418083D01*
X267964Y418098D01*
X267860Y418113D01*
X267786Y418128D01*
X267489D01*
X267221Y418098D01*
X266984Y418068D01*
X266746Y418039D01*
X266538Y418009D01*
X266374Y417979D01*
X266315Y417964D01*
X266270D01*
X266241Y417950D01*
X266226D01*
Y418900D01*
X266523Y418945D01*
X266790Y418990D01*
X267043Y419019D01*
X267266Y419034D01*
X267444Y419049D01*
X267934D01*
X268157Y419019D01*
D02*
G37*
G36*
X254680Y416479D02*
X254859Y416464D01*
X254918Y416449D01*
X254977D01*
X255007Y416434D01*
X255022D01*
X255200Y416375D01*
X255364Y416315D01*
X255438Y416285D01*
X255483Y416270D01*
X255512Y416241D01*
X255527D01*
X255720Y416122D01*
X255884Y416018D01*
X255943Y415959D01*
X256003Y415929D01*
X256032Y415899D01*
X256047Y415884D01*
X256241Y415706D01*
X256404Y415527D01*
X256478Y415453D01*
X256538Y415394D01*
X256567Y415349D01*
X256582Y415334D01*
X256627Y416375D01*
X257593D01*
Y410000D01*
X256493D01*
Y414220D01*
X256389Y414354D01*
X256285Y414487D01*
X256196Y414591D01*
X256107Y414681D01*
X256047Y414755D01*
X256003Y414814D01*
X255973Y414844D01*
X255958Y414859D01*
X255780Y415022D01*
X255631Y415156D01*
X255572Y415201D01*
X255527Y415230D01*
X255512Y415260D01*
X255497D01*
X255349Y415349D01*
X255215Y415424D01*
X255126Y415453D01*
X255111Y415468D01*
X255096D01*
X254948Y415513D01*
X254829Y415527D01*
X254725Y415542D01*
X254695D01*
X254502Y415527D01*
X254338Y415483D01*
X254190Y415424D01*
X254071Y415364D01*
X253982Y415290D01*
X253923Y415230D01*
X253878Y415186D01*
X253863Y415171D01*
X253774Y415022D01*
X253700Y414844D01*
X253655Y414666D01*
X253610Y414487D01*
X253596Y414324D01*
X253581Y414190D01*
Y414101D01*
Y414086D01*
Y414071D01*
Y410000D01*
X252481D01*
Y414160D01*
X252496Y414562D01*
X252555Y414918D01*
X252645Y415215D01*
X252734Y415468D01*
X252823Y415661D01*
X252912Y415795D01*
X252971Y415869D01*
X252986Y415899D01*
X253194Y416092D01*
X253432Y416241D01*
X253685Y416345D01*
X253923Y416419D01*
X254130Y416464D01*
X254309Y416479D01*
X254383Y416493D01*
X254472D01*
X254680Y416479D01*
D02*
G37*
G36*
X211396D02*
X211604Y416449D01*
X211782Y416389D01*
X211961Y416345D01*
X212094Y416285D01*
X212213Y416226D01*
X212273Y416196D01*
X212302Y416181D01*
X212510Y416048D01*
X212704Y415899D01*
X212897Y415736D01*
X213060Y415572D01*
X213209Y415424D01*
X213313Y415305D01*
X213387Y415215D01*
X213417Y415201D01*
Y415186D01*
X213447Y416375D01*
X214442D01*
Y410000D01*
X213328D01*
Y414086D01*
X213120Y414354D01*
X213016Y414458D01*
X212927Y414562D01*
X212867Y414636D01*
X212808Y414695D01*
X212778Y414725D01*
X212763Y414740D01*
X212570Y414933D01*
X212406Y415082D01*
X212347Y415126D01*
X212302Y415171D01*
X212273Y415186D01*
X212258Y415201D01*
X212080Y415320D01*
X211931Y415394D01*
X211886Y415424D01*
X211842Y415438D01*
X211812Y415453D01*
X211797D01*
X211634Y415513D01*
X211485Y415527D01*
X211441Y415542D01*
X211351D01*
X211173Y415527D01*
X211010Y415483D01*
X210891Y415424D01*
X210772Y415349D01*
X210683Y415275D01*
X210623Y415215D01*
X210594Y415171D01*
X210579Y415156D01*
X210490Y414993D01*
X210430Y414799D01*
X210386Y414606D01*
X210356Y414398D01*
X210341Y414220D01*
X210326Y414071D01*
Y414012D01*
Y413967D01*
Y413952D01*
Y413938D01*
X209212D01*
X209227Y414383D01*
X209271Y414770D01*
X209360Y415097D01*
X209450Y415364D01*
X209539Y415572D01*
X209583Y415646D01*
X209628Y415721D01*
X209657Y415780D01*
X209672Y415810D01*
X209702Y415840D01*
X209806Y415959D01*
X209910Y416063D01*
X210148Y416211D01*
X210400Y416330D01*
X210638Y416419D01*
X210846Y416464D01*
X211024Y416479D01*
X211099Y416493D01*
X211188D01*
X211396Y416479D01*
D02*
G37*
G36*
X200133Y418068D02*
X198246D01*
Y410921D01*
X200341D01*
Y410000D01*
X195229D01*
Y410921D01*
X197131D01*
Y418975D01*
X200133D01*
Y418068D01*
D02*
G37*
G36*
X262377Y416479D02*
X262630Y416449D01*
X262838Y416419D01*
X263031Y416375D01*
X263180Y416315D01*
X263298Y416285D01*
X263373Y416256D01*
X263403Y416241D01*
X263610Y416137D01*
X263789Y416033D01*
X263952Y415914D01*
X264101Y415810D01*
X264205Y415706D01*
X264294Y415632D01*
X264354Y415572D01*
X264368Y415557D01*
X264502Y415379D01*
X264621Y415201D01*
X264725Y415022D01*
X264814Y414859D01*
X264874Y414725D01*
X264918Y414606D01*
X264948Y414532D01*
X264963Y414502D01*
X265037Y414264D01*
X265082Y414027D01*
X265126Y413804D01*
X265141Y413596D01*
X265156Y413403D01*
X265171Y413269D01*
Y413209D01*
Y413165D01*
Y413150D01*
Y413135D01*
X265156Y412853D01*
X265141Y412585D01*
X265111Y412348D01*
X265067Y412140D01*
X265037Y411976D01*
X265007Y411842D01*
X264992Y411768D01*
X264977Y411739D01*
X264903Y411516D01*
X264814Y411322D01*
X264710Y411144D01*
X264621Y410995D01*
X264547Y410877D01*
X264472Y410788D01*
X264428Y410728D01*
X264413Y410713D01*
X264264Y410565D01*
X264101Y410446D01*
X263952Y410327D01*
X263804Y410253D01*
X263685Y410178D01*
X263581Y410134D01*
X263521Y410104D01*
X263492Y410089D01*
X263284Y410015D01*
X263061Y409970D01*
X262853Y409926D01*
X262674Y409911D01*
X262496Y409896D01*
X262377Y409881D01*
X262258D01*
X261991Y409896D01*
X261753Y409926D01*
X261545Y409955D01*
X261352Y410000D01*
X261203Y410045D01*
X261084Y410089D01*
X261010Y410104D01*
X260980Y410119D01*
X260772Y410223D01*
X260594Y410327D01*
X260431Y410446D01*
X260297Y410550D01*
X260178Y410654D01*
X260104Y410728D01*
X260044Y410788D01*
X260030Y410802D01*
X259881Y410981D01*
X259762Y411159D01*
X259658Y411337D01*
X259569Y411501D01*
X259509Y411634D01*
X259465Y411753D01*
X259435Y411828D01*
X259420Y411857D01*
X259346Y412095D01*
X259287Y412333D01*
X259257Y412571D01*
X259227Y412779D01*
X259212Y412957D01*
X259197Y413106D01*
Y413150D01*
Y413195D01*
Y413209D01*
Y413224D01*
X259212Y413507D01*
X259227Y413774D01*
X259257Y414012D01*
X259301Y414220D01*
X259346Y414383D01*
X259376Y414517D01*
X259391Y414591D01*
X259405Y414621D01*
X259480Y414844D01*
X259584Y415052D01*
X259673Y415215D01*
X259762Y415364D01*
X259851Y415483D01*
X259925Y415572D01*
X259970Y415632D01*
X259985Y415646D01*
X260133Y415795D01*
X260282Y415914D01*
X260446Y416033D01*
X260579Y416122D01*
X260713Y416181D01*
X260817Y416226D01*
X260877Y416256D01*
X260906Y416270D01*
X261114Y416345D01*
X261322Y416404D01*
X261530Y416434D01*
X261709Y416464D01*
X261887Y416479D01*
X262006Y416493D01*
X262125D01*
X262377Y416479D01*
D02*
G37*
G36*
X247875D02*
X248113Y416464D01*
X248335Y416434D01*
X248514Y416404D01*
X248662Y416360D01*
X248781Y416330D01*
X248841Y416315D01*
X248870Y416300D01*
X249049Y416226D01*
X249212Y416152D01*
X249346Y416077D01*
X249465Y416003D01*
X249554Y415944D01*
X249613Y415884D01*
X249658Y415854D01*
X249673Y415840D01*
X249777Y415736D01*
X249866Y415632D01*
X249940Y415542D01*
X249985Y415453D01*
X250029Y415379D01*
X250059Y415320D01*
X250089Y415275D01*
Y415260D01*
X250163Y415037D01*
X250193Y414859D01*
X250208Y414785D01*
Y414725D01*
Y414695D01*
Y414681D01*
Y414532D01*
X250178Y414398D01*
X250163Y414279D01*
X250133Y414175D01*
X250104Y414086D01*
X250089Y414027D01*
X250059Y413982D01*
Y413967D01*
X249925Y413759D01*
X249792Y413596D01*
X249732Y413536D01*
X249688Y413492D01*
X249658Y413462D01*
X249643Y413447D01*
X249435Y413299D01*
X249227Y413165D01*
X249153Y413120D01*
X249078Y413091D01*
X249034Y413076D01*
X249019Y413061D01*
X248737Y412942D01*
X248603Y412897D01*
X248484Y412853D01*
X248365Y412823D01*
X248291Y412794D01*
X248232Y412779D01*
X248217D01*
X248009Y412719D01*
X247845Y412660D01*
X247682Y412600D01*
X247563Y412556D01*
X247459Y412526D01*
X247384Y412496D01*
X247340Y412467D01*
X247325D01*
X247206Y412422D01*
X247102Y412363D01*
X247013Y412318D01*
X246954Y412288D01*
X246894Y412244D01*
X246864Y412229D01*
X246835Y412199D01*
X246731Y412110D01*
X246656Y412036D01*
X246627Y411976D01*
X246612Y411946D01*
X246567Y411842D01*
X246552Y411739D01*
X246537Y411664D01*
Y411649D01*
Y411634D01*
X246552Y411501D01*
X246597Y411382D01*
X246656Y411278D01*
X246731Y411189D01*
X246805Y411114D01*
X246864Y411070D01*
X246909Y411040D01*
X246924Y411025D01*
X247087Y410951D01*
X247266Y410906D01*
X247459Y410862D01*
X247652Y410847D01*
X247830Y410832D01*
X247964Y410817D01*
X248098D01*
X248499Y410832D01*
X248692Y410847D01*
X248855Y410862D01*
X248989D01*
X249108Y410877D01*
X249168Y410891D01*
X249197D01*
X249599Y410966D01*
X249792Y411010D01*
X249955Y411055D01*
X250089Y411085D01*
X250208Y411114D01*
X250267Y411144D01*
X250297D01*
Y410134D01*
X249911Y410045D01*
X249732Y410015D01*
X249569Y409985D01*
X249435Y409970D01*
X249331Y409955D01*
X249272Y409941D01*
X249242D01*
X248826Y409911D01*
X248618Y409896D01*
X248440D01*
X248291Y409881D01*
X248053D01*
X247830Y409896D01*
X247637Y409911D01*
X247563D01*
X247503Y409926D01*
X247444D01*
X247221Y409970D01*
X247028Y410015D01*
X246939Y410030D01*
X246879Y410045D01*
X246850Y410059D01*
X246835D01*
X246627Y410134D01*
X246448Y410208D01*
X246374Y410253D01*
X246329Y410267D01*
X246300Y410297D01*
X246285D01*
X246107Y410416D01*
X245958Y410535D01*
X245899Y410579D01*
X245854Y410624D01*
X245839Y410639D01*
X245824Y410654D01*
X245691Y410817D01*
X245601Y410966D01*
X245557Y411040D01*
X245527Y411085D01*
X245512Y411114D01*
Y411129D01*
X245438Y411337D01*
X245408Y411530D01*
X245393Y411605D01*
Y411664D01*
Y411709D01*
Y411724D01*
X245408Y411976D01*
X245423Y412080D01*
X245453Y412184D01*
X245468Y412259D01*
X245497Y412318D01*
X245512Y412348D01*
Y412363D01*
X245616Y412556D01*
X245720Y412719D01*
X245780Y412779D01*
X245809Y412823D01*
X245839Y412853D01*
X245854Y412868D01*
X246047Y413031D01*
X246255Y413150D01*
X246344Y413195D01*
X246419Y413239D01*
X246463Y413254D01*
X246478Y413269D01*
X246627Y413343D01*
X246790Y413403D01*
X246954Y413462D01*
X247102Y413522D01*
X247236Y413566D01*
X247340Y413596D01*
X247399Y413611D01*
X247429Y413626D01*
X247607Y413685D01*
X247786Y413730D01*
X247919Y413774D01*
X248053Y413819D01*
X248142Y413848D01*
X248217Y413878D01*
X248261Y413893D01*
X248276D01*
X248484Y413997D01*
X248647Y414071D01*
X248707Y414116D01*
X248752Y414131D01*
X248766Y414160D01*
X248781D01*
X248900Y414264D01*
X248960Y414339D01*
X249004Y414398D01*
X249019Y414428D01*
X249049Y414547D01*
X249064Y414636D01*
X249078Y414710D01*
Y414740D01*
X249064Y414874D01*
X249034Y414978D01*
X249019Y415037D01*
X249004Y415067D01*
X248930Y415171D01*
X248855Y415245D01*
X248796Y415305D01*
X248766Y415320D01*
X248618Y415394D01*
X248469Y415453D01*
X248410Y415468D01*
X248350Y415483D01*
X248321Y415498D01*
X248306D01*
X248083Y415542D01*
X247845Y415557D01*
X247756Y415572D01*
X247607D01*
X247340Y415557D01*
X247206Y415542D01*
X247073D01*
X246968Y415527D01*
X246879Y415513D01*
X246820Y415498D01*
X246805D01*
X246448Y415438D01*
X246285Y415409D01*
X246122Y415394D01*
X246003Y415364D01*
X245899Y415334D01*
X245839Y415320D01*
X245809D01*
Y416300D01*
X246166Y416375D01*
X246329Y416389D01*
X246478Y416419D01*
X246597Y416434D01*
X246701D01*
X246760Y416449D01*
X246775D01*
X247087Y416479D01*
X247236D01*
X247355Y416493D01*
X247593D01*
X247875Y416479D01*
D02*
G37*
G36*
X240936D02*
X241188Y416449D01*
X241396Y416419D01*
X241590Y416375D01*
X241738Y416315D01*
X241857Y416285D01*
X241931Y416256D01*
X241961Y416241D01*
X242169Y416137D01*
X242347Y416033D01*
X242511Y415914D01*
X242659Y415810D01*
X242763Y415706D01*
X242852Y415632D01*
X242912Y415572D01*
X242927Y415557D01*
X243060Y415379D01*
X243179Y415201D01*
X243283Y415022D01*
X243373Y414859D01*
X243432Y414725D01*
X243477Y414606D01*
X243506Y414532D01*
X243521Y414502D01*
X243595Y414264D01*
X243640Y414027D01*
X243685Y413804D01*
X243699Y413596D01*
X243714Y413403D01*
X243729Y413269D01*
Y413209D01*
Y413165D01*
Y413150D01*
Y413135D01*
X243714Y412853D01*
X243699Y412585D01*
X243670Y412348D01*
X243625Y412140D01*
X243595Y411976D01*
X243566Y411842D01*
X243551Y411768D01*
X243536Y411739D01*
X243462Y411516D01*
X243373Y411322D01*
X243269Y411144D01*
X243179Y410995D01*
X243105Y410877D01*
X243031Y410788D01*
X242986Y410728D01*
X242971Y410713D01*
X242823Y410565D01*
X242659Y410446D01*
X242511Y410327D01*
X242362Y410253D01*
X242243Y410178D01*
X242139Y410134D01*
X242080Y410104D01*
X242050Y410089D01*
X241842Y410015D01*
X241619Y409970D01*
X241411Y409926D01*
X241233Y409911D01*
X241055Y409896D01*
X240936Y409881D01*
X240817D01*
X240549Y409896D01*
X240312Y409926D01*
X240104Y409955D01*
X239910Y410000D01*
X239762Y410045D01*
X239643Y410089D01*
X239569Y410104D01*
X239539Y410119D01*
X239331Y410223D01*
X239153Y410327D01*
X238989Y410446D01*
X238855Y410550D01*
X238737Y410654D01*
X238662Y410728D01*
X238603Y410788D01*
X238588Y410802D01*
X238439Y410981D01*
X238321Y411159D01*
X238216Y411337D01*
X238127Y411501D01*
X238068Y411634D01*
X238023Y411753D01*
X237994Y411828D01*
X237979Y411857D01*
X237904Y412095D01*
X237845Y412333D01*
X237815Y412571D01*
X237786Y412779D01*
X237771Y412957D01*
X237756Y413106D01*
Y413150D01*
Y413195D01*
Y413209D01*
Y413224D01*
X237771Y413507D01*
X237786Y413774D01*
X237815Y414012D01*
X237860Y414220D01*
X237904Y414383D01*
X237934Y414517D01*
X237949Y414591D01*
X237964Y414621D01*
X238038Y414844D01*
X238142Y415052D01*
X238231Y415215D01*
X238321Y415364D01*
X238410Y415483D01*
X238484Y415572D01*
X238528Y415632D01*
X238543Y415646D01*
X238692Y415795D01*
X238841Y415914D01*
X239004Y416033D01*
X239138Y416122D01*
X239272Y416181D01*
X239375Y416226D01*
X239435Y416256D01*
X239465Y416270D01*
X239673Y416345D01*
X239881Y416404D01*
X240089Y416434D01*
X240267Y416464D01*
X240445Y416479D01*
X240564Y416493D01*
X240683D01*
X240936Y416479D01*
D02*
G37*
G36*
X148260Y418381D02*
X148453Y418351D01*
X148632Y418321D01*
X148780Y418291D01*
X148884Y418262D01*
X148944Y418247D01*
X148973Y418232D01*
X149152Y418158D01*
X149315Y418083D01*
X149449Y418009D01*
X149568Y417935D01*
X149672Y417860D01*
X149746Y417801D01*
X149791Y417771D01*
X149805Y417756D01*
X149924Y417652D01*
X150014Y417533D01*
X150103Y417415D01*
X150177Y417311D01*
X150222Y417221D01*
X150266Y417147D01*
X150281Y417103D01*
X150296Y417088D01*
X150355Y416954D01*
X150385Y416820D01*
X150415Y416687D01*
X150444Y416568D01*
Y416479D01*
X150459Y416389D01*
Y416345D01*
Y416330D01*
X150444Y416092D01*
X150400Y415869D01*
X150340Y415676D01*
X150266Y415513D01*
X150207Y415364D01*
X150147Y415260D01*
X150103Y415201D01*
X150088Y415171D01*
X149924Y414993D01*
X149746Y414814D01*
X149553Y414651D01*
X149360Y414517D01*
X149181Y414413D01*
X149033Y414324D01*
X148973Y414294D01*
X148929Y414264D01*
X148914Y414250D01*
X148899D01*
X149211Y414071D01*
X149479Y413908D01*
X149701Y413730D01*
X149895Y413581D01*
X150043Y413447D01*
X150132Y413328D01*
X150207Y413269D01*
X150222Y413239D01*
X150355Y413031D01*
X150459Y412808D01*
X150534Y412585D01*
X150578Y412377D01*
X150608Y412199D01*
X150638Y412065D01*
Y412006D01*
Y411961D01*
Y411946D01*
Y411932D01*
X150623Y411768D01*
X150608Y411605D01*
X150578Y411471D01*
X150548Y411337D01*
X150519Y411248D01*
X150504Y411159D01*
X150474Y411114D01*
Y411100D01*
X150400Y410966D01*
X150311Y410847D01*
X150236Y410728D01*
X150147Y410639D01*
X150073Y410550D01*
X150014Y410490D01*
X149969Y410461D01*
X149954Y410446D01*
X149820Y410357D01*
X149672Y410267D01*
X149523Y410193D01*
X149375Y410134D01*
X149256Y410089D01*
X149166Y410059D01*
X149107Y410030D01*
X149077D01*
X148869Y409985D01*
X148676Y409941D01*
X148468Y409911D01*
X148275Y409896D01*
X148111D01*
X147993Y409881D01*
X147651D01*
X147443Y409896D01*
X147250Y409926D01*
X147086Y409955D01*
X146938Y409970D01*
X146834Y410000D01*
X146774Y410015D01*
X146744D01*
X146551Y410074D01*
X146373Y410149D01*
X146224Y410223D01*
X146076Y410282D01*
X145972Y410342D01*
X145898Y410401D01*
X145838Y410431D01*
X145823Y410446D01*
X145689Y410550D01*
X145571Y410669D01*
X145467Y410788D01*
X145378Y410891D01*
X145303Y410981D01*
X145259Y411070D01*
X145229Y411114D01*
X145214Y411129D01*
X145140Y411293D01*
X145080Y411456D01*
X145051Y411620D01*
X145021Y411768D01*
X145006Y411887D01*
X144991Y411991D01*
Y412051D01*
Y412080D01*
X145006Y412363D01*
X145036Y412496D01*
X145051Y412600D01*
X145080Y412690D01*
X145110Y412764D01*
X145125Y412808D01*
Y412823D01*
X145244Y413061D01*
X145303Y413165D01*
X145363Y413254D01*
X145407Y413328D01*
X145452Y413388D01*
X145482Y413418D01*
X145496Y413432D01*
X145675Y413626D01*
X145853Y413789D01*
X145927Y413848D01*
X145987Y413893D01*
X146031Y413923D01*
X146046Y413938D01*
X146284Y414101D01*
X146507Y414220D01*
X146596Y414264D01*
X146670Y414309D01*
X146715Y414324D01*
X146730Y414339D01*
X146462Y414487D01*
X146239Y414636D01*
X146046Y414785D01*
X145883Y414933D01*
X145749Y415052D01*
X145660Y415141D01*
X145600Y415215D01*
X145585Y415230D01*
X145452Y415424D01*
X145348Y415632D01*
X145273Y415840D01*
X145214Y416033D01*
X145184Y416211D01*
X145169Y416345D01*
Y416434D01*
Y416449D01*
Y416464D01*
Y416627D01*
X145199Y416776D01*
X145229Y416909D01*
X145259Y417013D01*
X145288Y417118D01*
X145318Y417192D01*
X145333Y417236D01*
X145348Y417251D01*
X145422Y417385D01*
X145496Y417504D01*
X145571Y417608D01*
X145660Y417697D01*
X145719Y417771D01*
X145779Y417831D01*
X145823Y417860D01*
X145838Y417875D01*
X145972Y417964D01*
X146105Y418039D01*
X146239Y418113D01*
X146373Y418158D01*
X146477Y418202D01*
X146566Y418232D01*
X146641Y418262D01*
X146655D01*
X147042Y418351D01*
X147235Y418381D01*
X147398Y418395D01*
X147562Y418410D01*
X148037D01*
X148260Y418381D01*
D02*
G37*
G36*
X198959Y434034D02*
X199063Y434019D01*
X199137Y433990D01*
X199152Y433975D01*
X199167D01*
X199286Y433915D01*
X199375Y433856D01*
X199435Y433811D01*
X199449Y433782D01*
X199524Y433693D01*
X199583Y433603D01*
X199613Y433529D01*
X199628Y433514D01*
Y433499D01*
X199657Y433381D01*
X199672Y433276D01*
X199687Y433202D01*
Y433187D01*
Y433172D01*
X199672Y433039D01*
X199657Y432935D01*
X199643Y432860D01*
X199628Y432845D01*
Y432831D01*
X199568Y432727D01*
X199509Y432637D01*
X199464Y432578D01*
X199449Y432548D01*
X199360Y432474D01*
X199256Y432415D01*
X199197Y432385D01*
X199167Y432370D01*
X199048Y432340D01*
X198929Y432326D01*
X198855Y432311D01*
X198825D01*
X198692Y432326D01*
X198587Y432340D01*
X198513Y432355D01*
X198484Y432370D01*
X198365Y432430D01*
X198276Y432489D01*
X198216Y432533D01*
X198201Y432548D01*
X198127Y432652D01*
X198067Y432742D01*
X198038Y432801D01*
X198023Y432831D01*
X197978Y432950D01*
X197964Y433068D01*
X197949Y433143D01*
Y433158D01*
Y433172D01*
X197964Y433306D01*
X197978Y433410D01*
X198008Y433470D01*
X198023Y433499D01*
X198082Y433618D01*
X198127Y433707D01*
X198186Y433767D01*
X198201Y433782D01*
X198290Y433871D01*
X198379Y433930D01*
X198454Y433960D01*
X198469Y433975D01*
X198484D01*
X198602Y434019D01*
X198721Y434034D01*
X198796Y434049D01*
X198825D01*
X198959Y434034D01*
D02*
G37*
G36*
X258410Y425000D02*
X257310D01*
Y428403D01*
X254338Y425000D01*
X252823D01*
X255973Y428432D01*
X252986Y431375D01*
X254443D01*
X257310Y428447D01*
Y433975D01*
X258410D01*
Y425000D01*
D02*
G37*
G36*
X262764Y431449D02*
X263001Y431419D01*
X263224Y431389D01*
X263417Y431345D01*
X263581Y431285D01*
X263700Y431256D01*
X263774Y431226D01*
X263804Y431211D01*
X264012Y431107D01*
X264220Y431003D01*
X264383Y430884D01*
X264532Y430780D01*
X264666Y430676D01*
X264755Y430602D01*
X264814Y430542D01*
X264829Y430527D01*
X264977Y430364D01*
X265111Y430186D01*
X265215Y430008D01*
X265304Y429844D01*
X265379Y429710D01*
X265438Y429591D01*
X265468Y429517D01*
X265483Y429487D01*
X265557Y429250D01*
X265616Y429012D01*
X265646Y428789D01*
X265676Y428581D01*
X265691Y428388D01*
X265706Y428254D01*
Y428195D01*
Y428150D01*
Y428135D01*
Y428120D01*
X265691Y427838D01*
X265676Y427571D01*
X265631Y427318D01*
X265587Y427080D01*
X265513Y426872D01*
X265453Y426679D01*
X265379Y426501D01*
X265304Y426337D01*
X265230Y426189D01*
X265156Y426070D01*
X265082Y425966D01*
X265022Y425877D01*
X264977Y425817D01*
X264933Y425773D01*
X264918Y425743D01*
X264903Y425728D01*
X264740Y425579D01*
X264562Y425461D01*
X264383Y425357D01*
X264190Y425253D01*
X263804Y425104D01*
X263432Y425015D01*
X263254Y424985D01*
X263090Y424955D01*
X262942Y424941D01*
X262823Y424926D01*
X262719Y424911D01*
X262570D01*
X262229Y424926D01*
X262065Y424941D01*
X261931Y424955D01*
X261813D01*
X261723Y424970D01*
X261664Y424985D01*
X261649D01*
X261307Y425059D01*
X261159Y425104D01*
X261025Y425134D01*
X260906Y425178D01*
X260817Y425208D01*
X260758Y425238D01*
X260743D01*
Y426263D01*
X261040Y426129D01*
X261189Y426070D01*
X261307Y426025D01*
X261411Y425995D01*
X261500Y425966D01*
X261560Y425951D01*
X261575D01*
X261887Y425906D01*
X262036Y425877D01*
X262154D01*
X262273Y425862D01*
X262437D01*
X262793Y425891D01*
X263105Y425951D01*
X263373Y426040D01*
X263596Y426144D01*
X263759Y426248D01*
X263893Y426337D01*
X263967Y426397D01*
X263997Y426427D01*
X264175Y426664D01*
X264309Y426946D01*
X264413Y427229D01*
X264472Y427511D01*
X264517Y427764D01*
X264532Y427883D01*
Y427972D01*
X264547Y428061D01*
Y428120D01*
Y428150D01*
Y428165D01*
X264532Y428358D01*
X264517Y428551D01*
X264487Y428715D01*
X264457Y428863D01*
X264428Y428982D01*
X264413Y429071D01*
X264383Y429131D01*
Y429146D01*
X264324Y429309D01*
X264249Y429458D01*
X264175Y429577D01*
X264101Y429681D01*
X264041Y429770D01*
X263982Y429829D01*
X263952Y429874D01*
X263937Y429889D01*
X263715Y430097D01*
X263507Y430245D01*
X263417Y430290D01*
X263343Y430334D01*
X263298Y430364D01*
X263284D01*
X263135Y430424D01*
X263001Y430453D01*
X262853Y430483D01*
X262734Y430513D01*
X262630D01*
X262556Y430527D01*
X262481D01*
X262154Y430513D01*
X261991Y430498D01*
X261857Y430483D01*
X261753Y430453D01*
X261664Y430438D01*
X261605Y430424D01*
X261590D01*
X261278Y430334D01*
X261129Y430275D01*
X261010Y430230D01*
X260891Y430186D01*
X260817Y430141D01*
X260758Y430126D01*
X260743Y430112D01*
Y431166D01*
X261040Y431270D01*
X261189Y431300D01*
X261307Y431330D01*
X261411Y431360D01*
X261500Y431375D01*
X261560Y431389D01*
X261575D01*
X261902Y431434D01*
X262050Y431449D01*
X262199D01*
X262318Y431464D01*
X262496D01*
X262764Y431449D01*
D02*
G37*
G36*
X243090Y433113D02*
Y431375D01*
X244873D01*
Y430453D01*
X243090D01*
Y427110D01*
X243060Y426724D01*
X243001Y426382D01*
X242912Y426100D01*
X242793Y425862D01*
X242689Y425684D01*
X242600Y425550D01*
X242540Y425476D01*
X242511Y425446D01*
X242258Y425267D01*
X241976Y425134D01*
X241679Y425045D01*
X241381Y424985D01*
X241129Y424941D01*
X241010Y424926D01*
X240906D01*
X240832Y424911D01*
X240713D01*
X240416Y424926D01*
X240282D01*
X240163Y424941D01*
X240059D01*
X239985Y424955D01*
X239910D01*
X239613Y425000D01*
X239480Y425015D01*
X239361Y425045D01*
X239272Y425059D01*
X239182Y425074D01*
X239138Y425089D01*
X239123D01*
Y426040D01*
X239405Y425981D01*
X239539Y425951D01*
X239658Y425921D01*
X239762Y425906D01*
X239836D01*
X239881Y425891D01*
X239896D01*
X240148Y425862D01*
X240252D01*
X240356Y425847D01*
X240549D01*
X240802Y425862D01*
X241025Y425891D01*
X241203Y425951D01*
X241352Y426010D01*
X241486Y426070D01*
X241560Y426129D01*
X241619Y426159D01*
X241634Y426174D01*
X241753Y426322D01*
X241842Y426486D01*
X241901Y426649D01*
X241946Y426813D01*
X241976Y426961D01*
X241991Y427080D01*
Y427169D01*
Y427199D01*
Y430453D01*
X239123D01*
Y431375D01*
X241991D01*
Y433410D01*
X243090Y433113D01*
D02*
G37*
G36*
X214501D02*
Y431375D01*
X216285D01*
Y430453D01*
X214501D01*
Y427110D01*
X214472Y426724D01*
X214412Y426382D01*
X214323Y426100D01*
X214204Y425862D01*
X214100Y425684D01*
X214011Y425550D01*
X213952Y425476D01*
X213922Y425446D01*
X213669Y425267D01*
X213387Y425134D01*
X213090Y425045D01*
X212793Y424985D01*
X212540Y424941D01*
X212421Y424926D01*
X212317D01*
X212243Y424911D01*
X212124D01*
X211827Y424926D01*
X211693D01*
X211574Y424941D01*
X211470D01*
X211396Y424955D01*
X211322D01*
X211024Y425000D01*
X210891Y425015D01*
X210772Y425045D01*
X210683Y425059D01*
X210594Y425074D01*
X210549Y425089D01*
X210534D01*
Y426040D01*
X210816Y425981D01*
X210950Y425951D01*
X211069Y425921D01*
X211173Y425906D01*
X211247D01*
X211292Y425891D01*
X211307D01*
X211559Y425862D01*
X211663D01*
X211768Y425847D01*
X211961D01*
X212213Y425862D01*
X212436Y425891D01*
X212614Y425951D01*
X212763Y426010D01*
X212897Y426070D01*
X212971Y426129D01*
X213030Y426159D01*
X213045Y426174D01*
X213164Y426322D01*
X213253Y426486D01*
X213313Y426649D01*
X213357Y426813D01*
X213387Y426961D01*
X213402Y427080D01*
Y427169D01*
Y427199D01*
Y430453D01*
X210534D01*
Y431375D01*
X213402D01*
Y433410D01*
X214501Y433113D01*
D02*
G37*
G36*
X249049Y431479D02*
X249272Y431449D01*
X249480Y431404D01*
X249673Y431360D01*
X249821Y431315D01*
X249925Y431270D01*
X250000Y431241D01*
X250029Y431226D01*
X250223Y431122D01*
X250401Y431003D01*
X250550Y430884D01*
X250683Y430765D01*
X250787Y430661D01*
X250861Y430572D01*
X250921Y430513D01*
X250936Y430498D01*
X251055Y430320D01*
X251173Y430141D01*
X251263Y429963D01*
X251337Y429799D01*
X251411Y429651D01*
X251456Y429547D01*
X251471Y429473D01*
X251486Y429443D01*
X251545Y429220D01*
X251590Y428997D01*
X251634Y428774D01*
X251649Y428581D01*
X251664Y428418D01*
X251679Y428284D01*
Y428195D01*
Y428180D01*
Y428165D01*
X251664Y427883D01*
X251649Y427615D01*
X251619Y427377D01*
X251590Y427184D01*
X251560Y427006D01*
X251530Y426872D01*
X251500Y426798D01*
Y426768D01*
X251426Y426545D01*
X251337Y426352D01*
X251248Y426174D01*
X251159Y426025D01*
X251084Y425891D01*
X251010Y425802D01*
X250965Y425743D01*
X250951Y425728D01*
X250802Y425579D01*
X250639Y425461D01*
X250475Y425342D01*
X250327Y425253D01*
X250193Y425178D01*
X250074Y425134D01*
X250014Y425104D01*
X249985Y425089D01*
X249747Y425015D01*
X249509Y424970D01*
X249272Y424926D01*
X249049Y424911D01*
X248855Y424896D01*
X248707Y424881D01*
X248350D01*
X248127Y424896D01*
X247934Y424911D01*
X247756Y424926D01*
X247607D01*
X247503Y424941D01*
X247429Y424955D01*
X247399D01*
X247191Y424985D01*
X246998Y425015D01*
X246820Y425059D01*
X246671Y425089D01*
X246552Y425119D01*
X246448Y425149D01*
X246389Y425163D01*
X246374D01*
Y426070D01*
X246537Y426025D01*
X246671Y425995D01*
X246731Y425981D01*
X246775Y425966D01*
X246805Y425951D01*
X246820D01*
X246998Y425921D01*
X247162Y425891D01*
X247221Y425877D01*
X247281D01*
X247310Y425862D01*
X247325D01*
X247518Y425847D01*
X247682Y425832D01*
X247756Y425817D01*
X247860D01*
X248053Y425802D01*
X248410D01*
X248766Y425832D01*
X249093Y425891D01*
X249361Y425966D01*
X249584Y426070D01*
X249762Y426159D01*
X249881Y426248D01*
X249955Y426308D01*
X249985Y426322D01*
X250163Y426530D01*
X250297Y426783D01*
X250386Y427036D01*
X250445Y427273D01*
X250490Y427496D01*
X250505Y427675D01*
X250520Y427749D01*
Y427794D01*
Y427823D01*
Y427838D01*
X246062D01*
X246047Y427942D01*
Y428031D01*
Y428091D01*
Y428120D01*
X246032Y428254D01*
Y428388D01*
Y428432D01*
Y428477D01*
Y428507D01*
Y428522D01*
X246047Y428774D01*
X246062Y428997D01*
X246092Y429220D01*
X246122Y429398D01*
X246166Y429547D01*
X246196Y429666D01*
X246211Y429725D01*
X246225Y429755D01*
X246300Y429948D01*
X246389Y430126D01*
X246478Y430290D01*
X246552Y430424D01*
X246642Y430527D01*
X246701Y430617D01*
X246746Y430661D01*
X246760Y430676D01*
X246894Y430810D01*
X247043Y430929D01*
X247176Y431033D01*
X247325Y431122D01*
X247444Y431181D01*
X247533Y431226D01*
X247593Y431256D01*
X247622Y431270D01*
X247815Y431345D01*
X248023Y431404D01*
X248217Y431434D01*
X248395Y431464D01*
X248558Y431479D01*
X248677Y431493D01*
X248796D01*
X249049Y431479D01*
D02*
G37*
G36*
X220460D02*
X220683Y431449D01*
X220891Y431404D01*
X221084Y431360D01*
X221233Y431315D01*
X221337Y431270D01*
X221411Y431241D01*
X221441Y431226D01*
X221634Y431122D01*
X221812Y431003D01*
X221961Y430884D01*
X222094Y430765D01*
X222199Y430661D01*
X222273Y430572D01*
X222332Y430513D01*
X222347Y430498D01*
X222466Y430320D01*
X222585Y430141D01*
X222674Y429963D01*
X222748Y429799D01*
X222823Y429651D01*
X222867Y429547D01*
X222882Y429473D01*
X222897Y429443D01*
X222956Y429220D01*
X223001Y428997D01*
X223046Y428774D01*
X223060Y428581D01*
X223075Y428418D01*
X223090Y428284D01*
Y428195D01*
Y428180D01*
Y428165D01*
X223075Y427883D01*
X223060Y427615D01*
X223031Y427377D01*
X223001Y427184D01*
X222971Y427006D01*
X222941Y426872D01*
X222912Y426798D01*
Y426768D01*
X222837Y426545D01*
X222748Y426352D01*
X222659Y426174D01*
X222570Y426025D01*
X222496Y425891D01*
X222421Y425802D01*
X222377Y425743D01*
X222362Y425728D01*
X222213Y425579D01*
X222050Y425461D01*
X221886Y425342D01*
X221738Y425253D01*
X221604Y425178D01*
X221485Y425134D01*
X221426Y425104D01*
X221396Y425089D01*
X221158Y425015D01*
X220921Y424970D01*
X220683Y424926D01*
X220460Y424911D01*
X220267Y424896D01*
X220118Y424881D01*
X219762D01*
X219539Y424896D01*
X219346Y424911D01*
X219167Y424926D01*
X219019D01*
X218915Y424941D01*
X218840Y424955D01*
X218811D01*
X218603Y424985D01*
X218409Y425015D01*
X218231Y425059D01*
X218083Y425089D01*
X217964Y425119D01*
X217860Y425149D01*
X217800Y425163D01*
X217785D01*
Y426070D01*
X217949Y426025D01*
X218083Y425995D01*
X218142Y425981D01*
X218187Y425966D01*
X218216Y425951D01*
X218231D01*
X218409Y425921D01*
X218573Y425891D01*
X218632Y425877D01*
X218692D01*
X218722Y425862D01*
X218736D01*
X218930Y425847D01*
X219093Y425832D01*
X219167Y425817D01*
X219271D01*
X219464Y425802D01*
X219821D01*
X220178Y425832D01*
X220505Y425891D01*
X220772Y425966D01*
X220995Y426070D01*
X221173Y426159D01*
X221292Y426248D01*
X221366Y426308D01*
X221396Y426322D01*
X221574Y426530D01*
X221708Y426783D01*
X221797Y427036D01*
X221857Y427273D01*
X221901Y427496D01*
X221916Y427675D01*
X221931Y427749D01*
Y427794D01*
Y427823D01*
Y427838D01*
X217473D01*
X217458Y427942D01*
Y428031D01*
Y428091D01*
Y428120D01*
X217444Y428254D01*
Y428388D01*
Y428432D01*
Y428477D01*
Y428507D01*
Y428522D01*
X217458Y428774D01*
X217473Y428997D01*
X217503Y429220D01*
X217533Y429398D01*
X217577Y429547D01*
X217607Y429666D01*
X217622Y429725D01*
X217637Y429755D01*
X217711Y429948D01*
X217800Y430126D01*
X217889Y430290D01*
X217964Y430424D01*
X218053Y430527D01*
X218112Y430617D01*
X218157Y430661D01*
X218172Y430676D01*
X218305Y430810D01*
X218454Y430929D01*
X218588Y431033D01*
X218736Y431122D01*
X218855Y431181D01*
X218944Y431226D01*
X219004Y431256D01*
X219034Y431270D01*
X219227Y431345D01*
X219435Y431404D01*
X219628Y431434D01*
X219806Y431464D01*
X219970Y431479D01*
X220089Y431493D01*
X220207D01*
X220460Y431479D01*
D02*
G37*
G36*
X280000Y425000D02*
X278871D01*
Y427972D01*
X277845D01*
X277533Y427987D01*
X277251Y428016D01*
X276999Y428046D01*
X276776Y428091D01*
X276597Y428135D01*
X276464Y428180D01*
X276389Y428195D01*
X276360Y428209D01*
X276137Y428299D01*
X275929Y428403D01*
X275765Y428507D01*
X275617Y428611D01*
X275498Y428700D01*
X275409Y428774D01*
X275349Y428819D01*
X275334Y428834D01*
X275186Y428982D01*
X275067Y429146D01*
X274963Y429294D01*
X274888Y429428D01*
X274829Y429547D01*
X274770Y429636D01*
X274755Y429710D01*
X274740Y429725D01*
X274681Y429918D01*
X274621Y430097D01*
X274591Y430275D01*
X274576Y430424D01*
X274562Y430557D01*
X274547Y430661D01*
Y430721D01*
Y430750D01*
X274562Y431003D01*
X274591Y431226D01*
X274636Y431419D01*
X274681Y431582D01*
X274725Y431716D01*
X274770Y431820D01*
X274799Y431895D01*
X274814Y431909D01*
X274918Y432088D01*
X275022Y432236D01*
X275141Y432370D01*
X275245Y432489D01*
X275349Y432578D01*
X275423Y432637D01*
X275483Y432682D01*
X275498Y432697D01*
X275661Y432801D01*
X275825Y432905D01*
X275988Y432979D01*
X276152Y433039D01*
X276285Y433083D01*
X276389Y433113D01*
X276464Y433143D01*
X276493D01*
X276909Y433232D01*
X277117Y433262D01*
X277296Y433276D01*
X277444Y433291D01*
X280000D01*
Y425000D01*
D02*
G37*
G36*
X230430Y432326D02*
X227979D01*
Y425000D01*
X226835D01*
Y432326D01*
X224383D01*
Y433291D01*
X230430D01*
Y432326D01*
D02*
G37*
G36*
X205215Y431479D02*
X205423Y431449D01*
X205601Y431389D01*
X205779Y431345D01*
X205913Y431285D01*
X206032Y431226D01*
X206091Y431196D01*
X206121Y431181D01*
X206329Y431048D01*
X206522Y430899D01*
X206715Y430736D01*
X206879Y430572D01*
X207027Y430424D01*
X207132Y430305D01*
X207206Y430215D01*
X207236Y430201D01*
Y430186D01*
X207265Y431375D01*
X208261D01*
Y425000D01*
X207146D01*
Y429086D01*
X206938Y429354D01*
X206834Y429458D01*
X206745Y429562D01*
X206686Y429636D01*
X206626Y429695D01*
X206597Y429725D01*
X206582Y429740D01*
X206388Y429933D01*
X206225Y430082D01*
X206166Y430126D01*
X206121Y430171D01*
X206091Y430186D01*
X206077Y430201D01*
X205898Y430320D01*
X205750Y430394D01*
X205705Y430424D01*
X205660Y430438D01*
X205631Y430453D01*
X205616D01*
X205452Y430513D01*
X205304Y430527D01*
X205259Y430542D01*
X205170D01*
X204992Y430527D01*
X204828Y430483D01*
X204709Y430424D01*
X204591Y430349D01*
X204501Y430275D01*
X204442Y430215D01*
X204412Y430171D01*
X204397Y430156D01*
X204308Y429993D01*
X204249Y429799D01*
X204204Y429606D01*
X204174Y429398D01*
X204160Y429220D01*
X204145Y429071D01*
Y429012D01*
Y428967D01*
Y428952D01*
Y428938D01*
X203030D01*
X203045Y429383D01*
X203090Y429770D01*
X203179Y430097D01*
X203268Y430364D01*
X203357Y430572D01*
X203402Y430646D01*
X203446Y430721D01*
X203476Y430780D01*
X203491Y430810D01*
X203521Y430840D01*
X203625Y430958D01*
X203729Y431063D01*
X203967Y431211D01*
X204219Y431330D01*
X204457Y431419D01*
X204665Y431464D01*
X204843Y431479D01*
X204918Y431493D01*
X205007D01*
X205215Y431479D01*
D02*
G37*
G36*
X201099Y430453D02*
X199212D01*
Y425921D01*
X201307D01*
Y425000D01*
X196195D01*
Y425921D01*
X198097D01*
Y431375D01*
X201099D01*
Y430453D01*
D02*
G37*
G36*
X270490Y431479D02*
X270743Y431449D01*
X270951Y431419D01*
X271144Y431375D01*
X271293Y431315D01*
X271411Y431285D01*
X271486Y431256D01*
X271516Y431241D01*
X271723Y431137D01*
X271902Y431033D01*
X272065Y430914D01*
X272214Y430810D01*
X272318Y430706D01*
X272407Y430631D01*
X272467Y430572D01*
X272481Y430557D01*
X272615Y430379D01*
X272734Y430201D01*
X272838Y430022D01*
X272927Y429859D01*
X272987Y429725D01*
X273031Y429606D01*
X273061Y429532D01*
X273076Y429502D01*
X273150Y429264D01*
X273195Y429027D01*
X273239Y428804D01*
X273254Y428596D01*
X273269Y428403D01*
X273284Y428269D01*
Y428209D01*
Y428165D01*
Y428150D01*
Y428135D01*
X273269Y427853D01*
X273254Y427585D01*
X273224Y427348D01*
X273180Y427140D01*
X273150Y426976D01*
X273120Y426842D01*
X273105Y426768D01*
X273091Y426739D01*
X273016Y426516D01*
X272927Y426322D01*
X272823Y426144D01*
X272734Y425995D01*
X272660Y425877D01*
X272585Y425788D01*
X272541Y425728D01*
X272526Y425713D01*
X272377Y425565D01*
X272214Y425446D01*
X272065Y425327D01*
X271917Y425253D01*
X271798Y425178D01*
X271694Y425134D01*
X271634Y425104D01*
X271605Y425089D01*
X271397Y425015D01*
X271174Y424970D01*
X270966Y424926D01*
X270787Y424911D01*
X270609Y424896D01*
X270490Y424881D01*
X270371D01*
X270104Y424896D01*
X269866Y424926D01*
X269658Y424955D01*
X269465Y425000D01*
X269316Y425045D01*
X269198Y425089D01*
X269123Y425104D01*
X269093Y425119D01*
X268885Y425223D01*
X268707Y425327D01*
X268544Y425446D01*
X268410Y425550D01*
X268291Y425654D01*
X268217Y425728D01*
X268157Y425788D01*
X268143Y425802D01*
X267994Y425981D01*
X267875Y426159D01*
X267771Y426337D01*
X267682Y426501D01*
X267623Y426634D01*
X267578Y426753D01*
X267548Y426828D01*
X267533Y426857D01*
X267459Y427095D01*
X267400Y427333D01*
X267370Y427571D01*
X267340Y427779D01*
X267325Y427957D01*
X267310Y428106D01*
Y428150D01*
Y428195D01*
Y428209D01*
Y428224D01*
X267325Y428507D01*
X267340Y428774D01*
X267370Y429012D01*
X267414Y429220D01*
X267459Y429383D01*
X267489Y429517D01*
X267504Y429591D01*
X267518Y429621D01*
X267593Y429844D01*
X267697Y430052D01*
X267786Y430215D01*
X267875Y430364D01*
X267964Y430483D01*
X268039Y430572D01*
X268083Y430631D01*
X268098Y430646D01*
X268246Y430795D01*
X268395Y430914D01*
X268559Y431033D01*
X268692Y431122D01*
X268826Y431181D01*
X268930Y431226D01*
X268990Y431256D01*
X269019Y431270D01*
X269227Y431345D01*
X269435Y431404D01*
X269643Y431434D01*
X269822Y431464D01*
X270000Y431479D01*
X270119Y431493D01*
X270238D01*
X270490Y431479D01*
D02*
G37*
G36*
X191663D02*
X191901Y431464D01*
X192124Y431434D01*
X192302Y431404D01*
X192451Y431360D01*
X192570Y431330D01*
X192629Y431315D01*
X192659Y431300D01*
X192837Y431226D01*
X193001Y431152D01*
X193134Y431077D01*
X193253Y431003D01*
X193342Y430944D01*
X193402Y430884D01*
X193446Y430854D01*
X193461Y430840D01*
X193565Y430736D01*
X193654Y430631D01*
X193729Y430542D01*
X193773Y430453D01*
X193818Y430379D01*
X193848Y430320D01*
X193877Y430275D01*
Y430260D01*
X193951Y430037D01*
X193981Y429859D01*
X193996Y429785D01*
Y429725D01*
Y429695D01*
Y429681D01*
Y429532D01*
X193966Y429398D01*
X193951Y429279D01*
X193922Y429175D01*
X193892Y429086D01*
X193877Y429027D01*
X193848Y428982D01*
Y428967D01*
X193714Y428759D01*
X193580Y428596D01*
X193521Y428536D01*
X193476Y428492D01*
X193446Y428462D01*
X193431Y428447D01*
X193223Y428299D01*
X193015Y428165D01*
X192941Y428120D01*
X192867Y428091D01*
X192822Y428076D01*
X192807Y428061D01*
X192525Y427942D01*
X192391Y427897D01*
X192272Y427853D01*
X192154Y427823D01*
X192079Y427794D01*
X192020Y427779D01*
X192005D01*
X191797Y427719D01*
X191633Y427660D01*
X191470Y427600D01*
X191351Y427556D01*
X191247Y427526D01*
X191173Y427496D01*
X191128Y427467D01*
X191113D01*
X190995Y427422D01*
X190891Y427363D01*
X190801Y427318D01*
X190742Y427288D01*
X190683Y427244D01*
X190653Y427229D01*
X190623Y427199D01*
X190519Y427110D01*
X190445Y427036D01*
X190415Y426976D01*
X190400Y426946D01*
X190356Y426842D01*
X190341Y426739D01*
X190326Y426664D01*
Y426649D01*
Y426634D01*
X190341Y426501D01*
X190385Y426382D01*
X190445Y426278D01*
X190519Y426189D01*
X190593Y426114D01*
X190653Y426070D01*
X190697Y426040D01*
X190712Y426025D01*
X190876Y425951D01*
X191054Y425906D01*
X191247Y425862D01*
X191440Y425847D01*
X191619Y425832D01*
X191752Y425817D01*
X191886D01*
X192287Y425832D01*
X192481Y425847D01*
X192644Y425862D01*
X192778D01*
X192896Y425877D01*
X192956Y425891D01*
X192986D01*
X193387Y425966D01*
X193580Y426010D01*
X193743Y426055D01*
X193877Y426085D01*
X193996Y426114D01*
X194056Y426144D01*
X194085D01*
Y425134D01*
X193699Y425045D01*
X193521Y425015D01*
X193357Y424985D01*
X193223Y424970D01*
X193119Y424955D01*
X193060Y424941D01*
X193030D01*
X192614Y424911D01*
X192406Y424896D01*
X192228D01*
X192079Y424881D01*
X191842D01*
X191619Y424896D01*
X191425Y424911D01*
X191351D01*
X191292Y424926D01*
X191232D01*
X191009Y424970D01*
X190816Y425015D01*
X190727Y425030D01*
X190668Y425045D01*
X190638Y425059D01*
X190623D01*
X190415Y425134D01*
X190237Y425208D01*
X190163Y425253D01*
X190118Y425267D01*
X190088Y425297D01*
X190073D01*
X189895Y425416D01*
X189746Y425535D01*
X189687Y425579D01*
X189642Y425624D01*
X189628Y425639D01*
X189613Y425654D01*
X189479Y425817D01*
X189390Y425966D01*
X189345Y426040D01*
X189315Y426085D01*
X189301Y426114D01*
Y426129D01*
X189226Y426337D01*
X189197Y426530D01*
X189182Y426605D01*
Y426664D01*
Y426709D01*
Y426724D01*
X189197Y426976D01*
X189212Y427080D01*
X189241Y427184D01*
X189256Y427259D01*
X189286Y427318D01*
X189301Y427348D01*
Y427363D01*
X189405Y427556D01*
X189509Y427719D01*
X189568Y427779D01*
X189598Y427823D01*
X189628Y427853D01*
X189642Y427868D01*
X189836Y428031D01*
X190044Y428150D01*
X190133Y428195D01*
X190207Y428239D01*
X190252Y428254D01*
X190266Y428269D01*
X190415Y428343D01*
X190578Y428403D01*
X190742Y428462D01*
X190891Y428522D01*
X191024Y428566D01*
X191128Y428596D01*
X191188Y428611D01*
X191217Y428626D01*
X191396Y428685D01*
X191574Y428730D01*
X191708Y428774D01*
X191842Y428819D01*
X191931Y428848D01*
X192005Y428878D01*
X192050Y428893D01*
X192064D01*
X192272Y428997D01*
X192436Y429071D01*
X192495Y429116D01*
X192540Y429131D01*
X192555Y429160D01*
X192570D01*
X192689Y429264D01*
X192748Y429339D01*
X192792Y429398D01*
X192807Y429428D01*
X192837Y429547D01*
X192852Y429636D01*
X192867Y429710D01*
Y429740D01*
X192852Y429874D01*
X192822Y429978D01*
X192807Y430037D01*
X192792Y430067D01*
X192718Y430171D01*
X192644Y430245D01*
X192584Y430305D01*
X192555Y430320D01*
X192406Y430394D01*
X192258Y430453D01*
X192198Y430468D01*
X192139Y430483D01*
X192109Y430498D01*
X192094D01*
X191871Y430542D01*
X191633Y430557D01*
X191544Y430572D01*
X191396D01*
X191128Y430557D01*
X190995Y430542D01*
X190861D01*
X190757Y430527D01*
X190668Y430513D01*
X190608Y430498D01*
X190593D01*
X190237Y430438D01*
X190073Y430409D01*
X189910Y430394D01*
X189791Y430364D01*
X189687Y430334D01*
X189628Y430320D01*
X189598D01*
Y431300D01*
X189954Y431375D01*
X190118Y431389D01*
X190266Y431419D01*
X190385Y431434D01*
X190489D01*
X190549Y431449D01*
X190564D01*
X190876Y431479D01*
X191024D01*
X191143Y431493D01*
X191381D01*
X191663Y431479D01*
D02*
G37*
%LPC*%
G36*
X96329Y317415D02*
X96240D01*
X96032Y317400D01*
X95854Y317370D01*
X95691Y317340D01*
X95542Y317296D01*
X95438Y317236D01*
X95349Y317207D01*
X95289Y317177D01*
X95274Y317162D01*
X95126Y317058D01*
X95007Y316954D01*
X94888Y316835D01*
X94799Y316731D01*
X94725Y316627D01*
X94665Y316553D01*
X94636Y316493D01*
X94621Y316479D01*
X94532Y316315D01*
X94457Y316137D01*
X94398Y315958D01*
X94338Y315795D01*
X94294Y315661D01*
X94264Y315542D01*
X94249Y315468D01*
Y315438D01*
X94175Y314978D01*
X94160Y314755D01*
X94145Y314547D01*
X94130Y314368D01*
Y314220D01*
Y314131D01*
Y314116D01*
Y314101D01*
Y313848D01*
X94145Y313626D01*
X94175Y313403D01*
X94190Y313224D01*
X94220Y313061D01*
X94249Y312942D01*
X94264Y312868D01*
Y312838D01*
X94309Y312630D01*
X94368Y312437D01*
X94442Y312259D01*
X94502Y312110D01*
X94561Y311991D01*
X94606Y311887D01*
X94636Y311828D01*
X94650Y311813D01*
X94754Y311649D01*
X94859Y311516D01*
X94963Y311397D01*
X95066Y311293D01*
X95170Y311218D01*
X95230Y311159D01*
X95289Y311129D01*
X95304Y311114D01*
X95453Y311025D01*
X95616Y310966D01*
X95765Y310921D01*
X95913Y310891D01*
X96047Y310877D01*
X96151Y310862D01*
X96240D01*
X96448Y310877D01*
X96627Y310906D01*
X96790Y310936D01*
X96939Y310981D01*
X97043Y311025D01*
X97132Y311070D01*
X97191Y311085D01*
X97206Y311100D01*
X97340Y311204D01*
X97474Y311308D01*
X97578Y311412D01*
X97667Y311530D01*
X97741Y311620D01*
X97801Y311694D01*
X97830Y311753D01*
X97845Y311768D01*
X98009Y312125D01*
X98068Y312288D01*
X98127Y312452D01*
X98172Y312600D01*
X98187Y312704D01*
X98217Y312779D01*
Y312808D01*
X98276Y313284D01*
X98291Y313507D01*
X98306Y313715D01*
X98321Y313893D01*
Y314042D01*
Y314131D01*
Y314146D01*
Y314160D01*
Y314413D01*
X98306Y314636D01*
X98276Y314844D01*
X98261Y315037D01*
X98231Y315186D01*
X98217Y315305D01*
X98202Y315379D01*
Y315409D01*
X98157Y315632D01*
X98098Y315825D01*
X98038Y316003D01*
X97964Y316152D01*
X97919Y316271D01*
X97875Y316374D01*
X97845Y316434D01*
X97830Y316449D01*
X97726Y316612D01*
X97622Y316746D01*
X97518Y316865D01*
X97414Y316969D01*
X97325Y317043D01*
X97251Y317103D01*
X97206Y317132D01*
X97191Y317147D01*
X97028Y317236D01*
X96879Y317296D01*
X96716Y317355D01*
X96567Y317385D01*
X96433Y317400D01*
X96329Y317415D01*
D02*
G37*
G36*
X311794Y319840D02*
X310576D01*
X310353Y319811D01*
X310145Y319781D01*
X309981Y319751D01*
X309833Y319722D01*
X309729Y319692D01*
X309669Y319677D01*
X309639Y319662D01*
X309461Y319588D01*
X309298Y319513D01*
X309149Y319424D01*
X309030Y319335D01*
X308941Y319261D01*
X308867Y319187D01*
X308822Y319142D01*
X308807Y319127D01*
X308689Y318979D01*
X308584Y318815D01*
X308495Y318652D01*
X308421Y318503D01*
X308377Y318354D01*
X308332Y318250D01*
X308302Y318176D01*
Y318146D01*
X308243Y317909D01*
X308198Y317656D01*
X308168Y317404D01*
X308139Y317166D01*
Y316958D01*
X308124Y316794D01*
Y316735D01*
Y316690D01*
Y316660D01*
Y316646D01*
X308139Y316363D01*
X308154Y316096D01*
X308198Y315843D01*
X308243Y315606D01*
X308317Y315383D01*
X308391Y315175D01*
X308466Y314996D01*
X308570Y314818D01*
X308778Y314506D01*
X309015Y314253D01*
X309283Y314045D01*
X309536Y313882D01*
X309803Y313748D01*
X310070Y313644D01*
X310308Y313585D01*
X310516Y313525D01*
X310695Y313496D01*
X310843Y313481D01*
X311794D01*
Y319840D01*
D02*
G37*
G36*
X323871Y357340D02*
X322816D01*
X322548Y357326D01*
X322310Y357281D01*
X322117Y357236D01*
X321939Y357177D01*
X321820Y357103D01*
X321716Y357058D01*
X321657Y357014D01*
X321642Y356999D01*
X321493Y356865D01*
X321389Y356701D01*
X321315Y356538D01*
X321270Y356375D01*
X321226Y356226D01*
X321211Y356107D01*
Y356033D01*
Y356018D01*
Y356003D01*
X321226Y355765D01*
X321255Y355661D01*
X321270Y355572D01*
X321300Y355498D01*
X321330Y355438D01*
X321345Y355409D01*
Y355394D01*
X321449Y355215D01*
X321568Y355082D01*
X321657Y354993D01*
X321687Y354978D01*
X321701Y354963D01*
X321880Y354844D01*
X322058Y354770D01*
X322132Y354740D01*
X322192Y354710D01*
X322236Y354696D01*
X322251D01*
X322489Y354651D01*
X322727Y354621D01*
X322816Y354606D01*
X323871D01*
Y357340D01*
D02*
G37*
G36*
X319688Y392415D02*
X319599D01*
X319391Y392400D01*
X319212Y392370D01*
X319049Y392340D01*
X318900Y392296D01*
X318796Y392236D01*
X318707Y392207D01*
X318648Y392177D01*
X318633Y392162D01*
X318484Y392058D01*
X318365Y391954D01*
X318246Y391835D01*
X318157Y391731D01*
X318083Y391627D01*
X318024Y391553D01*
X317994Y391493D01*
X317979Y391479D01*
X317890Y391315D01*
X317816Y391137D01*
X317756Y390959D01*
X317697Y390795D01*
X317652Y390661D01*
X317623Y390542D01*
X317608Y390468D01*
Y390438D01*
X317533Y389978D01*
X317518Y389755D01*
X317504Y389547D01*
X317489Y389369D01*
Y389220D01*
Y389131D01*
Y389116D01*
Y389101D01*
Y388848D01*
X317504Y388626D01*
X317533Y388403D01*
X317548Y388224D01*
X317578Y388061D01*
X317608Y387942D01*
X317623Y387868D01*
Y387838D01*
X317667Y387630D01*
X317726Y387437D01*
X317801Y387259D01*
X317860Y387110D01*
X317920Y386991D01*
X317964Y386887D01*
X317994Y386828D01*
X318009Y386813D01*
X318113Y386649D01*
X318217Y386516D01*
X318321Y386397D01*
X318425Y386293D01*
X318529Y386218D01*
X318588Y386159D01*
X318648Y386129D01*
X318663Y386114D01*
X318811Y386025D01*
X318975Y385966D01*
X319123Y385921D01*
X319272Y385891D01*
X319405Y385877D01*
X319510Y385862D01*
X319599D01*
X319807Y385877D01*
X319985Y385906D01*
X320149Y385936D01*
X320297Y385981D01*
X320401Y386025D01*
X320490Y386070D01*
X320550Y386085D01*
X320564Y386100D01*
X320698Y386204D01*
X320832Y386308D01*
X320936Y386412D01*
X321025Y386530D01*
X321100Y386620D01*
X321159Y386694D01*
X321189Y386753D01*
X321203Y386768D01*
X321367Y387125D01*
X321426Y387288D01*
X321486Y387452D01*
X321530Y387600D01*
X321545Y387704D01*
X321575Y387779D01*
Y387808D01*
X321634Y388284D01*
X321649Y388507D01*
X321664Y388715D01*
X321679Y388893D01*
Y389042D01*
Y389131D01*
Y389146D01*
Y389160D01*
Y389413D01*
X321664Y389636D01*
X321634Y389844D01*
X321619Y390037D01*
X321590Y390186D01*
X321575Y390305D01*
X321560Y390379D01*
Y390409D01*
X321516Y390632D01*
X321456Y390825D01*
X321397Y391003D01*
X321322Y391152D01*
X321278Y391270D01*
X321233Y391375D01*
X321203Y391434D01*
X321189Y391449D01*
X321085Y391612D01*
X320981Y391746D01*
X320877Y391865D01*
X320773Y391969D01*
X320683Y392043D01*
X320609Y392103D01*
X320564Y392132D01*
X320550Y392147D01*
X320386Y392236D01*
X320238Y392296D01*
X320074Y392355D01*
X319926Y392385D01*
X319792Y392400D01*
X319688Y392415D01*
D02*
G37*
G36*
X205140Y412897D02*
X203580D01*
Y411753D01*
X203788Y411575D01*
X203981Y411427D01*
X204145Y411308D01*
X204308Y411204D01*
X204442Y411129D01*
X204531Y411070D01*
X204591Y411040D01*
X204620Y411025D01*
X204799Y410951D01*
X204962Y410891D01*
X205111Y410862D01*
X205244Y410832D01*
X205348Y410817D01*
X205423Y410802D01*
X205497D01*
X205690Y410817D01*
X205854Y410847D01*
X205913D01*
X205943Y410862D01*
X205972Y410877D01*
X205987D01*
X206121Y410936D01*
X206240Y410995D01*
X206299Y411055D01*
X206329Y411070D01*
X206403Y411174D01*
X206463Y411263D01*
X206493Y411337D01*
X206507Y411367D01*
X206537Y411501D01*
X206552Y411620D01*
Y411694D01*
Y411709D01*
Y411724D01*
X206537Y411917D01*
X206507Y412065D01*
X206493Y412125D01*
X206478Y412169D01*
X206463Y412184D01*
Y412199D01*
X206388Y412348D01*
X206299Y412467D01*
X206225Y412541D01*
X206195Y412571D01*
X206032Y412675D01*
X205883Y412749D01*
X205809Y412779D01*
X205750Y412794D01*
X205720Y412808D01*
X205705D01*
X205467Y412868D01*
X205229Y412883D01*
X205140Y412897D01*
D02*
G37*
G36*
X183699D02*
X182139D01*
Y411753D01*
X182347Y411575D01*
X182540Y411427D01*
X182703Y411308D01*
X182867Y411204D01*
X183000Y411129D01*
X183090Y411070D01*
X183149Y411040D01*
X183179Y411025D01*
X183357Y410951D01*
X183521Y410891D01*
X183669Y410862D01*
X183803Y410832D01*
X183907Y410817D01*
X183981Y410802D01*
X184055D01*
X184249Y410817D01*
X184412Y410847D01*
X184471D01*
X184501Y410862D01*
X184531Y410877D01*
X184546D01*
X184680Y410936D01*
X184798Y410995D01*
X184858Y411055D01*
X184888Y411070D01*
X184962Y411174D01*
X185021Y411263D01*
X185051Y411337D01*
X185066Y411367D01*
X185096Y411501D01*
X185110Y411620D01*
Y411694D01*
Y411709D01*
Y411724D01*
X185096Y411917D01*
X185066Y412065D01*
X185051Y412125D01*
X185036Y412169D01*
X185021Y412184D01*
Y412199D01*
X184947Y412348D01*
X184858Y412467D01*
X184783Y412541D01*
X184754Y412571D01*
X184590Y412675D01*
X184442Y412749D01*
X184368Y412779D01*
X184308Y412794D01*
X184278Y412808D01*
X184263D01*
X184026Y412868D01*
X183788Y412883D01*
X183699Y412897D01*
D02*
G37*
G36*
X276508Y417251D02*
X275096Y412823D01*
X277920D01*
X276508Y417251D01*
D02*
G37*
G36*
X262273Y415557D02*
X262036D01*
X261887Y415527D01*
X261768Y415513D01*
X261649Y415483D01*
X261560Y415453D01*
X261486Y415424D01*
X261441Y415409D01*
X261426Y415394D01*
X261189Y415260D01*
X261084Y415186D01*
X260995Y415112D01*
X260921Y415052D01*
X260877Y414993D01*
X260847Y414963D01*
X260832Y414948D01*
X260743Y414829D01*
X260668Y414710D01*
X260550Y414473D01*
X260520Y414383D01*
X260490Y414294D01*
X260460Y414235D01*
Y414220D01*
X260386Y413863D01*
X260356Y413700D01*
X260341Y413536D01*
X260327Y413388D01*
Y413284D01*
Y413209D01*
Y413180D01*
X260341Y412838D01*
X260356Y412690D01*
X260386Y412556D01*
X260401Y412437D01*
X260431Y412348D01*
X260446Y412288D01*
Y412273D01*
X260490Y412125D01*
X260535Y411976D01*
X260594Y411842D01*
X260654Y411739D01*
X260698Y411649D01*
X260743Y411575D01*
X260758Y411530D01*
X260772Y411516D01*
X260951Y411308D01*
X261144Y411144D01*
X261233Y411085D01*
X261292Y411040D01*
X261337Y411025D01*
X261352Y411010D01*
X261486Y410951D01*
X261619Y410906D01*
X261768Y410862D01*
X261902Y410847D01*
X262006Y410832D01*
X262095Y410817D01*
X262348D01*
X262496Y410847D01*
X262630Y410862D01*
X262749Y410891D01*
X262838Y410921D01*
X262912Y410936D01*
X262957Y410966D01*
X262972D01*
X263209Y411100D01*
X263298Y411174D01*
X263388Y411233D01*
X263462Y411293D01*
X263507Y411352D01*
X263536Y411382D01*
X263551Y411397D01*
X263715Y411634D01*
X263818Y411887D01*
X263863Y411976D01*
X263893Y412065D01*
X263923Y412125D01*
Y412140D01*
X263997Y412496D01*
X264012Y412660D01*
X264027Y412823D01*
X264041Y412972D01*
Y413076D01*
Y413150D01*
Y413180D01*
X264027Y413522D01*
X264012Y413670D01*
X263982Y413819D01*
X263967Y413923D01*
X263952Y414012D01*
X263937Y414071D01*
Y414086D01*
X263893Y414250D01*
X263848Y414383D01*
X263789Y414517D01*
X263729Y414621D01*
X263685Y414710D01*
X263640Y414770D01*
X263625Y414814D01*
X263610Y414829D01*
X263432Y415052D01*
X263328Y415141D01*
X263239Y415215D01*
X263165Y415275D01*
X263105Y415320D01*
X263061Y415334D01*
X263046Y415349D01*
X262912Y415424D01*
X262764Y415468D01*
X262615Y415513D01*
X262481Y415527D01*
X262362Y415542D01*
X262273Y415557D01*
D02*
G37*
G36*
X240832D02*
X240594D01*
X240445Y415527D01*
X240326Y415513D01*
X240208Y415483D01*
X240118Y415453D01*
X240044Y415424D01*
X240000Y415409D01*
X239985Y415394D01*
X239747Y415260D01*
X239643Y415186D01*
X239554Y415112D01*
X239480Y415052D01*
X239435Y414993D01*
X239405Y414963D01*
X239390Y414948D01*
X239301Y414829D01*
X239227Y414710D01*
X239108Y414473D01*
X239078Y414383D01*
X239049Y414294D01*
X239019Y414235D01*
Y414220D01*
X238945Y413863D01*
X238915Y413700D01*
X238900Y413536D01*
X238885Y413388D01*
Y413284D01*
Y413209D01*
Y413180D01*
X238900Y412838D01*
X238915Y412690D01*
X238945Y412556D01*
X238959Y412437D01*
X238989Y412348D01*
X239004Y412288D01*
Y412273D01*
X239049Y412125D01*
X239093Y411976D01*
X239153Y411842D01*
X239212Y411739D01*
X239257Y411649D01*
X239301Y411575D01*
X239316Y411530D01*
X239331Y411516D01*
X239509Y411308D01*
X239702Y411144D01*
X239792Y411085D01*
X239851Y411040D01*
X239896Y411025D01*
X239910Y411010D01*
X240044Y410951D01*
X240178Y410906D01*
X240326Y410862D01*
X240460Y410847D01*
X240564Y410832D01*
X240653Y410817D01*
X240906D01*
X241055Y410847D01*
X241188Y410862D01*
X241307Y410891D01*
X241396Y410921D01*
X241471Y410936D01*
X241515Y410966D01*
X241530D01*
X241768Y411100D01*
X241857Y411174D01*
X241946Y411233D01*
X242020Y411293D01*
X242065Y411352D01*
X242095Y411382D01*
X242110Y411397D01*
X242273Y411634D01*
X242377Y411887D01*
X242422Y411976D01*
X242451Y412065D01*
X242481Y412125D01*
Y412140D01*
X242555Y412496D01*
X242570Y412660D01*
X242585Y412823D01*
X242600Y412972D01*
Y413076D01*
Y413150D01*
Y413180D01*
X242585Y413522D01*
X242570Y413670D01*
X242540Y413819D01*
X242526Y413923D01*
X242511Y414012D01*
X242496Y414071D01*
Y414086D01*
X242451Y414250D01*
X242407Y414383D01*
X242347Y414517D01*
X242288Y414621D01*
X242243Y414710D01*
X242199Y414770D01*
X242184Y414814D01*
X242169Y414829D01*
X241991Y415052D01*
X241887Y415141D01*
X241798Y415215D01*
X241723Y415275D01*
X241664Y415320D01*
X241619Y415334D01*
X241604Y415349D01*
X241471Y415424D01*
X241322Y415468D01*
X241173Y415513D01*
X241040Y415527D01*
X240921Y415542D01*
X240832Y415557D01*
D02*
G37*
G36*
X147948Y417489D02*
X147829D01*
X147577Y417474D01*
X147339Y417444D01*
X147146Y417400D01*
X146997Y417355D01*
X146863Y417296D01*
X146774Y417251D01*
X146715Y417221D01*
X146700Y417207D01*
X146566Y417088D01*
X146462Y416954D01*
X146403Y416820D01*
X146343Y416687D01*
X146314Y416568D01*
X146299Y416464D01*
Y416404D01*
Y416375D01*
X146314Y416196D01*
X146358Y416033D01*
X146418Y415884D01*
X146477Y415765D01*
X146537Y415661D01*
X146596Y415572D01*
X146641Y415527D01*
X146655Y415513D01*
X146804Y415379D01*
X146967Y415260D01*
X147146Y415141D01*
X147324Y415037D01*
X147487Y414948D01*
X147606Y414889D01*
X147696Y414844D01*
X147710Y414829D01*
X147725D01*
X148007Y414963D01*
X148141Y415022D01*
X148245Y415082D01*
X148334Y415126D01*
X148394Y415156D01*
X148438Y415171D01*
X148453Y415186D01*
X148661Y415320D01*
X148810Y415438D01*
X148869Y415483D01*
X148914Y415513D01*
X148944Y415527D01*
X148959Y415542D01*
X149077Y415676D01*
X149166Y415810D01*
X149226Y415899D01*
X149241Y415914D01*
Y415929D01*
X149285Y416092D01*
X149315Y416241D01*
X149330Y416300D01*
Y416345D01*
Y416375D01*
Y416389D01*
X149315Y416582D01*
X149270Y416746D01*
X149211Y416895D01*
X149137Y416999D01*
X149062Y417088D01*
X149003Y417162D01*
X148959Y417192D01*
X148944Y417207D01*
X148780Y417296D01*
X148602Y417370D01*
X148409Y417415D01*
X148230Y417459D01*
X148082Y417474D01*
X147948Y417489D01*
D02*
G37*
G36*
X147918Y413774D02*
X147740Y413685D01*
X147577Y413596D01*
X147428Y413522D01*
X147309Y413462D01*
X147220Y413403D01*
X147146Y413358D01*
X147101Y413328D01*
X147086Y413313D01*
X146967Y413239D01*
X146863Y413165D01*
X146759Y413091D01*
X146685Y413016D01*
X146626Y412972D01*
X146581Y412927D01*
X146566Y412897D01*
X146551Y412883D01*
X146432Y412734D01*
X146343Y412585D01*
X146314Y412541D01*
X146299Y412496D01*
X146284Y412467D01*
Y412452D01*
X146224Y412288D01*
X146210Y412140D01*
X146195Y412080D01*
Y412036D01*
Y412006D01*
Y411991D01*
X146210Y411783D01*
X146254Y411620D01*
X146284Y411560D01*
X146314Y411516D01*
X146328Y411486D01*
Y411471D01*
X146447Y411322D01*
X146551Y411204D01*
X146641Y411129D01*
X146670Y411100D01*
X146685D01*
X146848Y411010D01*
X147012Y410951D01*
X147086Y410921D01*
X147146Y410906D01*
X147175Y410891D01*
X147190D01*
X147413Y410862D01*
X147621Y410847D01*
X147710Y410832D01*
X147829D01*
X148082Y410847D01*
X148186Y410862D01*
X148290Y410877D01*
X148364D01*
X148424Y410891D01*
X148468Y410906D01*
X148483D01*
X148691Y410966D01*
X148855Y411040D01*
X148914Y411085D01*
X148959Y411100D01*
X148988Y411129D01*
X149003D01*
X149137Y411248D01*
X149241Y411367D01*
X149300Y411471D01*
X149330Y411486D01*
Y411501D01*
X149404Y411679D01*
X149434Y411842D01*
X149449Y411902D01*
Y411961D01*
Y411991D01*
Y412006D01*
X149434Y412184D01*
X149404Y412333D01*
Y412392D01*
X149389Y412437D01*
X149375Y412467D01*
Y412481D01*
X149300Y412645D01*
X149226Y412794D01*
X149181Y412853D01*
X149152Y412897D01*
X149122Y412912D01*
Y412927D01*
X148973Y413091D01*
X148810Y413224D01*
X148750Y413269D01*
X148691Y413313D01*
X148661Y413328D01*
X148646Y413343D01*
X148409Y413492D01*
X148171Y413640D01*
X148067Y413700D01*
X147993Y413730D01*
X147933Y413759D01*
X147918Y413774D01*
D02*
G37*
G36*
X248974Y430617D02*
X248841D01*
X248543Y430587D01*
X248425Y430572D01*
X248321Y430542D01*
X248232Y430513D01*
X248172Y430498D01*
X248127Y430468D01*
X248113D01*
X247890Y430349D01*
X247801Y430275D01*
X247726Y430215D01*
X247667Y430156D01*
X247607Y430112D01*
X247593Y430082D01*
X247578Y430067D01*
X247444Y429859D01*
X247340Y429666D01*
X247310Y429591D01*
X247281Y429517D01*
X247266Y429473D01*
Y429458D01*
X247206Y429190D01*
X247191Y429057D01*
X247176Y428938D01*
Y428834D01*
Y428759D01*
Y428700D01*
Y428685D01*
X250520D01*
X250475Y428982D01*
X250460Y429116D01*
X250431Y429235D01*
X250401Y429324D01*
X250371Y429398D01*
X250356Y429443D01*
Y429458D01*
X250252Y429710D01*
X250193Y429814D01*
X250133Y429903D01*
X250089Y429963D01*
X250044Y430022D01*
X250029Y430052D01*
X250014Y430067D01*
X249836Y430245D01*
X249673Y430364D01*
X249599Y430409D01*
X249539Y430438D01*
X249509Y430468D01*
X249494D01*
X249272Y430557D01*
X249049Y430602D01*
X248974Y430617D01*
D02*
G37*
G36*
X220386D02*
X220252D01*
X219955Y430587D01*
X219836Y430572D01*
X219732Y430542D01*
X219643Y430513D01*
X219583Y430498D01*
X219539Y430468D01*
X219524D01*
X219301Y430349D01*
X219212Y430275D01*
X219137Y430215D01*
X219078Y430156D01*
X219019Y430112D01*
X219004Y430082D01*
X218989Y430067D01*
X218855Y429859D01*
X218751Y429666D01*
X218722Y429591D01*
X218692Y429517D01*
X218677Y429473D01*
Y429458D01*
X218617Y429190D01*
X218603Y429057D01*
X218588Y428938D01*
Y428834D01*
Y428759D01*
Y428700D01*
Y428685D01*
X221931D01*
X221886Y428982D01*
X221872Y429116D01*
X221842Y429235D01*
X221812Y429324D01*
X221782Y429398D01*
X221768Y429443D01*
Y429458D01*
X221664Y429710D01*
X221604Y429814D01*
X221545Y429903D01*
X221500Y429963D01*
X221455Y430022D01*
X221441Y430052D01*
X221426Y430067D01*
X221248Y430245D01*
X221084Y430364D01*
X221010Y430409D01*
X220950Y430438D01*
X220921Y430468D01*
X220906D01*
X220683Y430557D01*
X220460Y430602D01*
X220386Y430617D01*
D02*
G37*
G36*
X278871Y432355D02*
X277727D01*
X277385Y432340D01*
X277088Y432296D01*
X276850Y432221D01*
X276627Y432147D01*
X276464Y432058D01*
X276345Y431999D01*
X276285Y431939D01*
X276255Y431924D01*
X276077Y431746D01*
X275944Y431553D01*
X275854Y431345D01*
X275780Y431152D01*
X275750Y430973D01*
X275735Y430825D01*
X275721Y430765D01*
Y430721D01*
Y430706D01*
Y430691D01*
X275750Y430379D01*
X275810Y430112D01*
X275899Y429889D01*
X275988Y429695D01*
X276092Y429562D01*
X276181Y429458D01*
X276241Y429383D01*
X276270Y429369D01*
X276493Y429220D01*
X276746Y429116D01*
X276999Y429042D01*
X277251Y428997D01*
X277474Y428967D01*
X277563Y428952D01*
X277652Y428938D01*
X278871D01*
Y432355D01*
D02*
G37*
G36*
X270386Y430557D02*
X270149D01*
X270000Y430527D01*
X269881Y430513D01*
X269762Y430483D01*
X269673Y430453D01*
X269599Y430424D01*
X269554Y430409D01*
X269539Y430394D01*
X269301Y430260D01*
X269198Y430186D01*
X269108Y430112D01*
X269034Y430052D01*
X268990Y429993D01*
X268960Y429963D01*
X268945Y429948D01*
X268856Y429829D01*
X268782Y429710D01*
X268663Y429473D01*
X268633Y429383D01*
X268603Y429294D01*
X268573Y429235D01*
Y429220D01*
X268499Y428863D01*
X268469Y428700D01*
X268455Y428536D01*
X268440Y428388D01*
Y428284D01*
Y428209D01*
Y428180D01*
X268455Y427838D01*
X268469Y427690D01*
X268499Y427556D01*
X268514Y427437D01*
X268544Y427348D01*
X268559Y427288D01*
Y427273D01*
X268603Y427125D01*
X268648Y426976D01*
X268707Y426842D01*
X268767Y426739D01*
X268811Y426649D01*
X268856Y426575D01*
X268871Y426530D01*
X268885Y426516D01*
X269064Y426308D01*
X269257Y426144D01*
X269346Y426085D01*
X269405Y426040D01*
X269450Y426025D01*
X269465Y426010D01*
X269599Y425951D01*
X269732Y425906D01*
X269881Y425862D01*
X270015Y425847D01*
X270119Y425832D01*
X270208Y425817D01*
X270460D01*
X270609Y425847D01*
X270743Y425862D01*
X270862Y425891D01*
X270951Y425921D01*
X271025Y425936D01*
X271070Y425966D01*
X271085D01*
X271322Y426100D01*
X271411Y426174D01*
X271501Y426233D01*
X271575Y426293D01*
X271619Y426352D01*
X271649Y426382D01*
X271664Y426397D01*
X271828Y426634D01*
X271932Y426887D01*
X271976Y426976D01*
X272006Y427065D01*
X272036Y427125D01*
Y427140D01*
X272110Y427496D01*
X272125Y427660D01*
X272140Y427823D01*
X272154Y427972D01*
Y428076D01*
Y428150D01*
Y428180D01*
X272140Y428522D01*
X272125Y428670D01*
X272095Y428819D01*
X272080Y428923D01*
X272065Y429012D01*
X272050Y429071D01*
Y429086D01*
X272006Y429250D01*
X271961Y429383D01*
X271902Y429517D01*
X271842Y429621D01*
X271798Y429710D01*
X271753Y429770D01*
X271738Y429814D01*
X271723Y429829D01*
X271545Y430052D01*
X271441Y430141D01*
X271352Y430215D01*
X271278Y430275D01*
X271218Y430320D01*
X271174Y430334D01*
X271159Y430349D01*
X271025Y430424D01*
X270877Y430468D01*
X270728Y430513D01*
X270594Y430527D01*
X270475Y430542D01*
X270386Y430557D01*
D02*
G37*
%LPD*%
D10*
X231799Y294000D02*
X238799D01*
Y345999D01*
X231799D02*
X238799D01*
X186201Y294000D02*
Y345999D01*
Y294000D02*
X231799D01*
X186201Y345999D02*
X231799D01*
D12*
X340499Y231500D02*
Y242501D01*
X304000D02*
X340499D01*
Y172499D02*
Y183500D01*
X304000Y172499D02*
X340499D01*
X54501Y242501D02*
X91000D01*
X54501Y231500D02*
Y242501D01*
Y172499D02*
X91000D01*
X54501D02*
Y183500D01*
X91000Y172499D02*
X92809Y167558D01*
X95758Y160586D01*
X97028Y157965D01*
X98905Y154312D01*
X100800Y150932D01*
X103088Y147157D01*
X105082Y144246D01*
X107437Y140894D01*
X111054Y136284D01*
X114465Y132321D01*
X118961Y127571D01*
X301500Y165999D02*
X304000Y172499D01*
X298501Y159001D02*
X301500Y165999D01*
X296499Y155001D02*
X298501Y159001D01*
X293703Y150114D02*
X296499Y155001D01*
X289738Y143929D02*
X293703Y150114D01*
X284500Y137000D02*
X289738Y143929D01*
X280949Y132766D02*
X284500Y137000D01*
X276039Y127592D02*
X280949Y132766D01*
X302077Y247840D02*
X304000Y242501D01*
X297924Y257160D02*
X302077Y247840D01*
X294360Y263751D02*
X297924Y257160D01*
X290975Y269308D02*
X294360Y263751D01*
X287015Y274800D02*
X290975Y269308D01*
X282765Y280268D02*
X287015Y274800D01*
X278143Y285272D02*
X282765Y280268D01*
X275912Y287332D02*
X278143Y285272D01*
X91000Y242501D02*
X92499Y246499D01*
X94602Y251919D01*
X97028Y257116D01*
X100759Y264033D01*
X105755Y271752D01*
X110142Y277617D01*
X115359Y283647D01*
X118821Y287233D01*
X118999Y287500D02*
X276001D01*
X118999Y127500D02*
X276001D01*
D30*
X230486Y339050D02*
G03*
X230486Y339050I-4016J0D01*
G01*
X311800Y246870D02*
Y254490D01*
X307990Y250680D02*
X315610D01*
M02*
