G04 Layer_Color=65535*
%FSLAX44Y44*%
%MOMM*%
G71*
G01*
G75*
%ADD15C,0.2540*%
%ADD25C,0.2032*%
%ADD26C,0.0254*%
%ADD27C,0.1270*%
D15*
X40870Y170220D02*
Y435650D01*
X281531Y343864D02*
X291688D01*
X286609D01*
Y328629D01*
X296766D02*
Y343864D01*
X304384D01*
X306923Y341325D01*
Y336246D01*
X304384Y333707D01*
X296766D01*
X312001Y328629D02*
X317080D01*
X314540D01*
Y343864D01*
X312001Y341325D01*
X281531Y381364D02*
X291688D01*
X286609D01*
Y366129D01*
X296766D02*
Y381364D01*
X304384D01*
X306923Y378825D01*
Y373746D01*
X304384Y371207D01*
X296766D01*
X312001Y378825D02*
X314540Y381364D01*
X319619D01*
X322158Y378825D01*
Y376286D01*
X319619Y373746D01*
X317080D01*
X319619D01*
X322158Y371207D01*
Y368668D01*
X319619Y366129D01*
X314540D01*
X312001Y368668D01*
X281531Y418864D02*
X291688D01*
X286609D01*
Y403629D01*
X296766D02*
Y418864D01*
X304384D01*
X306923Y416325D01*
Y411246D01*
X304384Y408707D01*
X296766D01*
X322158Y418864D02*
X317080Y416325D01*
X312001Y411246D01*
Y406168D01*
X314540Y403629D01*
X319619D01*
X322158Y406168D01*
Y408707D01*
X319619Y411246D01*
X312001D01*
D25*
X197501Y72500D02*
G03*
X197501Y72500I-17501J0D01*
G01*
D02*
G03*
X197501Y72500I-17501J0D01*
G01*
X100001D02*
G03*
X100001Y72500I-17501J0D01*
G01*
D02*
G03*
X100001Y72500I-17501J0D01*
G01*
X297501D02*
G03*
X297501Y72500I-17501J0D01*
G01*
D02*
G03*
X297501Y72500I-17501J0D01*
G01*
X170000Y41499D02*
X190000D01*
X170000Y103501D02*
X190000D01*
X211001Y57499D02*
Y87501D01*
X148999Y57499D02*
Y87501D01*
X51499Y57499D02*
Y87501D01*
X113501Y57499D02*
Y87501D01*
X72500Y103501D02*
X92500D01*
X72500Y41499D02*
X92500D01*
X270000D02*
X290000D01*
X270000Y103501D02*
X290000D01*
X311001Y57499D02*
Y87501D01*
X248999Y57499D02*
Y87501D01*
X58650Y353100D02*
X71350D01*
X58650Y251500D02*
X71350D01*
D26*
X34880Y450462D02*
X153244D01*
X198202D02*
X274656D01*
X322662D02*
X328758D01*
X33102Y450208D02*
X152736D01*
X197186D02*
X275672D01*
X322916D02*
X330536D01*
X31578Y449954D02*
X152482D01*
X196424D02*
X276434D01*
X323424D02*
X332060D01*
X30308Y449700D02*
X151974D01*
X195662D02*
X277450D01*
X323678D02*
X333330D01*
X29292Y449446D02*
X151466D01*
X194646D02*
X278212D01*
X324186D02*
X334346D01*
X28276Y449192D02*
X151212D01*
X193884D02*
X278974D01*
X324694D02*
X335362D01*
X27514Y448938D02*
X150704D01*
X193122D02*
X279990D01*
X324948D02*
X336124D01*
X26752Y448684D02*
X150450D01*
X192360D02*
X280752D01*
X325456D02*
X336886D01*
X25990Y448430D02*
X149942D01*
X191344D02*
X281514D01*
X325710D02*
X337648D01*
X25228Y448176D02*
X149688D01*
X190582D02*
X282276D01*
X326218D02*
X338410D01*
X24720Y447922D02*
X149180D01*
X189820D02*
X283038D01*
X326726D02*
X339172D01*
X23958Y447668D02*
X148672D01*
X189312D02*
X283800D01*
X326980D02*
X339680D01*
X23450Y447414D02*
X148418D01*
X188550D02*
X284562D01*
X327488D02*
X340188D01*
X22688Y447160D02*
X147910D01*
X187788D02*
X285324D01*
X327742D02*
X340950D01*
X22180Y446906D02*
X147656D01*
X187026D02*
X285832D01*
X328250D02*
X341458D01*
X21672Y446652D02*
X147148D01*
X186264D02*
X286594D01*
X328504D02*
X341966D01*
X21164Y446398D02*
X146894D01*
X185756D02*
X287356D01*
X329012D02*
X342474D01*
X20656Y446144D02*
X146386D01*
X184994D02*
X287864D01*
X329266D02*
X342982D01*
X20148Y445890D02*
X146132D01*
X184232D02*
X288626D01*
X329774D02*
X343490D01*
X19640Y445636D02*
X145624D01*
X183724D02*
X289388D01*
X330028D02*
X343998D01*
X19386Y445382D02*
X145370D01*
X182962D02*
X289896D01*
X330536D02*
X344252D01*
X18878Y445128D02*
X144862D01*
X182454D02*
X290658D01*
X330790D02*
X344760D01*
X18370Y444874D02*
X144608D01*
X181692D02*
X291166D01*
X331044D02*
X345268D01*
X18116Y444620D02*
X144354D01*
X181184D02*
X291928D01*
X331552D02*
X345522D01*
X17608Y444366D02*
X143846D01*
X180422D02*
X292436D01*
X331806D02*
X346030D01*
X17100Y444112D02*
X143592D01*
X179914D02*
X292944D01*
X332314D02*
X346538D01*
X16846Y443858D02*
X143084D01*
X179406D02*
X293706D01*
X332568D02*
X346792D01*
X16338Y443604D02*
X142830D01*
X178644D02*
X294214D01*
X333076D02*
X347300D01*
X16084Y443350D02*
X142576D01*
X178136D02*
X294722D01*
X333330D02*
X347554D01*
X15830Y443096D02*
X142068D01*
X177628D02*
X295484D01*
X333584D02*
X347808D01*
X15322Y442842D02*
X141814D01*
X177120D02*
X295992D01*
X334092D02*
X348316D01*
X15068Y442588D02*
X141306D01*
X176358D02*
X296500D01*
X334346D02*
X348570D01*
X14814Y442334D02*
X141052D01*
X175850D02*
X297008D01*
X334854D02*
X348824D01*
X14306Y442080D02*
X140798D01*
X175342D02*
X297516D01*
X335108D02*
X349332D01*
X14052Y441826D02*
X140290D01*
X174834D02*
X298278D01*
X335362D02*
X349586D01*
X13798Y441572D02*
X140036D01*
X174326D02*
X298786D01*
X335870D02*
X349840D01*
X13544Y441318D02*
X139782D01*
X173818D02*
X299294D01*
X336124D02*
X350094D01*
X13036Y441064D02*
X139274D01*
X173310D02*
X299802D01*
X336378D02*
X350602D01*
X12782Y440810D02*
X139020D01*
X172548D02*
X300310D01*
X336886D02*
X350856D01*
X12528Y440556D02*
X138766D01*
X172040D02*
X300818D01*
X337140D02*
X351110D01*
X12274Y440302D02*
X138258D01*
X171532D02*
X301326D01*
X337394D02*
X351364D01*
X12020Y440048D02*
X138004D01*
X171024D02*
X301834D01*
X337648D02*
X351618D01*
X11766Y439794D02*
X137750D01*
X170516D02*
X302342D01*
X338156D02*
X351872D01*
X11512Y439540D02*
X137242D01*
X170008D02*
X302850D01*
X338410D02*
X352126D01*
X11258Y439286D02*
X136988D01*
X169754D02*
X303358D01*
X338664D02*
X352380D01*
X11004Y439032D02*
X136734D01*
X169246D02*
X303866D01*
X339172D02*
X352634D01*
X10750Y438778D02*
X136480D01*
X168738D02*
X304374D01*
X339426D02*
X352888D01*
X10496Y438524D02*
X135972D01*
X168230D02*
X304882D01*
X339680D02*
X353142D01*
X10242Y438270D02*
X135718D01*
X167722D02*
X305136D01*
X339934D02*
X353396D01*
X9988Y438016D02*
X135464D01*
X167214D02*
X305644D01*
X340442D02*
X353650D01*
X9734Y437762D02*
X135210D01*
X166706D02*
X306152D01*
X340696D02*
X353904D01*
X9480Y437508D02*
X134702D01*
X166198D02*
X306660D01*
X340950D02*
X354158D01*
X9226Y437254D02*
X134448D01*
X165944D02*
X307168D01*
X341204D02*
X354412D01*
X8972Y437000D02*
X134194D01*
X165436D02*
X307676D01*
X341712D02*
X354666D01*
X8718Y436746D02*
X133940D01*
X164928D02*
X307930D01*
X341966D02*
X354920D01*
X8718Y436492D02*
X133686D01*
X164420D02*
X308438D01*
X342220D02*
X354920D01*
X8464Y436238D02*
X133178D01*
X164166D02*
X308946D01*
X342474D02*
X355174D01*
X8210Y435984D02*
X132924D01*
X163658D02*
X309200D01*
X342728D02*
X355428D01*
X7956Y435730D02*
X132670D01*
X163150D02*
X309708D01*
X343236D02*
X355682D01*
X7702Y435476D02*
X132416D01*
X162642D02*
X310216D01*
X343490D02*
X355936D01*
X7448Y435222D02*
X132162D01*
X162388D02*
X310724D01*
X343744D02*
X355936D01*
X7448Y434968D02*
X131654D01*
X161880D02*
X310978D01*
X343998D02*
X356190D01*
X7194Y434714D02*
X131400D01*
X161372D02*
X311486D01*
X344252D02*
X356444D01*
X6940Y434460D02*
X131146D01*
X161118D02*
X311994D01*
X344760D02*
X356698D01*
X6686Y434206D02*
X130892D01*
X160610D02*
X312248D01*
X345014D02*
X356952D01*
X6686Y433952D02*
X130638D01*
X160102D02*
X312756D01*
X345268D02*
X356952D01*
X6432Y433698D02*
X130384D01*
X159848D02*
X313010D01*
X345522D02*
X357206D01*
X6178Y433444D02*
X129876D01*
X159340D02*
X313518D01*
X345776D02*
X357460D01*
X6178Y433190D02*
X129622D01*
X159086D02*
X314026D01*
X346030D02*
X357460D01*
X5924Y432936D02*
X129368D01*
X158578D02*
X314280D01*
X346284D02*
X357714D01*
X5670Y432682D02*
X129114D01*
X158070D02*
X314788D01*
X346792D02*
X357968D01*
X5670Y432428D02*
X128860D01*
X157816D02*
X315042D01*
X347046D02*
X357968D01*
X5416Y432174D02*
X128606D01*
X157308D02*
X315550D01*
X347300D02*
X358222D01*
X5162Y431920D02*
X128352D01*
X157054D02*
X315804D01*
X347554D02*
X358476D01*
X5162Y431666D02*
X128098D01*
X156546D02*
X316312D01*
X347808D02*
X358476D01*
X4908Y431412D02*
X127590D01*
X156292D02*
X316820D01*
X348062D02*
X358730D01*
X4908Y431158D02*
X127336D01*
X155784D02*
X317074D01*
X348316D02*
X358730D01*
X4654Y430904D02*
X127082D01*
X155530D02*
X317582D01*
X348570D02*
X358984D01*
X4400Y430650D02*
X126828D01*
X155022D02*
X317836D01*
X348824D02*
X359238D01*
X4400Y430396D02*
X126574D01*
X154768D02*
X318090D01*
X349078D02*
X359238D01*
X4146Y430142D02*
X126320D01*
X154260D02*
X318598D01*
X349332D02*
X359492D01*
X4146Y429888D02*
X126066D01*
X154006D02*
X318852D01*
X349840D02*
X359492D01*
X3892Y429634D02*
X125812D01*
X153498D02*
X319360D01*
X350094D02*
X359746D01*
X3892Y429380D02*
X125558D01*
X153244D02*
X319614D01*
X350348D02*
X359746D01*
X3638Y429126D02*
X125304D01*
X152990D02*
X320122D01*
X350602D02*
X360000D01*
X3638Y428872D02*
X125050D01*
X152482D02*
X320376D01*
X350856D02*
X360000D01*
X3384Y428618D02*
X124796D01*
X152228D02*
X320884D01*
X351110D02*
X360254D01*
X3384Y428364D02*
X124542D01*
X151720D02*
X321138D01*
X351364D02*
X360254D01*
X3130Y428110D02*
X124288D01*
X151466D02*
X321392D01*
X351618D02*
X360508D01*
X3130Y427856D02*
X124034D01*
X151212D02*
X321900D01*
X351872D02*
X360508D01*
X2876Y427602D02*
X123780D01*
X150704D02*
X322154D01*
X352126D02*
X360762D01*
X2876Y427348D02*
X123526D01*
X150450D02*
X322408D01*
X352380D02*
X360762D01*
X2622Y427094D02*
X123272D01*
X149942D02*
X322916D01*
X352634D02*
X361016D01*
X2622Y426840D02*
X122764D01*
X149688D02*
X323170D01*
X352888D02*
X361016D01*
X2368Y426586D02*
X122510D01*
X149434D02*
X323424D01*
X353142D02*
X361270D01*
X2368Y426332D02*
X122256D01*
X148926D02*
X323932D01*
X353396D02*
X361270D01*
X2368Y426078D02*
X122002D01*
X148672D02*
X324186D01*
X353650D02*
X361270D01*
X2114Y425824D02*
X121748D01*
X148418D02*
X324440D01*
X353904D02*
X361524D01*
X2114Y425570D02*
X121494D01*
X148164D02*
X324948D01*
X354158D02*
X361524D01*
X1860Y425316D02*
X121240D01*
X147656D02*
X325202D01*
X354412D02*
X361778D01*
X1860Y425062D02*
X121240D01*
X147402D02*
X325456D01*
X354666D02*
X361778D01*
X1860Y424808D02*
X120986D01*
X147148D02*
X325964D01*
X354920D02*
X361778D01*
X1606Y424554D02*
X120732D01*
X146640D02*
X326218D01*
X355174D02*
X362032D01*
X1606Y424300D02*
X120478D01*
X146386D02*
X326472D01*
X355428D02*
X362032D01*
X1352Y424046D02*
X120224D01*
X146132D02*
X326726D01*
X355682D02*
X362286D01*
X1352Y423792D02*
X119970D01*
X145878D02*
X327234D01*
X355936D02*
X362286D01*
X1352Y423538D02*
X119716D01*
X145370D02*
X327488D01*
X356190D02*
X362286D01*
X1098Y423284D02*
X119462D01*
X145116D02*
X327742D01*
X356444D02*
X362540D01*
X1098Y423030D02*
X119208D01*
X144862D02*
X327996D01*
X356698D02*
X362540D01*
X1098Y422776D02*
X118954D01*
X144608D02*
X328504D01*
X356952D02*
X362540D01*
X844Y422522D02*
X118700D01*
X144100D02*
X328758D01*
X357206D02*
X362794D01*
X844Y422268D02*
X118446D01*
X143846D02*
X329012D01*
X357460D02*
X362794D01*
X844Y422014D02*
X118192D01*
X143592D02*
X329266D01*
X357460D02*
X362794D01*
X844Y421760D02*
X117938D01*
X143338D02*
X329520D01*
X357714D02*
X362794D01*
X590Y421506D02*
X117684D01*
X143084D02*
X330028D01*
X357968D02*
X363048D01*
X590Y421252D02*
X117430D01*
X142576D02*
X330282D01*
X358222D02*
X363048D01*
X590Y420998D02*
X117176D01*
X142322D02*
X330536D01*
X358476D02*
X363048D01*
X336Y420744D02*
X116922D01*
X142068D02*
X330790D01*
X358730D02*
X363302D01*
X336Y420490D02*
X116668D01*
X141814D02*
X331044D01*
X358984D02*
X363302D01*
X336Y420236D02*
X116668D01*
X141560D02*
X331552D01*
X359238D02*
X363302D01*
X336Y419982D02*
X116414D01*
X141306D02*
X331806D01*
X359492D02*
X363302D01*
X336Y419728D02*
X116160D01*
X140798D02*
X332060D01*
X359746D02*
X363302D01*
X82Y419474D02*
X115906D01*
X140544D02*
X332314D01*
X360000D02*
X363556D01*
X82Y419220D02*
X115652D01*
X140290D02*
X332568D01*
X360254D02*
X363556D01*
X82Y418966D02*
X115398D01*
X140036D02*
X332822D01*
X360254D02*
X363556D01*
X82Y418712D02*
X115144D01*
X139782D02*
X333076D01*
X360508D02*
X363556D01*
X-172Y418458D02*
X114890D01*
X139528D02*
X333330D01*
X360762D02*
X363810D01*
X-172Y418204D02*
X114636D01*
X139274D02*
X333838D01*
X361016D02*
X363810D01*
X-172Y417950D02*
X114636D01*
X139020D02*
X334092D01*
X361270D02*
X363810D01*
X-172Y417696D02*
X114382D01*
X138766D02*
X334346D01*
X361524D02*
X363810D01*
X-172Y417442D02*
X114128D01*
X138258D02*
X334600D01*
X361778D02*
X363810D01*
X-172Y417188D02*
X113874D01*
X138004D02*
X334854D01*
X362032D02*
X363810D01*
X-426Y416934D02*
X113620D01*
X137750D02*
X335108D01*
X362032D02*
X364064D01*
X-426Y416680D02*
X113366D01*
X137496D02*
X335362D01*
X362286D02*
X364064D01*
X-426Y416426D02*
X113112D01*
X137242D02*
X335616D01*
X362540D02*
X364064D01*
X-426Y416172D02*
X113112D01*
X136988D02*
X335870D01*
X362794D02*
X364064D01*
X-426Y415918D02*
X112858D01*
X136734D02*
X336124D01*
X363048D02*
X364064D01*
X-426Y415664D02*
X112604D01*
X136480D02*
X336378D01*
X363302D02*
X364064D01*
X-426Y415410D02*
X112350D01*
X136226D02*
X336632D01*
X363302D02*
X364064D01*
X-680Y415156D02*
X112096D01*
X135972D02*
X336886D01*
X363556D02*
X364064D01*
X-680Y414902D02*
X111842D01*
X135718D02*
X337394D01*
X363810D02*
X364318D01*
X-680Y414648D02*
X111842D01*
X135464D02*
X337648D01*
X364064D02*
X364318D01*
X-680Y414394D02*
X111588D01*
X135210D02*
X337902D01*
X-680Y414140D02*
X111334D01*
X134956D02*
X338156D01*
X-680Y413886D02*
X111080D01*
X134702D02*
X338410D01*
X-680Y413632D02*
X110826D01*
X134448D02*
X338664D01*
X-680Y413378D02*
X110572D01*
X134194D02*
X338918D01*
X-680Y413124D02*
X110572D01*
X133940D02*
X339172D01*
X-680Y412870D02*
X110318D01*
X133686D02*
X339426D01*
X-680Y412616D02*
X110064D01*
X133432D02*
X339680D01*
X-680Y412362D02*
X109810D01*
X133178D02*
X339934D01*
X-680Y412108D02*
X109556D01*
X132924D02*
X340188D01*
X-680Y411854D02*
X109556D01*
X132670D02*
X340442D01*
X-680Y411600D02*
X109302D01*
X132416D02*
X340696D01*
X-680Y411346D02*
X109048D01*
X132162D02*
X340950D01*
X-680Y411092D02*
X108794D01*
X131908D02*
X341204D01*
X-680Y410838D02*
X108540D01*
X131654D02*
X341204D01*
X-680Y410584D02*
X108540D01*
X131400D02*
X341458D01*
X-680Y410330D02*
X108286D01*
X131146D02*
X341712D01*
X-680Y410076D02*
X108032D01*
X130892D02*
X341966D01*
X-680Y409822D02*
X107778D01*
X130638D02*
X342220D01*
X-680Y409568D02*
X107778D01*
X130384D02*
X342474D01*
X-680Y409314D02*
X107524D01*
X130130D02*
X342728D01*
X-680Y409060D02*
X107270D01*
X129876D02*
X342982D01*
X-680Y408806D02*
X107016D01*
X129622D02*
X343236D01*
X-680Y408552D02*
X107016D01*
X129368D02*
X343490D01*
X-680Y408298D02*
X106762D01*
X129114D02*
X343744D01*
X-680Y408044D02*
X106508D01*
X129114D02*
X343998D01*
X-680Y407790D02*
X106254D01*
X128860D02*
X344252D01*
X-680Y407536D02*
X106254D01*
X128606D02*
X344506D01*
X-680Y407282D02*
X106000D01*
X128352D02*
X344506D01*
X-680Y407028D02*
X105746D01*
X128098D02*
X344760D01*
X-680Y406774D02*
X105492D01*
X127844D02*
X345014D01*
X-680Y406520D02*
X105492D01*
X127590D02*
X345268D01*
X-680Y406266D02*
X105238D01*
X127336D02*
X345522D01*
X-680Y406012D02*
X104984D01*
X127082D02*
X345776D01*
X-680Y405758D02*
X104984D01*
X127082D02*
X346030D01*
X-680Y405504D02*
X104730D01*
X126828D02*
X346284D01*
X-680Y405250D02*
X104476D01*
X126574D02*
X346284D01*
X-680Y404996D02*
X104222D01*
X126320D02*
X346538D01*
X-680Y404742D02*
X104222D01*
X126066D02*
X346792D01*
X-680Y404488D02*
X103968D01*
X125812D02*
X347046D01*
X-680Y404234D02*
X103714D01*
X125558D02*
X347300D01*
X-680Y403980D02*
X103714D01*
X125558D02*
X347554D01*
X-680Y403726D02*
X103460D01*
X125304D02*
X347808D01*
X-680Y403472D02*
X103206D01*
X125050D02*
X347808D01*
X-680Y403218D02*
X103206D01*
X124796D02*
X348062D01*
X-680Y402964D02*
X102952D01*
X124542D02*
X348316D01*
X-680Y402710D02*
X102698D01*
X124288D02*
X348570D01*
X-680Y402456D02*
X102444D01*
X124288D02*
X348824D01*
X-680Y402202D02*
X102444D01*
X124034D02*
X349078D01*
X-680Y401948D02*
X102190D01*
X123780D02*
X349078D01*
X-680Y401694D02*
X101936D01*
X123526D02*
X349332D01*
X-680Y401440D02*
X101936D01*
X123272D02*
X349586D01*
X-680Y401186D02*
X101682D01*
X123272D02*
X349840D01*
X-680Y400932D02*
X101428D01*
X123018D02*
X350094D01*
X-680Y400678D02*
X101428D01*
X122764D02*
X350094D01*
X-680Y400424D02*
X101174D01*
X122510D02*
X350348D01*
X-680Y400170D02*
X100920D01*
X122256D02*
X350602D01*
X-680Y399916D02*
X100920D01*
X122256D02*
X350856D01*
X-680Y399662D02*
X100666D01*
X122002D02*
X351110D01*
X-680Y399408D02*
X100666D01*
X121748D02*
X351110D01*
X-680Y399154D02*
X100412D01*
X121494D02*
X351364D01*
X-680Y398900D02*
X100158D01*
X121240D02*
X351618D01*
X-680Y398646D02*
X100158D01*
X121240D02*
X351872D01*
X-680Y398392D02*
X99904D01*
X120986D02*
X351872D01*
X-680Y398138D02*
X99650D01*
X120732D02*
X352126D01*
X-680Y397884D02*
X99650D01*
X120478D02*
X352380D01*
X-680Y397630D02*
X99396D01*
X120478D02*
X352634D01*
X-680Y397376D02*
X99142D01*
X120224D02*
X352634D01*
X-680Y397122D02*
X99142D01*
X119970D02*
X352888D01*
X-680Y396868D02*
X98888D01*
X119716D02*
X353142D01*
X-680Y396614D02*
X98888D01*
X119716D02*
X353396D01*
X-680Y396360D02*
X98634D01*
X119462D02*
X353396D01*
X-680Y396106D02*
X98380D01*
X119208D02*
X353650D01*
X-680Y395852D02*
X98380D01*
X118954D02*
X353904D01*
X-680Y395598D02*
X98126D01*
X118954D02*
X354158D01*
X-680Y395344D02*
X97872D01*
X118700D02*
X354158D01*
X-680Y395090D02*
X97872D01*
X118446D02*
X354412D01*
X-680Y394836D02*
X97618D01*
X118446D02*
X354666D01*
X-680Y394582D02*
X97618D01*
X118192D02*
X354666D01*
X-680Y394328D02*
X97364D01*
X117938D02*
X354920D01*
X-680Y394074D02*
X97110D01*
X117684D02*
X251542D01*
X254844D02*
X355174D01*
X-680Y393820D02*
X97110D01*
X117684D02*
X251034D01*
X255606D02*
X355428D01*
X-680Y393566D02*
X96856D01*
X117430D02*
X250526D01*
X256114D02*
X355428D01*
X-680Y393312D02*
X96856D01*
X117176D02*
X250018D01*
X256368D02*
X355682D01*
X-680Y393058D02*
X96602D01*
X117176D02*
X183216D01*
X186010D02*
X249764D01*
X256876D02*
X355936D01*
X-680Y392804D02*
X96348D01*
X116922D02*
X182454D01*
X186772D02*
X249256D01*
X257130D02*
X355936D01*
X-680Y392550D02*
X96348D01*
X116668D02*
X181946D01*
X187280D02*
X249002D01*
X257384D02*
X356190D01*
X-680Y392296D02*
X96094D01*
X116668D02*
X181438D01*
X187788D02*
X248748D01*
X257638D02*
X356444D01*
X-680Y392042D02*
X96094D01*
X116414D02*
X181184D01*
X188296D02*
X248494D01*
X257892D02*
X356444D01*
X-680Y391788D02*
X95840D01*
X116160D02*
X180930D01*
X188550D02*
X248240D01*
X258146D02*
X356698D01*
X-680Y391534D02*
X95840D01*
X116160D02*
X180422D01*
X188804D02*
X247986D01*
X258146D02*
X356952D01*
X-680Y391280D02*
X95586D01*
X115906D02*
X180168D01*
X189058D02*
X247732D01*
X258400D02*
X356952D01*
X-680Y391026D02*
X95332D01*
X115652D02*
X179914D01*
X189312D02*
X247478D01*
X258400D02*
X357206D01*
X-680Y390772D02*
X95332D01*
X115652D02*
X179660D01*
X189312D02*
X247224D01*
X258654D02*
X357460D01*
X-680Y390518D02*
X95078D01*
X115398D02*
X179406D01*
X189566D02*
X246970D01*
X258654D02*
X357460D01*
X-680Y390264D02*
X95078D01*
X115144D02*
X179152D01*
X189820D02*
X246716D01*
X258908D02*
X357714D01*
X-680Y390010D02*
X94824D01*
X115144D02*
X178898D01*
X189820D02*
X246462D01*
X258908D02*
X357968D01*
X-680Y389756D02*
X94824D01*
X114890D02*
X178644D01*
X190074D02*
X246208D01*
X258908D02*
X357968D01*
X-680Y389502D02*
X94570D01*
X114636D02*
X178390D01*
X190074D02*
X245954D01*
X258908D02*
X358222D01*
X-680Y389248D02*
X94570D01*
X114636D02*
X178136D01*
X190074D02*
X245700D01*
X258908D02*
X358476D01*
X-680Y388994D02*
X94316D01*
X114382D02*
X177882D01*
X190328D02*
X245446D01*
X259162D02*
X358476D01*
X-680Y388740D02*
X94062D01*
X114128D02*
X177628D01*
X190328D02*
X245192D01*
X259162D02*
X358730D01*
X-680Y388486D02*
X94062D01*
X114128D02*
X177374D01*
X190328D02*
X244938D01*
X259162D02*
X358984D01*
X-680Y388232D02*
X93808D01*
X113874D02*
X177120D01*
X190328D02*
X244684D01*
X259162D02*
X358984D01*
X-680Y387978D02*
X93808D01*
X113620D02*
X176866D01*
X190582D02*
X244430D01*
X259162D02*
X359238D01*
X-680Y387724D02*
X93554D01*
X113620D02*
X176612D01*
X190582D02*
X211410D01*
X214712D02*
X244176D01*
X259162D02*
X359492D01*
X-680Y387470D02*
X93554D01*
X113366D02*
X176358D01*
X190582D02*
X210902D01*
X215474D02*
X243922D01*
X258908D02*
X359492D01*
X-680Y387216D02*
X93300D01*
X113366D02*
X176104D01*
X190582D02*
X210394D01*
X215982D02*
X243668D01*
X258908D02*
X359746D01*
X-680Y386962D02*
X93300D01*
X113112D02*
X175850D01*
X190582D02*
X209886D01*
X216490D02*
X243414D01*
X258908D02*
X359746D01*
X-680Y386708D02*
X93046D01*
X112858D02*
X175596D01*
X190582D02*
X209632D01*
X216744D02*
X243160D01*
X258908D02*
X360000D01*
X-680Y386454D02*
X93046D01*
X112858D02*
X175342D01*
X190328D02*
X209124D01*
X216998D02*
X242906D01*
X258654D02*
X360254D01*
X-680Y386200D02*
X92792D01*
X112604D02*
X175088D01*
X190328D02*
X208870D01*
X217252D02*
X242652D01*
X258654D02*
X360254D01*
X-680Y385946D02*
X92792D01*
X112350D02*
X174834D01*
X190328D02*
X208616D01*
X217506D02*
X242398D01*
X258400D02*
X360508D01*
X-680Y385692D02*
X92538D01*
X112350D02*
X174580D01*
X190328D02*
X208362D01*
X217760D02*
X242144D01*
X258400D02*
X360508D01*
X-680Y385438D02*
X92538D01*
X112096D02*
X174326D01*
X190074D02*
X208108D01*
X218014D02*
X241890D01*
X258146D02*
X360762D01*
X-680Y385184D02*
X92284D01*
X112096D02*
X174072D01*
X190074D02*
X207854D01*
X218014D02*
X241636D01*
X258146D02*
X361016D01*
X-680Y384930D02*
X92284D01*
X111842D02*
X173818D01*
X189820D02*
X207600D01*
X218268D02*
X241382D01*
X257892D02*
X361016D01*
X-680Y384676D02*
X92030D01*
X111588D02*
X173564D01*
X189820D02*
X207346D01*
X218268D02*
X241128D01*
X257638D02*
X361270D01*
X-680Y384422D02*
X91776D01*
X111588D02*
X173310D01*
X189566D02*
X207092D01*
X218522D02*
X240874D01*
X257384D02*
X361270D01*
X-680Y384168D02*
X91776D01*
X111334D02*
X173056D01*
X189566D02*
X206838D01*
X218522D02*
X240620D01*
X257130D02*
X361524D01*
X-680Y383914D02*
X91522D01*
X111334D02*
X172802D01*
X189312D02*
X206584D01*
X218776D02*
X240366D01*
X256876D02*
X361778D01*
X-680Y383660D02*
X91522D01*
X111080D02*
X172548D01*
X189058D02*
X206330D01*
X218776D02*
X240112D01*
X256622D02*
X361778D01*
X-680Y383406D02*
X91268D01*
X110826D02*
X172294D01*
X188804D02*
X206076D01*
X218776D02*
X239858D01*
X256368D02*
X362032D01*
X-680Y383152D02*
X91268D01*
X110826D02*
X172040D01*
X188550D02*
X205822D01*
X218776D02*
X239604D01*
X256114D02*
X362032D01*
X-680Y382898D02*
X91014D01*
X110572D02*
X171786D01*
X188296D02*
X205568D01*
X219030D02*
X239350D01*
X255860D02*
X362286D01*
X-680Y382644D02*
X91014D01*
X110572D02*
X171532D01*
X188042D02*
X205314D01*
X219030D02*
X239096D01*
X255606D02*
X362540D01*
X-680Y382390D02*
X91014D01*
X110318D02*
X171278D01*
X187788D02*
X205060D01*
X219030D02*
X238842D01*
X255352D02*
X362540D01*
X-680Y382136D02*
X90760D01*
X110318D02*
X171024D01*
X187534D02*
X204806D01*
X219030D02*
X238588D01*
X255098D02*
X362794D01*
X-680Y381882D02*
X90760D01*
X110064D02*
X170770D01*
X187280D02*
X204552D01*
X219030D02*
X238334D01*
X254844D02*
X362794D01*
X-680Y381628D02*
X90506D01*
X109810D02*
X170516D01*
X187026D02*
X204298D01*
X219030D02*
X238080D01*
X254590D02*
X363048D01*
X-680Y381374D02*
X90506D01*
X109810D02*
X170262D01*
X186772D02*
X204044D01*
X219030D02*
X237826D01*
X254336D02*
X363048D01*
X-680Y381120D02*
X90252D01*
X109556D02*
X170008D01*
X186518D02*
X203790D01*
X219030D02*
X237572D01*
X254082D02*
X363302D01*
X-680Y380866D02*
X90252D01*
X109556D02*
X169754D01*
X186264D02*
X203536D01*
X218776D02*
X237318D01*
X253828D02*
X363302D01*
X-680Y380612D02*
X89998D01*
X109302D02*
X169500D01*
X186010D02*
X203282D01*
X218776D02*
X237064D01*
X253574D02*
X363556D01*
X-680Y380358D02*
X89998D01*
X109302D02*
X169246D01*
X185756D02*
X203028D01*
X218776D02*
X236810D01*
X253320D02*
X363810D01*
X-680Y380104D02*
X89744D01*
X109048D02*
X168992D01*
X185502D02*
X202774D01*
X218522D02*
X236556D01*
X253066D02*
X363810D01*
X-680Y379850D02*
X89744D01*
X109048D02*
X168738D01*
X185248D02*
X202520D01*
X218522D02*
X236302D01*
X252812D02*
X364064D01*
X-680Y379596D02*
X89490D01*
X108794D02*
X168484D01*
X184994D02*
X202266D01*
X218522D02*
X236048D01*
X252558D02*
X364064D01*
X-680Y379342D02*
X89490D01*
X108540D02*
X168230D01*
X184740D02*
X202012D01*
X218268D02*
X235794D01*
X252304D02*
X364318D01*
X-680Y379088D02*
X89236D01*
X108540D02*
X167976D01*
X184486D02*
X201758D01*
X218014D02*
X235540D01*
X252050D02*
X364318D01*
X-680Y378834D02*
X89236D01*
X108286D02*
X167722D01*
X184232D02*
X201504D01*
X218014D02*
X235286D01*
X251796D02*
X364318D01*
X-680Y378580D02*
X88982D01*
X108286D02*
X167468D01*
X183978D02*
X201250D01*
X217760D02*
X235032D01*
X251542D02*
X364318D01*
X-680Y378326D02*
X88982D01*
X108032D02*
X167214D01*
X183724D02*
X200996D01*
X217506D02*
X234778D01*
X251288D02*
X364318D01*
X-680Y378072D02*
X88728D01*
X108032D02*
X166960D01*
X183470D02*
X200742D01*
X217252D02*
X234524D01*
X251034D02*
X364318D01*
X-680Y377818D02*
X88728D01*
X107778D02*
X166706D01*
X183216D02*
X200488D01*
X216998D02*
X234270D01*
X250780D02*
X364318D01*
X-680Y377564D02*
X88728D01*
X107778D02*
X166452D01*
X182962D02*
X200234D01*
X216744D02*
X234016D01*
X250526D02*
X364318D01*
X-680Y377310D02*
X88474D01*
X107524D02*
X166198D01*
X182708D02*
X199980D01*
X216490D02*
X233762D01*
X250272D02*
X364318D01*
X-680Y377056D02*
X88474D01*
X107524D02*
X165944D01*
X182454D02*
X199726D01*
X216236D02*
X233508D01*
X250018D02*
X364318D01*
X-680Y376802D02*
X88220D01*
X107270D02*
X165690D01*
X182200D02*
X199472D01*
X215982D02*
X233254D01*
X249764D02*
X364318D01*
X-680Y376548D02*
X88220D01*
X107270D02*
X165436D01*
X181946D02*
X199218D01*
X215728D02*
X233000D01*
X249510D02*
X364318D01*
X-680Y376294D02*
X87966D01*
X107016D02*
X165182D01*
X181692D02*
X198964D01*
X215474D02*
X232746D01*
X249256D02*
X364318D01*
X-680Y376040D02*
X87966D01*
X107016D02*
X164928D01*
X181438D02*
X198710D01*
X215220D02*
X232492D01*
X249002D02*
X364318D01*
X-680Y375786D02*
X87712D01*
X106762D02*
X164928D01*
X181184D02*
X198456D01*
X214966D02*
X232238D01*
X248748D02*
X364318D01*
X-680Y375532D02*
X87712D01*
X106762D02*
X164674D01*
X180930D02*
X198202D01*
X214712D02*
X231984D01*
X248494D02*
X364318D01*
X-680Y375278D02*
X87712D01*
X106508D02*
X164420D01*
X180676D02*
X197948D01*
X214458D02*
X231730D01*
X248240D02*
X364318D01*
X-680Y375024D02*
X87458D01*
X106508D02*
X164166D01*
X180422D02*
X197694D01*
X214204D02*
X231476D01*
X247986D02*
X364318D01*
X-680Y374770D02*
X87458D01*
X106254D02*
X164166D01*
X180168D02*
X197440D01*
X213950D02*
X231222D01*
X247732D02*
X364318D01*
X-680Y374516D02*
X87204D01*
X106254D02*
X163912D01*
X179914D02*
X197186D01*
X213696D02*
X230968D01*
X247478D02*
X364318D01*
X-680Y374262D02*
X87204D01*
X106000D02*
X163912D01*
X179660D02*
X196932D01*
X213442D02*
X230714D01*
X247224D02*
X364318D01*
X-680Y374008D02*
X86950D01*
X106000D02*
X163658D01*
X179406D02*
X196678D01*
X213188D02*
X230460D01*
X246970D02*
X364318D01*
X-680Y373754D02*
X86950D01*
X105746D02*
X163658D01*
X179152D02*
X196424D01*
X212934D02*
X230206D01*
X246716D02*
X364318D01*
X-680Y373500D02*
X86950D01*
X105746D02*
X163658D01*
X178898D02*
X196170D01*
X212680D02*
X229952D01*
X246462D02*
X364318D01*
X-680Y373246D02*
X86696D01*
X105492D02*
X163404D01*
X178644D02*
X195916D01*
X212426D02*
X229698D01*
X246208D02*
X364318D01*
X-680Y372992D02*
X86696D01*
X105492D02*
X163404D01*
X178390D02*
X195662D01*
X212172D02*
X229444D01*
X245954D02*
X364318D01*
X-680Y372738D02*
X86442D01*
X105238D02*
X163404D01*
X178136D02*
X195408D01*
X211918D02*
X229190D01*
X245700D02*
X364318D01*
X-680Y372484D02*
X86442D01*
X105238D02*
X163404D01*
X177882D02*
X195154D01*
X211664D02*
X228936D01*
X245446D02*
X364318D01*
X-680Y372230D02*
X86442D01*
X104984D02*
X163404D01*
X177628D02*
X194900D01*
X211410D02*
X228682D01*
X245192D02*
X364318D01*
X-680Y371976D02*
X86188D01*
X104984D02*
X163404D01*
X177374D02*
X194646D01*
X211156D02*
X228428D01*
X244938D02*
X364318D01*
X-680Y371722D02*
X86188D01*
X104730D02*
X163404D01*
X177120D02*
X194392D01*
X210902D02*
X228174D01*
X244684D02*
X364318D01*
X-680Y371468D02*
X85934D01*
X104730D02*
X163404D01*
X176866D02*
X194138D01*
X210648D02*
X227920D01*
X244430D02*
X364318D01*
X-680Y371214D02*
X85934D01*
X104730D02*
X163404D01*
X176612D02*
X193884D01*
X210394D02*
X227666D01*
X244176D02*
X364318D01*
X-680Y370960D02*
X85934D01*
X104476D02*
X163404D01*
X176358D02*
X193630D01*
X210140D02*
X227412D01*
X243922D02*
X364318D01*
X-680Y370706D02*
X85680D01*
X104476D02*
X163404D01*
X176104D02*
X193376D01*
X209886D02*
X227158D01*
X243668D02*
X364318D01*
X-680Y370452D02*
X85680D01*
X104222D02*
X163404D01*
X175850D02*
X193122D01*
X209632D02*
X226904D01*
X243414D02*
X364318D01*
X-680Y370198D02*
X85426D01*
X104222D02*
X163658D01*
X175596D02*
X192868D01*
X209378D02*
X226650D01*
X243160D02*
X364318D01*
X-680Y369944D02*
X85426D01*
X103968D02*
X163658D01*
X175342D02*
X192614D01*
X209124D02*
X226396D01*
X242906D02*
X364318D01*
X-680Y369690D02*
X85426D01*
X103968D02*
X163658D01*
X175088D02*
X192360D01*
X208870D02*
X226142D01*
X242652D02*
X364318D01*
X-680Y369436D02*
X85172D01*
X103714D02*
X163912D01*
X174834D02*
X192106D01*
X208616D02*
X225888D01*
X242398D02*
X364318D01*
X-680Y369182D02*
X85172D01*
X103714D02*
X163912D01*
X174580D02*
X191852D01*
X208362D02*
X225634D01*
X242144D02*
X364318D01*
X-680Y368928D02*
X84918D01*
X103460D02*
X164166D01*
X174326D02*
X191598D01*
X208108D02*
X225380D01*
X241890D02*
X364318D01*
X-680Y368674D02*
X84918D01*
X103460D02*
X164420D01*
X174072D02*
X191344D01*
X207854D02*
X225126D01*
X241636D02*
X364318D01*
X-680Y368420D02*
X84918D01*
X103460D02*
X164420D01*
X173818D02*
X191090D01*
X207600D02*
X224872D01*
X241382D02*
X364318D01*
X-680Y368166D02*
X84664D01*
X103206D02*
X164674D01*
X173564D02*
X190836D01*
X207346D02*
X224618D01*
X241128D02*
X364318D01*
X-680Y367912D02*
X84664D01*
X103206D02*
X164928D01*
X173310D02*
X190582D01*
X207092D02*
X224364D01*
X240874D02*
X364318D01*
X-680Y367658D02*
X84664D01*
X102952D02*
X165182D01*
X173056D02*
X190328D01*
X206838D02*
X224110D01*
X240620D02*
X364318D01*
X-680Y367404D02*
X84410D01*
X102952D02*
X165436D01*
X172802D02*
X190074D01*
X206584D02*
X223856D01*
X240366D02*
X364318D01*
X-680Y367150D02*
X84410D01*
X102698D02*
X165944D01*
X172548D02*
X189820D01*
X206330D02*
X223602D01*
X240112D02*
X364318D01*
X-680Y366896D02*
X84156D01*
X102698D02*
X166198D01*
X172040D02*
X189566D01*
X206076D02*
X223348D01*
X239858D02*
X364318D01*
X-680Y366642D02*
X84156D01*
X102698D02*
X166706D01*
X171786D02*
X189312D01*
X205822D02*
X223094D01*
X239604D02*
X364318D01*
X-680Y366388D02*
X84156D01*
X102444D02*
X167214D01*
X171024D02*
X189058D01*
X205568D02*
X222840D01*
X239350D02*
X364318D01*
X-680Y366134D02*
X83902D01*
X102444D02*
X168230D01*
X170008D02*
X188804D01*
X205314D02*
X222586D01*
X239096D02*
X364318D01*
X-680Y365880D02*
X83902D01*
X102190D02*
X188550D01*
X205060D02*
X222332D01*
X238842D02*
X364318D01*
X-680Y365626D02*
X83902D01*
X102190D02*
X188296D01*
X204806D02*
X222078D01*
X238588D02*
X364318D01*
X-680Y365372D02*
X83648D01*
X102190D02*
X188042D01*
X204552D02*
X221824D01*
X238334D02*
X364318D01*
X-680Y365118D02*
X83648D01*
X101936D02*
X187788D01*
X204298D02*
X221570D01*
X238080D02*
X364318D01*
X-680Y364864D02*
X83394D01*
X101936D02*
X187534D01*
X204044D02*
X221316D01*
X237826D02*
X364318D01*
X-680Y364610D02*
X83394D01*
X101682D02*
X187280D01*
X203790D02*
X221062D01*
X237572D02*
X364318D01*
X-680Y364356D02*
X83394D01*
X101682D02*
X187026D01*
X203536D02*
X220808D01*
X237318D02*
X364318D01*
X-680Y364102D02*
X83140D01*
X101682D02*
X186772D01*
X203282D02*
X220554D01*
X237064D02*
X364318D01*
X-680Y363848D02*
X83140D01*
X101428D02*
X186518D01*
X203028D02*
X220300D01*
X236810D02*
X364318D01*
X-680Y363594D02*
X83140D01*
X101428D02*
X186264D01*
X202774D02*
X220046D01*
X236556D02*
X364318D01*
X-680Y363340D02*
X82886D01*
X101174D02*
X186010D01*
X202520D02*
X219792D01*
X236302D02*
X364318D01*
X-680Y363086D02*
X82886D01*
X101174D02*
X185756D01*
X202266D02*
X219538D01*
X236048D02*
X364318D01*
X-680Y362832D02*
X82886D01*
X101174D02*
X185502D01*
X202012D02*
X219284D01*
X235794D02*
X364318D01*
X-680Y362578D02*
X82632D01*
X100920D02*
X185248D01*
X201758D02*
X219030D01*
X235540D02*
X364318D01*
X-680Y362324D02*
X82632D01*
X100920D02*
X184994D01*
X201504D02*
X218776D01*
X235286D02*
X364318D01*
X-680Y362070D02*
X82632D01*
X100666D02*
X184740D01*
X201250D02*
X218522D01*
X235032D02*
X364318D01*
X-680Y361816D02*
X82378D01*
X100666D02*
X184486D01*
X200996D02*
X218268D01*
X234778D02*
X364318D01*
X-680Y361562D02*
X82378D01*
X100666D02*
X184232D01*
X200742D02*
X218014D01*
X234524D02*
X364318D01*
X-680Y361308D02*
X82378D01*
X100412D02*
X183978D01*
X200488D02*
X217760D01*
X234270D02*
X364318D01*
X-680Y361054D02*
X82124D01*
X100412D02*
X183724D01*
X200234D02*
X217506D01*
X234016D02*
X364318D01*
X-680Y360800D02*
X82124D01*
X100412D02*
X183470D01*
X199980D02*
X217252D01*
X233762D02*
X364318D01*
X-680Y360546D02*
X82124D01*
X100158D02*
X183216D01*
X199726D02*
X216998D01*
X233508D02*
X364318D01*
X-680Y360292D02*
X81870D01*
X100158D02*
X182962D01*
X199472D02*
X216744D01*
X233254D02*
X364318D01*
X-680Y360038D02*
X81870D01*
X99904D02*
X182708D01*
X199218D02*
X216490D01*
X233000D02*
X364318D01*
X-680Y359784D02*
X81870D01*
X99904D02*
X182454D01*
X198964D02*
X216236D01*
X232746D02*
X364318D01*
X-680Y359530D02*
X81616D01*
X99904D02*
X182200D01*
X198710D02*
X215982D01*
X232492D02*
X364318D01*
X-680Y359276D02*
X81616D01*
X99650D02*
X181946D01*
X198456D02*
X215728D01*
X232238D02*
X364318D01*
X-680Y359022D02*
X81616D01*
X99650D02*
X181692D01*
X198202D02*
X215474D01*
X231984D02*
X364318D01*
X-680Y358768D02*
X81616D01*
X99650D02*
X181438D01*
X197948D02*
X215220D01*
X231730D02*
X364318D01*
X-680Y358514D02*
X81362D01*
X99396D02*
X181184D01*
X197694D02*
X214966D01*
X231476D02*
X364318D01*
X-680Y358260D02*
X81362D01*
X99396D02*
X180930D01*
X197440D02*
X214712D01*
X231222D02*
X364318D01*
X-680Y358006D02*
X81362D01*
X99396D02*
X180676D01*
X197186D02*
X214458D01*
X230968D02*
X364318D01*
X-680Y357752D02*
X81108D01*
X99142D02*
X180422D01*
X196932D02*
X214204D01*
X230714D02*
X364318D01*
X-680Y357498D02*
X81108D01*
X99142D02*
X180168D01*
X196678D02*
X213950D01*
X230460D02*
X364318D01*
X-680Y357244D02*
X81108D01*
X99142D02*
X179914D01*
X196424D02*
X213696D01*
X230206D02*
X364318D01*
X-680Y356990D02*
X80854D01*
X98888D02*
X179660D01*
X196170D02*
X213442D01*
X229952D02*
X364318D01*
X-680Y356736D02*
X80854D01*
X98888D02*
X179406D01*
X195916D02*
X213188D01*
X229698D02*
X364318D01*
X-680Y356482D02*
X80854D01*
X98634D02*
X179152D01*
X195662D02*
X212934D01*
X229444D02*
X364318D01*
X-680Y356228D02*
X80854D01*
X98634D02*
X178898D01*
X195408D02*
X212680D01*
X229190D02*
X364318D01*
X-680Y355974D02*
X80600D01*
X98634D02*
X178644D01*
X195154D02*
X212426D01*
X228936D02*
X364318D01*
X-680Y355720D02*
X80600D01*
X98380D02*
X178390D01*
X194900D02*
X212172D01*
X228682D02*
X364318D01*
X-680Y355466D02*
X80600D01*
X98380D02*
X178136D01*
X194646D02*
X211918D01*
X228428D02*
X364318D01*
X-680Y355212D02*
X80346D01*
X98380D02*
X177882D01*
X194392D02*
X211664D01*
X228174D02*
X364318D01*
X-680Y354958D02*
X80346D01*
X98380D02*
X177628D01*
X194138D02*
X211410D01*
X227920D02*
X364318D01*
X-680Y354704D02*
X80346D01*
X98126D02*
X177374D01*
X193884D02*
X211156D01*
X227666D02*
X364318D01*
X-680Y354450D02*
X80092D01*
X98126D02*
X177120D01*
X193630D02*
X210902D01*
X227412D02*
X364318D01*
X-680Y354196D02*
X80092D01*
X98126D02*
X176866D01*
X193376D02*
X210648D01*
X227158D02*
X246716D01*
X246970D02*
X364318D01*
X-680Y353942D02*
X80092D01*
X97872D02*
X176612D01*
X193122D02*
X210394D01*
X226904D02*
X245192D01*
X248494D02*
X364318D01*
X-680Y353688D02*
X80092D01*
X97872D02*
X176358D01*
X192868D02*
X210140D01*
X226650D02*
X244430D01*
X249256D02*
X364318D01*
X-680Y353434D02*
X79838D01*
X97872D02*
X176104D01*
X192614D02*
X209886D01*
X226396D02*
X244176D01*
X249764D02*
X364318D01*
X-680Y353180D02*
X79838D01*
X97618D02*
X175850D01*
X192360D02*
X209632D01*
X226142D02*
X243668D01*
X250272D02*
X364318D01*
X-680Y352926D02*
X79838D01*
X97618D02*
X175596D01*
X192106D02*
X209378D01*
X225888D02*
X243414D01*
X250526D02*
X364318D01*
X-680Y352672D02*
X79838D01*
X97618D02*
X175342D01*
X191852D02*
X209124D01*
X225634D02*
X242906D01*
X250780D02*
X364318D01*
X-680Y352418D02*
X79584D01*
X97364D02*
X175088D01*
X191598D02*
X208870D01*
X225380D02*
X242652D01*
X251034D02*
X364318D01*
X-680Y352164D02*
X79584D01*
X97364D02*
X174834D01*
X191344D02*
X208616D01*
X225126D02*
X242398D01*
X251288D02*
X364318D01*
X-680Y351910D02*
X79584D01*
X97364D02*
X174580D01*
X191090D02*
X208362D01*
X224872D02*
X242144D01*
X251542D02*
X364318D01*
X-680Y351656D02*
X79584D01*
X97364D02*
X174326D01*
X190836D02*
X208108D01*
X224618D02*
X241890D01*
X251796D02*
X364318D01*
X-680Y351402D02*
X79330D01*
X97110D02*
X174072D01*
X190582D02*
X207854D01*
X224364D02*
X241636D01*
X251796D02*
X364318D01*
X-680Y351148D02*
X79330D01*
X97110D02*
X173818D01*
X190328D02*
X207600D01*
X224110D02*
X241382D01*
X252050D02*
X364318D01*
X-680Y350894D02*
X79330D01*
X97110D02*
X173564D01*
X190074D02*
X207346D01*
X223856D02*
X241128D01*
X252050D02*
X364318D01*
X-680Y350640D02*
X79076D01*
X96856D02*
X173310D01*
X189820D02*
X207092D01*
X223602D02*
X240874D01*
X252304D02*
X364318D01*
X-680Y350386D02*
X79076D01*
X96856D02*
X173056D01*
X189566D02*
X206838D01*
X223348D02*
X240620D01*
X252304D02*
X364318D01*
X-680Y350132D02*
X79076D01*
X96856D02*
X172802D01*
X189312D02*
X206584D01*
X223094D02*
X240366D01*
X252558D02*
X364318D01*
X-680Y349878D02*
X79076D01*
X96602D02*
X172548D01*
X189058D02*
X206330D01*
X222840D02*
X240112D01*
X252558D02*
X364318D01*
X-680Y349624D02*
X78822D01*
X96602D02*
X172294D01*
X188804D02*
X206076D01*
X222586D02*
X239858D01*
X252558D02*
X364318D01*
X-680Y349370D02*
X78822D01*
X96602D02*
X172040D01*
X188550D02*
X205822D01*
X222332D02*
X239604D01*
X252558D02*
X364318D01*
X-680Y349116D02*
X78822D01*
X96602D02*
X171786D01*
X188296D02*
X205568D01*
X222078D02*
X239350D01*
X252812D02*
X364318D01*
X-680Y348862D02*
X78822D01*
X96348D02*
X171532D01*
X188042D02*
X205314D01*
X221824D02*
X239096D01*
X252812D02*
X364318D01*
X-680Y348608D02*
X78822D01*
X96348D02*
X171278D01*
X187788D02*
X205060D01*
X221570D02*
X238842D01*
X252812D02*
X364318D01*
X-680Y348354D02*
X78568D01*
X96348D02*
X171024D01*
X187534D02*
X204806D01*
X221316D02*
X238588D01*
X252812D02*
X364318D01*
X-680Y348100D02*
X78568D01*
X96348D02*
X170770D01*
X187280D02*
X204552D01*
X221062D02*
X238334D01*
X252812D02*
X364318D01*
X-680Y347846D02*
X78568D01*
X96094D02*
X170516D01*
X187026D02*
X204298D01*
X220808D02*
X238080D01*
X252812D02*
X364318D01*
X-680Y347592D02*
X78568D01*
X96094D02*
X170262D01*
X186772D02*
X204044D01*
X220554D02*
X237826D01*
X252812D02*
X364318D01*
X-680Y347338D02*
X78314D01*
X96094D02*
X170008D01*
X186518D02*
X203790D01*
X220300D02*
X237572D01*
X252558D02*
X364318D01*
X-680Y347084D02*
X78314D01*
X95840D02*
X169754D01*
X186264D02*
X203536D01*
X220046D02*
X237318D01*
X252558D02*
X364318D01*
X-680Y346830D02*
X78314D01*
X95840D02*
X169500D01*
X186010D02*
X203282D01*
X219792D02*
X237064D01*
X252558D02*
X364318D01*
X-680Y346576D02*
X78314D01*
X95840D02*
X169246D01*
X185756D02*
X203028D01*
X219538D02*
X236810D01*
X252558D02*
X364318D01*
X-680Y346322D02*
X78060D01*
X95840D02*
X168992D01*
X185502D02*
X202774D01*
X219284D02*
X236556D01*
X252304D02*
X364318D01*
X-680Y346068D02*
X78060D01*
X95586D02*
X168738D01*
X185248D02*
X202520D01*
X219030D02*
X236302D01*
X252304D02*
X364318D01*
X-680Y345814D02*
X78060D01*
X95586D02*
X168484D01*
X184994D02*
X202266D01*
X218776D02*
X236048D01*
X252050D02*
X364318D01*
X-680Y345560D02*
X78060D01*
X95586D02*
X168230D01*
X184740D02*
X202012D01*
X218522D02*
X235794D01*
X252050D02*
X364318D01*
X-680Y345306D02*
X78060D01*
X95586D02*
X167976D01*
X184486D02*
X201758D01*
X218268D02*
X235540D01*
X251796D02*
X364318D01*
X-680Y345052D02*
X77806D01*
X95332D02*
X167722D01*
X184232D02*
X201504D01*
X218014D02*
X235286D01*
X251796D02*
X364318D01*
X-680Y344798D02*
X77806D01*
X95332D02*
X167468D01*
X183978D02*
X201250D01*
X217760D02*
X235032D01*
X251542D02*
X364318D01*
X-680Y344544D02*
X77806D01*
X95332D02*
X167214D01*
X183724D02*
X200996D01*
X217506D02*
X234778D01*
X251288D02*
X364318D01*
X-680Y344290D02*
X77806D01*
X95332D02*
X166960D01*
X183470D02*
X200742D01*
X217252D02*
X234524D01*
X251034D02*
X364318D01*
X-680Y344036D02*
X77552D01*
X95332D02*
X166706D01*
X183216D02*
X200488D01*
X216998D02*
X234270D01*
X250780D02*
X364318D01*
X-680Y343782D02*
X77552D01*
X95078D02*
X166452D01*
X182962D02*
X200234D01*
X216744D02*
X234016D01*
X250526D02*
X364318D01*
X-680Y343528D02*
X77552D01*
X95078D02*
X166198D01*
X182708D02*
X199980D01*
X216490D02*
X233762D01*
X250272D02*
X364318D01*
X-680Y343274D02*
X77552D01*
X95078D02*
X165944D01*
X182454D02*
X199726D01*
X216236D02*
X233508D01*
X250018D02*
X364318D01*
X-680Y343020D02*
X77552D01*
X95078D02*
X165690D01*
X182200D02*
X199472D01*
X215982D02*
X233254D01*
X249764D02*
X364318D01*
X-680Y342766D02*
X77298D01*
X94824D02*
X165436D01*
X181946D02*
X199218D01*
X215728D02*
X233000D01*
X249510D02*
X364318D01*
X-680Y342512D02*
X77298D01*
X94824D02*
X165182D01*
X181692D02*
X198964D01*
X215474D02*
X232746D01*
X249256D02*
X364318D01*
X-680Y342258D02*
X77298D01*
X94824D02*
X164928D01*
X181438D02*
X198710D01*
X215220D02*
X232492D01*
X249002D02*
X364318D01*
X-680Y342004D02*
X77298D01*
X94824D02*
X164674D01*
X181184D02*
X198456D01*
X214966D02*
X232238D01*
X248748D02*
X364318D01*
X-680Y341750D02*
X77298D01*
X94570D02*
X164420D01*
X180930D02*
X198202D01*
X214712D02*
X231984D01*
X248494D02*
X364318D01*
X-680Y341496D02*
X77044D01*
X94570D02*
X164166D01*
X180676D02*
X197948D01*
X214458D02*
X231730D01*
X248240D02*
X364318D01*
X-680Y341242D02*
X77044D01*
X94570D02*
X163912D01*
X180422D02*
X197694D01*
X214204D02*
X231476D01*
X247986D02*
X364318D01*
X-680Y340988D02*
X77044D01*
X94570D02*
X163658D01*
X180168D02*
X197440D01*
X213950D02*
X231222D01*
X247732D02*
X364318D01*
X-680Y340734D02*
X77044D01*
X94570D02*
X163404D01*
X179914D02*
X197186D01*
X213696D02*
X230968D01*
X247478D02*
X364318D01*
X-680Y340480D02*
X77044D01*
X94316D02*
X163150D01*
X179660D02*
X196932D01*
X213442D02*
X230714D01*
X247224D02*
X364318D01*
X-680Y340226D02*
X77044D01*
X94316D02*
X162896D01*
X179406D02*
X196678D01*
X213188D02*
X230460D01*
X246970D02*
X364318D01*
X-680Y339972D02*
X76790D01*
X94316D02*
X162642D01*
X179152D02*
X196424D01*
X212934D02*
X230206D01*
X246716D02*
X364318D01*
X-680Y339718D02*
X76790D01*
X94316D02*
X162388D01*
X178898D02*
X196170D01*
X212680D02*
X229952D01*
X246462D02*
X364318D01*
X-680Y339464D02*
X76790D01*
X94316D02*
X162388D01*
X178644D02*
X195916D01*
X212426D02*
X229698D01*
X246208D02*
X364318D01*
X-680Y339210D02*
X76790D01*
X94062D02*
X162134D01*
X178390D02*
X195662D01*
X212172D02*
X229444D01*
X245954D02*
X364318D01*
X-680Y338956D02*
X76790D01*
X94062D02*
X161880D01*
X178136D02*
X195408D01*
X211918D02*
X229190D01*
X245700D02*
X364318D01*
X-680Y338702D02*
X76536D01*
X94062D02*
X161626D01*
X177882D02*
X195154D01*
X211664D02*
X228936D01*
X245446D02*
X364318D01*
X-680Y338448D02*
X76536D01*
X94062D02*
X161626D01*
X177628D02*
X194900D01*
X211410D02*
X228682D01*
X245192D02*
X364318D01*
X-680Y338194D02*
X76536D01*
X94062D02*
X161372D01*
X177374D02*
X194646D01*
X211156D02*
X228428D01*
X244938D02*
X364318D01*
X-680Y337940D02*
X76536D01*
X93808D02*
X161372D01*
X177120D02*
X194392D01*
X210902D02*
X228174D01*
X244684D02*
X364318D01*
X-680Y337686D02*
X76536D01*
X93808D02*
X161118D01*
X176866D02*
X194138D01*
X210648D02*
X227920D01*
X244430D02*
X364318D01*
X-680Y337432D02*
X76536D01*
X93808D02*
X161118D01*
X176612D02*
X193884D01*
X210394D02*
X227666D01*
X244176D02*
X364318D01*
X-680Y337178D02*
X76282D01*
X93808D02*
X161118D01*
X176358D02*
X193630D01*
X210140D02*
X227412D01*
X243922D02*
X364318D01*
X-680Y336924D02*
X76282D01*
X93808D02*
X161118D01*
X176104D02*
X193376D01*
X209886D02*
X227158D01*
X243668D02*
X364318D01*
X-680Y336670D02*
X76282D01*
X93554D02*
X160864D01*
X175850D02*
X193122D01*
X209632D02*
X226904D01*
X243414D02*
X364318D01*
X-680Y336416D02*
X76282D01*
X93554D02*
X160864D01*
X175596D02*
X192868D01*
X209378D02*
X226650D01*
X243160D02*
X364318D01*
X-680Y336162D02*
X76282D01*
X93554D02*
X160864D01*
X175342D02*
X192614D01*
X209124D02*
X226396D01*
X242906D02*
X364318D01*
X-680Y335908D02*
X76282D01*
X93554D02*
X160864D01*
X175088D02*
X192360D01*
X208870D02*
X226142D01*
X242652D02*
X364318D01*
X-680Y335654D02*
X76028D01*
X93554D02*
X160864D01*
X174834D02*
X192106D01*
X208616D02*
X225888D01*
X242398D02*
X364318D01*
X-680Y335400D02*
X76028D01*
X93300D02*
X160864D01*
X174580D02*
X191852D01*
X208362D02*
X225634D01*
X242144D02*
X364318D01*
X-680Y335146D02*
X76028D01*
X93300D02*
X160864D01*
X174326D02*
X191598D01*
X208108D02*
X225380D01*
X241890D02*
X311486D01*
X313010D02*
X364318D01*
X-680Y334892D02*
X76028D01*
X93300D02*
X160864D01*
X174072D02*
X191344D01*
X207854D02*
X225126D01*
X241636D02*
X310470D01*
X314280D02*
X364318D01*
X-680Y334638D02*
X76028D01*
X93300D02*
X160864D01*
X173818D02*
X191090D01*
X207600D02*
X224872D01*
X241382D02*
X309962D01*
X314788D02*
X364318D01*
X-680Y334384D02*
X76028D01*
X93300D02*
X161118D01*
X173564D02*
X190836D01*
X207346D02*
X224618D01*
X241128D02*
X309454D01*
X315296D02*
X364318D01*
X-680Y334130D02*
X75774D01*
X93300D02*
X161118D01*
X173310D02*
X190582D01*
X207092D02*
X224364D01*
X240874D02*
X308946D01*
X315804D02*
X364318D01*
X-680Y333876D02*
X75774D01*
X93046D02*
X161118D01*
X173056D02*
X190328D01*
X206838D02*
X224110D01*
X240620D02*
X308692D01*
X316058D02*
X364318D01*
X-680Y333622D02*
X75774D01*
X93046D02*
X161372D01*
X172802D02*
X190074D01*
X206584D02*
X223856D01*
X240366D02*
X308438D01*
X316312D02*
X364318D01*
X-680Y333368D02*
X75774D01*
X93046D02*
X161372D01*
X172548D02*
X189820D01*
X206330D02*
X223602D01*
X240112D02*
X308184D01*
X316566D02*
X364318D01*
X-680Y333114D02*
X75774D01*
X93046D02*
X161372D01*
X172294D02*
X189566D01*
X206076D02*
X223348D01*
X239858D02*
X307930D01*
X316820D02*
X364318D01*
X-680Y332860D02*
X75774D01*
X93046D02*
X161626D01*
X172040D02*
X189312D01*
X205822D02*
X223094D01*
X239604D02*
X307676D01*
X317074D02*
X364318D01*
X-680Y332606D02*
X75774D01*
X93046D02*
X161880D01*
X171786D02*
X189058D01*
X205568D02*
X222840D01*
X239350D02*
X307422D01*
X317074D02*
X364318D01*
X-680Y332352D02*
X75774D01*
X92792D02*
X161880D01*
X171532D02*
X188804D01*
X205314D02*
X222586D01*
X239096D02*
X307168D01*
X317328D02*
X364318D01*
X-680Y332098D02*
X75520D01*
X92792D02*
X162134D01*
X171278D02*
X188550D01*
X205060D02*
X222332D01*
X238842D02*
X306914D01*
X317582D02*
X364318D01*
X-680Y331844D02*
X75520D01*
X92792D02*
X162388D01*
X171024D02*
X188296D01*
X204806D02*
X222078D01*
X238588D02*
X306660D01*
X317582D02*
X364318D01*
X-680Y331590D02*
X75520D01*
X92792D02*
X162642D01*
X170770D02*
X188042D01*
X204552D02*
X221824D01*
X238334D02*
X306406D01*
X317836D02*
X364318D01*
X-680Y331336D02*
X75520D01*
X92792D02*
X162896D01*
X170516D02*
X187788D01*
X204298D02*
X221570D01*
X238080D02*
X306152D01*
X317836D02*
X364318D01*
X-680Y331082D02*
X75520D01*
X92792D02*
X163150D01*
X170262D02*
X187534D01*
X204044D02*
X221316D01*
X237826D02*
X305898D01*
X317836D02*
X364318D01*
X-680Y330828D02*
X75520D01*
X92792D02*
X163404D01*
X170008D02*
X187280D01*
X203790D02*
X221062D01*
X237572D02*
X305644D01*
X318090D02*
X364318D01*
X-680Y330574D02*
X75520D01*
X92538D02*
X163912D01*
X169500D02*
X187026D01*
X203536D02*
X220808D01*
X237318D02*
X305390D01*
X318090D02*
X364318D01*
X-680Y330320D02*
X75266D01*
X92538D02*
X164420D01*
X168992D02*
X186772D01*
X203282D02*
X220554D01*
X237064D02*
X305136D01*
X318090D02*
X364318D01*
X-680Y330066D02*
X75266D01*
X92538D02*
X165182D01*
X168230D02*
X186518D01*
X203028D02*
X220300D01*
X236810D02*
X304882D01*
X318090D02*
X364318D01*
X-680Y329812D02*
X75266D01*
X92538D02*
X186264D01*
X202774D02*
X220046D01*
X236556D02*
X304628D01*
X318090D02*
X364318D01*
X-680Y329558D02*
X75266D01*
X92538D02*
X186010D01*
X202520D02*
X219792D01*
X236302D02*
X304374D01*
X318090D02*
X364318D01*
X-680Y329304D02*
X75266D01*
X92538D02*
X185756D01*
X202266D02*
X219538D01*
X236048D02*
X304120D01*
X318090D02*
X364318D01*
X-680Y329050D02*
X75266D01*
X92538D02*
X185502D01*
X202012D02*
X219284D01*
X235794D02*
X303866D01*
X318090D02*
X364318D01*
X-680Y328796D02*
X75266D01*
X92538D02*
X185248D01*
X201758D02*
X219030D01*
X235540D02*
X271354D01*
X273132D02*
X303612D01*
X318090D02*
X364318D01*
X-680Y328542D02*
X75266D01*
X92284D02*
X184994D01*
X201504D02*
X218776D01*
X235286D02*
X270338D01*
X274148D02*
X303358D01*
X318090D02*
X364318D01*
X-680Y328288D02*
X75266D01*
X92284D02*
X184740D01*
X201250D02*
X218522D01*
X235032D02*
X269830D01*
X274656D02*
X303104D01*
X318090D02*
X364318D01*
X-680Y328034D02*
X75012D01*
X92284D02*
X184486D01*
X200996D02*
X218268D01*
X234778D02*
X269322D01*
X275164D02*
X302850D01*
X318090D02*
X364318D01*
X-680Y327780D02*
X75012D01*
X92284D02*
X184232D01*
X200742D02*
X218014D01*
X234524D02*
X268814D01*
X275672D02*
X302596D01*
X318090D02*
X364318D01*
X-680Y327526D02*
X75012D01*
X92284D02*
X183978D01*
X200488D02*
X217760D01*
X234270D02*
X268560D01*
X275926D02*
X302342D01*
X317836D02*
X364318D01*
X-680Y327272D02*
X75012D01*
X92284D02*
X183724D01*
X200234D02*
X217506D01*
X234016D02*
X268306D01*
X276180D02*
X302088D01*
X317836D02*
X364318D01*
X-680Y327018D02*
X75012D01*
X92284D02*
X183470D01*
X199980D02*
X217252D01*
X233762D02*
X268052D01*
X276434D02*
X301834D01*
X317582D02*
X364318D01*
X-680Y326764D02*
X75012D01*
X92284D02*
X183216D01*
X199726D02*
X216998D01*
X233508D02*
X267798D01*
X276688D02*
X301580D01*
X317582D02*
X364318D01*
X-680Y326510D02*
X75012D01*
X92030D02*
X182962D01*
X199472D02*
X216744D01*
X233254D02*
X267544D01*
X276942D02*
X301326D01*
X317328D02*
X364318D01*
X-680Y326256D02*
X75012D01*
X92030D02*
X182708D01*
X199218D02*
X216490D01*
X233000D02*
X267290D01*
X277196D02*
X301072D01*
X317328D02*
X364318D01*
X-680Y326002D02*
X75012D01*
X92030D02*
X182454D01*
X198964D02*
X216236D01*
X232746D02*
X243414D01*
X244938D02*
X267036D01*
X277196D02*
X300818D01*
X317074D02*
X364318D01*
X-680Y325748D02*
X74758D01*
X92030D02*
X182200D01*
X198710D02*
X215982D01*
X232492D02*
X242398D01*
X245954D02*
X266782D01*
X277450D02*
X300564D01*
X316820D02*
X364318D01*
X-680Y325494D02*
X74758D01*
X92030D02*
X181946D01*
X198456D02*
X215728D01*
X232238D02*
X241636D01*
X246462D02*
X266528D01*
X277450D02*
X300310D01*
X316820D02*
X364318D01*
X-680Y325240D02*
X74758D01*
X92030D02*
X181692D01*
X198202D02*
X215474D01*
X231984D02*
X241128D01*
X246970D02*
X266274D01*
X277704D02*
X300056D01*
X316566D02*
X364318D01*
X-680Y324986D02*
X74758D01*
X92030D02*
X181438D01*
X197948D02*
X215220D01*
X231730D02*
X240874D01*
X247478D02*
X266020D01*
X277704D02*
X299802D01*
X316312D02*
X364318D01*
X-680Y324732D02*
X74758D01*
X92030D02*
X181184D01*
X197694D02*
X214966D01*
X231476D02*
X240366D01*
X247732D02*
X265766D01*
X277704D02*
X299548D01*
X316058D02*
X364318D01*
X-680Y324478D02*
X74758D01*
X92030D02*
X180930D01*
X197440D02*
X214712D01*
X231222D02*
X240112D01*
X247986D02*
X265512D01*
X277958D02*
X299294D01*
X315804D02*
X364318D01*
X-680Y324224D02*
X74758D01*
X92030D02*
X180676D01*
X197186D02*
X214458D01*
X230968D02*
X239858D01*
X248240D02*
X265258D01*
X277958D02*
X299040D01*
X315550D02*
X364318D01*
X-680Y323970D02*
X74758D01*
X91776D02*
X180422D01*
X196932D02*
X214204D01*
X230714D02*
X239604D01*
X248494D02*
X265004D01*
X277958D02*
X298786D01*
X315296D02*
X364318D01*
X-680Y323716D02*
X74758D01*
X91776D02*
X180168D01*
X196678D02*
X213950D01*
X230460D02*
X239350D01*
X248748D02*
X264750D01*
X277958D02*
X298532D01*
X315042D02*
X364318D01*
X-680Y323462D02*
X74758D01*
X91776D02*
X179914D01*
X196424D02*
X213696D01*
X230206D02*
X239096D01*
X249002D02*
X264496D01*
X277958D02*
X298278D01*
X314788D02*
X364318D01*
X-680Y323208D02*
X74758D01*
X91776D02*
X179660D01*
X196170D02*
X213442D01*
X229952D02*
X238842D01*
X249002D02*
X264242D01*
X277958D02*
X298024D01*
X314534D02*
X364318D01*
X-680Y322954D02*
X74758D01*
X91776D02*
X179406D01*
X195916D02*
X213188D01*
X229698D02*
X238588D01*
X249256D02*
X263988D01*
X278212D02*
X297770D01*
X314280D02*
X364318D01*
X-680Y322700D02*
X74504D01*
X91776D02*
X179152D01*
X195662D02*
X212934D01*
X229444D02*
X238334D01*
X249256D02*
X263734D01*
X277958D02*
X297516D01*
X314026D02*
X364318D01*
X-680Y322446D02*
X74504D01*
X91776D02*
X178898D01*
X195408D02*
X212680D01*
X229190D02*
X238080D01*
X249510D02*
X263480D01*
X277958D02*
X297262D01*
X313772D02*
X364318D01*
X-680Y322192D02*
X74504D01*
X91776D02*
X178644D01*
X195154D02*
X212426D01*
X228936D02*
X237826D01*
X249510D02*
X263226D01*
X277958D02*
X297008D01*
X313518D02*
X364318D01*
X-680Y321938D02*
X74504D01*
X91776D02*
X178390D01*
X194900D02*
X212172D01*
X228682D02*
X237572D01*
X249764D02*
X262972D01*
X277958D02*
X296754D01*
X313264D02*
X364318D01*
X-680Y321684D02*
X74504D01*
X91776D02*
X178136D01*
X194646D02*
X211918D01*
X228428D02*
X237318D01*
X249764D02*
X262718D01*
X277958D02*
X296500D01*
X313010D02*
X364318D01*
X-680Y321430D02*
X74504D01*
X91776D02*
X177882D01*
X194392D02*
X211664D01*
X228174D02*
X237064D01*
X249764D02*
X262464D01*
X277958D02*
X296246D01*
X312756D02*
X364318D01*
X-680Y321176D02*
X74504D01*
X91522D02*
X177628D01*
X194138D02*
X211410D01*
X227920D02*
X236810D01*
X249764D02*
X262210D01*
X277704D02*
X295992D01*
X312502D02*
X364318D01*
X-680Y320922D02*
X74504D01*
X91522D02*
X177374D01*
X193884D02*
X211156D01*
X227666D02*
X236556D01*
X250018D02*
X261956D01*
X277704D02*
X295738D01*
X312248D02*
X364318D01*
X-680Y320668D02*
X74504D01*
X91522D02*
X177120D01*
X193630D02*
X210902D01*
X227412D02*
X236302D01*
X250018D02*
X261702D01*
X277704D02*
X295484D01*
X311994D02*
X364318D01*
X-680Y320414D02*
X74504D01*
X91522D02*
X176866D01*
X193376D02*
X210648D01*
X227158D02*
X236048D01*
X250018D02*
X261448D01*
X277450D02*
X295230D01*
X311740D02*
X364318D01*
X-680Y320160D02*
X74504D01*
X91522D02*
X176612D01*
X193122D02*
X210394D01*
X226904D02*
X235794D01*
X250018D02*
X261194D01*
X277450D02*
X294976D01*
X311486D02*
X364318D01*
X-680Y319906D02*
X74504D01*
X91522D02*
X176358D01*
X192868D02*
X210140D01*
X226650D02*
X235540D01*
X250018D02*
X260940D01*
X277196D02*
X294722D01*
X311232D02*
X364318D01*
X-680Y319652D02*
X74504D01*
X91522D02*
X176104D01*
X192614D02*
X209886D01*
X226396D02*
X235286D01*
X250018D02*
X260686D01*
X276942D02*
X294468D01*
X310978D02*
X364318D01*
X-680Y319398D02*
X74504D01*
X91522D02*
X175850D01*
X192360D02*
X209632D01*
X226142D02*
X235032D01*
X249764D02*
X260432D01*
X276688D02*
X294214D01*
X310724D02*
X364318D01*
X-680Y319144D02*
X74504D01*
X91522D02*
X175596D01*
X192106D02*
X209378D01*
X225888D02*
X234778D01*
X249764D02*
X260178D01*
X276688D02*
X293960D01*
X310470D02*
X364318D01*
X-680Y318890D02*
X74250D01*
X91522D02*
X175342D01*
X191852D02*
X209124D01*
X225634D02*
X234524D01*
X249764D02*
X259924D01*
X276434D02*
X293706D01*
X310216D02*
X364318D01*
X-680Y318636D02*
X74250D01*
X91522D02*
X175088D01*
X191598D02*
X208870D01*
X225380D02*
X234270D01*
X249764D02*
X259670D01*
X276180D02*
X293452D01*
X309962D02*
X364318D01*
X-680Y318382D02*
X74250D01*
X91522D02*
X174834D01*
X191344D02*
X208616D01*
X225126D02*
X234016D01*
X249764D02*
X259416D01*
X275926D02*
X293198D01*
X309708D02*
X364318D01*
X-680Y318128D02*
X74250D01*
X91522D02*
X174580D01*
X191090D02*
X208362D01*
X224872D02*
X233762D01*
X249510D02*
X259162D01*
X275672D02*
X292944D01*
X309454D02*
X364318D01*
X-680Y317874D02*
X74250D01*
X91522D02*
X174326D01*
X190836D02*
X208108D01*
X224618D02*
X233508D01*
X249510D02*
X258908D01*
X275418D02*
X292690D01*
X309200D02*
X364318D01*
X-680Y317620D02*
X74250D01*
X91522D02*
X174072D01*
X190582D02*
X207854D01*
X224364D02*
X233254D01*
X249256D02*
X258654D01*
X275164D02*
X292436D01*
X308946D02*
X364318D01*
X-680Y317366D02*
X74250D01*
X91522D02*
X173818D01*
X190328D02*
X207600D01*
X224110D02*
X233000D01*
X249256D02*
X258400D01*
X274910D02*
X292182D01*
X308692D02*
X364318D01*
X-680Y317112D02*
X74250D01*
X91522D02*
X173564D01*
X190074D02*
X207346D01*
X223856D02*
X232746D01*
X249002D02*
X258146D01*
X274656D02*
X291928D01*
X308438D02*
X364318D01*
X-680Y316858D02*
X74250D01*
X91268D02*
X173310D01*
X189820D02*
X207092D01*
X223602D02*
X232492D01*
X248748D02*
X257892D01*
X274402D02*
X291674D01*
X308184D02*
X364318D01*
X-680Y316604D02*
X74250D01*
X91268D02*
X173056D01*
X189566D02*
X206838D01*
X223348D02*
X232238D01*
X248748D02*
X257638D01*
X274148D02*
X291420D01*
X307930D02*
X364318D01*
X-680Y316350D02*
X74250D01*
X91268D02*
X172802D01*
X189312D02*
X206584D01*
X223094D02*
X231984D01*
X248494D02*
X257384D01*
X273894D02*
X291166D01*
X307676D02*
X364318D01*
X-680Y316096D02*
X74250D01*
X91268D02*
X172548D01*
X189058D02*
X206330D01*
X222840D02*
X231730D01*
X248240D02*
X257130D01*
X273640D02*
X290912D01*
X307422D02*
X364318D01*
X-680Y315842D02*
X74250D01*
X91268D02*
X172294D01*
X188804D02*
X206076D01*
X222586D02*
X231476D01*
X247986D02*
X256876D01*
X273386D02*
X290658D01*
X307168D02*
X364318D01*
X-680Y315588D02*
X74250D01*
X91268D02*
X172040D01*
X188550D02*
X205822D01*
X222332D02*
X231222D01*
X247732D02*
X256622D01*
X273132D02*
X290404D01*
X306914D02*
X364318D01*
X-680Y315334D02*
X74250D01*
X91268D02*
X171786D01*
X188296D02*
X205568D01*
X222078D02*
X230968D01*
X247478D02*
X256368D01*
X272878D02*
X290150D01*
X306660D02*
X364318D01*
X-680Y315080D02*
X74250D01*
X91268D02*
X171532D01*
X188042D02*
X205314D01*
X221824D02*
X230714D01*
X247224D02*
X256114D01*
X272624D02*
X289896D01*
X306406D02*
X364318D01*
X-680Y314826D02*
X74250D01*
X91268D02*
X171278D01*
X187788D02*
X205060D01*
X221570D02*
X230460D01*
X246970D02*
X255860D01*
X272370D02*
X289642D01*
X306152D02*
X364318D01*
X-680Y314572D02*
X74250D01*
X91268D02*
X171024D01*
X187534D02*
X204806D01*
X221316D02*
X230206D01*
X246716D02*
X255606D01*
X272116D02*
X289388D01*
X305898D02*
X364318D01*
X-680Y314318D02*
X74250D01*
X91268D02*
X170770D01*
X187280D02*
X204552D01*
X221062D02*
X229952D01*
X246462D02*
X255352D01*
X271862D02*
X289134D01*
X305644D02*
X364318D01*
X-680Y314064D02*
X74250D01*
X91268D02*
X170516D01*
X187026D02*
X204298D01*
X220808D02*
X229698D01*
X246208D02*
X255098D01*
X271608D02*
X288880D01*
X305390D02*
X364318D01*
X-680Y313810D02*
X74250D01*
X91268D02*
X170262D01*
X186772D02*
X204044D01*
X220554D02*
X229444D01*
X245954D02*
X254844D01*
X271354D02*
X288626D01*
X305136D02*
X364318D01*
X-680Y313556D02*
X74250D01*
X91268D02*
X170008D01*
X186518D02*
X203790D01*
X220300D02*
X229190D01*
X245700D02*
X254590D01*
X271100D02*
X288372D01*
X304882D02*
X364318D01*
X-680Y313302D02*
X74250D01*
X91268D02*
X169754D01*
X186264D02*
X203536D01*
X220046D02*
X228936D01*
X245446D02*
X254336D01*
X270846D02*
X288118D01*
X304628D02*
X364318D01*
X-680Y313048D02*
X74250D01*
X91268D02*
X169500D01*
X186010D02*
X203282D01*
X219792D02*
X228682D01*
X245192D02*
X254082D01*
X270592D02*
X287864D01*
X304374D02*
X364318D01*
X-680Y312794D02*
X74250D01*
X91268D02*
X169246D01*
X185756D02*
X203028D01*
X219538D02*
X228428D01*
X244938D02*
X253828D01*
X270338D02*
X287610D01*
X304120D02*
X364318D01*
X-680Y312540D02*
X74250D01*
X91268D02*
X168992D01*
X185502D02*
X202774D01*
X219284D02*
X228174D01*
X244684D02*
X253574D01*
X270084D02*
X287356D01*
X303866D02*
X364318D01*
X-680Y312286D02*
X74250D01*
X91268D02*
X168738D01*
X185248D02*
X202520D01*
X219030D02*
X227920D01*
X244430D02*
X253320D01*
X269830D02*
X287102D01*
X303612D02*
X364318D01*
X-680Y312032D02*
X74250D01*
X91268D02*
X168484D01*
X184994D02*
X202266D01*
X218776D02*
X227666D01*
X244176D02*
X253066D01*
X269576D02*
X286848D01*
X303358D02*
X364318D01*
X-680Y311778D02*
X74250D01*
X91268D02*
X168230D01*
X184740D02*
X202012D01*
X218522D02*
X227412D01*
X243922D02*
X252812D01*
X269322D02*
X286594D01*
X303104D02*
X364318D01*
X-680Y311524D02*
X74250D01*
X91268D02*
X167976D01*
X184486D02*
X201758D01*
X218268D02*
X227158D01*
X243668D02*
X252558D01*
X269068D02*
X286340D01*
X302850D02*
X364318D01*
X-680Y311270D02*
X74250D01*
X91268D02*
X167722D01*
X184232D02*
X201504D01*
X218014D02*
X226904D01*
X243414D02*
X252304D01*
X268814D02*
X286086D01*
X302596D02*
X364318D01*
X-680Y311016D02*
X74250D01*
X91268D02*
X167468D01*
X183978D02*
X201250D01*
X217760D02*
X226650D01*
X243160D02*
X252050D01*
X268560D02*
X285832D01*
X302342D02*
X364318D01*
X-680Y310762D02*
X74250D01*
X91268D02*
X167214D01*
X183724D02*
X200996D01*
X217506D02*
X226396D01*
X242906D02*
X251796D01*
X268306D02*
X285578D01*
X302088D02*
X364318D01*
X-680Y310508D02*
X74250D01*
X91268D02*
X166960D01*
X183470D02*
X200742D01*
X217252D02*
X226142D01*
X242652D02*
X251542D01*
X268052D02*
X285324D01*
X301834D02*
X364318D01*
X-680Y310254D02*
X74250D01*
X91268D02*
X166706D01*
X183216D02*
X200488D01*
X216998D02*
X225888D01*
X242398D02*
X251288D01*
X267798D02*
X285070D01*
X301580D02*
X364318D01*
X-680Y310000D02*
X74250D01*
X91268D02*
X166452D01*
X182962D02*
X200234D01*
X216744D02*
X225634D01*
X242144D02*
X251034D01*
X267544D02*
X284816D01*
X301326D02*
X364318D01*
X-680Y309746D02*
X74250D01*
X91268D02*
X166198D01*
X182708D02*
X199980D01*
X216490D02*
X225380D01*
X241890D02*
X250780D01*
X267290D02*
X284562D01*
X301072D02*
X364318D01*
X-680Y309492D02*
X74250D01*
X91268D02*
X165944D01*
X182454D02*
X199726D01*
X216236D02*
X225126D01*
X241636D02*
X250526D01*
X267036D02*
X284308D01*
X300818D02*
X364318D01*
X-680Y309238D02*
X74250D01*
X91268D02*
X165690D01*
X182200D02*
X199472D01*
X215982D02*
X224872D01*
X241382D02*
X250272D01*
X266782D02*
X284054D01*
X300564D02*
X364318D01*
X-680Y308984D02*
X74250D01*
X91268D02*
X165436D01*
X181946D02*
X199218D01*
X215728D02*
X224618D01*
X241128D02*
X250018D01*
X266528D02*
X283800D01*
X300310D02*
X364318D01*
X-680Y308730D02*
X74250D01*
X91268D02*
X165182D01*
X181692D02*
X198964D01*
X215474D02*
X224364D01*
X240874D02*
X249764D01*
X266274D02*
X283546D01*
X300056D02*
X364318D01*
X-680Y308476D02*
X74250D01*
X91268D02*
X164928D01*
X181438D02*
X198710D01*
X215220D02*
X224110D01*
X240620D02*
X249510D01*
X266020D02*
X283292D01*
X299802D02*
X364318D01*
X-680Y308222D02*
X74250D01*
X91268D02*
X164674D01*
X181184D02*
X198456D01*
X214966D02*
X223856D01*
X240366D02*
X249256D01*
X265766D02*
X283038D01*
X299548D02*
X364318D01*
X-680Y307968D02*
X74250D01*
X91268D02*
X164420D01*
X180930D02*
X198202D01*
X214712D02*
X223856D01*
X240112D02*
X249002D01*
X265512D02*
X282784D01*
X299294D02*
X364318D01*
X-680Y307714D02*
X74250D01*
X91268D02*
X164166D01*
X180676D02*
X197948D01*
X214458D02*
X223602D01*
X239858D02*
X248748D01*
X265258D02*
X282530D01*
X299040D02*
X364318D01*
X-680Y307460D02*
X74250D01*
X91268D02*
X163912D01*
X180422D02*
X197694D01*
X214204D02*
X223348D01*
X239604D02*
X248494D01*
X265004D02*
X282276D01*
X298786D02*
X364318D01*
X-680Y307206D02*
X74250D01*
X91268D02*
X163658D01*
X180168D02*
X197440D01*
X213950D02*
X223348D01*
X239350D02*
X248240D01*
X264750D02*
X282022D01*
X298532D02*
X364318D01*
X-680Y306952D02*
X74250D01*
X91268D02*
X163404D01*
X179914D02*
X197186D01*
X213696D02*
X223348D01*
X239096D02*
X247986D01*
X264496D02*
X281768D01*
X298278D02*
X364318D01*
X-680Y306698D02*
X74250D01*
X91268D02*
X163150D01*
X179660D02*
X196932D01*
X213442D02*
X223094D01*
X238842D02*
X247732D01*
X264242D02*
X281514D01*
X298024D02*
X364318D01*
X-680Y306444D02*
X74250D01*
X91268D02*
X162896D01*
X179406D02*
X196678D01*
X213188D02*
X223094D01*
X238588D02*
X247478D01*
X263988D02*
X281260D01*
X297770D02*
X364318D01*
X-680Y306190D02*
X74250D01*
X91268D02*
X162642D01*
X179152D02*
X196424D01*
X212934D02*
X223094D01*
X238334D02*
X247224D01*
X263734D02*
X281006D01*
X297516D02*
X364318D01*
X-680Y305936D02*
X74250D01*
X91268D02*
X162388D01*
X178898D02*
X196170D01*
X212680D02*
X222840D01*
X238080D02*
X246970D01*
X263480D02*
X280752D01*
X297262D02*
X364318D01*
X-680Y305682D02*
X74250D01*
X91268D02*
X162134D01*
X178644D02*
X195916D01*
X212426D02*
X222840D01*
X237826D02*
X246716D01*
X263226D02*
X280498D01*
X297008D02*
X364318D01*
X-680Y305428D02*
X74250D01*
X91268D02*
X161880D01*
X178390D02*
X195916D01*
X212172D02*
X222840D01*
X237572D02*
X246462D01*
X262972D02*
X280244D01*
X296754D02*
X364318D01*
X-680Y305174D02*
X74250D01*
X91268D02*
X161626D01*
X178136D02*
X195662D01*
X211918D02*
X222840D01*
X237318D02*
X246208D01*
X262718D02*
X279990D01*
X296500D02*
X364318D01*
X-680Y304920D02*
X74250D01*
X91268D02*
X161372D01*
X177882D02*
X195408D01*
X211664D02*
X222840D01*
X237064D02*
X245954D01*
X262464D02*
X279736D01*
X296246D02*
X364318D01*
X-680Y304666D02*
X74250D01*
X91268D02*
X161118D01*
X177628D02*
X195408D01*
X211410D02*
X222840D01*
X236810D02*
X245700D01*
X262210D02*
X279482D01*
X295992D02*
X364318D01*
X-680Y304412D02*
X74250D01*
X91268D02*
X160864D01*
X177374D02*
X195154D01*
X211156D02*
X222840D01*
X236556D02*
X245446D01*
X261956D02*
X279228D01*
X295738D02*
X364318D01*
X-680Y304158D02*
X74250D01*
X91268D02*
X160610D01*
X177120D02*
X195154D01*
X210902D02*
X222840D01*
X236302D02*
X245192D01*
X261702D02*
X278974D01*
X295484D02*
X364318D01*
X-680Y303904D02*
X74250D01*
X91268D02*
X160356D01*
X176866D02*
X194900D01*
X210648D02*
X222840D01*
X236048D02*
X244938D01*
X261448D02*
X278720D01*
X295230D02*
X364318D01*
X-680Y303650D02*
X74250D01*
X91268D02*
X160102D01*
X176612D02*
X194900D01*
X210394D02*
X222840D01*
X235794D02*
X244684D01*
X261194D02*
X278466D01*
X294976D02*
X364318D01*
X-680Y303396D02*
X74250D01*
X91522D02*
X159848D01*
X176358D02*
X194900D01*
X210140D02*
X222840D01*
X235540D02*
X244430D01*
X260940D02*
X278212D01*
X294722D02*
X364318D01*
X-680Y303142D02*
X74250D01*
X91522D02*
X159594D01*
X176104D02*
X194646D01*
X209886D02*
X223094D01*
X235286D02*
X244176D01*
X260686D02*
X277958D01*
X294468D02*
X364318D01*
X-680Y302888D02*
X74250D01*
X91522D02*
X159340D01*
X175850D02*
X194646D01*
X209632D02*
X223094D01*
X235032D02*
X243922D01*
X260432D02*
X277704D01*
X294214D02*
X364318D01*
X-680Y302634D02*
X74250D01*
X91522D02*
X159086D01*
X175596D02*
X194646D01*
X209378D02*
X223094D01*
X234778D02*
X243668D01*
X260178D02*
X277450D01*
X293960D02*
X364318D01*
X-680Y302380D02*
X74250D01*
X91522D02*
X158832D01*
X175342D02*
X194646D01*
X209124D02*
X223348D01*
X234524D02*
X243414D01*
X259924D02*
X277196D01*
X293706D02*
X364318D01*
X-680Y302126D02*
X74250D01*
X91522D02*
X158578D01*
X175088D02*
X194646D01*
X208870D02*
X223348D01*
X234270D02*
X243160D01*
X259670D02*
X276942D01*
X293452D02*
X364318D01*
X-680Y301872D02*
X74250D01*
X91522D02*
X158324D01*
X174834D02*
X194646D01*
X208616D02*
X223602D01*
X234016D02*
X242906D01*
X259416D02*
X276688D01*
X293198D02*
X364318D01*
X-680Y301618D02*
X74504D01*
X91522D02*
X158070D01*
X174580D02*
X194646D01*
X208362D02*
X223602D01*
X233762D02*
X242652D01*
X259162D02*
X276434D01*
X292944D02*
X364318D01*
X-680Y301364D02*
X74504D01*
X91522D02*
X157816D01*
X174326D02*
X194646D01*
X208108D02*
X223856D01*
X233508D02*
X242398D01*
X258908D02*
X276180D01*
X292690D02*
X364318D01*
X-680Y301110D02*
X74504D01*
X91522D02*
X157562D01*
X174072D02*
X194646D01*
X207854D02*
X224110D01*
X233254D02*
X242144D01*
X258654D02*
X275926D01*
X292436D02*
X364318D01*
X-680Y300856D02*
X74504D01*
X91522D02*
X157308D01*
X173818D02*
X194646D01*
X207600D02*
X224364D01*
X233000D02*
X241890D01*
X258400D02*
X275672D01*
X292182D02*
X364318D01*
X-680Y300602D02*
X74504D01*
X91522D02*
X157054D01*
X173564D02*
X194900D01*
X207346D02*
X224618D01*
X232746D02*
X241636D01*
X258146D02*
X275418D01*
X291928D02*
X364318D01*
X-680Y300348D02*
X74504D01*
X91522D02*
X156800D01*
X173310D02*
X194900D01*
X207092D02*
X224872D01*
X232492D02*
X241382D01*
X257892D02*
X275164D01*
X291674D02*
X364318D01*
X-680Y300094D02*
X74504D01*
X91522D02*
X156546D01*
X173056D02*
X194900D01*
X206838D02*
X225126D01*
X232238D02*
X241128D01*
X257638D02*
X274910D01*
X291420D02*
X364318D01*
X-680Y299840D02*
X74504D01*
X91522D02*
X156292D01*
X172802D02*
X194900D01*
X206584D02*
X225380D01*
X231730D02*
X240874D01*
X257384D02*
X274656D01*
X291166D02*
X364318D01*
X-680Y299586D02*
X74504D01*
X91522D02*
X156038D01*
X172548D02*
X195154D01*
X206330D02*
X225888D01*
X231476D02*
X240620D01*
X257130D02*
X274402D01*
X290912D02*
X364318D01*
X-680Y299332D02*
X74504D01*
X91776D02*
X156038D01*
X172294D02*
X195154D01*
X206076D02*
X226396D01*
X230968D02*
X240366D01*
X256876D02*
X274148D01*
X290658D02*
X364318D01*
X-680Y299078D02*
X74504D01*
X91776D02*
X155784D01*
X172040D02*
X195408D01*
X205822D02*
X227158D01*
X230206D02*
X240112D01*
X256622D02*
X273894D01*
X290404D02*
X364318D01*
X-680Y298824D02*
X74504D01*
X91776D02*
X155530D01*
X171786D02*
X195408D01*
X205568D02*
X239858D01*
X256368D02*
X273640D01*
X290150D02*
X364318D01*
X-680Y298570D02*
X74504D01*
X91776D02*
X155276D01*
X171532D02*
X195662D01*
X205314D02*
X239604D01*
X256114D02*
X273386D01*
X289896D02*
X364318D01*
X-680Y298316D02*
X74504D01*
X91776D02*
X155276D01*
X171278D02*
X195916D01*
X205060D02*
X239350D01*
X255860D02*
X273132D01*
X289642D02*
X364318D01*
X-680Y298062D02*
X74504D01*
X91776D02*
X155022D01*
X171024D02*
X196170D01*
X204806D02*
X239096D01*
X255606D02*
X272878D01*
X289388D02*
X364318D01*
X-680Y297808D02*
X74504D01*
X91776D02*
X155022D01*
X170770D02*
X196424D01*
X204552D02*
X238842D01*
X255352D02*
X272624D01*
X289134D02*
X364318D01*
X-680Y297554D02*
X74758D01*
X91776D02*
X154768D01*
X170516D02*
X196678D01*
X204298D02*
X238588D01*
X255098D02*
X272370D01*
X288880D02*
X364318D01*
X-680Y297300D02*
X74758D01*
X91776D02*
X154768D01*
X170262D02*
X196932D01*
X204044D02*
X238334D01*
X254844D02*
X272116D01*
X288626D02*
X364318D01*
X-680Y297046D02*
X74758D01*
X91776D02*
X154768D01*
X170008D02*
X197186D01*
X203790D02*
X238080D01*
X254590D02*
X271862D01*
X288372D02*
X364318D01*
X-680Y296792D02*
X74758D01*
X91776D02*
X154768D01*
X169754D02*
X197694D01*
X203282D02*
X237826D01*
X254336D02*
X271608D01*
X288118D02*
X364318D01*
X-680Y296538D02*
X74758D01*
X91776D02*
X154514D01*
X169500D02*
X198202D01*
X202774D02*
X237572D01*
X254082D02*
X271354D01*
X287864D02*
X364318D01*
X-680Y296284D02*
X74758D01*
X92030D02*
X154514D01*
X169246D02*
X198964D01*
X202012D02*
X237318D01*
X253828D02*
X271100D01*
X287610D02*
X364318D01*
X-680Y296030D02*
X74758D01*
X92030D02*
X154514D01*
X168992D02*
X237064D01*
X253574D02*
X270846D01*
X287356D02*
X364318D01*
X-680Y295776D02*
X74758D01*
X92030D02*
X154514D01*
X168738D02*
X236810D01*
X253320D02*
X270592D01*
X287102D02*
X364318D01*
X-680Y295522D02*
X74758D01*
X92030D02*
X154514D01*
X168484D02*
X236556D01*
X253066D02*
X270338D01*
X286848D02*
X364318D01*
X-680Y295268D02*
X74758D01*
X92030D02*
X154514D01*
X168230D02*
X236302D01*
X252812D02*
X270084D01*
X286594D02*
X364318D01*
X-680Y295014D02*
X74758D01*
X92030D02*
X154514D01*
X167976D02*
X236048D01*
X252558D02*
X269830D01*
X286340D02*
X305136D01*
X306914D02*
X364318D01*
X-680Y294760D02*
X75012D01*
X92030D02*
X154514D01*
X167722D02*
X235794D01*
X252304D02*
X269576D01*
X286086D02*
X304120D01*
X307930D02*
X364318D01*
X-680Y294506D02*
X75012D01*
X92030D02*
X154514D01*
X167468D02*
X235540D01*
X252050D02*
X269322D01*
X285832D02*
X303612D01*
X308438D02*
X364318D01*
X-680Y294252D02*
X75012D01*
X92030D02*
X154768D01*
X167214D02*
X235286D01*
X251796D02*
X269068D01*
X285578D02*
X303104D01*
X308946D02*
X364318D01*
X-680Y293998D02*
X75012D01*
X92284D02*
X154768D01*
X166960D02*
X235032D01*
X251542D02*
X268814D01*
X285324D02*
X302596D01*
X309454D02*
X364318D01*
X-680Y293744D02*
X75012D01*
X92284D02*
X154768D01*
X166706D02*
X234778D01*
X251288D02*
X268560D01*
X285070D02*
X302342D01*
X309708D02*
X364318D01*
X-680Y293490D02*
X75012D01*
X92284D02*
X155022D01*
X166452D02*
X234524D01*
X251034D02*
X268306D01*
X284816D02*
X302088D01*
X309962D02*
X364318D01*
X-680Y293236D02*
X75012D01*
X92284D02*
X155022D01*
X166198D02*
X234270D01*
X250780D02*
X268052D01*
X284562D02*
X301834D01*
X310216D02*
X364318D01*
X-680Y292982D02*
X75012D01*
X92284D02*
X155276D01*
X165944D02*
X234016D01*
X250526D02*
X267798D01*
X284308D02*
X301580D01*
X310470D02*
X364318D01*
X-680Y292728D02*
X75012D01*
X92284D02*
X155276D01*
X165690D02*
X233762D01*
X250272D02*
X267544D01*
X284054D02*
X301326D01*
X310724D02*
X364318D01*
X-680Y292474D02*
X75012D01*
X92284D02*
X155530D01*
X165436D02*
X233508D01*
X250018D02*
X267290D01*
X283800D02*
X301072D01*
X310978D02*
X364318D01*
X-680Y292220D02*
X75266D01*
X92284D02*
X155530D01*
X165182D02*
X233254D01*
X249764D02*
X267036D01*
X283546D02*
X300818D01*
X310978D02*
X364318D01*
X-680Y291966D02*
X75266D01*
X92284D02*
X155784D01*
X164928D02*
X233000D01*
X249510D02*
X266782D01*
X283292D02*
X300564D01*
X311232D02*
X364318D01*
X-680Y291712D02*
X75266D01*
X92538D02*
X156038D01*
X164674D02*
X232746D01*
X249256D02*
X266528D01*
X283038D02*
X300310D01*
X311232D02*
X364318D01*
X-680Y291458D02*
X75266D01*
X92538D02*
X156292D01*
X164420D02*
X232492D01*
X249002D02*
X266274D01*
X282784D02*
X300056D01*
X311486D02*
X364318D01*
X-680Y291204D02*
X75266D01*
X92538D02*
X156546D01*
X164166D02*
X232238D01*
X248748D02*
X266020D01*
X282530D02*
X299802D01*
X311486D02*
X364318D01*
X-680Y290950D02*
X75266D01*
X92538D02*
X156800D01*
X163912D02*
X231984D01*
X248494D02*
X265766D01*
X282276D02*
X299548D01*
X311486D02*
X364318D01*
X-680Y290696D02*
X75266D01*
X92538D02*
X157054D01*
X163658D02*
X231730D01*
X248240D02*
X265512D01*
X282022D02*
X299294D01*
X311740D02*
X364318D01*
X-680Y290442D02*
X75266D01*
X92538D02*
X157562D01*
X163150D02*
X231476D01*
X247986D02*
X265258D01*
X281768D02*
X299040D01*
X311740D02*
X364318D01*
X-680Y290188D02*
X75266D01*
X92538D02*
X158070D01*
X162642D02*
X231222D01*
X247732D02*
X265004D01*
X281514D02*
X298786D01*
X311740D02*
X364318D01*
X-680Y289934D02*
X75520D01*
X92792D02*
X158832D01*
X161880D02*
X230968D01*
X247478D02*
X264750D01*
X281260D02*
X298532D01*
X311740D02*
X364318D01*
X-680Y289680D02*
X75520D01*
X92792D02*
X230714D01*
X247224D02*
X264496D01*
X281006D02*
X298278D01*
X311740D02*
X364318D01*
X-680Y289426D02*
X75520D01*
X92792D02*
X230460D01*
X246970D02*
X264242D01*
X280752D02*
X298024D01*
X311740D02*
X364318D01*
X-680Y289172D02*
X75520D01*
X92792D02*
X230206D01*
X246716D02*
X263988D01*
X280498D02*
X297770D01*
X311740D02*
X364318D01*
X-680Y288918D02*
X75520D01*
X92792D02*
X229952D01*
X246462D02*
X263734D01*
X280244D02*
X297516D01*
X311740D02*
X364318D01*
X-680Y288664D02*
X75520D01*
X92792D02*
X229698D01*
X246208D02*
X263480D01*
X279990D02*
X297262D01*
X311740D02*
X364318D01*
X-680Y288410D02*
X75520D01*
X92792D02*
X229444D01*
X245954D02*
X263226D01*
X279736D02*
X297008D01*
X311740D02*
X364318D01*
X-680Y288156D02*
X75774D01*
X93046D02*
X229190D01*
X245700D02*
X262972D01*
X279482D02*
X296754D01*
X311740D02*
X364318D01*
X-680Y287902D02*
X75774D01*
X93046D02*
X228936D01*
X245446D02*
X262718D01*
X279228D02*
X296500D01*
X311740D02*
X364318D01*
X-680Y287648D02*
X75774D01*
X93046D02*
X228682D01*
X245192D02*
X262464D01*
X278974D02*
X296246D01*
X311740D02*
X364318D01*
X-680Y287394D02*
X75774D01*
X93046D02*
X228428D01*
X244938D02*
X262210D01*
X278720D02*
X295992D01*
X311486D02*
X364318D01*
X-680Y287140D02*
X75774D01*
X93046D02*
X228174D01*
X244684D02*
X261956D01*
X278466D02*
X295738D01*
X311486D02*
X364318D01*
X-680Y286886D02*
X75774D01*
X93046D02*
X227920D01*
X244430D02*
X261702D01*
X278212D02*
X295484D01*
X311232D02*
X364318D01*
X-680Y286632D02*
X75774D01*
X93300D02*
X227666D01*
X244176D02*
X261448D01*
X277958D02*
X295230D01*
X311232D02*
X364318D01*
X-680Y286378D02*
X76028D01*
X93300D02*
X227412D01*
X243922D02*
X261194D01*
X277704D02*
X294976D01*
X310978D02*
X364318D01*
X-680Y286124D02*
X76028D01*
X93300D02*
X227158D01*
X243668D02*
X260940D01*
X277450D02*
X294722D01*
X310978D02*
X364318D01*
X-680Y285870D02*
X76028D01*
X93300D02*
X226904D01*
X243414D02*
X260686D01*
X277196D02*
X294468D01*
X310724D02*
X364318D01*
X-680Y285616D02*
X76028D01*
X93300D02*
X226650D01*
X243160D02*
X260432D01*
X276942D02*
X294214D01*
X310470D02*
X364318D01*
X-680Y285362D02*
X76028D01*
X93300D02*
X226396D01*
X242906D02*
X260178D01*
X276688D02*
X293960D01*
X310470D02*
X364318D01*
X-680Y285108D02*
X76028D01*
X93554D02*
X226142D01*
X242652D02*
X259924D01*
X276434D02*
X293706D01*
X310216D02*
X364318D01*
X-680Y284854D02*
X76028D01*
X93554D02*
X225888D01*
X242398D02*
X259670D01*
X276180D02*
X293452D01*
X309962D02*
X364318D01*
X-680Y284600D02*
X76282D01*
X93554D02*
X225634D01*
X242144D02*
X259416D01*
X275926D02*
X293198D01*
X309708D02*
X364318D01*
X-680Y284346D02*
X76282D01*
X93554D02*
X225380D01*
X241890D02*
X259162D01*
X275672D02*
X292944D01*
X309454D02*
X364318D01*
X-680Y284092D02*
X76282D01*
X93554D02*
X225126D01*
X241636D02*
X258908D01*
X275418D02*
X292690D01*
X309200D02*
X364318D01*
X-680Y283838D02*
X76282D01*
X93554D02*
X224872D01*
X241382D02*
X258654D01*
X275164D02*
X292436D01*
X308946D02*
X364318D01*
X-680Y283584D02*
X76282D01*
X93808D02*
X224618D01*
X241128D02*
X258400D01*
X274910D02*
X292182D01*
X308692D02*
X364318D01*
X-680Y283330D02*
X76282D01*
X93808D02*
X224364D01*
X240874D02*
X258146D01*
X274656D02*
X291928D01*
X308438D02*
X364318D01*
X-680Y283076D02*
X76536D01*
X93808D02*
X224110D01*
X240620D02*
X257892D01*
X274402D02*
X291674D01*
X308184D02*
X364318D01*
X-680Y282822D02*
X76536D01*
X93808D02*
X223856D01*
X240366D02*
X257638D01*
X274148D02*
X291420D01*
X307930D02*
X364318D01*
X-680Y282568D02*
X76536D01*
X93808D02*
X223602D01*
X240112D02*
X257384D01*
X273894D02*
X291166D01*
X307676D02*
X364318D01*
X-680Y282314D02*
X76536D01*
X94062D02*
X223348D01*
X239858D02*
X257130D01*
X273640D02*
X290912D01*
X307422D02*
X364318D01*
X-680Y282060D02*
X76536D01*
X94062D02*
X223094D01*
X239604D02*
X256876D01*
X273386D02*
X290658D01*
X307168D02*
X364318D01*
X-680Y281806D02*
X76536D01*
X94062D02*
X222840D01*
X239350D02*
X256622D01*
X273132D02*
X290404D01*
X306914D02*
X364318D01*
X-680Y281552D02*
X76790D01*
X94062D02*
X222586D01*
X239096D02*
X256368D01*
X272878D02*
X290150D01*
X306660D02*
X364318D01*
X-680Y281298D02*
X76790D01*
X94062D02*
X222332D01*
X238842D02*
X256114D01*
X272624D02*
X289896D01*
X306406D02*
X364318D01*
X-680Y281044D02*
X76790D01*
X94316D02*
X222078D01*
X238588D02*
X255860D01*
X272370D02*
X289642D01*
X306152D02*
X364318D01*
X-680Y280790D02*
X76790D01*
X94316D02*
X221824D01*
X238334D02*
X255606D01*
X272116D02*
X289388D01*
X305898D02*
X364318D01*
X-680Y280536D02*
X76790D01*
X94316D02*
X221570D01*
X238080D02*
X255352D01*
X271862D02*
X289134D01*
X305644D02*
X364318D01*
X-680Y280282D02*
X77044D01*
X94316D02*
X221316D01*
X237826D02*
X255098D01*
X271608D02*
X288880D01*
X305390D02*
X364318D01*
X-680Y280028D02*
X77044D01*
X94316D02*
X221062D01*
X237572D02*
X254844D01*
X271354D02*
X288626D01*
X305136D02*
X364318D01*
X-680Y279774D02*
X77044D01*
X94570D02*
X220808D01*
X237318D02*
X254590D01*
X271100D02*
X288372D01*
X304882D02*
X364318D01*
X-680Y279520D02*
X77044D01*
X94570D02*
X220808D01*
X237064D02*
X254336D01*
X270846D02*
X288118D01*
X304628D02*
X364318D01*
X-680Y279266D02*
X77044D01*
X94570D02*
X220554D01*
X236810D02*
X254082D01*
X270592D02*
X287864D01*
X304374D02*
X364318D01*
X-680Y279012D02*
X77298D01*
X94570D02*
X220554D01*
X236556D02*
X253828D01*
X270338D02*
X287610D01*
X304120D02*
X364318D01*
X-680Y278758D02*
X77298D01*
X94824D02*
X220300D01*
X236302D02*
X253574D01*
X270084D02*
X287356D01*
X303866D02*
X364318D01*
X-680Y278504D02*
X77298D01*
X94824D02*
X220300D01*
X236048D02*
X253320D01*
X269830D02*
X287102D01*
X303612D02*
X364318D01*
X-680Y278250D02*
X77298D01*
X94824D02*
X220300D01*
X235794D02*
X253066D01*
X269576D02*
X286848D01*
X303358D02*
X364318D01*
X-680Y277996D02*
X77298D01*
X94824D02*
X220046D01*
X235540D02*
X252812D01*
X269322D02*
X286594D01*
X303104D02*
X364318D01*
X-680Y277742D02*
X77298D01*
X94824D02*
X220046D01*
X235286D02*
X252558D01*
X269068D02*
X286340D01*
X302850D02*
X364318D01*
X-680Y277488D02*
X77552D01*
X95078D02*
X220046D01*
X235032D02*
X252304D01*
X268814D02*
X286086D01*
X302596D02*
X364318D01*
X-680Y277234D02*
X77552D01*
X95078D02*
X220046D01*
X234778D02*
X252050D01*
X268560D02*
X285832D01*
X302342D02*
X364318D01*
X-680Y276980D02*
X77552D01*
X95078D02*
X220046D01*
X234524D02*
X251796D01*
X268306D02*
X285578D01*
X302088D02*
X364318D01*
X-680Y276726D02*
X77552D01*
X95078D02*
X220046D01*
X234270D02*
X251542D01*
X268052D02*
X285324D01*
X301834D02*
X364318D01*
X-680Y276472D02*
X77806D01*
X95332D02*
X220046D01*
X234016D02*
X251288D01*
X267798D02*
X285070D01*
X301580D02*
X364318D01*
X-680Y276218D02*
X77806D01*
X95332D02*
X220046D01*
X233762D02*
X251034D01*
X267544D02*
X284816D01*
X301326D02*
X364318D01*
X-680Y275964D02*
X77806D01*
X95332D02*
X220046D01*
X233508D02*
X250780D01*
X267290D02*
X284562D01*
X301072D02*
X364318D01*
X-680Y275710D02*
X77806D01*
X95332D02*
X220046D01*
X233254D02*
X250526D01*
X267036D02*
X284308D01*
X300818D02*
X364318D01*
X-680Y275456D02*
X77806D01*
X95586D02*
X220046D01*
X233000D02*
X250272D01*
X266782D02*
X284054D01*
X300564D02*
X364318D01*
X-680Y275202D02*
X78060D01*
X95586D02*
X220046D01*
X232746D02*
X250018D01*
X266528D02*
X283800D01*
X300310D02*
X364318D01*
X-680Y274948D02*
X78060D01*
X95586D02*
X220300D01*
X232492D02*
X249764D01*
X266274D02*
X283546D01*
X300056D02*
X364318D01*
X-680Y274694D02*
X78060D01*
X95586D02*
X220300D01*
X232238D02*
X249510D01*
X266020D02*
X283292D01*
X299802D02*
X364318D01*
X-680Y274440D02*
X78060D01*
X95840D02*
X220300D01*
X231984D02*
X249256D01*
X265766D02*
X283038D01*
X299548D02*
X364318D01*
X-680Y274186D02*
X78060D01*
X95840D02*
X220554D01*
X231730D02*
X249002D01*
X265512D02*
X282784D01*
X299294D02*
X364318D01*
X-680Y273932D02*
X78314D01*
X95840D02*
X220554D01*
X231476D02*
X248748D01*
X265258D02*
X282530D01*
X299040D02*
X364318D01*
X-680Y273678D02*
X78314D01*
X95840D02*
X220808D01*
X231222D02*
X248494D01*
X265004D02*
X282276D01*
X298786D02*
X364318D01*
X-680Y273424D02*
X78314D01*
X96094D02*
X220808D01*
X230968D02*
X248240D01*
X264750D02*
X282022D01*
X298532D02*
X364318D01*
X-680Y273170D02*
X78314D01*
X96094D02*
X221062D01*
X230714D02*
X247986D01*
X264496D02*
X281768D01*
X298278D02*
X364318D01*
X-680Y272916D02*
X78568D01*
X96094D02*
X221316D01*
X230460D02*
X247732D01*
X264242D02*
X281514D01*
X298024D02*
X364318D01*
X-680Y272662D02*
X78568D01*
X96094D02*
X221570D01*
X230206D02*
X247478D01*
X263988D02*
X281260D01*
X297770D02*
X364318D01*
X-680Y272408D02*
X78568D01*
X96348D02*
X221824D01*
X229952D02*
X247224D01*
X263734D02*
X281006D01*
X297516D02*
X364318D01*
X-680Y272154D02*
X78568D01*
X96348D02*
X222078D01*
X229698D02*
X246970D01*
X263480D02*
X280752D01*
X297262D02*
X364318D01*
X-680Y271900D02*
X78822D01*
X96348D02*
X222332D01*
X229190D02*
X246716D01*
X263226D02*
X280498D01*
X297008D02*
X364318D01*
X-680Y271646D02*
X78822D01*
X96348D02*
X222586D01*
X228936D02*
X246462D01*
X262972D02*
X280244D01*
X296754D02*
X364318D01*
X-680Y271392D02*
X78822D01*
X96602D02*
X223094D01*
X228428D02*
X246208D01*
X262718D02*
X279990D01*
X296500D02*
X364318D01*
X-680Y271138D02*
X78822D01*
X96602D02*
X223602D01*
X227920D02*
X245954D01*
X262464D02*
X279736D01*
X296246D02*
X364318D01*
X-680Y270884D02*
X79076D01*
X96602D02*
X224364D01*
X227158D02*
X245700D01*
X262210D02*
X279482D01*
X295992D02*
X364318D01*
X-680Y270630D02*
X79076D01*
X96856D02*
X245446D01*
X261956D02*
X279228D01*
X295738D02*
X364318D01*
X-680Y270376D02*
X79076D01*
X96856D02*
X245192D01*
X261702D02*
X278974D01*
X295484D02*
X364318D01*
X-680Y270122D02*
X79076D01*
X96856D02*
X244938D01*
X261448D02*
X278720D01*
X295230D02*
X364318D01*
X-680Y269868D02*
X79330D01*
X97110D02*
X244684D01*
X261194D02*
X278466D01*
X294976D02*
X364318D01*
X-680Y269614D02*
X79330D01*
X97110D02*
X244430D01*
X260940D02*
X278212D01*
X294722D02*
X364318D01*
X-680Y269360D02*
X79330D01*
X97110D02*
X244176D01*
X260686D02*
X277958D01*
X294468D02*
X364318D01*
X-680Y269106D02*
X79330D01*
X97110D02*
X243922D01*
X260432D02*
X277704D01*
X294214D02*
X364318D01*
X-680Y268852D02*
X79584D01*
X97364D02*
X243668D01*
X260178D02*
X277450D01*
X293960D02*
X364318D01*
X-680Y268598D02*
X79584D01*
X97364D02*
X243414D01*
X259924D02*
X277196D01*
X293706D02*
X364318D01*
X-680Y268344D02*
X79584D01*
X97364D02*
X243160D01*
X259670D02*
X276942D01*
X293452D02*
X364318D01*
X-680Y268090D02*
X79584D01*
X97618D02*
X242906D01*
X259416D02*
X276688D01*
X293198D02*
X364318D01*
X-680Y267836D02*
X79838D01*
X97618D02*
X242652D01*
X259162D02*
X276434D01*
X292944D02*
X364318D01*
X-680Y267582D02*
X79838D01*
X97618D02*
X242398D01*
X258908D02*
X276180D01*
X292690D02*
X364318D01*
X-680Y267328D02*
X79838D01*
X97618D02*
X242144D01*
X258654D02*
X275926D01*
X292436D02*
X364318D01*
X-680Y267074D02*
X79838D01*
X97872D02*
X241890D01*
X258400D02*
X275672D01*
X292182D02*
X364318D01*
X-680Y266820D02*
X80092D01*
X97872D02*
X241636D01*
X258146D02*
X275418D01*
X291928D02*
X364318D01*
X-680Y266566D02*
X80092D01*
X97872D02*
X241382D01*
X257892D02*
X275164D01*
X291674D02*
X364318D01*
X-680Y266312D02*
X80092D01*
X98126D02*
X241128D01*
X257638D02*
X274910D01*
X291420D02*
X364318D01*
X-680Y266058D02*
X80346D01*
X98126D02*
X240874D01*
X257384D02*
X274656D01*
X291166D02*
X364318D01*
X-680Y265804D02*
X80346D01*
X98126D02*
X240620D01*
X257130D02*
X274402D01*
X290912D02*
X364318D01*
X-680Y265550D02*
X80346D01*
X98380D02*
X240366D01*
X256876D02*
X274148D01*
X290658D02*
X364318D01*
X-680Y265296D02*
X80346D01*
X98380D02*
X240112D01*
X256622D02*
X273894D01*
X290404D02*
X364318D01*
X-680Y265042D02*
X80600D01*
X98380D02*
X239858D01*
X256368D02*
X273640D01*
X290150D02*
X364318D01*
X-680Y264788D02*
X80600D01*
X98634D02*
X239604D01*
X256114D02*
X273386D01*
X289896D02*
X364318D01*
X-680Y264534D02*
X80600D01*
X98634D02*
X239350D01*
X255860D02*
X273132D01*
X289642D02*
X364318D01*
X-680Y264280D02*
X80854D01*
X98634D02*
X239096D01*
X255606D02*
X272878D01*
X289388D02*
X364318D01*
X-680Y264026D02*
X80854D01*
X98888D02*
X238842D01*
X255352D02*
X272624D01*
X289134D02*
X364318D01*
X-680Y263772D02*
X80854D01*
X98888D02*
X238588D01*
X255098D02*
X272370D01*
X288880D02*
X364318D01*
X-680Y263518D02*
X81108D01*
X98888D02*
X238334D01*
X254844D02*
X272116D01*
X288626D02*
X364318D01*
X-680Y263264D02*
X81108D01*
X99142D02*
X238080D01*
X254590D02*
X271862D01*
X288372D02*
X364318D01*
X-680Y263010D02*
X81108D01*
X99142D02*
X237826D01*
X254336D02*
X271608D01*
X288118D02*
X364318D01*
X-680Y262756D02*
X81108D01*
X99142D02*
X237572D01*
X254082D02*
X271354D01*
X287864D02*
X364318D01*
X-680Y262502D02*
X81362D01*
X99396D02*
X237318D01*
X253828D02*
X271100D01*
X287610D02*
X305898D01*
X308946D02*
X364318D01*
X-680Y262248D02*
X81362D01*
X99396D02*
X237064D01*
X253574D02*
X270846D01*
X287356D02*
X305136D01*
X309708D02*
X364318D01*
X-680Y261994D02*
X81362D01*
X99396D02*
X236810D01*
X253320D02*
X270592D01*
X287102D02*
X304628D01*
X310216D02*
X364318D01*
X-680Y261740D02*
X81616D01*
X99650D02*
X236556D01*
X253066D02*
X270338D01*
X286848D02*
X304120D01*
X310724D02*
X364318D01*
X-680Y261486D02*
X81616D01*
X99650D02*
X236302D01*
X252812D02*
X270084D01*
X286594D02*
X303866D01*
X310978D02*
X364318D01*
X-680Y261232D02*
X81616D01*
X99650D02*
X236048D01*
X252558D02*
X269830D01*
X286340D02*
X303612D01*
X311232D02*
X364318D01*
X-680Y260978D02*
X81870D01*
X99904D02*
X235794D01*
X252304D02*
X269576D01*
X286086D02*
X303358D01*
X311486D02*
X364318D01*
X-680Y260724D02*
X81870D01*
X99904D02*
X235540D01*
X252050D02*
X269322D01*
X285832D02*
X303104D01*
X311740D02*
X364318D01*
X-680Y260470D02*
X81870D01*
X100158D02*
X235286D01*
X251796D02*
X269068D01*
X285578D02*
X302850D01*
X311994D02*
X364318D01*
X-680Y260216D02*
X82124D01*
X100158D02*
X235032D01*
X251542D02*
X268814D01*
X285324D02*
X302596D01*
X312248D02*
X364318D01*
X-680Y259962D02*
X82124D01*
X100158D02*
X234778D01*
X251288D02*
X268560D01*
X285070D02*
X302342D01*
X312248D02*
X364318D01*
X-680Y259708D02*
X82124D01*
X100412D02*
X234524D01*
X251034D02*
X268306D01*
X284816D02*
X302088D01*
X312502D02*
X364318D01*
X-680Y259454D02*
X82378D01*
X100412D02*
X234270D01*
X250780D02*
X268052D01*
X284562D02*
X301834D01*
X312756D02*
X364318D01*
X-680Y259200D02*
X82378D01*
X100412D02*
X234016D01*
X250526D02*
X267798D01*
X284308D02*
X301580D01*
X312756D02*
X364318D01*
X-680Y258946D02*
X82378D01*
X100666D02*
X233762D01*
X250272D02*
X267544D01*
X284054D02*
X301326D01*
X312756D02*
X364318D01*
X-680Y258692D02*
X82378D01*
X100666D02*
X233508D01*
X250018D02*
X267290D01*
X283800D02*
X301072D01*
X313010D02*
X364318D01*
X-680Y258438D02*
X82632D01*
X100920D02*
X233254D01*
X249764D02*
X267036D01*
X283546D02*
X300818D01*
X313010D02*
X364318D01*
X-680Y258184D02*
X82632D01*
X100920D02*
X233000D01*
X249510D02*
X266782D01*
X283292D02*
X300564D01*
X313010D02*
X364318D01*
X-680Y257930D02*
X82886D01*
X100920D02*
X232746D01*
X249256D02*
X266528D01*
X283038D02*
X300310D01*
X313264D02*
X364318D01*
X-680Y257676D02*
X82886D01*
X101174D02*
X232492D01*
X249002D02*
X266274D01*
X282784D02*
X300056D01*
X313264D02*
X364318D01*
X-680Y257422D02*
X82886D01*
X101174D02*
X232238D01*
X248748D02*
X266020D01*
X282530D02*
X299802D01*
X313264D02*
X364318D01*
X-680Y257168D02*
X83140D01*
X101428D02*
X231984D01*
X248494D02*
X265766D01*
X282276D02*
X299548D01*
X313264D02*
X364318D01*
X-680Y256914D02*
X83140D01*
X101428D02*
X231730D01*
X248240D02*
X265512D01*
X282022D02*
X299294D01*
X313264D02*
X364318D01*
X-680Y256660D02*
X83140D01*
X101428D02*
X231476D01*
X247986D02*
X265258D01*
X281768D02*
X299040D01*
X313264D02*
X364318D01*
X-680Y256406D02*
X83394D01*
X101682D02*
X231222D01*
X247732D02*
X265004D01*
X281514D02*
X298786D01*
X313264D02*
X364318D01*
X-680Y256152D02*
X83394D01*
X101682D02*
X230968D01*
X247478D02*
X264750D01*
X281260D02*
X298532D01*
X313264D02*
X364318D01*
X-680Y255898D02*
X83394D01*
X101936D02*
X230714D01*
X247224D02*
X264496D01*
X281006D02*
X298278D01*
X313264D02*
X364318D01*
X-680Y255644D02*
X83648D01*
X101936D02*
X230460D01*
X246970D02*
X264242D01*
X280752D02*
X298024D01*
X313010D02*
X364318D01*
X-680Y255390D02*
X83648D01*
X101936D02*
X230206D01*
X246716D02*
X263988D01*
X280498D02*
X297770D01*
X313010D02*
X364318D01*
X-680Y255136D02*
X83648D01*
X102190D02*
X229952D01*
X246462D02*
X263734D01*
X280244D02*
X297516D01*
X313010D02*
X364318D01*
X-680Y254882D02*
X83902D01*
X102190D02*
X229698D01*
X246208D02*
X263480D01*
X279990D02*
X297262D01*
X313010D02*
X364318D01*
X-680Y254628D02*
X83902D01*
X102444D02*
X229444D01*
X245954D02*
X263226D01*
X279736D02*
X297008D01*
X312756D02*
X364318D01*
X-680Y254374D02*
X83902D01*
X102444D02*
X229190D01*
X245700D02*
X262972D01*
X279482D02*
X296754D01*
X312756D02*
X364318D01*
X-680Y254120D02*
X84156D01*
X102444D02*
X228936D01*
X245446D02*
X262718D01*
X279228D02*
X296500D01*
X312502D02*
X364318D01*
X-680Y253866D02*
X84156D01*
X102698D02*
X228682D01*
X245192D02*
X262464D01*
X278974D02*
X296246D01*
X312502D02*
X364318D01*
X-680Y253612D02*
X84410D01*
X102698D02*
X228428D01*
X244938D02*
X262210D01*
X278720D02*
X295992D01*
X312248D02*
X364318D01*
X-680Y253358D02*
X84410D01*
X102952D02*
X228174D01*
X244684D02*
X261956D01*
X278466D02*
X295738D01*
X311994D02*
X364318D01*
X-680Y253104D02*
X84410D01*
X102952D02*
X227920D01*
X244430D02*
X261702D01*
X278212D02*
X295484D01*
X311740D02*
X364318D01*
X-680Y252850D02*
X84664D01*
X103206D02*
X227666D01*
X244176D02*
X261448D01*
X277958D02*
X295230D01*
X311740D02*
X364318D01*
X-680Y252596D02*
X84664D01*
X103206D02*
X227412D01*
X243922D02*
X261194D01*
X277704D02*
X294976D01*
X311486D02*
X364318D01*
X-680Y252342D02*
X84664D01*
X103206D02*
X227158D01*
X243668D02*
X260940D01*
X277450D02*
X294722D01*
X311232D02*
X364318D01*
X-680Y252088D02*
X84918D01*
X103460D02*
X226904D01*
X243414D02*
X260686D01*
X277196D02*
X294468D01*
X310978D02*
X364318D01*
X-680Y251834D02*
X84918D01*
X103460D02*
X226650D01*
X243160D02*
X260432D01*
X276942D02*
X294214D01*
X310724D02*
X364318D01*
X-680Y251580D02*
X84918D01*
X103714D02*
X226396D01*
X242906D02*
X260178D01*
X276688D02*
X293960D01*
X310470D02*
X364318D01*
X-680Y251326D02*
X85172D01*
X103714D02*
X226142D01*
X242652D02*
X259924D01*
X276434D02*
X293706D01*
X310216D02*
X364318D01*
X-680Y251072D02*
X85172D01*
X103968D02*
X225888D01*
X242398D02*
X259670D01*
X276180D02*
X293452D01*
X309962D02*
X364318D01*
X-680Y250818D02*
X85426D01*
X103968D02*
X225634D01*
X242144D02*
X259416D01*
X275926D02*
X293198D01*
X309708D02*
X364318D01*
X-680Y250564D02*
X85426D01*
X103968D02*
X225380D01*
X241890D02*
X259162D01*
X275672D02*
X292944D01*
X309454D02*
X364318D01*
X-680Y250310D02*
X85426D01*
X104222D02*
X225126D01*
X241636D02*
X258908D01*
X275418D02*
X292690D01*
X309200D02*
X364318D01*
X-680Y250056D02*
X85680D01*
X104222D02*
X224872D01*
X241382D02*
X258654D01*
X275164D02*
X292436D01*
X308946D02*
X364318D01*
X-680Y249802D02*
X85680D01*
X104476D02*
X224618D01*
X241128D02*
X258400D01*
X274910D02*
X292182D01*
X308692D02*
X364318D01*
X-680Y249548D02*
X85934D01*
X104476D02*
X224364D01*
X240874D02*
X258146D01*
X274656D02*
X291928D01*
X308438D02*
X364318D01*
X-680Y249294D02*
X85934D01*
X104730D02*
X224110D01*
X240620D02*
X257892D01*
X274402D02*
X291674D01*
X308184D02*
X364318D01*
X-680Y249040D02*
X85934D01*
X104730D02*
X223856D01*
X240366D02*
X257638D01*
X274148D02*
X291420D01*
X307930D02*
X364318D01*
X-680Y248786D02*
X86188D01*
X104984D02*
X223602D01*
X240112D02*
X257384D01*
X273894D02*
X291166D01*
X307676D02*
X364318D01*
X-680Y248532D02*
X86188D01*
X104984D02*
X223348D01*
X239858D02*
X257130D01*
X273640D02*
X290912D01*
X307422D02*
X364318D01*
X-680Y248278D02*
X86442D01*
X105238D02*
X223094D01*
X239604D02*
X256876D01*
X273386D02*
X290658D01*
X307168D02*
X364318D01*
X-680Y248024D02*
X86442D01*
X105238D02*
X222840D01*
X239350D02*
X256622D01*
X273132D02*
X290404D01*
X306914D02*
X364318D01*
X-680Y247770D02*
X86442D01*
X105492D02*
X222586D01*
X239096D02*
X256368D01*
X272878D02*
X290150D01*
X306660D02*
X364318D01*
X-680Y247516D02*
X86696D01*
X105492D02*
X222332D01*
X238842D02*
X256114D01*
X272624D02*
X289896D01*
X306406D02*
X364318D01*
X-680Y247262D02*
X86696D01*
X105746D02*
X222078D01*
X238588D02*
X255860D01*
X272370D02*
X289642D01*
X306152D02*
X364318D01*
X-680Y247008D02*
X86950D01*
X105746D02*
X221824D01*
X238334D02*
X255606D01*
X272116D02*
X289388D01*
X305898D02*
X364318D01*
X-680Y246754D02*
X86950D01*
X106000D02*
X221570D01*
X238080D02*
X255352D01*
X271862D02*
X289134D01*
X305644D02*
X364318D01*
X-680Y246500D02*
X87204D01*
X106000D02*
X221316D01*
X237826D02*
X255098D01*
X271608D02*
X288880D01*
X305390D02*
X364318D01*
X-680Y246246D02*
X87204D01*
X106000D02*
X221062D01*
X237572D02*
X254844D01*
X271354D02*
X288626D01*
X305136D02*
X364318D01*
X-680Y245992D02*
X87204D01*
X106254D02*
X220808D01*
X237318D02*
X254590D01*
X271100D02*
X288372D01*
X304882D02*
X364318D01*
X-680Y245738D02*
X87458D01*
X106254D02*
X220554D01*
X237064D02*
X254590D01*
X270846D02*
X288118D01*
X304628D02*
X364318D01*
X-680Y245484D02*
X87458D01*
X106508D02*
X220300D01*
X236810D02*
X254336D01*
X270592D02*
X287864D01*
X304374D02*
X364318D01*
X-680Y245230D02*
X87712D01*
X106508D02*
X220046D01*
X236556D02*
X254336D01*
X270338D02*
X287610D01*
X304120D02*
X364318D01*
X-680Y244976D02*
X87712D01*
X106762D02*
X219792D01*
X236302D02*
X254082D01*
X270084D02*
X287356D01*
X303866D02*
X364318D01*
X-680Y244722D02*
X87966D01*
X106762D02*
X219538D01*
X236048D02*
X254082D01*
X269830D02*
X287102D01*
X303612D02*
X364318D01*
X-680Y244468D02*
X87966D01*
X107016D02*
X219284D01*
X235794D02*
X254082D01*
X269576D02*
X287102D01*
X303358D02*
X364318D01*
X-680Y244214D02*
X87966D01*
X107016D02*
X219030D01*
X235540D02*
X253828D01*
X269322D02*
X286848D01*
X303104D02*
X364318D01*
X-680Y243960D02*
X88220D01*
X107270D02*
X218776D01*
X235286D02*
X253828D01*
X269068D02*
X286594D01*
X302850D02*
X364318D01*
X-680Y243706D02*
X88220D01*
X107524D02*
X218522D01*
X235032D02*
X253828D01*
X268814D02*
X286594D01*
X302596D02*
X364318D01*
X-680Y243452D02*
X88474D01*
X107524D02*
X218268D01*
X234778D02*
X253828D01*
X268560D02*
X286594D01*
X302342D02*
X364318D01*
X-680Y243198D02*
X88474D01*
X107778D02*
X218014D01*
X234524D02*
X253828D01*
X268306D02*
X286340D01*
X302088D02*
X364318D01*
X-680Y242944D02*
X88728D01*
X107778D02*
X217760D01*
X234270D02*
X253828D01*
X268052D02*
X286340D01*
X301834D02*
X364318D01*
X-680Y242690D02*
X88728D01*
X108032D02*
X217506D01*
X234016D02*
X253828D01*
X267798D02*
X286340D01*
X301580D02*
X364318D01*
X-680Y242436D02*
X88982D01*
X108032D02*
X217252D01*
X233762D02*
X253828D01*
X267544D02*
X286086D01*
X301326D02*
X364318D01*
X-680Y242182D02*
X88982D01*
X108286D02*
X216998D01*
X233508D02*
X253828D01*
X267290D02*
X286086D01*
X301072D02*
X364318D01*
X-680Y241928D02*
X89236D01*
X108286D02*
X216744D01*
X233254D02*
X253828D01*
X267036D02*
X286086D01*
X300818D02*
X364318D01*
X-680Y241674D02*
X89236D01*
X108540D02*
X216490D01*
X233000D02*
X253828D01*
X266782D02*
X286086D01*
X300564D02*
X364318D01*
X-680Y241420D02*
X89236D01*
X108540D02*
X216236D01*
X232746D02*
X253828D01*
X266528D02*
X286086D01*
X300310D02*
X364318D01*
X-680Y241166D02*
X89490D01*
X108794D02*
X215982D01*
X232492D02*
X254082D01*
X266274D02*
X286086D01*
X300056D02*
X364064D01*
X-680Y240912D02*
X89490D01*
X108794D02*
X215728D01*
X232238D02*
X254082D01*
X266020D02*
X286086D01*
X299802D02*
X364064D01*
X-680Y240658D02*
X89744D01*
X109048D02*
X215474D01*
X231984D02*
X254082D01*
X265766D02*
X286086D01*
X299548D02*
X363810D01*
X-680Y240404D02*
X89744D01*
X109048D02*
X215220D01*
X231730D02*
X254336D01*
X265512D02*
X286086D01*
X299294D02*
X363810D01*
X-680Y240150D02*
X89998D01*
X109302D02*
X214966D01*
X231476D02*
X254336D01*
X265258D02*
X286340D01*
X299040D02*
X363556D01*
X-680Y239896D02*
X89998D01*
X109556D02*
X214712D01*
X231222D02*
X254590D01*
X265004D02*
X286340D01*
X298786D02*
X363556D01*
X-680Y239642D02*
X90252D01*
X109556D02*
X214458D01*
X230968D02*
X254590D01*
X264750D02*
X286340D01*
X298532D02*
X363302D01*
X-680Y239388D02*
X90252D01*
X109810D02*
X214458D01*
X230714D02*
X254844D01*
X264496D02*
X286340D01*
X298278D02*
X363302D01*
X-680Y239134D02*
X90506D01*
X109810D02*
X214204D01*
X230460D02*
X255098D01*
X264242D02*
X286594D01*
X298024D02*
X363048D01*
X-680Y238880D02*
X90506D01*
X110064D02*
X214204D01*
X230206D02*
X255352D01*
X263988D02*
X286594D01*
X297770D02*
X363048D01*
X-680Y238626D02*
X90760D01*
X110064D02*
X213950D01*
X229952D02*
X255606D01*
X263734D02*
X286848D01*
X297516D02*
X362794D01*
X-680Y238372D02*
X90760D01*
X110318D02*
X213950D01*
X229698D02*
X255860D01*
X263480D02*
X286848D01*
X297262D02*
X362540D01*
X-680Y238118D02*
X91014D01*
X110318D02*
X213950D01*
X229444D02*
X256114D01*
X262972D02*
X287102D01*
X297008D02*
X362540D01*
X-680Y237864D02*
X91014D01*
X110572D02*
X213696D01*
X229190D02*
X256368D01*
X262718D02*
X287356D01*
X296754D02*
X362286D01*
X-680Y237610D02*
X91268D01*
X110826D02*
X213696D01*
X228936D02*
X256876D01*
X262210D02*
X287610D01*
X296500D02*
X362286D01*
X-680Y237356D02*
X91268D01*
X110826D02*
X213696D01*
X228682D02*
X257384D01*
X261702D02*
X287610D01*
X296246D02*
X362032D01*
X-680Y237102D02*
X91522D01*
X111080D02*
X213696D01*
X228428D02*
X258400D01*
X260940D02*
X288118D01*
X295992D02*
X361778D01*
X-680Y236848D02*
X91522D01*
X111080D02*
X213696D01*
X228174D02*
X288372D01*
X295484D02*
X361778D01*
X-680Y236594D02*
X91776D01*
X111334D02*
X213696D01*
X227920D02*
X288626D01*
X295230D02*
X361524D01*
X-680Y236340D02*
X91776D01*
X111588D02*
X213696D01*
X227666D02*
X289134D01*
X294722D02*
X361524D01*
X-680Y236086D02*
X92030D01*
X111588D02*
X213696D01*
X227412D02*
X289388D01*
X294468D02*
X361270D01*
X-680Y235832D02*
X92030D01*
X111842D02*
X213696D01*
X227158D02*
X290150D01*
X293706D02*
X361270D01*
X-680Y235578D02*
X92284D01*
X111842D02*
X213696D01*
X226904D02*
X291420D01*
X292690D02*
X361016D01*
X-680Y235324D02*
X92284D01*
X112096D02*
X213696D01*
X226650D02*
X360762D01*
X-680Y235070D02*
X92538D01*
X112350D02*
X213696D01*
X226396D02*
X360762D01*
X-680Y234816D02*
X92538D01*
X112350D02*
X213950D01*
X226142D02*
X360508D01*
X-680Y234562D02*
X92792D01*
X112604D02*
X213950D01*
X225888D02*
X360254D01*
X-680Y234308D02*
X92792D01*
X112604D02*
X213950D01*
X225634D02*
X360254D01*
X-680Y234054D02*
X93046D01*
X112858D02*
X214204D01*
X225380D02*
X360000D01*
X-680Y233800D02*
X93046D01*
X113112D02*
X214204D01*
X225126D02*
X360000D01*
X-680Y233546D02*
X93300D01*
X113112D02*
X214458D01*
X224872D02*
X359746D01*
X-680Y233292D02*
X93300D01*
X113366D02*
X214458D01*
X224618D02*
X359492D01*
X-680Y233038D02*
X93554D01*
X113366D02*
X214712D01*
X224364D02*
X359492D01*
X-680Y232784D02*
X93554D01*
X113620D02*
X214966D01*
X224110D02*
X359238D01*
X-680Y232530D02*
X93808D01*
X113874D02*
X215220D01*
X223856D02*
X359238D01*
X-680Y232276D02*
X94062D01*
X113874D02*
X215474D01*
X223602D02*
X358984D01*
X-680Y232022D02*
X94062D01*
X114128D02*
X215728D01*
X223348D02*
X358730D01*
X-680Y231768D02*
X94316D01*
X114382D02*
X215982D01*
X222840D02*
X358730D01*
X-680Y231514D02*
X94316D01*
X114382D02*
X216490D01*
X222586D02*
X358476D01*
X-680Y231260D02*
X94570D01*
X114636D02*
X216744D01*
X222078D02*
X358222D01*
X-680Y231006D02*
X94570D01*
X114890D02*
X217506D01*
X221570D02*
X358222D01*
X-680Y230752D02*
X94824D01*
X114890D02*
X218268D01*
X220808D02*
X357968D01*
X-680Y230498D02*
X94824D01*
X115144D02*
X357714D01*
X-680Y230244D02*
X95078D01*
X115398D02*
X357714D01*
X-680Y229990D02*
X95078D01*
X115398D02*
X357460D01*
X-680Y229736D02*
X95332D01*
X115652D02*
X357206D01*
X-680Y229482D02*
X95586D01*
X115906D02*
X357206D01*
X-680Y229228D02*
X95586D01*
X115906D02*
X356952D01*
X-680Y228974D02*
X95840D01*
X116160D02*
X356698D01*
X-680Y228720D02*
X95840D01*
X116414D02*
X356698D01*
X-680Y228466D02*
X96094D01*
X116414D02*
X356444D01*
X-680Y228212D02*
X96348D01*
X116668D02*
X356190D01*
X-680Y227958D02*
X96348D01*
X116922D02*
X356190D01*
X-680Y227704D02*
X96602D01*
X116922D02*
X355936D01*
X-680Y227450D02*
X96602D01*
X117176D02*
X355682D01*
X-680Y227196D02*
X96856D01*
X117430D02*
X355682D01*
X-680Y226942D02*
X96856D01*
X117430D02*
X355428D01*
X-680Y226688D02*
X97110D01*
X117684D02*
X355174D01*
X-680Y226434D02*
X97364D01*
X117938D02*
X354920D01*
X-680Y226180D02*
X97364D01*
X118192D02*
X354920D01*
X-680Y225926D02*
X97618D01*
X118192D02*
X354666D01*
X-680Y225672D02*
X97618D01*
X118446D02*
X354412D01*
X-680Y225418D02*
X97872D01*
X118700D02*
X354412D01*
X-680Y225164D02*
X98126D01*
X118700D02*
X354158D01*
X-680Y224910D02*
X98126D01*
X118954D02*
X353904D01*
X-680Y224656D02*
X98380D01*
X119208D02*
X353650D01*
X-680Y224402D02*
X98634D01*
X119462D02*
X353650D01*
X-680Y224148D02*
X98634D01*
X119462D02*
X353396D01*
X-680Y223894D02*
X98888D01*
X119716D02*
X353142D01*
X-680Y223640D02*
X98888D01*
X119970D02*
X352888D01*
X-680Y223386D02*
X99142D01*
X120224D02*
X352888D01*
X-680Y223132D02*
X99396D01*
X120224D02*
X352634D01*
X-680Y222878D02*
X99396D01*
X120478D02*
X352380D01*
X-680Y222624D02*
X99650D01*
X120732D02*
X352126D01*
X-680Y222370D02*
X99650D01*
X120986D02*
X352126D01*
X-680Y222116D02*
X99904D01*
X120986D02*
X351872D01*
X-680Y221862D02*
X100158D01*
X121240D02*
X351618D01*
X-680Y221608D02*
X100158D01*
X121494D02*
X351364D01*
X-680Y221354D02*
X100412D01*
X121748D02*
X351364D01*
X-680Y221100D02*
X100666D01*
X121748D02*
X351110D01*
X-680Y220846D02*
X100666D01*
X122002D02*
X350856D01*
X-680Y220592D02*
X100920D01*
X122256D02*
X350602D01*
X-680Y220338D02*
X101174D01*
X122510D02*
X350602D01*
X-680Y220084D02*
X101174D01*
X122764D02*
X350348D01*
X-680Y219830D02*
X101428D01*
X122764D02*
X350094D01*
X-680Y219576D02*
X101682D01*
X123018D02*
X349840D01*
X-680Y219322D02*
X101682D01*
X123272D02*
X349586D01*
X-680Y219068D02*
X101936D01*
X123526D02*
X349586D01*
X-680Y218814D02*
X102190D01*
X123780D02*
X349332D01*
X-680Y218560D02*
X102190D01*
X123780D02*
X349078D01*
X-680Y218306D02*
X102444D01*
X124034D02*
X348824D01*
X-680Y218052D02*
X102698D01*
X124288D02*
X348570D01*
X-680Y217798D02*
X102698D01*
X124542D02*
X348316D01*
X-680Y217544D02*
X102952D01*
X124796D02*
X348316D01*
X-680Y217290D02*
X103206D01*
X124796D02*
X348062D01*
X-680Y217036D02*
X103206D01*
X125050D02*
X347808D01*
X-680Y216782D02*
X103460D01*
X125304D02*
X347554D01*
X-680Y216528D02*
X103714D01*
X125558D02*
X347300D01*
X-680Y216274D02*
X103968D01*
X125812D02*
X347046D01*
X-680Y216020D02*
X103968D01*
X126066D02*
X347046D01*
X-680Y215766D02*
X104222D01*
X126320D02*
X346792D01*
X-680Y215512D02*
X104476D01*
X126320D02*
X346538D01*
X-680Y215258D02*
X104476D01*
X126574D02*
X346284D01*
X-680Y215004D02*
X104730D01*
X126828D02*
X346030D01*
X-680Y214750D02*
X104984D01*
X127082D02*
X345776D01*
X-680Y214496D02*
X105238D01*
X127336D02*
X345522D01*
X-680Y214242D02*
X105238D01*
X127590D02*
X345268D01*
X-680Y213988D02*
X105492D01*
X127844D02*
X345268D01*
X-680Y213734D02*
X105746D01*
X128098D02*
X345014D01*
X-680Y213480D02*
X105746D01*
X128098D02*
X344760D01*
X-680Y213226D02*
X106000D01*
X128352D02*
X344506D01*
X-680Y212972D02*
X106254D01*
X128606D02*
X344252D01*
X-680Y212718D02*
X106508D01*
X128860D02*
X343998D01*
X-680Y212464D02*
X106508D01*
X129114D02*
X343744D01*
X-680Y212210D02*
X106762D01*
X129368D02*
X343490D01*
X-680Y211956D02*
X107016D01*
X129622D02*
X343236D01*
X-680Y211702D02*
X107270D01*
X129876D02*
X342982D01*
X-680Y211448D02*
X107270D01*
X130130D02*
X342982D01*
X-680Y211194D02*
X107524D01*
X130384D02*
X342728D01*
X-680Y210940D02*
X107778D01*
X130638D02*
X342474D01*
X-680Y210686D02*
X108032D01*
X130892D02*
X342220D01*
X-680Y210432D02*
X108032D01*
X130892D02*
X341966D01*
X-680Y210178D02*
X108286D01*
X131146D02*
X341712D01*
X-680Y209924D02*
X108540D01*
X131400D02*
X341458D01*
X-680Y209670D02*
X108794D01*
X131654D02*
X341204D01*
X-680Y209416D02*
X109048D01*
X131908D02*
X340950D01*
X-680Y209162D02*
X109048D01*
X132162D02*
X340696D01*
X-680Y208908D02*
X109302D01*
X132416D02*
X340442D01*
X-680Y208654D02*
X109556D01*
X132670D02*
X340188D01*
X-680Y208400D02*
X109810D01*
X132924D02*
X339934D01*
X-680Y208146D02*
X110064D01*
X133178D02*
X339680D01*
X-680Y207892D02*
X110064D01*
X133432D02*
X339426D01*
X-680Y207638D02*
X110318D01*
X133686D02*
X339172D01*
X-680Y207384D02*
X110572D01*
X133940D02*
X338918D01*
X-680Y207130D02*
X110826D01*
X134194D02*
X338664D01*
X-680Y206876D02*
X111080D01*
X134448D02*
X338410D01*
X-680Y206622D02*
X111080D01*
X134702D02*
X338156D01*
X-680Y206368D02*
X111334D01*
X134956D02*
X337902D01*
X-680Y206114D02*
X111588D01*
X135210D02*
X337648D01*
X-680Y205860D02*
X111842D01*
X135464D02*
X337394D01*
X364064D02*
X364318D01*
X-680Y205606D02*
X112096D01*
X135718D02*
X337140D01*
X363810D02*
X364318D01*
X-680Y205352D02*
X112096D01*
X135972D02*
X336886D01*
X363556D02*
X364318D01*
X-680Y205098D02*
X112350D01*
X136226D02*
X336632D01*
X363302D02*
X364318D01*
X-680Y204844D02*
X112604D01*
X136480D02*
X336378D01*
X363048D02*
X364318D01*
X-680Y204590D02*
X112858D01*
X136988D02*
X336124D01*
X362794D02*
X364318D01*
X-680Y204336D02*
X113112D01*
X137242D02*
X335870D01*
X362794D02*
X364318D01*
X-680Y204082D02*
X113366D01*
X137496D02*
X335616D01*
X362540D02*
X364318D01*
X-680Y203828D02*
X113620D01*
X137750D02*
X335362D01*
X362286D02*
X364318D01*
X-680Y203574D02*
X113620D01*
X138004D02*
X334854D01*
X362032D02*
X364318D01*
X-680Y203320D02*
X113874D01*
X138258D02*
X334600D01*
X361778D02*
X364318D01*
X-680Y203066D02*
X114128D01*
X138512D02*
X334346D01*
X361524D02*
X364318D01*
X-680Y202812D02*
X114382D01*
X138766D02*
X334092D01*
X361524D02*
X364318D01*
X-680Y202558D02*
X114636D01*
X139020D02*
X333838D01*
X361270D02*
X364318D01*
X-680Y202304D02*
X114890D01*
X139274D02*
X333584D01*
X361016D02*
X364318D01*
X-680Y202050D02*
X115144D01*
X139528D02*
X333330D01*
X360762D02*
X364318D01*
X-680Y201796D02*
X115398D01*
X140036D02*
X333076D01*
X360508D02*
X364318D01*
X-680Y201542D02*
X115398D01*
X140290D02*
X332822D01*
X360254D02*
X364318D01*
X-680Y201288D02*
X115652D01*
X140544D02*
X332314D01*
X360000D02*
X364318D01*
X-680Y201034D02*
X115906D01*
X140798D02*
X332060D01*
X359746D02*
X364318D01*
X-680Y200780D02*
X116160D01*
X141052D02*
X331806D01*
X359492D02*
X364318D01*
X-680Y200526D02*
X116414D01*
X141306D02*
X331552D01*
X359492D02*
X364318D01*
X-680Y200272D02*
X116668D01*
X141560D02*
X331298D01*
X359238D02*
X364318D01*
X-680Y200018D02*
X116922D01*
X142068D02*
X331044D01*
X358984D02*
X364318D01*
X-680Y199764D02*
X117176D01*
X142322D02*
X330790D01*
X358730D02*
X364318D01*
X-680Y199510D02*
X117430D01*
X142576D02*
X330282D01*
X358476D02*
X364318D01*
X-680Y199256D02*
X117684D01*
X142830D02*
X330028D01*
X358222D02*
X364318D01*
X-680Y199002D02*
X117684D01*
X143084D02*
X329774D01*
X357968D02*
X364318D01*
X-680Y198748D02*
X117938D01*
X143592D02*
X329520D01*
X357714D02*
X364318D01*
X-680Y198494D02*
X118192D01*
X143846D02*
X329266D01*
X357460D02*
X364318D01*
X-680Y198240D02*
X118446D01*
X144100D02*
X328758D01*
X357206D02*
X364318D01*
X-680Y197986D02*
X118700D01*
X144354D02*
X328504D01*
X356952D02*
X364318D01*
X-680Y197732D02*
X118954D01*
X144608D02*
X328250D01*
X356698D02*
X364318D01*
X-680Y197478D02*
X119208D01*
X145116D02*
X327996D01*
X356444D02*
X364318D01*
X-680Y197224D02*
X119462D01*
X145370D02*
X327488D01*
X356190D02*
X364318D01*
X-680Y196970D02*
X119716D01*
X145624D02*
X327234D01*
X356190D02*
X364318D01*
X-680Y196716D02*
X119970D01*
X145878D02*
X326980D01*
X355936D02*
X364318D01*
X-680Y196462D02*
X120224D01*
X146386D02*
X326726D01*
X355682D02*
X364318D01*
X-680Y196208D02*
X120478D01*
X146640D02*
X326218D01*
X355428D02*
X364318D01*
X-680Y195954D02*
X120732D01*
X146894D02*
X325964D01*
X355174D02*
X364318D01*
X-680Y195700D02*
X120986D01*
X147148D02*
X325710D01*
X354920D02*
X364318D01*
X-680Y195446D02*
X121240D01*
X147656D02*
X325456D01*
X354666D02*
X364318D01*
X-680Y195192D02*
X121494D01*
X147910D02*
X324948D01*
X354412D02*
X364318D01*
X-680Y194938D02*
X121748D01*
X148164D02*
X324694D01*
X354158D02*
X364318D01*
X-680Y194684D02*
X122002D01*
X148672D02*
X324440D01*
X353904D02*
X364318D01*
X-680Y194430D02*
X122256D01*
X148926D02*
X323932D01*
X353650D02*
X364318D01*
X-680Y194176D02*
X122510D01*
X149180D02*
X323678D01*
X353396D02*
X364318D01*
X-680Y193922D02*
X122764D01*
X149688D02*
X323424D01*
X353142D02*
X364318D01*
X-680Y193668D02*
X123018D01*
X149942D02*
X322916D01*
X352888D02*
X364318D01*
X-680Y193414D02*
X123272D01*
X150196D02*
X322662D01*
X352634D02*
X364318D01*
X-680Y193160D02*
X123526D01*
X150704D02*
X322408D01*
X352380D02*
X364318D01*
X-680Y192906D02*
X123780D01*
X150958D02*
X321900D01*
X352126D02*
X364318D01*
X-680Y192652D02*
X124034D01*
X151212D02*
X321646D01*
X351872D02*
X364318D01*
X-680Y192398D02*
X124288D01*
X151720D02*
X321392D01*
X351618D02*
X364318D01*
X-680Y192144D02*
X124542D01*
X151974D02*
X320884D01*
X351364D02*
X364318D01*
X-680Y191890D02*
X124796D01*
X152482D02*
X320630D01*
X351110D02*
X364318D01*
X-680Y191636D02*
X125050D01*
X152736D02*
X320122D01*
X350602D02*
X364318D01*
X-680Y191382D02*
X125304D01*
X152990D02*
X319868D01*
X350348D02*
X364318D01*
X-680Y191128D02*
X125558D01*
X153498D02*
X319360D01*
X350094D02*
X364318D01*
X-680Y190874D02*
X125812D01*
X153752D02*
X319106D01*
X349840D02*
X364318D01*
X-680Y190620D02*
X126066D01*
X154260D02*
X318852D01*
X349586D02*
X364318D01*
X-680Y190366D02*
X126320D01*
X154514D02*
X318344D01*
X349332D02*
X364318D01*
X-680Y190112D02*
X126828D01*
X155022D02*
X318090D01*
X349078D02*
X364318D01*
X-680Y189858D02*
X127082D01*
X155276D02*
X317582D01*
X348824D02*
X364318D01*
X-680Y189604D02*
X127336D01*
X155784D02*
X317328D01*
X348570D02*
X364318D01*
X-680Y189350D02*
X127590D01*
X156038D02*
X316820D01*
X348316D02*
X364318D01*
X-680Y189096D02*
X127844D01*
X156546D02*
X316566D01*
X348062D02*
X364318D01*
X-680Y188842D02*
X128098D01*
X156800D02*
X316058D01*
X347808D02*
X364318D01*
X-680Y188588D02*
X128352D01*
X157308D02*
X315804D01*
X347554D02*
X364318D01*
X-680Y188334D02*
X128606D01*
X157562D02*
X315296D01*
X347046D02*
X364318D01*
X-680Y188080D02*
X128860D01*
X158070D02*
X315042D01*
X346792D02*
X364318D01*
X-680Y187826D02*
X129114D01*
X158324D02*
X314534D01*
X346538D02*
X364318D01*
X-680Y187572D02*
X129622D01*
X158832D02*
X314026D01*
X346284D02*
X364318D01*
X-680Y187318D02*
X129876D01*
X159086D02*
X313772D01*
X346030D02*
X364318D01*
X-680Y187064D02*
X130130D01*
X159594D02*
X313264D01*
X345776D02*
X364318D01*
X-680Y186810D02*
X130384D01*
X160102D02*
X313010D01*
X345522D02*
X364318D01*
X-680Y186556D02*
X130638D01*
X160356D02*
X312502D01*
X345014D02*
X364318D01*
X-680Y186302D02*
X130892D01*
X160864D02*
X311994D01*
X344760D02*
X364318D01*
X-680Y186048D02*
X131146D01*
X161372D02*
X311740D01*
X344506D02*
X364318D01*
X-680Y185794D02*
X131654D01*
X161626D02*
X311232D01*
X344252D02*
X364318D01*
X-680Y185540D02*
X131908D01*
X162134D02*
X310724D01*
X343998D02*
X364318D01*
X-680Y185286D02*
X132162D01*
X162642D02*
X310470D01*
X343744D02*
X364318D01*
X-680Y185032D02*
X132416D01*
X162896D02*
X309962D01*
X343236D02*
X364318D01*
X-680Y184778D02*
X132670D01*
X163404D02*
X309454D01*
X342982D02*
X364318D01*
X-680Y184524D02*
X133178D01*
X163912D02*
X309200D01*
X342728D02*
X364318D01*
X-680Y184270D02*
X133432D01*
X164166D02*
X308692D01*
X342474D02*
X364318D01*
X-680Y184016D02*
X133686D01*
X164674D02*
X308184D01*
X342220D02*
X364318D01*
X-680Y183762D02*
X133940D01*
X165182D02*
X307676D01*
X341712D02*
X364318D01*
X-680Y183508D02*
X134194D01*
X165690D02*
X307422D01*
X341458D02*
X364318D01*
X-680Y183254D02*
X134702D01*
X166198D02*
X306914D01*
X341204D02*
X364318D01*
X-680Y183000D02*
X134956D01*
X166452D02*
X306406D01*
X340950D02*
X364318D01*
X-680Y182746D02*
X135210D01*
X166960D02*
X305898D01*
X340442D02*
X364318D01*
X-680Y182492D02*
X135464D01*
X167468D02*
X305390D01*
X340188D02*
X364318D01*
X-680Y182238D02*
X135972D01*
X167976D02*
X304882D01*
X339934D02*
X364318D01*
X-680Y181984D02*
X136226D01*
X168484D02*
X304628D01*
X339680D02*
X364318D01*
X-680Y181730D02*
X136480D01*
X168992D02*
X304120D01*
X339172D02*
X364318D01*
X-680Y181476D02*
X136734D01*
X169500D02*
X303612D01*
X338918D02*
X364318D01*
X-680Y181222D02*
X137242D01*
X170008D02*
X303104D01*
X338664D02*
X364318D01*
X-680Y180968D02*
X137496D01*
X170516D02*
X302596D01*
X338410D02*
X364318D01*
X-680Y180714D02*
X137750D01*
X170770D02*
X302088D01*
X337902D02*
X364318D01*
X-680Y180460D02*
X138258D01*
X171278D02*
X301580D01*
X337648D02*
X364318D01*
X-680Y180206D02*
X138512D01*
X171786D02*
X301072D01*
X337394D02*
X364318D01*
X-680Y179952D02*
X138766D01*
X172548D02*
X300564D01*
X336886D02*
X364318D01*
X-680Y179698D02*
X139020D01*
X173056D02*
X300056D01*
X336632D02*
X364318D01*
X-680Y179444D02*
X139528D01*
X173564D02*
X299548D01*
X336378D02*
X364318D01*
X-680Y179190D02*
X139782D01*
X174072D02*
X299040D01*
X335870D02*
X364318D01*
X-680Y178936D02*
X140036D01*
X174580D02*
X298532D01*
X335616D02*
X364318D01*
X-680Y178682D02*
X140544D01*
X175088D02*
X297770D01*
X335362D02*
X364318D01*
X-680Y178428D02*
X140798D01*
X175596D02*
X297262D01*
X334854D02*
X364318D01*
X-680Y178174D02*
X141052D01*
X176104D02*
X296754D01*
X334600D02*
X364318D01*
X-680Y177920D02*
X141560D01*
X176866D02*
X296246D01*
X334346D02*
X364318D01*
X-680Y177666D02*
X141814D01*
X177374D02*
X295738D01*
X333838D02*
X364318D01*
X-680Y177412D02*
X142322D01*
X177882D02*
X294976D01*
X333584D02*
X364318D01*
X-680Y177158D02*
X142576D01*
X178390D02*
X294468D01*
X333076D02*
X364318D01*
X-680Y176904D02*
X142830D01*
X179152D02*
X293960D01*
X332822D02*
X364318D01*
X-680Y176650D02*
X143338D01*
X179660D02*
X293198D01*
X332568D02*
X364318D01*
X-680Y176396D02*
X143592D01*
X180168D02*
X292690D01*
X332060D02*
X364318D01*
X-680Y176142D02*
X144100D01*
X180930D02*
X292182D01*
X331806D02*
X364318D01*
X-680Y175888D02*
X144354D01*
X181438D02*
X291420D01*
X331298D02*
X364318D01*
X-680Y175634D02*
X144862D01*
X182200D02*
X290912D01*
X331044D02*
X364318D01*
X-680Y175380D02*
X145116D01*
X182708D02*
X290150D01*
X330536D02*
X364318D01*
X-680Y175126D02*
X145370D01*
X183470D02*
X289642D01*
X330282D02*
X364318D01*
X-680Y174872D02*
X145878D01*
X183978D02*
X288880D01*
X330028D02*
X364318D01*
X-680Y174618D02*
X146132D01*
X184740D02*
X288372D01*
X329520D02*
X364318D01*
X-680Y174364D02*
X146640D01*
X185248D02*
X287610D01*
X329266D02*
X364318D01*
X-680Y174110D02*
X146894D01*
X186010D02*
X286848D01*
X328758D02*
X364318D01*
X-680Y173856D02*
X147402D01*
X186772D02*
X286340D01*
X328504D02*
X364318D01*
X-680Y173602D02*
X147656D01*
X187280D02*
X285578D01*
X327996D02*
X364318D01*
X-680Y173348D02*
X148164D01*
X188042D02*
X284816D01*
X327742D02*
X364318D01*
X-680Y173094D02*
X148418D01*
X188804D02*
X284054D01*
X327234D02*
X364318D01*
X-680Y172840D02*
X148926D01*
X189566D02*
X283292D01*
X326980D02*
X364318D01*
X-680Y172586D02*
X149434D01*
X190328D02*
X282530D01*
X326472D02*
X364318D01*
X-680Y172332D02*
X149688D01*
X191090D02*
X281768D01*
X325964D02*
X364318D01*
X-680Y172078D02*
X150196D01*
X191852D02*
X281006D01*
X325710D02*
X364318D01*
X-680Y171824D02*
X150450D01*
X192614D02*
X280244D01*
X325202D02*
X364318D01*
X-680Y171570D02*
X150958D01*
X193376D02*
X279482D01*
X324948D02*
X364318D01*
X-680Y171316D02*
X151212D01*
X194392D02*
X278720D01*
X324440D02*
X364318D01*
X-680Y171062D02*
X151720D01*
X195154D02*
X277704D01*
X323932D02*
X364318D01*
X-680Y170808D02*
X152228D01*
X196170D02*
X276942D01*
X323678D02*
X364318D01*
X-680Y170554D02*
X152482D01*
X196932D02*
X275926D01*
X323170D02*
X364318D01*
X-680Y170300D02*
X152990D01*
X197948D02*
X275164D01*
X322916D02*
X364318D01*
X-680Y170046D02*
X153498D01*
X198710D02*
X274148D01*
X322408D02*
X364318D01*
X-680Y169792D02*
X153752D01*
X199726D02*
X273132D01*
X321900D02*
X364318D01*
X-680Y169538D02*
X154260D01*
X200742D02*
X272116D01*
X321646D02*
X364318D01*
X-680Y169284D02*
X154768D01*
X201758D02*
X271100D01*
X321138D02*
X364318D01*
X-680Y169030D02*
X155022D01*
X202774D02*
X270084D01*
X320630D02*
X364318D01*
X-680Y168776D02*
X155530D01*
X203790D02*
X269068D01*
X320122D02*
X364318D01*
X-680Y168522D02*
X156038D01*
X205060D02*
X268052D01*
X319868D02*
X364318D01*
X-680Y168268D02*
X156292D01*
X206076D02*
X266782D01*
X319360D02*
X364318D01*
X-680Y168014D02*
X156800D01*
X207346D02*
X265512D01*
X318852D02*
X364318D01*
X-680Y167760D02*
X157308D01*
X208616D02*
X264242D01*
X318598D02*
X364318D01*
X-680Y167506D02*
X157816D01*
X210140D02*
X262972D01*
X318090D02*
X364318D01*
X-680Y167252D02*
X158324D01*
X211410D02*
X261448D01*
X317582D02*
X364318D01*
X-680Y166998D02*
X158578D01*
X212934D02*
X259924D01*
X317074D02*
X364318D01*
X-680Y166744D02*
X159086D01*
X214458D02*
X258400D01*
X316566D02*
X364318D01*
X-680Y166490D02*
X159594D01*
X216236D02*
X256622D01*
X316312D02*
X364318D01*
X-680Y166236D02*
X160102D01*
X218014D02*
X254844D01*
X315804D02*
X364318D01*
X-680Y165982D02*
X160610D01*
X220300D02*
X252558D01*
X315296D02*
X364318D01*
X-680Y165728D02*
X160864D01*
X222586D02*
X250272D01*
X314788D02*
X364318D01*
X-680Y165474D02*
X161372D01*
X225634D02*
X247224D01*
X314280D02*
X364318D01*
X-680Y165220D02*
X161880D01*
X229952D02*
X242906D01*
X313772D02*
X364318D01*
X-680Y164966D02*
X162388D01*
X313264D02*
X364318D01*
X-680Y164712D02*
X162896D01*
X312756D02*
X364318D01*
X-680Y164458D02*
X163404D01*
X312248D02*
X364318D01*
X-680Y164204D02*
X163912D01*
X311740D02*
X364318D01*
X-680Y163950D02*
X164420D01*
X311232D02*
X364318D01*
X-680Y163696D02*
X164928D01*
X310978D02*
X364318D01*
X-680Y163442D02*
X165436D01*
X310216D02*
X364318D01*
X-680Y163188D02*
X165944D01*
X309708D02*
X364318D01*
X-680Y162934D02*
X166452D01*
X309200D02*
X364318D01*
X-680Y162680D02*
X166960D01*
X308692D02*
X364318D01*
X-680Y162426D02*
X167468D01*
X308184D02*
X364318D01*
X-680Y162172D02*
X167976D01*
X307676D02*
X364318D01*
X-680Y161918D02*
X168738D01*
X307168D02*
X364318D01*
X-680Y161664D02*
X169246D01*
X306660D02*
X364318D01*
X-680Y161410D02*
X169754D01*
X306152D02*
X364318D01*
X-680Y161156D02*
X170262D01*
X305390D02*
X364318D01*
X-680Y160902D02*
X170770D01*
X304882D02*
X364318D01*
X-680Y160648D02*
X171532D01*
X304374D02*
X364318D01*
X-680Y160394D02*
X172040D01*
X303866D02*
X364318D01*
X-680Y160140D02*
X172548D01*
X303104D02*
X364318D01*
X-680Y159886D02*
X173056D01*
X302596D02*
X364318D01*
X-680Y159632D02*
X173818D01*
X302088D02*
X364318D01*
X-680Y159378D02*
X174326D01*
X301326D02*
X364318D01*
X-680Y159124D02*
X174834D01*
X300818D02*
X364318D01*
X-680Y158870D02*
X175596D01*
X300310D02*
X364318D01*
X-680Y158616D02*
X176104D01*
X299548D02*
X364318D01*
X-680Y158362D02*
X176866D01*
X299040D02*
X364318D01*
X-680Y158108D02*
X177374D01*
X298278D02*
X364318D01*
X-680Y157854D02*
X178136D01*
X297770D02*
X364318D01*
X-680Y157600D02*
X178644D01*
X297008D02*
X364318D01*
X-680Y157346D02*
X179406D01*
X296500D02*
X364318D01*
X-680Y157092D02*
X180168D01*
X295738D02*
X364318D01*
X-680Y156838D02*
X180676D01*
X294976D02*
X364318D01*
X-680Y156584D02*
X181438D01*
X294468D02*
X364318D01*
X-680Y156330D02*
X182200D01*
X293706D02*
X364318D01*
X-680Y156076D02*
X182708D01*
X292944D02*
X364318D01*
X-680Y155822D02*
X183470D01*
X292182D02*
X364318D01*
X-680Y155568D02*
X184232D01*
X291420D02*
X364318D01*
X-680Y155314D02*
X184994D01*
X290658D02*
X364318D01*
X-680Y155060D02*
X185756D01*
X289896D02*
X364318D01*
X-680Y154806D02*
X186518D01*
X289388D02*
X364318D01*
X-680Y154552D02*
X187280D01*
X288372D02*
X364318D01*
X-680Y154298D02*
X188042D01*
X287610D02*
X364318D01*
X-680Y154044D02*
X188804D01*
X286848D02*
X364318D01*
X-680Y153790D02*
X189820D01*
X286086D02*
X364318D01*
X-680Y153536D02*
X190582D01*
X285324D02*
X364318D01*
X-680Y153282D02*
X191344D01*
X284308D02*
X364318D01*
X-680Y153028D02*
X192360D01*
X283546D02*
X364318D01*
X-680Y152774D02*
X193122D01*
X282530D02*
X364318D01*
X-680Y152520D02*
X194138D01*
X281768D02*
X364318D01*
X-680Y152266D02*
X194900D01*
X280752D02*
X364318D01*
X-680Y152012D02*
X195916D01*
X279736D02*
X364318D01*
X-680Y151758D02*
X196932D01*
X278974D02*
X364318D01*
X-680Y151504D02*
X197948D01*
X277958D02*
X364318D01*
X-680Y151250D02*
X198964D01*
X276942D02*
X364318D01*
X-680Y150996D02*
X199980D01*
X275926D02*
X364318D01*
X-680Y150742D02*
X200996D01*
X274656D02*
X364318D01*
X-680Y150488D02*
X202012D01*
X273640D02*
X364318D01*
X-680Y150234D02*
X203282D01*
X272624D02*
X364318D01*
X-680Y149980D02*
X204552D01*
X271354D02*
X364318D01*
X-680Y149726D02*
X205822D01*
X270084D02*
X364318D01*
X-680Y149472D02*
X207092D01*
X268814D02*
X364318D01*
X-680Y149218D02*
X208362D01*
X267544D02*
X364318D01*
X-680Y148964D02*
X209886D01*
X266020D02*
X364318D01*
X-680Y148710D02*
X211410D01*
X264496D02*
X364318D01*
X-680Y148456D02*
X212934D01*
X262972D02*
X364318D01*
X-680Y148202D02*
X214458D01*
X261194D02*
X364318D01*
X-680Y147948D02*
X216490D01*
X259416D02*
X364318D01*
X-680Y147694D02*
X218522D01*
X257384D02*
X364318D01*
X-680Y147440D02*
X220808D01*
X255098D02*
X364318D01*
X-680Y147186D02*
X223348D01*
X252558D02*
X364318D01*
X-680Y146932D02*
X226396D01*
X249256D02*
X364318D01*
X-680Y146678D02*
X230968D01*
X244684D02*
X364318D01*
X-680Y146424D02*
X364318D01*
X-680Y146170D02*
X364318D01*
X-680Y145916D02*
X364318D01*
X-680Y145662D02*
X364318D01*
X-680Y145408D02*
X364318D01*
X-680Y145154D02*
X364318D01*
X-680Y144900D02*
X364318D01*
X-680Y144646D02*
X364318D01*
X-680Y144392D02*
X364318D01*
X-680Y144138D02*
X364318D01*
X-680Y143884D02*
X364318D01*
X-680Y143630D02*
X364318D01*
X-680Y143376D02*
X364318D01*
X-680Y143122D02*
X364318D01*
X-680Y142868D02*
X364318D01*
X-680Y142614D02*
X364318D01*
X-680Y142360D02*
X364318D01*
X-680Y142106D02*
X364318D01*
X-680Y141852D02*
X364318D01*
X-680Y141598D02*
X364318D01*
X-680Y141344D02*
X364318D01*
X-680Y141090D02*
X364318D01*
X-680Y140836D02*
X364318D01*
X-680Y140582D02*
X364318D01*
X-680Y140328D02*
X364318D01*
X-680Y140074D02*
X364318D01*
X-680Y139820D02*
X364318D01*
X-680Y139566D02*
X364318D01*
X-680Y139312D02*
X364318D01*
X-680Y139058D02*
X364318D01*
X-680Y138804D02*
X364318D01*
X-680Y138550D02*
X364318D01*
X-680Y138296D02*
X364318D01*
X-680Y138042D02*
X364318D01*
X-680Y137788D02*
X364318D01*
X-680Y137534D02*
X364318D01*
X-680Y137280D02*
X364318D01*
X-680Y137026D02*
X364318D01*
X-680Y136772D02*
X364318D01*
X-680Y136518D02*
X364318D01*
X-680Y136264D02*
X364318D01*
X-680Y136010D02*
X364318D01*
X-680Y135756D02*
X364318D01*
X-680Y135502D02*
X364318D01*
X-680Y135248D02*
X364318D01*
X-680Y134994D02*
X364318D01*
X-680Y134740D02*
X364318D01*
X-680Y134486D02*
X364318D01*
X-680Y134232D02*
X364318D01*
X-680Y133978D02*
X364318D01*
X-680Y133724D02*
X364318D01*
X-680Y133470D02*
X364318D01*
X-680Y133216D02*
X364318D01*
X-680Y132962D02*
X364318D01*
X-680Y132708D02*
X364318D01*
X-680Y132454D02*
X364318D01*
X-680Y132200D02*
X364318D01*
X-680Y131946D02*
X364318D01*
X-680Y131692D02*
X364318D01*
X-680Y131438D02*
X364318D01*
X-680Y131184D02*
X364318D01*
X-680Y130930D02*
X364318D01*
X-680Y130676D02*
X364318D01*
X-680Y130422D02*
X364318D01*
X-680Y130168D02*
X364318D01*
X-680Y129914D02*
X364318D01*
X-680Y129660D02*
X364318D01*
X-680Y129406D02*
X364318D01*
X-680Y129152D02*
X364318D01*
X-680Y128898D02*
X364318D01*
X-680Y128644D02*
X364318D01*
X-680Y128390D02*
X364318D01*
X-680Y128136D02*
X364318D01*
X-680Y127882D02*
X364318D01*
X-680Y127628D02*
X364318D01*
X-680Y127374D02*
X364318D01*
X-680Y127120D02*
X364318D01*
X-680Y126866D02*
X364318D01*
X-680Y126612D02*
X364318D01*
X-680Y126358D02*
X364318D01*
X-680Y126104D02*
X364318D01*
X-680Y125850D02*
X364318D01*
X-680Y125596D02*
X364318D01*
X-680Y125342D02*
X364318D01*
X-680Y125088D02*
X364318D01*
X-680Y124834D02*
X364318D01*
X-680Y124580D02*
X364318D01*
X-680Y124326D02*
X364318D01*
X-680Y124072D02*
X364318D01*
X-680Y123818D02*
X364318D01*
X-680Y123564D02*
X364318D01*
X-680Y123310D02*
X364318D01*
X-680Y123056D02*
X364318D01*
X-680Y122802D02*
X364318D01*
X-680Y122548D02*
X364318D01*
X-680Y122294D02*
X364318D01*
X-680Y122040D02*
X364318D01*
X-680Y121786D02*
X364318D01*
X-680Y121532D02*
X364318D01*
X-680Y121278D02*
X364318D01*
X-680Y121024D02*
X364318D01*
X-680Y120770D02*
X364318D01*
X-680Y120516D02*
X364318D01*
X-680Y120262D02*
X364318D01*
X-680Y120008D02*
X364318D01*
X-680Y119754D02*
X364318D01*
X-680Y119500D02*
X364318D01*
X-680Y119246D02*
X364318D01*
X-680Y118992D02*
X364318D01*
X-680Y118738D02*
X364318D01*
X-680Y118484D02*
X364318D01*
X-680Y118230D02*
X364318D01*
X-680Y117976D02*
X364318D01*
X-680Y117722D02*
X364318D01*
X-680Y117468D02*
X364318D01*
X-680Y117214D02*
X364318D01*
X-680Y116960D02*
X364318D01*
X-680Y116706D02*
X364318D01*
X-680Y116452D02*
X364318D01*
X-680Y116198D02*
X364318D01*
X-680Y115944D02*
X364318D01*
X-680Y115690D02*
X364318D01*
X-680Y115436D02*
X364318D01*
X-680Y115182D02*
X364318D01*
X-680Y114928D02*
X364318D01*
X-680Y114674D02*
X364318D01*
X-680Y114420D02*
X364318D01*
X-680Y114166D02*
X364318D01*
X-680Y113912D02*
X364318D01*
X-680Y113658D02*
X364318D01*
X-680Y113404D02*
X364318D01*
X-680Y113150D02*
X364318D01*
X-680Y112896D02*
X364318D01*
X-680Y112642D02*
X364318D01*
X-680Y112388D02*
X364318D01*
X-680Y112134D02*
X364318D01*
X-680Y111880D02*
X364318D01*
X-680Y111626D02*
X364318D01*
X-680Y111372D02*
X364318D01*
X-680Y111118D02*
X364318D01*
X-680Y110864D02*
X364318D01*
X-680Y110610D02*
X364318D01*
X-680Y110356D02*
X364318D01*
X-680Y110102D02*
X364318D01*
X-680Y109848D02*
X364318D01*
X-680Y109594D02*
X364318D01*
X-680Y109340D02*
X364318D01*
X-680Y109086D02*
X364318D01*
X-680Y108832D02*
X364318D01*
X-680Y108578D02*
X364318D01*
X-680Y108324D02*
X364318D01*
X-680Y108070D02*
X364318D01*
X-680Y107816D02*
X364318D01*
X-680Y107562D02*
X364318D01*
X-680Y107308D02*
X364318D01*
X-680Y107054D02*
X364318D01*
X-680Y106800D02*
X364318D01*
X-680Y106546D02*
X364318D01*
X-680Y106292D02*
X364318D01*
X-680Y106038D02*
X364318D01*
X-680Y105784D02*
X364318D01*
X-680Y105530D02*
X364318D01*
X-680Y105276D02*
X364318D01*
X-680Y105022D02*
X364318D01*
X-680Y104768D02*
X364318D01*
X-680Y104514D02*
X364318D01*
X-680Y104260D02*
X364318D01*
X-680Y104006D02*
X364318D01*
X-680Y103752D02*
X364318D01*
X-680Y103498D02*
X364318D01*
X-680Y103244D02*
X364318D01*
X-680Y102990D02*
X364318D01*
X-680Y102736D02*
X364318D01*
X-680Y102482D02*
X364318D01*
X-680Y102228D02*
X364318D01*
X-680Y101974D02*
X364318D01*
X-680Y101720D02*
X364318D01*
X-680Y101466D02*
X364318D01*
X-680Y101212D02*
X364318D01*
X-680Y100958D02*
X364318D01*
X-680Y100704D02*
X364318D01*
X-680Y100450D02*
X364318D01*
X-680Y100196D02*
X364318D01*
X-680Y99942D02*
X364318D01*
X-680Y99688D02*
X364318D01*
X-680Y99434D02*
X364318D01*
X-680Y99180D02*
X364318D01*
X-680Y98926D02*
X364318D01*
X-680Y98672D02*
X364318D01*
X-680Y98418D02*
X364318D01*
X-680Y98164D02*
X364318D01*
X-680Y97910D02*
X364318D01*
X-680Y97656D02*
X364318D01*
X-680Y97402D02*
X364318D01*
X-680Y97148D02*
X364318D01*
X-680Y96894D02*
X364318D01*
X-680Y96640D02*
X364318D01*
X-680Y96386D02*
X364318D01*
X-680Y96132D02*
X364318D01*
X-680Y95878D02*
X364318D01*
X-680Y95624D02*
X364318D01*
X-680Y95370D02*
X364318D01*
X-680Y95116D02*
X364318D01*
X-680Y94862D02*
X364318D01*
X-680Y94608D02*
X364318D01*
X-680Y94354D02*
X364318D01*
X-680Y94100D02*
X364318D01*
X-680Y93846D02*
X364318D01*
X-680Y93592D02*
X364318D01*
X-680Y93338D02*
X364318D01*
X-680Y93084D02*
X364318D01*
X-680Y92830D02*
X364318D01*
X-680Y92576D02*
X364318D01*
X-680Y92322D02*
X364318D01*
X-680Y92068D02*
X364318D01*
X-680Y91814D02*
X364318D01*
X-680Y91560D02*
X364318D01*
X-680Y91306D02*
X364318D01*
X-680Y91052D02*
X364318D01*
X-680Y90798D02*
X364318D01*
X-680Y90544D02*
X364318D01*
X-680Y90290D02*
X364318D01*
X-680Y90036D02*
X364318D01*
X-680Y89782D02*
X364318D01*
X-680Y89528D02*
X364318D01*
X-680Y89274D02*
X364318D01*
X-680Y89020D02*
X364318D01*
X-680Y88766D02*
X364318D01*
X-680Y88512D02*
X364318D01*
X-680Y88258D02*
X364318D01*
X-680Y88004D02*
X364318D01*
X-680Y87750D02*
X364318D01*
X-680Y87496D02*
X364318D01*
X-680Y87242D02*
X364318D01*
X-680Y86988D02*
X364318D01*
X-680Y86734D02*
X364318D01*
X-680Y86480D02*
X364318D01*
X-680Y86226D02*
X364318D01*
X-680Y85972D02*
X364318D01*
X-680Y85718D02*
X364318D01*
X-680Y85464D02*
X364318D01*
X-680Y85210D02*
X364318D01*
X-680Y84956D02*
X364318D01*
X-680Y84702D02*
X364318D01*
X-680Y84448D02*
X364318D01*
X-680Y84194D02*
X364318D01*
X-680Y83940D02*
X364318D01*
X-680Y83686D02*
X364318D01*
X-680Y83432D02*
X364318D01*
X-680Y83178D02*
X364318D01*
X-680Y82924D02*
X364318D01*
X-680Y82670D02*
X364318D01*
X-680Y82416D02*
X364318D01*
X-680Y82162D02*
X364318D01*
X-680Y81908D02*
X364318D01*
X-680Y81654D02*
X364318D01*
X-680Y81400D02*
X364318D01*
X-680Y81146D02*
X364318D01*
X-680Y80892D02*
X364318D01*
X-680Y80638D02*
X364318D01*
X-680Y80384D02*
X364318D01*
X-680Y80130D02*
X364318D01*
X-680Y79876D02*
X364318D01*
X-680Y79622D02*
X364318D01*
X-680Y79368D02*
X364318D01*
X-680Y79114D02*
X364318D01*
X-680Y78860D02*
X364318D01*
X-680Y78606D02*
X364318D01*
X-680Y78352D02*
X364318D01*
X-680Y78098D02*
X364318D01*
X-680Y77844D02*
X364318D01*
X-680Y77590D02*
X364318D01*
X-680Y77336D02*
X364318D01*
X-680Y77082D02*
X364318D01*
X-680Y76828D02*
X364318D01*
X-680Y76574D02*
X364318D01*
X-680Y76320D02*
X364318D01*
X-680Y76066D02*
X364318D01*
X-680Y75812D02*
X364318D01*
X-680Y75558D02*
X364318D01*
X-680Y75304D02*
X364318D01*
X-680Y75050D02*
X364318D01*
X-680Y74796D02*
X364318D01*
X-680Y74542D02*
X364318D01*
X-680Y74288D02*
X364318D01*
X-680Y74034D02*
X364318D01*
X-680Y73780D02*
X364318D01*
X-680Y73526D02*
X364318D01*
X-680Y73272D02*
X364318D01*
X-680Y73018D02*
X364318D01*
X-680Y72764D02*
X364318D01*
X-680Y72510D02*
X364318D01*
X-680Y72256D02*
X364318D01*
X-680Y72002D02*
X364318D01*
X-680Y71748D02*
X364318D01*
X-680Y71494D02*
X364318D01*
X-680Y71240D02*
X364318D01*
X-680Y70986D02*
X364318D01*
X-680Y70732D02*
X364318D01*
X-680Y70478D02*
X364318D01*
X-680Y70224D02*
X364318D01*
X-680Y69970D02*
X364318D01*
X-680Y69716D02*
X364318D01*
X-680Y69462D02*
X364318D01*
X-680Y69208D02*
X364318D01*
X-680Y68954D02*
X364318D01*
X-680Y68700D02*
X364318D01*
X-680Y68446D02*
X364318D01*
X-680Y68192D02*
X364318D01*
X-680Y67938D02*
X364318D01*
X-680Y67684D02*
X364318D01*
X-680Y67430D02*
X364318D01*
X-680Y67176D02*
X364318D01*
X-680Y66922D02*
X364318D01*
X-680Y66668D02*
X364318D01*
X-680Y66414D02*
X364318D01*
X-680Y66160D02*
X364318D01*
X-680Y65906D02*
X364318D01*
X-680Y65652D02*
X364318D01*
X-680Y65398D02*
X364318D01*
X-680Y65144D02*
X364318D01*
X-680Y64890D02*
X364318D01*
X-680Y64636D02*
X364318D01*
X-680Y64382D02*
X364318D01*
X-680Y64128D02*
X364318D01*
X-680Y63874D02*
X364318D01*
X-680Y63620D02*
X364318D01*
X-680Y63366D02*
X364318D01*
X-680Y63112D02*
X364318D01*
X-680Y62858D02*
X364318D01*
X-680Y62604D02*
X364318D01*
X-680Y62350D02*
X364318D01*
X-680Y62096D02*
X364318D01*
X-680Y61842D02*
X364318D01*
X-680Y61588D02*
X364318D01*
X-680Y61334D02*
X364318D01*
X-680Y61080D02*
X364318D01*
X-680Y60826D02*
X364318D01*
X-680Y60572D02*
X364318D01*
X-680Y60318D02*
X364318D01*
X-680Y60064D02*
X364318D01*
X-680Y59810D02*
X364318D01*
X-680Y59556D02*
X364318D01*
X-680Y59302D02*
X364318D01*
X-680Y59048D02*
X364318D01*
X-680Y58794D02*
X364318D01*
X-680Y58540D02*
X364318D01*
X-680Y58286D02*
X364318D01*
X-680Y58032D02*
X364318D01*
X-680Y57778D02*
X364318D01*
X-680Y57524D02*
X364318D01*
X-680Y57270D02*
X364318D01*
X-680Y57016D02*
X364318D01*
X-680Y56762D02*
X364318D01*
X-680Y56508D02*
X364318D01*
X-680Y56254D02*
X364318D01*
X-680Y56000D02*
X364318D01*
X-680Y55746D02*
X364318D01*
X-680Y55492D02*
X364318D01*
X-680Y55238D02*
X364318D01*
X-680Y54984D02*
X364318D01*
X-680Y54730D02*
X364318D01*
X-680Y54476D02*
X364318D01*
X-680Y54222D02*
X364318D01*
X-680Y53968D02*
X364318D01*
X-680Y53714D02*
X364318D01*
X-680Y53460D02*
X364318D01*
X-680Y53206D02*
X364318D01*
X-680Y52952D02*
X364318D01*
X-680Y52698D02*
X364318D01*
X-680Y52444D02*
X364318D01*
X-680Y52190D02*
X364318D01*
X-680Y51936D02*
X364318D01*
X-680Y51682D02*
X364318D01*
X-680Y51428D02*
X364318D01*
X-680Y51174D02*
X364318D01*
X-680Y50920D02*
X364318D01*
X-680Y50666D02*
X364318D01*
X-680Y50412D02*
X364318D01*
X-680Y50158D02*
X364318D01*
X-680Y49904D02*
X364318D01*
X-680Y49650D02*
X364318D01*
X-680Y49396D02*
X364318D01*
X-680Y49142D02*
X364318D01*
X-680Y48888D02*
X364318D01*
X-680Y48634D02*
X364318D01*
X-680Y48380D02*
X364318D01*
X-680Y48126D02*
X364318D01*
X-680Y47872D02*
X364318D01*
X-680Y47618D02*
X364318D01*
X-680Y47364D02*
X364318D01*
X-680Y47110D02*
X364318D01*
X-680Y46856D02*
X364318D01*
X-680Y46602D02*
X364318D01*
X-680Y46348D02*
X364318D01*
X-680Y46094D02*
X364318D01*
X-680Y45840D02*
X364318D01*
X-680Y45586D02*
X364318D01*
X-680Y45332D02*
X364318D01*
X-680Y45078D02*
X364318D01*
X-680Y44824D02*
X364318D01*
X-680Y44570D02*
X364318D01*
X-680Y44316D02*
X364318D01*
X-680Y44062D02*
X364318D01*
X-680Y43808D02*
X364318D01*
X-680Y43554D02*
X364318D01*
X-680Y43300D02*
X364318D01*
X-680Y43046D02*
X364318D01*
X-680Y42792D02*
X364318D01*
X-680Y42538D02*
X364318D01*
X-680Y42284D02*
X364318D01*
X-680Y42030D02*
X364318D01*
X-680Y41776D02*
X364318D01*
X-680Y41522D02*
X364318D01*
X-680Y41268D02*
X364318D01*
X-680Y41014D02*
X364318D01*
X-680Y40760D02*
X364318D01*
X-680Y40506D02*
X364318D01*
X-680Y40252D02*
X364318D01*
X-680Y39998D02*
X364318D01*
X-680Y39744D02*
X364318D01*
X-680Y39490D02*
X364318D01*
X-680Y39236D02*
X364318D01*
X-680Y38982D02*
X364318D01*
X-680Y38728D02*
X364318D01*
X-680Y38474D02*
X364318D01*
X-680Y38220D02*
X364318D01*
X-680Y37966D02*
X364318D01*
X-680Y37712D02*
X364318D01*
X-680Y37458D02*
X364318D01*
X-680Y37204D02*
X364318D01*
X-680Y36950D02*
X364318D01*
X-680Y36696D02*
X364318D01*
X-680Y36442D02*
X364318D01*
X-680Y36188D02*
X364318D01*
X-680Y35934D02*
X364064D01*
X-426Y35680D02*
X364064D01*
X-426Y35426D02*
X364064D01*
X-426Y35172D02*
X364064D01*
X-426Y34918D02*
X364064D01*
X-426Y34664D02*
X364064D01*
X-426Y34410D02*
X364064D01*
X-426Y34156D02*
X364064D01*
X-172Y33902D02*
X363810D01*
X-172Y33648D02*
X363810D01*
X-172Y33394D02*
X363810D01*
X-172Y33140D02*
X363810D01*
X-172Y32886D02*
X363810D01*
X-172Y32632D02*
X363810D01*
X82Y32378D02*
X363556D01*
X82Y32124D02*
X363556D01*
X82Y31870D02*
X363556D01*
X82Y31616D02*
X363556D01*
X336Y31362D02*
X363302D01*
X336Y31108D02*
X363302D01*
X336Y30854D02*
X363302D01*
X336Y30600D02*
X363302D01*
X336Y30346D02*
X363302D01*
X590Y30092D02*
X363048D01*
X590Y29838D02*
X363048D01*
X590Y29584D02*
X363048D01*
X844Y29330D02*
X362794D01*
X844Y29076D02*
X362794D01*
X844Y28822D02*
X362794D01*
X844Y28568D02*
X362794D01*
X1098Y28314D02*
X362540D01*
X1098Y28060D02*
X362540D01*
X1098Y27806D02*
X362540D01*
X1352Y27552D02*
X362286D01*
X1352Y27298D02*
X362286D01*
X1352Y27044D02*
X362286D01*
X1606Y26790D02*
X362032D01*
X1606Y26536D02*
X362032D01*
X1860Y26282D02*
X361778D01*
X1860Y26028D02*
X361778D01*
X1860Y25774D02*
X361778D01*
X2114Y25520D02*
X361524D01*
X2114Y25266D02*
X361524D01*
X2368Y25012D02*
X361270D01*
X2368Y24758D02*
X361270D01*
X2368Y24504D02*
X361270D01*
X2622Y24250D02*
X361016D01*
X2622Y23996D02*
X361016D01*
X2876Y23742D02*
X360762D01*
X2876Y23488D02*
X360762D01*
X3130Y23234D02*
X360508D01*
X3130Y22980D02*
X360508D01*
X3384Y22726D02*
X360254D01*
X3384Y22472D02*
X360254D01*
X3638Y22218D02*
X360000D01*
X3638Y21964D02*
X360000D01*
X3892Y21710D02*
X359746D01*
X3892Y21456D02*
X359746D01*
X4146Y21202D02*
X359492D01*
X4146Y20948D02*
X359492D01*
X4400Y20694D02*
X359238D01*
X4400Y20440D02*
X359238D01*
X4654Y20186D02*
X358984D01*
X4908Y19932D02*
X358730D01*
X4908Y19678D02*
X358730D01*
X5162Y19424D02*
X358476D01*
X5162Y19170D02*
X358476D01*
X5416Y18916D02*
X358222D01*
X5670Y18662D02*
X357968D01*
X5670Y18408D02*
X357968D01*
X5924Y18154D02*
X357714D01*
X6178Y17900D02*
X357460D01*
X6178Y17646D02*
X357460D01*
X6432Y17392D02*
X357206D01*
X6686Y17138D02*
X356952D01*
X6686Y16884D02*
X356952D01*
X6940Y16630D02*
X356698D01*
X7194Y16376D02*
X356444D01*
X7448Y16122D02*
X356190D01*
X7702Y15868D02*
X355936D01*
X7702Y15614D02*
X355936D01*
X7956Y15360D02*
X355682D01*
X8210Y15106D02*
X355428D01*
X8464Y14852D02*
X355174D01*
X8718Y14598D02*
X354920D01*
X8718Y14344D02*
X354920D01*
X8972Y14090D02*
X354666D01*
X9226Y13836D02*
X354412D01*
X9480Y13582D02*
X354158D01*
X9734Y13328D02*
X353904D01*
X9988Y13074D02*
X353650D01*
X10242Y12820D02*
X353396D01*
X10496Y12566D02*
X353142D01*
X10750Y12312D02*
X352888D01*
X11004Y12058D02*
X352634D01*
X11258Y11804D02*
X352380D01*
X11512Y11550D02*
X352126D01*
X11766Y11296D02*
X351872D01*
X12020Y11042D02*
X351618D01*
X12274Y10788D02*
X351364D01*
X12528Y10534D02*
X351110D01*
X12782Y10280D02*
X350856D01*
X13290Y10026D02*
X350602D01*
X13544Y9772D02*
X350094D01*
X13798Y9518D02*
X349840D01*
X14052Y9264D02*
X349586D01*
X14306Y9010D02*
X349332D01*
X14814Y8756D02*
X348824D01*
X15068Y8502D02*
X348570D01*
X15322Y8248D02*
X348316D01*
X15830Y7994D02*
X347808D01*
X16084Y7740D02*
X347554D01*
X16338Y7486D02*
X347300D01*
X16846Y7232D02*
X346792D01*
X17100Y6978D02*
X346538D01*
X17608Y6724D02*
X346030D01*
X18116Y6470D02*
X345522D01*
X18370Y6216D02*
X345268D01*
X18878Y5962D02*
X344760D01*
X19386Y5708D02*
X344252D01*
X19640Y5454D02*
X343998D01*
X20148Y5200D02*
X343490D01*
X20656Y4946D02*
X342982D01*
X21164Y4692D02*
X342474D01*
X21672Y4438D02*
X341966D01*
X22180Y4184D02*
X341458D01*
X22688Y3930D02*
X340950D01*
X23450Y3676D02*
X340188D01*
X23958Y3422D02*
X339680D01*
X24720Y3168D02*
X339172D01*
X25228Y2914D02*
X338410D01*
X25990Y2660D02*
X337648D01*
X26752Y2406D02*
X336886D01*
X27514Y2152D02*
X336124D01*
X28276Y1898D02*
X335362D01*
X29292Y1644D02*
X334346D01*
X30308Y1390D02*
X333330D01*
X31578Y1136D02*
X332060D01*
X33102Y882D02*
X330536D01*
X34880Y628D02*
X328758D01*
D27*
X333204Y424612D02*
X340388Y431796D01*
X328714Y427306D02*
X337828Y436421D01*
X333204Y431796D02*
X333204Y424612D01*
X333204Y431796D02*
X340388D01*
X61500Y443500D02*
Y458499D01*
X74500Y443500D02*
Y458499D01*
X61500D02*
X74500D01*
X72000Y416500D02*
X89001D01*
X41500Y423000D02*
Y435999D01*
X45000Y443500D02*
X61500D01*
X74500D01*
X105000D01*
X108500Y423000D02*
Y435999D01*
M02*
