G04 Layer_Physical_Order=2*
G04 Layer_Color=16711680*
%FSLAX25Y25*%
%MOIN*%
G70*
G01*
G75*
%ADD15C,0.01000*%
%ADD16C,0.06000*%
%ADD17C,0.05905*%
%ADD18R,0.05905X0.05905*%
%ADD19O,0.05905X0.11811*%
%ADD20C,0.03150*%
%ADD21O,0.14800X0.07400*%
%ADD22C,0.01968*%
%ADD23R,0.12598X0.16535*%
%ADD24R,0.43307X0.27559*%
%ADD25R,0.04921X0.39370*%
%ADD26R,0.05905X0.39370*%
%ADD27R,0.33465X0.44291*%
G36*
X14764Y177165D02*
X128920D01*
X130839Y176913D01*
X132709Y176412D01*
X134497Y175671D01*
X136173Y174704D01*
X137708Y173525D01*
X139077Y172157D01*
X140255Y170622D01*
X141222Y168945D01*
X141963Y167157D01*
X142464Y165288D01*
X142717Y163369D01*
Y162402D01*
Y90458D01*
X142217Y90358D01*
X142191Y90420D01*
X141732Y90610D01*
X129134D01*
X128675Y90420D01*
X128484Y89960D01*
Y89704D01*
X125172D01*
X125158Y89725D01*
X124634Y90075D01*
X124016Y90198D01*
X123398Y90075D01*
X122874Y89725D01*
X122523Y89201D01*
X122400Y88583D01*
X122523Y87964D01*
X122874Y87441D01*
X123398Y87090D01*
X124016Y86967D01*
X124634Y87090D01*
X125158Y87441D01*
X125172Y87461D01*
X128079D01*
X128484Y87055D01*
Y73425D01*
X128675Y72966D01*
X129134Y72776D01*
X141732D01*
X142191Y72966D01*
X142217Y73027D01*
X142717Y72928D01*
Y14764D01*
Y13796D01*
X142464Y11877D01*
X141963Y10008D01*
X141222Y8220D01*
X140255Y6544D01*
X139077Y5008D01*
X137708Y3640D01*
X136173Y2462D01*
X134497Y1494D01*
X132709Y753D01*
X130839Y253D01*
X128920Y0D01*
X14764D01*
X13796Y-0D01*
X11877Y253D01*
X10008Y753D01*
X8220Y1494D01*
X6544Y2462D01*
X5008Y3640D01*
X3640Y5008D01*
X2462Y6544D01*
X1494Y8220D01*
X753Y10008D01*
X253Y11877D01*
X-0Y13796D01*
Y14764D01*
X0Y162402D01*
Y163369D01*
X253Y165288D01*
X753Y167157D01*
X1494Y168945D01*
X2462Y170622D01*
X3640Y172157D01*
X5008Y173525D01*
X6544Y174704D01*
X8220Y175671D01*
X10008Y176412D01*
X11877Y176913D01*
X13796Y177165D01*
X14764D01*
Y177165D01*
D02*
G37*
%LPC*%
G36*
X119094Y47875D02*
X118167Y47752D01*
X117302Y47394D01*
X116560Y46825D01*
X115991Y46083D01*
X115633Y45219D01*
X115511Y44291D01*
Y38386D01*
X115633Y37458D01*
X115991Y36594D01*
X116560Y35852D01*
X117302Y35282D01*
X118167Y34924D01*
X119094Y34802D01*
X120022Y34924D01*
X120886Y35282D01*
X121628Y35852D01*
X122197Y36594D01*
X122555Y37458D01*
X122678Y38386D01*
Y44291D01*
X122555Y45219D01*
X122197Y46083D01*
X121628Y46825D01*
X120886Y47394D01*
X120022Y47752D01*
X119094Y47875D01*
D02*
G37*
G36*
X36373Y47728D02*
X34949D01*
Y46305D01*
X35223Y46359D01*
X35879Y46798D01*
X36318Y47454D01*
X36373Y47728D01*
D02*
G37*
G36*
X80709Y58702D02*
X80090Y58579D01*
X79567Y58229D01*
X79216Y57705D01*
X79093Y57087D01*
X79216Y56468D01*
X79567Y55944D01*
X79587Y55931D01*
Y47856D01*
X78797Y47752D01*
X77932Y47394D01*
X77190Y46825D01*
X76621Y46083D01*
X76263Y45219D01*
X76141Y44291D01*
Y38386D01*
X76263Y37458D01*
X76621Y36594D01*
X77190Y35852D01*
X77932Y35282D01*
X78797Y34924D01*
X79724Y34802D01*
X80651Y34924D01*
X81516Y35282D01*
X82258Y35852D01*
X82827Y36594D01*
X83185Y37458D01*
X83307Y38386D01*
Y44291D01*
X83185Y45219D01*
X82827Y46083D01*
X82258Y46825D01*
X81830Y47153D01*
Y55931D01*
X81851Y55944D01*
X82201Y56468D01*
X82324Y57087D01*
X82201Y57705D01*
X81851Y58229D01*
X81327Y58579D01*
X80709Y58702D01*
D02*
G37*
G36*
X101378Y47875D02*
X100451Y47752D01*
X99586Y47394D01*
X98844Y46825D01*
X98275Y46083D01*
X97917Y45219D01*
X97795Y44291D01*
Y38386D01*
X97917Y37458D01*
X98275Y36594D01*
X98844Y35852D01*
X99586Y35282D01*
X100451Y34924D01*
X101378Y34802D01*
X102306Y34924D01*
X103170Y35282D01*
X103912Y35852D01*
X104481Y36594D01*
X104840Y37458D01*
X104962Y38386D01*
Y44291D01*
X104840Y45219D01*
X104481Y46083D01*
X103912Y46825D01*
X103170Y47394D01*
X102306Y47752D01*
X101378Y47875D01*
D02*
G37*
G36*
X99409Y96122D02*
X56102D01*
X55643Y95932D01*
X55453Y95472D01*
Y67913D01*
X55643Y67454D01*
X56102Y67264D01*
X99409D01*
X99869Y67454D01*
X100059Y67913D01*
Y95472D01*
X99869Y95932D01*
X99409Y96122D01*
D02*
G37*
G36*
X19579Y81193D02*
X12760D01*
Y73425D01*
X12838Y73035D01*
X13059Y72704D01*
X13390Y72483D01*
X13780Y72406D01*
X19579D01*
Y81193D01*
D02*
G37*
G36*
X34949Y50152D02*
Y48728D01*
X36373D01*
X36318Y49003D01*
X35879Y49659D01*
X35223Y50098D01*
X34949Y50152D01*
D02*
G37*
G36*
X35326Y59146D02*
X33903D01*
X33957Y58872D01*
X34396Y58216D01*
X35052Y57777D01*
X35326Y57723D01*
Y59146D01*
D02*
G37*
G36*
X62008Y22285D02*
X61081Y22162D01*
X60216Y21804D01*
X59474Y21235D01*
X58905Y20493D01*
X58547Y19628D01*
X58425Y18701D01*
Y12796D01*
X58547Y11868D01*
X58905Y11004D01*
X59474Y10262D01*
X60216Y9692D01*
X61081Y9334D01*
X62008Y9212D01*
X62936Y9334D01*
X63800Y9692D01*
X64542Y10262D01*
X65111Y11004D01*
X65469Y11868D01*
X65592Y12796D01*
Y18701D01*
X65469Y19628D01*
X65111Y20493D01*
X64542Y21235D01*
X63800Y21804D01*
X62936Y22162D01*
X62008Y22285D01*
D02*
G37*
G36*
X79724D02*
X78797Y22162D01*
X77932Y21804D01*
X77190Y21235D01*
X76621Y20493D01*
X76263Y19628D01*
X76141Y18701D01*
Y12796D01*
X76263Y11868D01*
X76621Y11004D01*
X77190Y10262D01*
X77932Y9692D01*
X78797Y9334D01*
X79724Y9212D01*
X80651Y9334D01*
X81516Y9692D01*
X82258Y10262D01*
X82827Y11004D01*
X83185Y11868D01*
X83307Y12796D01*
Y18701D01*
X83185Y19628D01*
X82827Y20493D01*
X82258Y21235D01*
X81516Y21804D01*
X80651Y22162D01*
X79724Y22285D01*
D02*
G37*
G36*
X23622D02*
X22695Y22162D01*
X21831Y21804D01*
X21089Y21235D01*
X20519Y20493D01*
X20161Y19628D01*
X20039Y18701D01*
Y12796D01*
X20161Y11868D01*
X20519Y11004D01*
X21089Y10262D01*
X21831Y9692D01*
X22695Y9334D01*
X23622Y9212D01*
X24550Y9334D01*
X25414Y9692D01*
X26156Y10262D01*
X26726Y11004D01*
X27084Y11868D01*
X27206Y12796D01*
Y18701D01*
X27084Y19628D01*
X26726Y20493D01*
X26156Y21235D01*
X25414Y21804D01*
X24550Y22162D01*
X23622Y22285D01*
D02*
G37*
G36*
X41338D02*
X40411Y22162D01*
X39547Y21804D01*
X38805Y21235D01*
X38235Y20493D01*
X37877Y19628D01*
X37755Y18701D01*
Y12796D01*
X37877Y11868D01*
X38235Y11004D01*
X38805Y10262D01*
X39547Y9692D01*
X40411Y9334D01*
X41338Y9212D01*
X42266Y9334D01*
X43130Y9692D01*
X43872Y10262D01*
X44442Y11004D01*
X44800Y11868D01*
X44922Y12796D01*
Y18701D01*
X44800Y19628D01*
X44442Y20493D01*
X43872Y21235D01*
X43130Y21804D01*
X42266Y22162D01*
X41338Y22285D01*
D02*
G37*
G36*
X23622Y47875D02*
X22695Y47752D01*
X21831Y47394D01*
X21089Y46825D01*
X20519Y46083D01*
X20161Y45219D01*
X20039Y44291D01*
Y38386D01*
X20161Y37458D01*
X20519Y36594D01*
X21089Y35852D01*
X21831Y35282D01*
X22695Y34924D01*
X23622Y34802D01*
X24550Y34924D01*
X25414Y35282D01*
X26156Y35852D01*
X26726Y36594D01*
X27084Y37458D01*
X27206Y38386D01*
Y44291D01*
X27084Y45219D01*
X26726Y46083D01*
X26156Y46825D01*
X25414Y47394D01*
X24550Y47752D01*
X23622Y47875D01*
D02*
G37*
G36*
X62008D02*
X61081Y47752D01*
X60216Y47394D01*
X59474Y46825D01*
X58905Y46083D01*
X58547Y45219D01*
X58425Y44291D01*
Y38386D01*
X58547Y37458D01*
X58905Y36594D01*
X59474Y35852D01*
X60216Y35282D01*
X61081Y34924D01*
X62008Y34802D01*
X62936Y34924D01*
X63800Y35282D01*
X64542Y35852D01*
X65111Y36594D01*
X65469Y37458D01*
X65592Y38386D01*
Y44291D01*
X65469Y45219D01*
X65111Y46083D01*
X64542Y46825D01*
X63800Y47394D01*
X62936Y47752D01*
X62008Y47875D01*
D02*
G37*
G36*
X101378Y22285D02*
X100451Y22162D01*
X99586Y21804D01*
X98844Y21235D01*
X98275Y20493D01*
X97917Y19628D01*
X97795Y18701D01*
Y12796D01*
X97917Y11868D01*
X98275Y11004D01*
X98844Y10262D01*
X99586Y9692D01*
X100451Y9334D01*
X101378Y9212D01*
X102306Y9334D01*
X103170Y9692D01*
X103912Y10262D01*
X104481Y11004D01*
X104840Y11868D01*
X104962Y12796D01*
Y18701D01*
X104840Y19628D01*
X104481Y20493D01*
X103912Y21235D01*
X103170Y21804D01*
X102306Y22162D01*
X101378Y22285D01*
D02*
G37*
G36*
X119094D02*
X118167Y22162D01*
X117302Y21804D01*
X116560Y21235D01*
X115991Y20493D01*
X115633Y19628D01*
X115511Y18701D01*
Y12796D01*
X115633Y11868D01*
X115991Y11004D01*
X116560Y10262D01*
X117302Y9692D01*
X118167Y9334D01*
X119094Y9212D01*
X120022Y9334D01*
X120886Y9692D01*
X121628Y10262D01*
X122197Y11004D01*
X122555Y11868D01*
X122678Y12796D01*
Y18701D01*
X122555Y19628D01*
X122197Y20493D01*
X121628Y21235D01*
X120886Y21804D01*
X120022Y22162D01*
X119094Y22285D01*
D02*
G37*
G36*
X6390Y146153D02*
X2917D01*
Y143701D01*
X2995Y143311D01*
X3216Y142980D01*
X3547Y142759D01*
X3937Y142681D01*
X6390D01*
Y146153D01*
D02*
G37*
G36*
X6890Y155159D02*
X6272Y155036D01*
X5748Y154685D01*
X5397Y154161D01*
X5274Y153543D01*
X5397Y152925D01*
X5748Y152401D01*
X6272Y152051D01*
X6890Y151928D01*
X7508Y152051D01*
X8032Y152401D01*
X8496Y152319D01*
X9690Y151126D01*
X9482Y150626D01*
X7390D01*
Y146653D01*
Y142681D01*
X9843D01*
X10233Y142759D01*
X10564Y142980D01*
X10785Y143311D01*
X10862Y143701D01*
Y144379D01*
X11324Y144570D01*
X15611Y140284D01*
Y105315D01*
X15611Y105315D01*
X15611Y105315D01*
Y90980D01*
X13780D01*
X13390Y90902D01*
X13059Y90681D01*
X12838Y90351D01*
X12760Y89960D01*
Y82193D01*
X20079D01*
Y81693D01*
X20579D01*
Y72406D01*
X21481D01*
X22501Y71386D01*
Y68898D01*
X22501Y68898D01*
X22586Y68468D01*
X22829Y68105D01*
X24469Y66465D01*
Y50197D01*
X24469Y50197D01*
X24554Y49768D01*
X24798Y49404D01*
X26766Y47435D01*
X27130Y47192D01*
X27559Y47107D01*
X27559Y47107D01*
X32812D01*
X33018Y46798D01*
X33675Y46359D01*
X33949Y46305D01*
Y48228D01*
Y50152D01*
X33675Y50098D01*
X33018Y49659D01*
X32812Y49350D01*
X28024D01*
X26712Y50661D01*
Y66929D01*
X26712Y66929D01*
X26656Y67214D01*
X27110Y67466D01*
X34037Y60540D01*
X33957Y60420D01*
X33903Y60146D01*
X35826D01*
Y59646D01*
X36326D01*
Y57723D01*
X36601Y57777D01*
X37257Y58216D01*
X37695Y58872D01*
X37700Y58897D01*
X37841Y58955D01*
X38214Y58917D01*
X38228Y58897D01*
X38752Y58547D01*
X39370Y58424D01*
X39717Y58493D01*
X40217Y58144D01*
Y47672D01*
X39547Y47394D01*
X38805Y46825D01*
X38235Y46083D01*
X37877Y45219D01*
X37755Y44291D01*
Y38386D01*
X37877Y37458D01*
X38235Y36594D01*
X38805Y35852D01*
X39547Y35282D01*
X40411Y34924D01*
X41338Y34802D01*
X42266Y34924D01*
X43130Y35282D01*
X43872Y35852D01*
X44442Y36594D01*
X44800Y37458D01*
X44922Y38386D01*
Y44291D01*
X44800Y45219D01*
X44442Y46083D01*
X43872Y46825D01*
X43130Y47394D01*
X42460Y47672D01*
Y58701D01*
X42491Y58747D01*
X42576Y59176D01*
Y60903D01*
X42491Y61332D01*
X42460Y61378D01*
Y107806D01*
X42960Y108013D01*
X43665Y107308D01*
X43660Y107283D01*
X43783Y106665D01*
X44133Y106141D01*
X44657Y105791D01*
X45276Y105668D01*
X45894Y105791D01*
X46418Y106141D01*
X46768Y106665D01*
X46891Y107283D01*
X46768Y107902D01*
X46418Y108426D01*
X45894Y108776D01*
X45276Y108899D01*
X45251Y108894D01*
X44429Y109716D01*
Y131890D01*
X44429Y131890D01*
X44343Y132319D01*
X44100Y132683D01*
X44100Y132683D01*
X38195Y138588D01*
X37831Y138831D01*
X37402Y138917D01*
X37402Y138917D01*
X22638D01*
X22209Y138831D01*
X21845Y138588D01*
X21845Y138588D01*
X18892Y135636D01*
X18649Y135272D01*
X18564Y134843D01*
X18564Y134843D01*
Y128253D01*
X18354Y128061D01*
X17854Y128281D01*
Y140748D01*
X17768Y141177D01*
X17525Y141541D01*
X17525Y141541D01*
X11620Y147447D01*
X11256Y147690D01*
X10862Y147768D01*
Y149246D01*
X11362Y149453D01*
X17908Y142908D01*
X17908Y142908D01*
X18272Y142665D01*
X18701Y142579D01*
X18701Y142579D01*
X28372D01*
X28385Y142559D01*
X28909Y142209D01*
X29528Y142086D01*
X30146Y142209D01*
X30670Y142559D01*
X31020Y143083D01*
X31143Y143701D01*
X31020Y144319D01*
X30670Y144843D01*
X30146Y145193D01*
X29528Y145316D01*
X28909Y145193D01*
X28385Y144843D01*
X28372Y144822D01*
X19165D01*
X9651Y154336D01*
X9287Y154579D01*
X8858Y154665D01*
X8858Y154665D01*
X8046D01*
X8032Y154685D01*
X7508Y155036D01*
X6890Y155159D01*
D02*
G37*
G36*
Y140237D02*
X5962Y140115D01*
X5098Y139757D01*
X4356Y139187D01*
X3786Y138445D01*
X3429Y137581D01*
X3306Y136653D01*
X3429Y135726D01*
X3786Y134862D01*
X4356Y134120D01*
X5098Y133550D01*
X5962Y133192D01*
X6890Y133070D01*
X7817Y133192D01*
X8681Y133550D01*
X9424Y134120D01*
X9993Y134862D01*
X10351Y135726D01*
X10473Y136653D01*
X10351Y137581D01*
X9993Y138445D01*
X9424Y139187D01*
X8681Y139757D01*
X7817Y140115D01*
X6890Y140237D01*
D02*
G37*
G36*
X6390Y150626D02*
X3937D01*
X3547Y150548D01*
X3216Y150327D01*
X2995Y149996D01*
X2917Y149606D01*
Y147153D01*
X6390D01*
Y150626D01*
D02*
G37*
G36*
X35434Y171547D02*
X35372Y171521D01*
X35307Y171534D01*
X34692Y171412D01*
X34585Y171340D01*
X34458Y171315D01*
X33937Y170967D01*
X33865Y170860D01*
X33758Y170788D01*
X33410Y170267D01*
X33385Y170140D01*
X33313Y170033D01*
X33191Y169418D01*
X33216Y169291D01*
X33191Y169165D01*
X33313Y168550D01*
X33385Y168443D01*
X33410Y168316D01*
X33758Y167795D01*
X33865Y167723D01*
X33937Y167616D01*
X34458Y167268D01*
X34585Y167243D01*
X34692Y167171D01*
X35307Y167049D01*
X35372Y167062D01*
X35434Y167036D01*
X35495Y167062D01*
X35560Y167049D01*
X36175Y167171D01*
X36282Y167243D01*
X36409Y167268D01*
X36930Y167616D01*
X37002Y167723D01*
X37109Y167795D01*
X37457Y168316D01*
X37482Y168443D01*
X37554Y168550D01*
X37676Y169165D01*
X37651Y169291D01*
X37676Y169418D01*
X37554Y170033D01*
X37482Y170140D01*
X37457Y170267D01*
X37109Y170788D01*
X37002Y170860D01*
X36930Y170967D01*
X36409Y171315D01*
X36282Y171340D01*
X36175Y171412D01*
X35560Y171534D01*
X35495Y171521D01*
X35434Y171547D01*
D02*
G37*
G36*
X23622D02*
X23560Y171521D01*
X23495Y171534D01*
X22880Y171412D01*
X22773Y171340D01*
X22646Y171315D01*
X22125Y170967D01*
X22053Y170860D01*
X21946Y170788D01*
X21598Y170267D01*
X21573Y170140D01*
X21501Y170033D01*
X21379Y169418D01*
X21404Y169291D01*
X21379Y169165D01*
X21501Y168550D01*
X21573Y168443D01*
X21598Y168316D01*
X21946Y167795D01*
X22053Y167723D01*
X22125Y167616D01*
X22646Y167268D01*
X22773Y167243D01*
X22880Y167171D01*
X23495Y167049D01*
X23560Y167062D01*
X23622Y167036D01*
X23683Y167062D01*
X23748Y167049D01*
X24363Y167171D01*
X24470Y167243D01*
X24597Y167268D01*
X25118Y167616D01*
X25190Y167723D01*
X25297Y167795D01*
X25645Y168316D01*
X25670Y168443D01*
X25742Y168550D01*
X25864Y169165D01*
X25839Y169291D01*
X25864Y169418D01*
X25742Y170033D01*
X25670Y170140D01*
X25645Y170267D01*
X25297Y170788D01*
X25190Y170860D01*
X25118Y170967D01*
X24597Y171315D01*
X24470Y171340D01*
X24363Y171412D01*
X23748Y171534D01*
X23683Y171521D01*
X23622Y171547D01*
D02*
G37*
G36*
X99410Y162539D02*
X60039D01*
X59610Y162453D01*
X59246Y162210D01*
X59003Y161846D01*
X58918Y161417D01*
X58920Y161405D01*
X58792Y160433D01*
X58412Y159515D01*
X58058Y159053D01*
X57482Y158478D01*
X57020Y158123D01*
X56103Y157743D01*
X55130Y157615D01*
X55118Y157618D01*
X54689Y157532D01*
X54325Y157289D01*
X54082Y156925D01*
X53997Y156496D01*
Y117126D01*
X54082Y116697D01*
X54325Y116333D01*
X54689Y116090D01*
X55118Y116004D01*
X94488D01*
X94917Y116090D01*
X95281Y116333D01*
X95524Y116697D01*
X95610Y117126D01*
X95607Y117138D01*
X95735Y118111D01*
X96115Y119028D01*
X96720Y119816D01*
X97508Y120420D01*
X98425Y120800D01*
X98934Y120867D01*
X99410Y120926D01*
X99839Y121011D01*
X99866Y121030D01*
X100203Y121254D01*
X100446Y121618D01*
X100531Y122047D01*
Y161417D01*
X100446Y161846D01*
X100203Y162210D01*
X99839Y162453D01*
X99410Y162539D01*
D02*
G37*
G36*
X6890Y130237D02*
X5962Y130115D01*
X5098Y129757D01*
X4356Y129187D01*
X3786Y128445D01*
X3429Y127581D01*
X3306Y126654D01*
X3429Y125726D01*
X3786Y124862D01*
X4356Y124120D01*
X5098Y123550D01*
X5962Y123192D01*
X6890Y123070D01*
X7817Y123192D01*
X8681Y123550D01*
X9424Y124120D01*
X9993Y124862D01*
X10351Y125726D01*
X10473Y126654D01*
X10351Y127581D01*
X9993Y128445D01*
X9424Y129187D01*
X8681Y129757D01*
X7817Y130115D01*
X6890Y130237D01*
D02*
G37*
G36*
Y110237D02*
X5962Y110115D01*
X5098Y109757D01*
X4356Y109187D01*
X3786Y108445D01*
X3429Y107581D01*
X3306Y106653D01*
X3429Y105726D01*
X3786Y104862D01*
X4356Y104120D01*
X5098Y103550D01*
X5962Y103192D01*
X6890Y103070D01*
X7817Y103192D01*
X8681Y103550D01*
X9424Y104120D01*
X9993Y104862D01*
X10351Y105726D01*
X10473Y106653D01*
X10351Y107581D01*
X9993Y108445D01*
X9424Y109187D01*
X8681Y109757D01*
X7817Y110115D01*
X6890Y110237D01*
D02*
G37*
G36*
Y100237D02*
X5962Y100115D01*
X5098Y99757D01*
X4356Y99187D01*
X3786Y98445D01*
X3429Y97581D01*
X3306Y96653D01*
X3429Y95726D01*
X3786Y94862D01*
X4356Y94120D01*
X5098Y93550D01*
X5962Y93192D01*
X6890Y93070D01*
X7817Y93192D01*
X8681Y93550D01*
X9424Y94120D01*
X9993Y94862D01*
X10351Y95726D01*
X10473Y96653D01*
X10351Y97581D01*
X9993Y98445D01*
X9424Y99187D01*
X8681Y99757D01*
X7817Y100115D01*
X6890Y100237D01*
D02*
G37*
G36*
X128937Y171947D02*
X128906Y171934D01*
X128873Y171944D01*
X127330Y171792D01*
X127271Y171761D01*
X127205Y171767D01*
X125721Y171317D01*
X125669Y171275D01*
X125603Y171268D01*
X124235Y170537D01*
X124193Y170486D01*
X124129Y170466D01*
X122930Y169483D01*
X122899Y169424D01*
X122840Y169393D01*
X121856Y168193D01*
X121837Y168130D01*
X121786Y168088D01*
X121054Y166720D01*
X121048Y166654D01*
X121006Y166602D01*
X120555Y165118D01*
X120562Y165052D01*
X120531Y164993D01*
X120379Y163450D01*
X120398Y163386D01*
X120379Y163322D01*
X120531Y161779D01*
X120562Y161720D01*
X120555Y161654D01*
X121006Y160169D01*
X121048Y160118D01*
X121054Y160052D01*
X121786Y158684D01*
X121837Y158642D01*
X121856Y158578D01*
X122840Y157379D01*
X122899Y157348D01*
X122930Y157289D01*
X124129Y156305D01*
X124193Y156286D01*
X124235Y156234D01*
X125603Y155503D01*
X125669Y155497D01*
X125721Y155455D01*
X127205Y155004D01*
X127271Y155011D01*
X127330Y154979D01*
X128873Y154827D01*
X128906Y154837D01*
X128937Y154824D01*
X128968Y154837D01*
X129001Y154827D01*
X130544Y154979D01*
X130603Y155011D01*
X130669Y155004D01*
X132153Y155455D01*
X132205Y155497D01*
X132271Y155503D01*
X133639Y156234D01*
X133681Y156286D01*
X133745Y156305D01*
X134944Y157289D01*
X134975Y157348D01*
X135034Y157379D01*
X136018Y158578D01*
X136037Y158642D01*
X136088Y158684D01*
X136820Y160052D01*
X136826Y160118D01*
X136868Y160169D01*
X137319Y161654D01*
X137312Y161720D01*
X137343Y161779D01*
X137495Y163322D01*
X137476Y163386D01*
X137495Y163450D01*
X137343Y164993D01*
X137312Y165052D01*
X137319Y165118D01*
X136868Y166602D01*
X136826Y166654D01*
X136820Y166720D01*
X136088Y168088D01*
X136037Y168130D01*
X136018Y168193D01*
X135034Y169393D01*
X134975Y169424D01*
X134944Y169483D01*
X133745Y170466D01*
X133681Y170486D01*
X133639Y170537D01*
X132271Y171268D01*
X132205Y171275D01*
X132153Y171317D01*
X130669Y171767D01*
X130603Y171761D01*
X130544Y171792D01*
X129001Y171944D01*
X128968Y171934D01*
X128937Y171947D01*
D02*
G37*
G36*
X6890Y120237D02*
X5962Y120115D01*
X5098Y119757D01*
X4356Y119187D01*
X3786Y118445D01*
X3429Y117581D01*
X3306Y116654D01*
X3429Y115726D01*
X3786Y114862D01*
X4356Y114120D01*
X5098Y113550D01*
X5962Y113192D01*
X6890Y113070D01*
X7817Y113192D01*
X8681Y113550D01*
X9424Y114120D01*
X9993Y114862D01*
X10351Y115726D01*
X10473Y116654D01*
X10351Y117581D01*
X9993Y118445D01*
X9424Y119187D01*
X8681Y119757D01*
X7817Y120115D01*
X6890Y120237D01*
D02*
G37*
%LPD*%
G36*
X40217Y129457D02*
Y110566D01*
X39717Y110346D01*
X39507Y110537D01*
Y121063D01*
X39422Y121492D01*
X39179Y121856D01*
X39179Y121856D01*
X37919Y123116D01*
X37555Y123359D01*
X37126Y123444D01*
X37126Y123444D01*
X36590D01*
X36590Y123445D01*
X36157Y124491D01*
X35468Y125390D01*
X34569Y126079D01*
X33523Y126512D01*
X32401Y126660D01*
X25001D01*
X23878Y126512D01*
X22832Y126079D01*
X21934Y125390D01*
X21245Y124491D01*
X20811Y123445D01*
X20664Y122323D01*
X20811Y121200D01*
X21245Y120154D01*
X21934Y119256D01*
X22832Y118567D01*
X23878Y118133D01*
X25001Y117986D01*
X32401D01*
X33523Y118133D01*
X34569Y118567D01*
X35468Y119256D01*
X36157Y120154D01*
X36400Y120742D01*
X36866Y120843D01*
X37264Y120494D01*
Y110408D01*
X37244Y110394D01*
X36893Y109870D01*
X36770Y109252D01*
X36893Y108634D01*
X37244Y108110D01*
X37768Y107760D01*
X38386Y107637D01*
X39004Y107760D01*
X39528Y108110D01*
X39717Y108392D01*
X40217Y108241D01*
Y61935D01*
X39717Y61586D01*
X39370Y61655D01*
X38752Y61532D01*
X38589Y61423D01*
X28681Y71331D01*
Y90551D01*
X28595Y90980D01*
X28352Y91344D01*
X28352Y91344D01*
X26384Y93313D01*
X26020Y93556D01*
X25591Y93641D01*
X25591Y93641D01*
X24087D01*
X21295Y96432D01*
X21300Y96457D01*
X21177Y97075D01*
X20827Y97599D01*
X20303Y97949D01*
X19685Y98072D01*
X19067Y97949D01*
X18543Y97599D01*
X18354Y97316D01*
X17854Y97468D01*
Y101954D01*
X18316Y102145D01*
X18931Y101530D01*
X18931Y101530D01*
X19295Y101287D01*
X19724Y101201D01*
X19725Y101201D01*
X20408D01*
X20422Y101096D01*
X20895Y99953D01*
X21649Y98971D01*
X22630Y98217D01*
X23774Y97744D01*
X25001Y97582D01*
X28201D01*
Y102323D01*
Y107063D01*
X25001D01*
X23774Y106902D01*
X22630Y106428D01*
X21649Y105675D01*
X20895Y104693D01*
X20530Y103811D01*
X19960Y103674D01*
X17854Y105780D01*
Y125958D01*
X18354Y126109D01*
X18543Y125826D01*
X19067Y125476D01*
X19685Y125353D01*
X20303Y125476D01*
X20827Y125826D01*
X21177Y126350D01*
X21300Y126969D01*
X21177Y127587D01*
X20827Y128111D01*
X20807Y128124D01*
Y129939D01*
X20992Y130030D01*
X21307Y130074D01*
X21934Y129256D01*
X22832Y128567D01*
X23878Y128133D01*
X25001Y127986D01*
X32401D01*
X33523Y128133D01*
X34569Y128567D01*
X35468Y129256D01*
X36157Y130154D01*
X36590Y131200D01*
X36590Y131201D01*
X38473D01*
X40217Y129457D01*
D02*
G37*
%LPC*%
G36*
X37075Y101823D02*
X29201D01*
Y97582D01*
X32401D01*
X33628Y97744D01*
X34771Y98217D01*
X35753Y98971D01*
X36506Y99953D01*
X36980Y101096D01*
X37075Y101823D01*
D02*
G37*
G36*
X32401Y116660D02*
X25001D01*
X23878Y116512D01*
X22832Y116079D01*
X21934Y115390D01*
X21245Y114491D01*
X20811Y113445D01*
X20664Y112323D01*
X20811Y111200D01*
X21245Y110154D01*
X21934Y109256D01*
X22832Y108567D01*
X23878Y108133D01*
X25001Y107986D01*
X32401D01*
X33523Y108133D01*
X34569Y108567D01*
X35468Y109256D01*
X36157Y110154D01*
X36590Y111200D01*
X36738Y112323D01*
X36590Y113445D01*
X36157Y114491D01*
X35468Y115390D01*
X34569Y116079D01*
X33523Y116512D01*
X32401Y116660D01*
D02*
G37*
G36*
Y107063D02*
X29201D01*
Y102823D01*
X37075D01*
X36980Y103550D01*
X36506Y104693D01*
X35753Y105675D01*
X34771Y106428D01*
X33628Y106902D01*
X32401Y107063D01*
D02*
G37*
%LPD*%
D15*
X99410Y122047D02*
G03*
X94488Y117126I0J-4921D01*
G01*
X55118Y156496D02*
G03*
X60039Y161417I0J4921D01*
G01*
X6890Y153543D02*
X8858D01*
X18701Y143701D01*
X29528D01*
X128543Y88583D02*
X135433Y81693D01*
X124016Y88583D02*
X128543D01*
X19685Y126969D02*
Y134843D01*
X22638Y137795D01*
X37402D01*
X43307Y131890D01*
Y109252D02*
Y131890D01*
Y109252D02*
X45276Y107283D01*
X28701Y122323D02*
X37126D01*
X38386Y121063D01*
X28701Y132323D02*
X38937D01*
X79724Y41338D02*
X80709Y42323D01*
Y57087D01*
X6890Y136653D02*
Y136811D01*
X16732Y85040D02*
X20079Y81693D01*
X16732Y85040D02*
Y105315D01*
X19724Y102323D02*
X28701D01*
X16732Y105315D02*
X19724Y102323D01*
X16732Y105315D02*
Y140748D01*
X10827Y146653D02*
X16732Y140748D01*
X6890Y146653D02*
X10827D01*
X99410Y122047D02*
Y161417D01*
X60039D02*
X99410D01*
X95472Y121063D02*
X96457Y122047D01*
Y123031D01*
Y126969D01*
X95472Y127953D02*
X96457Y126969D01*
X95472Y122047D02*
Y127953D01*
X94488Y121063D02*
X95472Y122047D01*
X94488Y120079D02*
Y121063D01*
Y120079D02*
X95472Y121063D01*
Y122047D01*
X94488Y121063D02*
X95472Y122047D01*
X94488Y121063D02*
Y122047D01*
Y126969D01*
X62008Y159449D02*
X94488Y126969D01*
X62008Y159449D02*
X62008D01*
X61024Y160433D02*
X62008Y159449D01*
X61024Y160433D02*
Y160433D01*
X57087Y156496D02*
X61024Y160433D01*
X56102Y156496D02*
X57087D01*
X56102D02*
X56102Y156496D01*
X58071D01*
Y157480D01*
X61024Y160433D01*
Y160433D02*
Y160433D01*
X60039Y159449D02*
X61024Y160433D01*
X60039Y159449D02*
X61024D01*
X58071Y156496D02*
X61024Y159449D01*
X58071Y156496D02*
Y156496D01*
X58071Y156496D02*
X58071Y156496D01*
X58071Y156496D02*
X61024D01*
X61024Y156496D02*
X61024Y156496D01*
X59055Y156496D02*
X61024D01*
X59055D02*
X61024Y158465D01*
Y159449D01*
X59055Y157480D02*
X61024Y159449D01*
X58071Y157480D02*
X59055D01*
X58071D02*
X60039D01*
X61024Y156496D01*
Y156496D02*
Y156496D01*
X60039Y155512D02*
X61024Y156496D01*
X60039Y155512D02*
X61024D01*
Y161417D01*
X55118Y117126D02*
X94488D01*
X55118D02*
Y156496D01*
X19685Y96457D02*
X23622Y92520D01*
X25591D01*
X20079Y78346D02*
Y81693D01*
X27559Y48228D02*
X34449D01*
X25591Y50197D02*
X27559Y48228D01*
X20079Y75393D02*
X23622Y71850D01*
Y68898D02*
Y71850D01*
Y68898D02*
X25591Y66929D01*
Y50197D02*
Y66929D01*
Y70572D02*
X35826Y60336D01*
X25591Y70572D02*
Y72835D01*
X20079Y78346D02*
X25591Y72835D01*
X27559Y70866D02*
X38386Y60039D01*
X27559Y70866D02*
Y90551D01*
X25591Y92520D02*
X27559Y90551D01*
X38386Y109252D02*
Y121063D01*
X35826Y59646D02*
Y60336D01*
X38386Y60039D02*
X39370D01*
X38937Y132323D02*
X41338Y129921D01*
Y41338D02*
Y59060D01*
X41454Y59176D01*
Y60903D01*
X41338Y61019D02*
X41454Y60903D01*
X41338Y61019D02*
Y129921D01*
D16*
X128937Y163386D02*
D03*
D17*
X6890Y96653D02*
D03*
Y106653D02*
D03*
Y116654D02*
D03*
Y126654D02*
D03*
Y136653D02*
D03*
D18*
Y146653D02*
D03*
D19*
X79724Y41338D02*
D03*
Y15748D02*
D03*
X62008Y41338D02*
D03*
Y15748D02*
D03*
X23622D02*
D03*
Y41338D02*
D03*
X41338Y15748D02*
D03*
Y41338D02*
D03*
X119094D02*
D03*
Y15748D02*
D03*
X101378Y41338D02*
D03*
Y15748D02*
D03*
D20*
X35434Y169291D02*
D03*
X23622D02*
D03*
D21*
X28701Y102323D02*
D03*
Y112323D02*
D03*
Y122323D02*
D03*
Y132323D02*
D03*
D22*
X6890Y153543D02*
D03*
X29528Y143701D02*
D03*
X124016Y88583D02*
D03*
X19685Y126969D02*
D03*
X45276Y107283D02*
D03*
X34449Y48228D02*
D03*
X80709Y57087D02*
D03*
X19685Y96457D02*
D03*
X38386Y109252D02*
D03*
X35826Y59646D02*
D03*
X39370Y60039D02*
D03*
D23*
X135433Y81693D02*
D03*
X20079D02*
D03*
D24*
X77756D02*
D03*
D25*
X96949Y141732D02*
D03*
D26*
X58071Y136811D02*
D03*
D27*
X77756Y139272D02*
D03*
M02*
