G04 Layer_Physical_Order=1*
G04 Layer_Color=255*
%FSLAX44Y44*%
%MOMM*%
G71*
G01*
G75*
%ADD10C,0.2540*%
%ADD11C,1.5000*%
%ADD12R,1.5000X1.5000*%
%ADD13C,3.0000*%
G36*
X362500Y0D02*
X0D01*
Y450000D01*
X362500D01*
Y0D01*
D02*
G37*
%LPC*%
G36*
X208259Y98730D02*
X199570D01*
Y90041D01*
X200921Y90218D01*
X203363Y91230D01*
X205461Y92839D01*
X207070Y94937D01*
X208082Y97379D01*
X208259Y98730D01*
D02*
G37*
G36*
X197030Y109959D02*
X195679Y109782D01*
X193237Y108770D01*
X191139Y107161D01*
X189530Y105063D01*
X188518Y102621D01*
X188341Y101270D01*
X197030D01*
Y109959D01*
D02*
G37*
G36*
Y98730D02*
X188341D01*
X188518Y97379D01*
X189530Y94937D01*
X191139Y92839D01*
X193237Y91230D01*
X195679Y90218D01*
X197030Y90041D01*
Y98730D01*
D02*
G37*
G36*
X37500Y54222D02*
X37421Y54189D01*
X37338Y54214D01*
X34398Y53925D01*
X34249Y53845D01*
X34081Y53861D01*
X31253Y53004D01*
X31123Y52897D01*
X30954Y52880D01*
X28349Y51487D01*
X28241Y51357D01*
X28080Y51308D01*
X25796Y49433D01*
X25716Y49284D01*
X25567Y49204D01*
X23693Y46920D01*
X23643Y46759D01*
X23513Y46652D01*
X22120Y44046D01*
X22103Y43878D01*
X21996Y43747D01*
X21139Y40919D01*
X21155Y40751D01*
X21075Y40602D01*
X20786Y37662D01*
X20835Y37500D01*
X20786Y37338D01*
X21075Y34398D01*
X21155Y34249D01*
X21139Y34081D01*
X21996Y31253D01*
X22103Y31123D01*
X22120Y30954D01*
X23513Y28349D01*
X23643Y28241D01*
X23693Y28080D01*
X25567Y25796D01*
X25716Y25716D01*
X25796Y25567D01*
X28080Y23693D01*
X28241Y23643D01*
X28349Y23513D01*
X30954Y22120D01*
X31123Y22103D01*
X31253Y21996D01*
X34081Y21139D01*
X34249Y21155D01*
X34398Y21075D01*
X37338Y20786D01*
X37421Y20811D01*
X37500Y20778D01*
X37579Y20811D01*
X37662Y20786D01*
X40602Y21075D01*
X40751Y21155D01*
X40919Y21139D01*
X43747Y21996D01*
X43878Y22103D01*
X44046Y22120D01*
X46652Y23513D01*
X46759Y23643D01*
X46920Y23693D01*
X49204Y25567D01*
X49284Y25716D01*
X49433Y25796D01*
X51308Y28080D01*
X51357Y28241D01*
X51487Y28349D01*
X52880Y30954D01*
X52897Y31123D01*
X53004Y31253D01*
X53861Y34081D01*
X53845Y34249D01*
X53925Y34398D01*
X54214Y37338D01*
X54165Y37500D01*
X54214Y37662D01*
X53925Y40602D01*
X53845Y40751D01*
X53861Y40919D01*
X53004Y43747D01*
X52897Y43878D01*
X52880Y44046D01*
X51487Y46652D01*
X51357Y46759D01*
X51308Y46920D01*
X49433Y49204D01*
X49284Y49284D01*
X49204Y49433D01*
X46920Y51308D01*
X46759Y51357D01*
X46652Y51487D01*
X44046Y52880D01*
X43878Y52897D01*
X43747Y53004D01*
X40919Y53861D01*
X40751Y53845D01*
X40602Y53925D01*
X37662Y54214D01*
X37579Y54189D01*
X37500Y54222D01*
D02*
G37*
G36*
X325000D02*
X324921Y54189D01*
X324838Y54214D01*
X321898Y53925D01*
X321749Y53845D01*
X321581Y53861D01*
X318753Y53004D01*
X318623Y52897D01*
X318454Y52880D01*
X315849Y51487D01*
X315741Y51357D01*
X315580Y51308D01*
X313296Y49433D01*
X313216Y49284D01*
X313067Y49204D01*
X311192Y46920D01*
X311143Y46759D01*
X311013Y46652D01*
X309620Y44046D01*
X309603Y43878D01*
X309496Y43747D01*
X308638Y40919D01*
X308655Y40751D01*
X308575Y40602D01*
X308286Y37662D01*
X308335Y37500D01*
X308286Y37338D01*
X308575Y34398D01*
X308655Y34249D01*
X308638Y34081D01*
X309496Y31253D01*
X309603Y31123D01*
X309620Y30954D01*
X311013Y28349D01*
X311143Y28241D01*
X311192Y28080D01*
X313067Y25796D01*
X313216Y25716D01*
X313296Y25567D01*
X315580Y23693D01*
X315741Y23643D01*
X315849Y23513D01*
X318454Y22120D01*
X318623Y22103D01*
X318753Y21996D01*
X321581Y21139D01*
X321749Y21155D01*
X321898Y21075D01*
X324838Y20786D01*
X324921Y20811D01*
X325000Y20778D01*
X325079Y20811D01*
X325162Y20786D01*
X328102Y21075D01*
X328251Y21155D01*
X328419Y21139D01*
X331247Y21996D01*
X331377Y22103D01*
X331546Y22120D01*
X334151Y23513D01*
X334259Y23643D01*
X334420Y23693D01*
X336704Y25567D01*
X336784Y25716D01*
X336933Y25796D01*
X338807Y28080D01*
X338857Y28241D01*
X338987Y28349D01*
X340380Y30954D01*
X340397Y31123D01*
X340504Y31253D01*
X341362Y34081D01*
X341345Y34249D01*
X341425Y34398D01*
X341714Y37338D01*
X341665Y37500D01*
X341714Y37662D01*
X341425Y40602D01*
X341345Y40751D01*
X341362Y40919D01*
X340504Y43747D01*
X340397Y43878D01*
X340380Y44046D01*
X338987Y46652D01*
X338857Y46759D01*
X338807Y46920D01*
X336933Y49204D01*
X336784Y49284D01*
X336704Y49433D01*
X334420Y51308D01*
X334259Y51357D01*
X334151Y51487D01*
X331546Y52880D01*
X331377Y52897D01*
X331247Y53004D01*
X328419Y53861D01*
X328251Y53845D01*
X328102Y53925D01*
X325162Y54214D01*
X325079Y54189D01*
X325000Y54222D01*
D02*
G37*
G36*
X137500Y359102D02*
X135144Y358792D01*
X132949Y357882D01*
X131064Y356436D01*
X129618Y354551D01*
X128708Y352356D01*
X128398Y350000D01*
X128708Y347644D01*
X129618Y345449D01*
X131064Y343564D01*
X132949Y342118D01*
X134651Y341413D01*
Y332500D01*
X134651Y332500D01*
X134868Y331410D01*
X135486Y330486D01*
X154651Y311320D01*
Y140800D01*
X154651Y140800D01*
X154868Y139710D01*
X155486Y138786D01*
X164813Y129458D01*
X164108Y127756D01*
X163798Y125400D01*
X164108Y123044D01*
X165018Y120849D01*
X166464Y118964D01*
X168349Y117518D01*
X170544Y116608D01*
X172900Y116298D01*
X175256Y116608D01*
X177451Y117518D01*
X179336Y118964D01*
X180782Y120849D01*
X181692Y123044D01*
X182002Y125400D01*
X181692Y127756D01*
X180782Y129951D01*
X179336Y131836D01*
X177451Y133282D01*
X175256Y134192D01*
X172900Y134502D01*
X170544Y134192D01*
X168842Y133487D01*
X160349Y141980D01*
Y312500D01*
X160132Y313590D01*
X159514Y314514D01*
X159514Y314514D01*
X140349Y333680D01*
Y341413D01*
X142051Y342118D01*
X143936Y343564D01*
X145382Y345449D01*
X146292Y347644D01*
X146602Y350000D01*
X146292Y352356D01*
X145382Y354551D01*
X143936Y356436D01*
X142051Y357882D01*
X139856Y358792D01*
X137500Y359102D01*
D02*
G37*
G36*
Y396602D02*
X135144Y396292D01*
X132949Y395382D01*
X131064Y393936D01*
X129618Y392051D01*
X128708Y389856D01*
X128398Y387500D01*
X128708Y385144D01*
X129413Y383442D01*
X117986Y372014D01*
X117368Y371090D01*
X117151Y370000D01*
X117151Y370000D01*
Y307500D01*
X117151Y307500D01*
X117368Y306410D01*
X117986Y305486D01*
X134651Y288820D01*
Y135263D01*
X134574Y135147D01*
X134357Y134057D01*
X134357Y134057D01*
Y110294D01*
X134357Y110294D01*
X134574Y109204D01*
X135192Y108280D01*
X139413Y104058D01*
X138708Y102356D01*
X138398Y100000D01*
X138708Y97644D01*
X139618Y95449D01*
X141064Y93564D01*
X142949Y92118D01*
X145144Y91208D01*
X147500Y90898D01*
X149856Y91208D01*
X152051Y92118D01*
X153936Y93564D01*
X155382Y95449D01*
X156292Y97644D01*
X156602Y100000D01*
X156292Y102356D01*
X155382Y104551D01*
X153936Y106436D01*
X152051Y107882D01*
X149856Y108792D01*
X147500Y109102D01*
X145144Y108792D01*
X143442Y108087D01*
X140055Y111474D01*
Y116250D01*
X155000D01*
X156166Y116734D01*
X156650Y117900D01*
Y132900D01*
X156166Y134066D01*
X155000Y134550D01*
X150349D01*
Y302500D01*
X150132Y303590D01*
X149514Y304514D01*
X149514Y304514D01*
X145587Y308442D01*
X146292Y310144D01*
X146602Y312500D01*
X146292Y314856D01*
X145382Y317051D01*
X143936Y318936D01*
X142051Y320382D01*
X139856Y321292D01*
X137500Y321602D01*
X135144Y321292D01*
X132949Y320382D01*
X131064Y318936D01*
X129618Y317051D01*
X128708Y314856D01*
X128398Y312500D01*
X128708Y310144D01*
X129618Y307949D01*
X131064Y306064D01*
X132949Y304618D01*
X135144Y303708D01*
X137500Y303398D01*
X139856Y303708D01*
X141558Y304413D01*
X144651Y301320D01*
Y134550D01*
X140349D01*
Y290000D01*
X140349Y290000D01*
X140132Y291090D01*
X139514Y292014D01*
X139514Y292014D01*
X122849Y308680D01*
Y368820D01*
X133442Y379413D01*
X135144Y378708D01*
X137500Y378398D01*
X139856Y378708D01*
X142051Y379618D01*
X143936Y381064D01*
X145382Y382949D01*
X146292Y385144D01*
X146602Y387500D01*
X146292Y389856D01*
X145382Y392051D01*
X143936Y393936D01*
X142051Y395382D01*
X139856Y396292D01*
X137500Y396602D01*
D02*
G37*
G36*
X37500Y429222D02*
X37421Y429189D01*
X37338Y429214D01*
X34398Y428925D01*
X34249Y428845D01*
X34081Y428862D01*
X31253Y428004D01*
X31123Y427897D01*
X30954Y427880D01*
X28349Y426487D01*
X28241Y426357D01*
X28080Y426307D01*
X25796Y424433D01*
X25716Y424284D01*
X25567Y424204D01*
X23693Y421920D01*
X23643Y421759D01*
X23513Y421651D01*
X22120Y419046D01*
X22103Y418877D01*
X21996Y418747D01*
X21139Y415919D01*
X21155Y415751D01*
X21075Y415602D01*
X20786Y412662D01*
X20835Y412500D01*
X20786Y412338D01*
X21075Y409398D01*
X21155Y409249D01*
X21139Y409081D01*
X21996Y406253D01*
X22103Y406123D01*
X22120Y405954D01*
X23513Y403349D01*
X23643Y403241D01*
X23693Y403080D01*
X25567Y400796D01*
X25716Y400716D01*
X25796Y400567D01*
X28080Y398693D01*
X28241Y398643D01*
X28349Y398513D01*
X30954Y397120D01*
X31123Y397103D01*
X31253Y396996D01*
X34081Y396138D01*
X34249Y396155D01*
X34398Y396075D01*
X37338Y395786D01*
X37421Y395811D01*
X37500Y395778D01*
X37579Y395811D01*
X37662Y395786D01*
X40602Y396075D01*
X40751Y396155D01*
X40919Y396138D01*
X43747Y396996D01*
X43878Y397103D01*
X44046Y397120D01*
X46652Y398513D01*
X46759Y398643D01*
X46920Y398693D01*
X49204Y400567D01*
X49284Y400716D01*
X49433Y400796D01*
X51308Y403080D01*
X51357Y403241D01*
X51487Y403349D01*
X52880Y405954D01*
X52897Y406123D01*
X53004Y406253D01*
X53861Y409081D01*
X53845Y409249D01*
X53925Y409398D01*
X54214Y412338D01*
X54165Y412500D01*
X54214Y412662D01*
X53925Y415602D01*
X53845Y415751D01*
X53861Y415919D01*
X53004Y418747D01*
X52897Y418877D01*
X52880Y419046D01*
X51487Y421651D01*
X51357Y421759D01*
X51308Y421920D01*
X49433Y424204D01*
X49284Y424284D01*
X49204Y424433D01*
X46920Y426307D01*
X46759Y426357D01*
X46652Y426487D01*
X44046Y427880D01*
X43878Y427897D01*
X43747Y428004D01*
X40919Y428862D01*
X40751Y428845D01*
X40602Y428925D01*
X37662Y429214D01*
X37579Y429189D01*
X37500Y429222D01*
D02*
G37*
G36*
X325000D02*
X324921Y429189D01*
X324838Y429214D01*
X321898Y428925D01*
X321749Y428845D01*
X321581Y428862D01*
X318753Y428004D01*
X318623Y427897D01*
X318454Y427880D01*
X315849Y426487D01*
X315741Y426357D01*
X315580Y426307D01*
X313296Y424433D01*
X313216Y424284D01*
X313067Y424204D01*
X311192Y421920D01*
X311143Y421759D01*
X311013Y421651D01*
X309620Y419046D01*
X309603Y418877D01*
X309496Y418747D01*
X308638Y415919D01*
X308655Y415751D01*
X308575Y415602D01*
X308286Y412662D01*
X308335Y412500D01*
X308286Y412338D01*
X308575Y409398D01*
X308655Y409249D01*
X308638Y409081D01*
X309496Y406253D01*
X309603Y406123D01*
X309620Y405954D01*
X311013Y403349D01*
X311143Y403241D01*
X311192Y403080D01*
X313067Y400796D01*
X313216Y400716D01*
X313296Y400567D01*
X315580Y398693D01*
X315741Y398643D01*
X315849Y398513D01*
X318454Y397120D01*
X318623Y397103D01*
X318753Y396996D01*
X321581Y396138D01*
X321749Y396155D01*
X321898Y396075D01*
X324838Y395786D01*
X324921Y395811D01*
X325000Y395778D01*
X325079Y395811D01*
X325162Y395786D01*
X328102Y396075D01*
X328251Y396155D01*
X328419Y396138D01*
X331247Y396996D01*
X331377Y397103D01*
X331546Y397120D01*
X334151Y398513D01*
X334259Y398643D01*
X334420Y398693D01*
X336704Y400567D01*
X336784Y400716D01*
X336933Y400796D01*
X338807Y403080D01*
X338857Y403241D01*
X338987Y403349D01*
X340380Y405954D01*
X340397Y406123D01*
X340504Y406253D01*
X341362Y409081D01*
X341345Y409249D01*
X341425Y409398D01*
X341714Y412338D01*
X341665Y412500D01*
X341714Y412662D01*
X341425Y415602D01*
X341345Y415751D01*
X341362Y415919D01*
X340504Y418747D01*
X340397Y418877D01*
X340380Y419046D01*
X338987Y421651D01*
X338857Y421759D01*
X338807Y421920D01*
X336933Y424204D01*
X336784Y424284D01*
X336704Y424433D01*
X334420Y426307D01*
X334259Y426357D01*
X334151Y426487D01*
X331546Y427880D01*
X331377Y427897D01*
X331247Y428004D01*
X328419Y428862D01*
X328251Y428845D01*
X328102Y428925D01*
X325162Y429214D01*
X325079Y429189D01*
X325000Y429222D01*
D02*
G37*
G36*
X297459Y311230D02*
X288770D01*
Y302541D01*
X290121Y302718D01*
X292563Y303730D01*
X294661Y305339D01*
X296270Y307437D01*
X297282Y309879D01*
X297459Y311230D01*
D02*
G37*
G36*
X288770Y322459D02*
Y313770D01*
X297459D01*
X297282Y315121D01*
X296270Y317563D01*
X294661Y319661D01*
X292563Y321270D01*
X290121Y322282D01*
X288770Y322459D01*
D02*
G37*
G36*
X287500Y396602D02*
X285144Y396292D01*
X282949Y395382D01*
X281064Y393936D01*
X279618Y392051D01*
X278708Y389856D01*
X278398Y387500D01*
X278708Y385144D01*
X279618Y382949D01*
X281064Y381064D01*
X282949Y379618D01*
X285144Y378708D01*
X287500Y378398D01*
X289856Y378708D01*
X292051Y379618D01*
X293936Y381064D01*
X295382Y382949D01*
X296087Y384651D01*
X298820D01*
X307151Y376320D01*
Y311180D01*
X217986Y222014D01*
X217368Y221090D01*
X217151Y220000D01*
X217151Y220000D01*
Y133673D01*
X215881Y133147D01*
X210349Y138680D01*
Y218820D01*
X284514Y292986D01*
X284514Y292986D01*
X285132Y293910D01*
X285349Y295000D01*
X285349Y295000D01*
Y301693D01*
X286230Y302466D01*
Y312500D01*
Y322459D01*
X284879Y322282D01*
X282437Y321270D01*
X280339Y319661D01*
X279119Y318070D01*
X277849Y318501D01*
Y336320D01*
X283442Y341913D01*
X285144Y341208D01*
X287500Y340898D01*
X289856Y341208D01*
X292051Y342118D01*
X293936Y343564D01*
X295382Y345449D01*
X296292Y347644D01*
X296602Y350000D01*
X296292Y352356D01*
X295382Y354551D01*
X293936Y356436D01*
X292051Y357882D01*
X289856Y358792D01*
X287500Y359102D01*
X285144Y358792D01*
X282949Y357882D01*
X281064Y356436D01*
X279618Y354551D01*
X278708Y352356D01*
X278398Y350000D01*
X278708Y347644D01*
X279413Y345942D01*
X272986Y339514D01*
X272368Y338590D01*
X272151Y337500D01*
X272151Y337500D01*
Y301180D01*
X196286Y225314D01*
X195668Y224390D01*
X195451Y223300D01*
X195451Y223300D01*
Y133988D01*
X193749Y133282D01*
X191864Y131836D01*
X190418Y129951D01*
X189508Y127756D01*
X189198Y125400D01*
X189508Y123044D01*
X190418Y120849D01*
X191864Y118964D01*
X193749Y117518D01*
X195944Y116608D01*
X198300Y116298D01*
X200656Y116608D01*
X202851Y117518D01*
X204736Y118964D01*
X206182Y120849D01*
X207092Y123044D01*
X207402Y125400D01*
X207092Y127756D01*
X206182Y129951D01*
X204736Y131836D01*
X202851Y133282D01*
X201149Y133988D01*
Y222120D01*
X277014Y297986D01*
X277014Y297986D01*
X277632Y298910D01*
X277849Y300000D01*
Y305719D01*
X279119Y306298D01*
X279651Y305837D01*
Y296180D01*
X205486Y222014D01*
X204868Y221090D01*
X204651Y220000D01*
X204651Y220000D01*
Y137500D01*
X204651Y137500D01*
X204868Y136410D01*
X205486Y135486D01*
X212151Y128820D01*
Y117880D01*
X203136Y108864D01*
X200921Y109782D01*
X199570Y109959D01*
Y101270D01*
X208259D01*
X208082Y102621D01*
X207164Y104836D01*
X215881Y113553D01*
X217151Y113027D01*
Y87849D01*
X189080D01*
X180987Y95942D01*
X181692Y97644D01*
X182002Y100000D01*
X181692Y102356D01*
X180782Y104551D01*
X179336Y106436D01*
X177451Y107882D01*
X175256Y108792D01*
X172900Y109102D01*
X170544Y108792D01*
X168349Y107882D01*
X166464Y106436D01*
X165018Y104551D01*
X164108Y102356D01*
X163798Y100000D01*
X164108Y97644D01*
X165018Y95449D01*
X166464Y93564D01*
X168349Y92118D01*
X170544Y91208D01*
X172900Y90898D01*
X175256Y91208D01*
X176958Y91913D01*
X185886Y82986D01*
X185886Y82986D01*
X186810Y82368D01*
X187900Y82151D01*
X187900Y82151D01*
X220000D01*
X221090Y82368D01*
X222014Y82986D01*
X222632Y83910D01*
X222849Y85000D01*
Y218820D01*
X312014Y307986D01*
X312014Y307986D01*
X312632Y308910D01*
X312849Y310000D01*
X312849Y310000D01*
Y377500D01*
X312632Y378590D01*
X312014Y379514D01*
X312014Y379514D01*
X302014Y389514D01*
X301090Y390132D01*
X300000Y390349D01*
X300000Y390349D01*
X296087D01*
X295382Y392051D01*
X293936Y393936D01*
X292051Y395382D01*
X289856Y396292D01*
X287500Y396602D01*
D02*
G37*
%LPD*%
D10*
X137500Y332500D02*
X157500Y312500D01*
Y140800D02*
Y312500D01*
Y140800D02*
X172900Y125400D01*
X137500Y332500D02*
Y350000D01*
X137206Y110294D02*
X147500Y100000D01*
X137206Y110294D02*
Y134057D01*
X137500Y134351D02*
Y290000D01*
X137206Y134057D02*
X137500Y134351D01*
X120000Y307500D02*
X137500Y290000D01*
X275000Y337500D02*
X287500Y350000D01*
X275000Y300000D02*
Y337500D01*
X198300Y223300D02*
X275000Y300000D01*
X198300Y125400D02*
Y223300D01*
X282500Y295000D02*
Y307500D01*
X207500Y220000D02*
X282500Y295000D01*
X207500Y137500D02*
Y220000D01*
X120000Y307500D02*
Y370000D01*
X137500Y387500D01*
X287500D02*
X300000D01*
X310000Y377500D01*
Y310000D02*
Y377500D01*
X220000Y220000D02*
X310000Y310000D01*
X220000Y85000D02*
Y220000D01*
X187900Y85000D02*
X220000D01*
X172900Y100000D02*
X187900Y85000D01*
X198300Y100000D02*
X215000Y116700D01*
Y130000D01*
X207500Y137500D02*
X215000Y130000D01*
X282500Y307500D02*
X287500Y312500D01*
X137500D02*
X147500Y302500D01*
Y125400D02*
Y302500D01*
D11*
X287500Y387500D02*
D03*
Y350000D02*
D03*
Y312500D02*
D03*
X137500D02*
D03*
Y350000D02*
D03*
Y387500D02*
D03*
X147500Y100000D02*
D03*
X172900Y125400D02*
D03*
Y100000D02*
D03*
X198300Y125400D02*
D03*
Y100000D02*
D03*
D12*
X147500Y125400D02*
D03*
D13*
X37500Y412500D02*
D03*
X325000D02*
D03*
Y37500D02*
D03*
X37500D02*
D03*
M02*
