G04 Layer_Color=65535*
%FSLAX44Y44*%
%MOMM*%
G71*
G01*
G75*
%ADD14C,0.2032*%
G36*
X48064Y179719D02*
X62500D01*
Y177470D01*
X48064D01*
Y172640D01*
X46176D01*
Y184550D01*
X48064D01*
Y179719D01*
D02*
G37*
G36*
X37500Y223193D02*
X35834Y223138D01*
X35890Y223082D01*
X36001Y222971D01*
X36167Y222749D01*
X36390Y222499D01*
X36612Y222166D01*
X36862Y221833D01*
X37084Y221444D01*
X37278Y221056D01*
X37306Y221000D01*
X37333Y220861D01*
X37417Y220667D01*
X37500Y220389D01*
X37583Y220056D01*
X37639Y219667D01*
X37694Y219279D01*
X37722Y218835D01*
Y218779D01*
Y218668D01*
X37694Y218474D01*
Y218224D01*
X37667Y217918D01*
X37611Y217613D01*
X37472Y217002D01*
Y216975D01*
X37417Y216891D01*
X37361Y216752D01*
X37278Y216558D01*
X37028Y216169D01*
X36723Y215753D01*
X36695Y215725D01*
X36639Y215670D01*
X36528Y215586D01*
X36390Y215475D01*
X36223Y215364D01*
X36029Y215226D01*
X35584Y215031D01*
X35557D01*
X35473Y215003D01*
X35334Y214976D01*
X35168Y214920D01*
X34946Y214892D01*
X34696Y214837D01*
X34169Y214809D01*
X33974D01*
X33863Y214837D01*
X33697Y214865D01*
X33502Y214892D01*
X33086Y214976D01*
X32614Y215142D01*
X32114Y215392D01*
X31864Y215559D01*
X31642Y215753D01*
X31420Y215947D01*
X31198Y216197D01*
Y216225D01*
X31142Y216253D01*
X31087Y216336D01*
X31031Y216475D01*
X30948Y216614D01*
X30865Y216780D01*
X30754Y217002D01*
X30643Y217252D01*
X30559Y217530D01*
X30448Y217835D01*
X30365Y218168D01*
X30282Y218557D01*
X30226Y218946D01*
X30171Y219390D01*
X30115Y219862D01*
Y220361D01*
Y222971D01*
X28838D01*
X28644Y222943D01*
X28394Y222888D01*
X28116Y222805D01*
X27811Y222666D01*
X27533Y222499D01*
X27256Y222249D01*
X27228Y222222D01*
X27145Y222111D01*
X27034Y221944D01*
X26923Y221722D01*
X26812Y221416D01*
X26700Y221028D01*
X26617Y220584D01*
X26590Y220084D01*
Y220028D01*
Y219890D01*
Y219695D01*
X26617Y219418D01*
X26645Y219084D01*
X26700Y218751D01*
X26839Y217974D01*
Y217918D01*
X26895Y217807D01*
X26950Y217585D01*
X27006Y217335D01*
X27117Y217002D01*
X27228Y216641D01*
X27367Y216253D01*
X27506Y215864D01*
X25535D01*
Y215892D01*
X25507Y215947D01*
X25479Y216003D01*
X25451Y216114D01*
X25368Y216392D01*
X25257Y216752D01*
Y216780D01*
X25229Y216836D01*
X25201Y216947D01*
X25174Y217085D01*
X25090Y217446D01*
X25007Y217835D01*
Y217863D01*
X24979Y217946D01*
X24952Y218057D01*
X24924Y218196D01*
X24896Y218363D01*
X24868Y218557D01*
X24813Y219001D01*
Y219029D01*
X24785Y219112D01*
Y219223D01*
X24757Y219390D01*
Y219584D01*
X24729Y219778D01*
Y220250D01*
Y220306D01*
Y220445D01*
Y220667D01*
X24757Y220944D01*
X24785Y221250D01*
X24840Y221611D01*
X24979Y222305D01*
Y222333D01*
X25035Y222471D01*
X25090Y222638D01*
X25174Y222832D01*
X25285Y223082D01*
X25423Y223332D01*
X25562Y223582D01*
X25757Y223832D01*
X25784Y223860D01*
X25840Y223943D01*
X25951Y224054D01*
X26090Y224193D01*
X26284Y224359D01*
X26506Y224526D01*
X26756Y224665D01*
X27034Y224803D01*
X27061Y224831D01*
X27173Y224859D01*
X27339Y224914D01*
X27561Y224998D01*
X27811Y225053D01*
X28144Y225109D01*
X28477Y225137D01*
X28866Y225164D01*
X37500D01*
Y223193D01*
D02*
G37*
G36*
Y251205D02*
X29255D01*
X29005Y251178D01*
X28699Y251150D01*
X28338Y251066D01*
X27978Y250983D01*
X27644Y250844D01*
X27339Y250650D01*
X27311Y250622D01*
X27228Y250539D01*
X27117Y250428D01*
X26978Y250261D01*
X26839Y250039D01*
X26728Y249762D01*
X26645Y249456D01*
X26617Y249095D01*
Y249068D01*
Y249012D01*
Y248929D01*
X26645Y248818D01*
X26673Y248568D01*
X26756Y248263D01*
Y248235D01*
X26784Y248207D01*
X26812Y248124D01*
X26839Y248013D01*
X26978Y247763D01*
X27173Y247457D01*
Y247430D01*
X27228Y247402D01*
X27283Y247319D01*
X27367Y247208D01*
X27617Y246930D01*
X27950Y246569D01*
X27978Y246541D01*
X28033Y246486D01*
X28144Y246375D01*
X28283Y246264D01*
X28477Y246097D01*
X28699Y245903D01*
X28921Y245681D01*
X29199Y245459D01*
X37500D01*
Y243293D01*
X19843D01*
Y245459D01*
X24979D01*
X26950Y245375D01*
X26923Y245403D01*
X26839Y245459D01*
X26728Y245570D01*
X26590Y245681D01*
X26256Y246014D01*
X25923Y246375D01*
X25895Y246402D01*
X25840Y246458D01*
X25757Y246569D01*
X25673Y246680D01*
X25451Y246985D01*
X25229Y247346D01*
Y247374D01*
X25174Y247430D01*
X25146Y247541D01*
X25090Y247652D01*
X24979Y247985D01*
X24868Y248346D01*
Y248374D01*
X24840Y248429D01*
X24813Y248540D01*
X24785Y248679D01*
X24757Y249040D01*
X24729Y249429D01*
Y249456D01*
Y249512D01*
Y249623D01*
X24757Y249734D01*
Y249900D01*
X24785Y250067D01*
X24868Y250511D01*
X25007Y250983D01*
X25229Y251455D01*
X25507Y251927D01*
X25895Y252344D01*
X25951Y252399D01*
X26117Y252510D01*
X26367Y252677D01*
X26756Y252871D01*
X27228Y253038D01*
X27839Y253204D01*
X28533Y253315D01*
X29338Y253371D01*
X37500D01*
Y251205D01*
D02*
G37*
G36*
Y229356D02*
X35696D01*
Y233465D01*
X21620D01*
Y229773D01*
X19843D01*
Y235658D01*
X35696D01*
Y239406D01*
X37500D01*
Y229356D01*
D02*
G37*
G36*
X29727Y209673D02*
X29449D01*
X29171Y209645D01*
X28838Y209618D01*
X28449Y209562D01*
X28061Y209479D01*
X27672Y209340D01*
X27367Y209173D01*
X27339Y209146D01*
X27256Y209090D01*
X27117Y208951D01*
X26978Y208785D01*
X26867Y208563D01*
X26728Y208313D01*
X26645Y208007D01*
X26617Y207646D01*
Y207619D01*
Y207563D01*
Y207480D01*
X26645Y207397D01*
X26673Y207119D01*
X26784Y206786D01*
Y206758D01*
X26812Y206702D01*
X26839Y206619D01*
X26895Y206508D01*
X27061Y206203D01*
X27283Y205870D01*
X27311Y205842D01*
X27339Y205786D01*
X27422Y205703D01*
X27506Y205564D01*
X27811Y205259D01*
X28172Y204870D01*
X28200Y204842D01*
X28255Y204787D01*
X28366Y204676D01*
X28533Y204537D01*
X28727Y204370D01*
X28921Y204176D01*
X29171Y203982D01*
X29449Y203760D01*
X37500D01*
Y201567D01*
X24952D01*
Y203538D01*
X27283Y203593D01*
X27256D01*
X27228Y203649D01*
X27061Y203787D01*
X26839Y204009D01*
X26534Y204287D01*
X26228Y204620D01*
X25895Y204981D01*
X25590Y205370D01*
X25340Y205786D01*
X25312Y205842D01*
X25257Y205981D01*
X25146Y206175D01*
X25035Y206480D01*
X24924Y206786D01*
X24813Y207174D01*
X24757Y207563D01*
X24729Y207980D01*
Y208007D01*
Y208063D01*
Y208174D01*
X24757Y208313D01*
Y208451D01*
X24785Y208646D01*
X24896Y209090D01*
X25035Y209562D01*
X25257Y210034D01*
X25590Y210506D01*
X25784Y210728D01*
X26007Y210922D01*
X26062Y210978D01*
X26145Y211006D01*
X26228Y211089D01*
X26367Y211144D01*
X26534Y211228D01*
X26728Y211339D01*
X26950Y211422D01*
X27200Y211505D01*
X27450Y211589D01*
X27755Y211672D01*
X28089Y211755D01*
X28477Y211811D01*
X28866Y211838D01*
X29282Y211866D01*
X29727D01*
Y209673D01*
D02*
G37*
G36*
X56365Y198209D02*
X56726D01*
X56920Y198181D01*
Y189380D01*
X57114D01*
X57225Y189408D01*
X57392D01*
X57586Y189436D01*
X58030Y189519D01*
X58502Y189630D01*
X59002Y189825D01*
X59474Y190074D01*
X59890Y190435D01*
X59946Y190491D01*
X60057Y190630D01*
X60223Y190879D01*
X60390Y191240D01*
X60584Y191684D01*
X60751Y192212D01*
X60862Y192823D01*
X60918Y193545D01*
Y193572D01*
Y193628D01*
Y193739D01*
Y193878D01*
Y194239D01*
X60890Y194627D01*
Y194655D01*
Y194711D01*
X60862Y194822D01*
Y194960D01*
X60806Y195321D01*
X60779Y195682D01*
Y195710D01*
X60751Y195766D01*
Y195877D01*
X60723Y196015D01*
X60668Y196321D01*
X60612Y196682D01*
Y196709D01*
X60584Y196765D01*
X60557Y196848D01*
X60529Y196959D01*
X60473Y197265D01*
X60390Y197570D01*
X62167D01*
Y197542D01*
X62195Y197404D01*
X62250Y197237D01*
X62306Y196987D01*
X62361Y196682D01*
X62445Y196349D01*
X62500Y195960D01*
X62555Y195543D01*
Y195488D01*
X62583Y195349D01*
X62611Y195127D01*
X62639Y194849D01*
X62667Y194489D01*
X62694Y194100D01*
X62722Y193683D01*
Y193239D01*
Y193211D01*
Y193156D01*
Y193073D01*
Y192962D01*
X62694Y192656D01*
X62667Y192295D01*
X62611Y191851D01*
X62555Y191379D01*
X62445Y190907D01*
X62306Y190463D01*
X62278Y190408D01*
X62222Y190269D01*
X62111Y190047D01*
X61972Y189797D01*
X61806Y189491D01*
X61584Y189158D01*
X61334Y188853D01*
X61029Y188547D01*
X61001Y188520D01*
X60890Y188436D01*
X60696Y188298D01*
X60473Y188131D01*
X60168Y187937D01*
X59835Y187770D01*
X59418Y187576D01*
X59002Y187437D01*
X58946D01*
X58780Y187381D01*
X58530Y187326D01*
X58197Y187270D01*
X57780Y187215D01*
X57336Y187159D01*
X56809Y187132D01*
X56253Y187104D01*
X56031D01*
X55781Y187132D01*
X55448Y187159D01*
X55087Y187187D01*
X54671Y187270D01*
X54227Y187354D01*
X53783Y187465D01*
X53755D01*
X53727Y187492D01*
X53588Y187548D01*
X53366Y187631D01*
X53061Y187742D01*
X52755Y187909D01*
X52395Y188103D01*
X52034Y188325D01*
X51701Y188575D01*
X51673Y188603D01*
X51562Y188714D01*
X51395Y188881D01*
X51173Y189075D01*
X50951Y189352D01*
X50701Y189658D01*
X50479Y189991D01*
X50257Y190380D01*
X50229Y190435D01*
X50174Y190574D01*
X50090Y190796D01*
X49979Y191074D01*
X49896Y191435D01*
X49813Y191851D01*
X49757Y192295D01*
X49729Y192795D01*
Y192823D01*
Y192850D01*
Y193017D01*
X49757Y193267D01*
X49785Y193572D01*
X49840Y193933D01*
X49896Y194322D01*
X50007Y194711D01*
X50146Y195099D01*
X50174Y195155D01*
X50229Y195266D01*
X50312Y195460D01*
X50451Y195710D01*
X50618Y195960D01*
X50812Y196265D01*
X51062Y196543D01*
X51340Y196821D01*
X51367Y196848D01*
X51478Y196932D01*
X51645Y197070D01*
X51839Y197209D01*
X52117Y197376D01*
X52422Y197570D01*
X52783Y197737D01*
X53172Y197875D01*
X53227Y197903D01*
X53366Y197931D01*
X53588Y197987D01*
X53866Y198070D01*
X54227Y198125D01*
X54616Y198181D01*
X55060Y198209D01*
X55560Y198236D01*
X56087D01*
X56365Y198209D01*
D02*
G37*
G36*
X31670Y155648D02*
X32031Y155620D01*
X32447Y155564D01*
X32891Y155509D01*
X33363Y155398D01*
X33835Y155259D01*
X33891Y155231D01*
X34030Y155176D01*
X34252Y155093D01*
X34529Y154954D01*
X34863Y154787D01*
X35224Y154593D01*
X35584Y154343D01*
X35918Y154065D01*
X35945Y154038D01*
X36056Y153926D01*
X36223Y153760D01*
X36417Y153538D01*
X36612Y153260D01*
X36834Y152955D01*
X37056Y152566D01*
X37250Y152177D01*
X37278Y152122D01*
X37333Y151983D01*
X37389Y151761D01*
X37472Y151456D01*
X37583Y151067D01*
X37639Y150651D01*
X37694Y150179D01*
X37722Y149651D01*
Y149623D01*
Y149596D01*
Y149429D01*
X37694Y149151D01*
X37667Y148846D01*
X37611Y148457D01*
X37555Y148041D01*
X37445Y147625D01*
X37306Y147208D01*
X37278Y147153D01*
X37222Y147042D01*
X37139Y146847D01*
X37000Y146597D01*
X36834Y146292D01*
X36612Y146014D01*
X36362Y145709D01*
X36084Y145403D01*
X36056Y145376D01*
X35945Y145293D01*
X35779Y145154D01*
X35529Y144987D01*
X35251Y144820D01*
X34890Y144626D01*
X34502Y144460D01*
X34085Y144293D01*
X34058D01*
X34030Y144265D01*
X33863Y144237D01*
X33613Y144182D01*
X33280Y144099D01*
X32864Y144015D01*
X32392Y143960D01*
X31864Y143932D01*
X31309Y143904D01*
X31059D01*
X30782Y143932D01*
X30448Y143960D01*
X30032Y143988D01*
X29588Y144071D01*
X29116Y144154D01*
X28672Y144293D01*
X28644D01*
X28616Y144321D01*
X28477Y144376D01*
X28227Y144460D01*
X27950Y144598D01*
X27617Y144765D01*
X27283Y144987D01*
X26923Y145209D01*
X26590Y145487D01*
X26562Y145515D01*
X26451Y145626D01*
X26284Y145792D01*
X26090Y146014D01*
X25868Y146292D01*
X25645Y146625D01*
X25423Y146986D01*
X25229Y147375D01*
X25201Y147430D01*
X25146Y147569D01*
X25062Y147791D01*
X24979Y148097D01*
X24896Y148485D01*
X24813Y148902D01*
X24757Y149374D01*
X24729Y149901D01*
Y149929D01*
Y149957D01*
Y150123D01*
X24757Y150401D01*
X24785Y150706D01*
X24840Y151095D01*
X24924Y151483D01*
X25035Y151900D01*
X25174Y152316D01*
X25201Y152372D01*
X25257Y152511D01*
X25340Y152705D01*
X25479Y152955D01*
X25645Y153232D01*
X25868Y153538D01*
X26117Y153843D01*
X26395Y154121D01*
X26423Y154149D01*
X26534Y154232D01*
X26700Y154371D01*
X26950Y154537D01*
X27228Y154732D01*
X27589Y154926D01*
X27978Y155093D01*
X28394Y155259D01*
X28449Y155287D01*
X28616Y155315D01*
X28866Y155398D01*
X29171Y155481D01*
X29588Y155537D01*
X30060Y155620D01*
X30587Y155648D01*
X31142Y155676D01*
X31392D01*
X31670Y155648D01*
D02*
G37*
G36*
X37500Y195126D02*
X35501Y195042D01*
X35529Y195015D01*
X35612Y194959D01*
X35723Y194848D01*
X35862Y194709D01*
X36223Y194348D01*
X36584Y193960D01*
X36612Y193932D01*
X36639Y193876D01*
X36723Y193765D01*
X36834Y193654D01*
X37028Y193321D01*
X37250Y192960D01*
Y192932D01*
X37278Y192877D01*
X37333Y192766D01*
X37389Y192655D01*
X37500Y192322D01*
X37611Y191961D01*
Y191933D01*
X37639Y191877D01*
Y191766D01*
X37667Y191628D01*
X37694Y191294D01*
X37722Y190878D01*
Y190850D01*
Y190795D01*
Y190684D01*
X37694Y190573D01*
Y190406D01*
X37667Y190212D01*
X37583Y189795D01*
X37445Y189323D01*
X37250Y188851D01*
X36972Y188379D01*
X36612Y187963D01*
X36556Y187935D01*
X36390Y187824D01*
X36140Y187658D01*
X35751Y187491D01*
X35279Y187297D01*
X34668Y187158D01*
X33974Y187047D01*
X33169Y186991D01*
X24952D01*
Y189157D01*
X33114D01*
X33252Y189184D01*
X33447D01*
X33669Y189212D01*
X33919Y189268D01*
X34418Y189434D01*
X34696Y189545D01*
X34946Y189684D01*
X35196Y189851D01*
X35418Y190073D01*
X35584Y190323D01*
X35751Y190600D01*
X35834Y190934D01*
X35862Y191322D01*
Y191350D01*
Y191378D01*
X35834Y191572D01*
X35807Y191822D01*
X35751Y192100D01*
Y192127D01*
X35723Y192155D01*
X35696Y192238D01*
X35668Y192349D01*
X35529Y192599D01*
X35362Y192905D01*
X35334Y192932D01*
X35307Y192988D01*
X35251Y193071D01*
X35140Y193182D01*
X34890Y193460D01*
X34557Y193793D01*
X34529Y193821D01*
X34474Y193876D01*
X34363Y193987D01*
X34196Y194126D01*
X34030Y194293D01*
X33808Y194487D01*
X33558Y194681D01*
X33280Y194904D01*
X24952D01*
Y197069D01*
X37500D01*
Y195126D01*
D02*
G37*
G36*
Y182216D02*
X27311Y181883D01*
X23425Y181744D01*
X25673Y180967D01*
X32170Y178552D01*
Y177025D01*
X25923Y174720D01*
X23425Y173971D01*
X27478Y173915D01*
X37500Y173638D01*
Y171528D01*
X21176Y172333D01*
Y174970D01*
X27339Y177164D01*
X29421Y177885D01*
X27339Y178552D01*
X21176Y180884D01*
Y183604D01*
X37500Y184382D01*
Y182216D01*
D02*
G37*
G36*
Y265420D02*
X35834Y265364D01*
X35890Y265308D01*
X36001Y265197D01*
X36167Y264975D01*
X36390Y264725D01*
X36612Y264392D01*
X36862Y264059D01*
X37084Y263671D01*
X37278Y263282D01*
X37306Y263226D01*
X37333Y263088D01*
X37417Y262893D01*
X37500Y262616D01*
X37583Y262282D01*
X37639Y261894D01*
X37694Y261505D01*
X37722Y261061D01*
Y261005D01*
Y260894D01*
X37694Y260700D01*
Y260450D01*
X37667Y260145D01*
X37611Y259839D01*
X37472Y259229D01*
Y259201D01*
X37417Y259118D01*
X37361Y258979D01*
X37278Y258784D01*
X37028Y258396D01*
X36723Y257979D01*
X36695Y257952D01*
X36639Y257896D01*
X36528Y257813D01*
X36390Y257702D01*
X36223Y257591D01*
X36029Y257452D01*
X35584Y257257D01*
X35557D01*
X35473Y257230D01*
X35334Y257202D01*
X35168Y257146D01*
X34946Y257119D01*
X34696Y257063D01*
X34169Y257035D01*
X33974D01*
X33863Y257063D01*
X33697Y257091D01*
X33502Y257119D01*
X33086Y257202D01*
X32614Y257369D01*
X32114Y257618D01*
X31864Y257785D01*
X31642Y257979D01*
X31420Y258174D01*
X31198Y258424D01*
Y258451D01*
X31142Y258479D01*
X31087Y258562D01*
X31031Y258701D01*
X30948Y258840D01*
X30865Y259007D01*
X30754Y259229D01*
X30643Y259478D01*
X30559Y259756D01*
X30448Y260061D01*
X30365Y260395D01*
X30282Y260783D01*
X30226Y261172D01*
X30171Y261616D01*
X30115Y262088D01*
Y262588D01*
Y265197D01*
X28838D01*
X28644Y265170D01*
X28394Y265114D01*
X28116Y265031D01*
X27811Y264892D01*
X27533Y264725D01*
X27256Y264476D01*
X27228Y264448D01*
X27145Y264337D01*
X27034Y264170D01*
X26923Y263948D01*
X26812Y263643D01*
X26700Y263254D01*
X26617Y262810D01*
X26590Y262310D01*
Y262255D01*
Y262116D01*
Y261922D01*
X26617Y261644D01*
X26645Y261311D01*
X26700Y260978D01*
X26839Y260200D01*
Y260145D01*
X26895Y260034D01*
X26950Y259812D01*
X27006Y259562D01*
X27117Y259229D01*
X27228Y258868D01*
X27367Y258479D01*
X27506Y258090D01*
X25535D01*
Y258118D01*
X25507Y258174D01*
X25479Y258229D01*
X25451Y258340D01*
X25368Y258618D01*
X25257Y258979D01*
Y259007D01*
X25229Y259062D01*
X25201Y259173D01*
X25174Y259312D01*
X25090Y259673D01*
X25007Y260061D01*
Y260089D01*
X24979Y260173D01*
X24952Y260284D01*
X24924Y260422D01*
X24896Y260589D01*
X24868Y260783D01*
X24813Y261227D01*
Y261255D01*
X24785Y261339D01*
Y261450D01*
X24757Y261616D01*
Y261810D01*
X24729Y262005D01*
Y262477D01*
Y262532D01*
Y262671D01*
Y262893D01*
X24757Y263171D01*
X24785Y263476D01*
X24840Y263837D01*
X24979Y264531D01*
Y264559D01*
X25035Y264698D01*
X25090Y264864D01*
X25174Y265059D01*
X25285Y265308D01*
X25423Y265558D01*
X25562Y265808D01*
X25757Y266058D01*
X25784Y266086D01*
X25840Y266169D01*
X25951Y266280D01*
X26090Y266419D01*
X26284Y266586D01*
X26506Y266752D01*
X26756Y266891D01*
X27034Y267030D01*
X27061Y267057D01*
X27173Y267085D01*
X27339Y267141D01*
X27561Y267224D01*
X27811Y267280D01*
X28144Y267335D01*
X28477Y267363D01*
X28866Y267391D01*
X37500D01*
Y265420D01*
D02*
G37*
G36*
X56365Y141907D02*
X56726D01*
X56920Y141879D01*
Y133078D01*
X57114D01*
X57225Y133106D01*
X57392D01*
X57586Y133134D01*
X58030Y133217D01*
X58502Y133328D01*
X59002Y133523D01*
X59474Y133773D01*
X59890Y134134D01*
X59946Y134189D01*
X60057Y134328D01*
X60223Y134578D01*
X60390Y134939D01*
X60584Y135383D01*
X60751Y135910D01*
X60862Y136521D01*
X60918Y137243D01*
Y137271D01*
Y137326D01*
Y137437D01*
Y137576D01*
Y137937D01*
X60890Y138326D01*
Y138353D01*
Y138409D01*
X60862Y138520D01*
Y138659D01*
X60806Y139020D01*
X60779Y139381D01*
Y139408D01*
X60751Y139464D01*
Y139575D01*
X60723Y139714D01*
X60668Y140019D01*
X60612Y140380D01*
Y140408D01*
X60584Y140463D01*
X60557Y140547D01*
X60529Y140658D01*
X60473Y140963D01*
X60390Y141268D01*
X62167D01*
Y141241D01*
X62195Y141102D01*
X62250Y140935D01*
X62306Y140685D01*
X62361Y140380D01*
X62445Y140047D01*
X62500Y139658D01*
X62555Y139242D01*
Y139186D01*
X62583Y139047D01*
X62611Y138825D01*
X62639Y138548D01*
X62667Y138187D01*
X62694Y137798D01*
X62722Y137382D01*
Y136938D01*
Y136910D01*
Y136854D01*
Y136771D01*
Y136660D01*
X62694Y136355D01*
X62667Y135994D01*
X62611Y135549D01*
X62555Y135077D01*
X62445Y134605D01*
X62306Y134161D01*
X62278Y134106D01*
X62222Y133967D01*
X62111Y133745D01*
X61972Y133495D01*
X61806Y133190D01*
X61584Y132856D01*
X61334Y132551D01*
X61029Y132246D01*
X61001Y132218D01*
X60890Y132135D01*
X60696Y131996D01*
X60473Y131829D01*
X60168Y131635D01*
X59835Y131468D01*
X59418Y131274D01*
X59002Y131135D01*
X58946D01*
X58780Y131080D01*
X58530Y131024D01*
X58197Y130969D01*
X57780Y130913D01*
X57336Y130857D01*
X56809Y130830D01*
X56253Y130802D01*
X56031D01*
X55781Y130830D01*
X55448Y130857D01*
X55087Y130885D01*
X54671Y130969D01*
X54227Y131052D01*
X53783Y131163D01*
X53755D01*
X53727Y131191D01*
X53588Y131246D01*
X53366Y131329D01*
X53061Y131441D01*
X52755Y131607D01*
X52395Y131802D01*
X52034Y132024D01*
X51701Y132273D01*
X51673Y132301D01*
X51562Y132412D01*
X51395Y132579D01*
X51173Y132773D01*
X50951Y133051D01*
X50701Y133356D01*
X50479Y133689D01*
X50257Y134078D01*
X50229Y134134D01*
X50174Y134272D01*
X50090Y134494D01*
X49979Y134772D01*
X49896Y135133D01*
X49813Y135549D01*
X49757Y135994D01*
X49729Y136493D01*
Y136521D01*
Y136549D01*
Y136715D01*
X49757Y136965D01*
X49785Y137271D01*
X49840Y137632D01*
X49896Y138020D01*
X50007Y138409D01*
X50146Y138798D01*
X50174Y138853D01*
X50229Y138964D01*
X50312Y139158D01*
X50451Y139408D01*
X50618Y139658D01*
X50812Y139964D01*
X51062Y140241D01*
X51340Y140519D01*
X51367Y140547D01*
X51478Y140630D01*
X51645Y140769D01*
X51839Y140907D01*
X52117Y141074D01*
X52422Y141268D01*
X52783Y141435D01*
X53172Y141574D01*
X53227Y141601D01*
X53366Y141629D01*
X53588Y141685D01*
X53866Y141768D01*
X54227Y141824D01*
X54616Y141879D01*
X55060Y141907D01*
X55560Y141935D01*
X56087D01*
X56365Y141907D01*
D02*
G37*
G36*
X232306Y74830D02*
X229853D01*
Y67500D01*
X228712D01*
Y74830D01*
X226259D01*
Y75789D01*
X232306D01*
Y74830D01*
D02*
G37*
G36*
X173256Y50902D02*
X173439Y50874D01*
X173665Y50845D01*
X173890Y50789D01*
X174130Y50718D01*
X174356Y50620D01*
X174384Y50606D01*
X174454Y50564D01*
X174567Y50493D01*
X174708Y50408D01*
X174863Y50282D01*
X175018Y50141D01*
X175187Y49971D01*
X175342Y49774D01*
X175357Y49746D01*
X175413Y49675D01*
X175483Y49563D01*
X175568Y49408D01*
X175667Y49210D01*
X175765Y48985D01*
X175850Y48731D01*
X175934Y48449D01*
Y48435D01*
X175949Y48421D01*
Y48378D01*
X175963Y48308D01*
X175977Y48238D01*
X175991Y48153D01*
X176033Y47941D01*
X176075Y47688D01*
X176104Y47392D01*
X176118Y47053D01*
X176132Y46701D01*
Y46687D01*
Y46659D01*
Y46588D01*
Y46518D01*
X176118Y46419D01*
Y46306D01*
X176104Y46038D01*
X176061Y45742D01*
X176019Y45418D01*
X175949Y45094D01*
X175864Y44770D01*
Y44756D01*
X175850Y44727D01*
X175836Y44685D01*
X175822Y44629D01*
X175751Y44488D01*
X175681Y44290D01*
X175568Y44079D01*
X175455Y43853D01*
X175300Y43628D01*
X175145Y43416D01*
X175131Y43388D01*
X175075Y43332D01*
X174976Y43233D01*
X174849Y43120D01*
X174694Y42993D01*
X174525Y42867D01*
X174327Y42754D01*
X174102Y42641D01*
X174074Y42627D01*
X174003Y42599D01*
X173876Y42556D01*
X173721Y42514D01*
X173538Y42472D01*
X173326Y42429D01*
X173087Y42401D01*
X172847Y42387D01*
X172706D01*
X172565Y42401D01*
X172368Y42429D01*
X172157Y42458D01*
X171917Y42500D01*
X171677Y42571D01*
X171452Y42669D01*
X171423Y42683D01*
X171353Y42726D01*
X171240Y42796D01*
X171113Y42881D01*
X170944Y43007D01*
X170789Y43148D01*
X170620Y43318D01*
X170465Y43501D01*
X170451Y43529D01*
X170394Y43600D01*
X170324Y43712D01*
X170239Y43867D01*
X170155Y44065D01*
X170056Y44290D01*
X169971Y44544D01*
X169887Y44826D01*
Y44840D01*
X169873Y44868D01*
Y44911D01*
X169859Y44967D01*
X169844Y45037D01*
X169830Y45122D01*
X169802Y45348D01*
X169760Y45601D01*
X169732Y45911D01*
X169718Y46250D01*
X169704Y46602D01*
Y46616D01*
Y46645D01*
Y46715D01*
Y46785D01*
X169718Y46884D01*
Y46997D01*
X169732Y47251D01*
X169760Y47561D01*
X169816Y47871D01*
X169873Y48209D01*
X169957Y48519D01*
Y48534D01*
X169971Y48562D01*
X169986Y48604D01*
X170000Y48660D01*
X170056Y48801D01*
X170141Y48999D01*
X170239Y49210D01*
X170366Y49436D01*
X170507Y49647D01*
X170662Y49859D01*
X170676Y49887D01*
X170747Y49943D01*
X170831Y50042D01*
X170958Y50155D01*
X171113Y50282D01*
X171297Y50423D01*
X171494Y50535D01*
X171705Y50648D01*
X171733Y50662D01*
X171804Y50690D01*
X171931Y50733D01*
X172086Y50789D01*
X172269Y50831D01*
X172495Y50874D01*
X172720Y50902D01*
X172974Y50916D01*
X173101D01*
X173256Y50902D01*
D02*
G37*
G36*
X222734Y75902D02*
X222904Y75888D01*
X222988D01*
X223059Y75874D01*
X223214Y75859D01*
X223397Y75831D01*
X223439D01*
X223496Y75817D01*
X223552D01*
X223707Y75789D01*
X223890Y75761D01*
X223933D01*
X223989Y75747D01*
X224045Y75733D01*
X224200Y75704D01*
X224356Y75676D01*
Y74661D01*
X224327D01*
X224271Y74689D01*
X224172Y74704D01*
X224045Y74732D01*
X223904Y74760D01*
X223735Y74802D01*
X223369Y74859D01*
X223355D01*
X223284Y74873D01*
X223200Y74887D01*
X223073Y74901D01*
X222932Y74915D01*
X222763Y74929D01*
X222424Y74943D01*
X222269D01*
X222100Y74929D01*
X221889Y74901D01*
X221649Y74859D01*
X221409Y74802D01*
X221198Y74718D01*
X221000Y74605D01*
X220986Y74591D01*
X220930Y74549D01*
X220860Y74478D01*
X220775Y74379D01*
X220690Y74253D01*
X220620Y74097D01*
X220564Y73928D01*
X220549Y73731D01*
Y73717D01*
Y73675D01*
X220564Y73618D01*
X220578Y73534D01*
X220634Y73350D01*
X220676Y73252D01*
X220733Y73153D01*
X220747Y73139D01*
X220761Y73111D01*
X220803Y73068D01*
X220860Y73012D01*
X221015Y72871D01*
X221212Y72716D01*
X221226Y72702D01*
X221268Y72688D01*
X221325Y72645D01*
X221423Y72603D01*
X221522Y72547D01*
X221635Y72490D01*
X221917Y72378D01*
X221931D01*
X221987Y72349D01*
X222058Y72321D01*
X222171Y72279D01*
X222283Y72237D01*
X222410Y72180D01*
X222706Y72053D01*
X222720D01*
X222777Y72025D01*
X222861Y71997D01*
X222960Y71955D01*
X223087Y71898D01*
X223214Y71842D01*
X223510Y71701D01*
X223524Y71687D01*
X223580Y71673D01*
X223651Y71630D01*
X223749Y71574D01*
X223975Y71419D01*
X224200Y71236D01*
X224215Y71222D01*
X224257Y71193D01*
X224313Y71137D01*
X224384Y71052D01*
X224454Y70968D01*
X224539Y70855D01*
X224694Y70601D01*
X224708Y70587D01*
X224722Y70531D01*
X224750Y70460D01*
X224793Y70362D01*
X224835Y70235D01*
X224863Y70080D01*
X224877Y69925D01*
X224891Y69741D01*
Y69713D01*
Y69643D01*
X224877Y69530D01*
X224863Y69389D01*
X224835Y69234D01*
X224778Y69051D01*
X224722Y68867D01*
X224638Y68698D01*
X224623Y68684D01*
X224595Y68628D01*
X224539Y68543D01*
X224468Y68444D01*
X224370Y68332D01*
X224257Y68205D01*
X224116Y68078D01*
X223961Y67965D01*
X223947Y67951D01*
X223890Y67923D01*
X223792Y67867D01*
X223679Y67796D01*
X223524Y67726D01*
X223355Y67655D01*
X223157Y67585D01*
X222932Y67528D01*
X222904D01*
X222833Y67500D01*
X222706Y67486D01*
X222537Y67458D01*
X222340Y67429D01*
X222114Y67415D01*
X221860Y67387D01*
X221395D01*
X221282Y67401D01*
X221184D01*
X220930Y67415D01*
X220874D01*
X220817Y67429D01*
X220733D01*
X220535Y67458D01*
X220310Y67486D01*
X220253D01*
X220197Y67500D01*
X220126D01*
X219943Y67528D01*
X219746Y67556D01*
X219732D01*
X219704Y67571D01*
X219647Y67585D01*
X219591Y67599D01*
X219436Y67641D01*
X219267Y67683D01*
Y68769D01*
X219295Y68755D01*
X219351Y68741D01*
X219450Y68712D01*
X219577Y68670D01*
X219732Y68614D01*
X219915Y68571D01*
X220112Y68529D01*
X220324Y68487D01*
X220352D01*
X220422Y68473D01*
X220549Y68459D01*
X220719Y68444D01*
X220916Y68416D01*
X221141Y68402D01*
X221395Y68388D01*
X221875D01*
X222001Y68402D01*
X222142D01*
X222297Y68430D01*
X222453Y68444D01*
X222608Y68473D01*
X222622D01*
X222678Y68487D01*
X222734Y68515D01*
X222833Y68529D01*
X223030Y68614D01*
X223228Y68712D01*
X223242Y68726D01*
X223270Y68741D01*
X223312Y68783D01*
X223369Y68825D01*
X223496Y68952D01*
X223594Y69121D01*
Y69135D01*
X223608Y69163D01*
X223637Y69220D01*
X223651Y69290D01*
X223679Y69375D01*
X223693Y69474D01*
X223707Y69685D01*
Y69699D01*
Y69741D01*
X223693Y69798D01*
X223679Y69882D01*
X223622Y70066D01*
X223580Y70150D01*
X223510Y70249D01*
X223496Y70263D01*
X223482Y70291D01*
X223439Y70333D01*
X223383Y70390D01*
X223312Y70460D01*
X223228Y70531D01*
X223016Y70672D01*
X223002Y70686D01*
X222960Y70700D01*
X222904Y70742D01*
X222819Y70785D01*
X222720Y70841D01*
X222608Y70897D01*
X222326Y71024D01*
X222311Y71038D01*
X222255Y71052D01*
X222185Y71081D01*
X222072Y71123D01*
X221959Y71165D01*
X221818Y71222D01*
X221522Y71334D01*
X221508Y71349D01*
X221452Y71363D01*
X221381Y71405D01*
X221282Y71447D01*
X221156Y71504D01*
X221029Y71560D01*
X220733Y71701D01*
X220719Y71715D01*
X220662Y71743D01*
X220592Y71771D01*
X220493Y71828D01*
X220394Y71898D01*
X220268Y71969D01*
X220028Y72152D01*
X220014Y72166D01*
X219986Y72194D01*
X219929Y72251D01*
X219859Y72335D01*
X219788Y72420D01*
X219704Y72533D01*
X219548Y72772D01*
X219534Y72786D01*
X219520Y72843D01*
X219492Y72913D01*
X219464Y73012D01*
X219422Y73139D01*
X219393Y73280D01*
X219379Y73449D01*
X219365Y73618D01*
Y73632D01*
Y73689D01*
X219379Y73773D01*
X219393Y73886D01*
X219408Y74013D01*
X219436Y74154D01*
X219478Y74309D01*
X219534Y74464D01*
X219548Y74478D01*
X219563Y74534D01*
X219619Y74605D01*
X219675Y74704D01*
X219746Y74816D01*
X219844Y74943D01*
X219957Y75070D01*
X220084Y75197D01*
X220098Y75211D01*
X220155Y75253D01*
X220239Y75310D01*
X220352Y75380D01*
X220479Y75465D01*
X220648Y75549D01*
X220831Y75634D01*
X221043Y75718D01*
X221071Y75733D01*
X221156Y75747D01*
X221268Y75775D01*
X221437Y75817D01*
X221649Y75859D01*
X221889Y75888D01*
X222157Y75902D01*
X222453Y75916D01*
X222593D01*
X222734Y75902D01*
D02*
G37*
G36*
X214967Y75775D02*
X215136D01*
X215333Y75747D01*
X215545Y75718D01*
X215756Y75676D01*
X215954Y75620D01*
X215982D01*
X216038Y75592D01*
X216137Y75549D01*
X216250Y75507D01*
X216391Y75451D01*
X216532Y75366D01*
X216673Y75282D01*
X216800Y75183D01*
X216814Y75169D01*
X216856Y75127D01*
X216912Y75070D01*
X216983Y74985D01*
X217067Y74887D01*
X217152Y74774D01*
X217222Y74633D01*
X217293Y74492D01*
X217307Y74478D01*
X217321Y74422D01*
X217349Y74337D01*
X217378Y74224D01*
X217406Y74097D01*
X217434Y73942D01*
X217462Y73787D01*
Y73604D01*
Y73590D01*
Y73534D01*
Y73463D01*
X217448Y73364D01*
X217434Y73252D01*
X217406Y73125D01*
X217335Y72857D01*
Y72843D01*
X217321Y72800D01*
X217293Y72730D01*
X217251Y72660D01*
X217152Y72448D01*
X216997Y72237D01*
X216983Y72222D01*
X216955Y72194D01*
X216912Y72138D01*
X216842Y72067D01*
X216757Y71997D01*
X216659Y71912D01*
X216433Y71743D01*
X216419Y71729D01*
X216377Y71715D01*
X216306Y71673D01*
X216222Y71630D01*
X216109Y71588D01*
X215982Y71532D01*
X215827Y71489D01*
X215672Y71447D01*
X215686D01*
X215728Y71419D01*
X215799Y71391D01*
X215883Y71349D01*
X215968Y71292D01*
X216066Y71207D01*
X216165Y71123D01*
X216264Y71010D01*
X216278Y70996D01*
X216306Y70954D01*
X216363Y70897D01*
X216419Y70799D01*
X216504Y70686D01*
X216588Y70559D01*
X216673Y70390D01*
X216771Y70221D01*
X218097Y67500D01*
X216814D01*
X215573Y70150D01*
Y70164D01*
X215545Y70207D01*
X215517Y70249D01*
X215489Y70319D01*
X215390Y70489D01*
X215277Y70644D01*
Y70658D01*
X215249Y70686D01*
X215193Y70771D01*
X215094Y70869D01*
X214967Y70968D01*
X214953D01*
X214939Y70982D01*
X214854Y71038D01*
X214741Y71081D01*
X214601Y71137D01*
X214586D01*
X214572Y71151D01*
X214530D01*
X214474Y71165D01*
X214333Y71179D01*
X214149Y71193D01*
X213628D01*
Y67500D01*
X212500D01*
Y75789D01*
X214840D01*
X214967Y75775D01*
D02*
G37*
G36*
X229515Y50775D02*
X229670Y50761D01*
X229853Y50733D01*
X230065Y50704D01*
X230290Y50662D01*
X230516Y50606D01*
X230756Y50549D01*
X230995Y50465D01*
X231235Y50366D01*
X231475Y50253D01*
X231700Y50112D01*
X231912Y49971D01*
X232095Y49788D01*
X232109Y49774D01*
X232137Y49746D01*
X232179Y49689D01*
X232250Y49605D01*
X232320Y49492D01*
X232405Y49365D01*
X232490Y49210D01*
X232574Y49027D01*
X232659Y48829D01*
X232757Y48604D01*
X232828Y48350D01*
X232898Y48082D01*
X232969Y47772D01*
X233011Y47448D01*
X233039Y47110D01*
X233053Y46729D01*
Y46701D01*
Y46630D01*
Y46518D01*
X233039Y46363D01*
X233025Y46193D01*
X233011Y45996D01*
X232955Y45587D01*
Y45559D01*
X232941Y45489D01*
X232913Y45390D01*
X232884Y45249D01*
X232842Y45094D01*
X232786Y44925D01*
X232659Y44572D01*
X232645Y44558D01*
X232616Y44488D01*
X232574Y44403D01*
X232518Y44290D01*
X232447Y44163D01*
X232363Y44008D01*
X232137Y43712D01*
X232123Y43698D01*
X232081Y43656D01*
X232010Y43571D01*
X231912Y43487D01*
X231799Y43388D01*
X231658Y43275D01*
X231503Y43163D01*
X231334Y43064D01*
X231320Y43050D01*
X231249Y43022D01*
X231150Y42965D01*
X231024Y42909D01*
X230868Y42838D01*
X230685Y42768D01*
X230474Y42697D01*
X230248Y42641D01*
X230220D01*
X230135Y42613D01*
X230009Y42599D01*
X229839Y42571D01*
X229628Y42542D01*
X229388Y42528D01*
X229120Y42500D01*
X227062D01*
Y50789D01*
X229374D01*
X229515Y50775D01*
D02*
G37*
G36*
X62333Y155483D02*
X62361Y155372D01*
X62389Y155233D01*
X62417Y155038D01*
X62472Y154789D01*
X62500Y154539D01*
X62583Y153956D01*
Y153928D01*
Y153817D01*
X62611Y153678D01*
Y153456D01*
X62639Y153234D01*
Y152956D01*
X62667Y152373D01*
Y152346D01*
Y152262D01*
Y152151D01*
X62639Y151985D01*
Y151790D01*
X62611Y151568D01*
X62528Y151041D01*
X62417Y150485D01*
X62222Y149902D01*
X61972Y149347D01*
X61806Y149070D01*
X61612Y148848D01*
X61556Y148792D01*
X61417Y148653D01*
X61167Y148486D01*
X60806Y148264D01*
X60335Y148042D01*
X59779Y147876D01*
X59113Y147737D01*
X58336Y147681D01*
X51784D01*
Y144183D01*
X49952D01*
Y147681D01*
X46509D01*
X45926Y149847D01*
X49952D01*
Y155510D01*
X51784D01*
Y149847D01*
X58391D01*
X58613Y149875D01*
X58919Y149930D01*
X59252Y150014D01*
X59585Y150152D01*
X59890Y150319D01*
X60168Y150569D01*
X60196Y150597D01*
X60279Y150708D01*
X60390Y150874D01*
X60501Y151096D01*
X60612Y151402D01*
X60723Y151763D01*
X60806Y152179D01*
X60834Y152679D01*
Y152706D01*
Y152790D01*
Y152901D01*
Y153067D01*
X60806Y153262D01*
Y153511D01*
X60751Y154011D01*
Y154039D01*
X60723Y154150D01*
Y154289D01*
X60668Y154483D01*
X60640Y154705D01*
X60584Y154955D01*
X60446Y155510D01*
X62333D01*
Y155483D01*
D02*
G37*
G36*
X216771Y50902D02*
X216926Y50888D01*
X217110Y50874D01*
X217490Y50817D01*
X217519D01*
X217575Y50803D01*
X217674Y50775D01*
X217801Y50747D01*
X217955Y50704D01*
X218111Y50648D01*
X218463Y50507D01*
Y49379D01*
X218449Y49393D01*
X218379Y49422D01*
X218294Y49464D01*
X218167Y49520D01*
X218026Y49577D01*
X217857Y49647D01*
X217504Y49760D01*
X217476D01*
X217420Y49788D01*
X217321Y49802D01*
X217194Y49830D01*
X217025Y49859D01*
X216856Y49873D01*
X216659Y49901D01*
X216334D01*
X216208Y49887D01*
X216052Y49873D01*
X215869Y49844D01*
X215672Y49802D01*
X215460Y49746D01*
X215263Y49661D01*
X215235Y49647D01*
X215178Y49619D01*
X215080Y49563D01*
X214967Y49492D01*
X214826Y49393D01*
X214685Y49281D01*
X214544Y49140D01*
X214403Y48985D01*
X214389Y48970D01*
X214347Y48914D01*
X214276Y48815D01*
X214206Y48703D01*
X214121Y48548D01*
X214023Y48378D01*
X213938Y48181D01*
X213867Y47955D01*
X213853Y47927D01*
X213839Y47857D01*
X213811Y47730D01*
X213783Y47575D01*
X213741Y47378D01*
X213712Y47152D01*
X213698Y46898D01*
X213684Y46630D01*
Y46616D01*
Y46602D01*
Y46560D01*
Y46504D01*
X213698Y46363D01*
Y46179D01*
X213712Y45968D01*
X213741Y45728D01*
X213783Y45503D01*
X213825Y45263D01*
X213839Y45235D01*
X213853Y45164D01*
X213896Y45051D01*
X213938Y44911D01*
X214008Y44741D01*
X214093Y44572D01*
X214192Y44403D01*
X214304Y44234D01*
X214319Y44220D01*
X214361Y44163D01*
X214431Y44093D01*
X214530Y44008D01*
X214657Y43896D01*
X214798Y43797D01*
X214953Y43698D01*
X215136Y43600D01*
X215164Y43586D01*
X215221Y43571D01*
X215333Y43529D01*
X215474Y43501D01*
X215658Y43459D01*
X215869Y43416D01*
X216095Y43402D01*
X216348Y43388D01*
X216630D01*
X216687Y43402D01*
X216786D01*
X216884Y43416D01*
X216912D01*
X216969Y43430D01*
X217053Y43459D01*
X217152Y43473D01*
X217180Y43487D01*
X217237Y43501D01*
X217307Y43529D01*
X217392Y43557D01*
Y46193D01*
X215686D01*
Y47124D01*
X218505D01*
Y42881D01*
X218491D01*
X218463Y42867D01*
X218407Y42838D01*
X218336Y42810D01*
X218153Y42726D01*
X217941Y42655D01*
X217927D01*
X217899Y42641D01*
X217843Y42627D01*
X217758Y42613D01*
X217674Y42585D01*
X217575Y42556D01*
X217349Y42514D01*
X217335D01*
X217293Y42500D01*
X217237D01*
X217166Y42486D01*
X216969Y42458D01*
X216757Y42429D01*
X216701D01*
X216644Y42415D01*
X216574D01*
X216391Y42401D01*
X216179Y42387D01*
X216038D01*
X215869Y42401D01*
X215672Y42415D01*
X215432Y42444D01*
X215178Y42500D01*
X214911Y42556D01*
X214643Y42641D01*
X214629D01*
X214615Y42655D01*
X214530Y42697D01*
X214403Y42754D01*
X214248Y42838D01*
X214065Y42951D01*
X213867Y43092D01*
X213670Y43247D01*
X213487Y43430D01*
X213473Y43459D01*
X213402Y43529D01*
X213318Y43642D01*
X213219Y43797D01*
X213092Y43980D01*
X212979Y44206D01*
X212852Y44460D01*
X212754Y44741D01*
Y44756D01*
X212740Y44784D01*
X212726Y44826D01*
X212712Y44882D01*
X212697Y44953D01*
X212669Y45037D01*
X212627Y45263D01*
X212585Y45517D01*
X212542Y45827D01*
X212514Y46179D01*
X212500Y46546D01*
Y46560D01*
Y46588D01*
Y46645D01*
Y46715D01*
X212514Y46814D01*
Y46912D01*
X212542Y47166D01*
X212570Y47448D01*
X212613Y47758D01*
X212683Y48068D01*
X212782Y48378D01*
Y48393D01*
X212796Y48421D01*
X212810Y48463D01*
X212838Y48519D01*
X212895Y48660D01*
X212993Y48858D01*
X213092Y49069D01*
X213233Y49309D01*
X213388Y49534D01*
X213571Y49760D01*
X213600Y49788D01*
X213670Y49859D01*
X213769Y49957D01*
X213924Y50084D01*
X214107Y50225D01*
X214319Y50366D01*
X214558Y50493D01*
X214812Y50620D01*
X214826D01*
X214840Y50634D01*
X214882Y50648D01*
X214939Y50662D01*
X215094Y50718D01*
X215291Y50775D01*
X215531Y50817D01*
X215799Y50874D01*
X216109Y50902D01*
X216433Y50916D01*
X216630D01*
X216771Y50902D01*
D02*
G37*
G36*
X225624Y42500D02*
X224088D01*
X221776Y47674D01*
X221113Y49337D01*
Y45150D01*
Y42500D01*
X219986D01*
Y50789D01*
X221494D01*
X223693Y45883D01*
X224497Y43994D01*
Y48435D01*
Y50789D01*
X225624D01*
Y42500D01*
D02*
G37*
G36*
X54727Y336992D02*
X54449D01*
X54171Y336964D01*
X53838Y336936D01*
X53450Y336881D01*
X53061Y336797D01*
X52672Y336659D01*
X52367Y336492D01*
X52339Y336464D01*
X52256Y336409D01*
X52117Y336270D01*
X51978Y336104D01*
X51867Y335881D01*
X51728Y335631D01*
X51645Y335326D01*
X51617Y334965D01*
Y334938D01*
Y334882D01*
Y334799D01*
X51645Y334715D01*
X51673Y334438D01*
X51784Y334105D01*
Y334077D01*
X51812Y334021D01*
X51839Y333938D01*
X51895Y333827D01*
X52061Y333522D01*
X52284Y333189D01*
X52311Y333161D01*
X52339Y333105D01*
X52422Y333022D01*
X52506Y332883D01*
X52811Y332578D01*
X53172Y332189D01*
X53200Y332161D01*
X53255Y332106D01*
X53366Y331995D01*
X53533Y331856D01*
X53727Y331689D01*
X53921Y331495D01*
X54171Y331301D01*
X54449Y331078D01*
X62500D01*
Y328885D01*
X49952D01*
Y330856D01*
X52284Y330912D01*
X52256D01*
X52228Y330967D01*
X52061Y331106D01*
X51839Y331328D01*
X51534Y331606D01*
X51228Y331939D01*
X50895Y332300D01*
X50590Y332689D01*
X50340Y333105D01*
X50312Y333161D01*
X50257Y333299D01*
X50146Y333494D01*
X50035Y333799D01*
X49924Y334105D01*
X49813Y334493D01*
X49757Y334882D01*
X49729Y335298D01*
Y335326D01*
Y335382D01*
Y335493D01*
X49757Y335631D01*
Y335770D01*
X49785Y335965D01*
X49896Y336409D01*
X50035Y336881D01*
X50257Y337353D01*
X50590Y337825D01*
X50784Y338047D01*
X51006Y338241D01*
X51062Y338297D01*
X51145Y338325D01*
X51228Y338408D01*
X51367Y338463D01*
X51534Y338547D01*
X51728Y338658D01*
X51950Y338741D01*
X52200Y338824D01*
X52450Y338908D01*
X52755Y338991D01*
X53089Y339074D01*
X53477Y339130D01*
X53866Y339157D01*
X54282Y339185D01*
X54727D01*
Y336992D01*
D02*
G37*
G36*
X46648Y236548D02*
X46870Y236521D01*
X47092Y236437D01*
X47147Y236409D01*
X47286Y236326D01*
X47453Y236215D01*
X47647Y236049D01*
X47675Y236021D01*
X47786Y235910D01*
X47897Y235743D01*
X48008Y235521D01*
X48036Y235466D01*
X48064Y235327D01*
X48091Y235105D01*
X48119Y234855D01*
Y234827D01*
Y234799D01*
X48091Y234633D01*
X48064Y234411D01*
X48008Y234188D01*
X47980Y234133D01*
X47897Y233994D01*
X47786Y233827D01*
X47647Y233633D01*
X47592Y233605D01*
X47481Y233494D01*
X47314Y233383D01*
X47092Y233272D01*
X47064D01*
X47036Y233244D01*
X46898Y233217D01*
X46676Y233189D01*
X46426Y233161D01*
X46370D01*
X46204Y233189D01*
X45981Y233217D01*
X45759Y233272D01*
X45732D01*
X45704Y233300D01*
X45565Y233383D01*
X45399Y233494D01*
X45232Y233633D01*
X45176Y233689D01*
X45093Y233800D01*
X44954Y233966D01*
X44843Y234188D01*
Y234216D01*
X44816Y234244D01*
X44760Y234383D01*
X44732Y234605D01*
X44704Y234855D01*
Y234883D01*
Y234910D01*
X44732Y235077D01*
X44760Y235299D01*
X44843Y235521D01*
Y235549D01*
X44871Y235577D01*
X44954Y235715D01*
X45065Y235882D01*
X45232Y236049D01*
X45260Y236104D01*
X45371Y236187D01*
X45537Y236326D01*
X45759Y236437D01*
X45815Y236465D01*
X45954Y236521D01*
X46176Y236548D01*
X46426Y236576D01*
X46481D01*
X46648Y236548D01*
D02*
G37*
G36*
X62500Y229996D02*
X60696D01*
Y234105D01*
X51756D01*
Y230413D01*
X49952D01*
Y236298D01*
X60696D01*
Y240046D01*
X62500D01*
Y229996D01*
D02*
G37*
G36*
Y350512D02*
X60834Y350457D01*
X60890Y350401D01*
X61001Y350290D01*
X61167Y350068D01*
X61389Y349818D01*
X61612Y349485D01*
X61862Y349152D01*
X62084Y348763D01*
X62278Y348374D01*
X62306Y348319D01*
X62333Y348180D01*
X62417Y347986D01*
X62500Y347708D01*
X62583Y347375D01*
X62639Y346986D01*
X62694Y346598D01*
X62722Y346153D01*
Y346098D01*
Y345987D01*
X62694Y345793D01*
Y345543D01*
X62667Y345237D01*
X62611Y344932D01*
X62472Y344321D01*
Y344293D01*
X62417Y344210D01*
X62361Y344071D01*
X62278Y343877D01*
X62028Y343488D01*
X61723Y343072D01*
X61695Y343044D01*
X61639Y342989D01*
X61528Y342905D01*
X61389Y342794D01*
X61223Y342683D01*
X61029Y342544D01*
X60584Y342350D01*
X60557D01*
X60473Y342322D01*
X60335Y342295D01*
X60168Y342239D01*
X59946Y342211D01*
X59696Y342156D01*
X59169Y342128D01*
X58974D01*
X58863Y342156D01*
X58697Y342183D01*
X58502Y342211D01*
X58086Y342295D01*
X57614Y342461D01*
X57114Y342711D01*
X56864Y342878D01*
X56642Y343072D01*
X56420Y343266D01*
X56198Y343516D01*
Y343544D01*
X56143Y343572D01*
X56087Y343655D01*
X56031Y343794D01*
X55948Y343932D01*
X55865Y344099D01*
X55754Y344321D01*
X55643Y344571D01*
X55560Y344849D01*
X55448Y345154D01*
X55365Y345487D01*
X55282Y345876D01*
X55226Y346264D01*
X55171Y346709D01*
X55115Y347181D01*
Y347680D01*
Y350290D01*
X53838D01*
X53644Y350262D01*
X53394Y350207D01*
X53116Y350123D01*
X52811Y349985D01*
X52533Y349818D01*
X52256Y349568D01*
X52228Y349540D01*
X52145Y349429D01*
X52034Y349263D01*
X51923Y349041D01*
X51812Y348735D01*
X51701Y348347D01*
X51617Y347902D01*
X51589Y347403D01*
Y347347D01*
Y347208D01*
Y347014D01*
X51617Y346736D01*
X51645Y346403D01*
X51701Y346070D01*
X51839Y345293D01*
Y345237D01*
X51895Y345126D01*
X51950Y344904D01*
X52006Y344654D01*
X52117Y344321D01*
X52228Y343960D01*
X52367Y343572D01*
X52506Y343183D01*
X50535D01*
Y343211D01*
X50507Y343266D01*
X50479Y343322D01*
X50451Y343433D01*
X50368Y343710D01*
X50257Y344071D01*
Y344099D01*
X50229Y344155D01*
X50201Y344266D01*
X50174Y344404D01*
X50090Y344765D01*
X50007Y345154D01*
Y345182D01*
X49979Y345265D01*
X49952Y345376D01*
X49924Y345515D01*
X49896Y345681D01*
X49868Y345876D01*
X49813Y346320D01*
Y346348D01*
X49785Y346431D01*
Y346542D01*
X49757Y346709D01*
Y346903D01*
X49729Y347097D01*
Y347569D01*
Y347625D01*
Y347764D01*
Y347986D01*
X49757Y348263D01*
X49785Y348569D01*
X49840Y348930D01*
X49979Y349624D01*
Y349651D01*
X50035Y349790D01*
X50090Y349957D01*
X50174Y350151D01*
X50285Y350401D01*
X50423Y350651D01*
X50562Y350901D01*
X50757Y351151D01*
X50784Y351178D01*
X50840Y351262D01*
X50951Y351373D01*
X51090Y351511D01*
X51284Y351678D01*
X51506Y351845D01*
X51756Y351983D01*
X52034Y352122D01*
X52061Y352150D01*
X52172Y352178D01*
X52339Y352233D01*
X52561Y352317D01*
X52811Y352372D01*
X53144Y352428D01*
X53477Y352455D01*
X53866Y352483D01*
X62500D01*
Y350512D01*
D02*
G37*
G36*
X59474Y253844D02*
X59863Y253761D01*
X60279Y253622D01*
X60307D01*
X60362Y253594D01*
X60473Y253539D01*
X60584Y253455D01*
X60890Y253261D01*
X61223Y253011D01*
X61251Y252983D01*
X61279Y252956D01*
X61362Y252872D01*
X61445Y252761D01*
X61667Y252456D01*
X61917Y252095D01*
Y252067D01*
X61972Y252012D01*
X62000Y251901D01*
X62084Y251762D01*
X62222Y251429D01*
X62361Y251012D01*
Y250985D01*
X62389Y250929D01*
X62417Y250790D01*
X62445Y250651D01*
X62500Y250485D01*
X62528Y250263D01*
X62611Y249819D01*
Y249791D01*
X62639Y249708D01*
Y249597D01*
X62667Y249430D01*
X62694Y249069D01*
X62722Y248625D01*
Y248569D01*
Y248403D01*
Y248153D01*
X62694Y247847D01*
Y247487D01*
X62667Y247098D01*
X62611Y246265D01*
Y246210D01*
X62583Y246098D01*
X62555Y245876D01*
X62528Y245627D01*
X62472Y245293D01*
X62417Y244960D01*
X62250Y244211D01*
X60251D01*
Y244266D01*
X60307Y244405D01*
X60362Y244599D01*
X60446Y244877D01*
X60529Y245210D01*
X60612Y245571D01*
X60751Y246376D01*
Y246432D01*
X60779Y246570D01*
X60806Y246765D01*
Y247042D01*
X60834Y247376D01*
X60862Y247736D01*
X60890Y248542D01*
Y248569D01*
Y248597D01*
Y248680D01*
Y248791D01*
X60862Y249069D01*
X60834Y249402D01*
X60779Y249791D01*
X60723Y250180D01*
X60612Y250540D01*
X60473Y250846D01*
X60446Y250874D01*
X60390Y250957D01*
X60307Y251096D01*
X60168Y251234D01*
X60001Y251373D01*
X59779Y251512D01*
X59529Y251595D01*
X59252Y251623D01*
X59196D01*
X59057Y251595D01*
X58863Y251568D01*
X58669Y251484D01*
X58613Y251457D01*
X58502Y251401D01*
X58336Y251262D01*
X58141Y251040D01*
X58086Y250985D01*
X58058Y250901D01*
X57975Y250818D01*
X57919Y250679D01*
X57836Y250513D01*
X57725Y250291D01*
X57642Y250068D01*
Y250041D01*
X57586Y249957D01*
X57531Y249819D01*
X57447Y249597D01*
X57364Y249347D01*
X57253Y249041D01*
X57142Y248708D01*
X57031Y248292D01*
Y248264D01*
X56975Y248153D01*
X56948Y247986D01*
X56864Y247792D01*
X56781Y247542D01*
X56698Y247292D01*
X56476Y246737D01*
X56448Y246709D01*
X56420Y246626D01*
X56337Y246487D01*
X56253Y246320D01*
X56031Y245904D01*
X55726Y245488D01*
X55698Y245460D01*
X55643Y245404D01*
X55560Y245293D01*
X55421Y245182D01*
X55115Y244905D01*
X54699Y244655D01*
X54671D01*
X54588Y244599D01*
X54477Y244571D01*
X54310Y244516D01*
X54116Y244461D01*
X53866Y244433D01*
X53588Y244377D01*
X53116D01*
X52978Y244405D01*
X52811Y244433D01*
X52617Y244461D01*
X52172Y244599D01*
X52145D01*
X52061Y244655D01*
X51950Y244710D01*
X51784Y244794D01*
X51617Y244905D01*
X51423Y245044D01*
X51201Y245238D01*
X51006Y245432D01*
X50979Y245460D01*
X50923Y245543D01*
X50812Y245682D01*
X50673Y245849D01*
X50535Y246071D01*
X50396Y246348D01*
X50229Y246654D01*
X50090Y247015D01*
X50062Y247070D01*
X50035Y247209D01*
X49979Y247403D01*
X49896Y247709D01*
X49840Y248070D01*
X49785Y248486D01*
X49757Y248986D01*
X49729Y249513D01*
Y249541D01*
Y249652D01*
Y249791D01*
Y250013D01*
X49757Y250235D01*
Y250513D01*
X49813Y251151D01*
Y251179D01*
X49840Y251318D01*
Y251484D01*
X49868Y251734D01*
X49924Y252012D01*
X49952Y252317D01*
X50035Y252678D01*
X50090Y253039D01*
X52034D01*
Y252983D01*
X51978Y252872D01*
X51950Y252678D01*
X51895Y252400D01*
X51839Y252123D01*
X51784Y251790D01*
X51673Y251096D01*
Y251068D01*
X51645Y250929D01*
X51617Y250763D01*
X51589Y250540D01*
Y250291D01*
X51562Y250041D01*
X51534Y249485D01*
Y249458D01*
Y249347D01*
Y249208D01*
X51562Y249014D01*
X51589Y248569D01*
X51673Y248125D01*
Y248097D01*
X51701Y248042D01*
X51728Y247931D01*
X51756Y247792D01*
X51895Y247514D01*
X52034Y247209D01*
X52061Y247153D01*
X52172Y247015D01*
X52339Y246876D01*
X52533Y246737D01*
X52589Y246709D01*
X52728Y246681D01*
X52922Y246626D01*
X53172Y246598D01*
X53227D01*
X53366Y246626D01*
X53561Y246654D01*
X53783Y246709D01*
X53838Y246737D01*
X53949Y246820D01*
X54116Y246987D01*
X54310Y247209D01*
Y247237D01*
X54366Y247264D01*
X54393Y247348D01*
X54477Y247459D01*
X54560Y247625D01*
X54643Y247792D01*
X54727Y247986D01*
X54838Y248208D01*
Y248236D01*
X54893Y248319D01*
X54921Y248458D01*
X55004Y248653D01*
X55087Y248902D01*
X55171Y249180D01*
X55254Y249485D01*
X55365Y249846D01*
X55393Y249902D01*
X55421Y250041D01*
X55476Y250235D01*
X55587Y250513D01*
X55670Y250818D01*
X55809Y251123D01*
X55920Y251429D01*
X56059Y251734D01*
X56087Y251762D01*
X56115Y251873D01*
X56198Y251984D01*
X56281Y252178D01*
X56559Y252567D01*
X56864Y252956D01*
X56892Y252983D01*
X56948Y253039D01*
X57031Y253122D01*
X57142Y253233D01*
X57447Y253455D01*
X57642Y253566D01*
X57836Y253650D01*
X57864D01*
X57919Y253678D01*
X58058Y253733D01*
X58197Y253761D01*
X58391Y253816D01*
X58586Y253844D01*
X59085Y253872D01*
X59335D01*
X59474Y253844D01*
D02*
G37*
G36*
X56670Y311117D02*
X57031Y311090D01*
X57447Y311034D01*
X57892Y310979D01*
X58363Y310868D01*
X58835Y310729D01*
X58891Y310701D01*
X59030Y310646D01*
X59252Y310562D01*
X59529Y310424D01*
X59863Y310257D01*
X60223Y310063D01*
X60584Y309813D01*
X60918Y309535D01*
X60945Y309507D01*
X61056Y309396D01*
X61223Y309230D01*
X61417Y309008D01*
X61612Y308730D01*
X61834Y308425D01*
X62056Y308036D01*
X62250Y307647D01*
X62278Y307592D01*
X62333Y307453D01*
X62389Y307231D01*
X62472Y306925D01*
X62583Y306537D01*
X62639Y306120D01*
X62694Y305648D01*
X62722Y305121D01*
Y305093D01*
Y305065D01*
Y304899D01*
X62694Y304621D01*
X62667Y304316D01*
X62611Y303927D01*
X62555Y303511D01*
X62445Y303094D01*
X62306Y302678D01*
X62278Y302622D01*
X62222Y302511D01*
X62139Y302317D01*
X62000Y302067D01*
X61834Y301762D01*
X61612Y301484D01*
X61362Y301179D01*
X61084Y300873D01*
X61056Y300846D01*
X60945Y300762D01*
X60779Y300623D01*
X60529Y300457D01*
X60251Y300290D01*
X59890Y300096D01*
X59502Y299929D01*
X59085Y299763D01*
X59057D01*
X59030Y299735D01*
X58863Y299707D01*
X58613Y299652D01*
X58280Y299568D01*
X57864Y299485D01*
X57392Y299430D01*
X56864Y299402D01*
X56309Y299374D01*
X56059D01*
X55781Y299402D01*
X55448Y299430D01*
X55032Y299457D01*
X54588Y299541D01*
X54116Y299624D01*
X53672Y299763D01*
X53644D01*
X53616Y299790D01*
X53477Y299846D01*
X53227Y299929D01*
X52950Y300068D01*
X52617Y300235D01*
X52284Y300457D01*
X51923Y300679D01*
X51589Y300956D01*
X51562Y300984D01*
X51451Y301095D01*
X51284Y301262D01*
X51090Y301484D01*
X50868Y301762D01*
X50645Y302095D01*
X50423Y302456D01*
X50229Y302844D01*
X50201Y302900D01*
X50146Y303039D01*
X50062Y303261D01*
X49979Y303566D01*
X49896Y303955D01*
X49813Y304371D01*
X49757Y304843D01*
X49729Y305371D01*
Y305399D01*
Y305426D01*
Y305593D01*
X49757Y305870D01*
X49785Y306176D01*
X49840Y306565D01*
X49924Y306953D01*
X50035Y307370D01*
X50174Y307786D01*
X50201Y307842D01*
X50257Y307980D01*
X50340Y308175D01*
X50479Y308425D01*
X50645Y308702D01*
X50868Y309008D01*
X51118Y309313D01*
X51395Y309591D01*
X51423Y309618D01*
X51534Y309702D01*
X51701Y309841D01*
X51950Y310007D01*
X52228Y310201D01*
X52589Y310396D01*
X52978Y310562D01*
X53394Y310729D01*
X53450Y310757D01*
X53616Y310784D01*
X53866Y310868D01*
X54171Y310951D01*
X54588Y311007D01*
X55060Y311090D01*
X55587Y311117D01*
X56143Y311145D01*
X56392D01*
X56670Y311117D01*
D02*
G37*
G36*
X54727Y294766D02*
X54449D01*
X54171Y294738D01*
X53838Y294710D01*
X53450Y294655D01*
X53061Y294571D01*
X52672Y294432D01*
X52367Y294266D01*
X52339Y294238D01*
X52256Y294183D01*
X52117Y294044D01*
X51978Y293877D01*
X51867Y293655D01*
X51728Y293405D01*
X51645Y293100D01*
X51617Y292739D01*
Y292711D01*
Y292656D01*
Y292572D01*
X51645Y292489D01*
X51673Y292211D01*
X51784Y291878D01*
Y291850D01*
X51812Y291795D01*
X51839Y291712D01*
X51895Y291601D01*
X52061Y291295D01*
X52284Y290962D01*
X52311Y290934D01*
X52339Y290879D01*
X52422Y290796D01*
X52506Y290657D01*
X52811Y290351D01*
X53172Y289963D01*
X53200Y289935D01*
X53255Y289879D01*
X53366Y289768D01*
X53533Y289630D01*
X53727Y289463D01*
X53921Y289269D01*
X54171Y289074D01*
X54449Y288852D01*
X62500D01*
Y286659D01*
X49952D01*
Y288630D01*
X52284Y288686D01*
X52256D01*
X52228Y288741D01*
X52061Y288880D01*
X51839Y289102D01*
X51534Y289380D01*
X51228Y289713D01*
X50895Y290074D01*
X50590Y290462D01*
X50340Y290879D01*
X50312Y290934D01*
X50257Y291073D01*
X50146Y291268D01*
X50035Y291573D01*
X49924Y291878D01*
X49813Y292267D01*
X49757Y292656D01*
X49729Y293072D01*
Y293100D01*
Y293155D01*
Y293266D01*
X49757Y293405D01*
Y293544D01*
X49785Y293738D01*
X49896Y294183D01*
X50035Y294655D01*
X50257Y295126D01*
X50590Y295598D01*
X50784Y295821D01*
X51006Y296015D01*
X51062Y296070D01*
X51145Y296098D01*
X51228Y296181D01*
X51367Y296237D01*
X51534Y296320D01*
X51728Y296431D01*
X51950Y296515D01*
X52200Y296598D01*
X52450Y296681D01*
X52755Y296765D01*
X53089Y296848D01*
X53477Y296903D01*
X53866Y296931D01*
X54282Y296959D01*
X54727D01*
Y294766D01*
D02*
G37*
G36*
X51728Y323305D02*
X51756Y323333D01*
X51812Y323361D01*
X51895Y323444D01*
X52034Y323499D01*
X52339Y323694D01*
X52755Y323860D01*
X52783D01*
X52867Y323888D01*
X52978Y323916D01*
X53116Y323971D01*
X53311Y323999D01*
X53533Y324027D01*
X54005Y324055D01*
X54171D01*
X54366Y324027D01*
X54588Y323999D01*
X54865Y323971D01*
X55171Y323916D01*
X55476Y323805D01*
X55781Y323694D01*
X55809Y323666D01*
X55920Y323638D01*
X56059Y323555D01*
X56253Y323444D01*
X56476Y323277D01*
X56698Y323111D01*
X56948Y322916D01*
X57170Y322667D01*
X57197Y322639D01*
X57253Y322556D01*
X57364Y322417D01*
X57503Y322222D01*
X57642Y322000D01*
X57780Y321750D01*
X57919Y321445D01*
X58058Y321112D01*
Y321084D01*
X58114Y320945D01*
X58141Y320779D01*
X58197Y320529D01*
X58252Y320251D01*
X58308Y319918D01*
X58336Y319529D01*
X58363Y319141D01*
Y319113D01*
Y319002D01*
Y318863D01*
X58336Y318669D01*
Y318447D01*
X58280Y318197D01*
X58197Y317669D01*
Y317642D01*
X58169Y317558D01*
X58141Y317419D01*
X58086Y317281D01*
X57947Y316920D01*
X57864Y316753D01*
X57780Y316587D01*
X57808D01*
X57836Y316559D01*
X58003Y316448D01*
X58225Y316337D01*
X58447Y316198D01*
X58502Y316170D01*
X58641Y316143D01*
X58863Y316087D01*
X59141Y316059D01*
X59224D01*
X59307Y316087D01*
X59418Y316115D01*
X59557Y316170D01*
X59696Y316254D01*
X59835Y316365D01*
X59946Y316503D01*
Y316531D01*
X60001Y316587D01*
X60057Y316698D01*
X60113Y316809D01*
X60168Y317003D01*
X60223Y317197D01*
X60251Y317419D01*
X60279Y317697D01*
X60418Y321001D01*
Y321056D01*
Y321167D01*
Y321334D01*
X60446Y321584D01*
X60473Y321834D01*
X60501Y322139D01*
X60640Y322722D01*
Y322750D01*
X60668Y322861D01*
X60723Y323000D01*
X60806Y323194D01*
X61001Y323638D01*
X61279Y324082D01*
X61306Y324110D01*
X61334Y324166D01*
X61445Y324277D01*
X61556Y324416D01*
X61862Y324693D01*
X62250Y324971D01*
X62278Y324999D01*
X62361Y325026D01*
X62472Y325082D01*
X62611Y325137D01*
X62805Y325193D01*
X63055Y325248D01*
X63305Y325304D01*
X63721D01*
X63888Y325276D01*
X64082Y325248D01*
X64332Y325221D01*
X64610Y325137D01*
X64888Y325054D01*
X65165Y324915D01*
X65193Y324888D01*
X65276Y324860D01*
X65443Y324749D01*
X65609Y324638D01*
X65804Y324499D01*
X66026Y324305D01*
X66248Y324082D01*
X66470Y323805D01*
X66498Y323777D01*
X66553Y323666D01*
X66664Y323499D01*
X66803Y323277D01*
X66942Y323000D01*
X67108Y322694D01*
X67247Y322306D01*
X67386Y321889D01*
X67414Y321834D01*
X67442Y321695D01*
X67497Y321445D01*
X67553Y321112D01*
X67636Y320695D01*
X67691Y320251D01*
X67719Y319724D01*
X67747Y319141D01*
Y319113D01*
Y319085D01*
Y319002D01*
Y318891D01*
X67719Y318613D01*
Y318252D01*
X67691Y317836D01*
X67636Y317392D01*
X67580Y316948D01*
X67497Y316531D01*
Y316476D01*
X67442Y316365D01*
X67386Y316170D01*
X67303Y315920D01*
X67220Y315643D01*
X67108Y315337D01*
X66970Y315060D01*
X66803Y314782D01*
X66775Y314754D01*
X66720Y314671D01*
X66637Y314560D01*
X66526Y314394D01*
X66359Y314227D01*
X66192Y314060D01*
X65998Y313922D01*
X65776Y313783D01*
X65748D01*
X65665Y313727D01*
X65554Y313699D01*
X65387Y313644D01*
X65193Y313588D01*
X64971Y313533D01*
X64721Y313505D01*
X64471Y313477D01*
X64332D01*
X64166Y313505D01*
X63944Y313533D01*
X63694Y313588D01*
X63416Y313644D01*
X63166Y313755D01*
X62889Y313894D01*
X62861Y313922D01*
X62778Y313977D01*
X62639Y314060D01*
X62472Y314227D01*
X62278Y314394D01*
X62056Y314616D01*
X61834Y314893D01*
X61584Y315199D01*
X61556Y315143D01*
X61473Y315004D01*
X61362Y314838D01*
X61223Y314643D01*
X61167Y314616D01*
X61056Y314505D01*
X60918Y314394D01*
X60723Y314255D01*
X60668Y314227D01*
X60557Y314171D01*
X60362Y314116D01*
X60140Y314032D01*
X60085D01*
X59946Y314005D01*
X59752Y313977D01*
X59418D01*
X59280Y314005D01*
X59057Y314032D01*
X58835Y314060D01*
X58586Y314144D01*
X58336Y314227D01*
X58086Y314338D01*
X58058Y314366D01*
X57975Y314421D01*
X57836Y314477D01*
X57669Y314588D01*
X57475Y314727D01*
X57253Y314865D01*
X56781Y315226D01*
X56726Y315199D01*
X56614Y315088D01*
X56420Y314949D01*
X56226Y314810D01*
X56170Y314782D01*
X56059Y314699D01*
X55865Y314616D01*
X55643Y314505D01*
X55615D01*
X55587Y314477D01*
X55421Y314421D01*
X55198Y314366D01*
X54949Y314310D01*
X54893D01*
X54810Y314282D01*
X54699D01*
X54449Y314255D01*
X53949D01*
X53755Y314282D01*
X53533Y314310D01*
X53255Y314338D01*
X52950Y314394D01*
X52644Y314477D01*
X52339Y314588D01*
X52311Y314616D01*
X52200Y314643D01*
X52061Y314727D01*
X51867Y314838D01*
X51645Y315004D01*
X51423Y315171D01*
X51173Y315365D01*
X50951Y315587D01*
X50923Y315615D01*
X50868Y315698D01*
X50757Y315837D01*
X50618Y316031D01*
X50479Y316254D01*
X50340Y316503D01*
X50201Y316809D01*
X50062Y317142D01*
X50035Y317197D01*
X50007Y317309D01*
X49952Y317503D01*
X49896Y317725D01*
X49840Y318030D01*
X49785Y318363D01*
X49729Y318752D01*
Y319141D01*
Y319169D01*
Y319224D01*
Y319307D01*
Y319418D01*
X49757Y319724D01*
X49813Y320029D01*
Y320057D01*
Y320112D01*
X49840Y320279D01*
X49896Y320529D01*
X49952Y320779D01*
Y325332D01*
X51728D01*
Y323305D01*
D02*
G37*
G36*
X51534Y282745D02*
X51784Y282717D01*
X52089Y282689D01*
X52450Y282606D01*
X52811Y282522D01*
X53172Y282384D01*
X53227Y282356D01*
X53338Y282328D01*
X53533Y282217D01*
X53755Y282106D01*
X54033Y281939D01*
X54310Y281745D01*
X54616Y281495D01*
X54921Y281218D01*
X54949Y281190D01*
X55060Y281079D01*
X55198Y280912D01*
X55365Y280690D01*
X55560Y280385D01*
X55781Y280052D01*
X55976Y279663D01*
X56170Y279219D01*
X56198Y279163D01*
X56253Y278997D01*
X56309Y278747D01*
X56392Y278386D01*
X56503Y277969D01*
X56559Y277470D01*
X56614Y276887D01*
X56642Y276276D01*
Y274277D01*
X62500D01*
Y272056D01*
X46176D01*
Y276637D01*
Y276665D01*
Y276692D01*
Y276859D01*
Y277081D01*
X46204Y277386D01*
X46231Y277747D01*
X46287Y278136D01*
X46453Y278969D01*
Y279024D01*
X46509Y279163D01*
X46564Y279358D01*
X46676Y279635D01*
X46787Y279941D01*
X46953Y280246D01*
X47120Y280579D01*
X47342Y280912D01*
X47370Y280940D01*
X47453Y281051D01*
X47564Y281218D01*
X47758Y281412D01*
X47980Y281634D01*
X48230Y281856D01*
X48536Y282078D01*
X48869Y282273D01*
X48924Y282300D01*
X49035Y282356D01*
X49230Y282439D01*
X49507Y282522D01*
X49840Y282606D01*
X50229Y282689D01*
X50673Y282745D01*
X51173Y282772D01*
X51340D01*
X51534Y282745D01*
D02*
G37*
G36*
X62500Y365476D02*
X53172D01*
X52867Y365448D01*
X52561Y365420D01*
X52506D01*
X52339Y365393D01*
X52145Y365365D01*
X51950Y365282D01*
X51923Y365254D01*
X51839Y365226D01*
X51728Y365143D01*
X51645Y365060D01*
X51617Y365032D01*
X51589Y364976D01*
X51562Y364865D01*
X51534Y364726D01*
Y364699D01*
X51562Y364588D01*
X51589Y364449D01*
X51701Y364282D01*
X51728Y364254D01*
X51812Y364171D01*
X51978Y364032D01*
X52200Y363866D01*
X52228D01*
X52256Y363838D01*
X52339Y363782D01*
X52422Y363727D01*
X52728Y363560D01*
X53089Y363366D01*
X53116D01*
X53200Y363310D01*
X53311Y363255D01*
X53477Y363172D01*
X53672Y363088D01*
X53894Y362977D01*
X54171Y362866D01*
X54449Y362727D01*
X62500D01*
Y360562D01*
X53338D01*
X52978Y360534D01*
X52644Y360507D01*
X52561D01*
X52395Y360479D01*
X52172Y360451D01*
X51978Y360368D01*
X51950Y360340D01*
X51839Y360312D01*
X51728Y360229D01*
X51645Y360146D01*
X51617Y360118D01*
X51589Y360062D01*
X51562Y359951D01*
X51534Y359812D01*
Y359785D01*
X51562Y359674D01*
X51589Y359535D01*
X51673Y359396D01*
X51701Y359368D01*
X51784Y359285D01*
X51923Y359146D01*
X52145Y358979D01*
X52200Y358952D01*
X52367Y358841D01*
X52644Y358674D01*
X53005Y358480D01*
X53033D01*
X53116Y358424D01*
X53227Y358369D01*
X53394Y358285D01*
X53588Y358202D01*
X53838Y358091D01*
X54144Y357952D01*
X54449Y357813D01*
X62500D01*
Y355648D01*
X49952D01*
Y357425D01*
X52339Y357536D01*
X52311Y357564D01*
X52228Y357591D01*
X52089Y357647D01*
X51923Y357730D01*
X51534Y357952D01*
X51145Y358174D01*
X51118Y358202D01*
X51062Y358230D01*
X50979Y358285D01*
X50868Y358369D01*
X50590Y358563D01*
X50340Y358813D01*
X50312Y358841D01*
X50285Y358868D01*
X50174Y359035D01*
X50035Y359257D01*
X49896Y359507D01*
Y359535D01*
X49868Y359563D01*
X49813Y359757D01*
X49757Y360007D01*
X49729Y360312D01*
Y360368D01*
Y360479D01*
X49757Y360673D01*
X49813Y360895D01*
X49896Y361145D01*
X50007Y361395D01*
X50174Y361645D01*
X50396Y361867D01*
X50423Y361895D01*
X50507Y361950D01*
X50673Y362033D01*
X50895Y362144D01*
X51201Y362228D01*
X51534Y362311D01*
X51950Y362366D01*
X52450Y362394D01*
X52422Y362422D01*
X52339Y362450D01*
X52228Y362505D01*
X52061Y362589D01*
X51701Y362783D01*
X51312Y362977D01*
X51284D01*
X51228Y363033D01*
X51118Y363088D01*
X51006Y363172D01*
X50729Y363366D01*
X50451Y363588D01*
X50423Y363616D01*
X50396Y363644D01*
X50257Y363810D01*
X50090Y364032D01*
X49924Y364310D01*
Y364338D01*
X49896Y364393D01*
X49868Y364477D01*
X49813Y364588D01*
X49757Y364893D01*
X49729Y365254D01*
Y365282D01*
Y365365D01*
X49757Y365476D01*
X49785Y365615D01*
X49840Y365809D01*
X49924Y366003D01*
X50035Y366226D01*
X50174Y366448D01*
X50368Y366670D01*
X50618Y366892D01*
X50923Y367086D01*
X51256Y367280D01*
X51673Y367419D01*
X52172Y367530D01*
X52728Y367614D01*
X53366Y367641D01*
X62500D01*
Y365476D01*
D02*
G37*
G36*
X31670Y113421D02*
X32031Y113394D01*
X32447Y113338D01*
X32891Y113283D01*
X33363Y113172D01*
X33835Y113033D01*
X33891Y113005D01*
X34030Y112949D01*
X34252Y112866D01*
X34529Y112727D01*
X34863Y112561D01*
X35224Y112367D01*
X35584Y112117D01*
X35918Y111839D01*
X35945Y111811D01*
X36056Y111700D01*
X36223Y111534D01*
X36417Y111312D01*
X36612Y111034D01*
X36834Y110729D01*
X37056Y110340D01*
X37250Y109951D01*
X37278Y109896D01*
X37333Y109757D01*
X37389Y109535D01*
X37472Y109229D01*
X37583Y108841D01*
X37639Y108424D01*
X37694Y107952D01*
X37722Y107425D01*
Y107397D01*
Y107369D01*
Y107203D01*
X37694Y106925D01*
X37667Y106620D01*
X37611Y106231D01*
X37555Y105815D01*
X37445Y105398D01*
X37306Y104982D01*
X37278Y104926D01*
X37222Y104815D01*
X37139Y104621D01*
X37000Y104371D01*
X36834Y104066D01*
X36612Y103788D01*
X36362Y103483D01*
X36084Y103177D01*
X36056Y103149D01*
X35945Y103066D01*
X35779Y102927D01*
X35529Y102761D01*
X35251Y102594D01*
X34890Y102400D01*
X34502Y102233D01*
X34085Y102067D01*
X34058D01*
X34030Y102039D01*
X33863Y102011D01*
X33613Y101956D01*
X33280Y101872D01*
X32864Y101789D01*
X32392Y101734D01*
X31864Y101706D01*
X31309Y101678D01*
X31059D01*
X30782Y101706D01*
X30448Y101734D01*
X30032Y101761D01*
X29588Y101845D01*
X29116Y101928D01*
X28672Y102067D01*
X28644D01*
X28616Y102094D01*
X28477Y102150D01*
X28227Y102233D01*
X27950Y102372D01*
X27617Y102539D01*
X27283Y102761D01*
X26923Y102983D01*
X26590Y103260D01*
X26562Y103288D01*
X26451Y103399D01*
X26284Y103566D01*
X26090Y103788D01*
X25868Y104066D01*
X25645Y104399D01*
X25423Y104760D01*
X25229Y105148D01*
X25201Y105204D01*
X25146Y105343D01*
X25062Y105565D01*
X24979Y105870D01*
X24896Y106259D01*
X24813Y106675D01*
X24757Y107147D01*
X24729Y107675D01*
Y107703D01*
Y107730D01*
Y107897D01*
X24757Y108174D01*
X24785Y108480D01*
X24840Y108869D01*
X24924Y109257D01*
X25035Y109674D01*
X25174Y110090D01*
X25201Y110146D01*
X25257Y110284D01*
X25340Y110479D01*
X25479Y110729D01*
X25645Y111006D01*
X25868Y111312D01*
X26117Y111617D01*
X26395Y111895D01*
X26423Y111922D01*
X26534Y112006D01*
X26700Y112144D01*
X26950Y112311D01*
X27228Y112505D01*
X27589Y112700D01*
X27978Y112866D01*
X28394Y113033D01*
X28449Y113061D01*
X28616Y113088D01*
X28866Y113172D01*
X29171Y113255D01*
X29588Y113310D01*
X30060Y113394D01*
X30587Y113421D01*
X31142Y113449D01*
X31392D01*
X31670Y113421D01*
D02*
G37*
G36*
X21842Y99568D02*
X21814Y99513D01*
Y99429D01*
X21787Y99318D01*
X21731Y98985D01*
X21648Y98569D01*
X21592Y98125D01*
X21537Y97625D01*
X21509Y97125D01*
X21481Y96625D01*
Y96598D01*
Y96514D01*
X21509Y96348D01*
X21537Y96181D01*
X21565Y95959D01*
X21648Y95709D01*
X21731Y95432D01*
X21870Y95182D01*
X22036Y94904D01*
X22231Y94627D01*
X22481Y94377D01*
X22786Y94155D01*
X23147Y93988D01*
X23563Y93849D01*
X24035Y93738D01*
X24591Y93710D01*
X26784D01*
Y99207D01*
X28588D01*
Y93710D01*
X37500D01*
Y91489D01*
X28588D01*
Y87464D01*
X26784D01*
Y91489D01*
X24479D01*
X24230Y91517D01*
X23924Y91573D01*
X23536Y91656D01*
X23119Y91767D01*
X22647Y91933D01*
X22175Y92156D01*
X21731Y92406D01*
X21259Y92766D01*
X20843Y93183D01*
X20454Y93683D01*
X20149Y94293D01*
X19899Y94987D01*
X19788Y95376D01*
X19732Y95793D01*
X19677Y96237D01*
Y96709D01*
Y96736D01*
Y96764D01*
Y96931D01*
Y97208D01*
X19704Y97569D01*
X19732Y97986D01*
X19788Y98485D01*
X19871Y99013D01*
X19954Y99596D01*
X21842D01*
Y99568D01*
D02*
G37*
G36*
X34474Y140601D02*
X34863Y140517D01*
X35279Y140379D01*
X35307D01*
X35362Y140351D01*
X35473Y140295D01*
X35584Y140212D01*
X35890Y140018D01*
X36223Y139768D01*
X36251Y139740D01*
X36279Y139712D01*
X36362Y139629D01*
X36445Y139518D01*
X36667Y139213D01*
X36917Y138852D01*
Y138824D01*
X36972Y138768D01*
X37000Y138657D01*
X37084Y138518D01*
X37222Y138185D01*
X37361Y137769D01*
Y137741D01*
X37389Y137686D01*
X37417Y137547D01*
X37445Y137408D01*
X37500Y137241D01*
X37528Y137019D01*
X37611Y136575D01*
Y136547D01*
X37639Y136464D01*
Y136353D01*
X37667Y136187D01*
X37694Y135826D01*
X37722Y135381D01*
Y135326D01*
Y135159D01*
Y134909D01*
X37694Y134604D01*
Y134243D01*
X37667Y133855D01*
X37611Y133022D01*
Y132966D01*
X37583Y132855D01*
X37555Y132633D01*
X37528Y132383D01*
X37472Y132050D01*
X37417Y131717D01*
X37250Y130967D01*
X35251D01*
Y131023D01*
X35307Y131161D01*
X35362Y131356D01*
X35446Y131634D01*
X35529Y131967D01*
X35612Y132327D01*
X35751Y133133D01*
Y133188D01*
X35779Y133327D01*
X35807Y133521D01*
Y133799D01*
X35834Y134132D01*
X35862Y134493D01*
X35890Y135298D01*
Y135326D01*
Y135354D01*
Y135437D01*
Y135548D01*
X35862Y135826D01*
X35834Y136159D01*
X35779Y136547D01*
X35723Y136936D01*
X35612Y137297D01*
X35473Y137602D01*
X35446Y137630D01*
X35390Y137713D01*
X35307Y137852D01*
X35168Y137991D01*
X35001Y138130D01*
X34779Y138269D01*
X34529Y138352D01*
X34252Y138380D01*
X34196D01*
X34058Y138352D01*
X33863Y138324D01*
X33669Y138241D01*
X33613Y138213D01*
X33502Y138158D01*
X33336Y138019D01*
X33141Y137797D01*
X33086Y137741D01*
X33058Y137658D01*
X32975Y137575D01*
X32919Y137436D01*
X32836Y137269D01*
X32725Y137047D01*
X32642Y136825D01*
Y136797D01*
X32586Y136714D01*
X32531Y136575D01*
X32447Y136353D01*
X32364Y136103D01*
X32253Y135798D01*
X32142Y135465D01*
X32031Y135048D01*
Y135021D01*
X31975Y134909D01*
X31948Y134743D01*
X31864Y134549D01*
X31781Y134299D01*
X31698Y134049D01*
X31476Y133494D01*
X31448Y133466D01*
X31420Y133383D01*
X31337Y133244D01*
X31253Y133077D01*
X31031Y132661D01*
X30726Y132244D01*
X30698Y132217D01*
X30643Y132161D01*
X30559Y132050D01*
X30421Y131939D01*
X30115Y131661D01*
X29699Y131411D01*
X29671D01*
X29588Y131356D01*
X29477Y131328D01*
X29310Y131273D01*
X29116Y131217D01*
X28866Y131189D01*
X28588Y131134D01*
X28116D01*
X27978Y131161D01*
X27811Y131189D01*
X27617Y131217D01*
X27173Y131356D01*
X27145D01*
X27061Y131411D01*
X26950Y131467D01*
X26784Y131550D01*
X26617Y131661D01*
X26423Y131800D01*
X26201Y131994D01*
X26007Y132189D01*
X25979Y132217D01*
X25923Y132300D01*
X25812Y132439D01*
X25673Y132605D01*
X25535Y132827D01*
X25396Y133105D01*
X25229Y133410D01*
X25090Y133771D01*
X25062Y133827D01*
X25035Y133966D01*
X24979Y134160D01*
X24896Y134465D01*
X24840Y134826D01*
X24785Y135243D01*
X24757Y135742D01*
X24729Y136270D01*
Y136298D01*
Y136409D01*
Y136547D01*
Y136770D01*
X24757Y136992D01*
Y137269D01*
X24813Y137908D01*
Y137935D01*
X24840Y138074D01*
Y138241D01*
X24868Y138491D01*
X24924Y138768D01*
X24952Y139074D01*
X25035Y139435D01*
X25090Y139796D01*
X27034D01*
Y139740D01*
X26978Y139629D01*
X26950Y139435D01*
X26895Y139157D01*
X26839Y138879D01*
X26784Y138546D01*
X26673Y137852D01*
Y137824D01*
X26645Y137686D01*
X26617Y137519D01*
X26590Y137297D01*
Y137047D01*
X26562Y136797D01*
X26534Y136242D01*
Y136214D01*
Y136103D01*
Y135964D01*
X26562Y135770D01*
X26590Y135326D01*
X26673Y134882D01*
Y134854D01*
X26700Y134798D01*
X26728Y134687D01*
X26756Y134549D01*
X26895Y134271D01*
X27034Y133966D01*
X27061Y133910D01*
X27173Y133771D01*
X27339Y133632D01*
X27533Y133494D01*
X27589Y133466D01*
X27728Y133438D01*
X27922Y133383D01*
X28172Y133355D01*
X28227D01*
X28366Y133383D01*
X28561Y133410D01*
X28783Y133466D01*
X28838Y133494D01*
X28949Y133577D01*
X29116Y133743D01*
X29310Y133966D01*
Y133993D01*
X29366Y134021D01*
X29393Y134104D01*
X29477Y134215D01*
X29560Y134382D01*
X29643Y134549D01*
X29727Y134743D01*
X29838Y134965D01*
Y134993D01*
X29893Y135076D01*
X29921Y135215D01*
X30004Y135409D01*
X30087Y135659D01*
X30171Y135937D01*
X30254Y136242D01*
X30365Y136603D01*
X30393Y136658D01*
X30421Y136797D01*
X30476Y136992D01*
X30587Y137269D01*
X30670Y137575D01*
X30809Y137880D01*
X30920Y138185D01*
X31059Y138491D01*
X31087Y138518D01*
X31115Y138630D01*
X31198Y138741D01*
X31281Y138935D01*
X31559Y139324D01*
X31864Y139712D01*
X31892Y139740D01*
X31948Y139796D01*
X32031Y139879D01*
X32142Y139990D01*
X32447Y140212D01*
X32642Y140323D01*
X32836Y140406D01*
X32864D01*
X32919Y140434D01*
X33058Y140490D01*
X33197Y140517D01*
X33391Y140573D01*
X33586Y140601D01*
X34085Y140628D01*
X34335D01*
X34474Y140601D01*
D02*
G37*
G36*
X37500Y124526D02*
X29255D01*
X29005Y124499D01*
X28672Y124471D01*
X28338Y124388D01*
X27978Y124304D01*
X27617Y124165D01*
X27339Y123971D01*
X27311Y123943D01*
X27228Y123860D01*
X27117Y123749D01*
X26978Y123555D01*
X26839Y123333D01*
X26728Y123055D01*
X26645Y122722D01*
X26617Y122333D01*
Y122305D01*
Y122250D01*
Y122194D01*
X26645Y122083D01*
X26673Y121806D01*
X26756Y121528D01*
Y121500D01*
X26784Y121473D01*
X26839Y121306D01*
X26978Y121056D01*
X27173Y120751D01*
Y120723D01*
X27228Y120667D01*
X27283Y120584D01*
X27367Y120473D01*
X27617Y120196D01*
X27950Y119835D01*
X27978Y119807D01*
X28033Y119751D01*
X28144Y119668D01*
X28283Y119529D01*
X28477Y119363D01*
X28699Y119196D01*
X28921Y119002D01*
X29199Y118780D01*
X37500D01*
Y116614D01*
X24952D01*
Y118530D01*
X26978Y118613D01*
X26950Y118641D01*
X26867Y118696D01*
X26756Y118807D01*
X26617Y118946D01*
X26256Y119307D01*
X25923Y119668D01*
X25895Y119696D01*
X25840Y119751D01*
X25757Y119862D01*
X25673Y120001D01*
X25451Y120307D01*
X25229Y120667D01*
Y120695D01*
X25174Y120751D01*
X25146Y120862D01*
X25062Y120973D01*
X24952Y121306D01*
X24840Y121667D01*
Y121695D01*
X24813Y121750D01*
Y121861D01*
X24785Y122000D01*
X24757Y122361D01*
X24729Y122750D01*
Y122777D01*
Y122833D01*
Y122944D01*
X24757Y123083D01*
Y123222D01*
X24785Y123416D01*
X24868Y123860D01*
X25007Y124332D01*
X25229Y124804D01*
X25507Y125276D01*
X25895Y125692D01*
X25951Y125748D01*
X26117Y125859D01*
X26367Y125998D01*
X26756Y126192D01*
X27228Y126386D01*
X27839Y126525D01*
X28533Y126636D01*
X29338Y126692D01*
X37500D01*
Y124526D01*
D02*
G37*
G36*
X62333Y211784D02*
X62361Y211673D01*
X62389Y211535D01*
X62417Y211340D01*
X62472Y211090D01*
X62500Y210840D01*
X62583Y210257D01*
Y210230D01*
Y210119D01*
X62611Y209980D01*
Y209758D01*
X62639Y209536D01*
Y209258D01*
X62667Y208675D01*
Y208647D01*
Y208564D01*
Y208453D01*
X62639Y208286D01*
Y208092D01*
X62611Y207870D01*
X62528Y207342D01*
X62417Y206787D01*
X62222Y206204D01*
X61972Y205649D01*
X61806Y205371D01*
X61612Y205149D01*
X61556Y205094D01*
X61417Y204955D01*
X61167Y204788D01*
X60806Y204566D01*
X60335Y204344D01*
X59779Y204177D01*
X59113Y204039D01*
X58336Y203983D01*
X51784D01*
Y200485D01*
X49952D01*
Y203983D01*
X46509D01*
X45926Y206149D01*
X49952D01*
Y211812D01*
X51784D01*
Y206149D01*
X58391D01*
X58613Y206176D01*
X58919Y206232D01*
X59252Y206315D01*
X59585Y206454D01*
X59890Y206621D01*
X60168Y206870D01*
X60196Y206898D01*
X60279Y207009D01*
X60390Y207176D01*
X60501Y207398D01*
X60612Y207703D01*
X60723Y208064D01*
X60806Y208481D01*
X60834Y208980D01*
Y209008D01*
Y209091D01*
Y209202D01*
Y209369D01*
X60806Y209563D01*
Y209813D01*
X60751Y210313D01*
Y210341D01*
X60723Y210452D01*
Y210591D01*
X60668Y210785D01*
X60640Y211007D01*
X60584Y211257D01*
X60446Y211812D01*
X62333D01*
Y211784D01*
D02*
G37*
G36*
X54727Y224388D02*
X54449D01*
X54171Y224361D01*
X53838Y224333D01*
X53450Y224277D01*
X53061Y224194D01*
X52672Y224055D01*
X52367Y223889D01*
X52339Y223861D01*
X52256Y223805D01*
X52117Y223667D01*
X51978Y223500D01*
X51867Y223278D01*
X51728Y223028D01*
X51645Y222723D01*
X51617Y222362D01*
Y222334D01*
Y222278D01*
Y222195D01*
X51645Y222112D01*
X51673Y221834D01*
X51784Y221501D01*
Y221473D01*
X51812Y221418D01*
X51839Y221335D01*
X51895Y221224D01*
X52061Y220918D01*
X52284Y220585D01*
X52311Y220557D01*
X52339Y220502D01*
X52422Y220418D01*
X52506Y220280D01*
X52811Y219974D01*
X53172Y219585D01*
X53200Y219558D01*
X53255Y219502D01*
X53366Y219391D01*
X53533Y219252D01*
X53727Y219086D01*
X53921Y218892D01*
X54171Y218697D01*
X54449Y218475D01*
X62500D01*
Y216282D01*
X49952D01*
Y218253D01*
X52284Y218309D01*
X52256D01*
X52228Y218364D01*
X52061Y218503D01*
X51839Y218725D01*
X51534Y219002D01*
X51228Y219336D01*
X50895Y219697D01*
X50590Y220085D01*
X50340Y220502D01*
X50312Y220557D01*
X50257Y220696D01*
X50146Y220890D01*
X50035Y221196D01*
X49924Y221501D01*
X49813Y221890D01*
X49757Y222278D01*
X49729Y222695D01*
Y222723D01*
Y222778D01*
Y222889D01*
X49757Y223028D01*
Y223167D01*
X49785Y223361D01*
X49896Y223805D01*
X50035Y224277D01*
X50257Y224749D01*
X50590Y225221D01*
X50784Y225443D01*
X51006Y225638D01*
X51062Y225693D01*
X51145Y225721D01*
X51228Y225804D01*
X51367Y225860D01*
X51534Y225943D01*
X51728Y226054D01*
X51950Y226137D01*
X52200Y226221D01*
X52450Y226304D01*
X52755Y226387D01*
X53089Y226471D01*
X53477Y226526D01*
X53866Y226554D01*
X54282Y226582D01*
X54727D01*
Y224388D01*
D02*
G37*
G36*
X56365Y381189D02*
X56726D01*
X56920Y381161D01*
Y372361D01*
X57114D01*
X57225Y372389D01*
X57392D01*
X57586Y372416D01*
X58030Y372500D01*
X58502Y372611D01*
X59002Y372805D01*
X59474Y373055D01*
X59890Y373416D01*
X59946Y373471D01*
X60057Y373610D01*
X60223Y373860D01*
X60390Y374221D01*
X60584Y374665D01*
X60751Y375193D01*
X60862Y375803D01*
X60918Y376525D01*
Y376553D01*
Y376609D01*
Y376720D01*
Y376858D01*
Y377219D01*
X60890Y377608D01*
Y377636D01*
Y377691D01*
X60862Y377802D01*
Y377941D01*
X60806Y378302D01*
X60779Y378663D01*
Y378691D01*
X60751Y378746D01*
Y378857D01*
X60723Y378996D01*
X60668Y379301D01*
X60612Y379662D01*
Y379690D01*
X60584Y379746D01*
X60557Y379829D01*
X60529Y379940D01*
X60473Y380245D01*
X60390Y380551D01*
X62167D01*
Y380523D01*
X62195Y380384D01*
X62250Y380218D01*
X62306Y379968D01*
X62361Y379662D01*
X62445Y379329D01*
X62500Y378941D01*
X62555Y378524D01*
Y378469D01*
X62583Y378330D01*
X62611Y378108D01*
X62639Y377830D01*
X62667Y377469D01*
X62694Y377080D01*
X62722Y376664D01*
Y376220D01*
Y376192D01*
Y376137D01*
Y376053D01*
Y375942D01*
X62694Y375637D01*
X62667Y375276D01*
X62611Y374832D01*
X62555Y374360D01*
X62445Y373888D01*
X62306Y373444D01*
X62278Y373388D01*
X62222Y373249D01*
X62111Y373027D01*
X61972Y372777D01*
X61806Y372472D01*
X61584Y372139D01*
X61334Y371833D01*
X61029Y371528D01*
X61001Y371500D01*
X60890Y371417D01*
X60696Y371278D01*
X60473Y371112D01*
X60168Y370917D01*
X59835Y370751D01*
X59418Y370556D01*
X59002Y370418D01*
X58946D01*
X58780Y370362D01*
X58530Y370307D01*
X58197Y370251D01*
X57780Y370196D01*
X57336Y370140D01*
X56809Y370112D01*
X56253Y370084D01*
X56031D01*
X55781Y370112D01*
X55448Y370140D01*
X55087Y370168D01*
X54671Y370251D01*
X54227Y370334D01*
X53783Y370445D01*
X53755D01*
X53727Y370473D01*
X53588Y370529D01*
X53366Y370612D01*
X53061Y370723D01*
X52755Y370890D01*
X52395Y371084D01*
X52034Y371306D01*
X51701Y371556D01*
X51673Y371584D01*
X51562Y371695D01*
X51395Y371861D01*
X51173Y372056D01*
X50951Y372333D01*
X50701Y372639D01*
X50479Y372972D01*
X50257Y373360D01*
X50229Y373416D01*
X50174Y373555D01*
X50090Y373777D01*
X49979Y374054D01*
X49896Y374415D01*
X49813Y374832D01*
X49757Y375276D01*
X49729Y375776D01*
Y375803D01*
Y375831D01*
Y375998D01*
X49757Y376248D01*
X49785Y376553D01*
X49840Y376914D01*
X49896Y377303D01*
X50007Y377691D01*
X50146Y378080D01*
X50174Y378135D01*
X50229Y378246D01*
X50312Y378441D01*
X50451Y378691D01*
X50618Y378941D01*
X50812Y379246D01*
X51062Y379524D01*
X51340Y379801D01*
X51367Y379829D01*
X51478Y379912D01*
X51645Y380051D01*
X51839Y380190D01*
X52117Y380356D01*
X52422Y380551D01*
X52783Y380717D01*
X53172Y380856D01*
X53227Y380884D01*
X53366Y380912D01*
X53588Y380967D01*
X53866Y381050D01*
X54227Y381106D01*
X54616Y381161D01*
X55060Y381189D01*
X55560Y381217D01*
X56087D01*
X56365Y381189D01*
D02*
G37*
G36*
X37500Y83910D02*
X33946Y82772D01*
Y75943D01*
X37500Y74804D01*
Y72500D01*
X21176Y77914D01*
Y80968D01*
X37500Y86326D01*
Y83910D01*
D02*
G37*
G36*
X54727Y393294D02*
X54449D01*
X54171Y393266D01*
X53838Y393238D01*
X53450Y393183D01*
X53061Y393099D01*
X52672Y392961D01*
X52367Y392794D01*
X52339Y392766D01*
X52256Y392711D01*
X52117Y392572D01*
X51978Y392405D01*
X51867Y392183D01*
X51728Y391933D01*
X51645Y391628D01*
X51617Y391267D01*
Y391239D01*
Y391184D01*
Y391100D01*
X51645Y391017D01*
X51673Y390740D01*
X51784Y390406D01*
Y390379D01*
X51812Y390323D01*
X51839Y390240D01*
X51895Y390129D01*
X52061Y389823D01*
X52284Y389490D01*
X52311Y389462D01*
X52339Y389407D01*
X52422Y389324D01*
X52506Y389185D01*
X52811Y388879D01*
X53172Y388491D01*
X53200Y388463D01*
X53255Y388408D01*
X53366Y388296D01*
X53533Y388158D01*
X53727Y387991D01*
X53921Y387797D01*
X54171Y387602D01*
X54449Y387380D01*
X62500D01*
Y385187D01*
X49952D01*
Y387158D01*
X52284Y387214D01*
X52256D01*
X52228Y387269D01*
X52061Y387408D01*
X51839Y387630D01*
X51534Y387908D01*
X51228Y388241D01*
X50895Y388602D01*
X50590Y388991D01*
X50340Y389407D01*
X50312Y389462D01*
X50257Y389601D01*
X50146Y389796D01*
X50035Y390101D01*
X49924Y390406D01*
X49813Y390795D01*
X49757Y391184D01*
X49729Y391600D01*
Y391628D01*
Y391683D01*
Y391795D01*
X49757Y391933D01*
Y392072D01*
X49785Y392266D01*
X49896Y392711D01*
X50035Y393183D01*
X50257Y393655D01*
X50590Y394127D01*
X50784Y394349D01*
X51006Y394543D01*
X51062Y394598D01*
X51145Y394626D01*
X51228Y394710D01*
X51367Y394765D01*
X51534Y394848D01*
X51728Y394959D01*
X51950Y395043D01*
X52200Y395126D01*
X52450Y395209D01*
X52755Y395293D01*
X53089Y395376D01*
X53477Y395431D01*
X53866Y395459D01*
X54282Y395487D01*
X54727D01*
Y393294D01*
D02*
G37*
G36*
X189693Y49830D02*
X187776D01*
Y43459D01*
X189693D01*
Y42500D01*
X184717D01*
Y43459D01*
X186634D01*
Y49830D01*
X184717D01*
Y50789D01*
X189693D01*
Y49830D01*
D02*
G37*
G36*
X326527Y377500D02*
X325427D01*
X325258Y382674D01*
X325188Y384647D01*
X324793Y383505D01*
X323567Y380207D01*
X322791D01*
X321621Y383378D01*
X321241Y384647D01*
X321212Y382589D01*
X321071Y377500D01*
X320000D01*
X320409Y385789D01*
X321748D01*
X322862Y382659D01*
X323228Y381602D01*
X323567Y382659D01*
X324751Y385789D01*
X326132D01*
X326527Y377500D01*
D02*
G37*
G36*
X347193Y384830D02*
X345276D01*
Y378459D01*
X347193D01*
Y377500D01*
X342217D01*
Y378459D01*
X344134D01*
Y384830D01*
X342217D01*
Y385789D01*
X347193D01*
Y384830D01*
D02*
G37*
G36*
X112550Y320902D02*
X112734Y320874D01*
X112959Y320845D01*
X113185Y320789D01*
X113424Y320719D01*
X113650Y320620D01*
X113678Y320606D01*
X113749Y320564D01*
X113861Y320493D01*
X114002Y320408D01*
X114157Y320282D01*
X114312Y320141D01*
X114482Y319971D01*
X114637Y319774D01*
X114651Y319746D01*
X114707Y319675D01*
X114778Y319563D01*
X114862Y319408D01*
X114961Y319210D01*
X115060Y318985D01*
X115144Y318731D01*
X115229Y318449D01*
Y318435D01*
X115243Y318421D01*
Y318379D01*
X115257Y318308D01*
X115271Y318237D01*
X115285Y318153D01*
X115328Y317941D01*
X115370Y317688D01*
X115398Y317392D01*
X115412Y317053D01*
X115426Y316701D01*
Y316687D01*
Y316659D01*
Y316588D01*
Y316518D01*
X115412Y316419D01*
Y316306D01*
X115398Y316038D01*
X115356Y315742D01*
X115313Y315418D01*
X115243Y315094D01*
X115158Y314770D01*
Y314755D01*
X115144Y314727D01*
X115130Y314685D01*
X115116Y314629D01*
X115045Y314488D01*
X114975Y314290D01*
X114862Y314079D01*
X114749Y313853D01*
X114594Y313628D01*
X114439Y313416D01*
X114425Y313388D01*
X114369Y313332D01*
X114270Y313233D01*
X114143Y313120D01*
X113988Y312993D01*
X113819Y312866D01*
X113622Y312754D01*
X113396Y312641D01*
X113368Y312627D01*
X113298Y312599D01*
X113171Y312556D01*
X113016Y312514D01*
X112832Y312472D01*
X112621Y312430D01*
X112381Y312401D01*
X112142Y312387D01*
X112001D01*
X111860Y312401D01*
X111662Y312430D01*
X111451Y312458D01*
X111211Y312500D01*
X110971Y312570D01*
X110746Y312669D01*
X110718Y312683D01*
X110647Y312726D01*
X110534Y312796D01*
X110408Y312881D01*
X110239Y313008D01*
X110083Y313148D01*
X109914Y313318D01*
X109759Y313501D01*
X109745Y313529D01*
X109689Y313600D01*
X109618Y313712D01*
X109534Y313867D01*
X109449Y314065D01*
X109350Y314290D01*
X109266Y314544D01*
X109181Y314826D01*
Y314840D01*
X109167Y314868D01*
Y314911D01*
X109153Y314967D01*
X109139Y315037D01*
X109125Y315122D01*
X109097Y315348D01*
X109054Y315601D01*
X109026Y315912D01*
X109012Y316250D01*
X108998Y316602D01*
Y316616D01*
Y316644D01*
Y316715D01*
Y316786D01*
X109012Y316884D01*
Y316997D01*
X109026Y317251D01*
X109054Y317561D01*
X109111Y317871D01*
X109167Y318209D01*
X109252Y318519D01*
Y318533D01*
X109266Y318562D01*
X109280Y318604D01*
X109294Y318660D01*
X109350Y318801D01*
X109435Y318999D01*
X109534Y319210D01*
X109661Y319436D01*
X109802Y319647D01*
X109957Y319859D01*
X109971Y319887D01*
X110041Y319943D01*
X110126Y320042D01*
X110253Y320155D01*
X110408Y320282D01*
X110591Y320423D01*
X110788Y320535D01*
X111000Y320648D01*
X111028Y320662D01*
X111098Y320690D01*
X111225Y320733D01*
X111380Y320789D01*
X111564Y320831D01*
X111789Y320874D01*
X112015Y320902D01*
X112268Y320916D01*
X112395D01*
X112550Y320902D01*
D02*
G37*
G36*
X338157Y385902D02*
X338326Y385888D01*
X338411D01*
X338481Y385874D01*
X338636Y385859D01*
X338820Y385831D01*
X338862D01*
X338918Y385817D01*
X338975D01*
X339130Y385789D01*
X339313Y385761D01*
X339355D01*
X339412Y385747D01*
X339468Y385733D01*
X339623Y385704D01*
X339778Y385676D01*
Y384661D01*
X339750D01*
X339693Y384689D01*
X339595Y384704D01*
X339468Y384732D01*
X339327Y384760D01*
X339158Y384802D01*
X338791Y384859D01*
X338777D01*
X338707Y384873D01*
X338622Y384887D01*
X338495Y384901D01*
X338354Y384915D01*
X338185Y384929D01*
X337847Y384943D01*
X337692D01*
X337523Y384929D01*
X337311Y384901D01*
X337071Y384859D01*
X336832Y384802D01*
X336620Y384718D01*
X336423Y384605D01*
X336409Y384591D01*
X336353Y384548D01*
X336282Y384478D01*
X336197Y384379D01*
X336113Y384253D01*
X336042Y384097D01*
X335986Y383928D01*
X335972Y383731D01*
Y383717D01*
Y383675D01*
X335986Y383618D01*
X336000Y383534D01*
X336057Y383350D01*
X336099Y383252D01*
X336155Y383153D01*
X336169Y383139D01*
X336183Y383111D01*
X336226Y383068D01*
X336282Y383012D01*
X336437Y382871D01*
X336634Y382716D01*
X336649Y382702D01*
X336691Y382688D01*
X336747Y382645D01*
X336846Y382603D01*
X336945Y382547D01*
X337057Y382490D01*
X337339Y382378D01*
X337353D01*
X337410Y382349D01*
X337480Y382321D01*
X337593Y382279D01*
X337706Y382237D01*
X337833Y382180D01*
X338129Y382053D01*
X338143D01*
X338199Y382025D01*
X338284Y381997D01*
X338382Y381955D01*
X338509Y381898D01*
X338636Y381842D01*
X338932Y381701D01*
X338946Y381687D01*
X339003Y381673D01*
X339073Y381630D01*
X339172Y381574D01*
X339398Y381419D01*
X339623Y381236D01*
X339637Y381222D01*
X339679Y381193D01*
X339736Y381137D01*
X339806Y381053D01*
X339877Y380968D01*
X339961Y380855D01*
X340116Y380601D01*
X340131Y380587D01*
X340145Y380531D01*
X340173Y380460D01*
X340215Y380362D01*
X340257Y380235D01*
X340286Y380080D01*
X340300Y379925D01*
X340314Y379741D01*
Y379713D01*
Y379643D01*
X340300Y379530D01*
X340286Y379389D01*
X340257Y379234D01*
X340201Y379051D01*
X340145Y378867D01*
X340060Y378698D01*
X340046Y378684D01*
X340018Y378628D01*
X339961Y378543D01*
X339891Y378445D01*
X339792Y378332D01*
X339679Y378205D01*
X339538Y378078D01*
X339383Y377965D01*
X339369Y377951D01*
X339313Y377923D01*
X339214Y377867D01*
X339101Y377796D01*
X338946Y377726D01*
X338777Y377655D01*
X338580Y377585D01*
X338354Y377528D01*
X338326D01*
X338256Y377500D01*
X338129Y377486D01*
X337960Y377458D01*
X337762Y377430D01*
X337537Y377415D01*
X337283Y377387D01*
X336818D01*
X336705Y377401D01*
X336606D01*
X336353Y377415D01*
X336296D01*
X336240Y377430D01*
X336155D01*
X335958Y377458D01*
X335732Y377486D01*
X335676D01*
X335620Y377500D01*
X335549D01*
X335366Y377528D01*
X335168Y377556D01*
X335154D01*
X335126Y377570D01*
X335070Y377585D01*
X335013Y377599D01*
X334858Y377641D01*
X334689Y377683D01*
Y378769D01*
X334717Y378755D01*
X334774Y378741D01*
X334872Y378712D01*
X334999Y378670D01*
X335154Y378614D01*
X335337Y378571D01*
X335535Y378529D01*
X335746Y378487D01*
X335774D01*
X335845Y378473D01*
X335972Y378459D01*
X336141Y378445D01*
X336338Y378416D01*
X336564Y378402D01*
X336818Y378388D01*
X337297D01*
X337424Y378402D01*
X337565D01*
X337720Y378430D01*
X337875Y378445D01*
X338030Y378473D01*
X338044D01*
X338101Y378487D01*
X338157Y378515D01*
X338256Y378529D01*
X338453Y378614D01*
X338650Y378712D01*
X338664Y378726D01*
X338693Y378741D01*
X338735Y378783D01*
X338791Y378825D01*
X338918Y378952D01*
X339017Y379121D01*
Y379135D01*
X339031Y379164D01*
X339059Y379220D01*
X339073Y379290D01*
X339101Y379375D01*
X339115Y379474D01*
X339130Y379685D01*
Y379699D01*
Y379741D01*
X339115Y379798D01*
X339101Y379882D01*
X339045Y380066D01*
X339003Y380150D01*
X338932Y380249D01*
X338918Y380263D01*
X338904Y380291D01*
X338862Y380334D01*
X338805Y380390D01*
X338735Y380460D01*
X338650Y380531D01*
X338439Y380672D01*
X338425Y380686D01*
X338382Y380700D01*
X338326Y380742D01*
X338242Y380785D01*
X338143Y380841D01*
X338030Y380897D01*
X337748Y381024D01*
X337734Y381038D01*
X337678Y381053D01*
X337607Y381081D01*
X337494Y381123D01*
X337382Y381165D01*
X337241Y381222D01*
X336945Y381334D01*
X336931Y381348D01*
X336874Y381363D01*
X336804Y381405D01*
X336705Y381447D01*
X336578Y381504D01*
X336451Y381560D01*
X336155Y381701D01*
X336141Y381715D01*
X336085Y381743D01*
X336014Y381771D01*
X335915Y381828D01*
X335817Y381898D01*
X335690Y381969D01*
X335450Y382152D01*
X335436Y382166D01*
X335408Y382194D01*
X335352Y382251D01*
X335281Y382335D01*
X335211Y382420D01*
X335126Y382533D01*
X334971Y382772D01*
X334957Y382786D01*
X334943Y382843D01*
X334915Y382913D01*
X334886Y383012D01*
X334844Y383139D01*
X334816Y383280D01*
X334802Y383449D01*
X334788Y383618D01*
Y383632D01*
Y383689D01*
X334802Y383773D01*
X334816Y383886D01*
X334830Y384013D01*
X334858Y384154D01*
X334901Y384309D01*
X334957Y384464D01*
X334971Y384478D01*
X334985Y384534D01*
X335042Y384605D01*
X335098Y384704D01*
X335168Y384816D01*
X335267Y384943D01*
X335380Y385070D01*
X335507Y385197D01*
X335521Y385211D01*
X335577Y385253D01*
X335662Y385310D01*
X335774Y385380D01*
X335901Y385465D01*
X336071Y385549D01*
X336254Y385634D01*
X336465Y385719D01*
X336493Y385733D01*
X336578Y385747D01*
X336691Y385775D01*
X336860Y385817D01*
X337071Y385859D01*
X337311Y385888D01*
X337579Y385902D01*
X337875Y385916D01*
X338016D01*
X338157Y385902D01*
D02*
G37*
G36*
X330756D02*
X330939Y385874D01*
X331165Y385845D01*
X331390Y385789D01*
X331630Y385719D01*
X331856Y385620D01*
X331884Y385606D01*
X331954Y385564D01*
X332067Y385493D01*
X332208Y385408D01*
X332363Y385282D01*
X332518Y385141D01*
X332687Y384971D01*
X332842Y384774D01*
X332856Y384746D01*
X332913Y384675D01*
X332983Y384563D01*
X333068Y384408D01*
X333167Y384210D01*
X333265Y383985D01*
X333350Y383731D01*
X333434Y383449D01*
Y383435D01*
X333448Y383421D01*
Y383378D01*
X333463Y383308D01*
X333477Y383237D01*
X333491Y383153D01*
X333533Y382941D01*
X333575Y382688D01*
X333604Y382392D01*
X333618Y382053D01*
X333632Y381701D01*
Y381687D01*
Y381659D01*
Y381588D01*
Y381518D01*
X333618Y381419D01*
Y381306D01*
X333604Y381038D01*
X333561Y380742D01*
X333519Y380418D01*
X333448Y380094D01*
X333364Y379770D01*
Y379756D01*
X333350Y379727D01*
X333336Y379685D01*
X333322Y379629D01*
X333251Y379488D01*
X333181Y379290D01*
X333068Y379079D01*
X332955Y378853D01*
X332800Y378628D01*
X332645Y378416D01*
X332631Y378388D01*
X332575Y378332D01*
X332476Y378233D01*
X332349Y378120D01*
X332194Y377993D01*
X332025Y377867D01*
X331827Y377754D01*
X331602Y377641D01*
X331574Y377627D01*
X331503Y377599D01*
X331376Y377556D01*
X331221Y377514D01*
X331038Y377472D01*
X330826Y377430D01*
X330587Y377401D01*
X330347Y377387D01*
X330206D01*
X330065Y377401D01*
X329868Y377430D01*
X329656Y377458D01*
X329417Y377500D01*
X329177Y377570D01*
X328952Y377669D01*
X328923Y377683D01*
X328853Y377726D01*
X328740Y377796D01*
X328613Y377881D01*
X328444Y378008D01*
X328289Y378148D01*
X328120Y378318D01*
X327965Y378501D01*
X327951Y378529D01*
X327894Y378600D01*
X327824Y378712D01*
X327739Y378867D01*
X327655Y379065D01*
X327556Y379290D01*
X327471Y379544D01*
X327387Y379826D01*
Y379840D01*
X327373Y379868D01*
Y379911D01*
X327359Y379967D01*
X327345Y380037D01*
X327330Y380122D01*
X327302Y380348D01*
X327260Y380601D01*
X327232Y380911D01*
X327218Y381250D01*
X327204Y381602D01*
Y381616D01*
Y381645D01*
Y381715D01*
Y381786D01*
X327218Y381884D01*
Y381997D01*
X327232Y382251D01*
X327260Y382561D01*
X327316Y382871D01*
X327373Y383209D01*
X327457Y383519D01*
Y383534D01*
X327471Y383562D01*
X327486Y383604D01*
X327500Y383660D01*
X327556Y383801D01*
X327641Y383999D01*
X327739Y384210D01*
X327866Y384436D01*
X328007Y384647D01*
X328162Y384859D01*
X328176Y384887D01*
X328247Y384943D01*
X328331Y385042D01*
X328458Y385155D01*
X328613Y385282D01*
X328797Y385423D01*
X328994Y385535D01*
X329205Y385648D01*
X329234Y385662D01*
X329304Y385690D01*
X329431Y385733D01*
X329586Y385789D01*
X329769Y385831D01*
X329995Y385874D01*
X330220Y385902D01*
X330474Y385916D01*
X330601D01*
X330756Y385902D01*
D02*
G37*
G36*
X332306Y357331D02*
X329853D01*
Y350000D01*
X328712D01*
Y357331D01*
X326259D01*
Y358289D01*
X332306D01*
Y357331D01*
D02*
G37*
G36*
X314967Y358275D02*
X315136D01*
X315333Y358247D01*
X315545Y358219D01*
X315756Y358176D01*
X315954Y358120D01*
X315982D01*
X316038Y358092D01*
X316137Y358049D01*
X316250Y358007D01*
X316391Y357951D01*
X316532Y357866D01*
X316673Y357782D01*
X316800Y357683D01*
X316814Y357669D01*
X316856Y357626D01*
X316912Y357570D01*
X316983Y357486D01*
X317067Y357387D01*
X317152Y357274D01*
X317222Y357133D01*
X317293Y356992D01*
X317307Y356978D01*
X317321Y356922D01*
X317349Y356837D01*
X317378Y356724D01*
X317406Y356597D01*
X317434Y356442D01*
X317462Y356287D01*
Y356104D01*
Y356090D01*
Y356034D01*
Y355963D01*
X317448Y355864D01*
X317434Y355752D01*
X317406Y355625D01*
X317335Y355357D01*
Y355343D01*
X317321Y355300D01*
X317293Y355230D01*
X317251Y355159D01*
X317152Y354948D01*
X316997Y354737D01*
X316983Y354723D01*
X316955Y354694D01*
X316912Y354638D01*
X316842Y354567D01*
X316757Y354497D01*
X316659Y354412D01*
X316433Y354243D01*
X316419Y354229D01*
X316377Y354215D01*
X316306Y354173D01*
X316222Y354130D01*
X316109Y354088D01*
X315982Y354032D01*
X315827Y353989D01*
X315672Y353947D01*
X315686D01*
X315728Y353919D01*
X315799Y353891D01*
X315883Y353848D01*
X315968Y353792D01*
X316067Y353708D01*
X316165Y353623D01*
X316264Y353510D01*
X316278Y353496D01*
X316306Y353454D01*
X316363Y353397D01*
X316419Y353299D01*
X316504Y353186D01*
X316588Y353059D01*
X316673Y352890D01*
X316771Y352721D01*
X318097Y350000D01*
X316814D01*
X315573Y352650D01*
Y352664D01*
X315545Y352707D01*
X315517Y352749D01*
X315489Y352819D01*
X315390Y352989D01*
X315277Y353144D01*
Y353158D01*
X315249Y353186D01*
X315193Y353270D01*
X315094Y353369D01*
X314967Y353468D01*
X314953D01*
X314939Y353482D01*
X314854Y353538D01*
X314741Y353581D01*
X314601Y353637D01*
X314586D01*
X314572Y353651D01*
X314530D01*
X314474Y353665D01*
X314333Y353679D01*
X314149Y353693D01*
X313628D01*
Y350000D01*
X312500D01*
Y358289D01*
X314840D01*
X314967Y358275D01*
D02*
G37*
G36*
X322734Y358402D02*
X322904Y358388D01*
X322988D01*
X323059Y358374D01*
X323214Y358359D01*
X323397Y358331D01*
X323439D01*
X323496Y358317D01*
X323552D01*
X323707Y358289D01*
X323890Y358261D01*
X323933D01*
X323989Y358247D01*
X324045Y358233D01*
X324201Y358204D01*
X324356Y358176D01*
Y357161D01*
X324327D01*
X324271Y357189D01*
X324172Y357204D01*
X324045Y357232D01*
X323904Y357260D01*
X323735Y357302D01*
X323369Y357359D01*
X323355D01*
X323284Y357373D01*
X323200Y357387D01*
X323073Y357401D01*
X322932Y357415D01*
X322763Y357429D01*
X322424Y357443D01*
X322269D01*
X322100Y357429D01*
X321889Y357401D01*
X321649Y357359D01*
X321409Y357302D01*
X321198Y357218D01*
X321001Y357105D01*
X320986Y357091D01*
X320930Y357048D01*
X320859Y356978D01*
X320775Y356879D01*
X320690Y356753D01*
X320620Y356597D01*
X320564Y356428D01*
X320549Y356231D01*
Y356217D01*
Y356175D01*
X320564Y356118D01*
X320578Y356034D01*
X320634Y355850D01*
X320676Y355752D01*
X320733Y355653D01*
X320747Y355639D01*
X320761Y355611D01*
X320803Y355568D01*
X320859Y355512D01*
X321015Y355371D01*
X321212Y355216D01*
X321226Y355202D01*
X321268Y355188D01*
X321325Y355145D01*
X321423Y355103D01*
X321522Y355047D01*
X321635Y354990D01*
X321917Y354878D01*
X321931D01*
X321987Y354849D01*
X322058Y354821D01*
X322171Y354779D01*
X322283Y354737D01*
X322410Y354680D01*
X322706Y354553D01*
X322720D01*
X322777Y354525D01*
X322861Y354497D01*
X322960Y354455D01*
X323087Y354398D01*
X323214Y354342D01*
X323510Y354201D01*
X323524Y354187D01*
X323580Y354173D01*
X323651Y354130D01*
X323749Y354074D01*
X323975Y353919D01*
X324201Y353736D01*
X324215Y353722D01*
X324257Y353693D01*
X324313Y353637D01*
X324384Y353553D01*
X324454Y353468D01*
X324539Y353355D01*
X324694Y353101D01*
X324708Y353087D01*
X324722Y353031D01*
X324750Y352960D01*
X324793Y352862D01*
X324835Y352735D01*
X324863Y352580D01*
X324877Y352425D01*
X324891Y352241D01*
Y352213D01*
Y352143D01*
X324877Y352030D01*
X324863Y351889D01*
X324835Y351734D01*
X324779Y351551D01*
X324722Y351367D01*
X324637Y351198D01*
X324623Y351184D01*
X324595Y351128D01*
X324539Y351043D01*
X324468Y350945D01*
X324370Y350832D01*
X324257Y350705D01*
X324116Y350578D01*
X323961Y350465D01*
X323947Y350451D01*
X323890Y350423D01*
X323792Y350367D01*
X323679Y350296D01*
X323524Y350226D01*
X323355Y350155D01*
X323157Y350085D01*
X322932Y350028D01*
X322904D01*
X322833Y350000D01*
X322706Y349986D01*
X322537Y349958D01*
X322340Y349930D01*
X322114Y349915D01*
X321860Y349887D01*
X321395D01*
X321282Y349901D01*
X321184D01*
X320930Y349915D01*
X320874D01*
X320817Y349930D01*
X320733D01*
X320535Y349958D01*
X320310Y349986D01*
X320253D01*
X320197Y350000D01*
X320126D01*
X319943Y350028D01*
X319746Y350056D01*
X319732D01*
X319704Y350070D01*
X319647Y350085D01*
X319591Y350099D01*
X319436Y350141D01*
X319267Y350183D01*
Y351269D01*
X319295Y351255D01*
X319351Y351241D01*
X319450Y351212D01*
X319577Y351170D01*
X319732Y351114D01*
X319915Y351071D01*
X320112Y351029D01*
X320324Y350987D01*
X320352D01*
X320423Y350973D01*
X320549Y350959D01*
X320719Y350945D01*
X320916Y350916D01*
X321142Y350902D01*
X321395Y350888D01*
X321875D01*
X322001Y350902D01*
X322142D01*
X322297Y350930D01*
X322453Y350945D01*
X322608Y350973D01*
X322622D01*
X322678Y350987D01*
X322734Y351015D01*
X322833Y351029D01*
X323031Y351114D01*
X323228Y351212D01*
X323242Y351227D01*
X323270Y351241D01*
X323312Y351283D01*
X323369Y351325D01*
X323496Y351452D01*
X323594Y351621D01*
Y351635D01*
X323608Y351664D01*
X323637Y351720D01*
X323651Y351790D01*
X323679Y351875D01*
X323693Y351974D01*
X323707Y352185D01*
Y352199D01*
Y352241D01*
X323693Y352298D01*
X323679Y352382D01*
X323623Y352566D01*
X323580Y352650D01*
X323510Y352749D01*
X323496Y352763D01*
X323482Y352791D01*
X323439Y352834D01*
X323383Y352890D01*
X323312Y352960D01*
X323228Y353031D01*
X323016Y353172D01*
X323002Y353186D01*
X322960Y353200D01*
X322904Y353242D01*
X322819Y353285D01*
X322720Y353341D01*
X322608Y353397D01*
X322326Y353524D01*
X322312Y353538D01*
X322255Y353553D01*
X322185Y353581D01*
X322072Y353623D01*
X321959Y353665D01*
X321818Y353722D01*
X321522Y353834D01*
X321508Y353848D01*
X321452Y353863D01*
X321381Y353905D01*
X321282Y353947D01*
X321156Y354004D01*
X321029Y354060D01*
X320733Y354201D01*
X320719Y354215D01*
X320662Y354243D01*
X320592Y354271D01*
X320493Y354328D01*
X320394Y354398D01*
X320267Y354469D01*
X320028Y354652D01*
X320014Y354666D01*
X319986Y354694D01*
X319929Y354751D01*
X319859Y354835D01*
X319788Y354920D01*
X319704Y355033D01*
X319548Y355272D01*
X319534Y355286D01*
X319520Y355343D01*
X319492Y355413D01*
X319464Y355512D01*
X319422Y355639D01*
X319393Y355780D01*
X319379Y355949D01*
X319365Y356118D01*
Y356132D01*
Y356189D01*
X319379Y356273D01*
X319393Y356386D01*
X319408Y356513D01*
X319436Y356654D01*
X319478Y356809D01*
X319534Y356964D01*
X319548Y356978D01*
X319563Y357034D01*
X319619Y357105D01*
X319675Y357204D01*
X319746Y357316D01*
X319844Y357443D01*
X319957Y357570D01*
X320084Y357697D01*
X320098Y357711D01*
X320155Y357753D01*
X320239Y357810D01*
X320352Y357880D01*
X320479Y357965D01*
X320648Y358049D01*
X320831Y358134D01*
X321043Y358219D01*
X321071Y358233D01*
X321156Y358247D01*
X321268Y358275D01*
X321437Y358317D01*
X321649Y358359D01*
X321889Y358388D01*
X322156Y358402D01*
X322453Y358416D01*
X322593D01*
X322734Y358402D01*
D02*
G37*
G36*
X56670Y99986D02*
X57031Y99958D01*
X57447Y99903D01*
X57892Y99847D01*
X58363Y99736D01*
X58835Y99597D01*
X58891Y99570D01*
X59030Y99514D01*
X59252Y99431D01*
X59529Y99292D01*
X59863Y99125D01*
X60223Y98931D01*
X60584Y98681D01*
X60918Y98404D01*
X60945Y98376D01*
X61056Y98265D01*
X61223Y98098D01*
X61417Y97876D01*
X61612Y97598D01*
X61834Y97293D01*
X62056Y96904D01*
X62250Y96516D01*
X62278Y96460D01*
X62333Y96321D01*
X62389Y96099D01*
X62472Y95794D01*
X62583Y95405D01*
X62639Y94989D01*
X62694Y94517D01*
X62722Y93989D01*
Y93962D01*
Y93934D01*
Y93767D01*
X62694Y93490D01*
X62667Y93184D01*
X62611Y92796D01*
X62555Y92379D01*
X62445Y91963D01*
X62306Y91546D01*
X62278Y91491D01*
X62222Y91380D01*
X62139Y91185D01*
X62000Y90935D01*
X61834Y90630D01*
X61612Y90352D01*
X61362Y90047D01*
X61084Y89742D01*
X61056Y89714D01*
X60945Y89631D01*
X60779Y89492D01*
X60529Y89325D01*
X60251Y89159D01*
X59890Y88964D01*
X59502Y88798D01*
X59085Y88631D01*
X59057D01*
X59030Y88603D01*
X58863Y88576D01*
X58613Y88520D01*
X58280Y88437D01*
X57864Y88354D01*
X57392Y88298D01*
X56864Y88270D01*
X56309Y88243D01*
X56059D01*
X55781Y88270D01*
X55448Y88298D01*
X55032Y88326D01*
X54588Y88409D01*
X54116Y88492D01*
X53672Y88631D01*
X53644D01*
X53616Y88659D01*
X53477Y88715D01*
X53227Y88798D01*
X52950Y88937D01*
X52617Y89103D01*
X52284Y89325D01*
X51923Y89547D01*
X51589Y89825D01*
X51562Y89853D01*
X51451Y89964D01*
X51284Y90130D01*
X51090Y90352D01*
X50868Y90630D01*
X50645Y90963D01*
X50423Y91324D01*
X50229Y91713D01*
X50201Y91768D01*
X50146Y91907D01*
X50062Y92129D01*
X49979Y92435D01*
X49896Y92823D01*
X49813Y93240D01*
X49757Y93712D01*
X49729Y94239D01*
Y94267D01*
Y94295D01*
Y94461D01*
X49757Y94739D01*
X49785Y95044D01*
X49840Y95433D01*
X49924Y95822D01*
X50035Y96238D01*
X50174Y96655D01*
X50201Y96710D01*
X50257Y96849D01*
X50340Y97043D01*
X50479Y97293D01*
X50645Y97571D01*
X50868Y97876D01*
X51118Y98181D01*
X51395Y98459D01*
X51423Y98487D01*
X51534Y98570D01*
X51701Y98709D01*
X51950Y98876D01*
X52228Y99070D01*
X52589Y99264D01*
X52978Y99431D01*
X53394Y99597D01*
X53450Y99625D01*
X53616Y99653D01*
X53866Y99736D01*
X54171Y99819D01*
X54588Y99875D01*
X55060Y99958D01*
X55587Y99986D01*
X56143Y100014D01*
X56392D01*
X56670Y99986D01*
D02*
G37*
G36*
X100399Y319830D02*
X98482D01*
Y313459D01*
X100399D01*
Y312500D01*
X95422D01*
Y313459D01*
X97340D01*
Y319830D01*
X95422D01*
Y320789D01*
X100399D01*
Y319830D01*
D02*
G37*
G36*
X91771Y387500D02*
X90249D01*
X87500Y395789D01*
X88783D01*
X90559Y390192D01*
X91067Y388557D01*
X91588Y390192D01*
X93378Y395789D01*
X94591D01*
X91771Y387500D01*
D02*
G37*
G36*
X90968Y358402D02*
X91137Y358388D01*
X91222D01*
X91292Y358374D01*
X91447Y358359D01*
X91630Y358331D01*
X91673D01*
X91729Y358317D01*
X91785D01*
X91941Y358289D01*
X92124Y358261D01*
X92166D01*
X92222Y358247D01*
X92279Y358233D01*
X92434Y358204D01*
X92589Y358176D01*
Y357161D01*
X92561D01*
X92504Y357189D01*
X92406Y357204D01*
X92279Y357232D01*
X92138Y357260D01*
X91969Y357302D01*
X91602Y357359D01*
X91588D01*
X91518Y357373D01*
X91433Y357387D01*
X91306Y357401D01*
X91165Y357415D01*
X90996Y357429D01*
X90658Y357443D01*
X90503D01*
X90333Y357429D01*
X90122Y357401D01*
X89882Y357359D01*
X89643Y357302D01*
X89431Y357218D01*
X89234Y357105D01*
X89220Y357091D01*
X89163Y357048D01*
X89093Y356978D01*
X89008Y356879D01*
X88924Y356753D01*
X88853Y356597D01*
X88797Y356428D01*
X88783Y356231D01*
Y356217D01*
Y356175D01*
X88797Y356118D01*
X88811Y356034D01*
X88867Y355850D01*
X88910Y355752D01*
X88966Y355653D01*
X88980Y355639D01*
X88994Y355611D01*
X89037Y355568D01*
X89093Y355512D01*
X89248Y355371D01*
X89445Y355216D01*
X89459Y355202D01*
X89502Y355188D01*
X89558Y355145D01*
X89657Y355103D01*
X89755Y355047D01*
X89868Y354990D01*
X90150Y354878D01*
X90164D01*
X90221Y354849D01*
X90291Y354821D01*
X90404Y354779D01*
X90517Y354737D01*
X90644Y354680D01*
X90940Y354553D01*
X90954D01*
X91010Y354525D01*
X91095Y354497D01*
X91193Y354455D01*
X91320Y354398D01*
X91447Y354342D01*
X91743Y354201D01*
X91757Y354187D01*
X91814Y354173D01*
X91884Y354130D01*
X91983Y354074D01*
X92208Y353919D01*
X92434Y353736D01*
X92448Y353722D01*
X92490Y353693D01*
X92547Y353637D01*
X92617Y353553D01*
X92688Y353468D01*
X92772Y353355D01*
X92927Y353101D01*
X92941Y353087D01*
X92956Y353031D01*
X92984Y352960D01*
X93026Y352862D01*
X93068Y352735D01*
X93097Y352580D01*
X93111Y352425D01*
X93125Y352241D01*
Y352213D01*
Y352143D01*
X93111Y352030D01*
X93097Y351889D01*
X93068Y351734D01*
X93012Y351551D01*
X92956Y351367D01*
X92871Y351198D01*
X92857Y351184D01*
X92829Y351128D01*
X92772Y351043D01*
X92702Y350945D01*
X92603Y350832D01*
X92490Y350705D01*
X92349Y350578D01*
X92194Y350465D01*
X92180Y350451D01*
X92124Y350423D01*
X92025Y350367D01*
X91912Y350296D01*
X91757Y350226D01*
X91588Y350155D01*
X91391Y350085D01*
X91165Y350028D01*
X91137D01*
X91067Y350000D01*
X90940Y349986D01*
X90771Y349958D01*
X90573Y349930D01*
X90348Y349915D01*
X90094Y349887D01*
X89629D01*
X89516Y349901D01*
X89417D01*
X89163Y349915D01*
X89107D01*
X89051Y349930D01*
X88966D01*
X88769Y349958D01*
X88543Y349986D01*
X88487D01*
X88430Y350000D01*
X88360D01*
X88177Y350028D01*
X87979Y350056D01*
X87965D01*
X87937Y350070D01*
X87881Y350085D01*
X87824Y350099D01*
X87669Y350141D01*
X87500Y350183D01*
Y351269D01*
X87528Y351255D01*
X87585Y351241D01*
X87683Y351212D01*
X87810Y351170D01*
X87965Y351114D01*
X88148Y351071D01*
X88346Y351029D01*
X88557Y350987D01*
X88586D01*
X88656Y350973D01*
X88783Y350959D01*
X88952Y350945D01*
X89149Y350916D01*
X89375Y350902D01*
X89629Y350888D01*
X90108D01*
X90235Y350902D01*
X90376D01*
X90531Y350930D01*
X90686Y350945D01*
X90841Y350973D01*
X90855D01*
X90912Y350987D01*
X90968Y351015D01*
X91067Y351029D01*
X91264Y351114D01*
X91461Y351212D01*
X91475Y351227D01*
X91504Y351241D01*
X91546Y351283D01*
X91602Y351325D01*
X91729Y351452D01*
X91828Y351621D01*
Y351635D01*
X91842Y351664D01*
X91870Y351720D01*
X91884Y351790D01*
X91912Y351875D01*
X91926Y351974D01*
X91941Y352185D01*
Y352199D01*
Y352241D01*
X91926Y352298D01*
X91912Y352382D01*
X91856Y352566D01*
X91814Y352650D01*
X91743Y352749D01*
X91729Y352763D01*
X91715Y352791D01*
X91673Y352834D01*
X91616Y352890D01*
X91546Y352960D01*
X91461Y353031D01*
X91250Y353172D01*
X91236Y353186D01*
X91193Y353200D01*
X91137Y353242D01*
X91052Y353285D01*
X90954Y353341D01*
X90841Y353397D01*
X90559Y353524D01*
X90545Y353538D01*
X90489Y353553D01*
X90418Y353581D01*
X90305Y353623D01*
X90192Y353665D01*
X90052Y353722D01*
X89755Y353834D01*
X89741Y353848D01*
X89685Y353863D01*
X89615Y353905D01*
X89516Y353947D01*
X89389Y354004D01*
X89262Y354060D01*
X88966Y354201D01*
X88952Y354215D01*
X88896Y354243D01*
X88825Y354271D01*
X88726Y354328D01*
X88628Y354398D01*
X88501Y354469D01*
X88261Y354652D01*
X88247Y354666D01*
X88219Y354694D01*
X88163Y354751D01*
X88092Y354835D01*
X88022Y354920D01*
X87937Y355033D01*
X87782Y355272D01*
X87768Y355286D01*
X87754Y355343D01*
X87726Y355413D01*
X87697Y355512D01*
X87655Y355639D01*
X87627Y355780D01*
X87613Y355949D01*
X87599Y356118D01*
Y356132D01*
Y356189D01*
X87613Y356273D01*
X87627Y356386D01*
X87641Y356513D01*
X87669Y356654D01*
X87711Y356809D01*
X87768Y356964D01*
X87782Y356978D01*
X87796Y357034D01*
X87852Y357105D01*
X87909Y357204D01*
X87979Y357316D01*
X88078Y357443D01*
X88191Y357570D01*
X88318Y357697D01*
X88332Y357711D01*
X88388Y357753D01*
X88473Y357810D01*
X88586Y357880D01*
X88712Y357965D01*
X88882Y358049D01*
X89065Y358134D01*
X89276Y358219D01*
X89304Y358233D01*
X89389Y358247D01*
X89502Y358275D01*
X89671Y358317D01*
X89882Y358359D01*
X90122Y358388D01*
X90390Y358402D01*
X90686Y358416D01*
X90827D01*
X90968Y358402D01*
D02*
G37*
G36*
X106404Y395888D02*
X106573Y395874D01*
X106742Y395859D01*
X107123Y395803D01*
X107151D01*
X107208Y395789D01*
X107306Y395761D01*
X107433Y395733D01*
X107574Y395690D01*
X107729Y395634D01*
X108082Y395507D01*
Y394393D01*
X108068Y394408D01*
X107997Y394436D01*
X107913Y394478D01*
X107786Y394534D01*
X107645Y394591D01*
X107490Y394647D01*
X107137Y394760D01*
X107109D01*
X107052Y394788D01*
X106954Y394802D01*
X106827Y394831D01*
X106672Y394859D01*
X106489Y394873D01*
X106291Y394901D01*
X105981D01*
X105868Y394887D01*
X105727Y394873D01*
X105572Y394845D01*
X105389Y394802D01*
X105206Y394746D01*
X105023Y394675D01*
X105008Y394661D01*
X104952Y394633D01*
X104853Y394577D01*
X104755Y394506D01*
X104628Y394422D01*
X104487Y394309D01*
X104346Y394182D01*
X104219Y394027D01*
X104205Y394013D01*
X104163Y393956D01*
X104106Y393872D01*
X104036Y393745D01*
X103951Y393604D01*
X103867Y393421D01*
X103782Y393223D01*
X103712Y393012D01*
Y392984D01*
X103683Y392913D01*
X103655Y392786D01*
X103627Y392617D01*
X103599Y392420D01*
X103571Y392194D01*
X103556Y391941D01*
X103542Y391659D01*
Y391645D01*
Y391588D01*
Y391504D01*
X103556Y391391D01*
Y391264D01*
X103571Y391109D01*
X103599Y390940D01*
X103627Y390756D01*
X103698Y390362D01*
X103810Y389953D01*
X103979Y389572D01*
X104078Y389403D01*
X104191Y389234D01*
X104205Y389220D01*
X104219Y389206D01*
X104261Y389164D01*
X104318Y389107D01*
X104374Y389051D01*
X104459Y388980D01*
X104557Y388896D01*
X104670Y388825D01*
X104797Y388755D01*
X104938Y388670D01*
X105107Y388600D01*
X105276Y388543D01*
X105460Y388487D01*
X105657Y388459D01*
X105883Y388430D01*
X106108Y388416D01*
X106305D01*
X106432Y388430D01*
X106587Y388445D01*
X106756Y388459D01*
X107123Y388529D01*
X107151D01*
X107208Y388557D01*
X107306Y388586D01*
X107433Y388628D01*
X107574Y388670D01*
X107729Y388727D01*
X108082Y388881D01*
Y387810D01*
X108068D01*
X108039Y387796D01*
X107983Y387768D01*
X107913Y387754D01*
X107814Y387711D01*
X107701Y387683D01*
X107588Y387641D01*
X107447Y387613D01*
X107123Y387528D01*
X106771Y387472D01*
X106390Y387415D01*
X105981Y387401D01*
X105911D01*
X105812Y387415D01*
X105685D01*
X105544Y387430D01*
X105375Y387458D01*
X105192Y387486D01*
X104980Y387528D01*
X104769Y387585D01*
X104543Y387655D01*
X104318Y387740D01*
X104092Y387838D01*
X103881Y387965D01*
X103669Y388106D01*
X103458Y388261D01*
X103274Y388445D01*
X103260Y388459D01*
X103232Y388501D01*
X103190Y388557D01*
X103134Y388642D01*
X103063Y388755D01*
X102978Y388881D01*
X102894Y389051D01*
X102809Y389234D01*
X102725Y389431D01*
X102640Y389671D01*
X102556Y389925D01*
X102485Y390192D01*
X102429Y390503D01*
X102386Y390827D01*
X102358Y391179D01*
X102344Y391546D01*
Y391560D01*
Y391588D01*
Y391645D01*
Y391715D01*
X102358Y391800D01*
Y391912D01*
X102372Y392152D01*
X102401Y392420D01*
X102457Y392730D01*
X102513Y393040D01*
X102598Y393350D01*
Y393364D01*
X102612Y393393D01*
X102626Y393435D01*
X102640Y393491D01*
X102711Y393632D01*
X102781Y393830D01*
X102894Y394041D01*
X103021Y394267D01*
X103162Y394506D01*
X103331Y394718D01*
X103359Y394746D01*
X103415Y394816D01*
X103528Y394915D01*
X103669Y395042D01*
X103838Y395183D01*
X104036Y395324D01*
X104261Y395465D01*
X104501Y395592D01*
X104515D01*
X104529Y395606D01*
X104572Y395620D01*
X104628Y395634D01*
X104769Y395690D01*
X104952Y395747D01*
X105178Y395803D01*
X105445Y395859D01*
X105742Y395888D01*
X106052Y395902D01*
X106263D01*
X106404Y395888D01*
D02*
G37*
G36*
X99257D02*
X99426Y395874D01*
X99595Y395859D01*
X99976Y395803D01*
X100004D01*
X100060Y395789D01*
X100159Y395761D01*
X100286Y395733D01*
X100427Y395690D01*
X100582Y395634D01*
X100934Y395507D01*
Y394393D01*
X100920Y394408D01*
X100850Y394436D01*
X100765Y394478D01*
X100638Y394534D01*
X100497Y394591D01*
X100342Y394647D01*
X99990Y394760D01*
X99962D01*
X99905Y394788D01*
X99807Y394802D01*
X99680Y394831D01*
X99525Y394859D01*
X99341Y394873D01*
X99144Y394901D01*
X98834D01*
X98721Y394887D01*
X98580Y394873D01*
X98425Y394845D01*
X98242Y394802D01*
X98059Y394746D01*
X97875Y394675D01*
X97861Y394661D01*
X97805Y394633D01*
X97706Y394577D01*
X97608Y394506D01*
X97481Y394422D01*
X97340Y394309D01*
X97199Y394182D01*
X97072Y394027D01*
X97058Y394013D01*
X97015Y393956D01*
X96959Y393872D01*
X96889Y393745D01*
X96804Y393604D01*
X96719Y393421D01*
X96635Y393223D01*
X96564Y393012D01*
Y392984D01*
X96536Y392913D01*
X96508Y392786D01*
X96480Y392617D01*
X96452Y392420D01*
X96423Y392194D01*
X96409Y391941D01*
X96395Y391659D01*
Y391645D01*
Y391588D01*
Y391504D01*
X96409Y391391D01*
Y391264D01*
X96423Y391109D01*
X96452Y390940D01*
X96480Y390756D01*
X96550Y390362D01*
X96663Y389953D01*
X96832Y389572D01*
X96931Y389403D01*
X97044Y389234D01*
X97058Y389220D01*
X97072Y389206D01*
X97114Y389164D01*
X97170Y389107D01*
X97227Y389051D01*
X97311Y388980D01*
X97410Y388896D01*
X97523Y388825D01*
X97650Y388755D01*
X97791Y388670D01*
X97960Y388600D01*
X98129Y388543D01*
X98312Y388487D01*
X98510Y388459D01*
X98735Y388430D01*
X98961Y388416D01*
X99158D01*
X99285Y388430D01*
X99440Y388445D01*
X99609Y388459D01*
X99976Y388529D01*
X100004D01*
X100060Y388557D01*
X100159Y388586D01*
X100286Y388628D01*
X100427Y388670D01*
X100582Y388727D01*
X100934Y388881D01*
Y387810D01*
X100920D01*
X100892Y387796D01*
X100836Y387768D01*
X100765Y387754D01*
X100667Y387711D01*
X100554Y387683D01*
X100441Y387641D01*
X100300Y387613D01*
X99976Y387528D01*
X99623Y387472D01*
X99243Y387415D01*
X98834Y387401D01*
X98764D01*
X98665Y387415D01*
X98538D01*
X98397Y387430D01*
X98228Y387458D01*
X98045Y387486D01*
X97833Y387528D01*
X97622Y387585D01*
X97396Y387655D01*
X97170Y387740D01*
X96945Y387838D01*
X96734Y387965D01*
X96522Y388106D01*
X96311Y388261D01*
X96127Y388445D01*
X96113Y388459D01*
X96085Y388501D01*
X96043Y388557D01*
X95986Y388642D01*
X95916Y388755D01*
X95831Y388881D01*
X95747Y389051D01*
X95662Y389234D01*
X95578Y389431D01*
X95493Y389671D01*
X95408Y389925D01*
X95338Y390192D01*
X95281Y390503D01*
X95239Y390827D01*
X95211Y391179D01*
X95197Y391546D01*
Y391560D01*
Y391588D01*
Y391645D01*
Y391715D01*
X95211Y391800D01*
Y391912D01*
X95225Y392152D01*
X95253Y392420D01*
X95310Y392730D01*
X95366Y393040D01*
X95451Y393350D01*
Y393364D01*
X95465Y393393D01*
X95479Y393435D01*
X95493Y393491D01*
X95563Y393632D01*
X95634Y393830D01*
X95747Y394041D01*
X95874Y394267D01*
X96015Y394506D01*
X96184Y394718D01*
X96212Y394746D01*
X96268Y394816D01*
X96381Y394915D01*
X96522Y395042D01*
X96691Y395183D01*
X96889Y395324D01*
X97114Y395465D01*
X97354Y395592D01*
X97368D01*
X97382Y395606D01*
X97424Y395620D01*
X97481Y395634D01*
X97622Y395690D01*
X97805Y395747D01*
X98031Y395803D01*
X98298Y395859D01*
X98594Y395888D01*
X98904Y395902D01*
X99116D01*
X99257Y395888D01*
D02*
G37*
G36*
X98580Y358388D02*
X98749Y358374D01*
X98919Y358359D01*
X99299Y358303D01*
X99327D01*
X99384Y358289D01*
X99482Y358261D01*
X99609Y358233D01*
X99750Y358190D01*
X99905Y358134D01*
X100258Y358007D01*
Y356893D01*
X100244Y356908D01*
X100173Y356936D01*
X100089Y356978D01*
X99962Y357034D01*
X99821Y357091D01*
X99666Y357147D01*
X99313Y357260D01*
X99285D01*
X99229Y357288D01*
X99130Y357302D01*
X99003Y357331D01*
X98848Y357359D01*
X98665Y357373D01*
X98468Y357401D01*
X98157D01*
X98045Y357387D01*
X97904Y357373D01*
X97748Y357345D01*
X97565Y357302D01*
X97382Y357246D01*
X97199Y357175D01*
X97185Y357161D01*
X97128Y357133D01*
X97030Y357077D01*
X96931Y357006D01*
X96804Y356922D01*
X96663Y356809D01*
X96522Y356682D01*
X96395Y356527D01*
X96381Y356513D01*
X96339Y356456D01*
X96282Y356372D01*
X96212Y356245D01*
X96127Y356104D01*
X96043Y355921D01*
X95958Y355723D01*
X95888Y355512D01*
Y355484D01*
X95859Y355413D01*
X95831Y355286D01*
X95803Y355117D01*
X95775Y354920D01*
X95747Y354694D01*
X95733Y354441D01*
X95719Y354159D01*
Y354145D01*
Y354088D01*
Y354004D01*
X95733Y353891D01*
Y353764D01*
X95747Y353609D01*
X95775Y353440D01*
X95803Y353256D01*
X95874Y352862D01*
X95986Y352453D01*
X96156Y352072D01*
X96254Y351903D01*
X96367Y351734D01*
X96381Y351720D01*
X96395Y351706D01*
X96438Y351664D01*
X96494Y351607D01*
X96550Y351551D01*
X96635Y351480D01*
X96734Y351396D01*
X96846Y351325D01*
X96973Y351255D01*
X97114Y351170D01*
X97283Y351100D01*
X97452Y351043D01*
X97636Y350987D01*
X97833Y350959D01*
X98059Y350930D01*
X98284Y350916D01*
X98482D01*
X98608Y350930D01*
X98764Y350945D01*
X98933Y350959D01*
X99299Y351029D01*
X99327D01*
X99384Y351057D01*
X99482Y351086D01*
X99609Y351128D01*
X99750Y351170D01*
X99905Y351227D01*
X100258Y351381D01*
Y350310D01*
X100244D01*
X100216Y350296D01*
X100159Y350268D01*
X100089Y350254D01*
X99990Y350211D01*
X99877Y350183D01*
X99764Y350141D01*
X99623Y350113D01*
X99299Y350028D01*
X98947Y349972D01*
X98566Y349915D01*
X98157Y349901D01*
X98087D01*
X97988Y349915D01*
X97861D01*
X97720Y349930D01*
X97551Y349958D01*
X97368Y349986D01*
X97156Y350028D01*
X96945Y350085D01*
X96719Y350155D01*
X96494Y350240D01*
X96268Y350338D01*
X96057Y350465D01*
X95845Y350606D01*
X95634Y350761D01*
X95451Y350945D01*
X95437Y350959D01*
X95408Y351001D01*
X95366Y351057D01*
X95310Y351142D01*
X95239Y351255D01*
X95155Y351381D01*
X95070Y351551D01*
X94986Y351734D01*
X94901Y351931D01*
X94816Y352171D01*
X94732Y352425D01*
X94661Y352692D01*
X94605Y353003D01*
X94563Y353327D01*
X94534Y353679D01*
X94520Y354046D01*
Y354060D01*
Y354088D01*
Y354145D01*
Y354215D01*
X94534Y354300D01*
Y354412D01*
X94549Y354652D01*
X94577Y354920D01*
X94633Y355230D01*
X94690Y355540D01*
X94774Y355850D01*
Y355864D01*
X94788Y355893D01*
X94802Y355935D01*
X94816Y355991D01*
X94887Y356132D01*
X94957Y356330D01*
X95070Y356541D01*
X95197Y356767D01*
X95338Y357006D01*
X95507Y357218D01*
X95535Y357246D01*
X95592Y357316D01*
X95704Y357415D01*
X95845Y357542D01*
X96015Y357683D01*
X96212Y357824D01*
X96438Y357965D01*
X96677Y358092D01*
X96691D01*
X96705Y358106D01*
X96748Y358120D01*
X96804Y358134D01*
X96945Y358190D01*
X97128Y358247D01*
X97354Y358303D01*
X97622Y358359D01*
X97918Y358388D01*
X98228Y358402D01*
X98439D01*
X98580Y358388D01*
D02*
G37*
G36*
X94027Y312500D02*
X92927D01*
X92758Y317674D01*
X92688Y319647D01*
X92293Y318505D01*
X91067Y315207D01*
X90291D01*
X89121Y318379D01*
X88741Y319647D01*
X88712Y317589D01*
X88571Y312500D01*
X87500D01*
X87909Y320789D01*
X89248D01*
X90362Y317659D01*
X90728Y316602D01*
X91067Y317659D01*
X92251Y320789D01*
X93632D01*
X94027Y312500D01*
D02*
G37*
G36*
X51534Y85688D02*
X51784Y85661D01*
X52089Y85633D01*
X52450Y85550D01*
X52811Y85466D01*
X53172Y85328D01*
X53227Y85300D01*
X53338Y85272D01*
X53533Y85161D01*
X53755Y85050D01*
X54033Y84883D01*
X54310Y84689D01*
X54616Y84439D01*
X54921Y84162D01*
X54949Y84134D01*
X55060Y84023D01*
X55198Y83856D01*
X55365Y83634D01*
X55560Y83329D01*
X55781Y82996D01*
X55976Y82607D01*
X56170Y82163D01*
X56198Y82107D01*
X56253Y81941D01*
X56309Y81691D01*
X56392Y81330D01*
X56503Y80913D01*
X56559Y80414D01*
X56614Y79831D01*
X56642Y79220D01*
Y77221D01*
X62500D01*
Y75000D01*
X46176D01*
Y79581D01*
Y79608D01*
Y79636D01*
Y79803D01*
Y80025D01*
X46204Y80330D01*
X46231Y80691D01*
X46287Y81080D01*
X46453Y81913D01*
Y81968D01*
X46509Y82107D01*
X46564Y82302D01*
X46676Y82579D01*
X46787Y82885D01*
X46953Y83190D01*
X47120Y83523D01*
X47342Y83856D01*
X47370Y83884D01*
X47453Y83995D01*
X47564Y84162D01*
X47758Y84356D01*
X47980Y84578D01*
X48230Y84800D01*
X48536Y85022D01*
X48869Y85217D01*
X48924Y85244D01*
X49035Y85300D01*
X49230Y85383D01*
X49507Y85466D01*
X49840Y85550D01*
X50229Y85633D01*
X50673Y85688D01*
X51173Y85716D01*
X51340D01*
X51534Y85688D01*
D02*
G37*
G36*
X104304Y354342D02*
X107729Y350000D01*
X106320D01*
X103204Y354060D01*
Y350000D01*
X102076D01*
Y358289D01*
X103204D01*
Y354426D01*
X106249Y358289D01*
X107574D01*
X104304Y354342D01*
D02*
G37*
G36*
X105657Y320902D02*
X105826Y320888D01*
X105911D01*
X105981Y320874D01*
X106136Y320859D01*
X106320Y320831D01*
X106362D01*
X106418Y320817D01*
X106475D01*
X106630Y320789D01*
X106813Y320761D01*
X106855D01*
X106912Y320747D01*
X106968Y320733D01*
X107123Y320704D01*
X107278Y320676D01*
Y319661D01*
X107250D01*
X107193Y319690D01*
X107095Y319704D01*
X106968Y319732D01*
X106827Y319760D01*
X106658Y319802D01*
X106291Y319859D01*
X106277D01*
X106207Y319873D01*
X106122Y319887D01*
X105995Y319901D01*
X105854Y319915D01*
X105685Y319929D01*
X105347Y319943D01*
X105192D01*
X105023Y319929D01*
X104811Y319901D01*
X104572Y319859D01*
X104332Y319802D01*
X104120Y319718D01*
X103923Y319605D01*
X103909Y319591D01*
X103853Y319548D01*
X103782Y319478D01*
X103698Y319379D01*
X103613Y319252D01*
X103542Y319097D01*
X103486Y318928D01*
X103472Y318731D01*
Y318717D01*
Y318675D01*
X103486Y318618D01*
X103500Y318533D01*
X103556Y318350D01*
X103599Y318252D01*
X103655Y318153D01*
X103669Y318139D01*
X103683Y318111D01*
X103726Y318068D01*
X103782Y318012D01*
X103937Y317871D01*
X104135Y317716D01*
X104149Y317702D01*
X104191Y317688D01*
X104247Y317645D01*
X104346Y317603D01*
X104445Y317547D01*
X104557Y317490D01*
X104839Y317378D01*
X104853D01*
X104910Y317349D01*
X104980Y317321D01*
X105093Y317279D01*
X105206Y317237D01*
X105333Y317180D01*
X105629Y317053D01*
X105643D01*
X105699Y317025D01*
X105784Y316997D01*
X105883Y316955D01*
X106009Y316898D01*
X106136Y316842D01*
X106432Y316701D01*
X106446Y316687D01*
X106503Y316673D01*
X106573Y316630D01*
X106672Y316574D01*
X106897Y316419D01*
X107123Y316236D01*
X107137Y316222D01*
X107179Y316193D01*
X107236Y316137D01*
X107306Y316052D01*
X107377Y315968D01*
X107461Y315855D01*
X107616Y315601D01*
X107631Y315587D01*
X107645Y315531D01*
X107673Y315460D01*
X107715Y315362D01*
X107757Y315235D01*
X107786Y315080D01*
X107800Y314925D01*
X107814Y314741D01*
Y314713D01*
Y314643D01*
X107800Y314530D01*
X107786Y314389D01*
X107757Y314234D01*
X107701Y314051D01*
X107645Y313867D01*
X107560Y313698D01*
X107546Y313684D01*
X107518Y313628D01*
X107461Y313543D01*
X107391Y313444D01*
X107292Y313332D01*
X107179Y313205D01*
X107038Y313078D01*
X106883Y312965D01*
X106869Y312951D01*
X106813Y312923D01*
X106714Y312866D01*
X106601Y312796D01*
X106446Y312726D01*
X106277Y312655D01*
X106080Y312585D01*
X105854Y312528D01*
X105826D01*
X105756Y312500D01*
X105629Y312486D01*
X105460Y312458D01*
X105262Y312430D01*
X105037Y312415D01*
X104783Y312387D01*
X104318D01*
X104205Y312401D01*
X104106D01*
X103853Y312415D01*
X103796D01*
X103740Y312430D01*
X103655D01*
X103458Y312458D01*
X103232Y312486D01*
X103176D01*
X103119Y312500D01*
X103049D01*
X102866Y312528D01*
X102668Y312556D01*
X102654D01*
X102626Y312570D01*
X102570Y312585D01*
X102513Y312599D01*
X102358Y312641D01*
X102189Y312683D01*
Y313769D01*
X102217Y313755D01*
X102274Y313741D01*
X102372Y313712D01*
X102499Y313670D01*
X102654Y313614D01*
X102837Y313571D01*
X103035Y313529D01*
X103246Y313487D01*
X103274D01*
X103345Y313473D01*
X103472Y313459D01*
X103641Y313444D01*
X103838Y313416D01*
X104064Y313402D01*
X104318Y313388D01*
X104797D01*
X104924Y313402D01*
X105065D01*
X105220Y313430D01*
X105375Y313444D01*
X105530Y313473D01*
X105544D01*
X105601Y313487D01*
X105657Y313515D01*
X105756Y313529D01*
X105953Y313614D01*
X106150Y313712D01*
X106164Y313726D01*
X106193Y313741D01*
X106235Y313783D01*
X106291Y313825D01*
X106418Y313952D01*
X106517Y314121D01*
Y314135D01*
X106531Y314163D01*
X106559Y314220D01*
X106573Y314290D01*
X106601Y314375D01*
X106615Y314474D01*
X106630Y314685D01*
Y314699D01*
Y314741D01*
X106615Y314798D01*
X106601Y314882D01*
X106545Y315066D01*
X106503Y315150D01*
X106432Y315249D01*
X106418Y315263D01*
X106404Y315291D01*
X106362Y315333D01*
X106305Y315390D01*
X106235Y315460D01*
X106150Y315531D01*
X105939Y315672D01*
X105925Y315686D01*
X105883Y315700D01*
X105826Y315742D01*
X105742Y315785D01*
X105643Y315841D01*
X105530Y315897D01*
X105248Y316024D01*
X105234Y316038D01*
X105178Y316052D01*
X105107Y316081D01*
X104994Y316123D01*
X104882Y316165D01*
X104741Y316222D01*
X104445Y316334D01*
X104431Y316348D01*
X104374Y316363D01*
X104304Y316405D01*
X104205Y316447D01*
X104078Y316504D01*
X103951Y316560D01*
X103655Y316701D01*
X103641Y316715D01*
X103585Y316743D01*
X103514Y316771D01*
X103415Y316828D01*
X103317Y316898D01*
X103190Y316969D01*
X102950Y317152D01*
X102936Y317166D01*
X102908Y317194D01*
X102852Y317251D01*
X102781Y317335D01*
X102711Y317420D01*
X102626Y317533D01*
X102471Y317772D01*
X102457Y317786D01*
X102443Y317843D01*
X102415Y317913D01*
X102386Y318012D01*
X102344Y318139D01*
X102316Y318280D01*
X102302Y318449D01*
X102288Y318618D01*
Y318632D01*
Y318689D01*
X102302Y318773D01*
X102316Y318886D01*
X102330Y319013D01*
X102358Y319154D01*
X102401Y319309D01*
X102457Y319464D01*
X102471Y319478D01*
X102485Y319534D01*
X102542Y319605D01*
X102598Y319704D01*
X102668Y319816D01*
X102767Y319943D01*
X102880Y320070D01*
X103007Y320197D01*
X103021Y320211D01*
X103077Y320253D01*
X103162Y320310D01*
X103274Y320380D01*
X103401Y320465D01*
X103571Y320549D01*
X103754Y320634D01*
X103965Y320719D01*
X103994Y320733D01*
X104078Y320747D01*
X104191Y320775D01*
X104360Y320817D01*
X104572Y320859D01*
X104811Y320888D01*
X105079Y320902D01*
X105375Y320916D01*
X105516D01*
X105657Y320902D01*
D02*
G37*
G36*
X137550Y75902D02*
X137734Y75874D01*
X137959Y75845D01*
X138185Y75789D01*
X138424Y75718D01*
X138650Y75620D01*
X138678Y75606D01*
X138749Y75564D01*
X138861Y75493D01*
X139002Y75408D01*
X139157Y75282D01*
X139312Y75141D01*
X139482Y74971D01*
X139637Y74774D01*
X139651Y74746D01*
X139707Y74675D01*
X139778Y74563D01*
X139862Y74408D01*
X139961Y74210D01*
X140060Y73985D01*
X140144Y73731D01*
X140229Y73449D01*
Y73435D01*
X140243Y73421D01*
Y73378D01*
X140257Y73308D01*
X140271Y73238D01*
X140285Y73153D01*
X140328Y72941D01*
X140370Y72688D01*
X140398Y72392D01*
X140412Y72053D01*
X140426Y71701D01*
Y71687D01*
Y71659D01*
Y71588D01*
Y71518D01*
X140412Y71419D01*
Y71306D01*
X140398Y71038D01*
X140356Y70742D01*
X140313Y70418D01*
X140243Y70094D01*
X140158Y69770D01*
Y69756D01*
X140144Y69727D01*
X140130Y69685D01*
X140116Y69629D01*
X140045Y69488D01*
X139975Y69290D01*
X139862Y69079D01*
X139749Y68853D01*
X139594Y68628D01*
X139439Y68416D01*
X139425Y68388D01*
X139369Y68332D01*
X139270Y68233D01*
X139143Y68120D01*
X138988Y67993D01*
X138819Y67867D01*
X138622Y67754D01*
X138396Y67641D01*
X138368Y67627D01*
X138298Y67599D01*
X138171Y67556D01*
X138016Y67514D01*
X137832Y67472D01*
X137621Y67429D01*
X137381Y67401D01*
X137142Y67387D01*
X137001D01*
X136860Y67401D01*
X136662Y67429D01*
X136451Y67458D01*
X136211Y67500D01*
X135971Y67571D01*
X135746Y67669D01*
X135718Y67683D01*
X135647Y67726D01*
X135534Y67796D01*
X135408Y67881D01*
X135239Y68007D01*
X135083Y68148D01*
X134914Y68318D01*
X134759Y68501D01*
X134745Y68529D01*
X134689Y68600D01*
X134618Y68712D01*
X134534Y68867D01*
X134449Y69065D01*
X134350Y69290D01*
X134266Y69544D01*
X134181Y69826D01*
Y69840D01*
X134167Y69868D01*
Y69911D01*
X134153Y69967D01*
X134139Y70037D01*
X134125Y70122D01*
X134097Y70348D01*
X134054Y70601D01*
X134026Y70911D01*
X134012Y71250D01*
X133998Y71602D01*
Y71616D01*
Y71645D01*
Y71715D01*
Y71785D01*
X134012Y71884D01*
Y71997D01*
X134026Y72251D01*
X134054Y72561D01*
X134111Y72871D01*
X134167Y73209D01*
X134252Y73519D01*
Y73534D01*
X134266Y73562D01*
X134280Y73604D01*
X134294Y73660D01*
X134350Y73801D01*
X134435Y73999D01*
X134534Y74210D01*
X134661Y74436D01*
X134802Y74647D01*
X134957Y74859D01*
X134971Y74887D01*
X135041Y74943D01*
X135126Y75042D01*
X135253Y75155D01*
X135408Y75282D01*
X135591Y75423D01*
X135788Y75535D01*
X136000Y75648D01*
X136028Y75662D01*
X136098Y75690D01*
X136225Y75733D01*
X136380Y75789D01*
X136564Y75831D01*
X136789Y75874D01*
X137015Y75902D01*
X137268Y75916D01*
X137395D01*
X137550Y75902D01*
D02*
G37*
G36*
X165968D02*
X166137Y75888D01*
X166222D01*
X166292Y75874D01*
X166447Y75859D01*
X166630Y75831D01*
X166673D01*
X166729Y75817D01*
X166786D01*
X166941Y75789D01*
X167124Y75761D01*
X167166D01*
X167222Y75747D01*
X167279Y75733D01*
X167434Y75704D01*
X167589Y75676D01*
Y74661D01*
X167561D01*
X167504Y74689D01*
X167406Y74704D01*
X167279Y74732D01*
X167138Y74760D01*
X166969Y74802D01*
X166602Y74859D01*
X166588D01*
X166518Y74873D01*
X166433Y74887D01*
X166306Y74901D01*
X166165Y74915D01*
X165996Y74929D01*
X165658Y74943D01*
X165503D01*
X165333Y74929D01*
X165122Y74901D01*
X164882Y74859D01*
X164643Y74802D01*
X164431Y74718D01*
X164234Y74605D01*
X164220Y74591D01*
X164163Y74549D01*
X164093Y74478D01*
X164008Y74379D01*
X163924Y74253D01*
X163853Y74097D01*
X163797Y73928D01*
X163783Y73731D01*
Y73717D01*
Y73675D01*
X163797Y73618D01*
X163811Y73534D01*
X163867Y73350D01*
X163910Y73252D01*
X163966Y73153D01*
X163980Y73139D01*
X163994Y73111D01*
X164037Y73068D01*
X164093Y73012D01*
X164248Y72871D01*
X164445Y72716D01*
X164459Y72702D01*
X164502Y72688D01*
X164558Y72645D01*
X164657Y72603D01*
X164755Y72547D01*
X164868Y72490D01*
X165150Y72378D01*
X165164D01*
X165221Y72349D01*
X165291Y72321D01*
X165404Y72279D01*
X165517Y72237D01*
X165644Y72180D01*
X165940Y72053D01*
X165954D01*
X166010Y72025D01*
X166095Y71997D01*
X166193Y71955D01*
X166320Y71898D01*
X166447Y71842D01*
X166743Y71701D01*
X166757Y71687D01*
X166814Y71673D01*
X166884Y71630D01*
X166983Y71574D01*
X167208Y71419D01*
X167434Y71236D01*
X167448Y71222D01*
X167490Y71193D01*
X167547Y71137D01*
X167617Y71052D01*
X167688Y70968D01*
X167772Y70855D01*
X167927Y70601D01*
X167941Y70587D01*
X167955Y70531D01*
X167984Y70460D01*
X168026Y70362D01*
X168068Y70235D01*
X168097Y70080D01*
X168111Y69925D01*
X168125Y69741D01*
Y69713D01*
Y69643D01*
X168111Y69530D01*
X168097Y69389D01*
X168068Y69234D01*
X168012Y69051D01*
X167955Y68867D01*
X167871Y68698D01*
X167857Y68684D01*
X167829Y68628D01*
X167772Y68543D01*
X167702Y68444D01*
X167603Y68332D01*
X167490Y68205D01*
X167349Y68078D01*
X167194Y67965D01*
X167180Y67951D01*
X167124Y67923D01*
X167025Y67867D01*
X166912Y67796D01*
X166757Y67726D01*
X166588Y67655D01*
X166391Y67585D01*
X166165Y67528D01*
X166137D01*
X166066Y67500D01*
X165940Y67486D01*
X165770Y67458D01*
X165573Y67429D01*
X165348Y67415D01*
X165094Y67387D01*
X164629D01*
X164516Y67401D01*
X164417D01*
X164163Y67415D01*
X164107D01*
X164051Y67429D01*
X163966D01*
X163769Y67458D01*
X163543Y67486D01*
X163487D01*
X163430Y67500D01*
X163360D01*
X163177Y67528D01*
X162979Y67556D01*
X162965D01*
X162937Y67571D01*
X162881Y67585D01*
X162824Y67599D01*
X162669Y67641D01*
X162500Y67683D01*
Y68769D01*
X162528Y68755D01*
X162585Y68741D01*
X162683Y68712D01*
X162810Y68670D01*
X162965Y68614D01*
X163148Y68571D01*
X163346Y68529D01*
X163557Y68487D01*
X163585D01*
X163656Y68473D01*
X163783Y68459D01*
X163952Y68444D01*
X164149Y68416D01*
X164375Y68402D01*
X164629Y68388D01*
X165108D01*
X165235Y68402D01*
X165376D01*
X165531Y68430D01*
X165686Y68444D01*
X165841Y68473D01*
X165855D01*
X165912Y68487D01*
X165968Y68515D01*
X166066Y68529D01*
X166264Y68614D01*
X166461Y68712D01*
X166475Y68726D01*
X166504Y68741D01*
X166546Y68783D01*
X166602Y68825D01*
X166729Y68952D01*
X166828Y69121D01*
Y69135D01*
X166842Y69163D01*
X166870Y69220D01*
X166884Y69290D01*
X166912Y69375D01*
X166926Y69474D01*
X166941Y69685D01*
Y69699D01*
Y69741D01*
X166926Y69798D01*
X166912Y69882D01*
X166856Y70066D01*
X166814Y70150D01*
X166743Y70249D01*
X166729Y70263D01*
X166715Y70291D01*
X166673Y70333D01*
X166616Y70390D01*
X166546Y70460D01*
X166461Y70531D01*
X166250Y70672D01*
X166236Y70686D01*
X166193Y70700D01*
X166137Y70742D01*
X166052Y70785D01*
X165954Y70841D01*
X165841Y70897D01*
X165559Y71024D01*
X165545Y71038D01*
X165489Y71052D01*
X165418Y71081D01*
X165305Y71123D01*
X165193Y71165D01*
X165052Y71222D01*
X164755Y71334D01*
X164741Y71349D01*
X164685Y71363D01*
X164615Y71405D01*
X164516Y71447D01*
X164389Y71504D01*
X164262Y71560D01*
X163966Y71701D01*
X163952Y71715D01*
X163896Y71743D01*
X163825Y71771D01*
X163726Y71828D01*
X163628Y71898D01*
X163501Y71969D01*
X163261Y72152D01*
X163247Y72166D01*
X163219Y72194D01*
X163163Y72251D01*
X163092Y72335D01*
X163022Y72420D01*
X162937Y72533D01*
X162782Y72772D01*
X162768Y72786D01*
X162754Y72843D01*
X162726Y72913D01*
X162697Y73012D01*
X162655Y73139D01*
X162627Y73280D01*
X162613Y73449D01*
X162599Y73618D01*
Y73632D01*
Y73689D01*
X162613Y73773D01*
X162627Y73886D01*
X162641Y74013D01*
X162669Y74154D01*
X162712Y74309D01*
X162768Y74464D01*
X162782Y74478D01*
X162796Y74534D01*
X162852Y74605D01*
X162909Y74704D01*
X162979Y74816D01*
X163078Y74943D01*
X163191Y75070D01*
X163318Y75197D01*
X163332Y75211D01*
X163388Y75253D01*
X163473Y75310D01*
X163585Y75380D01*
X163712Y75465D01*
X163881Y75549D01*
X164065Y75634D01*
X164276Y75718D01*
X164304Y75733D01*
X164389Y75747D01*
X164502Y75775D01*
X164671Y75817D01*
X164882Y75859D01*
X165122Y75888D01*
X165390Y75902D01*
X165686Y75916D01*
X165827D01*
X165968Y75902D01*
D02*
G37*
G36*
X125399Y74830D02*
X123482D01*
Y68459D01*
X125399D01*
Y67500D01*
X120422D01*
Y68459D01*
X122340D01*
Y74830D01*
X120422D01*
Y75789D01*
X125399D01*
Y74830D01*
D02*
G37*
G36*
X119027Y67500D02*
X117927D01*
X117758Y72674D01*
X117688Y74647D01*
X117293Y73505D01*
X116067Y70207D01*
X115291D01*
X114121Y73378D01*
X113741Y74647D01*
X113712Y72589D01*
X113571Y67500D01*
X112500D01*
X112909Y75789D01*
X114248D01*
X115362Y72660D01*
X115728Y71602D01*
X116067Y72660D01*
X117251Y75789D01*
X118632D01*
X119027Y67500D01*
D02*
G37*
G36*
X62028Y112895D02*
X62084Y112784D01*
X62139Y112618D01*
X62222Y112396D01*
X62278Y112118D01*
X62361Y111813D01*
X62500Y111174D01*
Y111146D01*
X62528Y111008D01*
X62555Y110841D01*
X62583Y110619D01*
X62611Y110341D01*
X62639Y110008D01*
X62667Y109314D01*
Y109286D01*
Y109175D01*
Y109037D01*
X62639Y108814D01*
X62611Y108565D01*
X62583Y108287D01*
X62528Y107982D01*
X62472Y107621D01*
X62278Y106899D01*
X62139Y106510D01*
X61972Y106121D01*
X61806Y105760D01*
X61584Y105400D01*
X61334Y105039D01*
X61056Y104733D01*
X61029Y104706D01*
X60973Y104678D01*
X60890Y104594D01*
X60751Y104483D01*
X60584Y104372D01*
X60390Y104234D01*
X60140Y104095D01*
X59863Y103956D01*
X59557Y103789D01*
X59196Y103651D01*
X58808Y103512D01*
X58391Y103401D01*
X57947Y103290D01*
X57447Y103206D01*
X56920Y103179D01*
X56365Y103151D01*
X56115D01*
X55837Y103179D01*
X55476Y103206D01*
X55060Y103262D01*
X54588Y103345D01*
X54116Y103456D01*
X53672Y103595D01*
X53644D01*
X53616Y103623D01*
X53477Y103678D01*
X53227Y103789D01*
X52950Y103928D01*
X52617Y104123D01*
X52284Y104345D01*
X51923Y104594D01*
X51589Y104900D01*
X51562Y104928D01*
X51451Y105039D01*
X51284Y105233D01*
X51090Y105455D01*
X50895Y105760D01*
X50673Y106094D01*
X50451Y106482D01*
X50257Y106899D01*
X50229Y106954D01*
X50174Y107093D01*
X50118Y107343D01*
X50007Y107648D01*
X49924Y108037D01*
X49868Y108481D01*
X49813Y108953D01*
X49785Y109453D01*
Y109508D01*
Y109620D01*
Y109814D01*
X49813Y110036D01*
Y110341D01*
X49840Y110647D01*
X49924Y111285D01*
Y111313D01*
X49952Y111424D01*
X49979Y111591D01*
X50035Y111813D01*
X50090Y112063D01*
X50174Y112340D01*
X50368Y112923D01*
X52450D01*
X52422Y112895D01*
X52395Y112784D01*
X52311Y112618D01*
X52228Y112396D01*
X52117Y112146D01*
X52006Y111868D01*
X51839Y111257D01*
Y111230D01*
X51812Y111119D01*
X51784Y110952D01*
X51728Y110730D01*
X51701Y110452D01*
X51673Y110175D01*
X51645Y109508D01*
Y109481D01*
Y109370D01*
X51673Y109203D01*
Y109009D01*
X51728Y108759D01*
X51784Y108481D01*
X51867Y108204D01*
X51978Y107926D01*
Y107898D01*
X52034Y107815D01*
X52117Y107648D01*
X52200Y107482D01*
X52339Y107287D01*
X52506Y107065D01*
X52672Y106843D01*
X52894Y106621D01*
X52922Y106593D01*
X53005Y106538D01*
X53116Y106427D01*
X53283Y106316D01*
X53505Y106149D01*
X53755Y106010D01*
X54033Y105872D01*
X54338Y105733D01*
X54366D01*
X54477Y105677D01*
X54671Y105649D01*
X54893Y105594D01*
X55198Y105538D01*
X55532Y105483D01*
X55893Y105455D01*
X56309Y105427D01*
X56531D01*
X56670Y105455D01*
X56864D01*
X57086Y105483D01*
X57586Y105566D01*
X58114Y105705D01*
X58697Y105872D01*
X59224Y106149D01*
X59696Y106510D01*
X59752Y106566D01*
X59863Y106704D01*
X60057Y106954D01*
X60251Y107315D01*
X60446Y107759D01*
X60640Y108287D01*
X60751Y108898D01*
X60806Y109592D01*
Y109620D01*
Y109758D01*
Y109925D01*
X60779Y110147D01*
X60751Y110397D01*
X60723Y110702D01*
X60612Y111313D01*
Y111341D01*
X60584Y111452D01*
X60529Y111618D01*
X60473Y111840D01*
X60390Y112063D01*
X60279Y112340D01*
X60001Y112923D01*
X62028D01*
Y112895D01*
D02*
G37*
G36*
X169027Y42500D02*
X167927D01*
X167758Y47674D01*
X167688Y49647D01*
X167293Y48505D01*
X166066Y45207D01*
X165291D01*
X164121Y48378D01*
X163741Y49647D01*
X163712Y47589D01*
X163571Y42500D01*
X162500D01*
X162909Y50789D01*
X164248D01*
X165362Y47660D01*
X165728Y46602D01*
X166066Y47660D01*
X167251Y50789D01*
X168632D01*
X169027Y42500D01*
D02*
G37*
G36*
X62500Y125555D02*
X55781Y119697D01*
X62500D01*
Y117532D01*
X44843D01*
Y119697D01*
X55698D01*
X49952Y125333D01*
Y128220D01*
X55754Y122335D01*
X62500Y128553D01*
Y125555D01*
D02*
G37*
G36*
X180657Y50902D02*
X180826Y50888D01*
X180911D01*
X180981Y50874D01*
X181136Y50859D01*
X181320Y50831D01*
X181362D01*
X181418Y50817D01*
X181475D01*
X181630Y50789D01*
X181813Y50761D01*
X181855D01*
X181912Y50747D01*
X181968Y50733D01*
X182123Y50704D01*
X182278Y50676D01*
Y49661D01*
X182250D01*
X182194Y49689D01*
X182095Y49704D01*
X181968Y49732D01*
X181827Y49760D01*
X181658Y49802D01*
X181291Y49859D01*
X181277D01*
X181207Y49873D01*
X181122Y49887D01*
X180995Y49901D01*
X180854Y49915D01*
X180685Y49929D01*
X180347Y49943D01*
X180192D01*
X180023Y49929D01*
X179811Y49901D01*
X179571Y49859D01*
X179332Y49802D01*
X179120Y49718D01*
X178923Y49605D01*
X178909Y49591D01*
X178853Y49549D01*
X178782Y49478D01*
X178697Y49379D01*
X178613Y49253D01*
X178542Y49097D01*
X178486Y48928D01*
X178472Y48731D01*
Y48717D01*
Y48675D01*
X178486Y48618D01*
X178500Y48534D01*
X178556Y48350D01*
X178599Y48252D01*
X178655Y48153D01*
X178669Y48139D01*
X178683Y48111D01*
X178726Y48068D01*
X178782Y48012D01*
X178937Y47871D01*
X179135Y47716D01*
X179149Y47702D01*
X179191Y47688D01*
X179247Y47645D01*
X179346Y47603D01*
X179445Y47547D01*
X179557Y47490D01*
X179839Y47378D01*
X179853D01*
X179910Y47349D01*
X179980Y47321D01*
X180093Y47279D01*
X180206Y47237D01*
X180333Y47180D01*
X180629Y47053D01*
X180643D01*
X180699Y47025D01*
X180784Y46997D01*
X180882Y46955D01*
X181009Y46898D01*
X181136Y46842D01*
X181432Y46701D01*
X181446Y46687D01*
X181503Y46673D01*
X181573Y46630D01*
X181672Y46574D01*
X181898Y46419D01*
X182123Y46236D01*
X182137Y46222D01*
X182179Y46193D01*
X182236Y46137D01*
X182306Y46052D01*
X182377Y45968D01*
X182461Y45855D01*
X182616Y45601D01*
X182631Y45587D01*
X182645Y45531D01*
X182673Y45460D01*
X182715Y45362D01*
X182757Y45235D01*
X182786Y45080D01*
X182800Y44925D01*
X182814Y44741D01*
Y44713D01*
Y44643D01*
X182800Y44530D01*
X182786Y44389D01*
X182757Y44234D01*
X182701Y44051D01*
X182645Y43867D01*
X182560Y43698D01*
X182546Y43684D01*
X182518Y43628D01*
X182461Y43543D01*
X182391Y43444D01*
X182292Y43332D01*
X182179Y43205D01*
X182038Y43078D01*
X181883Y42965D01*
X181869Y42951D01*
X181813Y42923D01*
X181714Y42867D01*
X181601Y42796D01*
X181446Y42726D01*
X181277Y42655D01*
X181080Y42585D01*
X180854Y42528D01*
X180826D01*
X180756Y42500D01*
X180629Y42486D01*
X180460Y42458D01*
X180262Y42429D01*
X180037Y42415D01*
X179783Y42387D01*
X179318D01*
X179205Y42401D01*
X179106D01*
X178853Y42415D01*
X178796D01*
X178740Y42429D01*
X178655D01*
X178458Y42458D01*
X178232Y42486D01*
X178176D01*
X178120Y42500D01*
X178049D01*
X177866Y42528D01*
X177668Y42556D01*
X177654D01*
X177626Y42571D01*
X177570Y42585D01*
X177513Y42599D01*
X177358Y42641D01*
X177189Y42683D01*
Y43769D01*
X177217Y43755D01*
X177274Y43741D01*
X177372Y43712D01*
X177499Y43670D01*
X177654Y43614D01*
X177838Y43571D01*
X178035Y43529D01*
X178246Y43487D01*
X178274D01*
X178345Y43473D01*
X178472Y43459D01*
X178641Y43444D01*
X178838Y43416D01*
X179064Y43402D01*
X179318Y43388D01*
X179797D01*
X179924Y43402D01*
X180065D01*
X180220Y43430D01*
X180375Y43444D01*
X180530Y43473D01*
X180544D01*
X180601Y43487D01*
X180657Y43515D01*
X180756Y43529D01*
X180953Y43614D01*
X181150Y43712D01*
X181164Y43726D01*
X181193Y43741D01*
X181235Y43783D01*
X181291Y43825D01*
X181418Y43952D01*
X181517Y44121D01*
Y44135D01*
X181531Y44163D01*
X181559Y44220D01*
X181573Y44290D01*
X181601Y44375D01*
X181616Y44474D01*
X181630Y44685D01*
Y44699D01*
Y44741D01*
X181616Y44798D01*
X181601Y44882D01*
X181545Y45066D01*
X181503Y45150D01*
X181432Y45249D01*
X181418Y45263D01*
X181404Y45291D01*
X181362Y45333D01*
X181305Y45390D01*
X181235Y45460D01*
X181150Y45531D01*
X180939Y45672D01*
X180925Y45686D01*
X180882Y45700D01*
X180826Y45742D01*
X180742Y45785D01*
X180643Y45841D01*
X180530Y45897D01*
X180248Y46024D01*
X180234Y46038D01*
X180178Y46052D01*
X180107Y46081D01*
X179994Y46123D01*
X179882Y46165D01*
X179741Y46222D01*
X179445Y46334D01*
X179431Y46349D01*
X179374Y46363D01*
X179304Y46405D01*
X179205Y46447D01*
X179078Y46504D01*
X178951Y46560D01*
X178655Y46701D01*
X178641Y46715D01*
X178585Y46743D01*
X178514Y46771D01*
X178416Y46828D01*
X178317Y46898D01*
X178190Y46969D01*
X177950Y47152D01*
X177936Y47166D01*
X177908Y47194D01*
X177852Y47251D01*
X177781Y47335D01*
X177711Y47420D01*
X177626Y47533D01*
X177471Y47772D01*
X177457Y47786D01*
X177443Y47843D01*
X177415Y47913D01*
X177386Y48012D01*
X177344Y48139D01*
X177316Y48280D01*
X177302Y48449D01*
X177288Y48618D01*
Y48632D01*
Y48689D01*
X177302Y48773D01*
X177316Y48886D01*
X177330Y49013D01*
X177358Y49154D01*
X177400Y49309D01*
X177457Y49464D01*
X177471Y49478D01*
X177485Y49534D01*
X177542Y49605D01*
X177598Y49704D01*
X177668Y49816D01*
X177767Y49943D01*
X177880Y50070D01*
X178007Y50197D01*
X178021Y50211D01*
X178077Y50253D01*
X178162Y50310D01*
X178274Y50380D01*
X178401Y50465D01*
X178571Y50549D01*
X178754Y50634D01*
X178965Y50718D01*
X178993Y50733D01*
X179078Y50747D01*
X179191Y50775D01*
X179360Y50817D01*
X179571Y50859D01*
X179811Y50888D01*
X180079Y50902D01*
X180375Y50916D01*
X180516D01*
X180657Y50902D01*
D02*
G37*
G36*
X173580Y75888D02*
X173749Y75874D01*
X173919Y75859D01*
X174299Y75803D01*
X174327D01*
X174384Y75789D01*
X174482Y75761D01*
X174609Y75733D01*
X174750Y75690D01*
X174905Y75634D01*
X175258Y75507D01*
Y74393D01*
X175244Y74408D01*
X175173Y74436D01*
X175089Y74478D01*
X174962Y74534D01*
X174821Y74591D01*
X174666Y74647D01*
X174313Y74760D01*
X174285D01*
X174229Y74788D01*
X174130Y74802D01*
X174003Y74830D01*
X173848Y74859D01*
X173665Y74873D01*
X173468Y74901D01*
X173157D01*
X173045Y74887D01*
X172904Y74873D01*
X172749Y74844D01*
X172565Y74802D01*
X172382Y74746D01*
X172199Y74675D01*
X172185Y74661D01*
X172128Y74633D01*
X172030Y74577D01*
X171931Y74506D01*
X171804Y74422D01*
X171663Y74309D01*
X171522Y74182D01*
X171395Y74027D01*
X171381Y74013D01*
X171339Y73956D01*
X171282Y73872D01*
X171212Y73745D01*
X171127Y73604D01*
X171043Y73421D01*
X170958Y73223D01*
X170888Y73012D01*
Y72984D01*
X170860Y72913D01*
X170831Y72786D01*
X170803Y72617D01*
X170775Y72420D01*
X170747Y72194D01*
X170733Y71940D01*
X170719Y71659D01*
Y71645D01*
Y71588D01*
Y71504D01*
X170733Y71391D01*
Y71264D01*
X170747Y71109D01*
X170775Y70940D01*
X170803Y70756D01*
X170874Y70362D01*
X170986Y69953D01*
X171156Y69572D01*
X171254Y69403D01*
X171367Y69234D01*
X171381Y69220D01*
X171395Y69206D01*
X171437Y69163D01*
X171494Y69107D01*
X171550Y69051D01*
X171635Y68980D01*
X171733Y68896D01*
X171846Y68825D01*
X171973Y68755D01*
X172114Y68670D01*
X172283Y68600D01*
X172453Y68543D01*
X172636Y68487D01*
X172833Y68459D01*
X173059Y68430D01*
X173284Y68416D01*
X173482D01*
X173608Y68430D01*
X173764Y68444D01*
X173933Y68459D01*
X174299Y68529D01*
X174327D01*
X174384Y68557D01*
X174482Y68586D01*
X174609Y68628D01*
X174750Y68670D01*
X174905Y68726D01*
X175258Y68882D01*
Y67810D01*
X175244D01*
X175215Y67796D01*
X175159Y67768D01*
X175089Y67754D01*
X174990Y67711D01*
X174877Y67683D01*
X174764Y67641D01*
X174623Y67613D01*
X174299Y67528D01*
X173947Y67472D01*
X173566Y67415D01*
X173157Y67401D01*
X173087D01*
X172988Y67415D01*
X172861D01*
X172720Y67429D01*
X172551Y67458D01*
X172368Y67486D01*
X172157Y67528D01*
X171945Y67585D01*
X171719Y67655D01*
X171494Y67740D01*
X171268Y67838D01*
X171057Y67965D01*
X170845Y68106D01*
X170634Y68261D01*
X170451Y68444D01*
X170437Y68459D01*
X170408Y68501D01*
X170366Y68557D01*
X170310Y68642D01*
X170239Y68755D01*
X170155Y68882D01*
X170070Y69051D01*
X169986Y69234D01*
X169901Y69431D01*
X169816Y69671D01*
X169732Y69925D01*
X169661Y70192D01*
X169605Y70503D01*
X169563Y70827D01*
X169534Y71179D01*
X169520Y71546D01*
Y71560D01*
Y71588D01*
Y71645D01*
Y71715D01*
X169534Y71800D01*
Y71912D01*
X169548Y72152D01*
X169577Y72420D01*
X169633Y72730D01*
X169690Y73040D01*
X169774Y73350D01*
Y73364D01*
X169788Y73393D01*
X169802Y73435D01*
X169816Y73491D01*
X169887Y73632D01*
X169957Y73829D01*
X170070Y74041D01*
X170197Y74267D01*
X170338Y74506D01*
X170507Y74718D01*
X170535Y74746D01*
X170592Y74816D01*
X170704Y74915D01*
X170845Y75042D01*
X171015Y75183D01*
X171212Y75324D01*
X171437Y75465D01*
X171677Y75592D01*
X171691D01*
X171705Y75606D01*
X171748Y75620D01*
X171804Y75634D01*
X171945Y75690D01*
X172128Y75747D01*
X172354Y75803D01*
X172622Y75859D01*
X172918Y75888D01*
X173228Y75902D01*
X173439D01*
X173580Y75888D01*
D02*
G37*
G36*
X179304Y71842D02*
X182729Y67500D01*
X181320D01*
X178204Y71560D01*
Y67500D01*
X177076D01*
Y75789D01*
X178204D01*
Y71926D01*
X181249Y75789D01*
X182574D01*
X179304Y71842D01*
D02*
G37*
G36*
X329515Y320775D02*
X329670Y320761D01*
X329853Y320733D01*
X330065Y320704D01*
X330290Y320662D01*
X330516Y320606D01*
X330756Y320549D01*
X330995Y320465D01*
X331235Y320366D01*
X331475Y320253D01*
X331700Y320112D01*
X331912Y319971D01*
X332095Y319788D01*
X332109Y319774D01*
X332137Y319746D01*
X332179Y319690D01*
X332250Y319605D01*
X332320Y319492D01*
X332405Y319365D01*
X332490Y319210D01*
X332574Y319027D01*
X332659Y318830D01*
X332757Y318604D01*
X332828Y318350D01*
X332898Y318082D01*
X332969Y317772D01*
X333011Y317448D01*
X333039Y317110D01*
X333053Y316729D01*
Y316701D01*
Y316630D01*
Y316518D01*
X333039Y316363D01*
X333025Y316193D01*
X333011Y315996D01*
X332955Y315587D01*
Y315559D01*
X332941Y315489D01*
X332912Y315390D01*
X332884Y315249D01*
X332842Y315094D01*
X332786Y314925D01*
X332659Y314572D01*
X332645Y314558D01*
X332616Y314488D01*
X332574Y314403D01*
X332518Y314290D01*
X332447Y314163D01*
X332363Y314008D01*
X332137Y313712D01*
X332123Y313698D01*
X332081Y313656D01*
X332010Y313571D01*
X331912Y313487D01*
X331799Y313388D01*
X331658Y313275D01*
X331503Y313163D01*
X331334Y313064D01*
X331320Y313050D01*
X331249Y313022D01*
X331150Y312965D01*
X331023Y312909D01*
X330868Y312838D01*
X330685Y312768D01*
X330474Y312697D01*
X330248Y312641D01*
X330220D01*
X330135Y312613D01*
X330009Y312599D01*
X329839Y312570D01*
X329628Y312542D01*
X329388Y312528D01*
X329120Y312500D01*
X327062D01*
Y320789D01*
X329374D01*
X329515Y320775D01*
D02*
G37*
G36*
X131404Y50888D02*
X131573Y50874D01*
X131742Y50859D01*
X132123Y50803D01*
X132151D01*
X132208Y50789D01*
X132306Y50761D01*
X132433Y50733D01*
X132574Y50690D01*
X132729Y50634D01*
X133082Y50507D01*
Y49393D01*
X133068Y49408D01*
X132997Y49436D01*
X132913Y49478D01*
X132786Y49534D01*
X132645Y49591D01*
X132490Y49647D01*
X132137Y49760D01*
X132109D01*
X132052Y49788D01*
X131954Y49802D01*
X131827Y49830D01*
X131672Y49859D01*
X131489Y49873D01*
X131291Y49901D01*
X130981D01*
X130868Y49887D01*
X130727Y49873D01*
X130572Y49844D01*
X130389Y49802D01*
X130206Y49746D01*
X130023Y49675D01*
X130008Y49661D01*
X129952Y49633D01*
X129853Y49577D01*
X129755Y49506D01*
X129628Y49422D01*
X129487Y49309D01*
X129346Y49182D01*
X129219Y49027D01*
X129205Y49013D01*
X129163Y48956D01*
X129106Y48872D01*
X129036Y48745D01*
X128951Y48604D01*
X128867Y48421D01*
X128782Y48223D01*
X128712Y48012D01*
Y47984D01*
X128683Y47913D01*
X128655Y47786D01*
X128627Y47617D01*
X128599Y47420D01*
X128571Y47194D01*
X128556Y46940D01*
X128542Y46659D01*
Y46645D01*
Y46588D01*
Y46504D01*
X128556Y46391D01*
Y46264D01*
X128571Y46109D01*
X128599Y45940D01*
X128627Y45756D01*
X128698Y45362D01*
X128810Y44953D01*
X128979Y44572D01*
X129078Y44403D01*
X129191Y44234D01*
X129205Y44220D01*
X129219Y44206D01*
X129261Y44163D01*
X129318Y44107D01*
X129374Y44051D01*
X129459Y43980D01*
X129557Y43896D01*
X129670Y43825D01*
X129797Y43755D01*
X129938Y43670D01*
X130107Y43600D01*
X130276Y43543D01*
X130460Y43487D01*
X130657Y43459D01*
X130883Y43430D01*
X131108Y43416D01*
X131305D01*
X131432Y43430D01*
X131587Y43444D01*
X131756Y43459D01*
X132123Y43529D01*
X132151D01*
X132208Y43557D01*
X132306Y43586D01*
X132433Y43628D01*
X132574Y43670D01*
X132729Y43726D01*
X133082Y43882D01*
Y42810D01*
X133068D01*
X133039Y42796D01*
X132983Y42768D01*
X132913Y42754D01*
X132814Y42711D01*
X132701Y42683D01*
X132588Y42641D01*
X132447Y42613D01*
X132123Y42528D01*
X131771Y42472D01*
X131390Y42415D01*
X130981Y42401D01*
X130911D01*
X130812Y42415D01*
X130685D01*
X130544Y42429D01*
X130375Y42458D01*
X130192Y42486D01*
X129980Y42528D01*
X129769Y42585D01*
X129543Y42655D01*
X129318Y42740D01*
X129092Y42838D01*
X128881Y42965D01*
X128669Y43106D01*
X128458Y43261D01*
X128274Y43444D01*
X128260Y43459D01*
X128232Y43501D01*
X128190Y43557D01*
X128134Y43642D01*
X128063Y43755D01*
X127978Y43882D01*
X127894Y44051D01*
X127809Y44234D01*
X127725Y44431D01*
X127640Y44671D01*
X127556Y44925D01*
X127485Y45192D01*
X127429Y45503D01*
X127386Y45827D01*
X127358Y46179D01*
X127344Y46546D01*
Y46560D01*
Y46588D01*
Y46645D01*
Y46715D01*
X127358Y46800D01*
Y46912D01*
X127372Y47152D01*
X127401Y47420D01*
X127457Y47730D01*
X127513Y48040D01*
X127598Y48350D01*
Y48364D01*
X127612Y48393D01*
X127626Y48435D01*
X127640Y48491D01*
X127711Y48632D01*
X127781Y48829D01*
X127894Y49041D01*
X128021Y49267D01*
X128162Y49506D01*
X128331Y49718D01*
X128359Y49746D01*
X128415Y49816D01*
X128528Y49915D01*
X128669Y50042D01*
X128838Y50183D01*
X129036Y50324D01*
X129261Y50465D01*
X129501Y50592D01*
X129515D01*
X129529Y50606D01*
X129572Y50620D01*
X129628Y50634D01*
X129769Y50690D01*
X129952Y50747D01*
X130178Y50803D01*
X130445Y50859D01*
X130742Y50888D01*
X131052Y50902D01*
X131263D01*
X131404Y50888D01*
D02*
G37*
G36*
X316771Y320902D02*
X316926Y320888D01*
X317110Y320874D01*
X317490Y320817D01*
X317519D01*
X317575Y320803D01*
X317674Y320775D01*
X317801Y320747D01*
X317955Y320704D01*
X318111Y320648D01*
X318463Y320507D01*
Y319379D01*
X318449Y319393D01*
X318379Y319422D01*
X318294Y319464D01*
X318167Y319520D01*
X318026Y319577D01*
X317857Y319647D01*
X317504Y319760D01*
X317476D01*
X317420Y319788D01*
X317321Y319802D01*
X317194Y319830D01*
X317025Y319859D01*
X316856Y319873D01*
X316659Y319901D01*
X316334D01*
X316208Y319887D01*
X316052Y319873D01*
X315869Y319844D01*
X315672Y319802D01*
X315460Y319746D01*
X315263Y319661D01*
X315235Y319647D01*
X315178Y319619D01*
X315080Y319563D01*
X314967Y319492D01*
X314826Y319393D01*
X314685Y319281D01*
X314544Y319140D01*
X314403Y318985D01*
X314389Y318971D01*
X314347Y318914D01*
X314276Y318815D01*
X314206Y318703D01*
X314121Y318548D01*
X314023Y318379D01*
X313938Y318181D01*
X313867Y317955D01*
X313853Y317927D01*
X313839Y317857D01*
X313811Y317730D01*
X313783Y317575D01*
X313741Y317378D01*
X313712Y317152D01*
X313698Y316898D01*
X313684Y316630D01*
Y316616D01*
Y316602D01*
Y316560D01*
Y316504D01*
X313698Y316363D01*
Y316179D01*
X313712Y315968D01*
X313741Y315728D01*
X313783Y315503D01*
X313825Y315263D01*
X313839Y315235D01*
X313853Y315164D01*
X313896Y315052D01*
X313938Y314911D01*
X314008Y314741D01*
X314093Y314572D01*
X314192Y314403D01*
X314304Y314234D01*
X314319Y314220D01*
X314361Y314163D01*
X314431Y314093D01*
X314530Y314008D01*
X314657Y313896D01*
X314798Y313797D01*
X314953Y313698D01*
X315136Y313600D01*
X315164Y313585D01*
X315221Y313571D01*
X315333Y313529D01*
X315474Y313501D01*
X315658Y313459D01*
X315869Y313416D01*
X316095Y313402D01*
X316348Y313388D01*
X316630D01*
X316687Y313402D01*
X316786D01*
X316884Y313416D01*
X316912D01*
X316969Y313430D01*
X317053Y313459D01*
X317152Y313473D01*
X317180Y313487D01*
X317237Y313501D01*
X317307Y313529D01*
X317392Y313557D01*
Y316193D01*
X315686D01*
Y317124D01*
X318505D01*
Y312881D01*
X318491D01*
X318463Y312866D01*
X318407Y312838D01*
X318336Y312810D01*
X318153Y312726D01*
X317941Y312655D01*
X317927D01*
X317899Y312641D01*
X317843Y312627D01*
X317758Y312613D01*
X317674Y312585D01*
X317575Y312556D01*
X317349Y312514D01*
X317335D01*
X317293Y312500D01*
X317237D01*
X317166Y312486D01*
X316969Y312458D01*
X316757Y312430D01*
X316701D01*
X316644Y312415D01*
X316574D01*
X316391Y312401D01*
X316179Y312387D01*
X316038D01*
X315869Y312401D01*
X315672Y312415D01*
X315432Y312444D01*
X315178Y312500D01*
X314911Y312556D01*
X314643Y312641D01*
X314629D01*
X314615Y312655D01*
X314530Y312697D01*
X314403Y312754D01*
X314248Y312838D01*
X314065Y312951D01*
X313867Y313092D01*
X313670Y313247D01*
X313487Y313430D01*
X313473Y313459D01*
X313402Y313529D01*
X313318Y313642D01*
X313219Y313797D01*
X313092Y313980D01*
X312979Y314206D01*
X312852Y314459D01*
X312754Y314741D01*
Y314755D01*
X312740Y314784D01*
X312726Y314826D01*
X312712Y314882D01*
X312697Y314953D01*
X312669Y315037D01*
X312627Y315263D01*
X312585Y315517D01*
X312542Y315827D01*
X312514Y316179D01*
X312500Y316546D01*
Y316560D01*
Y316588D01*
Y316644D01*
Y316715D01*
X312514Y316814D01*
Y316912D01*
X312542Y317166D01*
X312570Y317448D01*
X312613Y317758D01*
X312683Y318068D01*
X312782Y318379D01*
Y318393D01*
X312796Y318421D01*
X312810Y318463D01*
X312838Y318519D01*
X312895Y318660D01*
X312993Y318858D01*
X313092Y319069D01*
X313233Y319309D01*
X313388Y319534D01*
X313571Y319760D01*
X313600Y319788D01*
X313670Y319859D01*
X313769Y319957D01*
X313924Y320084D01*
X314107Y320225D01*
X314319Y320366D01*
X314558Y320493D01*
X314812Y320620D01*
X314826D01*
X314840Y320634D01*
X314882Y320648D01*
X314939Y320662D01*
X315094Y320719D01*
X315291Y320775D01*
X315531Y320817D01*
X315799Y320874D01*
X316109Y320902D01*
X316433Y320916D01*
X316630D01*
X316771Y320902D01*
D02*
G37*
G36*
X325624Y312500D02*
X324088D01*
X321776Y317674D01*
X321113Y319337D01*
Y315150D01*
Y312500D01*
X319986D01*
Y320789D01*
X321494D01*
X323693Y315883D01*
X324497Y313994D01*
Y318435D01*
Y320789D01*
X325624D01*
Y312500D01*
D02*
G37*
G36*
X124257Y50888D02*
X124426Y50874D01*
X124595Y50859D01*
X124976Y50803D01*
X125004D01*
X125060Y50789D01*
X125159Y50761D01*
X125286Y50733D01*
X125427Y50690D01*
X125582Y50634D01*
X125934Y50507D01*
Y49393D01*
X125920Y49408D01*
X125850Y49436D01*
X125765Y49478D01*
X125638Y49534D01*
X125497Y49591D01*
X125342Y49647D01*
X124990Y49760D01*
X124962D01*
X124905Y49788D01*
X124807Y49802D01*
X124680Y49830D01*
X124525Y49859D01*
X124341Y49873D01*
X124144Y49901D01*
X123834D01*
X123721Y49887D01*
X123580Y49873D01*
X123425Y49844D01*
X123242Y49802D01*
X123059Y49746D01*
X122875Y49675D01*
X122861Y49661D01*
X122805Y49633D01*
X122706Y49577D01*
X122608Y49506D01*
X122481Y49422D01*
X122340Y49309D01*
X122199Y49182D01*
X122072Y49027D01*
X122058Y49013D01*
X122015Y48956D01*
X121959Y48872D01*
X121889Y48745D01*
X121804Y48604D01*
X121719Y48421D01*
X121635Y48223D01*
X121564Y48012D01*
Y47984D01*
X121536Y47913D01*
X121508Y47786D01*
X121480Y47617D01*
X121452Y47420D01*
X121423Y47194D01*
X121409Y46940D01*
X121395Y46659D01*
Y46645D01*
Y46588D01*
Y46504D01*
X121409Y46391D01*
Y46264D01*
X121423Y46109D01*
X121452Y45940D01*
X121480Y45756D01*
X121550Y45362D01*
X121663Y44953D01*
X121832Y44572D01*
X121931Y44403D01*
X122044Y44234D01*
X122058Y44220D01*
X122072Y44206D01*
X122114Y44163D01*
X122170Y44107D01*
X122227Y44051D01*
X122311Y43980D01*
X122410Y43896D01*
X122523Y43825D01*
X122650Y43755D01*
X122791Y43670D01*
X122960Y43600D01*
X123129Y43543D01*
X123312Y43487D01*
X123510Y43459D01*
X123735Y43430D01*
X123961Y43416D01*
X124158D01*
X124285Y43430D01*
X124440Y43444D01*
X124609Y43459D01*
X124976Y43529D01*
X125004D01*
X125060Y43557D01*
X125159Y43586D01*
X125286Y43628D01*
X125427Y43670D01*
X125582Y43726D01*
X125934Y43882D01*
Y42810D01*
X125920D01*
X125892Y42796D01*
X125836Y42768D01*
X125765Y42754D01*
X125667Y42711D01*
X125554Y42683D01*
X125441Y42641D01*
X125300Y42613D01*
X124976Y42528D01*
X124623Y42472D01*
X124243Y42415D01*
X123834Y42401D01*
X123764D01*
X123665Y42415D01*
X123538D01*
X123397Y42429D01*
X123228Y42458D01*
X123045Y42486D01*
X122833Y42528D01*
X122622Y42585D01*
X122396Y42655D01*
X122170Y42740D01*
X121945Y42838D01*
X121734Y42965D01*
X121522Y43106D01*
X121311Y43261D01*
X121127Y43444D01*
X121113Y43459D01*
X121085Y43501D01*
X121043Y43557D01*
X120986Y43642D01*
X120916Y43755D01*
X120831Y43882D01*
X120747Y44051D01*
X120662Y44234D01*
X120578Y44431D01*
X120493Y44671D01*
X120408Y44925D01*
X120338Y45192D01*
X120281Y45503D01*
X120239Y45827D01*
X120211Y46179D01*
X120197Y46546D01*
Y46560D01*
Y46588D01*
Y46645D01*
Y46715D01*
X120211Y46800D01*
Y46912D01*
X120225Y47152D01*
X120253Y47420D01*
X120310Y47730D01*
X120366Y48040D01*
X120451Y48350D01*
Y48364D01*
X120465Y48393D01*
X120479Y48435D01*
X120493Y48491D01*
X120563Y48632D01*
X120634Y48829D01*
X120747Y49041D01*
X120874Y49267D01*
X121015Y49506D01*
X121184Y49718D01*
X121212Y49746D01*
X121268Y49816D01*
X121381Y49915D01*
X121522Y50042D01*
X121691Y50183D01*
X121889Y50324D01*
X122114Y50465D01*
X122354Y50592D01*
X122368D01*
X122382Y50606D01*
X122424Y50620D01*
X122481Y50634D01*
X122622Y50690D01*
X122805Y50747D01*
X123031Y50803D01*
X123298Y50859D01*
X123594Y50888D01*
X123904Y50902D01*
X124116D01*
X124257Y50888D01*
D02*
G37*
G36*
X116771Y42500D02*
X115249D01*
X112500Y50789D01*
X113783D01*
X115559Y45192D01*
X116067Y43557D01*
X116588Y45192D01*
X118378Y50789D01*
X119591D01*
X116771Y42500D01*
D02*
G37*
G36*
X130657Y75902D02*
X130826Y75888D01*
X130911D01*
X130981Y75874D01*
X131136Y75859D01*
X131320Y75831D01*
X131362D01*
X131418Y75817D01*
X131475D01*
X131630Y75789D01*
X131813Y75761D01*
X131855D01*
X131912Y75747D01*
X131968Y75733D01*
X132123Y75704D01*
X132278Y75676D01*
Y74661D01*
X132250D01*
X132193Y74689D01*
X132095Y74704D01*
X131968Y74732D01*
X131827Y74760D01*
X131658Y74802D01*
X131291Y74859D01*
X131277D01*
X131207Y74873D01*
X131122Y74887D01*
X130995Y74901D01*
X130854Y74915D01*
X130685Y74929D01*
X130347Y74943D01*
X130192D01*
X130023Y74929D01*
X129811Y74901D01*
X129572Y74859D01*
X129332Y74802D01*
X129120Y74718D01*
X128923Y74605D01*
X128909Y74591D01*
X128853Y74549D01*
X128782Y74478D01*
X128698Y74379D01*
X128613Y74253D01*
X128542Y74097D01*
X128486Y73928D01*
X128472Y73731D01*
Y73717D01*
Y73675D01*
X128486Y73618D01*
X128500Y73534D01*
X128556Y73350D01*
X128599Y73252D01*
X128655Y73153D01*
X128669Y73139D01*
X128683Y73111D01*
X128726Y73068D01*
X128782Y73012D01*
X128937Y72871D01*
X129135Y72716D01*
X129149Y72702D01*
X129191Y72688D01*
X129247Y72645D01*
X129346Y72603D01*
X129445Y72547D01*
X129557Y72490D01*
X129839Y72378D01*
X129853D01*
X129910Y72349D01*
X129980Y72321D01*
X130093Y72279D01*
X130206Y72237D01*
X130333Y72180D01*
X130629Y72053D01*
X130643D01*
X130699Y72025D01*
X130784Y71997D01*
X130883Y71955D01*
X131009Y71898D01*
X131136Y71842D01*
X131432Y71701D01*
X131446Y71687D01*
X131503Y71673D01*
X131573Y71630D01*
X131672Y71574D01*
X131897Y71419D01*
X132123Y71236D01*
X132137Y71222D01*
X132179Y71193D01*
X132236Y71137D01*
X132306Y71052D01*
X132377Y70968D01*
X132461Y70855D01*
X132616Y70601D01*
X132631Y70587D01*
X132645Y70531D01*
X132673Y70460D01*
X132715Y70362D01*
X132757Y70235D01*
X132786Y70080D01*
X132800Y69925D01*
X132814Y69741D01*
Y69713D01*
Y69643D01*
X132800Y69530D01*
X132786Y69389D01*
X132757Y69234D01*
X132701Y69051D01*
X132645Y68867D01*
X132560Y68698D01*
X132546Y68684D01*
X132518Y68628D01*
X132461Y68543D01*
X132391Y68444D01*
X132292Y68332D01*
X132179Y68205D01*
X132038Y68078D01*
X131883Y67965D01*
X131869Y67951D01*
X131813Y67923D01*
X131714Y67867D01*
X131601Y67796D01*
X131446Y67726D01*
X131277Y67655D01*
X131080Y67585D01*
X130854Y67528D01*
X130826D01*
X130756Y67500D01*
X130629Y67486D01*
X130460Y67458D01*
X130262Y67429D01*
X130037Y67415D01*
X129783Y67387D01*
X129318D01*
X129205Y67401D01*
X129106D01*
X128853Y67415D01*
X128796D01*
X128740Y67429D01*
X128655D01*
X128458Y67458D01*
X128232Y67486D01*
X128176D01*
X128119Y67500D01*
X128049D01*
X127866Y67528D01*
X127668Y67556D01*
X127654D01*
X127626Y67571D01*
X127570Y67585D01*
X127513Y67599D01*
X127358Y67641D01*
X127189Y67683D01*
Y68769D01*
X127217Y68755D01*
X127274Y68741D01*
X127372Y68712D01*
X127499Y68670D01*
X127654Y68614D01*
X127837Y68571D01*
X128035Y68529D01*
X128246Y68487D01*
X128274D01*
X128345Y68473D01*
X128472Y68459D01*
X128641Y68444D01*
X128838Y68416D01*
X129064Y68402D01*
X129318Y68388D01*
X129797D01*
X129924Y68402D01*
X130065D01*
X130220Y68430D01*
X130375Y68444D01*
X130530Y68473D01*
X130544D01*
X130601Y68487D01*
X130657Y68515D01*
X130756Y68529D01*
X130953Y68614D01*
X131150Y68712D01*
X131164Y68726D01*
X131193Y68741D01*
X131235Y68783D01*
X131291Y68825D01*
X131418Y68952D01*
X131517Y69121D01*
Y69135D01*
X131531Y69163D01*
X131559Y69220D01*
X131573Y69290D01*
X131601Y69375D01*
X131615Y69474D01*
X131630Y69685D01*
Y69699D01*
Y69741D01*
X131615Y69798D01*
X131601Y69882D01*
X131545Y70066D01*
X131503Y70150D01*
X131432Y70249D01*
X131418Y70263D01*
X131404Y70291D01*
X131362Y70333D01*
X131305Y70390D01*
X131235Y70460D01*
X131150Y70531D01*
X130939Y70672D01*
X130925Y70686D01*
X130883Y70700D01*
X130826Y70742D01*
X130742Y70785D01*
X130643Y70841D01*
X130530Y70897D01*
X130248Y71024D01*
X130234Y71038D01*
X130178Y71052D01*
X130107Y71081D01*
X129994Y71123D01*
X129882Y71165D01*
X129741Y71222D01*
X129445Y71334D01*
X129431Y71349D01*
X129374Y71363D01*
X129304Y71405D01*
X129205Y71447D01*
X129078Y71504D01*
X128951Y71560D01*
X128655Y71701D01*
X128641Y71715D01*
X128585Y71743D01*
X128514Y71771D01*
X128415Y71828D01*
X128317Y71898D01*
X128190Y71969D01*
X127950Y72152D01*
X127936Y72166D01*
X127908Y72194D01*
X127852Y72251D01*
X127781Y72335D01*
X127711Y72420D01*
X127626Y72533D01*
X127471Y72772D01*
X127457Y72786D01*
X127443Y72843D01*
X127415Y72913D01*
X127386Y73012D01*
X127344Y73139D01*
X127316Y73280D01*
X127302Y73449D01*
X127288Y73618D01*
Y73632D01*
Y73689D01*
X127302Y73773D01*
X127316Y73886D01*
X127330Y74013D01*
X127358Y74154D01*
X127401Y74309D01*
X127457Y74464D01*
X127471Y74478D01*
X127485Y74534D01*
X127542Y74605D01*
X127598Y74704D01*
X127668Y74816D01*
X127767Y74943D01*
X127880Y75070D01*
X128007Y75197D01*
X128021Y75211D01*
X128077Y75253D01*
X128162Y75310D01*
X128274Y75380D01*
X128401Y75465D01*
X128571Y75549D01*
X128754Y75634D01*
X128965Y75718D01*
X128994Y75733D01*
X129078Y75747D01*
X129191Y75775D01*
X129360Y75817D01*
X129572Y75859D01*
X129811Y75888D01*
X130079Y75902D01*
X130375Y75916D01*
X130516D01*
X130657Y75902D01*
D02*
G37*
%LPC*%
G36*
X34030Y222971D02*
X31781D01*
Y220195D01*
Y220167D01*
Y220056D01*
Y219917D01*
X31809Y219723D01*
X31837Y219279D01*
X31948Y218807D01*
Y218779D01*
X31975Y218724D01*
X32003Y218612D01*
X32059Y218474D01*
X32225Y218141D01*
X32420Y217835D01*
Y217807D01*
X32475Y217780D01*
X32614Y217641D01*
X32864Y217446D01*
X33141Y217280D01*
X33169D01*
X33225Y217252D01*
X33308Y217224D01*
X33419Y217197D01*
X33724Y217141D01*
X34085Y217113D01*
X34141D01*
X34307Y217141D01*
X34529Y217169D01*
X34779Y217224D01*
X34807D01*
X34835Y217252D01*
X34974Y217308D01*
X35168Y217419D01*
X35390Y217585D01*
X35418Y217641D01*
X35529Y217752D01*
X35668Y217974D01*
X35779Y218224D01*
Y218252D01*
X35807Y218307D01*
X35834Y218390D01*
Y218501D01*
X35890Y218807D01*
X35918Y219195D01*
Y219223D01*
Y219334D01*
X35890Y219473D01*
X35862Y219695D01*
X35807Y219945D01*
X35723Y220250D01*
X35612Y220556D01*
X35473Y220917D01*
X35446Y220972D01*
X35390Y221083D01*
X35279Y221278D01*
X35113Y221528D01*
X34918Y221833D01*
X34668Y222194D01*
X34391Y222582D01*
X34030Y222971D01*
D02*
G37*
G36*
X55254Y195988D02*
X54754D01*
X54532Y195960D01*
X54282Y195932D01*
X53755Y195793D01*
X53727D01*
X53644Y195766D01*
X53505Y195710D01*
X53338Y195655D01*
X52950Y195460D01*
X52561Y195183D01*
X52533Y195155D01*
X52478Y195099D01*
X52395Y195016D01*
X52284Y194905D01*
X52145Y194738D01*
X52034Y194572D01*
X51784Y194128D01*
X51756Y194100D01*
X51728Y194017D01*
X51673Y193878D01*
X51617Y193711D01*
X51562Y193517D01*
X51534Y193267D01*
X51478Y192989D01*
Y192684D01*
Y192656D01*
Y192573D01*
Y192434D01*
X51506Y192267D01*
X51534Y192073D01*
X51589Y191851D01*
X51756Y191379D01*
Y191351D01*
X51812Y191296D01*
X51867Y191185D01*
X51950Y191046D01*
X52200Y190713D01*
X52533Y190380D01*
X52561Y190352D01*
X52617Y190324D01*
X52728Y190241D01*
X52867Y190130D01*
X53033Y190019D01*
X53255Y189908D01*
X53727Y189686D01*
X53755D01*
X53838Y189658D01*
X53977Y189602D01*
X54171Y189547D01*
X54393Y189491D01*
X54671Y189464D01*
X55254Y189380D01*
Y195988D01*
D02*
G37*
G36*
X31253Y153455D02*
X30837D01*
X30559Y153427D01*
X30254Y153399D01*
X29893Y153343D01*
X29560Y153260D01*
X29227Y153177D01*
X29199D01*
X29088Y153121D01*
X28921Y153066D01*
X28699Y152983D01*
X28255Y152760D01*
X28005Y152622D01*
X27783Y152455D01*
X27755Y152427D01*
X27700Y152372D01*
X27589Y152261D01*
X27450Y152122D01*
X27311Y151955D01*
X27173Y151761D01*
X26895Y151289D01*
X26867Y151261D01*
X26839Y151178D01*
X26784Y151039D01*
X26728Y150845D01*
X26673Y150623D01*
X26645Y150373D01*
X26590Y150095D01*
Y149790D01*
Y149734D01*
Y149623D01*
X26617Y149429D01*
X26645Y149207D01*
X26673Y148929D01*
X26756Y148652D01*
X26839Y148374D01*
X26978Y148097D01*
X27006Y148069D01*
X27061Y147985D01*
X27145Y147847D01*
X27256Y147708D01*
X27395Y147514D01*
X27561Y147319D01*
X28005Y146958D01*
X28033Y146931D01*
X28116Y146875D01*
X28255Y146819D01*
X28422Y146708D01*
X28644Y146597D01*
X28894Y146514D01*
X29171Y146403D01*
X29477Y146320D01*
X29504D01*
X29615Y146292D01*
X29782Y146264D01*
X30004Y146236D01*
X30282Y146181D01*
X30587Y146153D01*
X31253Y146125D01*
X31448D01*
X31670Y146153D01*
X31948D01*
X32253Y146181D01*
X32614Y146236D01*
X33308Y146375D01*
X33336D01*
X33447Y146431D01*
X33613Y146486D01*
X33808Y146570D01*
X34280Y146792D01*
X34752Y147097D01*
X34779Y147125D01*
X34835Y147180D01*
X34946Y147291D01*
X35057Y147430D01*
X35196Y147597D01*
X35334Y147791D01*
X35612Y148235D01*
Y148263D01*
X35668Y148346D01*
X35696Y148513D01*
X35751Y148680D01*
X35807Y148929D01*
X35834Y149179D01*
X35890Y149485D01*
Y149790D01*
Y149846D01*
Y149957D01*
X35862Y150123D01*
X35834Y150373D01*
X35807Y150623D01*
X35723Y150900D01*
X35640Y151178D01*
X35529Y151456D01*
X35501Y151483D01*
X35446Y151567D01*
X35362Y151706D01*
X35251Y151872D01*
X35113Y152039D01*
X34918Y152233D01*
X34502Y152594D01*
X34474Y152622D01*
X34391Y152677D01*
X34252Y152733D01*
X34085Y152844D01*
X33863Y152955D01*
X33613Y153038D01*
X33336Y153149D01*
X33030Y153232D01*
X33003D01*
X32891Y153260D01*
X32697Y153316D01*
X32475Y153343D01*
X32225Y153399D01*
X31920Y153427D01*
X31253Y153455D01*
D02*
G37*
G36*
X34030Y265197D02*
X31781D01*
Y262421D01*
Y262393D01*
Y262282D01*
Y262144D01*
X31809Y261949D01*
X31837Y261505D01*
X31948Y261033D01*
Y261005D01*
X31975Y260950D01*
X32003Y260839D01*
X32059Y260700D01*
X32225Y260367D01*
X32420Y260061D01*
Y260034D01*
X32475Y260006D01*
X32614Y259867D01*
X32864Y259673D01*
X33141Y259506D01*
X33169D01*
X33225Y259478D01*
X33308Y259451D01*
X33419Y259423D01*
X33724Y259367D01*
X34085Y259340D01*
X34141D01*
X34307Y259367D01*
X34529Y259395D01*
X34779Y259451D01*
X34807D01*
X34835Y259478D01*
X34974Y259534D01*
X35168Y259645D01*
X35390Y259812D01*
X35418Y259867D01*
X35529Y259978D01*
X35668Y260200D01*
X35779Y260450D01*
Y260478D01*
X35807Y260533D01*
X35834Y260617D01*
Y260728D01*
X35890Y261033D01*
X35918Y261422D01*
Y261450D01*
Y261561D01*
X35890Y261699D01*
X35862Y261922D01*
X35807Y262171D01*
X35723Y262477D01*
X35612Y262782D01*
X35473Y263143D01*
X35446Y263199D01*
X35390Y263310D01*
X35279Y263504D01*
X35113Y263754D01*
X34918Y264059D01*
X34668Y264420D01*
X34391Y264809D01*
X34030Y265197D01*
D02*
G37*
G36*
X55254Y139686D02*
X54754D01*
X54532Y139658D01*
X54282Y139630D01*
X53755Y139492D01*
X53727D01*
X53644Y139464D01*
X53505Y139408D01*
X53338Y139353D01*
X52950Y139158D01*
X52561Y138881D01*
X52533Y138853D01*
X52478Y138798D01*
X52395Y138714D01*
X52284Y138603D01*
X52145Y138437D01*
X52034Y138270D01*
X51784Y137826D01*
X51756Y137798D01*
X51728Y137715D01*
X51673Y137576D01*
X51617Y137409D01*
X51562Y137215D01*
X51534Y136965D01*
X51478Y136688D01*
Y136382D01*
Y136355D01*
Y136271D01*
Y136132D01*
X51506Y135966D01*
X51534Y135772D01*
X51589Y135549D01*
X51756Y135077D01*
Y135050D01*
X51812Y134994D01*
X51867Y134883D01*
X51950Y134744D01*
X52200Y134411D01*
X52533Y134078D01*
X52561Y134050D01*
X52617Y134022D01*
X52728Y133939D01*
X52867Y133828D01*
X53033Y133717D01*
X53255Y133606D01*
X53727Y133384D01*
X53755D01*
X53838Y133356D01*
X53977Y133301D01*
X54171Y133245D01*
X54393Y133190D01*
X54671Y133162D01*
X55254Y133078D01*
Y139686D01*
D02*
G37*
G36*
X172904Y49929D02*
X172819D01*
X172706Y49915D01*
X172579Y49901D01*
X172438Y49859D01*
X172269Y49816D01*
X172114Y49746D01*
X171959Y49661D01*
X171945Y49647D01*
X171903Y49619D01*
X171832Y49563D01*
X171733Y49478D01*
X171635Y49379D01*
X171536Y49253D01*
X171423Y49111D01*
X171325Y48956D01*
X171311Y48942D01*
X171282Y48886D01*
X171240Y48787D01*
X171184Y48660D01*
X171127Y48519D01*
X171057Y48336D01*
X171000Y48139D01*
X170944Y47927D01*
Y47899D01*
X170930Y47829D01*
X170916Y47702D01*
X170888Y47547D01*
X170874Y47364D01*
X170845Y47152D01*
X170831Y46912D01*
Y46673D01*
Y46659D01*
Y46645D01*
Y46602D01*
Y46546D01*
Y46405D01*
X170845Y46236D01*
X170860Y46024D01*
X170874Y45799D01*
X170944Y45319D01*
Y45291D01*
X170972Y45221D01*
X170986Y45108D01*
X171029Y44967D01*
X171085Y44798D01*
X171141Y44629D01*
X171212Y44445D01*
X171297Y44276D01*
X171311Y44262D01*
X171339Y44206D01*
X171395Y44135D01*
X171480Y44037D01*
X171564Y43924D01*
X171677Y43825D01*
X171804Y43712D01*
X171945Y43614D01*
X171959Y43600D01*
X172015Y43571D01*
X172100Y43543D01*
X172213Y43501D01*
X172354Y43444D01*
X172523Y43416D01*
X172706Y43388D01*
X172904Y43374D01*
X173002D01*
X173101Y43388D01*
X173228Y43402D01*
X173383Y43430D01*
X173538Y43487D01*
X173693Y43543D01*
X173848Y43628D01*
X173862Y43642D01*
X173919Y43670D01*
X173989Y43726D01*
X174074Y43811D01*
X174186Y43910D01*
X174285Y44022D01*
X174398Y44163D01*
X174497Y44318D01*
X174511Y44333D01*
X174539Y44403D01*
X174581Y44488D01*
X174638Y44615D01*
X174708Y44770D01*
X174764Y44939D01*
X174821Y45136D01*
X174877Y45348D01*
Y45376D01*
X174891Y45446D01*
X174919Y45573D01*
X174948Y45728D01*
X174962Y45911D01*
X174990Y46137D01*
X175004Y46363D01*
Y46616D01*
Y46630D01*
Y46645D01*
Y46687D01*
Y46743D01*
Y46884D01*
X174990Y47053D01*
X174976Y47265D01*
X174948Y47490D01*
X174877Y47955D01*
Y47970D01*
Y47984D01*
X174863Y48054D01*
X174835Y48167D01*
X174793Y48308D01*
X174736Y48477D01*
X174680Y48646D01*
X174595Y48829D01*
X174511Y48999D01*
X174497Y49013D01*
X174468Y49069D01*
X174412Y49154D01*
X174342Y49253D01*
X174243Y49351D01*
X174130Y49464D01*
X174003Y49577D01*
X173862Y49675D01*
X173848Y49689D01*
X173792Y49718D01*
X173707Y49760D01*
X173594Y49802D01*
X173453Y49844D01*
X173298Y49887D01*
X173101Y49915D01*
X172904Y49929D01*
D02*
G37*
G36*
X214685Y74830D02*
X213628D01*
Y72096D01*
X214671D01*
X214770Y72110D01*
X214882D01*
X215009Y72138D01*
X215249Y72180D01*
X215263D01*
X215305Y72194D01*
X215362Y72222D01*
X215446Y72251D01*
X215615Y72335D01*
X215799Y72448D01*
X215813Y72462D01*
X215841Y72476D01*
X215883Y72519D01*
X215926Y72575D01*
X216038Y72716D01*
X216151Y72885D01*
Y72899D01*
X216165Y72927D01*
X216193Y72984D01*
X216222Y73068D01*
X216236Y73153D01*
X216264Y73266D01*
X216278Y73505D01*
Y73519D01*
Y73534D01*
Y73618D01*
X216250Y73731D01*
X216222Y73872D01*
X216179Y74041D01*
X216095Y74196D01*
X215996Y74351D01*
X215855Y74492D01*
X215841Y74506D01*
X215785Y74549D01*
X215686Y74605D01*
X215559Y74661D01*
X215390Y74718D01*
X215193Y74774D01*
X214953Y74816D01*
X214685Y74830D01*
D02*
G37*
G36*
X229402Y49830D02*
X228190D01*
Y43473D01*
X229149D01*
X229289Y43501D01*
X229473Y43529D01*
X229684Y43571D01*
X229924Y43642D01*
X230178Y43741D01*
X230445Y43867D01*
X230713Y44037D01*
X230967Y44248D01*
X231207Y44502D01*
X231418Y44812D01*
X231517Y44981D01*
X231601Y45178D01*
X231686Y45376D01*
X231742Y45601D01*
X231799Y45827D01*
X231841Y46081D01*
X231855Y46363D01*
X231869Y46645D01*
Y46659D01*
Y46687D01*
Y46729D01*
Y46785D01*
X231855Y46955D01*
Y47152D01*
X231827Y47392D01*
X231799Y47631D01*
X231756Y47885D01*
X231700Y48125D01*
Y48139D01*
X231686Y48153D01*
X231672Y48223D01*
X231630Y48336D01*
X231573Y48477D01*
X231503Y48632D01*
X231418Y48801D01*
X231305Y48970D01*
X231193Y49111D01*
X231178Y49126D01*
X231136Y49168D01*
X231066Y49238D01*
X230967Y49323D01*
X230840Y49408D01*
X230699Y49506D01*
X230530Y49591D01*
X230347Y49661D01*
X230319Y49675D01*
X230262Y49689D01*
X230149Y49718D01*
X230009Y49746D01*
X229825Y49774D01*
X229628Y49802D01*
X229402Y49830D01*
D02*
G37*
G36*
X59030Y350290D02*
X56781D01*
Y347514D01*
Y347486D01*
Y347375D01*
Y347236D01*
X56809Y347042D01*
X56837Y346598D01*
X56948Y346126D01*
Y346098D01*
X56975Y346042D01*
X57003Y345931D01*
X57059Y345793D01*
X57225Y345459D01*
X57420Y345154D01*
Y345126D01*
X57475Y345098D01*
X57614Y344960D01*
X57864Y344765D01*
X58141Y344599D01*
X58169D01*
X58225Y344571D01*
X58308Y344543D01*
X58419Y344515D01*
X58724Y344460D01*
X59085Y344432D01*
X59141D01*
X59307Y344460D01*
X59529Y344488D01*
X59779Y344543D01*
X59807D01*
X59835Y344571D01*
X59974Y344627D01*
X60168Y344738D01*
X60390Y344904D01*
X60418Y344960D01*
X60529Y345071D01*
X60668Y345293D01*
X60779Y345543D01*
Y345570D01*
X60806Y345626D01*
X60834Y345709D01*
Y345820D01*
X60890Y346126D01*
X60918Y346514D01*
Y346542D01*
Y346653D01*
X60890Y346792D01*
X60862Y347014D01*
X60806Y347264D01*
X60723Y347569D01*
X60612Y347875D01*
X60473Y348236D01*
X60446Y348291D01*
X60390Y348402D01*
X60279Y348596D01*
X60113Y348846D01*
X59918Y349152D01*
X59668Y349513D01*
X59391Y349901D01*
X59030Y350290D01*
D02*
G37*
G36*
X56253Y308924D02*
X55837D01*
X55560Y308897D01*
X55254Y308869D01*
X54893Y308813D01*
X54560Y308730D01*
X54227Y308647D01*
X54199D01*
X54088Y308591D01*
X53921Y308536D01*
X53699Y308452D01*
X53255Y308230D01*
X53005Y308091D01*
X52783Y307925D01*
X52755Y307897D01*
X52700Y307842D01*
X52589Y307731D01*
X52450Y307592D01*
X52311Y307425D01*
X52172Y307231D01*
X51895Y306759D01*
X51867Y306731D01*
X51839Y306648D01*
X51784Y306509D01*
X51728Y306315D01*
X51673Y306093D01*
X51645Y305843D01*
X51589Y305565D01*
Y305260D01*
Y305204D01*
Y305093D01*
X51617Y304899D01*
X51645Y304677D01*
X51673Y304399D01*
X51756Y304121D01*
X51839Y303844D01*
X51978Y303566D01*
X52006Y303538D01*
X52061Y303455D01*
X52145Y303316D01*
X52256Y303178D01*
X52395Y302983D01*
X52561Y302789D01*
X53005Y302428D01*
X53033Y302400D01*
X53116Y302345D01*
X53255Y302289D01*
X53422Y302178D01*
X53644Y302067D01*
X53894Y301984D01*
X54171Y301873D01*
X54477Y301789D01*
X54504D01*
X54616Y301762D01*
X54782Y301734D01*
X55004Y301706D01*
X55282Y301651D01*
X55587Y301623D01*
X56253Y301595D01*
X56448D01*
X56670Y301623D01*
X56948D01*
X57253Y301651D01*
X57614Y301706D01*
X58308Y301845D01*
X58336D01*
X58447Y301901D01*
X58613Y301956D01*
X58808Y302039D01*
X59280Y302261D01*
X59752Y302567D01*
X59779Y302595D01*
X59835Y302650D01*
X59946Y302761D01*
X60057Y302900D01*
X60196Y303067D01*
X60335Y303261D01*
X60612Y303705D01*
Y303733D01*
X60668Y303816D01*
X60696Y303983D01*
X60751Y304149D01*
X60806Y304399D01*
X60834Y304649D01*
X60890Y304954D01*
Y305260D01*
Y305315D01*
Y305426D01*
X60862Y305593D01*
X60834Y305843D01*
X60806Y306093D01*
X60723Y306370D01*
X60640Y306648D01*
X60529Y306925D01*
X60501Y306953D01*
X60446Y307036D01*
X60362Y307175D01*
X60251Y307342D01*
X60113Y307508D01*
X59918Y307703D01*
X59502Y308064D01*
X59474Y308091D01*
X59391Y308147D01*
X59252Y308202D01*
X59085Y308314D01*
X58863Y308425D01*
X58613Y308508D01*
X58336Y308619D01*
X58030Y308702D01*
X58003D01*
X57892Y308730D01*
X57697Y308785D01*
X57475Y308813D01*
X57225Y308869D01*
X56920Y308897D01*
X56253Y308924D01*
D02*
G37*
G36*
X54060Y321861D02*
X53838D01*
X53699Y321834D01*
X53338Y321778D01*
X52978Y321639D01*
X52950D01*
X52894Y321612D01*
X52811Y321556D01*
X52672Y321501D01*
X52395Y321334D01*
X52117Y321084D01*
X52089Y321056D01*
X52061Y321029D01*
X51978Y320945D01*
X51923Y320834D01*
X51728Y320557D01*
X51562Y320224D01*
Y320196D01*
X51534Y320140D01*
X51506Y320029D01*
X51451Y319918D01*
X51423Y319752D01*
X51395Y319557D01*
X51367Y319141D01*
Y319113D01*
Y319030D01*
Y318919D01*
X51395Y318752D01*
X51478Y318391D01*
X51617Y317975D01*
Y317947D01*
X51645Y317892D01*
X51701Y317808D01*
X51784Y317697D01*
X51950Y317419D01*
X52200Y317142D01*
X52228D01*
X52256Y317086D01*
X52339Y317031D01*
X52450Y316948D01*
X52728Y316781D01*
X53061Y316614D01*
X53089D01*
X53144Y316587D01*
X53227Y316559D01*
X53366Y316531D01*
X53672Y316476D01*
X54060Y316448D01*
X54282D01*
X54421Y316476D01*
X54782Y316531D01*
X55171Y316642D01*
X55198D01*
X55254Y316670D01*
X55337Y316726D01*
X55448Y316781D01*
X55726Y316948D01*
X56004Y317197D01*
X56031Y317225D01*
X56059Y317253D01*
X56115Y317336D01*
X56198Y317447D01*
X56392Y317697D01*
X56559Y318030D01*
Y318058D01*
X56587Y318114D01*
X56614Y318225D01*
X56642Y318363D01*
X56670Y318530D01*
X56698Y318724D01*
X56726Y319141D01*
Y319169D01*
Y319252D01*
Y319363D01*
X56698Y319529D01*
X56642Y319890D01*
X56531Y320279D01*
Y320307D01*
X56503Y320362D01*
X56448Y320473D01*
X56365Y320584D01*
X56198Y320862D01*
X55948Y321140D01*
X55920Y321167D01*
X55893Y321195D01*
X55809Y321251D01*
X55698Y321334D01*
X55421Y321501D01*
X55087Y321667D01*
X55060D01*
X55004Y321695D01*
X54893Y321723D01*
X54782Y321778D01*
X54449Y321834D01*
X54060Y321861D01*
D02*
G37*
G36*
X63805Y322972D02*
X63694D01*
X63555Y322944D01*
X63388Y322889D01*
X63194Y322805D01*
X63028Y322694D01*
X62833Y322556D01*
X62694Y322333D01*
X62667Y322306D01*
X62639Y322222D01*
X62583Y322056D01*
X62500Y321861D01*
X62445Y321584D01*
X62361Y321251D01*
X62306Y320862D01*
X62278Y320418D01*
X62167Y317142D01*
Y317114D01*
X62222Y317086D01*
X62333Y316892D01*
X62500Y316670D01*
X62694Y316448D01*
X62750Y316420D01*
X62861Y316309D01*
X63000Y316170D01*
X63194Y316031D01*
X63250Y316004D01*
X63361Y315948D01*
X63555Y315893D01*
X63749Y315837D01*
X63805D01*
X63916Y315809D01*
X64082Y315782D01*
X64304D01*
X64416Y315809D01*
X64582Y315837D01*
X64777Y315893D01*
X64999Y316004D01*
X65193Y316170D01*
X65415Y316392D01*
X65582Y316698D01*
X65609Y316753D01*
X65637Y316864D01*
X65720Y317086D01*
X65776Y317364D01*
X65859Y317725D01*
X65943Y318169D01*
X65970Y318697D01*
X65998Y319280D01*
Y319335D01*
Y319446D01*
Y319641D01*
X65970Y319890D01*
X65943Y320140D01*
X65915Y320446D01*
X65859Y320723D01*
X65804Y321001D01*
Y321029D01*
X65776Y321112D01*
X65720Y321251D01*
X65665Y321417D01*
X65498Y321778D01*
X65415Y321973D01*
X65304Y322139D01*
X65276Y322167D01*
X65248Y322222D01*
X65110Y322389D01*
X64888Y322583D01*
X64610Y322778D01*
X64582D01*
X64554Y322805D01*
X64471Y322833D01*
X64360Y322889D01*
X64110Y322944D01*
X63805Y322972D01*
D02*
G37*
G36*
X51284Y280468D02*
X51145D01*
X51034Y280440D01*
X50757Y280413D01*
X50396Y280329D01*
X50007Y280218D01*
X49618Y280024D01*
X49230Y279774D01*
X48896Y279413D01*
X48869Y279358D01*
X48758Y279219D01*
X48619Y278997D01*
X48452Y278664D01*
X48313Y278247D01*
X48175Y277775D01*
X48064Y277192D01*
X48036Y276526D01*
Y274277D01*
X54754D01*
Y276332D01*
Y276359D01*
Y276415D01*
Y276526D01*
X54727Y276665D01*
Y276831D01*
X54699Y277026D01*
X54643Y277442D01*
X54532Y277942D01*
X54393Y278441D01*
X54171Y278941D01*
X53894Y279385D01*
X53866Y279441D01*
X53727Y279552D01*
X53533Y279718D01*
X53255Y279941D01*
X52867Y280135D01*
X52422Y280301D01*
X51895Y280413D01*
X51284Y280468D01*
D02*
G37*
G36*
X31253Y111228D02*
X30837D01*
X30559Y111201D01*
X30254Y111173D01*
X29893Y111117D01*
X29560Y111034D01*
X29227Y110951D01*
X29199D01*
X29088Y110895D01*
X28921Y110840D01*
X28699Y110756D01*
X28255Y110534D01*
X28005Y110395D01*
X27783Y110229D01*
X27755Y110201D01*
X27700Y110146D01*
X27589Y110035D01*
X27450Y109896D01*
X27311Y109729D01*
X27173Y109535D01*
X26895Y109063D01*
X26867Y109035D01*
X26839Y108952D01*
X26784Y108813D01*
X26728Y108619D01*
X26673Y108397D01*
X26645Y108147D01*
X26590Y107869D01*
Y107564D01*
Y107508D01*
Y107397D01*
X26617Y107203D01*
X26645Y106981D01*
X26673Y106703D01*
X26756Y106425D01*
X26839Y106148D01*
X26978Y105870D01*
X27006Y105842D01*
X27061Y105759D01*
X27145Y105620D01*
X27256Y105482D01*
X27395Y105287D01*
X27561Y105093D01*
X28005Y104732D01*
X28033Y104704D01*
X28116Y104649D01*
X28255Y104593D01*
X28422Y104482D01*
X28644Y104371D01*
X28894Y104288D01*
X29171Y104177D01*
X29477Y104093D01*
X29504D01*
X29615Y104066D01*
X29782Y104038D01*
X30004Y104010D01*
X30282Y103955D01*
X30587Y103927D01*
X31253Y103899D01*
X31448D01*
X31670Y103927D01*
X31948D01*
X32253Y103955D01*
X32614Y104010D01*
X33308Y104149D01*
X33336D01*
X33447Y104204D01*
X33613Y104260D01*
X33808Y104343D01*
X34280Y104565D01*
X34752Y104871D01*
X34779Y104899D01*
X34835Y104954D01*
X34946Y105065D01*
X35057Y105204D01*
X35196Y105371D01*
X35334Y105565D01*
X35612Y106009D01*
Y106037D01*
X35668Y106120D01*
X35696Y106287D01*
X35751Y106453D01*
X35807Y106703D01*
X35834Y106953D01*
X35890Y107258D01*
Y107564D01*
Y107619D01*
Y107730D01*
X35862Y107897D01*
X35834Y108147D01*
X35807Y108397D01*
X35723Y108674D01*
X35640Y108952D01*
X35529Y109229D01*
X35501Y109257D01*
X35446Y109340D01*
X35362Y109479D01*
X35251Y109646D01*
X35113Y109812D01*
X34918Y110007D01*
X34502Y110368D01*
X34474Y110395D01*
X34391Y110451D01*
X34252Y110506D01*
X34085Y110618D01*
X33863Y110729D01*
X33613Y110812D01*
X33336Y110923D01*
X33030Y111006D01*
X33003D01*
X32891Y111034D01*
X32697Y111089D01*
X32475Y111117D01*
X32225Y111173D01*
X31920Y111201D01*
X31253Y111228D01*
D02*
G37*
G36*
X55254Y378968D02*
X54754D01*
X54532Y378941D01*
X54282Y378913D01*
X53755Y378774D01*
X53727D01*
X53644Y378746D01*
X53505Y378691D01*
X53338Y378635D01*
X52950Y378441D01*
X52561Y378163D01*
X52533Y378135D01*
X52478Y378080D01*
X52395Y377997D01*
X52284Y377886D01*
X52145Y377719D01*
X52034Y377552D01*
X51784Y377108D01*
X51756Y377080D01*
X51728Y376997D01*
X51673Y376858D01*
X51617Y376692D01*
X51562Y376497D01*
X51534Y376248D01*
X51478Y375970D01*
Y375665D01*
Y375637D01*
Y375554D01*
Y375415D01*
X51506Y375248D01*
X51534Y375054D01*
X51589Y374832D01*
X51756Y374360D01*
Y374332D01*
X51812Y374277D01*
X51867Y374165D01*
X51950Y374027D01*
X52200Y373694D01*
X52533Y373360D01*
X52561Y373333D01*
X52617Y373305D01*
X52728Y373222D01*
X52867Y373111D01*
X53033Y372999D01*
X53255Y372888D01*
X53727Y372666D01*
X53755D01*
X53838Y372639D01*
X53977Y372583D01*
X54171Y372528D01*
X54393Y372472D01*
X54671Y372444D01*
X55254Y372361D01*
Y378968D01*
D02*
G37*
G36*
X31948Y82134D02*
X23230Y79357D01*
X31948Y76581D01*
Y82134D01*
D02*
G37*
G36*
X112198Y319929D02*
X112113D01*
X112001Y319915D01*
X111874Y319901D01*
X111733Y319859D01*
X111564Y319816D01*
X111409Y319746D01*
X111253Y319661D01*
X111239Y319647D01*
X111197Y319619D01*
X111127Y319563D01*
X111028Y319478D01*
X110929Y319379D01*
X110830Y319252D01*
X110718Y319111D01*
X110619Y318956D01*
X110605Y318942D01*
X110577Y318886D01*
X110534Y318787D01*
X110478Y318660D01*
X110422Y318519D01*
X110351Y318336D01*
X110295Y318139D01*
X110239Y317927D01*
Y317899D01*
X110224Y317829D01*
X110210Y317702D01*
X110182Y317547D01*
X110168Y317363D01*
X110140Y317152D01*
X110126Y316912D01*
Y316673D01*
Y316659D01*
Y316644D01*
Y316602D01*
Y316546D01*
Y316405D01*
X110140Y316236D01*
X110154Y316024D01*
X110168Y315799D01*
X110239Y315319D01*
Y315291D01*
X110267Y315221D01*
X110281Y315108D01*
X110323Y314967D01*
X110379Y314798D01*
X110436Y314629D01*
X110506Y314445D01*
X110591Y314276D01*
X110605Y314262D01*
X110633Y314206D01*
X110690Y314135D01*
X110774Y314037D01*
X110859Y313924D01*
X110971Y313825D01*
X111098Y313712D01*
X111239Y313614D01*
X111253Y313600D01*
X111310Y313571D01*
X111394Y313543D01*
X111507Y313501D01*
X111648Y313444D01*
X111817Y313416D01*
X112001Y313388D01*
X112198Y313374D01*
X112297D01*
X112395Y313388D01*
X112522Y313402D01*
X112677Y313430D01*
X112832Y313487D01*
X112987Y313543D01*
X113142Y313628D01*
X113156Y313642D01*
X113213Y313670D01*
X113283Y313726D01*
X113368Y313811D01*
X113481Y313910D01*
X113580Y314023D01*
X113692Y314163D01*
X113791Y314319D01*
X113805Y314333D01*
X113833Y314403D01*
X113876Y314488D01*
X113932Y314615D01*
X114002Y314770D01*
X114059Y314939D01*
X114115Y315136D01*
X114171Y315348D01*
Y315376D01*
X114186Y315446D01*
X114214Y315573D01*
X114242Y315728D01*
X114256Y315912D01*
X114284Y316137D01*
X114298Y316363D01*
Y316616D01*
Y316630D01*
Y316644D01*
Y316687D01*
Y316743D01*
Y316884D01*
X114284Y317053D01*
X114270Y317265D01*
X114242Y317490D01*
X114171Y317955D01*
Y317970D01*
Y317984D01*
X114157Y318054D01*
X114129Y318167D01*
X114087Y318308D01*
X114031Y318477D01*
X113974Y318646D01*
X113890Y318830D01*
X113805Y318999D01*
X113791Y319013D01*
X113763Y319069D01*
X113706Y319154D01*
X113636Y319252D01*
X113537Y319351D01*
X113424Y319464D01*
X113298Y319577D01*
X113156Y319675D01*
X113142Y319690D01*
X113086Y319718D01*
X113001Y319760D01*
X112889Y319802D01*
X112748Y319844D01*
X112593Y319887D01*
X112395Y319915D01*
X112198Y319929D01*
D02*
G37*
G36*
X330404Y384929D02*
X330319D01*
X330206Y384915D01*
X330079Y384901D01*
X329938Y384859D01*
X329769Y384816D01*
X329614Y384746D01*
X329459Y384661D01*
X329445Y384647D01*
X329403Y384619D01*
X329332Y384563D01*
X329234Y384478D01*
X329135Y384379D01*
X329036Y384253D01*
X328923Y384112D01*
X328825Y383956D01*
X328811Y383942D01*
X328782Y383886D01*
X328740Y383787D01*
X328684Y383660D01*
X328627Y383519D01*
X328557Y383336D01*
X328501Y383139D01*
X328444Y382927D01*
Y382899D01*
X328430Y382829D01*
X328416Y382702D01*
X328388Y382547D01*
X328374Y382364D01*
X328345Y382152D01*
X328331Y381912D01*
Y381673D01*
Y381659D01*
Y381645D01*
Y381602D01*
Y381546D01*
Y381405D01*
X328345Y381236D01*
X328359Y381024D01*
X328374Y380799D01*
X328444Y380319D01*
Y380291D01*
X328472Y380221D01*
X328486Y380108D01*
X328529Y379967D01*
X328585Y379798D01*
X328642Y379629D01*
X328712Y379445D01*
X328797Y379276D01*
X328811Y379262D01*
X328839Y379206D01*
X328895Y379135D01*
X328980Y379037D01*
X329064Y378924D01*
X329177Y378825D01*
X329304Y378712D01*
X329445Y378614D01*
X329459Y378600D01*
X329515Y378571D01*
X329600Y378543D01*
X329713Y378501D01*
X329854Y378445D01*
X330023Y378416D01*
X330206Y378388D01*
X330404Y378374D01*
X330502D01*
X330601Y378388D01*
X330728Y378402D01*
X330883Y378430D01*
X331038Y378487D01*
X331193Y378543D01*
X331348Y378628D01*
X331362Y378642D01*
X331419Y378670D01*
X331489Y378726D01*
X331574Y378811D01*
X331686Y378910D01*
X331785Y379022D01*
X331898Y379164D01*
X331996Y379319D01*
X332011Y379333D01*
X332039Y379403D01*
X332081Y379488D01*
X332137Y379615D01*
X332208Y379770D01*
X332264Y379939D01*
X332321Y380136D01*
X332377Y380348D01*
Y380376D01*
X332391Y380446D01*
X332420Y380573D01*
X332448Y380728D01*
X332462Y380911D01*
X332490Y381137D01*
X332504Y381363D01*
Y381616D01*
Y381630D01*
Y381645D01*
Y381687D01*
Y381743D01*
Y381884D01*
X332490Y382053D01*
X332476Y382265D01*
X332448Y382490D01*
X332377Y382956D01*
Y382970D01*
Y382984D01*
X332363Y383054D01*
X332335Y383167D01*
X332293Y383308D01*
X332236Y383477D01*
X332180Y383646D01*
X332095Y383830D01*
X332011Y383999D01*
X331996Y384013D01*
X331968Y384069D01*
X331912Y384154D01*
X331842Y384253D01*
X331743Y384351D01*
X331630Y384464D01*
X331503Y384577D01*
X331362Y384675D01*
X331348Y384689D01*
X331292Y384718D01*
X331207Y384760D01*
X331094Y384802D01*
X330953Y384845D01*
X330798Y384887D01*
X330601Y384915D01*
X330404Y384929D01*
D02*
G37*
G36*
X314685Y357331D02*
X313628D01*
Y354596D01*
X314671D01*
X314770Y354610D01*
X314882D01*
X315009Y354638D01*
X315249Y354680D01*
X315263D01*
X315305Y354694D01*
X315362Y354723D01*
X315446Y354751D01*
X315615Y354835D01*
X315799Y354948D01*
X315813Y354962D01*
X315841Y354976D01*
X315883Y355019D01*
X315926Y355075D01*
X316038Y355216D01*
X316151Y355385D01*
Y355399D01*
X316165Y355427D01*
X316193Y355484D01*
X316222Y355568D01*
X316236Y355653D01*
X316264Y355766D01*
X316278Y356005D01*
Y356019D01*
Y356034D01*
Y356118D01*
X316250Y356231D01*
X316222Y356372D01*
X316179Y356541D01*
X316095Y356696D01*
X315996Y356851D01*
X315855Y356992D01*
X315841Y357006D01*
X315785Y357048D01*
X315686Y357105D01*
X315559Y357161D01*
X315390Y357218D01*
X315193Y357274D01*
X314953Y357316D01*
X314685Y357331D01*
D02*
G37*
G36*
X56253Y97793D02*
X55837D01*
X55560Y97765D01*
X55254Y97737D01*
X54893Y97682D01*
X54560Y97598D01*
X54227Y97515D01*
X54199D01*
X54088Y97460D01*
X53921Y97404D01*
X53699Y97321D01*
X53255Y97099D01*
X53005Y96960D01*
X52783Y96793D01*
X52755Y96766D01*
X52700Y96710D01*
X52589Y96599D01*
X52450Y96460D01*
X52311Y96294D01*
X52172Y96099D01*
X51895Y95627D01*
X51867Y95600D01*
X51839Y95516D01*
X51784Y95378D01*
X51728Y95183D01*
X51673Y94961D01*
X51645Y94711D01*
X51589Y94433D01*
Y94128D01*
Y94073D01*
Y93962D01*
X51617Y93767D01*
X51645Y93545D01*
X51673Y93267D01*
X51756Y92990D01*
X51839Y92712D01*
X51978Y92435D01*
X52006Y92407D01*
X52061Y92324D01*
X52145Y92185D01*
X52256Y92046D01*
X52395Y91852D01*
X52561Y91657D01*
X53005Y91296D01*
X53033Y91269D01*
X53116Y91213D01*
X53255Y91158D01*
X53422Y91047D01*
X53644Y90935D01*
X53894Y90852D01*
X54171Y90741D01*
X54477Y90658D01*
X54504D01*
X54616Y90630D01*
X54782Y90602D01*
X55004Y90575D01*
X55282Y90519D01*
X55587Y90491D01*
X56253Y90463D01*
X56448D01*
X56670Y90491D01*
X56948D01*
X57253Y90519D01*
X57614Y90575D01*
X58308Y90713D01*
X58336D01*
X58447Y90769D01*
X58613Y90824D01*
X58808Y90908D01*
X59280Y91130D01*
X59752Y91435D01*
X59779Y91463D01*
X59835Y91518D01*
X59946Y91630D01*
X60057Y91768D01*
X60196Y91935D01*
X60335Y92129D01*
X60612Y92573D01*
Y92601D01*
X60668Y92684D01*
X60696Y92851D01*
X60751Y93018D01*
X60806Y93267D01*
X60834Y93517D01*
X60890Y93823D01*
Y94128D01*
Y94184D01*
Y94295D01*
X60862Y94461D01*
X60834Y94711D01*
X60806Y94961D01*
X60723Y95239D01*
X60640Y95516D01*
X60529Y95794D01*
X60501Y95822D01*
X60446Y95905D01*
X60362Y96044D01*
X60251Y96210D01*
X60113Y96377D01*
X59918Y96571D01*
X59502Y96932D01*
X59474Y96960D01*
X59391Y97015D01*
X59252Y97071D01*
X59085Y97182D01*
X58863Y97293D01*
X58613Y97376D01*
X58336Y97487D01*
X58030Y97571D01*
X58003D01*
X57892Y97598D01*
X57697Y97654D01*
X57475Y97682D01*
X57225Y97737D01*
X56920Y97765D01*
X56253Y97793D01*
D02*
G37*
G36*
X51284Y83412D02*
X51145D01*
X51034Y83384D01*
X50757Y83356D01*
X50396Y83273D01*
X50007Y83162D01*
X49618Y82968D01*
X49230Y82718D01*
X48896Y82357D01*
X48869Y82302D01*
X48758Y82163D01*
X48619Y81941D01*
X48452Y81607D01*
X48313Y81191D01*
X48175Y80719D01*
X48064Y80136D01*
X48036Y79470D01*
Y77221D01*
X54754D01*
Y79275D01*
Y79303D01*
Y79359D01*
Y79470D01*
X54727Y79608D01*
Y79775D01*
X54699Y79969D01*
X54643Y80386D01*
X54532Y80886D01*
X54393Y81385D01*
X54171Y81885D01*
X53894Y82329D01*
X53866Y82385D01*
X53727Y82496D01*
X53533Y82662D01*
X53255Y82885D01*
X52867Y83079D01*
X52422Y83245D01*
X51895Y83356D01*
X51284Y83412D01*
D02*
G37*
G36*
X137198Y74929D02*
X137113D01*
X137001Y74915D01*
X136874Y74901D01*
X136733Y74859D01*
X136564Y74816D01*
X136409Y74746D01*
X136253Y74661D01*
X136239Y74647D01*
X136197Y74619D01*
X136127Y74563D01*
X136028Y74478D01*
X135929Y74379D01*
X135830Y74253D01*
X135718Y74111D01*
X135619Y73956D01*
X135605Y73942D01*
X135577Y73886D01*
X135534Y73787D01*
X135478Y73660D01*
X135422Y73519D01*
X135351Y73336D01*
X135295Y73139D01*
X135239Y72927D01*
Y72899D01*
X135224Y72829D01*
X135210Y72702D01*
X135182Y72547D01*
X135168Y72364D01*
X135140Y72152D01*
X135126Y71912D01*
Y71673D01*
Y71659D01*
Y71645D01*
Y71602D01*
Y71546D01*
Y71405D01*
X135140Y71236D01*
X135154Y71024D01*
X135168Y70799D01*
X135239Y70319D01*
Y70291D01*
X135267Y70221D01*
X135281Y70108D01*
X135323Y69967D01*
X135379Y69798D01*
X135436Y69629D01*
X135506Y69445D01*
X135591Y69276D01*
X135605Y69262D01*
X135633Y69206D01*
X135690Y69135D01*
X135774Y69037D01*
X135859Y68924D01*
X135971Y68825D01*
X136098Y68712D01*
X136239Y68614D01*
X136253Y68600D01*
X136310Y68571D01*
X136394Y68543D01*
X136507Y68501D01*
X136648Y68444D01*
X136817Y68416D01*
X137001Y68388D01*
X137198Y68374D01*
X137297D01*
X137395Y68388D01*
X137522Y68402D01*
X137677Y68430D01*
X137832Y68487D01*
X137987Y68543D01*
X138142Y68628D01*
X138156Y68642D01*
X138213Y68670D01*
X138283Y68726D01*
X138368Y68811D01*
X138481Y68910D01*
X138580Y69022D01*
X138692Y69163D01*
X138791Y69318D01*
X138805Y69333D01*
X138833Y69403D01*
X138876Y69488D01*
X138932Y69615D01*
X139002Y69770D01*
X139059Y69939D01*
X139115Y70136D01*
X139171Y70348D01*
Y70376D01*
X139186Y70446D01*
X139214Y70573D01*
X139242Y70728D01*
X139256Y70911D01*
X139284Y71137D01*
X139298Y71363D01*
Y71616D01*
Y71630D01*
Y71645D01*
Y71687D01*
Y71743D01*
Y71884D01*
X139284Y72053D01*
X139270Y72265D01*
X139242Y72490D01*
X139171Y72955D01*
Y72970D01*
Y72984D01*
X139157Y73054D01*
X139129Y73167D01*
X139087Y73308D01*
X139031Y73477D01*
X138974Y73646D01*
X138890Y73829D01*
X138805Y73999D01*
X138791Y74013D01*
X138763Y74069D01*
X138706Y74154D01*
X138636Y74253D01*
X138537Y74351D01*
X138424Y74464D01*
X138298Y74577D01*
X138156Y74675D01*
X138142Y74689D01*
X138086Y74718D01*
X138001Y74760D01*
X137889Y74802D01*
X137748Y74844D01*
X137593Y74887D01*
X137395Y74915D01*
X137198Y74929D01*
D02*
G37*
G36*
X329402Y319830D02*
X328190D01*
Y313473D01*
X329149D01*
X329290Y313501D01*
X329473Y313529D01*
X329684Y313571D01*
X329924Y313642D01*
X330178Y313741D01*
X330446Y313867D01*
X330713Y314037D01*
X330967Y314248D01*
X331207Y314502D01*
X331418Y314812D01*
X331517Y314981D01*
X331601Y315178D01*
X331686Y315376D01*
X331742Y315601D01*
X331799Y315827D01*
X331841Y316081D01*
X331855Y316363D01*
X331869Y316644D01*
Y316659D01*
Y316687D01*
Y316729D01*
Y316786D01*
X331855Y316955D01*
Y317152D01*
X331827Y317392D01*
X331799Y317631D01*
X331757Y317885D01*
X331700Y318125D01*
Y318139D01*
X331686Y318153D01*
X331672Y318223D01*
X331630Y318336D01*
X331573Y318477D01*
X331503Y318632D01*
X331418Y318801D01*
X331305Y318971D01*
X331193Y319111D01*
X331179Y319126D01*
X331136Y319168D01*
X331066Y319238D01*
X330967Y319323D01*
X330840Y319408D01*
X330699Y319506D01*
X330530Y319591D01*
X330347Y319661D01*
X330319Y319675D01*
X330262Y319690D01*
X330149Y319718D01*
X330009Y319746D01*
X329825Y319774D01*
X329628Y319802D01*
X329402Y319830D01*
D02*
G37*
%LPD*%
D14*
X226764Y105596D02*
X222532Y103480D01*
X218300Y99248D01*
Y95016D01*
X220416Y92900D01*
X224648D01*
X226764Y95016D01*
Y97132D01*
X224648Y99248D01*
X218300D01*
X226764Y130596D02*
X218300D01*
Y124248D01*
X222532Y126364D01*
X224648D01*
X226764Y124248D01*
Y120016D01*
X224648Y117900D01*
X220416D01*
X218300Y120016D01*
X120000Y117500D02*
X124232D01*
X122116D01*
Y130196D01*
X120000Y128080D01*
X125964Y92500D02*
X117500D01*
X125964Y100964D01*
Y103080D01*
X123848Y105196D01*
X119616D01*
X117500Y103080D01*
M02*
