G04 Layer_Color=8388736*
%FSLAX44Y44*%
%MOMM*%
G71*
G01*
G75*
%ADD10C,0.2540*%
%ADD19C,0.1270*%
%ADD20C,0.1524*%
G36*
X39051Y510000D02*
X37478D01*
Y519295D01*
X39051D01*
Y510000D01*
D02*
G37*
G36*
X4055Y519481D02*
X4333Y519462D01*
X4629Y519425D01*
X4944Y519351D01*
X5277Y519277D01*
X5592Y519166D01*
X5610D01*
X5629Y519147D01*
X5722Y519110D01*
X5870Y519036D01*
X6055Y518943D01*
X6259Y518814D01*
X6462Y518666D01*
X6647Y518499D01*
X6814Y518314D01*
X6833Y518295D01*
X6870Y518221D01*
X6944Y518092D01*
X7036Y517944D01*
X7129Y517721D01*
X7222Y517481D01*
X7296Y517203D01*
X7370Y516888D01*
X5833Y516684D01*
Y516721D01*
X5814Y516796D01*
X5777Y516925D01*
X5722Y517092D01*
X5629Y517258D01*
X5518Y517444D01*
X5388Y517629D01*
X5203Y517795D01*
X5185Y517814D01*
X5111Y517851D01*
X4999Y517925D01*
X4833Y517999D01*
X4648Y518073D01*
X4407Y518147D01*
X4111Y518184D01*
X3796Y518203D01*
X3611D01*
X3426Y518184D01*
X3185Y518166D01*
X2944Y518110D01*
X2685Y518055D01*
X2444Y517962D01*
X2241Y517832D01*
X2222Y517814D01*
X2166Y517777D01*
X2092Y517703D01*
X2018Y517592D01*
X1926Y517481D01*
X1852Y517333D01*
X1796Y517166D01*
X1778Y516999D01*
Y516981D01*
Y516944D01*
X1796Y516888D01*
Y516814D01*
X1852Y516629D01*
X1963Y516444D01*
X1981Y516425D01*
X2000Y516407D01*
X2037Y516351D01*
X2111Y516296D01*
X2185Y516240D01*
X2296Y516166D01*
X2426Y516110D01*
X2574Y516036D01*
X2592D01*
X2629Y516018D01*
X2703Y515999D01*
X2833Y515944D01*
X3018Y515888D01*
X3259Y515833D01*
X3407Y515777D01*
X3574Y515740D01*
X3759Y515685D01*
X3963Y515629D01*
X3981D01*
X4037Y515611D01*
X4129Y515592D01*
X4240Y515555D01*
X4370Y515518D01*
X4537Y515481D01*
X4888Y515370D01*
X5277Y515259D01*
X5666Y515129D01*
X6018Y515000D01*
X6166Y514944D01*
X6296Y514888D01*
X6333Y514870D01*
X6407Y514833D01*
X6518Y514777D01*
X6684Y514685D01*
X6851Y514574D01*
X7018Y514426D01*
X7184Y514259D01*
X7333Y514074D01*
X7351Y514055D01*
X7388Y513981D01*
X7462Y513870D01*
X7536Y513703D01*
X7592Y513500D01*
X7666Y513277D01*
X7703Y513018D01*
X7721Y512722D01*
Y512685D01*
Y512592D01*
X7703Y512444D01*
X7666Y512240D01*
X7610Y512018D01*
X7518Y511778D01*
X7407Y511500D01*
X7258Y511241D01*
X7240Y511204D01*
X7166Y511129D01*
X7073Y511000D01*
X6925Y510852D01*
X6722Y510685D01*
X6499Y510500D01*
X6240Y510333D01*
X5925Y510167D01*
X5907D01*
X5888Y510148D01*
X5777Y510111D01*
X5592Y510056D01*
X5351Y509981D01*
X5055Y509907D01*
X4722Y509852D01*
X4370Y509815D01*
X3963Y509796D01*
X3796D01*
X3666Y509815D01*
X3518D01*
X3333Y509833D01*
X3148Y509852D01*
X2944Y509889D01*
X2500Y509981D01*
X2037Y510111D01*
X1592Y510296D01*
X1389Y510407D01*
X1204Y510537D01*
X1185Y510555D01*
X1167Y510574D01*
X1055Y510685D01*
X889Y510852D01*
X704Y511111D01*
X500Y511426D01*
X296Y511796D01*
X130Y512259D01*
X0Y512777D01*
X1555Y513018D01*
Y513000D01*
Y512981D01*
X1592Y512870D01*
X1629Y512685D01*
X1704Y512481D01*
X1796Y512259D01*
X1907Y512018D01*
X2074Y511778D01*
X2278Y511574D01*
X2315Y511555D01*
X2389Y511500D01*
X2537Y511426D01*
X2722Y511333D01*
X2963Y511241D01*
X3240Y511166D01*
X3574Y511111D01*
X3963Y511092D01*
X4148D01*
X4333Y511111D01*
X4574Y511148D01*
X4833Y511204D01*
X5111Y511278D01*
X5351Y511370D01*
X5573Y511518D01*
X5592Y511537D01*
X5666Y511592D01*
X5740Y511685D01*
X5851Y511815D01*
X5944Y511963D01*
X6036Y512148D01*
X6092Y512333D01*
X6111Y512555D01*
Y512574D01*
Y512648D01*
X6092Y512741D01*
X6055Y512870D01*
X5999Y513000D01*
X5907Y513129D01*
X5796Y513277D01*
X5629Y513388D01*
X5610Y513407D01*
X5555Y513426D01*
X5462Y513481D01*
X5314Y513537D01*
X5092Y513611D01*
X4962Y513666D01*
X4814Y513703D01*
X4648Y513759D01*
X4462Y513814D01*
X4259Y513870D01*
X4018Y513926D01*
X4000D01*
X3944Y513944D01*
X3851Y513963D01*
X3740Y514000D01*
X3592Y514037D01*
X3426Y514092D01*
X3074Y514185D01*
X2666Y514314D01*
X2278Y514426D01*
X1907Y514555D01*
X1741Y514629D01*
X1611Y514685D01*
X1574Y514703D01*
X1500Y514740D01*
X1389Y514814D01*
X1241Y514907D01*
X1074Y515037D01*
X907Y515185D01*
X741Y515351D01*
X593Y515555D01*
X574Y515574D01*
X537Y515648D01*
X481Y515777D01*
X426Y515925D01*
X370Y516110D01*
X315Y516333D01*
X278Y516555D01*
X259Y516814D01*
Y516851D01*
Y516925D01*
X278Y517036D01*
X296Y517203D01*
X333Y517370D01*
X370Y517573D01*
X444Y517758D01*
X537Y517962D01*
X556Y517981D01*
X593Y518055D01*
X648Y518147D01*
X741Y518277D01*
X852Y518406D01*
X981Y518573D01*
X1129Y518721D01*
X1315Y518851D01*
X1333Y518869D01*
X1389Y518888D01*
X1463Y518943D01*
X1574Y518999D01*
X1722Y519073D01*
X1889Y519147D01*
X2092Y519221D01*
X2315Y519295D01*
X2352Y519314D01*
X2426Y519332D01*
X2555Y519369D01*
X2722Y519406D01*
X2926Y519444D01*
X3148Y519462D01*
X3407Y519499D01*
X3851D01*
X4055Y519481D01*
D02*
G37*
G36*
X20665Y518240D02*
X15628Y512352D01*
X14647Y511259D01*
X14758D01*
X14832Y511278D01*
X15036Y511296D01*
X15295Y511315D01*
X15610D01*
X15943Y511333D01*
X16646Y511352D01*
X20942D01*
Y510000D01*
X12721D01*
Y511259D01*
X18628Y518073D01*
X18461D01*
X18276Y518055D01*
X18035D01*
X17757Y518036D01*
X17461D01*
X17146Y518018D01*
X13073D01*
Y519295D01*
X20665D01*
Y518240D01*
D02*
G37*
G36*
X26645Y519481D02*
X26793Y519462D01*
X26979Y519425D01*
X27182Y519388D01*
X27423Y519332D01*
X27645Y519277D01*
X27905Y519184D01*
X28145Y519092D01*
X28405Y518962D01*
X28664Y518814D01*
X28923Y518647D01*
X29164Y518444D01*
X29386Y518221D01*
X29404Y518203D01*
X29441Y518166D01*
X29497Y518092D01*
X29571Y517981D01*
X29664Y517851D01*
X29756Y517703D01*
X29867Y517518D01*
X29978Y517295D01*
X30089Y517055D01*
X30201Y516796D01*
X30293Y516499D01*
X30386Y516185D01*
X30460Y515833D01*
X30515Y515462D01*
X30552Y515074D01*
X30571Y514648D01*
Y514629D01*
Y514555D01*
Y514426D01*
X30552Y514240D01*
X23609D01*
Y514222D01*
Y514166D01*
X23627Y514092D01*
Y513981D01*
X23646Y513851D01*
X23683Y513703D01*
X23738Y513370D01*
X23849Y513000D01*
X23997Y512592D01*
X24201Y512222D01*
X24460Y511889D01*
X24479D01*
X24497Y511852D01*
X24609Y511759D01*
X24775Y511629D01*
X24997Y511500D01*
X25294Y511352D01*
X25627Y511222D01*
X25997Y511129D01*
X26201Y511111D01*
X26423Y511092D01*
X26571D01*
X26738Y511111D01*
X26942Y511148D01*
X27164Y511204D01*
X27423Y511278D01*
X27664Y511389D01*
X27905Y511537D01*
X27923Y511555D01*
X28016Y511629D01*
X28127Y511741D01*
X28256Y511889D01*
X28405Y512092D01*
X28571Y512352D01*
X28738Y512648D01*
X28886Y513000D01*
X30515Y512796D01*
Y512777D01*
X30497Y512741D01*
X30478Y512666D01*
X30441Y512555D01*
X30386Y512444D01*
X30330Y512296D01*
X30182Y511981D01*
X29997Y511629D01*
X29738Y511259D01*
X29441Y510907D01*
X29071Y510574D01*
X29053D01*
X29016Y510537D01*
X28960Y510500D01*
X28886Y510444D01*
X28775Y510389D01*
X28664Y510333D01*
X28516Y510259D01*
X28349Y510185D01*
X28164Y510111D01*
X27979Y510037D01*
X27516Y509926D01*
X26997Y509833D01*
X26423Y509796D01*
X26219D01*
X26090Y509815D01*
X25923Y509833D01*
X25720Y509870D01*
X25497Y509907D01*
X25257Y509944D01*
X24738Y510093D01*
X24460Y510204D01*
X24201Y510315D01*
X23923Y510463D01*
X23664Y510630D01*
X23424Y510815D01*
X23183Y511037D01*
X23164Y511055D01*
X23127Y511092D01*
X23072Y511166D01*
X22998Y511278D01*
X22905Y511407D01*
X22812Y511555D01*
X22701Y511741D01*
X22590Y511944D01*
X22479Y512185D01*
X22368Y512444D01*
X22276Y512741D01*
X22183Y513055D01*
X22109Y513388D01*
X22053Y513759D01*
X22016Y514148D01*
X21998Y514555D01*
Y514574D01*
Y514666D01*
Y514777D01*
X22016Y514944D01*
X22035Y515148D01*
X22053Y515370D01*
X22090Y515629D01*
X22146Y515888D01*
X22294Y516481D01*
X22387Y516777D01*
X22498Y517092D01*
X22646Y517388D01*
X22812Y517666D01*
X22998Y517944D01*
X23201Y518203D01*
X23220Y518221D01*
X23257Y518258D01*
X23331Y518314D01*
X23424Y518406D01*
X23535Y518499D01*
X23683Y518610D01*
X23849Y518740D01*
X24053Y518851D01*
X24257Y518980D01*
X24497Y519092D01*
X24757Y519203D01*
X25034Y519295D01*
X25331Y519388D01*
X25645Y519444D01*
X25979Y519481D01*
X26331Y519499D01*
X26516D01*
X26645Y519481D01*
D02*
G37*
G36*
X11165Y510000D02*
X9592D01*
Y519295D01*
X11165D01*
Y510000D01*
D02*
G37*
G36*
X46106Y519481D02*
X46310Y519462D01*
X46551Y519425D01*
X46810Y519369D01*
X47088Y519295D01*
X47347Y519184D01*
X47384Y519166D01*
X47458Y519129D01*
X47588Y519073D01*
X47736Y518980D01*
X47921Y518869D01*
X48088Y518721D01*
X48254Y518573D01*
X48402Y518388D01*
X48421Y518369D01*
X48458Y518295D01*
X48513Y518203D01*
X48606Y518073D01*
X48680Y517888D01*
X48754Y517703D01*
X48847Y517481D01*
X48902Y517240D01*
Y517221D01*
X48921Y517147D01*
X48939Y517036D01*
X48958Y516888D01*
Y516666D01*
X48976Y516407D01*
X48995Y516092D01*
Y515703D01*
Y510000D01*
X47421D01*
Y515629D01*
Y515648D01*
Y515666D01*
Y515796D01*
Y515962D01*
X47403Y516166D01*
X47384Y516407D01*
X47347Y516647D01*
X47291Y516870D01*
X47236Y517073D01*
Y517092D01*
X47199Y517147D01*
X47143Y517240D01*
X47088Y517351D01*
X46995Y517462D01*
X46884Y517592D01*
X46736Y517721D01*
X46569Y517832D01*
X46551Y517851D01*
X46495Y517888D01*
X46384Y517925D01*
X46255Y517981D01*
X46106Y518036D01*
X45921Y518092D01*
X45699Y518110D01*
X45477Y518129D01*
X45384D01*
X45310Y518110D01*
X45125Y518092D01*
X44884Y518055D01*
X44625Y517962D01*
X44329Y517851D01*
X44033Y517703D01*
X43755Y517481D01*
X43718Y517444D01*
X43644Y517351D01*
X43588Y517277D01*
X43533Y517184D01*
X43458Y517073D01*
X43403Y516944D01*
X43329Y516796D01*
X43255Y516610D01*
X43199Y516407D01*
X43144Y516185D01*
X43107Y515944D01*
X43070Y515685D01*
X43033Y515370D01*
Y515055D01*
Y510000D01*
X41459D01*
Y519295D01*
X42866D01*
Y517962D01*
X42884Y517981D01*
X42922Y518036D01*
X42977Y518110D01*
X43051Y518203D01*
X43162Y518314D01*
X43292Y518444D01*
X43440Y518592D01*
X43625Y518740D01*
X43810Y518869D01*
X44033Y519018D01*
X44273Y519147D01*
X44532Y519258D01*
X44829Y519351D01*
X45125Y519425D01*
X45458Y519481D01*
X45810Y519499D01*
X45958D01*
X46106Y519481D01*
D02*
G37*
G36*
X11165Y521017D02*
X9592D01*
Y522813D01*
X11165D01*
Y521017D01*
D02*
G37*
G36*
X39051D02*
X37478D01*
Y522813D01*
X39051D01*
Y521017D01*
D02*
G37*
G36*
X66345Y519481D02*
X66475D01*
X66604Y519462D01*
X66919Y519406D01*
X67252Y519314D01*
X67604Y519166D01*
X67956Y518980D01*
X68252Y518721D01*
X68289Y518684D01*
X68363Y518573D01*
X68493Y518406D01*
X68548Y518277D01*
X68622Y518147D01*
X68697Y517981D01*
X68752Y517814D01*
X68826Y517629D01*
X68882Y517407D01*
X68919Y517184D01*
X68956Y516925D01*
X68993Y516666D01*
Y516370D01*
Y510000D01*
X67419D01*
Y515833D01*
Y515851D01*
Y515870D01*
Y515981D01*
Y516147D01*
X67400Y516351D01*
X67382Y516573D01*
X67363Y516796D01*
X67326Y517018D01*
X67271Y517184D01*
Y517203D01*
X67234Y517258D01*
X67197Y517333D01*
X67141Y517425D01*
X67067Y517536D01*
X66975Y517647D01*
X66863Y517758D01*
X66715Y517870D01*
X66697Y517888D01*
X66641Y517907D01*
X66567Y517944D01*
X66438Y517999D01*
X66308Y518055D01*
X66141Y518092D01*
X65975Y518110D01*
X65771Y518129D01*
X65678D01*
X65604Y518110D01*
X65419Y518092D01*
X65197Y518055D01*
X64938Y517962D01*
X64660Y517851D01*
X64382Y517684D01*
X64123Y517462D01*
X64104Y517425D01*
X64030Y517333D01*
X63919Y517184D01*
X63808Y516962D01*
X63679Y516666D01*
X63586Y516314D01*
X63512Y515888D01*
X63475Y515388D01*
Y510000D01*
X61901D01*
Y516018D01*
Y516036D01*
Y516073D01*
Y516110D01*
Y516185D01*
X61883Y516388D01*
X61845Y516610D01*
X61808Y516870D01*
X61734Y517129D01*
X61642Y517370D01*
X61512Y517592D01*
X61494Y517610D01*
X61438Y517684D01*
X61346Y517758D01*
X61216Y517870D01*
X61049Y517962D01*
X60827Y518055D01*
X60568Y518110D01*
X60253Y518129D01*
X60142D01*
X60012Y518110D01*
X59864Y518092D01*
X59679Y518036D01*
X59457Y517981D01*
X59253Y517888D01*
X59031Y517777D01*
X59012Y517758D01*
X58938Y517703D01*
X58846Y517629D01*
X58716Y517518D01*
X58587Y517370D01*
X58457Y517184D01*
X58327Y516981D01*
X58216Y516740D01*
X58198Y516703D01*
X58179Y516610D01*
X58142Y516462D01*
X58087Y516259D01*
X58031Y515981D01*
X57994Y515648D01*
X57976Y515259D01*
X57957Y514814D01*
Y510000D01*
X56383D01*
Y519295D01*
X57790D01*
Y517962D01*
X57809Y517999D01*
X57864Y518073D01*
X57976Y518203D01*
X58105Y518351D01*
X58272Y518536D01*
X58475Y518721D01*
X58698Y518907D01*
X58957Y519073D01*
X58994Y519092D01*
X59086Y519147D01*
X59235Y519203D01*
X59438Y519295D01*
X59679Y519369D01*
X59957Y519425D01*
X60272Y519481D01*
X60605Y519499D01*
X60771D01*
X60975Y519481D01*
X61197Y519444D01*
X61475Y519388D01*
X61753Y519314D01*
X62031Y519203D01*
X62290Y519055D01*
X62327Y519036D01*
X62401Y518980D01*
X62512Y518888D01*
X62660Y518740D01*
X62808Y518573D01*
X62975Y518369D01*
X63123Y518129D01*
X63234Y517851D01*
X63253Y517870D01*
X63290Y517925D01*
X63345Y517999D01*
X63438Y518110D01*
X63549Y518240D01*
X63679Y518369D01*
X63827Y518518D01*
X64012Y518684D01*
X64216Y518832D01*
X64419Y518980D01*
X64660Y519110D01*
X64919Y519240D01*
X65197Y519351D01*
X65493Y519425D01*
X65789Y519481D01*
X66123Y519499D01*
X66252D01*
X66345Y519481D01*
D02*
G37*
G36*
X81269D02*
X81399D01*
X81529Y519462D01*
X81843Y519406D01*
X82177Y519314D01*
X82528Y519166D01*
X82880Y518980D01*
X83177Y518721D01*
X83214Y518684D01*
X83288Y518573D01*
X83417Y518406D01*
X83473Y518277D01*
X83547Y518147D01*
X83621Y517981D01*
X83677Y517814D01*
X83751Y517629D01*
X83806Y517407D01*
X83843Y517184D01*
X83880Y516925D01*
X83917Y516666D01*
Y516370D01*
Y510000D01*
X82343D01*
Y515833D01*
Y515851D01*
Y515870D01*
Y515981D01*
Y516147D01*
X82325Y516351D01*
X82306Y516573D01*
X82288Y516796D01*
X82251Y517018D01*
X82195Y517184D01*
Y517203D01*
X82158Y517258D01*
X82121Y517333D01*
X82066Y517425D01*
X81992Y517536D01*
X81899Y517647D01*
X81788Y517758D01*
X81640Y517870D01*
X81621Y517888D01*
X81566Y517907D01*
X81492Y517944D01*
X81362Y517999D01*
X81232Y518055D01*
X81066Y518092D01*
X80899Y518110D01*
X80695Y518129D01*
X80603D01*
X80529Y518110D01*
X80344Y518092D01*
X80121Y518055D01*
X79862Y517962D01*
X79584Y517851D01*
X79307Y517684D01*
X79047Y517462D01*
X79029Y517425D01*
X78955Y517333D01*
X78844Y517184D01*
X78733Y516962D01*
X78603Y516666D01*
X78510Y516314D01*
X78436Y515888D01*
X78399Y515388D01*
Y510000D01*
X76825D01*
Y516018D01*
Y516036D01*
Y516073D01*
Y516110D01*
Y516185D01*
X76807Y516388D01*
X76770Y516610D01*
X76733Y516870D01*
X76659Y517129D01*
X76566Y517370D01*
X76437Y517592D01*
X76418Y517610D01*
X76363Y517684D01*
X76270Y517758D01*
X76140Y517870D01*
X75974Y517962D01*
X75751Y518055D01*
X75492Y518110D01*
X75177Y518129D01*
X75066D01*
X74937Y518110D01*
X74788Y518092D01*
X74603Y518036D01*
X74381Y517981D01*
X74177Y517888D01*
X73955Y517777D01*
X73937Y517758D01*
X73863Y517703D01*
X73770Y517629D01*
X73640Y517518D01*
X73511Y517370D01*
X73381Y517184D01*
X73252Y516981D01*
X73141Y516740D01*
X73122Y516703D01*
X73103Y516610D01*
X73067Y516462D01*
X73011Y516259D01*
X72955Y515981D01*
X72918Y515648D01*
X72900Y515259D01*
X72881Y514814D01*
Y510000D01*
X71307D01*
Y519295D01*
X72715D01*
Y517962D01*
X72733Y517999D01*
X72789Y518073D01*
X72900Y518203D01*
X73029Y518351D01*
X73196Y518536D01*
X73400Y518721D01*
X73622Y518907D01*
X73881Y519073D01*
X73918Y519092D01*
X74011Y519147D01*
X74159Y519203D01*
X74363Y519295D01*
X74603Y519369D01*
X74881Y519425D01*
X75196Y519481D01*
X75529Y519499D01*
X75696D01*
X75900Y519481D01*
X76122Y519444D01*
X76399Y519388D01*
X76677Y519314D01*
X76955Y519203D01*
X77214Y519055D01*
X77251Y519036D01*
X77325Y518980D01*
X77436Y518888D01*
X77585Y518740D01*
X77733Y518573D01*
X77899Y518369D01*
X78047Y518129D01*
X78159Y517851D01*
X78177Y517870D01*
X78214Y517925D01*
X78270Y517999D01*
X78362Y518110D01*
X78473Y518240D01*
X78603Y518369D01*
X78751Y518518D01*
X78936Y518684D01*
X79140Y518832D01*
X79344Y518980D01*
X79584Y519110D01*
X79844Y519240D01*
X80121Y519351D01*
X80418Y519425D01*
X80714Y519481D01*
X81047Y519499D01*
X81177D01*
X81269Y519481D01*
D02*
G37*
%LPC*%
G36*
X26349Y518203D02*
X26238D01*
X26164Y518184D01*
X25960Y518166D01*
X25720Y518110D01*
X25423Y518018D01*
X25108Y517888D01*
X24812Y517703D01*
X24516Y517462D01*
X24479Y517425D01*
X24405Y517333D01*
X24275Y517166D01*
X24146Y516944D01*
X23997Y516684D01*
X23868Y516351D01*
X23757Y515962D01*
X23701Y515536D01*
X28904D01*
Y515555D01*
Y515592D01*
X28886Y515648D01*
Y515722D01*
X28849Y515944D01*
X28793Y516185D01*
X28701Y516481D01*
X28608Y516759D01*
X28460Y517036D01*
X28293Y517277D01*
Y517295D01*
X28256Y517314D01*
X28164Y517425D01*
X27997Y517573D01*
X27775Y517740D01*
X27497Y517907D01*
X27164Y518055D01*
X26775Y518166D01*
X26571Y518184D01*
X26349Y518203D01*
D02*
G37*
%LPD*%
D10*
X362500Y462500D02*
Y492540D01*
X0Y452500D02*
Y492540D01*
X216798Y490000D02*
X362500D01*
X0D02*
X137573D01*
X347260Y495080D02*
X362500Y490000D01*
X347260Y484920D02*
X362500Y490000D01*
X0D02*
X15240Y484920D01*
X0Y490000D02*
X15240Y495080D01*
X-27540Y0D02*
X0D01*
X-27540Y450000D02*
X0D01*
X-25000Y0D02*
Y181324D01*
Y260548D02*
Y450000D01*
Y0D02*
X-19920Y15240D01*
X-30080D02*
X-25000Y0D01*
X-30080Y434760D02*
X-25000Y450000D01*
X-19920Y434760D01*
X0Y0D02*
Y4998D01*
X2499D01*
X3332Y4165D01*
Y2499D01*
X2499Y1666D01*
X0D01*
X8331Y4165D02*
X7498Y4998D01*
X5831D01*
X4998Y4165D01*
Y833D01*
X5831Y0D01*
X7498D01*
X8331Y833D01*
X9997Y4998D02*
Y0D01*
X12496D01*
X13329Y833D01*
Y1666D01*
X12496Y2499D01*
X9997D01*
X12496D01*
X13329Y3332D01*
Y4165D01*
X12496Y4998D01*
X9997D01*
X23326D02*
X19993D01*
Y0D01*
X23326D01*
X19993Y2499D02*
X21660D01*
X28324Y4998D02*
Y0D01*
X25825D01*
X24992Y833D01*
Y2499D01*
X25825Y3332D01*
X28324D01*
X31656Y-1666D02*
X32489D01*
X33322Y-833D01*
Y3332D01*
X30823D01*
X29990Y2499D01*
Y833D01*
X30823Y0D01*
X33322D01*
X37488D02*
X35822D01*
X34989Y833D01*
Y2499D01*
X35822Y3332D01*
X37488D01*
X38321Y2499D01*
Y1666D01*
X34989D01*
D19*
X362500Y37500D02*
Y412500D01*
X37500Y0D02*
X325000D01*
X0Y37500D02*
Y412500D01*
X37500Y450000D02*
X325000D01*
D20*
X141637Y491015D02*
X144177Y493554D01*
X149255D01*
X151794Y491015D01*
Y488476D01*
X149255Y485937D01*
X146716D01*
X149255D01*
X151794Y483398D01*
Y480858D01*
X149255Y478319D01*
X144177D01*
X141637Y480858D01*
X167029Y493554D02*
X161951Y491015D01*
X156873Y485937D01*
Y480858D01*
X159412Y478319D01*
X164490D01*
X167029Y480858D01*
Y483398D01*
X164490Y485937D01*
X156873D01*
X174647Y475780D02*
X177186Y478319D01*
Y480858D01*
X174647D01*
Y478319D01*
X177186D01*
X174647Y475780D01*
X172108Y473241D01*
X197499Y478319D02*
X187343D01*
X197499Y488476D01*
Y491015D01*
X194960Y493554D01*
X189882D01*
X187343Y491015D01*
X212735Y493554D02*
X202578D01*
Y485937D01*
X207656Y488476D01*
X210195D01*
X212735Y485937D01*
Y480858D01*
X210195Y478319D01*
X205117D01*
X202578Y480858D01*
X-13319Y193005D02*
X-28554D01*
X-20937Y185387D01*
Y195544D01*
X-28554Y210779D02*
Y200623D01*
X-20937D01*
X-23476Y205701D01*
Y208240D01*
X-20937Y210779D01*
X-15859D01*
X-13319Y208240D01*
Y203162D01*
X-15859Y200623D01*
X-10780Y218397D02*
X-13319Y220936D01*
X-15859D01*
Y218397D01*
X-13319D01*
Y220936D01*
X-10780Y218397D01*
X-8241Y215858D01*
X-26015Y231093D02*
X-28554Y233632D01*
Y238710D01*
X-26015Y241249D01*
X-15859D01*
X-13319Y238710D01*
Y233632D01*
X-15859Y231093D01*
X-26015D01*
Y246328D02*
X-28554Y248867D01*
Y253945D01*
X-26015Y256485D01*
X-15859D01*
X-13319Y253945D01*
Y248867D01*
X-15859Y246328D01*
X-26015D01*
M02*
