G04 Layer_Color=8388736*
%FSLAX44Y44*%
%MOMM*%
G71*
G01*
G75*
%ADD10C,0.2540*%
%ADD19C,0.1270*%
%ADD20C,0.1524*%
G36*
X39034Y510000D02*
X37454D01*
Y519285D01*
X39034D01*
Y510000D01*
D02*
G37*
G36*
X4058Y519481D02*
X4311Y519461D01*
X4623Y519422D01*
X4935Y519364D01*
X5267Y519285D01*
X5579Y519168D01*
X5599D01*
X5618Y519149D01*
X5716Y519110D01*
X5872Y519032D01*
X6047Y518954D01*
X6242Y518817D01*
X6457Y518681D01*
X6652Y518505D01*
X6808Y518310D01*
X6827Y518291D01*
X6866Y518213D01*
X6945Y518096D01*
X7042Y517939D01*
X7120Y517744D01*
X7218Y517491D01*
X7296Y517218D01*
X7374Y516906D01*
X5833Y516691D01*
Y516730D01*
X5813Y516808D01*
X5774Y516945D01*
X5716Y517101D01*
X5638Y517276D01*
X5520Y517452D01*
X5384Y517647D01*
X5208Y517803D01*
X5189Y517822D01*
X5111Y517861D01*
X4994Y517939D01*
X4838Y518018D01*
X4643Y518076D01*
X4389Y518154D01*
X4116Y518193D01*
X3784Y518213D01*
X3609D01*
X3414Y518193D01*
X3180Y518173D01*
X2926Y518115D01*
X2673Y518056D01*
X2419Y517959D01*
X2224Y517842D01*
X2204Y517822D01*
X2146Y517783D01*
X2087Y517705D01*
X2009Y517608D01*
X1912Y517491D01*
X1853Y517335D01*
X1795Y517179D01*
X1775Y517003D01*
Y516984D01*
Y516945D01*
X1795Y516886D01*
Y516808D01*
X1853Y516632D01*
X1951Y516437D01*
X1970Y516418D01*
X1990Y516398D01*
X2107Y516301D01*
X2185Y516223D01*
X2282Y516164D01*
X2419Y516086D01*
X2555Y516028D01*
X2575D01*
X2614Y516008D01*
X2692Y515989D01*
X2828Y515950D01*
X3004Y515891D01*
X3258Y515813D01*
X3570Y515735D01*
X3745Y515677D01*
X3960Y515618D01*
X3979D01*
X4038Y515599D01*
X4116Y515579D01*
X4233Y515540D01*
X4370Y515501D01*
X4526Y515462D01*
X4877Y515364D01*
X5267Y515247D01*
X5657Y515111D01*
X6008Y514994D01*
X6164Y514935D01*
X6301Y514877D01*
X6340Y514857D01*
X6418Y514818D01*
X6535Y514760D01*
X6672Y514682D01*
X6847Y514565D01*
X7023Y514409D01*
X7179Y514253D01*
X7335Y514058D01*
X7354Y514038D01*
X7393Y513960D01*
X7452Y513843D01*
X7530Y513687D01*
X7608Y513492D01*
X7666Y513258D01*
X7705Y513004D01*
X7725Y512711D01*
Y512673D01*
Y512575D01*
X7705Y512419D01*
X7666Y512243D01*
X7608Y512009D01*
X7530Y511756D01*
X7413Y511502D01*
X7257Y511229D01*
X7237Y511190D01*
X7179Y511112D01*
X7062Y510995D01*
X6906Y510839D01*
X6730Y510663D01*
X6496Y510488D01*
X6223Y510312D01*
X5911Y510156D01*
X5872Y510136D01*
X5755Y510098D01*
X5579Y510039D01*
X5345Y509981D01*
X5052Y509902D01*
X4721Y509844D01*
X4350Y509805D01*
X3960Y509785D01*
X3784D01*
X3667Y509805D01*
X3511D01*
X3336Y509824D01*
X2926Y509883D01*
X2477Y509961D01*
X2029Y510098D01*
X1580Y510273D01*
X1385Y510390D01*
X1190Y510527D01*
X1170D01*
X1151Y510566D01*
X1034Y510663D01*
X878Y510839D01*
X683Y511092D01*
X488Y511404D01*
X293Y511795D01*
X117Y512243D01*
X0Y512770D01*
X1561Y513024D01*
Y513004D01*
Y512985D01*
X1580Y512868D01*
X1639Y512692D01*
X1697Y512477D01*
X1795Y512243D01*
X1912Y512009D01*
X2087Y511775D01*
X2282Y511561D01*
X2302Y511541D01*
X2399Y511483D01*
X2536Y511404D01*
X2711Y511326D01*
X2965Y511229D01*
X3238Y511151D01*
X3589Y511092D01*
X3960Y511073D01*
X4135D01*
X4331Y511092D01*
X4565Y511131D01*
X4838Y511170D01*
X5111Y511249D01*
X5365Y511366D01*
X5579Y511502D01*
X5599Y511522D01*
X5657Y511580D01*
X5755Y511678D01*
X5852Y511795D01*
X5930Y511951D01*
X6028Y512146D01*
X6086Y512341D01*
X6106Y512555D01*
Y512575D01*
Y512653D01*
X6086Y512731D01*
X6047Y512868D01*
X5989Y512985D01*
X5911Y513141D01*
X5794Y513277D01*
X5638Y513394D01*
X5618Y513414D01*
X5560Y513433D01*
X5462Y513472D01*
X5306Y513550D01*
X5091Y513609D01*
X4818Y513706D01*
X4643Y513765D01*
X4467Y513804D01*
X4253Y513862D01*
X4018Y513921D01*
X3999D01*
X3941Y513941D01*
X3862Y513960D01*
X3745Y513999D01*
X3589Y514038D01*
X3433Y514077D01*
X3063Y514194D01*
X2673Y514311D01*
X2263Y514428D01*
X1892Y514565D01*
X1736Y514623D01*
X1600Y514682D01*
X1580Y514701D01*
X1482Y514740D01*
X1365Y514818D01*
X1229Y514916D01*
X1053Y515033D01*
X897Y515189D01*
X722Y515364D01*
X585Y515560D01*
X566Y515579D01*
X527Y515657D01*
X488Y515774D01*
X429Y515930D01*
X351Y516106D01*
X312Y516320D01*
X273Y516554D01*
X254Y516808D01*
Y516828D01*
Y516906D01*
X273Y517042D01*
X293Y517179D01*
X312Y517354D01*
X371Y517549D01*
X429Y517764D01*
X527Y517959D01*
X546Y517978D01*
X585Y518056D01*
X644Y518154D01*
X741Y518271D01*
X839Y518408D01*
X975Y518544D01*
X1131Y518700D01*
X1307Y518837D01*
X1327Y518856D01*
X1385Y518876D01*
X1463Y518934D01*
X1580Y518993D01*
X1717Y519071D01*
X1892Y519149D01*
X2087Y519227D01*
X2302Y519305D01*
X2341D01*
X2419Y519344D01*
X2536Y519364D01*
X2711Y519403D01*
X2926Y519441D01*
X3141Y519461D01*
X3394Y519500D01*
X3843D01*
X4058Y519481D01*
D02*
G37*
G36*
X20658Y518251D02*
X15625Y512341D01*
X14650Y511249D01*
X14747D01*
X14826Y511268D01*
X15040Y511287D01*
X15294Y511307D01*
X15606D01*
X15937Y511326D01*
X16640Y511346D01*
X20931D01*
Y510000D01*
X12719D01*
Y511268D01*
X18629Y518076D01*
X18454D01*
X18278Y518056D01*
X18025D01*
X17752Y518037D01*
X17459D01*
X17147Y518018D01*
X13070D01*
Y519285D01*
X20658D01*
Y518251D01*
D02*
G37*
G36*
X26627Y519481D02*
X26783Y519461D01*
X26978Y519441D01*
X27174Y519403D01*
X27408Y519344D01*
X27876Y519188D01*
X28129Y519090D01*
X28383Y518954D01*
X28637Y518817D01*
X28890Y518642D01*
X29124Y518447D01*
X29358Y518213D01*
X29378Y518193D01*
X29417Y518154D01*
X29475Y518076D01*
X29553Y517978D01*
X29631Y517842D01*
X29729Y517686D01*
X29846Y517510D01*
X29963Y517296D01*
X30061Y517042D01*
X30178Y516788D01*
X30275Y516496D01*
X30373Y516164D01*
X30431Y515833D01*
X30490Y515462D01*
X30529Y515072D01*
X30548Y514643D01*
Y514623D01*
Y514545D01*
Y514409D01*
X30529Y514233D01*
X23623D01*
Y514214D01*
Y514174D01*
X23643Y514077D01*
Y513979D01*
X23662Y513843D01*
X23682Y513706D01*
X23760Y513355D01*
X23877Y512985D01*
X24013Y512594D01*
X24228Y512204D01*
X24481Y511873D01*
X24521Y511834D01*
X24618Y511756D01*
X24794Y511619D01*
X25008Y511483D01*
X25301Y511326D01*
X25633Y511190D01*
X26003Y511112D01*
X26413Y511073D01*
X26569D01*
X26725Y511092D01*
X26920Y511131D01*
X27154Y511190D01*
X27408Y511268D01*
X27661Y511366D01*
X27895Y511522D01*
X27915Y511541D01*
X27993Y511619D01*
X28110Y511717D01*
X28246Y511892D01*
X28403Y512087D01*
X28558Y512341D01*
X28715Y512653D01*
X28871Y513004D01*
X30490Y512789D01*
Y512770D01*
X30470Y512731D01*
X30451Y512653D01*
X30412Y512555D01*
X30373Y512438D01*
X30314Y512302D01*
X30158Y511970D01*
X29963Y511619D01*
X29729Y511249D01*
X29417Y510878D01*
X29066Y510566D01*
X29046D01*
X29027Y510527D01*
X28968Y510488D01*
X28871Y510449D01*
X28773Y510390D01*
X28656Y510312D01*
X28519Y510254D01*
X28344Y510176D01*
X27973Y510039D01*
X27505Y509902D01*
X26998Y509824D01*
X26413Y509785D01*
X26218D01*
X26081Y509805D01*
X25906Y509824D01*
X25710Y509844D01*
X25496Y509883D01*
X25242Y509941D01*
X24735Y510098D01*
X24462Y510195D01*
X24208Y510312D01*
X23935Y510449D01*
X23682Y510624D01*
X23428Y510819D01*
X23194Y511034D01*
X23175Y511053D01*
X23135Y511092D01*
X23077Y511170D01*
X23019Y511268D01*
X22921Y511385D01*
X22823Y511541D01*
X22706Y511736D01*
X22609Y511951D01*
X22492Y512185D01*
X22375Y512438D01*
X22277Y512731D01*
X22199Y513043D01*
X22121Y513375D01*
X22063Y513745D01*
X22024Y514136D01*
X22004Y514545D01*
Y514565D01*
Y514643D01*
Y514779D01*
X22024Y514935D01*
X22043Y515130D01*
X22063Y515364D01*
X22102Y515618D01*
X22160Y515891D01*
X22297Y516476D01*
X22394Y516769D01*
X22511Y517081D01*
X22648Y517374D01*
X22804Y517666D01*
X22980Y517939D01*
X23194Y518193D01*
X23214Y518213D01*
X23253Y518251D01*
X23311Y518310D01*
X23409Y518408D01*
X23526Y518505D01*
X23682Y518603D01*
X23838Y518720D01*
X24033Y518856D01*
X24247Y518973D01*
X24481Y519090D01*
X24735Y519188D01*
X25028Y519305D01*
X25320Y519383D01*
X25633Y519441D01*
X25964Y519481D01*
X26315Y519500D01*
X26491D01*
X26627Y519481D01*
D02*
G37*
G36*
X11178Y510000D02*
X9597D01*
Y519285D01*
X11178D01*
Y510000D01*
D02*
G37*
G36*
X46095Y519481D02*
X46291Y519461D01*
X46525Y519422D01*
X46798Y519364D01*
X47051Y519285D01*
X47325Y519188D01*
X47364Y519168D01*
X47442Y519129D01*
X47559Y519071D01*
X47715Y518973D01*
X47890Y518856D01*
X48066Y518720D01*
X48241Y518564D01*
X48378Y518388D01*
X48397Y518369D01*
X48436Y518310D01*
X48495Y518193D01*
X48573Y518056D01*
X48651Y517900D01*
X48729Y517705D01*
X48807Y517471D01*
X48865Y517237D01*
Y517218D01*
X48885Y517159D01*
X48905Y517042D01*
X48924Y516886D01*
Y516671D01*
X48944Y516398D01*
X48963Y516086D01*
Y515696D01*
Y510000D01*
X47383D01*
Y515638D01*
Y515657D01*
Y515677D01*
Y515794D01*
Y515969D01*
X47364Y516184D01*
X47344Y516398D01*
X47305Y516652D01*
X47246Y516866D01*
X47188Y517062D01*
Y517081D01*
X47149Y517140D01*
X47110Y517237D01*
X47051Y517335D01*
X46954Y517471D01*
X46837Y517588D01*
X46700Y517725D01*
X46544Y517842D01*
X46525Y517861D01*
X46466Y517881D01*
X46369Y517939D01*
X46232Y517998D01*
X46076Y518037D01*
X45881Y518096D01*
X45686Y518115D01*
X45452Y518134D01*
X45276D01*
X45101Y518096D01*
X44847Y518056D01*
X44574Y517978D01*
X44301Y517861D01*
X43989Y517705D01*
X43716Y517491D01*
X43677Y517452D01*
X43599Y517354D01*
X43481Y517198D01*
X43423Y517081D01*
X43365Y516945D01*
X43286Y516788D01*
X43228Y516613D01*
X43169Y516418D01*
X43111Y516203D01*
X43052Y515950D01*
X43033Y515677D01*
X42994Y515384D01*
Y515072D01*
Y510000D01*
X41414D01*
Y519285D01*
X42838D01*
Y517959D01*
X42857Y517978D01*
X42877Y518018D01*
X42935Y518096D01*
X43033Y518193D01*
X43130Y518310D01*
X43267Y518447D01*
X43404Y518583D01*
X43579Y518739D01*
X43794Y518876D01*
X44008Y519012D01*
X44242Y519149D01*
X44515Y519266D01*
X44788Y519364D01*
X45101Y519441D01*
X45432Y519481D01*
X45783Y519500D01*
X45920D01*
X46095Y519481D01*
D02*
G37*
G36*
X11178Y521022D02*
X9597D01*
Y522816D01*
X11178D01*
Y521022D01*
D02*
G37*
G36*
X39034D02*
X37454D01*
Y522816D01*
X39034D01*
Y521022D01*
D02*
G37*
G36*
X66305Y519481D02*
X66422D01*
X66559Y519461D01*
X66851Y519403D01*
X67202Y519305D01*
X67553Y519168D01*
X67885Y518973D01*
X68197Y518720D01*
X68236Y518681D01*
X68314Y518583D01*
X68431Y518388D01*
X68587Y518134D01*
X68724Y517803D01*
X68841Y517413D01*
X68919Y516925D01*
X68958Y516652D01*
Y516359D01*
Y510000D01*
X67378D01*
Y515833D01*
Y515852D01*
Y515872D01*
Y515989D01*
Y516164D01*
X67358Y516359D01*
X67319Y516808D01*
X67280Y517023D01*
X67222Y517198D01*
Y517218D01*
X67183Y517276D01*
X67144Y517354D01*
X67085Y517452D01*
X67007Y517549D01*
X66910Y517666D01*
X66793Y517783D01*
X66656Y517881D01*
X66637Y517900D01*
X66578Y517920D01*
X66500Y517959D01*
X66403Y518018D01*
X66266Y518056D01*
X66090Y518096D01*
X65915Y518115D01*
X65720Y518134D01*
X65564D01*
X65369Y518096D01*
X65154Y518056D01*
X64900Y517978D01*
X64627Y517861D01*
X64335Y517686D01*
X64081Y517471D01*
X64062Y517432D01*
X63984Y517354D01*
X63886Y517198D01*
X63769Y516964D01*
X63632Y516671D01*
X63535Y516320D01*
X63457Y515891D01*
X63437Y515384D01*
Y510000D01*
X61857D01*
Y516028D01*
Y516047D01*
Y516067D01*
Y516125D01*
Y516203D01*
X61838Y516398D01*
X61818Y516613D01*
X61760Y516886D01*
X61701Y517140D01*
X61604Y517393D01*
X61467Y517608D01*
X61448Y517627D01*
X61389Y517686D01*
X61311Y517783D01*
X61175Y517881D01*
X60999Y517959D01*
X60784Y518056D01*
X60531Y518115D01*
X60219Y518134D01*
X60102D01*
X59985Y518115D01*
X59809Y518096D01*
X59633Y518056D01*
X59419Y517978D01*
X59204Y517900D01*
X58990Y517783D01*
X58970Y517764D01*
X58892Y517725D01*
X58795Y517627D01*
X58678Y517530D01*
X58541Y517374D01*
X58405Y517198D01*
X58288Y516984D01*
X58170Y516749D01*
X58151Y516711D01*
X58131Y516632D01*
X58092Y516476D01*
X58053Y516262D01*
X57995Y515989D01*
X57956Y515657D01*
X57936Y515267D01*
X57917Y514818D01*
Y510000D01*
X56337D01*
Y519285D01*
X57741D01*
Y517978D01*
X57761Y518018D01*
X57819Y518096D01*
X57917Y518213D01*
X58053Y518369D01*
X58210Y518544D01*
X58405Y518720D01*
X58639Y518915D01*
X58892Y519071D01*
X58931Y519090D01*
X59029Y519129D01*
X59185Y519207D01*
X59380Y519285D01*
X59633Y519364D01*
X59907Y519441D01*
X60238Y519481D01*
X60570Y519500D01*
X60745D01*
X60940Y519481D01*
X61175Y519441D01*
X61428Y519403D01*
X61721Y519324D01*
X61994Y519207D01*
X62248Y519071D01*
X62287Y519051D01*
X62365Y518993D01*
X62482Y518895D01*
X62618Y518759D01*
X62774Y518583D01*
X62930Y518388D01*
X63067Y518134D01*
X63184Y517861D01*
X63203Y517881D01*
X63242Y517939D01*
X63301Y518018D01*
X63379Y518115D01*
X63496Y518251D01*
X63632Y518388D01*
X63788Y518525D01*
X63964Y518681D01*
X64159Y518837D01*
X64374Y518973D01*
X64881Y519246D01*
X65154Y519344D01*
X65447Y519422D01*
X65739Y519481D01*
X66071Y519500D01*
X66207D01*
X66305Y519481D01*
D02*
G37*
G36*
X81208D02*
X81326D01*
X81462Y519461D01*
X81755Y519403D01*
X82106Y519305D01*
X82457Y519168D01*
X82789Y518973D01*
X83101Y518720D01*
X83140Y518681D01*
X83218Y518583D01*
X83335Y518388D01*
X83491Y518134D01*
X83627Y517803D01*
X83744Y517413D01*
X83822Y516925D01*
X83862Y516652D01*
Y516359D01*
Y510000D01*
X82281D01*
Y515833D01*
Y515852D01*
Y515872D01*
Y515989D01*
Y516164D01*
X82262Y516359D01*
X82223Y516808D01*
X82184Y517023D01*
X82125Y517198D01*
Y517218D01*
X82086Y517276D01*
X82047Y517354D01*
X81989Y517452D01*
X81911Y517549D01*
X81813Y517666D01*
X81696Y517783D01*
X81560Y517881D01*
X81540Y517900D01*
X81482Y517920D01*
X81404Y517959D01*
X81306Y518018D01*
X81170Y518056D01*
X80994Y518096D01*
X80818Y518115D01*
X80623Y518134D01*
X80467D01*
X80272Y518096D01*
X80057Y518056D01*
X79804Y517978D01*
X79531Y517861D01*
X79238Y517686D01*
X78985Y517471D01*
X78965Y517432D01*
X78887Y517354D01*
X78790Y517198D01*
X78672Y516964D01*
X78536Y516671D01*
X78439Y516320D01*
X78360Y515891D01*
X78341Y515384D01*
Y510000D01*
X76761D01*
Y516028D01*
Y516047D01*
Y516067D01*
Y516125D01*
Y516203D01*
X76741Y516398D01*
X76722Y516613D01*
X76663Y516886D01*
X76605Y517140D01*
X76507Y517393D01*
X76371Y517608D01*
X76351Y517627D01*
X76293Y517686D01*
X76215Y517783D01*
X76078Y517881D01*
X75903Y517959D01*
X75688Y518056D01*
X75434Y518115D01*
X75122Y518134D01*
X75005D01*
X74888Y518115D01*
X74713Y518096D01*
X74537Y518056D01*
X74322Y517978D01*
X74108Y517900D01*
X73893Y517783D01*
X73874Y517764D01*
X73796Y517725D01*
X73698Y517627D01*
X73581Y517530D01*
X73445Y517374D01*
X73308Y517198D01*
X73191Y516984D01*
X73074Y516749D01*
X73054Y516711D01*
X73035Y516632D01*
X72996Y516476D01*
X72957Y516262D01*
X72898Y515989D01*
X72859Y515657D01*
X72840Y515267D01*
X72820Y514818D01*
Y510000D01*
X71240D01*
Y519285D01*
X72645D01*
Y517978D01*
X72664Y518018D01*
X72723Y518096D01*
X72820Y518213D01*
X72957Y518369D01*
X73113Y518544D01*
X73308Y518720D01*
X73542Y518915D01*
X73796Y519071D01*
X73835Y519090D01*
X73932Y519129D01*
X74088Y519207D01*
X74283Y519285D01*
X74537Y519364D01*
X74810Y519441D01*
X75142Y519481D01*
X75473Y519500D01*
X75649D01*
X75844Y519481D01*
X76078Y519441D01*
X76332Y519403D01*
X76624Y519324D01*
X76897Y519207D01*
X77151Y519071D01*
X77190Y519051D01*
X77268Y518993D01*
X77385Y518895D01*
X77522Y518759D01*
X77678Y518583D01*
X77834Y518388D01*
X77970Y518134D01*
X78087Y517861D01*
X78107Y517881D01*
X78146Y517939D01*
X78204Y518018D01*
X78282Y518115D01*
X78399Y518251D01*
X78536Y518388D01*
X78692Y518525D01*
X78868Y518681D01*
X79063Y518837D01*
X79277Y518973D01*
X79784Y519246D01*
X80057Y519344D01*
X80350Y519422D01*
X80643Y519481D01*
X80974Y519500D01*
X81111D01*
X81208Y519481D01*
D02*
G37*
%LPC*%
G36*
X26335Y518213D02*
X26237D01*
X26159Y518193D01*
X25945Y518173D01*
X25691Y518115D01*
X25398Y518037D01*
X25106Y517900D01*
X24794Y517725D01*
X24501Y517471D01*
X24462Y517432D01*
X24384Y517335D01*
X24267Y517179D01*
X24130Y516945D01*
X23994Y516671D01*
X23857Y516340D01*
X23760Y515950D01*
X23701Y515521D01*
X28890D01*
Y515540D01*
Y515579D01*
X28871Y515638D01*
Y515716D01*
X28832Y515930D01*
X28773Y516184D01*
X28695Y516457D01*
X28578Y516749D01*
X28461Y517042D01*
X28285Y517276D01*
Y517296D01*
X28246Y517315D01*
X28149Y517432D01*
X27973Y517569D01*
X27759Y517744D01*
X27466Y517920D01*
X27134Y518076D01*
X26764Y518173D01*
X26549Y518193D01*
X26335Y518213D01*
D02*
G37*
%LPD*%
D10*
X362500Y462500D02*
Y492540D01*
X0Y452500D02*
Y492540D01*
X216798Y490000D02*
X362500D01*
X0D02*
X137573D01*
X347260Y495080D02*
X362500Y490000D01*
X347260Y484920D02*
X362500Y490000D01*
X0D02*
X15240Y484920D01*
X0Y490000D02*
X15240Y495080D01*
X-27540Y0D02*
X0D01*
X-27540Y450000D02*
X0D01*
X-25000Y0D02*
Y181324D01*
Y260548D02*
Y450000D01*
Y0D02*
X-19920Y15240D01*
X-30080D02*
X-25000Y0D01*
X-30080Y434760D02*
X-25000Y450000D01*
X-19920Y434760D01*
X0Y0D02*
Y4998D01*
X2499D01*
X3332Y4165D01*
Y2499D01*
X2499Y1666D01*
X0D01*
X8331Y4165D02*
X7498Y4998D01*
X5831D01*
X4998Y4165D01*
Y833D01*
X5831Y0D01*
X7498D01*
X8331Y833D01*
X9997Y4998D02*
Y0D01*
X12496D01*
X13329Y833D01*
Y1666D01*
X12496Y2499D01*
X9997D01*
X12496D01*
X13329Y3332D01*
Y4165D01*
X12496Y4998D01*
X9997D01*
X23326D02*
X19993D01*
Y0D01*
X23326D01*
X19993Y2499D02*
X21660D01*
X28324Y4998D02*
Y0D01*
X25825D01*
X24992Y833D01*
Y2499D01*
X25825Y3332D01*
X28324D01*
X31656Y-1666D02*
X32489D01*
X33322Y-833D01*
Y3332D01*
X30823D01*
X29990Y2499D01*
Y833D01*
X30823Y0D01*
X33322D01*
X37488D02*
X35822D01*
X34989Y833D01*
Y2499D01*
X35822Y3332D01*
X37488D01*
X38321Y2499D01*
Y1666D01*
X34989D01*
D19*
X362500Y37500D02*
Y412500D01*
X37500Y0D02*
X325000D01*
X0Y37500D02*
Y412500D01*
X37500Y450000D02*
X325000D01*
D20*
X141637Y491015D02*
X144177Y493554D01*
X149255D01*
X151794Y491015D01*
Y488476D01*
X149255Y485937D01*
X146716D01*
X149255D01*
X151794Y483398D01*
Y480858D01*
X149255Y478319D01*
X144177D01*
X141637Y480858D01*
X167029Y493554D02*
X161951Y491015D01*
X156873Y485937D01*
Y480858D01*
X159412Y478319D01*
X164490D01*
X167029Y480858D01*
Y483398D01*
X164490Y485937D01*
X156873D01*
X174647Y475780D02*
X177186Y478319D01*
Y480858D01*
X174647D01*
Y478319D01*
X177186D01*
X174647Y475780D01*
X172108Y473241D01*
X197499Y478319D02*
X187343D01*
X197499Y488476D01*
Y491015D01*
X194960Y493554D01*
X189882D01*
X187343Y491015D01*
X212735Y493554D02*
X202578D01*
Y485937D01*
X207656Y488476D01*
X210195D01*
X212735Y485937D01*
Y480858D01*
X210195Y478319D01*
X205117D01*
X202578Y480858D01*
X-13319Y193005D02*
X-28554D01*
X-20937Y185387D01*
Y195544D01*
X-28554Y210779D02*
Y200623D01*
X-20937D01*
X-23476Y205701D01*
Y208240D01*
X-20937Y210779D01*
X-15859D01*
X-13319Y208240D01*
Y203162D01*
X-15859Y200623D01*
X-10780Y218397D02*
X-13319Y220936D01*
X-15859D01*
Y218397D01*
X-13319D01*
Y220936D01*
X-10780Y218397D01*
X-8241Y215858D01*
X-26015Y231093D02*
X-28554Y233632D01*
Y238710D01*
X-26015Y241249D01*
X-15859D01*
X-13319Y238710D01*
Y233632D01*
X-15859Y231093D01*
X-26015D01*
Y246328D02*
X-28554Y248867D01*
Y253945D01*
X-26015Y256485D01*
X-15859D01*
X-13319Y253945D01*
Y248867D01*
X-15859Y246328D01*
X-26015D01*
M02*
