<?xml version="1.0" encoding="UTF-8" standalone="no"?>
<!-- Created with Inkscape (http://www.inkscape.org/) -->

<svg
   xmlns:dc="http://purl.org/dc/elements/1.1/"
   xmlns:cc="http://creativecommons.org/ns#"
   xmlns:rdf="http://www.w3.org/1999/02/22-rdf-syntax-ns#"
   xmlns:svg="http://www.w3.org/2000/svg"
   xmlns="http://www.w3.org/2000/svg"
   xmlns:sodipodi="http://sodipodi.sourceforge.net/DTD/sodipodi-0.dtd"
   xmlns:inkscape="http://www.inkscape.org/namespaces/inkscape"
   width="36.25mm"
   height="45mm"
   viewBox="0 0 36.25 45"
   version="1.1"
   id="svg8"
   inkscape:export-filename="C:\Users\Afonso Muralha\Desktop\bitmap.png"
   inkscape:export-xdpi="96"
   inkscape:export-ydpi="96"
   sodipodi:docname="drawing.svg"
   inkscape:version="0.92.2 (5c3e80d, 2017-08-06)">
  <defs
     id="defs2" />
  <sodipodi:namedview
     id="base"
     pagecolor="#ffffff"
     bordercolor="#666666"
     borderopacity="1.0"
     inkscape:pageopacity="0.0"
     inkscape:pageshadow="2"
     inkscape:zoom="2.120155"
     inkscape:cx="52"
     inkscape:cy="110.73309"
     inkscape:document-units="mm"
     inkscape:current-layer="layer1"
     showgrid="false"
     inkscape:window-width="1366"
     inkscape:window-height="716"
     inkscape:window-x="-8"
     inkscape:window-y="-8"
     inkscape:window-maximized="1" />
  <metadata
     id="metadata5">
    <rdf:RDF>
      <cc:Work
         rdf:about="">
        <dc:format>image/svg+xml</dc:format>
        <dc:type
           rdf:resource="http://purl.org/dc/dcmitype/StillImage" />
        <dc:title></dc:title>
      </cc:Work>
    </rdf:RDF>
  </metadata>
  <g
     inkscape:label="Layer 1"
     inkscape:groupmode="layer"
     id="layer1"
     transform="translate(0,-252)">
    <g
       id="g3787"
       transform="matrix(0.12967667,0,0,0.12967667,7.9249241,250.94413)" />
    <rect
       style="fill:#000000;stroke-width:0.26439616"
       id="rect27818"
       width="36.5"
       height="45"
       x="0"
       y="252"
       rx="4.0106087"
       ry="3.9837725" />
  </g>
  <g
     inkscape:groupmode="layer"
     id="layer2"
     inkscape:label="Layer 2">
    <circle
       id="path3836"
       cx="23.857054"
       cy="14.02628"
       r="16.386221"
       style="fill:#ffffff;stroke-width:0.26458332" />
    <circle
       style="fill:#000000;stroke-width:0.26458332"
       id="path3840"
       cx="23.714413"
       cy="14.023813"
       r="14.510969" />
  </g>
  <g
     inkscape:groupmode="layer"
     id="layer3"
     inkscape:label="Layer 3">
    <path
       d="m 31.231592,18.945906 c 0.233427,0.233425 0.233427,0.610793 1e-6,0.844218 l -1.547447,1.547445 c -0.233425,0.233425 -0.61079,0.233425 -0.844215,0 -0.233425,-0.233424 -0.233425,-0.610792 0,-0.844217 l 1.547447,-1.547446 c 0.233425,-0.233424 0.610789,-0.233424 0.844214,0 z M 24.899978,12.61429 c 0.233426,0.233424 0.233426,0.610792 10e-7,0.844217 l -1.547447,1.547445 c -0.233426,0.233425 -0.61079,0.233425 -0.844216,0 -0.233425,-0.233424 -0.233425,-0.610792 0,-0.844217 l 1.547447,-1.547445 c 0.233426,-0.233425 0.61079,-0.233425 0.844215,0 z m -5.94454,-6.718693 c 0.233426,0.233433 0.233426,0.6107926 0,0.8442172 l -1.547871,1.547872 c -0.233426,0.2334247 -0.61079,0.2334247 -0.844215,0 -0.233425,-0.2334241 -0.233425,-0.6107921 0,-0.8442167 L 18.111223,5.895597 c 0.233425,-0.2334247 0.61079,-0.2334247 0.844215,0 z m 12.135597,9.814002 c 0.233424,0.233433 0.233424,0.610793 0,0.844218 l -4.643185,4.64319 c -0.233426,0.233425 -0.61079,0.233425 -0.844215,0 -0.233426,-0.233433 -0.233425,-0.610792 0,-0.844217 l 4.643183,-4.643191 c 0.233427,-0.233424 0.61079,-0.233424 0.844217,0 z m -3.376862,-3.37686 c 0.233426,0.233424 0.233426,0.610792 0,0.844217 l -4.643185,4.643182 c -0.233424,0.233433 -0.61079,0.233433 -0.844215,0 -0.233426,-0.233424 -0.233425,-0.610784 0,-0.844209 l 4.643185,-4.64319 c 0.233426,-0.233425 0.61079,-0.233425 0.844215,0 z M 25.181528,9.8000953 c 0.233425,0.2334247 0.233425,0.6107927 0,0.8442177 l -4.643185,4.643182 c -0.233426,0.233424 -0.610791,0.233424 -0.844216,0 -0.233425,-0.233425 -0.233425,-0.610793 0,-0.844217 l 4.643185,-4.6431827 c 0.233426,-0.233424 0.61079,-0.233424 0.844216,0 z M 21.804666,6.4232359 c 0.233425,0.2334246 0.233425,0.6107926 0,0.8442172 L 17.16148,11.910634 c -0.233424,0.233425 -0.61079,0.233425 -0.844214,0 -0.233426,-0.233424 -0.233426,-0.610792 0,-0.844217 L 20.96045,6.4232359 c 0.233426,-0.2334246 0.61079,-0.2334246 0.844216,0 z m 9.919529,5.2763461 c 0.233416,0.233416 0.233429,0.610784 0,0.844217 l -9.286368,9.286365 c -0.233423,0.233424 -0.6108,0.233416 -0.844217,0 -0.233416,-0.233416 -0.233423,-0.610793 0,-0.844217 l 9.28637,-9.286365 c 0.23343,-0.233433 0.610798,-0.233416 0.844215,0 z M 25.814688,5.7900709 c 0.233426,0.2334246 0.233426,0.6107926 1e-6,0.8442172 l -9.28637,9.2863719 c -0.233425,0.233425 -0.610789,0.233425 -0.844214,0 -0.233427,-0.233433 -0.233426,-0.610793 -1e-6,-0.844217 l 9.286369,-9.2863721 c 0.233427,-0.2334247 0.610791,-0.2334247 0.844215,0 z"
       id="path1"
       inkscape:connector-curvature="0"
       style="fill:#ffffff;stroke-width:0.59695041" />
    <text
       xml:space="preserve"
       style="font-style:normal;font-weight:normal;font-size:10.58333302px;line-height:0.01;font-family:sans-serif;letter-spacing:0px;word-spacing:0px;fill:#000000;fill-opacity:1;stroke:none;stroke-width:0.26458332"
       x="22.387201"
       y="36.728745"
       id="text3846"><tspan
         sodipodi:role="line"
         x="22.387201"
         y="39.822575"
         style="font-size:1.76388884px;line-height:0;text-align:center;text-anchor:middle;fill:#ffffff;stroke-width:0.26458332"
         id="tspan3852" /></text>
  </g>
</svg>
