%FSTAX23Y23*%
%MOIN*%
%SFA1B1*%

%IPPOS*%
%ADD15C,0.010000*%
%ADD30C,0.005000*%
%ADD46C,0.000250*%
%ADD47C,0.000500*%
%LNpcb1-1*%
%LPD*%
G36*
X00818Y01385D02*
X00799D01*
Y01328*
X00791*
Y01385*
X00772*
Y01393*
X00818*
Y01385*
G37*
G36*
X00929D02*
X0091D01*
Y01328*
X00901*
Y01385*
X00882*
Y01393*
X00929*
Y01385*
G37*
G36*
X00856Y01393D02*
X00857D01*
X00857Y01393*
X00857*
X00859Y01393*
X0086Y01393*
X0086Y01393*
X00861*
X00861Y01393*
X00861*
X00862Y01392*
X00864Y01392*
X00864Y01392*
X00865*
X00865Y01392*
X00865*
X00866Y01392*
X00867Y01391*
X00868Y01391*
X00868Y01391*
X00868Y01391*
X00868*
Y01383*
X00866Y01384*
X00864Y01385*
X00863Y01385*
X00862Y01385*
X00862Y01385*
X00861Y01385*
X00861*
X00858Y01386*
X00857Y01386*
X00856*
X00855Y01386*
X00854*
X00852Y01386*
X0085Y01386*
X00849Y01385*
X00847Y01385*
X00846Y01384*
X00846Y01384*
X00845Y01384*
X00845Y01384*
X00844Y01383*
X00843Y01381*
X00843Y0138*
X00842Y01379*
X00842Y01378*
X00842Y01377*
Y01376*
Y01376*
Y01376*
X00842Y01374*
X00842Y01373*
X00842Y01373*
X00842Y01372*
X00843Y01372*
X00843Y01371*
Y01371*
X00844Y0137*
X00844Y01369*
X00845Y01368*
X00845Y01368*
X00845Y01368*
X00847Y01367*
X00848Y01366*
X00849Y01366*
X00849Y01366*
X00849Y01366*
X0085*
X00851Y01365*
X00853Y01365*
X00854Y01365*
X00862*
Y01358*
X00855*
X00852Y01358*
X00851Y01358*
X0085Y01358*
X0085Y01357*
X00849Y01357*
X00849Y01357*
X00848*
X00846Y01357*
X00846Y01356*
X00845Y01356*
X00844Y01356*
X00844Y01355*
X00843Y01355*
X00843Y01355*
X00842Y01354*
X00841Y01353*
X0084Y01353*
X0084Y01352*
X0084Y01352*
Y01352*
X0084Y01351*
X00839Y0135*
X00839Y01349*
Y01348*
X00839Y01348*
Y01347*
Y01347*
X00839Y01345*
X00839Y01344*
X00839Y01344*
X00839Y01343*
X0084Y01343*
X0084Y01342*
Y01342*
X00841Y0134*
X00842Y01339*
X00842Y01339*
X00843Y01338*
X00843Y01338*
X00843Y01338*
X00844Y01337*
X00845Y01337*
X00847Y01336*
X00847Y01336*
X00848Y01336*
X00848Y01336*
X00849*
X0085Y01335*
X00851Y01335*
X00853Y01335*
X00854Y01335*
X00855Y01335*
X00859*
X00861Y01335*
X00862*
X00863Y01335*
X00864*
X00866Y01335*
X00867Y01336*
X00868Y01336*
X00869Y01336*
X0087Y01336*
X0087Y01336*
X0087*
Y01328*
X00868Y01328*
X00867Y01328*
X00866Y01328*
X00865*
X00865Y01328*
X00864*
X00862Y01327*
X00861*
X0086Y01327*
X00858*
X00855Y01327*
X00853Y01328*
X00851Y01328*
X00849Y01328*
X00847Y01328*
X00846Y01329*
X00846Y01329*
X00845Y01329*
X00843Y0133*
X00842Y0133*
X0084Y01331*
X00839Y01332*
X00838Y01332*
X00837Y01333*
X00837Y01333*
X00837Y01333*
X00835Y01334*
X00834Y01335*
X00834Y01337*
X00833Y01338*
X00832Y01339*
X00832Y01339*
X00832Y0134*
X00831Y0134*
X00831Y01341*
X0083Y01343*
X0083Y01344*
X0083Y01345*
X0083Y01346*
X0083Y01347*
Y01348*
Y01348*
Y01349*
X0083Y0135*
X0083Y01351*
X0083Y01352*
X00831Y01352*
X00831Y01353*
X00831Y01353*
X00831Y01353*
X00832Y01355*
X00833Y01356*
X00833Y01356*
X00833Y01357*
X00834Y01357*
X00834Y01358*
X00834Y01358*
X00836Y01359*
X00837Y0136*
X00838Y0136*
X00838Y0136*
X00839Y01361*
X00839*
X0084Y01361*
X00842Y01362*
X00843Y01362*
X00843Y01362*
X00843Y01362*
X00843*
X00842Y01363*
X0084Y01364*
X00839Y01365*
X00838Y01366*
X00837Y01367*
X00836Y01368*
X00836Y01368*
X00836Y01368*
X00835Y0137*
X00834Y01371*
X00834Y01373*
X00833Y01374*
X00833Y01376*
X00833Y01377*
Y01377*
Y01377*
Y01377*
Y01379*
X00833Y0138*
X00833Y01381*
X00834Y01382*
X00834Y01383*
X00834Y01384*
X00834Y01384*
X00834Y01384*
X00835Y01385*
X00835Y01386*
X00836Y01387*
X00837Y01388*
X00837Y01388*
X00838Y01389*
X00838Y01389*
X00838Y01389*
X00839Y0139*
X0084Y01391*
X00841Y01391*
X00842Y01392*
X00843Y01392*
X00844Y01392*
X00844Y01392*
X00845*
X00846Y01393*
X00848Y01393*
X00849Y01393*
X00851Y01393*
X00852Y01394*
X00855*
X00856Y01393*
G37*
G36*
X00629D02*
X00631Y01393D01*
X00632Y01393*
X00634Y01393*
X00635Y01392*
X00636Y01392*
X00637Y01392*
X00637Y01392*
X00639Y01391*
X0064Y01391*
X00641Y0139*
X00642Y01389*
X00643Y01389*
X00644Y01388*
X00644Y01388*
X00645Y01388*
X00646Y01387*
X00646Y01386*
X00647Y01385*
X00648Y01384*
X00648Y01383*
X00649Y01383*
X00649Y01382*
X00649Y01382*
X00649Y01381*
X0065Y0138*
X0065Y01379*
X0065Y01378*
Y01377*
X0065Y01376*
Y01376*
Y01376*
X0065Y01374*
X0065Y01373*
X0065Y01372*
X00649Y01371*
X00649Y0137*
X00649Y0137*
X00649Y01369*
Y01369*
X00647Y01367*
X00647Y01366*
X00646Y01366*
X00646Y01365*
X00645Y01365*
X00645Y01364*
X00645Y01364*
X00643Y01363*
X00641Y01362*
X00641Y01361*
X0064Y01361*
X0064Y01361*
X00639Y01361*
X00637Y0136*
X00636Y01359*
X00635Y01359*
X00635Y01358*
X00634Y01358*
X00633Y01358*
X00633Y01358*
X00631Y01357*
X0063Y01357*
X00629Y01356*
X00628Y01356*
X00628Y01356*
X00627Y01356*
X00627Y01355*
X00625Y01355*
X00624Y01354*
X00623Y01354*
X00623Y01353*
X00622Y01353*
X00622Y01353*
X00622Y01353*
X0062Y01352*
X00619Y01351*
X00619Y0135*
X00618Y0135*
X00618Y0135*
X00618Y0135*
X00617Y01349*
X00617Y01348*
X00617Y01347*
X00617Y01346*
X00616Y01346*
Y01345*
Y01345*
X00617Y01343*
X00617Y01342*
X00617Y01342*
X00617Y01341*
X00617Y01341*
Y01341*
X00618Y0134*
X00619Y01339*
X0062Y01338*
X0062Y01338*
X0062Y01338*
X00622Y01337*
X00623Y01336*
X00624Y01336*
X00625Y01336*
X00625Y01336*
X00625*
X00626Y01335*
X00627Y01335*
X00629Y01335*
X0063*
X00631Y01335*
X00634*
X00636Y01335*
X00638Y01335*
X0064Y01335*
X00641Y01336*
X00642Y01336*
X00642Y01336*
X00643*
X00644Y01336*
X00646Y01336*
X00647Y01337*
X00648Y01337*
X0065Y01338*
X0065Y01338*
X00651Y01338*
X00651Y01338*
Y0133*
X0065Y01329*
X00648Y01329*
X00648Y01329*
X00648Y01329*
X00647Y01329*
X00647*
X00646Y01328*
X00644Y01328*
X00644Y01328*
X00643Y01328*
X00643*
X00641Y01328*
X00639Y01328*
X00639*
X00638Y01328*
X00638*
X00636Y01327*
X00635*
X00634Y01327*
X00631*
X00629Y01327*
X00627Y01328*
X00626Y01328*
X00624Y01328*
X00623Y01328*
X00623Y01328*
X00623*
X00621Y01329*
X00619Y01329*
X00618Y0133*
X00617Y01331*
X00616Y01331*
X00615Y01331*
X00615Y01332*
X00614Y01332*
X00613Y01333*
X00612Y01334*
X00611Y01335*
X00611Y01336*
X0061Y01336*
X0061Y01337*
X00609Y01337*
X00609Y01338*
X00609Y01339*
X00608Y0134*
X00608Y01342*
X00608Y01343*
X00607Y01344*
X00607Y01345*
Y01345*
Y01346*
X00607Y01347*
X00608Y01348*
X00608Y01349*
X00608Y0135*
X00608Y01351*
X00609Y01352*
X00609Y01352*
X00609Y01352*
X0061Y01354*
X00611Y01355*
X00611Y01356*
X00612Y01356*
X00612Y01357*
X00613Y01357*
X00613Y01357*
X00615Y01359*
X00616Y0136*
X00617Y0136*
X00618Y01361*
X00618Y01361*
X00618Y01361*
X0062Y01362*
X00621Y01362*
X00622Y01363*
X00623Y01363*
X00624Y01363*
X00624Y01364*
X00624*
X00627Y01365*
X00628Y01365*
X00629Y01365*
X00629Y01366*
X0063Y01366*
X0063Y01366*
X0063*
X00632Y01367*
X00633Y01367*
X00634Y01368*
X00635Y01368*
X00635Y01368*
X00636Y01369*
X00636Y01369*
X00637Y0137*
X00639Y01371*
X00639Y01371*
X00639Y01372*
X00639Y01372*
X0064Y01372*
X0064Y01373*
X0064Y01374*
X00641Y01375*
X00641Y01376*
X00641Y01376*
Y01376*
Y01377*
X00641Y01378*
X0064Y01379*
X0064Y01381*
X00639Y01382*
X00639Y01382*
X00638Y01383*
X00638Y01383*
X00638Y01383*
X00636Y01384*
X00634Y01385*
X00632Y01385*
X00631Y01386*
X00629Y01386*
X00628Y01386*
X00626*
X00624Y01386*
X00623Y01386*
X00621*
X0062Y01386*
X0062Y01385*
X00619Y01385*
X00619*
X00616Y01385*
X00615Y01385*
X00614Y01384*
X00613Y01384*
X00612Y01384*
X00612Y01384*
X00611*
Y01392*
X00613Y01392*
X00614Y01392*
X00614Y01392*
X00615Y01392*
X00615*
X00616Y01392*
X00618Y01393*
X00618*
X00619Y01393*
X00619*
X0062Y01393*
X00622Y01393*
X00622Y01393*
X00623*
X00624Y01393*
X00625Y01394*
X00626*
X00629Y01393*
G37*
G36*
X00703Y01385D02*
X00688D01*
Y01336*
X00703*
Y01328*
X00665*
Y01336*
X0068*
Y01385*
X00665*
Y01393*
X00703*
Y01385*
G37*
G36*
X00759Y01328D02*
X0075D01*
Y01357*
X00746*
X00745Y01357*
X00744Y01357*
X00743Y01357*
X00743*
X00743Y01356*
X00743*
X00741Y01356*
X0074Y01356*
X0074Y01355*
X0074Y01355*
X00739Y01354*
X00738Y01354*
X00737Y01353*
X00737Y01353*
Y01353*
X00736Y01351*
X00736Y0135*
X00735Y0135*
X00735Y01349*
X00735Y01349*
Y01349*
X00725Y01328*
X00715*
X00726Y01349*
X00726Y01351*
X00727Y01352*
X00728Y01353*
X00728Y01354*
X00729Y01355*
X00729Y01355*
X0073Y01355*
X0073Y01356*
X0073Y01356*
X00731Y01357*
X00732Y01358*
X00733Y01358*
X00733Y01358*
X00734Y01359*
X00734Y01359*
X00734*
X00733Y01359*
X00732Y0136*
X00731Y0136*
X0073Y0136*
X00729Y01361*
X00729Y01361*
X00728Y01361*
X00728Y01361*
X00726Y01363*
X00726Y01363*
X00725Y01364*
X00725Y01364*
X00724Y01365*
X00724Y01365*
X00724Y01365*
X00723Y01367*
X00722Y01368*
X00722Y01369*
X00721Y01369*
X00721Y0137*
Y0137*
X00721Y01372*
X00721Y01373*
X0072Y01374*
X0072Y01375*
Y01375*
Y01376*
Y01376*
Y01377*
X00721Y01378*
X00721Y0138*
X00721Y0138*
X00721Y01381*
X00721Y01382*
X00721Y01382*
X00722Y01383*
X00722Y01384*
X00723Y01385*
X00723Y01386*
X00724Y01386*
X00724Y01387*
X00725Y01388*
X00725Y01388*
X00725Y01388*
X00726Y01389*
X00727Y01389*
X00729Y0139*
X0073Y0139*
X00731Y01391*
X00731Y01391*
X00732Y01391*
X00732*
X00734Y01392*
X00735Y01392*
X00737Y01392*
X00738Y01392*
X0074*
X00741Y01393*
X00759*
Y01328*
G37*
G36*
X00631Y01291D02*
X00631Y01291D01*
X00632*
X00632Y0129*
X00632Y0129*
Y0129*
X00632Y01289*
X00632Y01289*
Y01289*
X00633Y01288*
Y01288*
Y01287*
Y01287*
X00632Y01286*
X00632Y01285*
X00632Y01285*
Y01285*
X00632Y01284*
X00631Y01284*
X00631Y01284*
X00601*
X00625Y01232*
X00625Y01232*
X00625Y01231*
Y01231*
Y01231*
X00625Y01231*
X00625Y0123*
X00625Y0123*
Y0123*
X00624Y0123*
X00624Y0123*
X00623Y0123*
X00623*
X00622Y0123*
X0062*
X00619Y0123*
X00619*
X00618Y0123*
X00618*
X00617Y0123*
X00617*
X00617Y0123*
X00616Y0123*
X00616*
X00616Y01231*
X00616Y01231*
Y01231*
X00594Y01282*
X00594Y01283*
X00593Y01283*
X00593Y01283*
Y01283*
X00593Y01284*
X00593Y01284*
Y01284*
X00593Y01285*
Y01285*
X00593Y01286*
Y01286*
X00593Y01286*
Y01287*
Y01287*
Y01287*
Y01288*
X00593Y01289*
X00593Y01289*
Y01289*
X00593Y0129*
X00593Y0129*
X00593Y0129*
Y0129*
X00593Y0129*
X00594Y01291*
X00594Y01291*
X00594*
X00595Y01291*
X00631*
X00631Y01291*
G37*
G36*
X0066Y01291D02*
X00661D01*
X00661Y01291*
X00661*
X00662Y01291*
X00662Y01291*
X00662*
X00663Y01291*
X00677Y01282*
X00677Y01281*
X00677Y01281*
X00677Y01281*
X00678Y01281*
X00678Y01281*
Y01281*
X00678Y0128*
X00678Y0128*
Y0128*
Y01279*
Y01278*
Y01278*
Y01277*
X00678Y01277*
Y01277*
Y01276*
X00678Y01276*
X00678Y01276*
X00677Y01275*
Y01275*
X00677Y01275*
X00677*
X00676Y01275*
X00676Y01275*
X00675Y01276*
X00675Y01276*
X00663Y01283*
Y01236*
X00676*
X00677Y01236*
X00677Y01236*
X00677*
X00677Y01236*
X00677Y01236*
Y01235*
X00677Y01235*
X00677Y01235*
X00678Y01235*
Y01234*
X00678Y01234*
Y01233*
Y01233*
Y01232*
X00678Y01232*
Y01232*
Y01231*
X00677Y01231*
X00677Y01231*
Y0123*
X00677Y0123*
X00677Y0123*
X00676Y0123*
X00644*
X00644Y0123*
X00644*
X00643Y0123*
X00643Y0123*
X00643Y01231*
X00643Y01231*
Y01231*
X00643Y01232*
X00642Y01232*
Y01233*
Y01233*
Y01234*
X00643Y01234*
X00643Y01234*
Y01234*
X00643Y01235*
X00643Y01235*
X00643Y01235*
Y01235*
X00643Y01236*
X00643Y01236*
X00643*
X00644Y01236*
X00655*
Y0129*
X00655Y0129*
X00655Y01291*
X00656Y01291*
X00656Y01291*
X00656Y01291*
X00656*
X00656Y01291*
X00657Y01291*
X00657Y01291*
X00657*
X00658Y01291*
X0066*
X0066Y01291*
G37*
G36*
X00726Y01291D02*
X00726Y01291D01*
X00726*
X00727Y01291*
X00727*
X00728Y01291*
X00728*
X00728Y01291*
X00728Y0129*
Y0129*
X00728Y0129*
Y0129*
Y0129*
Y01231*
X00728Y01231*
Y01231*
Y0123*
X00728Y0123*
X00728Y0123*
X00728*
X00727Y0123*
X00727*
X00726Y0123*
X00726*
X00726Y0123*
X00724*
X00723Y0123*
X00723*
X00722Y0123*
X00722*
X00721Y0123*
X00721*
X00721Y0123*
X00721Y0123*
X0072Y01231*
Y01231*
Y01262*
X00698Y01231*
X00697Y01231*
X00697Y0123*
X00697Y0123*
X00697Y0123*
X00696Y0123*
X00696Y0123*
X00696*
X00695Y0123*
X00692*
X00691Y0123*
X00691*
X0069Y0123*
X0069*
X0069Y0123*
X00689*
X00689Y0123*
X00689Y0123*
X00689Y0123*
X00689Y01231*
Y01231*
X00689Y01232*
X00689Y01232*
Y01232*
X00689Y01232*
X00689Y01233*
X0069Y01233*
X0069Y01234*
X00712Y01263*
X00691Y01287*
X00691Y01287*
X0069Y01288*
X0069Y01288*
Y01288*
X0069Y01289*
X0069Y01289*
Y0129*
Y0129*
X0069Y0129*
X0069Y0129*
X0069Y0129*
X0069Y01291*
X00691Y01291*
X00691*
X00691Y01291*
X00691Y01291*
X00692Y01291*
X00692*
X00693Y01291*
X00693Y01291*
X00695*
X00696Y01291*
X00696*
X00696Y01291*
X00697Y01291*
X00697Y01291*
X00697*
X00698Y01291*
X00698Y0129*
X00698Y0129*
X00699Y0129*
X00699Y0129*
X00699Y0129*
X0072Y01263*
Y0129*
X0072Y0129*
X00721Y0129*
X00721Y01291*
X00721Y01291*
X00721*
X00722Y01291*
X00722*
X00722Y01291*
X00723*
X00723Y01291*
X00724Y01291*
X00725*
X00726Y01291*
G37*
G36*
X0088Y01291D02*
X0088Y0129D01*
X00881Y0129*
X00881Y0129*
X00882Y01289*
X00882Y01288*
X00882Y01288*
Y01287*
Y01287*
Y01231*
X00882Y01231*
Y0123*
Y0123*
X00882Y0123*
X00882Y0123*
X00881Y0123*
X00881*
X00881Y0123*
X00881*
X0088Y0123*
X0088*
X00879Y0123*
X00877*
X00877Y0123*
X00876*
X00876Y0123*
X00875*
X00875Y0123*
X00875*
X00874Y0123*
X00874Y0123*
X00874Y01231*
Y01231*
Y01231*
Y01284*
X00853Y01231*
X00853Y0123*
X00853Y0123*
X00852Y0123*
X00852Y0123*
X00852*
X00851Y0123*
X00851Y0123*
X00851*
X00851Y0123*
X00849*
X00848Y0123*
X00848*
X00847Y0123*
X00847*
X00847Y0123*
X00847*
X00846Y0123*
X00846Y0123*
X00846Y0123*
X00846Y01231*
X00845Y01231*
X00824Y01284*
X00824*
Y01231*
X00824Y01231*
Y0123*
Y0123*
X00823Y0123*
X00823Y0123*
X00823*
X00823Y0123*
X00822*
X00822Y0123*
X00822*
X00821Y0123*
X00819*
X00818Y0123*
X00818*
X00817Y0123*
X00817*
X00817Y0123*
X00817*
X00816Y0123*
X00816Y0123*
X00816Y01231*
Y01231*
Y01231*
Y01287*
Y01288*
X00816Y01288*
X00816Y01289*
X00816Y01289*
X00816Y01289*
X00816Y0129*
X00817Y0129*
X00817Y0129*
X00817Y01291*
X00818Y01291*
X00818*
X00818Y01291*
X00819Y01291*
X00825*
X00826Y01291*
X00826Y01291*
X00826Y01291*
X00827Y0129*
X00828Y0129*
X00828Y0129*
X00828Y0129*
X00829Y01289*
X00829Y01289*
X00829Y01288*
X0083Y01288*
X0083Y01287*
X0083Y01287*
X0083Y01286*
X00831Y01286*
Y01286*
X00849Y01242*
X00849*
X00867Y01286*
X00867Y01287*
X00867Y01288*
X00867Y01288*
X00868Y01288*
X00868Y01289*
X00869Y01289*
X00869Y0129*
X00869Y0129*
X0087Y0129*
X0087Y0129*
X00871Y01291*
X00871*
X00872Y01291*
X00873Y01291*
X00879*
X0088Y01291*
G37*
G36*
X0092Y01291D02*
X00921D01*
X00921Y01291*
X00922Y01291*
X00922Y01291*
X00922*
X00923Y01291*
X00923Y0129*
X00923Y0129*
X00923Y0129*
X00924Y0129*
Y0129*
X00944Y01233*
X00944Y01232*
X00944Y01231*
X00944Y01231*
Y01231*
X00944Y01231*
X00944Y0123*
X00944Y0123*
Y0123*
X00944Y0123*
X00943Y0123*
X00943Y0123*
X00943*
X00942Y0123*
X0094*
X00939Y0123*
X00938*
X00938Y0123*
X00937*
X00937Y0123*
X00937*
X00937Y0123*
X00936Y0123*
X00936Y01231*
X00936Y01231*
Y01231*
X00931Y01246*
X00906*
X009Y01231*
X009Y01231*
X009Y0123*
Y0123*
X009Y0123*
X00899Y0123*
X00899Y0123*
X00898*
X00898Y0123*
X00898*
X00897Y0123*
X00895*
X00894Y0123*
X00893*
X00893Y0123*
X00892Y0123*
X00892Y0123*
X00892*
X00892Y0123*
X00892Y01231*
Y01231*
Y01231*
Y01232*
X00892Y01232*
X00892Y01233*
X00892Y01233*
X00913Y01289*
X00913Y0129*
X00913Y0129*
X00913Y0129*
X00913Y01291*
X00914Y01291*
X00914Y01291*
X00914*
X00915Y01291*
X00915Y01291*
X00916Y01291*
X00916*
X00917Y01291*
X0092*
X0092Y01291*
G37*
G36*
X00764Y01292D02*
X00765Y01292D01*
X00766*
X00767Y01292*
X00767Y01291*
X00768Y01291*
X00768*
X00769Y01291*
X0077Y01291*
X00771Y0129*
X00771Y0129*
X00772Y0129*
X00772Y0129*
X00772*
X00774Y01289*
X00775Y01289*
X00775Y01289*
X00776Y01288*
X00776Y01288*
X00776*
X00777Y01288*
X00777Y01287*
X00778Y01287*
X00778Y01287*
X00778Y01286*
X00778Y01286*
Y01286*
X00779Y01286*
X00779Y01285*
Y01285*
X00779Y01285*
Y01284*
Y01284*
Y01284*
Y01283*
Y01283*
Y01283*
Y01282*
Y01282*
Y01281*
X00779Y01281*
Y01281*
X00779Y0128*
Y0128*
X00778Y0128*
X00778Y0128*
X00778Y0128*
X00778*
X00777Y0128*
X00777Y0128*
X00776Y0128*
X00776Y0128*
X00775Y01281*
X00774Y01281*
X00773Y01282*
X00773Y01282*
X00773*
X00771Y01283*
X0077Y01283*
X00769Y01284*
X00769Y01284*
X00769Y01284*
X00769*
X00767Y01284*
X00765Y01285*
X00764Y01285*
X00763*
X00762Y01285*
X00761Y01284*
X0076Y01284*
X0076Y01284*
X00759Y01284*
X00759Y01284*
X00759*
X00757Y01283*
X00757Y01283*
X00756Y01282*
X00756Y01282*
Y01282*
X00755Y01281*
X00754Y0128*
X00754Y01279*
X00754Y01279*
X00754Y01279*
Y01278*
X00753Y01277*
X00753Y01276*
X00753Y01275*
Y01275*
Y01275*
Y01275*
X00753Y01273*
X00753Y01272*
X00753Y01271*
Y01271*
X00753Y0127*
Y0127*
X00754Y01269*
X00754Y01267*
X00755Y01266*
X00755Y01266*
X00755Y01265*
X00755Y01265*
X00756Y01264*
X00756Y01263*
X00757Y01262*
X00758Y01261*
X00758Y0126*
X00759Y01259*
X00759Y01259*
X00759Y01259*
X0076Y01257*
X00761Y01256*
X00762Y01255*
X00763Y01254*
X00764Y01253*
X00765Y01252*
X00766Y01251*
X00766Y01251*
X00778Y01238*
X00779Y01238*
X00779Y01237*
X00779Y01237*
X0078Y01237*
X0078Y01236*
Y01236*
X0078Y01235*
X0078Y01235*
Y01235*
Y01234*
Y01234*
Y01234*
Y01233*
Y01233*
X0078Y01232*
Y01232*
Y01232*
X0078Y01231*
X0078Y01231*
X0078Y01231*
Y0123*
X00779Y0123*
X00779Y0123*
X00779*
X00778Y0123*
X00744*
X00743Y0123*
X00743*
X00742Y0123*
X00742Y01231*
Y01231*
X00742Y01231*
X00742Y01232*
Y01232*
X00742Y01232*
X00742Y01233*
Y01233*
Y01233*
Y01234*
X00742Y01234*
X00742Y01235*
Y01235*
X00742Y01235*
X00742Y01235*
X00742Y01236*
Y01236*
X00743Y01236*
X00743Y01237*
X00743*
X00743Y01237*
X0077*
X00761Y01247*
X00759Y01249*
X00757Y01251*
X00756Y01252*
X00754Y01254*
X00754Y01255*
X00753Y01256*
X00752Y01256*
X00752Y01256*
X00751Y01258*
X0075Y01259*
X00749Y0126*
X00749Y01262*
X00748Y01263*
X00748Y01263*
X00748Y01264*
X00747Y01264*
X00746Y01266*
X00746Y01267*
X00746Y01268*
X00745Y01269*
X00745Y0127*
X00745Y0127*
Y0127*
X00745Y01272*
X00745Y01273*
Y01274*
X00745Y01275*
Y01275*
Y01276*
Y01276*
X00745Y01278*
X00745Y01279*
X00745Y0128*
X00745Y01281*
X00745Y01282*
X00746Y01282*
Y01282*
X00747Y01284*
X00747Y01285*
X00748Y01286*
X00748Y01286*
X00749Y01287*
X00749Y01287*
X00749Y01287*
X00751Y01289*
X00753Y0129*
X00753Y0129*
X00754Y0129*
X00754Y01291*
X00754*
X00756Y01291*
X00757Y01291*
X00758Y01292*
X0076Y01292*
X00761*
X00762Y01292*
X00762*
X00764Y01292*
G37*
%LNpcb1-2*%
%LPC*%
G36*
X0075Y01385D02*
X00742D01*
X0074Y01385*
X00738Y01385*
X00736Y01384*
X00735Y01384*
X00734Y01383*
X00733Y01383*
X00733Y01383*
X00733Y01383*
X00732Y01382*
X00731Y0138*
X0073Y01379*
X0073Y01378*
X0073Y01377*
X00729Y01376*
Y01375*
Y01375*
Y01375*
X0073Y01373*
X0073Y01372*
X0073Y01371*
X0073Y01371*
X0073Y0137*
X0073Y0137*
Y0137*
X00731Y01369*
X00732Y01368*
X00733Y01367*
X00733Y01367*
X00733Y01367*
X00735Y01366*
X00736Y01365*
X00737Y01365*
X00737Y01365*
X00737Y01365*
X00737*
X00739Y01364*
X00741Y01364*
X00742Y01364*
X0075*
Y01385*
G37*
G36*
X00919Y01283D02*
X00918D01*
X00908Y01252*
X00929*
X00919Y01283*
G37*
%LNpcb1-3*%
%LPD*%
G54D15*
X00994Y0122D02*
D01*
X0099Y0122*
X00987Y01219*
X00983Y01219*
X0098Y01218*
X00977Y01217*
X00974Y01216*
X0097Y01214*
X00968Y01212*
X00965Y01211*
X00962Y01208*
X00959Y01206*
X00957Y01204*
X00955Y01201*
X00953Y01198*
X00951Y01195*
X00949Y01192*
X00948Y01189*
X00947Y01186*
X00946Y01183*
X00945Y01179*
X00945Y01176*
X00944Y01172*
X00944Y01171*
X00551Y01564D02*
D01*
X00554Y01565*
X00558Y01565*
X00561Y01566*
X00564Y01566*
X00568Y01567*
X00571Y01569*
X00574Y0157*
X00577Y01572*
X0058Y01574*
X00582Y01576*
X00585Y01578*
X00587Y01581*
X00589Y01583*
X00591Y01586*
X00593Y01589*
X00595Y01592*
X00596Y01595*
X00597Y01598*
X00598Y01602*
X00599Y01605*
X006Y01609*
X006Y01612*
X006Y01614*
X01387Y01633D02*
D01*
X01387Y0164*
X01386Y01647*
X01385Y01654*
X01383Y0166*
X01381Y01667*
X01379Y01673*
X01376Y0168*
X01372Y01686*
X01368Y01691*
X01364Y01697*
X0136Y01702*
X01355Y01707*
X01349Y01711*
X01344Y01715*
X01338Y01719*
X01332Y01722*
X01326Y01725*
X01319Y01727*
X01313Y01729*
X01306Y0173*
X01299Y01731*
X01292Y01732*
X01285*
X01279Y01731*
X01272Y0173*
X01265Y01729*
X01258Y01727*
X01252Y01725*
X01246Y01722*
X0124Y01719*
X01234Y01715*
X01228Y01711*
X01223Y01707*
X01218Y01702*
X01213Y01697*
X01209Y01691*
X01205Y01686*
X01202Y0168*
X01199Y01673*
X01196Y01667*
X01194Y0166*
X01193Y01654*
X01191Y01647*
X01191Y0164*
X0119Y01633*
X01191Y01626*
X01191Y0162*
X01193Y01613*
X01194Y01606*
X01196Y016*
X01199Y01593*
X01202Y01587*
X01205Y01581*
X01209Y01576*
X01213Y0157*
X01218Y01565*
X01223Y0156*
X01228Y01556*
X01234Y01552*
X0124Y01548*
X01246Y01545*
X01252Y01542*
X01258Y0154*
X01265Y01538*
X01272Y01536*
X01279Y01535*
X01285Y01535*
X01292*
X01299Y01535*
X01306Y01536*
X01313Y01538*
X01319Y0154*
X01326Y01542*
X01332Y01545*
X01338Y01548*
X01344Y01552*
X01349Y01556*
X01355Y0156*
X0136Y01565*
X01363Y01569*
X01387Y01633D02*
D01*
X01387Y0164*
X01386Y01647*
X01385Y01654*
X01383Y0166*
X01381Y01667*
X01379Y01673*
X01376Y0168*
X01372Y01686*
X01368Y01691*
X01364Y01697*
X0136Y01702*
X01355Y01707*
X01349Y01711*
X01344Y01715*
X01338Y01719*
X01332Y01722*
X01326Y01725*
X01319Y01727*
X01313Y01729*
X01306Y0173*
X01299Y01731*
X01292Y01732*
X01285*
X01279Y01731*
X01272Y0173*
X01265Y01729*
X01258Y01727*
X01252Y01725*
X01246Y01722*
X0124Y01719*
X01234Y01715*
X01228Y01711*
X01223Y01707*
X01218Y01702*
X01213Y01697*
X01209Y01691*
X01205Y01686*
X01202Y0168*
X01199Y01673*
X01196Y01667*
X01194Y0166*
X01193Y01654*
X01191Y01647*
X01191Y0164*
X0119Y01633*
X01191Y01626*
X01191Y0162*
X01193Y01613*
X01194Y01606*
X01196Y016*
X01199Y01593*
X01202Y01587*
X01205Y01581*
X01209Y01576*
X01213Y0157*
X01218Y01565*
X01223Y0156*
X01228Y01556*
X01234Y01552*
X0124Y01548*
X01246Y01545*
X01252Y01542*
X01258Y0154*
X01265Y01538*
X01272Y01536*
X01279Y01535*
X01285Y01535*
X01292*
X01299Y01535*
X01306Y01536*
X01313Y01538*
X01319Y0154*
X01326Y01542*
X01332Y01545*
X01338Y01548*
X01344Y01552*
X01349Y01556*
X01355Y0156*
X0136Y01565*
X01363Y01569*
X01387Y01633D02*
D01*
X01387Y0164*
X01386Y01647*
X01385Y01654*
X01383Y0166*
X01381Y01667*
X01379Y01673*
X01376Y0168*
X01372Y01686*
X01368Y01691*
X01364Y01697*
X0136Y01702*
X01355Y01707*
X01349Y01711*
X01344Y01715*
X01338Y01719*
X01332Y01722*
X01326Y01725*
X01319Y01727*
X01313Y01729*
X01306Y0173*
X01299Y01731*
X01292Y01732*
X01285*
X01279Y01731*
X01272Y0173*
X01265Y01729*
X01258Y01727*
X01252Y01725*
X01246Y01722*
X0124Y01719*
X01234Y01715*
X01228Y01711*
X01223Y01707*
X01218Y01702*
X01213Y01697*
X01209Y01691*
X01205Y01686*
X01202Y0168*
X01199Y01673*
X01196Y01667*
X01194Y0166*
X01193Y01654*
X01191Y01647*
X01191Y0164*
X0119Y01633*
X01191Y01626*
X01191Y0162*
X01193Y01613*
X01194Y01606*
X01196Y016*
X01199Y01593*
X01202Y01587*
X01205Y01581*
X01209Y01576*
X01213Y0157*
X01218Y01565*
X01223Y0156*
X01228Y01556*
X01234Y01552*
X0124Y01548*
X01246Y01545*
X01252Y01542*
X01258Y0154*
X01265Y01538*
X01272Y01536*
X01279Y01535*
X01285Y01535*
X01292*
X01299Y01535*
X01306Y01536*
X01313Y01538*
X01319Y0154*
X01326Y01542*
X01332Y01545*
X01338Y01548*
X01344Y01552*
X01349Y01556*
X01355Y0156*
X0136Y01565*
X01364Y0157*
X01368Y01576*
X01372Y01581*
X01376Y01587*
X01379Y01593*
X01381Y016*
X01383Y01606*
X01385Y01613*
X01386Y0162*
X01387Y01626*
X01387Y01633*
X006Y01614D02*
X00944D01*
X00994D01*
Y0122D02*
Y01614D01*
X00551Y01171D02*
X00944D01*
X00551D02*
Y01564D01*
X01227Y00971D02*
Y01001D01*
X01212Y00986D02*
X01242D01*
G54D30*
X0134Y00911D02*
Y00954D01*
X01196D02*
X0134D01*
Y00679D02*
Y00722D01*
X01196Y00679D02*
X0134D01*
X00214Y00954D02*
X00358D01*
X00214Y00911D02*
Y00954D01*
Y00679D02*
X00358D01*
X00214D02*
Y00722D01*
X00358Y00679D02*
X00365Y00659D01*
X00377Y00632*
X00382Y00621*
X00389Y00607*
X00396Y00594*
X00405Y00579*
X00413Y00567*
X00422Y00554*
X00437Y00536*
X0045Y0052*
X00468Y00502*
X01187Y00653D02*
X01196Y00679D01*
X01175Y00625D02*
X01187Y00653D01*
X01167Y0061D02*
X01175Y00625D01*
X01156Y00591D02*
X01167Y0061D01*
X0114Y00566D02*
X01156Y00591D01*
X0112Y00539D02*
X0114Y00566D01*
X01106Y00522D02*
X0112Y00539D01*
X01086Y00502D02*
X01106Y00522D01*
X01189Y00975D02*
X01196Y00954D01*
X01172Y01012D02*
X01189Y00975D01*
X01158Y01038D02*
X01172Y01012D01*
X01145Y0106D02*
X01158Y01038D01*
X01129Y01081D02*
X01145Y0106D01*
X01113Y01103D02*
X01129Y01081D01*
X01095Y01123D02*
X01113Y01103D01*
X01086Y01131D02*
X01095Y01123D01*
X00358Y00954D02*
X00364Y0097D01*
X00372Y00991*
X00382Y01012*
X00396Y01039*
X00416Y01069*
X00433Y01092*
X00454Y01116*
X00467Y0113*
X00468Y01131D02*
X01086D01*
X00468Y00501D02*
X01086D01*
G54D46*
X00722Y01427D02*
X00723D01*
X00721Y01427D02*
X00724D01*
X00721Y01428D02*
X00724D01*
X00721Y01428D02*
X00725D01*
X0072Y01428D02*
X00725D01*
X0072Y01428D02*
X00726D01*
X00719Y01429D02*
X00726D01*
X00719Y01429D02*
X00727D01*
X00718Y01429D02*
X00727D01*
X00718Y01429D02*
X00728D01*
X00717Y0143D02*
X00728D01*
X00717Y0143D02*
X00729D01*
X00716Y0143D02*
X00729D01*
X00716Y0143D02*
X00729D01*
X00716Y01431D02*
X0073D01*
X00715Y01431D02*
X0073D01*
X00715Y01431D02*
X00731D01*
X00714Y01431D02*
X00721D01*
X00721D02*
X00731D01*
X00714Y01432D02*
X0072D01*
X00721D02*
X00732D01*
X00713Y01432D02*
X0072D01*
X00721D02*
X00732D01*
X00713Y01432D02*
X00719D01*
X00721D02*
X00733D01*
X00712Y01432D02*
X00719D01*
X00721D02*
X00733D01*
X00712Y01433D02*
X00718D01*
X00721D02*
X00734D01*
X00711Y01433D02*
X00718D01*
X00721D02*
X00734D01*
X00711Y01433D02*
X00718D01*
X00721D02*
X00734D01*
X0071Y01433D02*
X00717D01*
X00721D02*
X00735D01*
X0071Y01434D02*
X00717D01*
X00721D02*
X00735D01*
X0071Y01434D02*
X00716D01*
X00721D02*
X00736D01*
X00709Y01434D02*
X00716D01*
X00721D02*
X00736D01*
X00709Y01434D02*
X00715D01*
X00721D02*
X00737D01*
X00708Y01435D02*
X00715D01*
X00721D02*
X00737D01*
X00708Y01435D02*
X00714D01*
X00721D02*
X00738D01*
X00707Y01435D02*
X00714D01*
X00721D02*
X00738D01*
X00707Y01435D02*
X00713D01*
X00721D02*
X00739D01*
X00706Y01436D02*
X00713D01*
X00721D02*
X00739D01*
X00706Y01436D02*
X00713D01*
X00721D02*
X0074D01*
X00705Y01436D02*
X00712D01*
X00721D02*
X0074D01*
X00705Y01436D02*
X00712D01*
X00721D02*
X0074D01*
X00705Y01437D02*
X00711D01*
X00721D02*
X00741D01*
X00704Y01437D02*
X00711D01*
X00721D02*
X00741D01*
X00704Y01437D02*
X0071D01*
X00721D02*
X00742D01*
X00703Y01437D02*
X0071D01*
X00721D02*
X00742D01*
X00703Y01438D02*
X00709D01*
X00721D02*
X00743D01*
X00702Y01438D02*
X00709D01*
X00721D02*
X00743D01*
X00702Y01438D02*
X00708D01*
X00721D02*
X00744D01*
X00701Y01438D02*
X00708D01*
X00721D02*
X00744D01*
X00701Y01439D02*
X00707D01*
X00721D02*
X00745D01*
X007Y01439D02*
X00707D01*
X00721D02*
X00745D01*
X007Y01439D02*
X00707D01*
X00721D02*
X00745D01*
X00699Y01439D02*
X00706D01*
X00721D02*
X00746D01*
X00699Y0144D02*
X00706D01*
X00721D02*
X00746D01*
X00699Y0144D02*
X00705D01*
X00721D02*
X00747D01*
X00698Y0144D02*
X00705D01*
X00721D02*
X00747D01*
X00698Y0144D02*
X00704D01*
X00721D02*
X00748D01*
X00697Y01441D02*
X00704D01*
X00721D02*
X00748D01*
X00697Y01441D02*
X00703D01*
X00721D02*
X00749D01*
X00696Y01441D02*
X00703D01*
X00721D02*
X00749D01*
X00696Y01441D02*
X00702D01*
X00721D02*
X0075D01*
X00695Y01442D02*
X00702D01*
X00721D02*
X0075D01*
X00695Y01442D02*
X00702D01*
X00721D02*
X00751D01*
X00694Y01442D02*
X00701D01*
X00721D02*
X00751D01*
X00694Y01442D02*
X00701D01*
X00721D02*
X00751D01*
X00694Y01443D02*
X007D01*
X00721D02*
X00752D01*
X00693Y01443D02*
X007D01*
X00721D02*
X00752D01*
X00693Y01443D02*
X00699D01*
X00721D02*
X00753D01*
X00692Y01443D02*
X00699D01*
X00721D02*
X00753D01*
X00692Y01444D02*
X00698D01*
X00721D02*
X00754D01*
X00691Y01444D02*
X00698D01*
X00721D02*
X00754D01*
X00691Y01444D02*
X00697D01*
X00721D02*
X00754D01*
X0069Y01444D02*
X00697D01*
X00721D02*
X00755D01*
X0069Y01445D02*
X00696D01*
X00721D02*
X00755D01*
X00689Y01445D02*
X00696D01*
X00721D02*
X00755D01*
X00689Y01445D02*
X00696D01*
X00721D02*
X00755D01*
X00688Y01445D02*
X00695D01*
X00721D02*
X00755D01*
X00688Y01446D02*
X00695D01*
X00721D02*
X00755D01*
X00688Y01446D02*
X00694D01*
X00721D02*
X00755D01*
X00687Y01446D02*
X00694D01*
X00721D02*
X00755D01*
X00687Y01446D02*
X00694D01*
X00721D02*
X00755D01*
X00686Y01447D02*
X00694D01*
X00721D02*
X00755D01*
X00686Y01447D02*
X00694D01*
X00721D02*
X00755D01*
X00685Y01447D02*
X00694D01*
X00721D02*
X00755D01*
X00685Y01447D02*
X00694D01*
X00721D02*
X00755D01*
X00684Y01448D02*
X00694D01*
X00721D02*
X00755D01*
X00684Y01448D02*
X00694D01*
X00721D02*
X00755D01*
X00683Y01448D02*
X0069D01*
X00691D02*
X00694D01*
X00721D02*
X00755D01*
X00683Y01448D02*
X0069D01*
X00691D02*
X00694D01*
X00721D02*
X00755D01*
X00683Y01449D02*
X00689D01*
X00691D02*
X00694D01*
X00721D02*
X00755D01*
X00682Y01449D02*
X00689D01*
X00691D02*
X00694D01*
X00721D02*
X00755D01*
X00682Y01449D02*
X00688D01*
X00691D02*
X00694D01*
X00721D02*
X00755D01*
X00681Y01449D02*
X00688D01*
X00691D02*
X00694D01*
X00721D02*
X00755D01*
X00681Y0145D02*
X00687D01*
X00691D02*
X00694D01*
X00721D02*
X00755D01*
X0068Y0145D02*
X00687D01*
X00691D02*
X00694D01*
X00721D02*
X00755D01*
X0068Y0145D02*
X00686D01*
X00691D02*
X00694D01*
X00721D02*
X00755D01*
X00679Y0145D02*
X00686D01*
X00691D02*
X00694D01*
X00721D02*
X00755D01*
X00679Y01451D02*
X00685D01*
X00691D02*
X00694D01*
X00721D02*
X00755D01*
X00678Y01451D02*
X00685D01*
X00691D02*
X00694D01*
X00721D02*
X00755D01*
X00678Y01451D02*
X00685D01*
X00691D02*
X00694D01*
X00721D02*
X00755D01*
X00677Y01451D02*
X00684D01*
X00691D02*
X00694D01*
X00721D02*
X00755D01*
X00677Y01452D02*
X00684D01*
X00691D02*
X00694D01*
X00721D02*
X00755D01*
X00677Y01452D02*
X00683D01*
X00691D02*
X00694D01*
X00721D02*
X00755D01*
X00676Y01452D02*
X00683D01*
X00691D02*
X00694D01*
X00721D02*
X00755D01*
X00676Y01452D02*
X00682D01*
X00691D02*
X00694D01*
X00721D02*
X00755D01*
X00675Y01453D02*
X00682D01*
X00691D02*
X00694D01*
X00721D02*
X00755D01*
X00675Y01453D02*
X00681D01*
X00691D02*
X00694D01*
X00721D02*
X00755D01*
X00674Y01453D02*
X00681D01*
X00691D02*
X00694D01*
X00721D02*
X00755D01*
X00674Y01453D02*
X0068D01*
X00691D02*
X00694D01*
X00721D02*
X00755D01*
X00673Y01454D02*
X0068D01*
X00691D02*
X00694D01*
X00721D02*
X00755D01*
X00673Y01454D02*
X0068D01*
X00691D02*
X00694D01*
X00721D02*
X00755D01*
X00672Y01454D02*
X00679D01*
X00691D02*
X00694D01*
X00721D02*
X00755D01*
X00672Y01454D02*
X00679D01*
X00691D02*
X00694D01*
X00721D02*
X00755D01*
X00672Y01455D02*
X00678D01*
X00691D02*
X00694D01*
X00721D02*
X00755D01*
X00671Y01455D02*
X00678D01*
X00691D02*
X00694D01*
X00721D02*
X00755D01*
X00671Y01455D02*
X00677D01*
X00691D02*
X00694D01*
X00721D02*
X00755D01*
X0067Y01455D02*
X00677D01*
X00691D02*
X00694D01*
X00721D02*
X00755D01*
X0067Y01456D02*
X00676D01*
X00691D02*
X00694D01*
X00721D02*
X00755D01*
X00669Y01456D02*
X00676D01*
X00691D02*
X00694D01*
X00721D02*
X00755D01*
X00669Y01456D02*
X00675D01*
X00691D02*
X00694D01*
X00721D02*
X00755D01*
X00668Y01456D02*
X00675D01*
X00691D02*
X00694D01*
X00721D02*
X00755D01*
X00668Y01457D02*
X00675D01*
X00691D02*
X00694D01*
X00721D02*
X00755D01*
X00667Y01457D02*
X00674D01*
X00691D02*
X00694D01*
X00721D02*
X00755D01*
X00667Y01457D02*
X00674D01*
X00691D02*
X00694D01*
X00721D02*
X00755D01*
X00667Y01457D02*
X00673D01*
X00691D02*
X00694D01*
X00721D02*
X00755D01*
X00666Y01458D02*
X00673D01*
X00691D02*
X00694D01*
X00721D02*
X00755D01*
X00666Y01458D02*
X00672D01*
X00691D02*
X00694D01*
X00721D02*
X00755D01*
X00665Y01458D02*
X00672D01*
X00691D02*
X00694D01*
X00721D02*
X00755D01*
X00665Y01458D02*
X00671D01*
X00691D02*
X00694D01*
X00721D02*
X00755D01*
X00664Y01459D02*
X00671D01*
X00691D02*
X00694D01*
X00721D02*
X00755D01*
X00664Y01459D02*
X0067D01*
X00691D02*
X00694D01*
X00721D02*
X00755D01*
X00663Y01459D02*
X0067D01*
X00691D02*
X00694D01*
X00721D02*
X00755D01*
X00663Y01459D02*
X00669D01*
X00691D02*
X00694D01*
X00721D02*
X00755D01*
X00662Y0146D02*
X00669D01*
X00691D02*
X00694D01*
X00721D02*
X00755D01*
X00662Y0146D02*
X00669D01*
X00691D02*
X00694D01*
X00721D02*
X00755D01*
X00661Y0146D02*
X00668D01*
X00691D02*
X00694D01*
X00721D02*
X00755D01*
X00661Y0146D02*
X00668D01*
X00691D02*
X00694D01*
X00721D02*
X00755D01*
X00661Y01461D02*
X00667D01*
X00691D02*
X00694D01*
X00721D02*
X00755D01*
X0066Y01461D02*
X00667D01*
X00691D02*
X00694D01*
X00721D02*
X00755D01*
X0066Y01461D02*
X00666D01*
X00691D02*
X00694D01*
X00721D02*
X00755D01*
X0066Y01461D02*
X00666D01*
X00691D02*
X00694D01*
X0072D02*
X00755D01*
X0066Y01462D02*
X00665D01*
X00691D02*
X00694D01*
X0072D02*
X00755D01*
X0066Y01462D02*
X00665D01*
X00691D02*
X00694D01*
X00719D02*
X00755D01*
X0066Y01462D02*
X00664D01*
X00691D02*
X00694D01*
X00719D02*
X00755D01*
X0066Y01462D02*
X00664D01*
X00691D02*
X00694D01*
X00718D02*
X00755D01*
X0066Y01463D02*
X00664D01*
X00691D02*
X00694D01*
X00718D02*
X00755D01*
X0066Y01463D02*
X00663D01*
X00691D02*
X00694D01*
X00718D02*
X00755D01*
X0066Y01463D02*
X00663D01*
X00691D02*
X00694D01*
X00717D02*
X00755D01*
X0066Y01463D02*
X00663D01*
X00691D02*
X00694D01*
X00717D02*
X00755D01*
X0066Y01464D02*
X00663D01*
X00691D02*
X00694D01*
X00716D02*
X00755D01*
X0066Y01464D02*
X00663D01*
X00691D02*
X00694D01*
X00716D02*
X00755D01*
X0066Y01464D02*
X00663D01*
X00691D02*
X00694D01*
X00715D02*
X00755D01*
X0066Y01464D02*
X00663D01*
X00691D02*
X00694D01*
X00715D02*
X00755D01*
X0066Y01465D02*
X00663D01*
X00691D02*
X00694D01*
X00714D02*
X00755D01*
X0066Y01465D02*
X00663D01*
X00691D02*
X00694D01*
X00714D02*
X00755D01*
X0066Y01465D02*
X00663D01*
X00691D02*
X00694D01*
X00713D02*
X00755D01*
X0066Y01465D02*
X00663D01*
X00691D02*
X00694D01*
X00713D02*
X00755D01*
X0066Y01466D02*
X00663D01*
X00691D02*
X00694D01*
X00713D02*
X00755D01*
X0066Y01466D02*
X00663D01*
X00691D02*
X00694D01*
X00712D02*
X00755D01*
X0066Y01466D02*
X00663D01*
X00691D02*
X00694D01*
X00712D02*
X00755D01*
X0066Y01466D02*
X00663D01*
X00691D02*
X00694D01*
X00711D02*
X00755D01*
X0066Y01467D02*
X00663D01*
X00691D02*
X00694D01*
X00711D02*
X00755D01*
X0066Y01467D02*
X00663D01*
X00691D02*
X00694D01*
X0071D02*
X00755D01*
X0066Y01467D02*
X00663D01*
X00691D02*
X00694D01*
X0071D02*
X00755D01*
X0066Y01467D02*
X00663D01*
X00691D02*
X00694D01*
X00709D02*
X00755D01*
X0066Y01468D02*
X00663D01*
X00691D02*
X00694D01*
X00709D02*
X00755D01*
X0066Y01468D02*
X00663D01*
X00691D02*
X00694D01*
X00708D02*
X00755D01*
X0066Y01468D02*
X00663D01*
X00691D02*
X00694D01*
X00708D02*
X00755D01*
X0066Y01468D02*
X00663D01*
X00691D02*
X00694D01*
X00707D02*
X00755D01*
X0066Y01469D02*
X00663D01*
X00691D02*
X00694D01*
X00707D02*
X00755D01*
X0066Y01469D02*
X00663D01*
X00691D02*
X00694D01*
X00707D02*
X00755D01*
X0066Y01469D02*
X00663D01*
X00691D02*
X00694D01*
X00706D02*
X00755D01*
X0066Y01469D02*
X00663D01*
X00691D02*
X00694D01*
X00706D02*
X00755D01*
X0066Y0147D02*
X00663D01*
X00691D02*
X00694D01*
X00705D02*
X00755D01*
X0066Y0147D02*
X00663D01*
X00691D02*
X00694D01*
X00705D02*
X00755D01*
X0066Y0147D02*
X00663D01*
X00691D02*
X00694D01*
X00704D02*
X00755D01*
X0066Y0147D02*
X00663D01*
X00691D02*
X00694D01*
X00704D02*
X00755D01*
X0066Y01471D02*
X00663D01*
X00691D02*
X00694D01*
X00703D02*
X00755D01*
X0066Y01471D02*
X00663D01*
X00691D02*
X00694D01*
X00703D02*
X00755D01*
X0066Y01471D02*
X00663D01*
X00691D02*
X00694D01*
X00702D02*
X00755D01*
X0066Y01471D02*
X00663D01*
X00691D02*
X00694D01*
X00702D02*
X00755D01*
X0066Y01472D02*
X00663D01*
X00691D02*
X00694D01*
X00702D02*
X00755D01*
X0066Y01472D02*
X00663D01*
X00691D02*
X00694D01*
X00701D02*
X00755D01*
X0066Y01472D02*
X00663D01*
X00691D02*
X00694D01*
X00701D02*
X00755D01*
X0066Y01472D02*
X00663D01*
X00691D02*
X00694D01*
X007D02*
X00755D01*
X0066Y01473D02*
X00663D01*
X00691D02*
X00694D01*
X007D02*
X00755D01*
X0066Y01473D02*
X00663D01*
X00691D02*
X00694D01*
X00699D02*
X00755D01*
X0066Y01473D02*
X00663D01*
X00691D02*
X00694D01*
X00699D02*
X00755D01*
X0066Y01473D02*
X00663D01*
X00691D02*
X00694D01*
X00698D02*
X00755D01*
X0066Y01474D02*
X00663D01*
X00691D02*
X00694D01*
X00698D02*
X00755D01*
X0066Y01474D02*
X00663D01*
X00691D02*
X00694D01*
X00697D02*
X00755D01*
X0066Y01474D02*
X00663D01*
X00691D02*
X00694D01*
X00697D02*
X00755D01*
X0066Y01474D02*
X00663D01*
X00691D02*
X00694D01*
X00696D02*
X00755D01*
X0066Y01475D02*
X00663D01*
X00691D02*
X00694D01*
X00696D02*
X00755D01*
X0066Y01475D02*
X00663D01*
X00691D02*
X00694D01*
X00696D02*
X00755D01*
X0066Y01475D02*
X00663D01*
X00691D02*
X00694D01*
X00695D02*
X00755D01*
X0066Y01475D02*
X00663D01*
X00691D02*
X00694D01*
X00695D02*
X00755D01*
X0066Y01476D02*
X00663D01*
X00691D02*
X00694D01*
X00694D02*
X00755D01*
X0066Y01476D02*
X00663D01*
X00691D02*
X00755D01*
X0066Y01476D02*
X00663D01*
X00691D02*
X00755D01*
X0066Y01476D02*
X00663D01*
X00691D02*
X00755D01*
X0066Y01477D02*
X00663D01*
X00691D02*
X00755D01*
X0066Y01477D02*
X00663D01*
X00691D02*
X00755D01*
X0066Y01477D02*
X00663D01*
X00691D02*
X00755D01*
X0066Y01477D02*
X00663D01*
X00691D02*
X00755D01*
X0066Y01478D02*
X00663D01*
X00691D02*
X00755D01*
X0066Y01478D02*
X00663D01*
X0069D02*
X00755D01*
X0066Y01478D02*
X00663D01*
X0069D02*
X00755D01*
X0066Y01478D02*
X00663D01*
X00689D02*
X00755D01*
X0066Y01479D02*
X00663D01*
X00689D02*
X00755D01*
X0066Y01479D02*
X00663D01*
X00688D02*
X00755D01*
X0066Y01479D02*
X00663D01*
X00688D02*
X00755D01*
X0066Y01479D02*
X00663D01*
X00687D02*
X00755D01*
X0066Y0148D02*
X00663D01*
X00687D02*
X00754D01*
X0066Y0148D02*
X00663D01*
X00686D02*
X00754D01*
X0066Y0148D02*
X00663D01*
X00686D02*
X00754D01*
X0066Y0148D02*
X00663D01*
X00685D02*
X00753D01*
X0066Y01481D02*
X00663D01*
X00685D02*
X00753D01*
X0066Y01481D02*
X00663D01*
X00685D02*
X00752D01*
X0066Y01481D02*
X00663D01*
X00684D02*
X00752D01*
X0066Y01481D02*
X00663D01*
X00684D02*
X0069D01*
X00691D02*
X00751D01*
X0066Y01482D02*
X00663D01*
X00683D02*
X0069D01*
X00691D02*
X00751D01*
X0066Y01482D02*
X00663D01*
X00683D02*
X00689D01*
X00691D02*
X00751D01*
X0066Y01482D02*
X00663D01*
X00682D02*
X00689D01*
X00691D02*
X0075D01*
X0066Y01482D02*
X00663D01*
X00682D02*
X00688D01*
X00691D02*
X0075D01*
X0066Y01483D02*
X00663D01*
X00681D02*
X00688D01*
X00691D02*
X00749D01*
X0066Y01483D02*
X00663D01*
X00681D02*
X00688D01*
X00691D02*
X00749D01*
X0066Y01483D02*
X00663D01*
X0068D02*
X00687D01*
X00691D02*
X00748D01*
X0066Y01483D02*
X00663D01*
X0068D02*
X00687D01*
X00691D02*
X00748D01*
X0066Y01484D02*
X00663D01*
X0068D02*
X00686D01*
X00691D02*
X00747D01*
X0066Y01484D02*
X00663D01*
X00679D02*
X00686D01*
X00691D02*
X00747D01*
X0066Y01484D02*
X00663D01*
X00679D02*
X00685D01*
X00691D02*
X00746D01*
X0066Y01484D02*
X00663D01*
X00678D02*
X00685D01*
X00691D02*
X00746D01*
X0066Y01485D02*
X00663D01*
X00678D02*
X00684D01*
X00691D02*
X00745D01*
X0066Y01485D02*
X00663D01*
X00677D02*
X00684D01*
X00691D02*
X00745D01*
X0066Y01485D02*
X00663D01*
X00677D02*
X00683D01*
X00691D02*
X00745D01*
X0066Y01485D02*
X00663D01*
X00676D02*
X00683D01*
X00691D02*
X00744D01*
X0066Y01486D02*
X00663D01*
X00676D02*
X00683D01*
X00691D02*
X00744D01*
X0066Y01486D02*
X00663D01*
X00675D02*
X00682D01*
X00691D02*
X00743D01*
X0066Y01486D02*
X00663D01*
X00675D02*
X00682D01*
X00691D02*
X00743D01*
X0066Y01486D02*
X00663D01*
X00675D02*
X00681D01*
X00691D02*
X00742D01*
X0066Y01487D02*
X00663D01*
X00674D02*
X00681D01*
X00691D02*
X00742D01*
X0066Y01487D02*
X00663D01*
X00674D02*
X0068D01*
X00691D02*
X00741D01*
X0066Y01487D02*
X00663D01*
X00673D02*
X0068D01*
X00691D02*
X00741D01*
X0066Y01487D02*
X00663D01*
X00673D02*
X00679D01*
X00691D02*
X0074D01*
X0066Y01488D02*
X00663D01*
X00672D02*
X00679D01*
X00691D02*
X0074D01*
X0066Y01488D02*
X00663D01*
X00672D02*
X00678D01*
X00691D02*
X0074D01*
X0066Y01488D02*
X00663D01*
X00671D02*
X00678D01*
X00691D02*
X00739D01*
X0066Y01488D02*
X00663D01*
X00671D02*
X00677D01*
X00691D02*
X00739D01*
X0066Y01489D02*
X00663D01*
X0067D02*
X00677D01*
X00691D02*
X00738D01*
X0066Y01489D02*
X00663D01*
X0067D02*
X00677D01*
X00691D02*
X00738D01*
X0066Y01489D02*
X00663D01*
X00669D02*
X00676D01*
X00691D02*
X00737D01*
X0066Y01489D02*
X00663D01*
X00669D02*
X00676D01*
X00691D02*
X00737D01*
X0066Y0149D02*
X00663D01*
X00669D02*
X00675D01*
X00691D02*
X00736D01*
X0066Y0149D02*
X00663D01*
X00668D02*
X00675D01*
X00691D02*
X00736D01*
X0066Y0149D02*
X00663D01*
X00668D02*
X00674D01*
X00691D02*
X00735D01*
X0066Y0149D02*
X00663D01*
X00667D02*
X00674D01*
X00691D02*
X00735D01*
X0066Y01491D02*
X00663D01*
X00667D02*
X00673D01*
X00691D02*
X00734D01*
X0066Y01491D02*
X00663D01*
X00666D02*
X00673D01*
X00691D02*
X00734D01*
X0066Y01491D02*
X00663D01*
X00666D02*
X00672D01*
X00691D02*
X00734D01*
X0066Y01491D02*
X00663D01*
X00665D02*
X00672D01*
X00691D02*
X00733D01*
X0066Y01492D02*
X00663D01*
X00665D02*
X00672D01*
X00691D02*
X00733D01*
X0066Y01492D02*
X00663D01*
X00664D02*
X00671D01*
X00691D02*
X00732D01*
X0066Y01492D02*
X00663D01*
X00664D02*
X00671D01*
X00691D02*
X00732D01*
X0066Y01492D02*
X00663D01*
X00664D02*
X0067D01*
X00691D02*
X00731D01*
X0066Y01493D02*
X0067D01*
X00691D02*
X00731D01*
X0066Y01493D02*
X00669D01*
X00691D02*
X0073D01*
X0066Y01493D02*
X00669D01*
X00691D02*
X0073D01*
X0066Y01493D02*
X00668D01*
X00691D02*
X00729D01*
X0066Y01494D02*
X00668D01*
X00691D02*
X00729D01*
X0066Y01494D02*
X00667D01*
X00691D02*
X00729D01*
X0066Y01494D02*
X00667D01*
X00691D02*
X00728D01*
X0066Y01494D02*
X00666D01*
X00691D02*
X00728D01*
X00659Y01495D02*
X00666D01*
X00691D02*
X00727D01*
X00659Y01495D02*
X00666D01*
X00691D02*
X00727D01*
X00658Y01495D02*
X00665D01*
X00691D02*
X00726D01*
X00658Y01495D02*
X00665D01*
X00691D02*
X00726D01*
X00658Y01496D02*
X00664D01*
X00691D02*
X00725D01*
X00657Y01496D02*
X00664D01*
X00691D02*
X00725D01*
X00657Y01496D02*
X00663D01*
X00691D02*
X00724D01*
X00656Y01496D02*
X00663D01*
X00691D02*
X00724D01*
X00656Y01497D02*
X00663D01*
X00691D02*
X00724D01*
X00655Y01497D02*
X00663D01*
X00691D02*
X00724D01*
X00655Y01497D02*
X00663D01*
X00691D02*
X00724D01*
X00654Y01497D02*
X00663D01*
X00691D02*
X00724D01*
X00654Y01498D02*
X00663D01*
X00691D02*
X00724D01*
X00653Y01498D02*
X00663D01*
X00691D02*
X00724D01*
X00653Y01498D02*
X0066D01*
X0066D02*
X00663D01*
X00691D02*
X00724D01*
X00653Y01498D02*
X00659D01*
X0066D02*
X00663D01*
X00691D02*
X00724D01*
X00652Y01499D02*
X00659D01*
X0066D02*
X00663D01*
X00691D02*
X00724D01*
X00652Y01499D02*
X00658D01*
X0066D02*
X00663D01*
X00691D02*
X00724D01*
X00651Y01499D02*
X00658D01*
X0066D02*
X00663D01*
X00691D02*
X00724D01*
X00651Y01499D02*
X00657D01*
X0066D02*
X00663D01*
X00691D02*
X00724D01*
X0065Y015D02*
X00657D01*
X0066D02*
X00663D01*
X00691D02*
X00724D01*
X0065Y015D02*
X00656D01*
X0066D02*
X00663D01*
X00691D02*
X00724D01*
X00649Y015D02*
X00656D01*
X0066D02*
X00663D01*
X00691D02*
X00724D01*
X00649Y015D02*
X00655D01*
X0066D02*
X00663D01*
X00691D02*
X00724D01*
X00648Y01501D02*
X00655D01*
X0066D02*
X00663D01*
X00691D02*
X00724D01*
X00648Y01501D02*
X00655D01*
X0066D02*
X00663D01*
X00691D02*
X00724D01*
X00647Y01501D02*
X00654D01*
X0066D02*
X00663D01*
X00691D02*
X00724D01*
X00647Y01501D02*
X00654D01*
X0066D02*
X00663D01*
X00691D02*
X00724D01*
X00647Y01502D02*
X00653D01*
X0066D02*
X00663D01*
X00691D02*
X00724D01*
X00646Y01502D02*
X00653D01*
X0066D02*
X00663D01*
X00691D02*
X00724D01*
X00646Y01502D02*
X00652D01*
X0066D02*
X00663D01*
X00691D02*
X00724D01*
X00645Y01502D02*
X00652D01*
X0066D02*
X00663D01*
X00691D02*
X00724D01*
X00645Y01503D02*
X00651D01*
X0066D02*
X00663D01*
X00691D02*
X00724D01*
X00644Y01503D02*
X00651D01*
X0066D02*
X00663D01*
X00691D02*
X00724D01*
X00644Y01503D02*
X0065D01*
X0066D02*
X00663D01*
X00691D02*
X00724D01*
X00643Y01503D02*
X0065D01*
X0066D02*
X00663D01*
X00691D02*
X00724D01*
X00643Y01504D02*
X0065D01*
X0066D02*
X00663D01*
X00691D02*
X00724D01*
X00642Y01504D02*
X00649D01*
X0066D02*
X00663D01*
X00691D02*
X00724D01*
X00642Y01504D02*
X00649D01*
X0066D02*
X00663D01*
X00691D02*
X00724D01*
X00642Y01504D02*
X00648D01*
X0066D02*
X00663D01*
X00691D02*
X00724D01*
X00641Y01505D02*
X00648D01*
X0066D02*
X00663D01*
X00691D02*
X00724D01*
X00641Y01505D02*
X00647D01*
X0066D02*
X00663D01*
X00691D02*
X00724D01*
X0064Y01505D02*
X00647D01*
X0066D02*
X00663D01*
X00691D02*
X00724D01*
X0064Y01505D02*
X00646D01*
X0066D02*
X00663D01*
X00691D02*
X00724D01*
X00639Y01506D02*
X00646D01*
X0066D02*
X00663D01*
X00691D02*
X00724D01*
X00639Y01506D02*
X00645D01*
X0066D02*
X00663D01*
X00691D02*
X00724D01*
X00638Y01506D02*
X00645D01*
X0066D02*
X00663D01*
X00691D02*
X00724D01*
X00638Y01506D02*
X00644D01*
X0066D02*
X00663D01*
X00691D02*
X00724D01*
X00637Y01507D02*
X00644D01*
X0066D02*
X00663D01*
X00691D02*
X00724D01*
X00637Y01507D02*
X00644D01*
X0066D02*
X00663D01*
X00691D02*
X00724D01*
X00636Y01507D02*
X00643D01*
X0066D02*
X00663D01*
X00691D02*
X00724D01*
X00636Y01507D02*
X00643D01*
X0066D02*
X00663D01*
X00691D02*
X00724D01*
X00636Y01508D02*
X00642D01*
X0066D02*
X00663D01*
X00691D02*
X00724D01*
X00635Y01508D02*
X00642D01*
X0066D02*
X00663D01*
X00691D02*
X00724D01*
X00635Y01508D02*
X00641D01*
X0066D02*
X00663D01*
X00691D02*
X00724D01*
X00634Y01508D02*
X00641D01*
X0066D02*
X00663D01*
X00691D02*
X00724D01*
X00634Y01509D02*
X0064D01*
X0066D02*
X00663D01*
X00691D02*
X00724D01*
X00633Y01509D02*
X0064D01*
X0066D02*
X00663D01*
X00691D02*
X00724D01*
X00633Y01509D02*
X00639D01*
X0066D02*
X00663D01*
X00691D02*
X00724D01*
X00632Y01509D02*
X00639D01*
X0066D02*
X00663D01*
X00691D02*
X00724D01*
X00632Y0151D02*
X00639D01*
X0066D02*
X00663D01*
X00691D02*
X00724D01*
X00631Y0151D02*
X00638D01*
X0066D02*
X00663D01*
X00691D02*
X00724D01*
X00631Y0151D02*
X00638D01*
X0066D02*
X00663D01*
X00691D02*
X00724D01*
X00631Y0151D02*
X00637D01*
X0066D02*
X00663D01*
X00691D02*
X00724D01*
X0063Y01511D02*
X00637D01*
X0066D02*
X00663D01*
X00691D02*
X00724D01*
X0063Y01511D02*
X00636D01*
X0066D02*
X00663D01*
X00691D02*
X00724D01*
X0063Y01511D02*
X00636D01*
X0066D02*
X00663D01*
X0069D02*
X00724D01*
X00629Y01511D02*
X00635D01*
X0066D02*
X00663D01*
X0069D02*
X00724D01*
X00629Y01512D02*
X00635D01*
X0066D02*
X00663D01*
X00689D02*
X00724D01*
X00629Y01512D02*
X00634D01*
X0066D02*
X00663D01*
X00689D02*
X00724D01*
X00629Y01512D02*
X00634D01*
X0066D02*
X00663D01*
X00688D02*
X00724D01*
X00629Y01512D02*
X00633D01*
X0066D02*
X00663D01*
X00688D02*
X00724D01*
X00629Y01513D02*
X00633D01*
X0066D02*
X00663D01*
X00688D02*
X00724D01*
X00629Y01513D02*
X00633D01*
X0066D02*
X00663D01*
X00687D02*
X00724D01*
X00629Y01513D02*
X00633D01*
X0066D02*
X00663D01*
X00687D02*
X00724D01*
X00629Y01513D02*
X00633D01*
X0066D02*
X00663D01*
X00686D02*
X00724D01*
X00629Y01514D02*
X00633D01*
X0066D02*
X00663D01*
X00686D02*
X00724D01*
X00629Y01514D02*
X00633D01*
X0066D02*
X00663D01*
X00685D02*
X00724D01*
X00629Y01514D02*
X00633D01*
X0066D02*
X00663D01*
X00685D02*
X00724D01*
X00629Y01514D02*
X00633D01*
X0066D02*
X00663D01*
X00684D02*
X00724D01*
X00629Y01515D02*
X00633D01*
X0066D02*
X00663D01*
X00684D02*
X00724D01*
X00629Y01515D02*
X00633D01*
X0066D02*
X00663D01*
X00683D02*
X00724D01*
X00629Y01515D02*
X00633D01*
X0066D02*
X00663D01*
X00683D02*
X00724D01*
X00629Y01515D02*
X00633D01*
X0066D02*
X00663D01*
X00683D02*
X00724D01*
X00629Y01516D02*
X00633D01*
X0066D02*
X00663D01*
X00682D02*
X00724D01*
X00629Y01516D02*
X00633D01*
X0066D02*
X00663D01*
X00682D02*
X00724D01*
X00629Y01516D02*
X00633D01*
X0066D02*
X00663D01*
X00681D02*
X00724D01*
X00629Y01516D02*
X00633D01*
X0066D02*
X00663D01*
X00681D02*
X00724D01*
X00629Y01517D02*
X00633D01*
X0066D02*
X00663D01*
X0068D02*
X00724D01*
X00629Y01517D02*
X00633D01*
X0066D02*
X00663D01*
X0068D02*
X00724D01*
X00629Y01517D02*
X00633D01*
X0066D02*
X00663D01*
X00679D02*
X00724D01*
X00629Y01517D02*
X00633D01*
X0066D02*
X00663D01*
X00679D02*
X00724D01*
X00629Y01518D02*
X00633D01*
X0066D02*
X00663D01*
X00678D02*
X00724D01*
X00629Y01518D02*
X00633D01*
X0066D02*
X00663D01*
X00678D02*
X00724D01*
X00629Y01518D02*
X00633D01*
X0066D02*
X00663D01*
X00677D02*
X00724D01*
X00629Y01518D02*
X00633D01*
X0066D02*
X00663D01*
X00677D02*
X00724D01*
X00629Y01519D02*
X00633D01*
X0066D02*
X00663D01*
X00677D02*
X00724D01*
X00629Y01519D02*
X00633D01*
X0066D02*
X00663D01*
X00676D02*
X00724D01*
X00629Y01519D02*
X00633D01*
X0066D02*
X00663D01*
X00676D02*
X00724D01*
X00629Y01519D02*
X00633D01*
X0066D02*
X00663D01*
X00675D02*
X00724D01*
X00629Y0152D02*
X00633D01*
X0066D02*
X00663D01*
X00675D02*
X00724D01*
X00629Y0152D02*
X00633D01*
X0066D02*
X00663D01*
X00674D02*
X00724D01*
X00629Y0152D02*
X00633D01*
X0066D02*
X00663D01*
X00674D02*
X00724D01*
X00629Y0152D02*
X00633D01*
X0066D02*
X00663D01*
X00673D02*
X00724D01*
X00629Y01521D02*
X00633D01*
X0066D02*
X00663D01*
X00673D02*
X00724D01*
X00629Y01521D02*
X00633D01*
X0066D02*
X00663D01*
X00672D02*
X00724D01*
X00629Y01521D02*
X00633D01*
X0066D02*
X00663D01*
X00672D02*
X00724D01*
X00629Y01521D02*
X00633D01*
X0066D02*
X00663D01*
X00672D02*
X00724D01*
X00629Y01522D02*
X00633D01*
X0066D02*
X00663D01*
X00671D02*
X00724D01*
X00629Y01522D02*
X00633D01*
X0066D02*
X00663D01*
X00671D02*
X00724D01*
X00629Y01522D02*
X00633D01*
X0066D02*
X00663D01*
X0067D02*
X00724D01*
X00629Y01522D02*
X00633D01*
X0066D02*
X00663D01*
X0067D02*
X00724D01*
X00629Y01523D02*
X00633D01*
X0066D02*
X00663D01*
X00669D02*
X00724D01*
X00629Y01523D02*
X00633D01*
X0066D02*
X00663D01*
X00669D02*
X00724D01*
X00629Y01523D02*
X00633D01*
X0066D02*
X00663D01*
X00668D02*
X00724D01*
X00629Y01523D02*
X00633D01*
X0066D02*
X00663D01*
X00668D02*
X00724D01*
X00629Y01524D02*
X00633D01*
X0066D02*
X00663D01*
X00667D02*
X00724D01*
X00629Y01524D02*
X00633D01*
X0066D02*
X00663D01*
X00667D02*
X00724D01*
X00629Y01524D02*
X00633D01*
X0066D02*
X00663D01*
X00666D02*
X00724D01*
X00629Y01524D02*
X00633D01*
X0066D02*
X00663D01*
X00666D02*
X00724D01*
X00629Y01525D02*
X00633D01*
X0066D02*
X00663D01*
X00666D02*
X00724D01*
X00629Y01525D02*
X00633D01*
X0066D02*
X00663D01*
X00665D02*
X00724D01*
X00629Y01525D02*
X00633D01*
X0066D02*
X00663D01*
X00665D02*
X00724D01*
X00629Y01525D02*
X00633D01*
X0066D02*
X00663D01*
X00664D02*
X00724D01*
X00629Y01526D02*
X00633D01*
X0066D02*
X00663D01*
X00664D02*
X00724D01*
X00629Y01526D02*
X00633D01*
X0066D02*
X00663D01*
X00663D02*
X00724D01*
X00629Y01526D02*
X00633D01*
X0066D02*
X00724D01*
X00629Y01526D02*
X00633D01*
X0066D02*
X00724D01*
X00629Y01527D02*
X00633D01*
X0066D02*
X00724D01*
X00629Y01527D02*
X00633D01*
X0066D02*
X00724D01*
X00629Y01527D02*
X00633D01*
X0066D02*
X00724D01*
X00629Y01527D02*
X00633D01*
X0066D02*
X00724D01*
X00629Y01528D02*
X00633D01*
X0066D02*
X00724D01*
X00629Y01528D02*
X00633D01*
X0066D02*
X00724D01*
X00629Y01528D02*
X00633D01*
X00659D02*
X00724D01*
X00629Y01528D02*
X00633D01*
X00659D02*
X00724D01*
X00629Y01529D02*
X00633D01*
X00658D02*
X00724D01*
X00629Y01529D02*
X00633D01*
X00658D02*
X00724D01*
X00629Y01529D02*
X00633D01*
X00657D02*
X00724D01*
X00629Y01529D02*
X00633D01*
X00657D02*
X00724D01*
X00629Y0153D02*
X00633D01*
X00656D02*
X00724D01*
X00629Y0153D02*
X00633D01*
X00656D02*
X00724D01*
X00629Y0153D02*
X00633D01*
X00655D02*
X00723D01*
X00629Y0153D02*
X00633D01*
X00655D02*
X00723D01*
X00629Y01531D02*
X00633D01*
X00655D02*
X00722D01*
X00629Y01531D02*
X00633D01*
X00654D02*
X00722D01*
X00629Y01531D02*
X00633D01*
X00654D02*
X00721D01*
X00629Y01531D02*
X00633D01*
X00653D02*
X00721D01*
X00629Y01532D02*
X00633D01*
X00653D02*
X00721D01*
X00629Y01532D02*
X00633D01*
X00652D02*
X0072D01*
X00629Y01532D02*
X00633D01*
X00652D02*
X0072D01*
X00629Y01532D02*
X00633D01*
X00651D02*
X00719D01*
X00629Y01533D02*
X00633D01*
X00651D02*
X00719D01*
X00629Y01533D02*
X00633D01*
X0065D02*
X00718D01*
X00629Y01533D02*
X00633D01*
X0065D02*
X00718D01*
X00629Y01533D02*
X00633D01*
X0065D02*
X00717D01*
X00629Y01534D02*
X00633D01*
X00649D02*
X00717D01*
X00629Y01534D02*
X00633D01*
X00649D02*
X00716D01*
X00629Y01534D02*
X00633D01*
X00648D02*
X00716D01*
X00629Y01534D02*
X00633D01*
X00648D02*
X00715D01*
X00629Y01535D02*
X00633D01*
X00647D02*
X00715D01*
X00629Y01535D02*
X00633D01*
X00647D02*
X00715D01*
X00629Y01535D02*
X00633D01*
X00646D02*
X00714D01*
X00629Y01535D02*
X00633D01*
X00646D02*
X00714D01*
X00629Y01536D02*
X00633D01*
X00645D02*
X00713D01*
X00629Y01536D02*
X00633D01*
X00645D02*
X00713D01*
X00629Y01536D02*
X00633D01*
X00645D02*
X00712D01*
X00629Y01536D02*
X00633D01*
X00644D02*
X00712D01*
X00629Y01537D02*
X00633D01*
X00644D02*
X00711D01*
X00629Y01537D02*
X00633D01*
X00643D02*
X00711D01*
X00629Y01537D02*
X00633D01*
X00643D02*
X0071D01*
X00629Y01537D02*
X00633D01*
X00642D02*
X0071D01*
X00629Y01538D02*
X00633D01*
X00642D02*
X0071D01*
X00629Y01538D02*
X00633D01*
X00641D02*
X00709D01*
X00629Y01538D02*
X00633D01*
X00641D02*
X00709D01*
X00629Y01538D02*
X00633D01*
X0064D02*
X00708D01*
X00629Y01539D02*
X00633D01*
X0064D02*
X00708D01*
X00629Y01539D02*
X00633D01*
X00639D02*
X00707D01*
X00629Y01539D02*
X00633D01*
X00639D02*
X00707D01*
X00629Y01539D02*
X00633D01*
X00639D02*
X00706D01*
X00629Y0154D02*
X00633D01*
X00638D02*
X00706D01*
X00629Y0154D02*
X00633D01*
X00638D02*
X00705D01*
X00629Y0154D02*
X00633D01*
X00637D02*
X00705D01*
X00629Y0154D02*
X00633D01*
X00637D02*
X00705D01*
X00629Y01541D02*
X00633D01*
X00636D02*
X00704D01*
X00629Y01541D02*
X00633D01*
X00636D02*
X00704D01*
X00629Y01541D02*
X00633D01*
X00635D02*
X00703D01*
X00629Y01541D02*
X00633D01*
X00635D02*
X00703D01*
X00629Y01542D02*
X00633D01*
X00634D02*
X00702D01*
X00629Y01542D02*
X00633D01*
X00634D02*
X00702D01*
X00629Y01542D02*
X00633D01*
X00634D02*
X00701D01*
X00629Y01542D02*
X00633D01*
X00633D02*
X00701D01*
X00629Y01543D02*
X007D01*
X00629Y01543D02*
X007D01*
X00629Y01543D02*
X00699D01*
X00629Y01543D02*
X00699D01*
X00629Y01544D02*
X00699D01*
X00629Y01544D02*
X00698D01*
X00629Y01544D02*
X00698D01*
X00629Y01544D02*
X00697D01*
X00629Y01545D02*
X00697D01*
X00629Y01545D02*
X00696D01*
X00629Y01545D02*
X00696D01*
X00629Y01545D02*
X00695D01*
X00629Y01546D02*
X00695D01*
X0063Y01546D02*
X00694D01*
X0063Y01546D02*
X00694D01*
X0063Y01546D02*
X00694D01*
X0063Y01547D02*
X00693D01*
X00631Y01547D02*
X00693D01*
X00631Y01547D02*
X00692D01*
X00631Y01547D02*
X00692D01*
X00632Y01548D02*
X00691D01*
X00632Y01548D02*
X00691D01*
X00633Y01548D02*
X0069D01*
X00633Y01548D02*
X0069D01*
X00634Y01549D02*
X00689D01*
X00634Y01549D02*
X00689D01*
X00635Y01549D02*
X00688D01*
X00635Y01549D02*
X00688D01*
X00636Y0155D02*
X00688D01*
X00636Y0155D02*
X00687D01*
X00636Y0155D02*
X00687D01*
X00637Y0155D02*
X00686D01*
X00637Y01551D02*
X00686D01*
X00638Y01551D02*
X00685D01*
X00638Y01551D02*
X00685D01*
X00639Y01551D02*
X00684D01*
X00639Y01552D02*
X00684D01*
X0064Y01552D02*
X00683D01*
X0064Y01552D02*
X00683D01*
X00641Y01552D02*
X00683D01*
X00641Y01553D02*
X00682D01*
X00642Y01553D02*
X00682D01*
X00642Y01553D02*
X00681D01*
X00642Y01553D02*
X00681D01*
X00643Y01554D02*
X0068D01*
X00643Y01554D02*
X0068D01*
X00644Y01554D02*
X00679D01*
X00644Y01554D02*
X00679D01*
X00645Y01555D02*
X00678D01*
X00645Y01555D02*
X00678D01*
X00646Y01555D02*
X00677D01*
X00646Y01555D02*
X00677D01*
X00647Y01556D02*
X00677D01*
X00647Y01556D02*
X00676D01*
X00647Y01556D02*
X00676D01*
X00648Y01556D02*
X00675D01*
X00648Y01557D02*
X00675D01*
X00649Y01557D02*
X00674D01*
X00649Y01557D02*
X00674D01*
X0065Y01557D02*
X00673D01*
X0065Y01558D02*
X00673D01*
X00651Y01558D02*
X00672D01*
X00651Y01558D02*
X00672D01*
X00652Y01558D02*
X00672D01*
X00652Y01559D02*
X00671D01*
X00653Y01559D02*
X00671D01*
X00653Y01559D02*
X0067D01*
X00653Y01559D02*
X0067D01*
X00654Y0156D02*
X00669D01*
X00654Y0156D02*
X00669D01*
X00655Y0156D02*
X00668D01*
X00655Y0156D02*
X00668D01*
X00656Y01561D02*
X00667D01*
X00656Y01561D02*
X00667D01*
X00657Y01561D02*
X00666D01*
X00657Y01561D02*
X00666D01*
X00658Y01562D02*
X00666D01*
X00658Y01562D02*
X00665D01*
X00658Y01562D02*
X00665D01*
X00659Y01562D02*
X00664D01*
X00659Y01563D02*
X00664D01*
X0066Y01563D02*
X00663D01*
X0066Y01563D02*
X00663D01*
X00661Y01563D02*
X00662D01*
G54D47*
X00842Y01426D02*
X00857D01*
X00838Y01426D02*
X0086D01*
X00835Y01427D02*
X00863D01*
X00834Y01427D02*
X00865D01*
X00832Y01428D02*
X00867D01*
X0083Y01428D02*
X00869D01*
X00828Y01429D02*
X0087D01*
X00827Y01429D02*
X00872D01*
X00826Y0143D02*
X00873D01*
X00824Y0143D02*
X00874D01*
X00823Y01431D02*
X00875D01*
X00822Y01431D02*
X00876D01*
X00821Y01432D02*
X00877D01*
X0082Y01432D02*
X00878D01*
X00819Y01433D02*
X00879D01*
X00818Y01433D02*
X0088D01*
X00817Y01434D02*
X00881D01*
X00817Y01434D02*
X00882D01*
X00816Y01435D02*
X00883D01*
X00815Y01435D02*
X00884D01*
X00814Y01436D02*
X00885D01*
X00813Y01436D02*
X00885D01*
X00813Y01437D02*
X00886D01*
X00812Y01437D02*
X00887D01*
X00811Y01438D02*
X00887D01*
X00811Y01438D02*
X00888D01*
X0081Y01439D02*
X00889D01*
X00809Y01439D02*
X00889D01*
X00809Y0144D02*
X0089D01*
X00808Y0144D02*
X00891D01*
X00807Y01441D02*
X00891D01*
X00807Y01441D02*
X00892D01*
X00806Y01442D02*
X00892D01*
X00806Y01442D02*
X00893D01*
X00805Y01443D02*
X00893D01*
X00805Y01443D02*
X00894D01*
X00804Y01444D02*
X00894D01*
X00804Y01444D02*
X00895D01*
X00803Y01445D02*
X00895D01*
X00803Y01445D02*
X00896D01*
X00802Y01446D02*
X00896D01*
X00802Y01446D02*
X00897D01*
X00801Y01447D02*
X00897D01*
X00801Y01447D02*
X00898D01*
X008Y01448D02*
X00898D01*
X008Y01448D02*
X00899D01*
X008Y01449D02*
X00899D01*
X00799Y01449D02*
X00899D01*
X00799Y0145D02*
X009D01*
X00798Y0145D02*
X009D01*
X00798Y01451D02*
X009D01*
X00798Y01451D02*
X00901D01*
X00797Y01452D02*
X00901D01*
X00797Y01452D02*
X00902D01*
X00797Y01453D02*
X00902D01*
X00796Y01453D02*
X00902D01*
X00796Y01454D02*
X00903D01*
X00796Y01454D02*
X00903D01*
X00795Y01455D02*
X00903D01*
X00795Y01455D02*
X00904D01*
X00795Y01456D02*
X00904D01*
X00794Y01456D02*
X00904D01*
X00869Y01457D02*
X00905D01*
X0083D02*
X00868D01*
X00794D02*
X0083D01*
X0087Y01457D02*
X00905D01*
X00831D02*
X00867D01*
X00794D02*
X00829D01*
X0087Y01458D02*
X00905D01*
X00832D02*
X00867D01*
X00793D02*
X00828D01*
X00871Y01458D02*
X00905D01*
X00832D02*
X00866D01*
X00793D02*
X00828D01*
X00871Y01459D02*
X00906D01*
X00832D02*
X00866D01*
X00793D02*
X00828D01*
X00871Y01459D02*
X00906D01*
X00833D02*
X00866D01*
X00793D02*
X00828D01*
X00871Y0146D02*
X00906D01*
X00833D02*
X00866D01*
X00792D02*
X00827D01*
X00871Y0146D02*
X00906D01*
X00833D02*
X00866D01*
X00792D02*
X00827D01*
X00871Y01461D02*
X00907D01*
X00833D02*
X00866D01*
X00792D02*
X00827D01*
X00871Y01461D02*
X00907D01*
X00833D02*
X00866D01*
X00792D02*
X00827D01*
X00871Y01462D02*
X00907D01*
X00833D02*
X00866D01*
X00791D02*
X00827D01*
X00871Y01462D02*
X00907D01*
X00833D02*
X00866D01*
X00791D02*
X00827D01*
X00871Y01463D02*
X00908D01*
X00833D02*
X00866D01*
X00791D02*
X00827D01*
X00871Y01463D02*
X00908D01*
X00833D02*
X00866D01*
X00791D02*
X00827D01*
X00871Y01464D02*
X00908D01*
X00833D02*
X00866D01*
X0079D02*
X00827D01*
X00871Y01464D02*
X00908D01*
X00833D02*
X00866D01*
X0079D02*
X00827D01*
X00871Y01465D02*
X00909D01*
X00833D02*
X00866D01*
X0079D02*
X00827D01*
X00871Y01465D02*
X00909D01*
X00833D02*
X00866D01*
X0079D02*
X00827D01*
X00871Y01466D02*
X00909D01*
X00833D02*
X00866D01*
X0079D02*
X00827D01*
X00871Y01466D02*
X00909D01*
X00833D02*
X00866D01*
X00789D02*
X00827D01*
X00871Y01467D02*
X00909D01*
X00833D02*
X00866D01*
X00789D02*
X00827D01*
X00871Y01467D02*
X0091D01*
X00833D02*
X00866D01*
X00789D02*
X00827D01*
X00871Y01468D02*
X0091D01*
X00833D02*
X00866D01*
X00789D02*
X00827D01*
X00871Y01468D02*
X0091D01*
X00833D02*
X00866D01*
X00789D02*
X00827D01*
X00871Y01469D02*
X0091D01*
X00833D02*
X00866D01*
X00788D02*
X00827D01*
X00871Y01469D02*
X0091D01*
X00833D02*
X00866D01*
X00788D02*
X00827D01*
X00871Y0147D02*
X0091D01*
X00833D02*
X00866D01*
X00788D02*
X00827D01*
X00871Y0147D02*
X00911D01*
X00833D02*
X00866D01*
X00788D02*
X00827D01*
X00871Y01471D02*
X00911D01*
X00833D02*
X00866D01*
X00788D02*
X00827D01*
X00871Y01471D02*
X00911D01*
X00833D02*
X00866D01*
X00788D02*
X00827D01*
X00871Y01472D02*
X00911D01*
X00833D02*
X00866D01*
X00788D02*
X00827D01*
X00881Y01472D02*
X00911D01*
X00871D02*
X00878D01*
X00859D02*
X00866D01*
X00842D02*
X00856D01*
X00833D02*
X0084D01*
X0082D02*
X00827D01*
X00787D02*
X00818D01*
X00881Y01473D02*
X00911D01*
X00871D02*
X00878D01*
X00859D02*
X00866D01*
X00843D02*
X00856D01*
X00833D02*
X00839D01*
X00821D02*
X00827D01*
X00787D02*
X00817D01*
X00882Y01473D02*
X00911D01*
X00871D02*
X00877D01*
X0086D02*
X00866D01*
X00843D02*
X00855D01*
X00833D02*
X00839D01*
X00821D02*
X00827D01*
X00787D02*
X00817D01*
X00882Y01474D02*
X00912D01*
X00871D02*
X00877D01*
X0086D02*
X00866D01*
X00843D02*
X00855D01*
X00833D02*
X00839D01*
X00821D02*
X00827D01*
X00787D02*
X00817D01*
X00882Y01474D02*
X00912D01*
X00871D02*
X00877D01*
X0086D02*
X00866D01*
X00844D02*
X00855D01*
X00833D02*
X00839D01*
X00822D02*
X00827D01*
X00787D02*
X00817D01*
X00882Y01475D02*
X00912D01*
X00871D02*
X00877D01*
X0086D02*
X00866D01*
X00844D02*
X00855D01*
X00833D02*
X00838D01*
X00822D02*
X00827D01*
X00787D02*
X00816D01*
X00882Y01475D02*
X00912D01*
X00871D02*
X00877D01*
X0086D02*
X00866D01*
X00844D02*
X00855D01*
X00833D02*
X00838D01*
X00822D02*
X00827D01*
X00787D02*
X00816D01*
X00882Y01476D02*
X00912D01*
X00871D02*
X00877D01*
X0086D02*
X00866D01*
X00844D02*
X00855D01*
X00833D02*
X00838D01*
X00822D02*
X00827D01*
X00787D02*
X00816D01*
X00882Y01476D02*
X00912D01*
X00871D02*
X00877D01*
X0086D02*
X00866D01*
X00844D02*
X00855D01*
X00833D02*
X00838D01*
X00822D02*
X00827D01*
X00786D02*
X00816D01*
X00882Y01477D02*
X00912D01*
X00871D02*
X00877D01*
X0086D02*
X00866D01*
X00844D02*
X00855D01*
X00833D02*
X00838D01*
X00822D02*
X00827D01*
X00786D02*
X00816D01*
X00882Y01477D02*
X00912D01*
X00871D02*
X00877D01*
X0086D02*
X00866D01*
X00844D02*
X00855D01*
X00833D02*
X00838D01*
X00822D02*
X00827D01*
X00786D02*
X00816D01*
X00882Y01478D02*
X00912D01*
X00871D02*
X00877D01*
X0086D02*
X00866D01*
X00844D02*
X00855D01*
X00833D02*
X00838D01*
X00822D02*
X00827D01*
X00786D02*
X00816D01*
X00882Y01478D02*
X00912D01*
X00871D02*
X00877D01*
X0086D02*
X00866D01*
X00844D02*
X00855D01*
X00833D02*
X00838D01*
X00822D02*
X00827D01*
X00786D02*
X00816D01*
X00882Y01479D02*
X00913D01*
X00871D02*
X00877D01*
X0086D02*
X00866D01*
X00844D02*
X00855D01*
X00833D02*
X00838D01*
X00822D02*
X00827D01*
X00786D02*
X00816D01*
X00882Y01479D02*
X00913D01*
X00871D02*
X00877D01*
X0086D02*
X00866D01*
X00844D02*
X00855D01*
X00833D02*
X00838D01*
X00822D02*
X00827D01*
X00786D02*
X00816D01*
X00882Y0148D02*
X00913D01*
X00871D02*
X00877D01*
X0086D02*
X00866D01*
X00844D02*
X00855D01*
X00833D02*
X00838D01*
X00822D02*
X00827D01*
X00786D02*
X00816D01*
X00882Y0148D02*
X00913D01*
X00871D02*
X00877D01*
X0086D02*
X00866D01*
X00844D02*
X00855D01*
X00833D02*
X00838D01*
X00822D02*
X00827D01*
X00786D02*
X00816D01*
X00882Y01481D02*
X00913D01*
X00871D02*
X00877D01*
X0086D02*
X00866D01*
X00844D02*
X00855D01*
X00833D02*
X00838D01*
X00822D02*
X00827D01*
X00786D02*
X00816D01*
X00882Y01481D02*
X00913D01*
X00871D02*
X00877D01*
X0086D02*
X00866D01*
X00844D02*
X00855D01*
X00833D02*
X00838D01*
X00822D02*
X00827D01*
X00786D02*
X00816D01*
X00882Y01482D02*
X00913D01*
X00871D02*
X00877D01*
X0086D02*
X00866D01*
X00844D02*
X00855D01*
X00833D02*
X00838D01*
X00822D02*
X00827D01*
X00786D02*
X00816D01*
X00892Y01482D02*
X00913D01*
X00882D02*
X00889D01*
X00871D02*
X00877D01*
X0086D02*
X00866D01*
X0085D02*
X00855D01*
X00844D02*
X00848D01*
X00833D02*
X00838D01*
X00822D02*
X00827D01*
X00785D02*
X00816D01*
X00892Y01483D02*
X00913D01*
X00882D02*
X00889D01*
X00871D02*
X00877D01*
X0086D02*
X00866D01*
X00851D02*
X00855D01*
X00844D02*
X00847D01*
X00833D02*
X00838D01*
X00822D02*
X00827D01*
X00785D02*
X00816D01*
X00893Y01483D02*
X00913D01*
X00882D02*
X00888D01*
X00871D02*
X00877D01*
X0086D02*
X00866D01*
X00851D02*
X00855D01*
X00844D02*
X00847D01*
X00833D02*
X00838D01*
X00822D02*
X00827D01*
X00785D02*
X00816D01*
X00893Y01484D02*
X00913D01*
X00882D02*
X00888D01*
X00871D02*
X00877D01*
X0086D02*
X00866D01*
X00852D02*
X00855D01*
X00844D02*
X00847D01*
X00833D02*
X00838D01*
X00822D02*
X00827D01*
X00785D02*
X00816D01*
X00893Y01484D02*
X00913D01*
X00882D02*
X00888D01*
X00871D02*
X00877D01*
X0086D02*
X00866D01*
X00852D02*
X00855D01*
X00844D02*
X00847D01*
X00833D02*
X00838D01*
X00822D02*
X00827D01*
X00785D02*
X00816D01*
X00893Y01485D02*
X00913D01*
X00882D02*
X00888D01*
X00871D02*
X00877D01*
X0086D02*
X00866D01*
X00852D02*
X00855D01*
X00844D02*
X00847D01*
X00833D02*
X00838D01*
X00822D02*
X00827D01*
X00809D02*
X00816D01*
X00785D02*
X00807D01*
X00893Y01485D02*
X00913D01*
X00882D02*
X00888D01*
X00871D02*
X00877D01*
X0086D02*
X00866D01*
X00852D02*
X00855D01*
X00844D02*
X00847D01*
X00833D02*
X00838D01*
X00822D02*
X00827D01*
X0081D02*
X00816D01*
X00785D02*
X00806D01*
X00893Y01486D02*
X00913D01*
X00882D02*
X00888D01*
X00871D02*
X00877D01*
X0086D02*
X00866D01*
X00852D02*
X00855D01*
X00844D02*
X00847D01*
X00833D02*
X00838D01*
X00822D02*
X00827D01*
X0081D02*
X00816D01*
X00785D02*
X00806D01*
X00893Y01486D02*
X00913D01*
X00882D02*
X00888D01*
X00871D02*
X00877D01*
X0086D02*
X00866D01*
X00852D02*
X00855D01*
X00844D02*
X00847D01*
X00833D02*
X00838D01*
X00822D02*
X00827D01*
X0081D02*
X00816D01*
X00785D02*
X00806D01*
X00893Y01487D02*
X00913D01*
X00882D02*
X00888D01*
X00871D02*
X00877D01*
X0086D02*
X00866D01*
X00852D02*
X00855D01*
X00844D02*
X00847D01*
X00833D02*
X00838D01*
X00822D02*
X00827D01*
X0081D02*
X00816D01*
X00785D02*
X00806D01*
X00893Y01487D02*
X00913D01*
X00882D02*
X00888D01*
X00871D02*
X00877D01*
X0086D02*
X00866D01*
X00852D02*
X00855D01*
X00844D02*
X00847D01*
X00833D02*
X00838D01*
X00822D02*
X00827D01*
X00811D02*
X00816D01*
X00785D02*
X00805D01*
X00893Y01488D02*
X00913D01*
X00882D02*
X00888D01*
X00871D02*
X00877D01*
X0086D02*
X00866D01*
X00852D02*
X00855D01*
X00844D02*
X00847D01*
X00833D02*
X00838D01*
X00822D02*
X00827D01*
X00811D02*
X00816D01*
X00785D02*
X00805D01*
X00893Y01488D02*
X00913D01*
X00882D02*
X00888D01*
X00871D02*
X00877D01*
X0086D02*
X00866D01*
X00852D02*
X00855D01*
X00844D02*
X00847D01*
X00833D02*
X00838D01*
X00822D02*
X00827D01*
X00811D02*
X00816D01*
X00785D02*
X00805D01*
X00893Y01489D02*
X00913D01*
X00882D02*
X00888D01*
X00871D02*
X00877D01*
X0086D02*
X00866D01*
X00852D02*
X00855D01*
X00844D02*
X00847D01*
X00833D02*
X00838D01*
X00822D02*
X00827D01*
X00811D02*
X00816D01*
X00785D02*
X00805D01*
X00893Y01489D02*
X00913D01*
X00882D02*
X00888D01*
X00871D02*
X00877D01*
X0086D02*
X00866D01*
X00852D02*
X00855D01*
X00844D02*
X00847D01*
X00833D02*
X00838D01*
X00822D02*
X00827D01*
X00811D02*
X00816D01*
X00785D02*
X00805D01*
X00893Y0149D02*
X00913D01*
X00882D02*
X00888D01*
X00871D02*
X00877D01*
X0086D02*
X00866D01*
X00852D02*
X00855D01*
X00844D02*
X00847D01*
X00833D02*
X00838D01*
X00822D02*
X00827D01*
X00811D02*
X00816D01*
X00785D02*
X00805D01*
X00893Y0149D02*
X00913D01*
X00882D02*
X00888D01*
X00871D02*
X00877D01*
X0086D02*
X00866D01*
X00852D02*
X00855D01*
X00844D02*
X00847D01*
X00833D02*
X00838D01*
X00822D02*
X00827D01*
X00811D02*
X00816D01*
X00785D02*
X00805D01*
X00893Y01491D02*
X00913D01*
X00882D02*
X00888D01*
X00871D02*
X00877D01*
X0086D02*
X00866D01*
X00852D02*
X00855D01*
X00844D02*
X00847D01*
X00833D02*
X00838D01*
X00822D02*
X00827D01*
X00811D02*
X00816D01*
X00785D02*
X00805D01*
X00893Y01491D02*
X00913D01*
X00882D02*
X00888D01*
X00871D02*
X00877D01*
X0086D02*
X00866D01*
X00852D02*
X00855D01*
X00844D02*
X00847D01*
X00833D02*
X00838D01*
X00822D02*
X00827D01*
X00811D02*
X00816D01*
X00785D02*
X00805D01*
X00893Y01492D02*
X00913D01*
X00882D02*
X00888D01*
X00871D02*
X00877D01*
X0086D02*
X00866D01*
X00852D02*
X00855D01*
X00844D02*
X00847D01*
X00833D02*
X00838D01*
X00822D02*
X00827D01*
X00811D02*
X00816D01*
X00785D02*
X00805D01*
X00893Y01492D02*
X00913D01*
X00882D02*
X00888D01*
X00871D02*
X00877D01*
X0086D02*
X00866D01*
X00852D02*
X00855D01*
X00844D02*
X00847D01*
X00833D02*
X00838D01*
X00822D02*
X00827D01*
X00811D02*
X00816D01*
X00785D02*
X00805D01*
X00893Y01493D02*
X00913D01*
X00882D02*
X00888D01*
X00871D02*
X00877D01*
X0086D02*
X00866D01*
X00852D02*
X00855D01*
X00844D02*
X00847D01*
X00833D02*
X00838D01*
X00822D02*
X00827D01*
X00811D02*
X00816D01*
X00785D02*
X00805D01*
X00893Y01493D02*
X00913D01*
X00882D02*
X00888D01*
X00871D02*
X00877D01*
X0086D02*
X00866D01*
X00852D02*
X00855D01*
X00844D02*
X00847D01*
X00833D02*
X00838D01*
X00822D02*
X00827D01*
X00811D02*
X00816D01*
X00785D02*
X00805D01*
X00893Y01494D02*
X00913D01*
X00882D02*
X00888D01*
X00871D02*
X00877D01*
X0086D02*
X00866D01*
X00852D02*
X00855D01*
X00844D02*
X00847D01*
X00833D02*
X00838D01*
X00822D02*
X00827D01*
X00811D02*
X00816D01*
X00785D02*
X00805D01*
X00893Y01494D02*
X00913D01*
X00882D02*
X00888D01*
X00871D02*
X00877D01*
X0086D02*
X00866D01*
X00852D02*
X00855D01*
X00844D02*
X00847D01*
X00833D02*
X00838D01*
X00822D02*
X00827D01*
X00811D02*
X00816D01*
X00785D02*
X00805D01*
X00893Y01495D02*
X00913D01*
X00882D02*
X00888D01*
X00871D02*
X00877D01*
X0086D02*
X00866D01*
X00852D02*
X00855D01*
X00844D02*
X00847D01*
X00833D02*
X00838D01*
X00822D02*
X00827D01*
X00811D02*
X00816D01*
X00785D02*
X00805D01*
X00893Y01495D02*
X00913D01*
X00882D02*
X00888D01*
X00871D02*
X00877D01*
X0086D02*
X00866D01*
X00852D02*
X00855D01*
X00844D02*
X00847D01*
X00833D02*
X00838D01*
X00822D02*
X00827D01*
X00811D02*
X00816D01*
X00785D02*
X00805D01*
X00893Y01496D02*
X00913D01*
X00882D02*
X00888D01*
X00871D02*
X00877D01*
X0086D02*
X00866D01*
X00851D02*
X00855D01*
X00844D02*
X00847D01*
X00833D02*
X00838D01*
X00822D02*
X00827D01*
X00811D02*
X00816D01*
X00785D02*
X00805D01*
X00892Y01496D02*
X00913D01*
X00882D02*
X00889D01*
X00871D02*
X00877D01*
X0086D02*
X00866D01*
X00851D02*
X00855D01*
X00844D02*
X00848D01*
X00833D02*
X00838D01*
X00822D02*
X00827D01*
X00811D02*
X00816D01*
X00785D02*
X00805D01*
X00892Y01497D02*
X00913D01*
X00882D02*
X0089D01*
X00871D02*
X00877D01*
X0086D02*
X00866D01*
X0085D02*
X00855D01*
X00844D02*
X00848D01*
X00833D02*
X00838D01*
X00822D02*
X00827D01*
X00811D02*
X00816D01*
X00785D02*
X00805D01*
X00882Y01497D02*
X00913D01*
X00871D02*
X00877D01*
X0086D02*
X00866D01*
X00844D02*
X00855D01*
X00833D02*
X00838D01*
X00822D02*
X00827D01*
X0081D02*
X00816D01*
X00786D02*
X00806D01*
X00882Y01498D02*
X00913D01*
X00871D02*
X00877D01*
X0086D02*
X00866D01*
X00844D02*
X00855D01*
X00833D02*
X00838D01*
X00822D02*
X00827D01*
X0081D02*
X00816D01*
X00786D02*
X00806D01*
X00882Y01498D02*
X00913D01*
X00871D02*
X00877D01*
X0086D02*
X00866D01*
X00844D02*
X00855D01*
X00833D02*
X00838D01*
X00822D02*
X00827D01*
X0081D02*
X00816D01*
X00786D02*
X00806D01*
X00882Y01499D02*
X00913D01*
X00871D02*
X00877D01*
X0086D02*
X00866D01*
X00844D02*
X00855D01*
X00833D02*
X00838D01*
X00822D02*
X00827D01*
X0081D02*
X00816D01*
X00786D02*
X00806D01*
X00882Y01499D02*
X00913D01*
X00871D02*
X00877D01*
X0086D02*
X00866D01*
X00844D02*
X00855D01*
X00833D02*
X00838D01*
X00822D02*
X00827D01*
X00809D02*
X00816D01*
X00786D02*
X00807D01*
X00882Y015D02*
X00913D01*
X00871D02*
X00877D01*
X0086D02*
X00866D01*
X00844D02*
X00855D01*
X00833D02*
X00838D01*
X00822D02*
X00827D01*
X00786D02*
X00816D01*
X00882Y015D02*
X00913D01*
X00871D02*
X00877D01*
X0086D02*
X00866D01*
X00844D02*
X00855D01*
X00833D02*
X00838D01*
X00822D02*
X00827D01*
X00786D02*
X00816D01*
X00882Y01501D02*
X00912D01*
X00871D02*
X00877D01*
X0086D02*
X00866D01*
X00844D02*
X00855D01*
X00833D02*
X00838D01*
X00822D02*
X00827D01*
X00786D02*
X00816D01*
X00882Y01501D02*
X00912D01*
X00871D02*
X00877D01*
X0086D02*
X00866D01*
X00844D02*
X00855D01*
X00833D02*
X00838D01*
X00822D02*
X00827D01*
X00786D02*
X00816D01*
X00882Y01502D02*
X00912D01*
X00871D02*
X00877D01*
X0086D02*
X00866D01*
X00844D02*
X00855D01*
X00833D02*
X00838D01*
X00822D02*
X00827D01*
X00786D02*
X00816D01*
X00882Y01502D02*
X00912D01*
X00871D02*
X00877D01*
X0086D02*
X00866D01*
X00844D02*
X00855D01*
X00833D02*
X00838D01*
X00822D02*
X00827D01*
X00786D02*
X00816D01*
X00882Y01503D02*
X00912D01*
X00871D02*
X00877D01*
X0086D02*
X00866D01*
X00844D02*
X00855D01*
X00833D02*
X00838D01*
X00822D02*
X00827D01*
X00786D02*
X00816D01*
X00882Y01503D02*
X00912D01*
X00871D02*
X00877D01*
X0086D02*
X00866D01*
X00844D02*
X00855D01*
X00833D02*
X00838D01*
X00822D02*
X00827D01*
X00787D02*
X00816D01*
X00882Y01504D02*
X00912D01*
X00871D02*
X00877D01*
X0086D02*
X00866D01*
X00844D02*
X00855D01*
X00833D02*
X00838D01*
X00822D02*
X00827D01*
X00787D02*
X00816D01*
X00882Y01504D02*
X00912D01*
X00871D02*
X00877D01*
X0086D02*
X00866D01*
X00844D02*
X00855D01*
X00833D02*
X00838D01*
X00822D02*
X00827D01*
X00787D02*
X00816D01*
X00882Y01505D02*
X00912D01*
X00871D02*
X00877D01*
X0086D02*
X00866D01*
X00843D02*
X00855D01*
X00833D02*
X00839D01*
X00821D02*
X00827D01*
X00787D02*
X00817D01*
X00882Y01505D02*
X00911D01*
X00871D02*
X00877D01*
X0086D02*
X00866D01*
X00843D02*
X00855D01*
X00833D02*
X00839D01*
X00821D02*
X00827D01*
X00787D02*
X00817D01*
X00882Y01506D02*
X00911D01*
X00871D02*
X00877D01*
X0086D02*
X00866D01*
X00843D02*
X00855D01*
X00833D02*
X00839D01*
X00821D02*
X00827D01*
X00787D02*
X00817D01*
X00881Y01506D02*
X00911D01*
X00871D02*
X00878D01*
X00859D02*
X00866D01*
X00843D02*
X00856D01*
X00833D02*
X00839D01*
X00821D02*
X00827D01*
X00787D02*
X00817D01*
X00881Y01507D02*
X00911D01*
X00871D02*
X00878D01*
X00859D02*
X00866D01*
X00842D02*
X00856D01*
X00833D02*
X0084D01*
X0082D02*
X00827D01*
X00787D02*
X00818D01*
X00871Y01507D02*
X00911D01*
X00833D02*
X00866D01*
X00788D02*
X00827D01*
X00871Y01508D02*
X00911D01*
X00833D02*
X00866D01*
X00788D02*
X00827D01*
X00871Y01508D02*
X00911D01*
X00833D02*
X00866D01*
X00788D02*
X00827D01*
X00871Y01509D02*
X00911D01*
X00833D02*
X00866D01*
X00788D02*
X00827D01*
X00871Y01509D02*
X0091D01*
X00833D02*
X00866D01*
X00788D02*
X00827D01*
X00871Y0151D02*
X0091D01*
X00833D02*
X00866D01*
X00788D02*
X00827D01*
X00871Y0151D02*
X0091D01*
X00833D02*
X00866D01*
X00789D02*
X00827D01*
X00871Y01511D02*
X0091D01*
X00833D02*
X00866D01*
X00789D02*
X00827D01*
X00871Y01511D02*
X0091D01*
X00833D02*
X00866D01*
X00789D02*
X00827D01*
X00871Y01512D02*
X00909D01*
X00833D02*
X00866D01*
X00789D02*
X00827D01*
X00871Y01512D02*
X00909D01*
X00833D02*
X00866D01*
X00789D02*
X00827D01*
X00871Y01513D02*
X00909D01*
X00833D02*
X00866D01*
X00789D02*
X00827D01*
X00871Y01513D02*
X00909D01*
X00833D02*
X00866D01*
X0079D02*
X00827D01*
X00871Y01514D02*
X00909D01*
X00833D02*
X00866D01*
X0079D02*
X00827D01*
X00871Y01514D02*
X00909D01*
X00833D02*
X00866D01*
X0079D02*
X00827D01*
X00871Y01515D02*
X00908D01*
X00833D02*
X00866D01*
X0079D02*
X00827D01*
X00871Y01515D02*
X00908D01*
X00833D02*
X00866D01*
X0079D02*
X00827D01*
X00871Y01516D02*
X00908D01*
X00833D02*
X00866D01*
X00791D02*
X00827D01*
X00871Y01516D02*
X00908D01*
X00833D02*
X00866D01*
X00791D02*
X00827D01*
X00871Y01517D02*
X00907D01*
X00833D02*
X00866D01*
X00791D02*
X00827D01*
X00871Y01517D02*
X00907D01*
X00833D02*
X00866D01*
X00791D02*
X00827D01*
X00871Y01518D02*
X00907D01*
X00833D02*
X00866D01*
X00792D02*
X00827D01*
X00871Y01518D02*
X00907D01*
X00833D02*
X00866D01*
X00792D02*
X00827D01*
X00871Y01519D02*
X00906D01*
X00833D02*
X00866D01*
X00792D02*
X00827D01*
X00871Y01519D02*
X00906D01*
X00833D02*
X00866D01*
X00792D02*
X00827D01*
X00871Y0152D02*
X00906D01*
X00833D02*
X00866D01*
X00793D02*
X00828D01*
X00871Y0152D02*
X00906D01*
X00832D02*
X00866D01*
X00793D02*
X00828D01*
X00871Y01521D02*
X00905D01*
X00832D02*
X00866D01*
X00793D02*
X00828D01*
X0087Y01521D02*
X00905D01*
X00832D02*
X00867D01*
X00793D02*
X00828D01*
X0087Y01522D02*
X00905D01*
X00831D02*
X00867D01*
X00794D02*
X00829D01*
X00794Y01522D02*
X00904D01*
X00794Y01523D02*
X00904D01*
X00795Y01523D02*
X00904D01*
X00795Y01524D02*
X00904D01*
X00795Y01524D02*
X00903D01*
X00796Y01525D02*
X00903D01*
X00796Y01525D02*
X00903D01*
X00796Y01526D02*
X00902D01*
X00797Y01526D02*
X00902D01*
X00797Y01527D02*
X00902D01*
X00797Y01527D02*
X00901D01*
X00798Y01528D02*
X00901D01*
X00798Y01528D02*
X009D01*
X00798Y01529D02*
X009D01*
X00799Y01529D02*
X009D01*
X00799Y0153D02*
X00899D01*
X008Y0153D02*
X00899D01*
X008Y01531D02*
X00899D01*
X00801Y01531D02*
X00898D01*
X00801Y01532D02*
X00898D01*
X00801Y01532D02*
X00897D01*
X00802Y01533D02*
X00897D01*
X00802Y01533D02*
X00896D01*
X00803Y01534D02*
X00896D01*
X00803Y01534D02*
X00895D01*
X00804Y01535D02*
X00895D01*
X00804Y01535D02*
X00894D01*
X00805Y01536D02*
X00894D01*
X00805Y01536D02*
X00893D01*
X00806Y01537D02*
X00893D01*
X00806Y01537D02*
X00892D01*
X00807Y01538D02*
X00892D01*
X00808Y01538D02*
X00891D01*
X00808Y01539D02*
X0089D01*
X00809Y01539D02*
X0089D01*
X00809Y0154D02*
X00889D01*
X0081Y0154D02*
X00889D01*
X00811Y01541D02*
X00888D01*
X00811Y01541D02*
X00887D01*
X00812Y01542D02*
X00887D01*
X00813Y01542D02*
X00886D01*
X00813Y01543D02*
X00885D01*
X00814Y01543D02*
X00884D01*
X00815Y01544D02*
X00884D01*
X00816Y01544D02*
X00883D01*
X00817Y01545D02*
X00882D01*
X00817Y01545D02*
X00881D01*
X00818Y01546D02*
X0088D01*
X00819Y01546D02*
X00879D01*
X0082Y01547D02*
X00878D01*
X00821Y01547D02*
X00877D01*
X00822Y01548D02*
X00876D01*
X00823Y01548D02*
X00875D01*
X00824Y01549D02*
X00874D01*
X00826Y01549D02*
X00873D01*
X00827Y0155D02*
X00871D01*
X00829Y0155D02*
X0087D01*
X0083Y01551D02*
X00869D01*
X00832Y01551D02*
X00867D01*
X00834Y01552D02*
X00865D01*
X00836Y01552D02*
X00863D01*
X00839Y01553D02*
X0086D01*
X00842Y01553D02*
X00857D01*
M02*