%FSTAX23Y23*%
%MOIN*%
%SFA1B1*%

%IPPOS*%
%AMD23*
4,1,4,-0.027800,-0.005600,-0.005600,-0.027800,0.027800,0.005600,0.005600,0.027800,-0.027800,-0.005600,0.0*
%
G04~CAMADD=23~9~0.0~0.0~315.0~472.4~0.0~0.0~0~0.0~0.0~0.0~0.0~0~0.0~0.0~0.0~0.0~0~0.0~0.0~0.0~135.0~556.0~555.0*
%ADD23D23*%
%ADD24R,0.031500X0.078740*%
%ADD25R,0.039370X0.031500*%
%ADD26R,0.035429X0.031500*%
%ADD27R,0.035433X0.031496*%
%ADD28R,0.043311X0.039370*%
%ADD29C,0.010000*%
%ADD30O,0.148000X0.074000*%
%ADD31C,0.031500*%
%ADD32O,0.059055X0.118110*%
%ADD33C,0.019685*%
%LNpcb1-1*%
%LPD*%
G36*
X01427Y0D02*
X0D01*
Y01771*
X01427*
Y0*
G37*
%LNpcb1-2*%
%LPC*%
G36*
X01303Y0175D02*
X0129Y01737D01*
X01288Y01738*
X01285Y01741*
X0128Y01742*
X01268*
X01263Y01741*
X0126Y01738*
Y01738*
X01255Y01733*
X00545*
Y01744*
X00497*
Y017*
X00545*
Y01711*
X00562*
X00564Y01706*
X00553Y01695*
X00549Y01693*
X00526*
Y01667*
X00516*
Y01693*
X00493*
Y01689*
X00491Y01687*
Y01667*
X00481*
Y01686*
X00478Y01686*
X00471Y01681*
X00467Y01675*
X00466Y0167*
X00421*
Y01628*
X00402*
Y01655*
X00359*
Y01564*
X00365*
X00368Y01559*
X00367Y01555*
X00367Y01554*
X0033Y01517*
X00149*
X00149Y01517*
X00143Y0152*
X00137Y01522*
X00131Y0152*
X00126Y01517*
X00122Y01512*
X00121Y01505*
X00122Y01499*
X00126Y01494*
X00131Y0149*
X00137Y01489*
X00143Y0149*
X00149Y01494*
X00149Y01494*
X00334*
X00338Y01495*
X00342Y01497*
X00383Y01539*
X00383Y01538*
X0039Y0154*
X00395Y01543*
X00398Y01548*
X004Y01555*
X00399Y01559*
X00401Y01564*
X00402*
Y01605*
X00544*
X00548Y01606*
X00552Y01609*
X00568Y01625*
X00571Y01629*
X00572Y01633*
Y01682*
X00583Y01693*
X01243*
X01291Y01645*
X01294Y01643*
X01299Y01642*
X01321*
X01326Y01643*
X01326Y01643*
X01334Y01635*
X01376Y01677*
X01345Y01708*
X01303Y01666*
X01299Y01668*
X01294Y01673*
X01292Y01677*
X01334Y01719*
X01303Y0175*
G37*
G36*
X00468Y01758D02*
X00417D01*
Y01715*
X00468*
Y01758*
G37*
G36*
X00173D02*
X00121D01*
Y01715*
X00173*
Y01758*
G37*
G36*
X00354Y01715D02*
X00345Y01713D01*
X00338Y01708*
X00333Y01701*
X00332Y01692*
X00333Y01684*
X00338Y01677*
X00345Y01672*
X00354Y0167*
X00362Y01672*
X0037Y01677*
X00374Y01684*
X00376Y01692*
X00374Y01701*
X0037Y01708*
X00362Y01713*
X00354Y01715*
G37*
G36*
X00236D02*
X00227Y01713D01*
X0022Y01708*
X00215Y01701*
X00214Y01692*
X00215Y01684*
X0022Y01677*
X00227Y01672*
X00236Y0167*
X00244Y01672*
X00251Y01677*
X00256Y01684*
X00258Y01692*
X00256Y01701*
X00251Y01708*
X00244Y01713*
X00236Y01715*
G37*
G36*
X00169Y0167D02*
X00121D01*
Y01626*
X00169*
Y0167*
G37*
G36*
X00225Y01655D02*
X00182D01*
Y01564*
X00225*
Y01655*
G37*
G36*
X00284D02*
X00241D01*
Y01564*
X00251*
Y01559*
X00251Y01559*
X00247Y01554*
X00246Y01548*
X00247Y01541*
X00251Y01536*
X00256Y01533*
X00262Y01531*
X00269Y01533*
X00274Y01536*
X00277Y01541*
X00279Y01548*
X00277Y01554*
X00274Y01559*
X00274Y01559*
Y01564*
X00284*
Y01655*
G37*
G36*
X00292Y01383D02*
X00218D01*
X00207Y01382*
X00197Y01377*
X00188Y0137*
X00181Y01361*
X00177Y01351*
X00175Y0134*
X00177Y01328*
X00181Y01318*
X00188Y01309*
X00197Y01302*
X00207Y01298*
X00218Y01296*
X00292*
X00304Y01298*
X00314Y01302*
X00323Y01309*
X0033Y01318*
X00334Y01328*
X00336Y0134*
X00334Y01351*
X0033Y01361*
X00323Y0137*
X00314Y01377*
X00304Y01382*
X00292Y01383*
G37*
G36*
X00521Y01295D02*
X00515Y01294D01*
X0051Y0129*
X0051Y0129*
X00405*
X00405Y0129*
X00399Y01294*
X00393Y01295*
X00387Y01294*
X00382Y0129*
X00378Y01285*
X00377Y01279*
X00378Y01273*
X00382Y01268*
X00387Y01264*
X00393Y01263*
X00399Y01264*
X00405Y01268*
X00405Y01268*
X0051*
X0051Y01268*
X00515Y01264*
X00521Y01263*
X00527Y01264*
X00533Y01268*
X00536Y01273*
X00537Y01279*
X00536Y01285*
X00533Y0129*
X00527Y01294*
X00521Y01295*
G37*
G36*
X0061Y01344D02*
X00604Y01343D01*
X00598Y0134*
X00595Y01334*
X00594Y01328*
X00595Y01322*
X00598Y01317*
X00604Y01313*
X0061Y01312*
X00616Y01313*
X00621Y01317*
X00621Y01317*
X01304*
X0132Y01301*
X01324Y01298*
X01328Y01297*
X01332*
X01333Y01293*
X01337Y01287*
X01342Y01284*
X01348Y01283*
X01354Y01284*
X01359Y01287*
X01363Y01293*
X01364Y01299*
X01363Y01305*
X01359Y0131*
X01359Y01311*
X01358Y01313*
X01356Y01316*
X01352Y01319*
X01348Y0132*
X01333*
X01316Y01336*
X01313Y01339*
X01309Y01339*
X00621*
X00621Y0134*
X00616Y01343*
X0061Y01344*
G37*
G36*
X00292Y01283D02*
X00218D01*
X00207Y01282*
X00197Y01277*
X00188Y0127*
X00181Y01261*
X00177Y01251*
X00175Y0124*
X00177Y01228*
X00181Y01218*
X00188Y01209*
X00197Y01202*
X00207Y01198*
X00218Y01196*
X00292*
X00304Y01198*
X00314Y01202*
X00323Y01209*
X0033Y01218*
X00334Y01228*
X00336Y0124*
X00334Y01251*
X0033Y01261*
X00323Y0127*
X00314Y01277*
X00304Y01282*
X00292Y01283*
G37*
G36*
X0057Y01216D02*
X00564Y01215D01*
X00559Y01212*
X00555Y01206*
X00554Y012*
X00554Y012*
X00453Y01099*
X00324*
X00323Y01104*
X00326Y01106*
X00333Y01116*
X00338Y01127*
X00339Y01135*
X00255*
X00172*
X00173Y01127*
X00177Y01116*
X00185Y01106*
X00191Y01102*
X00191Y01096*
X00191Y01096*
X00159Y01064*
X00127*
X00123Y01063*
X0012Y01061*
X00108Y01049*
X00108Y01049*
X00102Y01048*
X00096Y01044*
X00093Y01039*
X00092Y01033*
X00093Y01027*
X00096Y01022*
X00102Y01018*
X00108Y01017*
X00114Y01018*
X00119Y01022*
X00123Y01027*
X00124Y01033*
X00124Y01033*
X00132Y01041*
X00164*
X00168Y01042*
X00171Y01044*
X00175Y01042*
X00175Y0104*
X00177Y01028*
X00181Y01018*
X00188Y01009*
X00197Y01002*
X00207Y00998*
X00218Y00996*
X00292*
X00304Y00998*
X00314Y01002*
X00323Y01009*
X0033Y01018*
X00334Y01028*
X00336Y0104*
X00334Y01051*
X0033Y01061*
X00323Y0107*
X00321Y01072*
X00323Y01076*
X00458*
X00462Y01077*
X00466Y0108*
X0057Y01184*
X0057Y01184*
X00577Y01185*
X00582Y01189*
X00585Y01194*
X00587Y012*
X00585Y01206*
X00582Y01212*
X00577Y01215*
X0057Y01216*
G37*
G36*
X00292Y01187D02*
X0026D01*
Y01145*
X00339*
X00338Y01152*
X00333Y01163*
X00326Y01173*
X00316Y01181*
X00305Y01185*
X00292Y01187*
G37*
G36*
X0025D02*
X00218D01*
X00206Y01185*
X00195Y01181*
X00185Y01173*
X00177Y01163*
X00173Y01152*
X00172Y01145*
X0025*
Y01187*
G37*
G36*
X0062Y01207D02*
X00613Y01205D01*
X00608Y01202*
X00605Y01197*
X00603Y0119*
X00605Y01184*
X00608Y01179*
X00608Y01179*
Y01141*
X00609Y01137*
X00612Y01133*
X00631Y01114*
X00635Y01111*
X00637Y01111*
X00638Y0111*
X00643Y01107*
X00649Y01105*
X00655Y01107*
X00661Y0111*
X00664Y01115*
X00665Y01122*
X00664Y01128*
X00661Y01133*
X00655Y01136*
X00649Y01138*
X00643Y01136*
X00641Y01135*
X00631Y01146*
Y01179*
X00631Y01179*
X00635Y01184*
X00636Y0119*
X00635Y01197*
X00631Y01202*
X00626Y01205*
X0062Y01207*
G37*
G36*
X01156Y00599D02*
X01153Y00599D01*
X01147Y00595*
X01142Y00588*
X01142Y00585*
X0114Y00586*
Y00566*
X01135*
Y00561*
X01113*
X01112Y00561*
X01104*
Y00536*
X01135*
X01167*
Y00547*
X01169Y00549*
X01171Y00552*
X01172Y00557*
Y00564*
X01175Y00566*
X0118Y00572*
X0118Y00575*
X01161*
Y0058*
X01156*
Y00599*
G37*
G36*
X01166D02*
Y00585D01*
X0118*
X0118Y00588*
X01175Y00595*
X01169Y00599*
X01166Y00599*
G37*
G36*
X00762Y0059D02*
Y00575D01*
X00777*
X00776Y00578*
X00772Y00585*
X00765Y00589*
X00762Y0059*
G37*
G36*
X00752D02*
X0075Y00589D01*
X00743Y00585*
X00739Y00578*
X00738Y00575*
X00752*
Y0059*
G37*
G36*
X00388D02*
Y00575D01*
X00403*
X00402Y00578*
X00398Y00585*
X00391Y00589*
X00388Y0059*
G37*
G36*
X00378D02*
X00376Y00589D01*
X00369Y00585*
X00365Y00578*
X00364Y00575*
X00378*
Y0059*
G37*
G36*
X0113Y00586D02*
X01128Y00585D01*
X01121Y00581*
X01117Y00574*
X01116Y00571*
X0113*
Y00586*
G37*
G36*
X00285Y00587D02*
X00279Y00585D01*
X00274Y00582*
X0027Y00577*
X00269Y0057*
X0027Y00564*
X00272Y00562*
X00269Y00557*
X00263*
Y00542*
X00246*
X00241Y00541*
X00238Y00539*
X00228Y00529*
X00225Y00525*
X00225Y00521*
Y00476*
X00218Y00473*
X0021Y00468*
X00205Y0046*
X00201Y00452*
X002Y00442*
Y00383*
X00201Y00374*
X00205Y00365*
X0021Y00358*
X00218Y00352*
X00225Y0035*
Y0022*
X00218Y00218*
X0021Y00212*
X00205Y00204*
X00201Y00196*
X002Y00187*
Y00127*
X00201Y00118*
X00205Y0011*
X0021Y00102*
X00218Y00096*
X00226Y00093*
X00236Y00092*
X00245Y00093*
X00254Y00096*
X00261Y00102*
X00267Y0011*
X0027Y00118*
X00272Y00127*
Y00187*
X0027Y00196*
X00267Y00204*
X00261Y00212*
X00254Y00218*
X00247Y0022*
Y0035*
X00254Y00352*
X00261Y00358*
X00267Y00365*
X0027Y00374*
X00272Y00383*
Y00442*
X0027Y00452*
X00267Y0046*
X00261Y00468*
X00254Y00473*
X00247Y00476*
Y00517*
X0025Y0052*
X00263*
Y00505*
X00318*
Y00557*
X00301*
X00298Y00562*
X003Y00564*
X00301Y0057*
X003Y00577*
X00296Y00582*
X00291Y00585*
X00285Y00587*
G37*
G36*
X00403Y00565D02*
X00363D01*
Y00536*
X00389*
Y00551*
X00391Y00552*
X00398Y00556*
X00402Y00563*
X00403Y00565*
G37*
G36*
X00353Y00561D02*
X00326D01*
Y00536*
X00353*
Y00561*
G37*
G36*
X00669Y00606D02*
X00663Y00605D01*
X00657Y00601*
X00654Y00596*
X00653Y0059*
X00654Y00584*
X00657Y00579*
X00663Y00575*
X00663Y00575*
Y00557*
X00647*
Y00532*
X00629*
X00625Y00532*
X00621Y00529*
X00612Y00519*
X00609Y00516*
X00608Y00511*
Y00476*
X00602Y00473*
X00594Y00468*
X00589Y0046*
X00585Y00452*
X00584Y00442*
Y00383*
X00585Y00374*
X00589Y00365*
X00594Y00358*
X00602Y00352*
X00608Y0035*
Y0022*
X00602Y00218*
X00594Y00212*
X00589Y00204*
X00585Y00196*
X00584Y00187*
Y00127*
X00585Y00118*
X00589Y0011*
X00594Y00102*
X00602Y00096*
X0061Y00093*
X0062Y00092*
X00629Y00093*
X00638Y00096*
X00645Y00102*
X00651Y0011*
X00654Y00118*
X00655Y00127*
Y00187*
X00654Y00196*
X00651Y00204*
X00645Y00212*
X00638Y00218*
X00631Y0022*
Y0035*
X00638Y00352*
X00645Y00358*
X00651Y00365*
X00654Y00374*
X00655Y00383*
Y00442*
X00654Y00452*
X00651Y0046*
X00645Y00468*
X00638Y00473*
X00631Y00476*
Y00507*
X00634Y0051*
X00647*
Y00505*
X00702*
Y00557*
X00686*
Y00584*
X00685Y00588*
X00685Y00589*
X00685Y0059*
X00684Y00596*
X0068Y00601*
X00675Y00605*
X00669Y00606*
G37*
G36*
X00777Y00565D02*
X00737D01*
X00734Y00563*
X00732Y00561*
X0071*
Y00536*
X00742*
Y00531*
Y00536*
X00773*
Y00558*
X00776Y00563*
X00777Y00565*
G37*
G36*
X01068Y0062D02*
X01062Y00619D01*
X01057Y00615*
X01053Y0061*
X01052Y00604*
X01053Y00598*
X01057Y00592*
X01057Y00592*
Y00557*
X01041*
Y00542*
X01033*
X01029Y00541*
X01025Y00539*
X01005Y00519*
X01003Y00516*
X01002Y00511*
Y00476*
X00995Y00473*
X00988Y00468*
X00982Y0046*
X00979Y00452*
X00977Y00442*
Y00383*
X00979Y00374*
X00982Y00365*
X00988Y00358*
X00995Y00352*
X01002Y0035*
Y0022*
X00995Y00218*
X00988Y00212*
X00982Y00204*
X00979Y00196*
X00977Y00187*
Y00127*
X00979Y00118*
X00982Y0011*
X00988Y00102*
X00995Y00096*
X01004Y00093*
X01013Y00092*
X01023Y00093*
X01031Y00096*
X01039Y00102*
X01044Y0011*
X01048Y00118*
X01049Y00127*
Y00187*
X01048Y00196*
X01044Y00204*
X01039Y00212*
X01031Y00218*
X01024Y0022*
Y0035*
X01031Y00352*
X01039Y00358*
X01044Y00365*
X01048Y00374*
X01049Y00383*
Y00442*
X01048Y00452*
X01044Y0046*
X01039Y00468*
X01031Y00473*
X01024Y00476*
Y00507*
X01036Y00518*
X01041Y00516*
Y00505*
X01096*
Y00557*
X0108*
Y00592*
X0108Y00592*
X01083Y00598*
X01085Y00604*
X01083Y0061*
X0108Y00615*
X01075Y00619*
X01068Y0062*
G37*
G36*
X01167Y00526D02*
X0114D01*
Y00501*
X01167*
Y00526*
G37*
G36*
X0113D02*
X01104D01*
Y00501*
X0113*
Y00526*
G37*
G36*
X00773D02*
X00747D01*
Y00501*
X00773*
Y00526*
G37*
G36*
X00737D02*
X0071D01*
Y00501*
X00737*
Y00526*
G37*
G36*
X00389D02*
X00363D01*
Y00501*
X00389*
Y00526*
G37*
G36*
X00353D02*
X00326D01*
Y00501*
X00353*
Y00526*
G37*
G36*
X0119Y00478D02*
X01181Y00477D01*
X01173Y00473*
X01165Y00468*
X01159Y0046*
X01156Y00452*
X01155Y00442*
Y00383*
X01156Y00374*
X01159Y00365*
X01165Y00358*
X01173Y00352*
X01181Y00349*
X0119Y00348*
X012Y00349*
X01208Y00352*
X01216Y00358*
X01221Y00365*
X01225Y00374*
X01226Y00383*
Y00442*
X01225Y00452*
X01221Y0046*
X01216Y00468*
X01208Y00473*
X012Y00477*
X0119Y00478*
G37*
G36*
X00797D02*
X00787Y00477D01*
X00779Y00473*
X00771Y00468*
X00766Y0046*
X00762Y00452*
X00761Y00442*
Y00383*
X00762Y00374*
X00766Y00365*
X00771Y00358*
X00779Y00352*
X00787Y00349*
X00797Y00348*
X00806Y00349*
X00815Y00352*
X00822Y00358*
X00828Y00365*
X00831Y00374*
X00833Y00383*
Y00442*
X00831Y00452*
X00828Y0046*
X00822Y00468*
X00815Y00473*
X00806Y00477*
X00797Y00478*
G37*
G36*
X00413D02*
X00404Y00477D01*
X00395Y00473*
X00388Y00468*
X00382Y0046*
X00378Y00452*
X00377Y00442*
Y00383*
X00378Y00374*
X00382Y00365*
X00388Y00358*
X00395Y00352*
X00404Y00349*
X00413Y00348*
X00422Y00349*
X00431Y00352*
X00438Y00358*
X00444Y00365*
X00447Y00374*
X00449Y00383*
Y00442*
X00447Y00452*
X00444Y0046*
X00438Y00468*
X00431Y00473*
X00422Y00477*
X00413Y00478*
G37*
G36*
X0119Y00222D02*
X01181Y00221D01*
X01173Y00218*
X01165Y00212*
X01159Y00204*
X01156Y00196*
X01155Y00187*
Y00127*
X01156Y00118*
X01159Y0011*
X01165Y00102*
X01173Y00096*
X01181Y00093*
X0119Y00092*
X012Y00093*
X01208Y00096*
X01216Y00102*
X01221Y0011*
X01225Y00118*
X01226Y00127*
Y00187*
X01225Y00196*
X01221Y00204*
X01216Y00212*
X01208Y00218*
X012Y00221*
X0119Y00222*
G37*
G36*
X00797D02*
X00787Y00221D01*
X00779Y00218*
X00771Y00212*
X00766Y00204*
X00762Y00196*
X00761Y00187*
Y00127*
X00762Y00118*
X00766Y0011*
X00771Y00102*
X00779Y00096*
X00787Y00093*
X00797Y00092*
X00806Y00093*
X00815Y00096*
X00822Y00102*
X00828Y0011*
X00831Y00118*
X00833Y00127*
Y00187*
X00831Y00196*
X00828Y00204*
X00822Y00212*
X00815Y00218*
X00806Y00221*
X00797Y00222*
G37*
G36*
X00413D02*
X00404Y00221D01*
X00395Y00218*
X00388Y00212*
X00382Y00204*
X00378Y00196*
X00377Y00187*
Y00127*
X00378Y00118*
X00382Y0011*
X00388Y00102*
X00395Y00096*
X00404Y00093*
X00413Y00092*
X00422Y00093*
X00431Y00096*
X00438Y00102*
X00444Y0011*
X00447Y00118*
X00449Y00127*
Y00187*
X00447Y00196*
X00444Y00204*
X00438Y00212*
X00431Y00218*
X00422Y00221*
X00413Y00222*
G37*
%LNpcb1-3*%
%LPD*%
G54D23*
X0134Y01671D03*
X01297Y01714D03*
G54D24*
X00203Y0161D03*
X0038D03*
X00262D03*
G54D25*
X00147Y01737D03*
X00442D03*
G54D26*
X00145Y01648D03*
X00444D03*
G54D27*
X00521Y01667D03*
Y01722D03*
G54D28*
X01068Y00531D03*
X01135D03*
X00742D03*
X00675D03*
X00291D03*
X00358D03*
G54D29*
X0128Y0173D02*
X01297Y01714D01*
X01268Y0173D02*
X0128D01*
X01321Y01653D02*
X0134Y01671D01*
X01299Y01653D02*
X01321D01*
X01248Y01704D02*
X01299Y01653D01*
X00578Y01704D02*
X01248D01*
X01259Y01722D02*
X01268Y0173D01*
X00521Y01722D02*
X01259D01*
X00334Y01505D02*
X00383Y01555D01*
X00137Y01505D02*
X00334D01*
X00199Y01088D02*
X00458D01*
X00164Y01053D02*
X00199Y01088D01*
X00458D02*
X0057Y012D01*
X0062Y01141D02*
Y0119D01*
Y01141D02*
X00639Y01122D01*
X00649*
X01068Y00531D02*
Y00604D01*
X00393Y01279D02*
X00521D01*
X00669Y0059D02*
X00675Y00584D01*
Y00531D02*
Y00584D01*
X00285Y00537D02*
X00291Y00531D01*
X00285Y00537D02*
Y0057D01*
X00108Y01033D02*
X00127Y01053D01*
X00164*
X00486Y01667D02*
X00521D01*
X01328Y01309D02*
X01348D01*
Y01299D02*
Y01309D01*
X01309Y01328D02*
X01328Y01309D01*
X0061Y01328D02*
X01309D01*
X00262Y01548D02*
Y0161D01*
X01013Y00157D02*
Y00413D01*
X0062Y00157D02*
Y00413D01*
X00236Y00157D02*
Y00413D01*
X00236Y00413D02*
X00236Y00413D01*
X00236Y00413D02*
Y00521D01*
X00246Y00531*
X00291*
X00358D02*
Y00545D01*
X00383Y0057*
X0062Y00413D02*
X0062Y00413D01*
X0062Y00413D02*
Y00511D01*
X00629Y00521*
X00665*
X00675Y00531*
X00742D02*
Y00555D01*
X00757Y0057*
X01135Y00531D02*
Y00566D01*
X01013Y00413D02*
X01013Y00413D01*
X01013Y00413D02*
Y00511D01*
X01033Y00531*
X01068*
X01135D02*
X01161Y00557D01*
Y0058*
X0038Y0161D02*
X00383Y01607D01*
Y01555D02*
Y01607D01*
X00507Y01681D02*
X00521Y01667D01*
X0038Y0161D02*
X00387Y01617D01*
X00544*
X00561Y01633*
Y01687*
X00578Y01704*
G54D30*
X00255Y0104D03*
Y0114D03*
Y0124D03*
Y0134D03*
G54D31*
X00236Y01692D03*
X00354D03*
G54D32*
X00797Y00413D03*
Y00157D03*
X0062Y00413D03*
Y00157D03*
X00236D03*
Y00413D03*
X00413Y00157D03*
Y00413D03*
X0119D03*
Y00157D03*
X01013Y00413D03*
Y00157D03*
G54D33*
X00137Y01505D03*
X0062Y0119D03*
X00649Y01122D03*
X01068Y00604D03*
X00521Y01279D03*
X00393D03*
X00669Y0059D03*
X00285Y0057D03*
X00108Y01033D03*
X0057Y012D03*
X00486Y01667D03*
X01348Y01299D03*
X0061Y01328D03*
X00262Y01548D03*
X00383Y0057D03*
X00757D03*
X01135Y00566D03*
X01161Y0058D03*
X00383Y01555D03*
M02*