%FSTAX23Y23*%
%MOIN*%
%SFA1B1*%

%IPPOS*%
%AMD13*
4,1,4,-0.033400,-0.005600,-0.005600,-0.033400,0.033400,0.005600,0.005600,0.033400,-0.033400,-0.005600,0.0*
%
G04~CAMADD=13~9~0.0~0.0~395.0~552.4~0.0~0.0~0~0.0~0.0~0.0~0.0~0~0.0~0.0~0.0~0.0~0~0.0~0.0~0.0~135.0~668.0~667.0*
%ADD13D13*%
%ADD14R,0.039500X0.086740*%
%ADD15R,0.047370X0.039500*%
%ADD16R,0.043429X0.039500*%
%ADD17R,0.043433X0.039496*%
%ADD18R,0.051311X0.047370*%
%ADD19O,0.156000X0.082000*%
%ADD20C,0.039500*%
%ADD21O,0.067055X0.126110*%
%ADD22C,0.027685*%
%LNpcb1-1*%
%LPD*%
G54D13*
X0134Y01671D03*
X01297Y01714D03*
G54D14*
X00203Y0161D03*
X0038D03*
X00262D03*
G54D15*
X00147Y01737D03*
X00442D03*
G54D16*
X00145Y01648D03*
X00444D03*
G54D17*
X00521Y01667D03*
Y01722D03*
G54D18*
X01068Y00531D03*
X01135D03*
X00742D03*
X00675D03*
X00291D03*
X00358D03*
G54D19*
X00255Y0104D03*
Y0114D03*
Y0124D03*
Y0134D03*
G54D20*
X00236Y01692D03*
X00354D03*
G54D21*
X00797Y00413D03*
Y00157D03*
X0062Y00413D03*
Y00157D03*
X00236D03*
Y00413D03*
X00413Y00157D03*
Y00413D03*
X0119D03*
Y00157D03*
X01013Y00413D03*
Y00157D03*
G54D22*
X00137Y01505D03*
X0062Y0119D03*
X00649Y01122D03*
X01068Y00604D03*
X00521Y01279D03*
X00393D03*
X00669Y0059D03*
X00285Y0057D03*
X00108Y01033D03*
X0057Y012D03*
X00486Y01667D03*
X01348Y01299D03*
X0061Y01328D03*
X00262Y01548D03*
X00383Y0057D03*
X00757D03*
X01135Y00566D03*
X01161Y0058D03*
X00383Y01555D03*
M02*