%FSTAX23Y23*%
%MOIN*%
%SFA1B1*%

%IPPOS*%
%ADD10C,0.008000*%
%ADD11C,0.005000*%
%ADD29C,0.010000*%
%LNpcb1-1*%
%LPD*%
G36*
X00492Y0123D02*
X00487D01*
X00487Y0125*
X00487Y01258*
X00485Y01253*
X00481Y0124*
X00478*
X00473Y01253*
X00471Y01258*
X00471Y0125*
X0047Y0123*
X00466*
X00468Y01262*
X00473*
X00478Y0125*
X00479Y01246*
X0048Y0125*
X00485Y01262*
X0049*
X00492Y0123*
G37*
G36*
X0046Y01259D02*
X00453D01*
Y01234*
X0046*
Y0123*
X00441*
Y01234*
X00448*
Y01259*
X00441*
Y01262*
X0046*
Y01259*
G37*
G36*
X00422Y01263D02*
X00423Y01263D01*
X00424Y01263*
X00425Y01263*
X00426Y01262*
X00426Y01262*
X00427Y01262*
X00427Y01262*
X00428Y01262*
X00428Y01261*
X00429Y01261*
X0043Y01261*
X0043Y01261*
X0043Y0126*
X00431Y0126*
X00431Y0126*
X00431Y0126*
X00432Y01259*
X00432Y01259*
X00432Y01258*
X00432Y01258*
X00433Y01257*
X00433Y01257*
X00433Y01257*
X00433Y01257*
X00433Y01256*
X00433Y01255*
X00433Y01255*
Y01255*
X00433Y01254*
Y01254*
Y01254*
X00433Y01253*
X00433Y01253*
X00433Y01252*
X00433Y01252*
X00433Y01251*
X00433Y01251*
X00433Y01251*
Y01251*
X00432Y0125*
X00432Y01249*
X00431Y01249*
X00431Y01249*
X00431Y01248*
X00431Y01248*
X00431Y01248*
X0043Y01247*
X00429Y01247*
X00429Y01247*
X00428Y01246*
X00428Y01246*
X00428Y01246*
X00427Y01246*
X00426Y01246*
X00426Y01245*
X00426Y01245*
X00425Y01245*
X00425Y01245*
X00425Y01245*
X00424Y01244*
X00423Y01244*
X00423Y01244*
X00422Y01244*
X00422Y01244*
X00422Y01244*
X00422Y01244*
X00421Y01243*
X0042Y01243*
X0042Y01243*
X0042Y01243*
X00419Y01242*
X00419Y01242*
X00419Y01242*
X00418Y01242*
X00418Y01241*
X00417Y01241*
X00417Y01241*
X00417Y01241*
X00417Y01241*
X00417Y0124*
X00417Y0124*
X00416Y01239*
X00416Y01239*
X00416Y01239*
Y01238*
Y01238*
X00416Y01237*
X00417Y01237*
X00417Y01237*
X00417Y01236*
X00417Y01236*
Y01236*
X00417Y01236*
X00418Y01235*
X00418Y01235*
X00418Y01235*
X00418Y01235*
X00419Y01234*
X0042Y01234*
X0042Y01234*
X0042Y01234*
X00421Y01234*
X00421*
X00421Y01233*
X00422Y01233*
X00422Y01233*
X00423*
X00424Y01233*
X00425*
X00426Y01233*
X00427Y01233*
X00428Y01233*
X00429Y01234*
X00429Y01234*
X0043Y01234*
X0043*
X0043Y01234*
X00431Y01234*
X00432Y01234*
X00433Y01234*
X00433Y01235*
X00433Y01235*
X00434Y01235*
X00434Y01235*
Y01231*
X00433Y0123*
X00433Y0123*
X00432Y0123*
X00432Y0123*
X00432Y0123*
X00432*
X00431Y0123*
X0043Y0123*
X0043Y0123*
X0043Y0123*
X0043*
X00429Y0123*
X00428Y0123*
X00428*
X00428Y01229*
X00427*
X00426Y01229*
X00426*
X00425Y01229*
X00424*
X00423Y01229*
X00422Y0123*
X00421Y0123*
X0042Y0123*
X0042Y0123*
X0042Y0123*
X00419*
X00419Y0123*
X00418Y0123*
X00417Y01231*
X00417Y01231*
X00416Y01231*
X00416Y01231*
X00415Y01232*
X00415Y01232*
X00415Y01232*
X00414Y01233*
X00414Y01233*
X00413Y01234*
X00413Y01234*
X00413Y01234*
X00413Y01234*
X00413Y01235*
X00412Y01235*
X00412Y01236*
X00412Y01237*
X00412Y01237*
X00412Y01238*
X00412Y01238*
Y01239*
Y01239*
X00412Y01239*
X00412Y0124*
X00412Y01241*
X00412Y01241*
X00412Y01241*
X00412Y01242*
X00412Y01242*
X00412Y01242*
X00413Y01243*
X00413Y01243*
X00414Y01244*
X00414Y01244*
X00414Y01244*
X00414Y01244*
X00414Y01245*
X00415Y01245*
X00416Y01246*
X00417Y01246*
X00417Y01246*
X00417Y01246*
X00417Y01246*
X00418Y01247*
X00419Y01247*
X00419Y01247*
X0042Y01247*
X0042Y01248*
X0042Y01248*
X0042*
X00421Y01248*
X00422Y01248*
X00422Y01249*
X00423Y01249*
X00423Y01249*
X00423Y01249*
X00423*
X00424Y01249*
X00425Y0125*
X00425Y0125*
X00426Y0125*
X00426Y0125*
X00426Y0125*
X00426Y0125*
X00427Y01251*
X00428Y01251*
X00428Y01252*
X00428Y01252*
X00428Y01252*
X00428Y01252*
X00428Y01252*
X00429Y01253*
X00429Y01254*
X00429Y01254*
X00429Y01254*
Y01254*
Y01254*
X00429Y01255*
X00429Y01256*
X00428Y01256*
X00428Y01257*
X00428Y01257*
X00427Y01258*
X00427Y01258*
X00427Y01258*
X00426Y01258*
X00425Y01259*
X00424Y01259*
X00424Y01259*
X00423Y01259*
X00422Y01259*
X00421*
X0042Y01259*
X00419Y01259*
X00419*
X00418Y01259*
X00418Y01259*
X00418Y01259*
X00418*
X00416Y01259*
X00416Y01258*
X00415Y01258*
X00415Y01258*
X00414Y01258*
X00414Y01258*
X00414*
Y01262*
X00414Y01262*
X00415Y01262*
X00415Y01262*
X00415Y01262*
X00416*
X00416Y01262*
X00417Y01263*
X00417*
X00417Y01263*
X00418*
X00418Y01263*
X00419Y01263*
X00419Y01263*
X0042*
X0042Y01263*
X00421Y01263*
X00421*
X00422Y01263*
G37*
G36*
X00395D02*
X00396Y01263D01*
X00397Y01263*
X00398Y01262*
X00398Y01262*
X00399Y01262*
X00399Y01262*
X00399Y01262*
X004Y01261*
X00401Y01261*
X00401Y0126*
X00402Y0126*
X00403Y01259*
X00403Y01259*
X00403Y01259*
X00403Y01259*
X00404Y01258*
X00404Y01257*
X00405Y01256*
X00405Y01255*
X00406Y01255*
X00406Y01254*
X00406Y01254*
X00406Y01254*
X00406Y01254*
Y01254*
X00406Y01252*
X00407Y01251*
X00407Y0125*
X00407Y01249*
X00407Y01247*
Y01247*
X00407Y01247*
Y01246*
Y01246*
Y01246*
Y01246*
X00407Y01245*
X00407Y01243*
X00407Y01242*
X00407Y01241*
X00407Y0124*
X00407Y0124*
X00406Y01239*
X00406Y01239*
X00406Y01239*
Y01239*
Y01239*
X00406Y01238*
X00406Y01237*
X00405Y01236*
X00405Y01235*
X00405Y01235*
X00404Y01234*
X00404Y01234*
X00404Y01234*
X00403Y01233*
X00403Y01232*
X00402Y01232*
X00401Y01231*
X00401Y01231*
X00401Y01231*
X004Y01231*
X004Y0123*
X00399Y0123*
X00398Y0123*
X00397Y0123*
X00397Y01229*
X00396Y01229*
X00395Y01229*
X00395*
X00394Y01229*
X00393Y0123*
X00392Y0123*
X00391Y0123*
X00391Y0123*
X0039Y0123*
X0039Y0123*
X0039Y0123*
X00389Y01231*
X00388Y01231*
X00387Y01232*
X00387Y01232*
X00386Y01233*
X00386Y01233*
X00386Y01233*
X00386Y01233*
X00385Y01234*
X00384Y01235*
X00384Y01236*
X00383Y01237*
X00383Y01238*
X00383Y01238*
X00383Y01238*
X00383Y01239*
X00383Y01239*
Y01239*
X00382Y0124*
X00382Y01241*
X00382Y01243*
X00382Y01244*
X00382Y01245*
Y01245*
X00382Y01246*
Y01246*
Y01246*
Y01246*
Y01246*
X00382Y01248*
X00382Y01249*
X00382Y0125*
X00382Y01251*
X00382Y01252*
X00382Y01253*
X00382Y01253*
Y01253*
X00382Y01253*
Y01253*
X00383Y01254*
X00383Y01255*
X00384Y01256*
X00384Y01257*
X00384Y01258*
X00385Y01258*
X00385Y01258*
X00385Y01258*
X00385Y01259*
X00386Y0126*
X00387Y0126*
X00387Y01261*
X00388Y01261*
X00388Y01262*
X00389Y01262*
X00389Y01262*
X0039Y01262*
X00391Y01262*
X00391Y01263*
X00392Y01263*
X00393Y01263*
X00394Y01263*
X00394*
X00395Y01263*
G37*
G36*
X00434Y01377D02*
X0043D01*
Y01393*
X00418Y01377*
X00412*
X00425Y01395*
X00413Y0141*
X00418*
X0043Y01395*
Y0141*
X00434*
Y01377*
G37*
G36*
X00451Y0141D02*
X00452Y0141D01*
X00453Y0141*
X00454Y0141*
X00454Y0141*
X00455Y01409*
X00455Y01409*
X00455Y01409*
X00455*
X00456Y01409*
X00457Y01408*
X00458Y01408*
X00459Y01407*
X00459Y01407*
X0046Y01406*
X0046Y01406*
X0046Y01406*
X00461Y01405*
X00461Y01404*
X00462Y01403*
X00462Y01402*
X00463Y01402*
X00463Y01401*
X00463Y01401*
X00463Y01401*
X00463Y01401*
Y014*
X00463Y01399*
X00464Y01398*
X00464Y01397*
X00464Y01396*
X00464Y01395*
Y01394*
X00464Y01394*
Y01394*
Y01394*
Y01393*
Y01393*
X00464Y01392*
X00464Y01391*
X00464Y01389*
X00463Y01388*
X00463Y01387*
X00463Y01386*
X00462Y01385*
X00462Y01384*
X00462Y01383*
X00461Y01383*
X00461Y01382*
X00461Y01382*
X00461Y01382*
X0046Y01381*
X0046Y01381*
X0046Y01381*
X0046Y0138*
X00459Y0138*
X00458Y01379*
X00457Y01379*
X00456Y01378*
X00455Y01378*
X00454Y01378*
X00454Y01378*
X00453Y01377*
X00452Y01377*
X00451Y01377*
X00451Y01377*
X0045Y01377*
X0045*
X00448Y01377*
X00447Y01377*
X00445Y01378*
X00444Y01378*
X00443Y01378*
X00443Y01378*
X00442Y01378*
X00442Y01378*
X00442Y01379*
X00442Y01379*
X00441Y01379*
X00441*
Y01383*
X00443Y01382*
X00443Y01382*
X00444Y01382*
X00444Y01382*
X00445Y01382*
X00445Y01381*
X00445*
X00447Y01381*
X00447Y01381*
X00448Y01381*
X00448Y01381*
X00449*
X0045Y01381*
X00451Y01381*
X00452Y01382*
X00454Y01382*
X00455Y01383*
X00455Y01383*
X00456Y01383*
X00456Y01383*
X00456Y01384*
X00456Y01384*
X00457Y01384*
X00457Y01384*
X00457Y01384*
X00457Y01385*
X00457Y01386*
X00458Y01387*
X00459Y01389*
X00459Y0139*
X00459Y01391*
X00459Y01392*
X00459Y01392*
Y01393*
X00459Y01393*
Y01393*
Y01394*
Y01394*
X00459Y01395*
X00459Y01396*
X00459Y01397*
X00459Y01398*
X00459Y01398*
X00459Y01399*
X00459Y01399*
Y01399*
X00458Y014*
X00458Y01401*
X00458Y01401*
X00457Y01402*
X00457Y01402*
X00457Y01403*
X00457Y01403*
X00457Y01403*
X00456Y01404*
X00456Y01404*
X00455Y01405*
X00454Y01405*
X00454Y01405*
X00454Y01405*
X00453Y01406*
X00453Y01406*
X00453Y01406*
X00452Y01406*
X00451Y01406*
X00451Y01406*
X0045Y01406*
X0045Y01407*
X00448*
X00448Y01406*
X00447Y01406*
X00446Y01406*
X00446Y01406*
X00445Y01406*
X00445Y01406*
X00445*
X00444Y01406*
X00443Y01405*
X00443Y01405*
X00442Y01405*
X00442Y01405*
X00441Y01405*
X00441Y01405*
Y01409*
X00443Y01409*
X00443Y0141*
X00444Y0141*
X00444Y0141*
X00445Y0141*
X00445Y0141*
X00445*
X00447Y0141*
X00447Y0141*
X00448Y0141*
X00449Y01411*
X00449*
X00451Y0141*
G37*
G36*
X0048Y01411D02*
X00481Y0141D01*
X00482Y0141*
X00483Y0141*
X00484Y0141*
X00484Y0141*
X00484Y0141*
X00485Y0141*
X00485Y01409*
X00486Y01409*
X00487Y01409*
X00487Y01408*
X00488Y01408*
X00488Y01408*
X00488Y01408*
X00488Y01408*
X00489Y01407*
X00489Y01407*
X0049Y01406*
X0049Y01406*
X0049Y01405*
X0049Y01405*
X00491Y01405*
X00491Y01405*
X00491Y01404*
X00491Y01404*
X00491Y01403*
X00491Y01403*
Y01402*
X00491Y01402*
Y01402*
Y01402*
X00491Y01401*
X00491Y014*
X00491Y014*
X00491Y01399*
X00491Y01399*
X00491Y01398*
X00491Y01398*
Y01398*
X0049Y01397*
X0049Y01397*
X00489Y01396*
X00489Y01396*
X00489Y01396*
X00489Y01396*
X00489Y01396*
X00488Y01395*
X00487Y01394*
X00486Y01394*
X00486Y01394*
X00486Y01394*
X00486Y01394*
X00485Y01393*
X00484Y01393*
X00484Y01393*
X00483Y01393*
X00483Y01393*
X00483Y01393*
X00483Y01393*
X00482Y01392*
X00481Y01392*
X00481Y01392*
X0048Y01391*
X0048Y01391*
X0048Y01391*
X0048Y01391*
X00479Y01391*
X00478Y01391*
X00478Y0139*
X00477Y0139*
X00477Y0139*
X00477Y0139*
X00477Y0139*
X00476Y01389*
X00475Y01389*
X00475Y01389*
X00475Y01388*
X00475Y01388*
X00475Y01388*
X00475Y01388*
X00474Y01388*
X00474Y01387*
X00474Y01386*
X00474Y01386*
Y01386*
Y01386*
X00474Y01385*
X00474Y01384*
X00474Y01384*
X00475Y01384*
X00475Y01384*
Y01384*
X00475Y01383*
X00475Y01383*
X00476Y01382*
X00476Y01382*
X00476Y01382*
X00477Y01382*
X00478Y01381*
X00478Y01381*
X00478Y01381*
X00478Y01381*
X00478*
X00479Y01381*
X0048Y01381*
X0048Y01381*
X00481*
X00481Y01381*
X00483*
X00484Y01381*
X00485Y01381*
X00486Y01381*
X00487Y01381*
X00487Y01381*
X00487Y01381*
X00487*
X00488Y01381*
X00489Y01382*
X0049Y01382*
X0049Y01382*
X00491Y01382*
X00491Y01382*
X00492Y01382*
X00492Y01382*
Y01378*
X00491Y01378*
X0049Y01378*
X0049Y01378*
X0049Y01378*
X0049Y01378*
X0049*
X00489Y01378*
X00488Y01377*
X00488Y01377*
X00488Y01377*
X00488*
X00487Y01377*
X00486Y01377*
X00486*
X00485Y01377*
X00485*
X00484Y01377*
X00484*
X00483Y01377*
X00481*
X0048Y01377*
X0048Y01377*
X00479Y01377*
X00478Y01377*
X00478Y01377*
X00477Y01378*
X00477*
X00476Y01378*
X00476Y01378*
X00475Y01378*
X00474Y01379*
X00474Y01379*
X00473Y01379*
X00473Y01379*
X00473Y01379*
X00473Y0138*
X00472Y0138*
X00472Y01381*
X00471Y01381*
X00471Y01382*
X00471Y01382*
X00471Y01382*
X00471Y01382*
X0047Y01383*
X0047Y01384*
X0047Y01384*
X0047Y01385*
X0047Y01385*
X0047Y01386*
Y01386*
Y01386*
X0047Y01387*
X0047Y01388*
X0047Y01388*
X0047Y01389*
X0047Y01389*
X0047Y01389*
X0047Y0139*
X0047Y0139*
X00471Y01391*
X00471Y01391*
X00472Y01391*
X00472Y01392*
X00472Y01392*
X00472Y01392*
X00472Y01392*
X00473Y01393*
X00474Y01393*
X00474Y01394*
X00475Y01394*
X00475Y01394*
X00475Y01394*
X00476Y01394*
X00477Y01395*
X00477Y01395*
X00478Y01395*
X00478Y01395*
X00478Y01395*
X00478*
X00479Y01396*
X0048Y01396*
X0048Y01396*
X00481Y01396*
X00481Y01397*
X00481Y01397*
X00481*
X00482Y01397*
X00483Y01397*
X00483Y01398*
X00483Y01398*
X00484Y01398*
X00484Y01398*
X00484Y01398*
X00485Y01399*
X00485Y01399*
X00486Y01399*
X00486Y014*
X00486Y014*
X00486Y014*
X00486Y014*
X00486Y014*
X00486Y01401*
X00487Y01401*
X00487Y01402*
Y01402*
Y01402*
X00487Y01403*
X00486Y01403*
X00486Y01404*
X00486Y01404*
X00485Y01405*
X00485Y01405*
X00485Y01405*
X00485Y01405*
X00484Y01406*
X00483Y01406*
X00482Y01406*
X00481Y01407*
X00481Y01407*
X0048Y01407*
X00479*
X00478Y01407*
X00477Y01407*
X00477*
X00476Y01407*
X00476Y01406*
X00476Y01406*
X00475*
X00474Y01406*
X00473Y01406*
X00473Y01406*
X00472Y01406*
X00472Y01406*
X00472Y01406*
X00472*
Y0141*
X00472Y0141*
X00473Y0141*
X00473Y0141*
X00473Y0141*
X00473*
X00474Y0141*
X00475Y0141*
X00475*
X00475Y0141*
X00475*
X00476Y0141*
X00477Y0141*
X00477Y0141*
X00477*
X00478Y01411*
X00479Y01411*
X00479*
X0048Y01411*
G37*
G36*
X0125Y0123D02*
X01245D01*
Y0124*
Y01257*
X01242Y0125*
X01233Y0123*
X01227*
Y01262*
X01232*
Y01253*
Y01236*
X01235Y01243*
X01244Y01262*
X0125*
Y0123*
G37*
G36*
X01265Y01263D02*
X01266Y01263D01*
X01267Y01263*
X01268Y01262*
X01269Y01262*
X01269Y01262*
X0127Y01262*
X0127Y01262*
X0127Y01262*
X0127*
X01271Y01261*
X01272Y01261*
X01273Y0126*
X01273Y0126*
X01274Y01259*
X01274Y01259*
X01275Y01258*
X01275Y01258*
X01276Y01257*
X01276Y01257*
X01277Y01256*
X01277Y01255*
X01277Y01254*
X01278Y01253*
X01278Y01253*
X01278Y01253*
X01278Y01253*
Y01253*
X01278Y01252*
X01279Y0125*
X01279Y01249*
X01279Y01248*
X01279Y01247*
Y01247*
X01279Y01246*
Y01246*
Y01246*
Y01246*
Y01246*
X01279Y01244*
X01279Y01243*
X01279Y01242*
X01279Y01241*
X01278Y0124*
X01278Y01239*
X01278Y01239*
X01278Y01239*
X01278Y01239*
X01278Y01239*
Y01239*
X01278Y01237*
X01277Y01236*
X01277Y01236*
X01276Y01235*
X01276Y01234*
X01275Y01234*
X01275Y01234*
X01275Y01233*
X01274Y01233*
X01274Y01232*
X01273Y01232*
X01272Y01231*
X01272Y01231*
X01271Y01231*
X01271Y0123*
X01271Y0123*
X0127Y0123*
X01268Y0123*
X01268Y0123*
X01267Y01229*
X01266Y01229*
X01265Y01229*
X01265*
X01264Y01229*
X01263Y01229*
X01263*
X01262Y0123*
X01262*
X01261Y0123*
X01261Y0123*
X0126Y0123*
X0126Y0123*
X0126*
X01259Y0123*
X01258Y0123*
X01258Y0123*
X01258Y0123*
X01258Y0123*
X01258*
X01257Y01231*
X01256Y01231*
X01256Y01231*
X01256Y01231*
X01255Y01231*
X01255*
Y01248*
X01267*
Y01244*
X0126*
Y01234*
X0126Y01234*
X0126Y01234*
X01261Y01234*
X01261*
X01261Y01234*
X01261Y01233*
X01262Y01233*
X01262*
X01262Y01233*
X01263*
X01263Y01233*
X01264*
X01265Y01233*
X01266Y01233*
X01267Y01234*
X01267Y01234*
X01268Y01234*
X01268Y01234*
X01269Y01234*
X01269Y01234*
X01269Y01234*
X0127Y01235*
X01271Y01235*
X01271Y01236*
X01271Y01236*
X01272Y01236*
X01272Y01237*
X01272Y01237*
X01272Y01237*
X01273Y01238*
X01273Y01239*
X01273Y01239*
X01274Y0124*
X01274Y0124*
X01274Y01241*
X01274Y01241*
X01274Y01242*
X01274Y01243*
X01274Y01243*
X01274Y01244*
Y01245*
X01274Y01246*
Y01246*
Y01246*
Y01246*
Y01246*
X01274Y01247*
X01274Y01248*
X01274Y01249*
X01274Y0125*
X01274Y0125*
X01274Y01251*
X01274Y01251*
Y01251*
X01273Y01252*
X01273Y01253*
X01273Y01254*
X01272Y01254*
X01272Y01255*
X01272Y01255*
X01272Y01255*
X01272Y01255*
X01271Y01256*
X0127Y01256*
X0127Y01257*
X01269Y01257*
X01269Y01258*
X01269Y01258*
X01268Y01258*
X01268Y01258*
X01267Y01258*
X01267Y01259*
X01266Y01259*
X01265Y01259*
X01264Y01259*
X01264Y01259*
X01263*
X01262Y01259*
X01261Y01259*
X01261Y01259*
X0126Y01259*
X0126Y01258*
X01259Y01258*
X01259*
X01258Y01258*
X01257Y01258*
X01257Y01257*
X01256Y01257*
X01256Y01257*
X01256Y01257*
X01256Y01257*
Y01261*
X01257Y01262*
X01258Y01262*
X01258Y01262*
X01259Y01262*
X01259Y01262*
X01259Y01263*
X01259*
X01261Y01263*
X01262Y01263*
X01262Y01263*
X01263Y01263*
X01264*
X01265Y01263*
G37*
G36*
X01222Y0123D02*
X01214D01*
X01213Y0123*
X01212Y0123*
X01211Y0123*
X0121Y0123*
X0121Y0123*
X01209Y0123*
X01209*
X01208Y01231*
X01207Y01231*
X01207Y01231*
X01206Y01231*
X01206Y01232*
X01205Y01232*
X01205Y01232*
X01205Y01232*
X01204Y01232*
X01204Y01233*
X01203Y01233*
X01203Y01234*
X01202Y01234*
X01202Y01234*
X01202Y01235*
X01202Y01235*
X01201Y01236*
X012Y01236*
X012Y01237*
X012Y01237*
X012Y01238*
X012Y01238*
X012Y01238*
X01199Y01239*
X01199Y0124*
X01199Y01241*
X01199Y01241*
X01199Y01242*
X01198Y01242*
Y01242*
X01198Y01244*
X01198Y01244*
X01198Y01245*
X01198Y01246*
Y01246*
Y01246*
Y01246*
X01198Y01248*
X01198Y01249*
X01198Y01251*
X01199Y01252*
X01199Y01253*
X01199Y01254*
X012Y01255*
X012Y01255*
X012Y01256*
X01201Y01257*
X01201Y01257*
X01201Y01258*
X01202Y01258*
X01202Y01258*
X01202Y01258*
X01202Y01258*
X01203Y01259*
X01203Y0126*
X01204Y0126*
X01205Y01261*
X01206Y01261*
X01207Y01261*
X01209Y01262*
X0121Y01262*
X01211Y01262*
X01211Y01262*
X01212Y01262*
X01213Y01262*
X01222*
Y0123*
G37*
G36*
X01279Y01377D02*
X01275D01*
Y01392*
X01273*
X01272Y01392*
X01271Y01392*
X01271Y01392*
X01271*
X01271Y01392*
X01271*
X0127Y01392*
X0127Y01391*
X01269Y01391*
X01269Y01391*
X01269Y01391*
X01268Y0139*
X01268Y0139*
X01268Y0139*
Y0139*
X01268Y01389*
X01267Y01389*
X01267Y01388*
X01267Y01388*
X01267Y01388*
Y01388*
X01262Y01377*
X01257*
X01262Y01388*
X01263Y01389*
X01263Y0139*
X01263Y0139*
X01264Y01391*
X01264Y01391*
X01264Y01391*
X01264Y01391*
X01264Y01391*
X01265Y01392*
X01265Y01392*
X01265Y01392*
X01266Y01393*
X01266Y01393*
X01266Y01393*
X01266Y01393*
X01267*
X01266Y01393*
X01265Y01393*
X01265Y01394*
X01264Y01394*
X01264Y01394*
X01264Y01394*
X01264Y01394*
X01264Y01394*
X01263Y01395*
X01262Y01395*
X01262Y01395*
X01262Y01396*
X01261Y01396*
X01261Y01396*
X01261Y01396*
X01261Y01397*
X0126Y01398*
X0126Y01398*
X0126Y01398*
X0126Y01399*
Y01399*
X0126Y014*
X0126Y014*
X0126Y01401*
X01259Y01401*
Y01401*
Y01401*
Y01401*
Y01402*
X0126Y01403*
X0126Y01403*
X0126Y01404*
X0126Y01404*
X0126Y01405*
X0126Y01405*
X0126Y01405*
X0126Y01406*
X01261Y01406*
X01261Y01407*
X01261Y01407*
X01262Y01407*
X01262Y01408*
X01262Y01408*
X01262Y01408*
X01263Y01408*
X01263Y01408*
X01264Y01409*
X01264Y01409*
X01265Y01409*
X01265Y01409*
X01265Y01409*
X01265*
X01266Y0141*
X01267Y0141*
X01268Y0141*
X01269Y0141*
X01269*
X0127Y0141*
X01279*
Y01377*
G37*
G36*
X01225Y01406D02*
X01215D01*
Y01377*
X01211*
Y01406*
X01201*
Y0141*
X01225*
Y01406*
G37*
G36*
X01241Y01411D02*
X01242Y0141D01*
X01243Y0141*
X01244Y0141*
X01244Y0141*
X01245Y0141*
X01245Y0141*
X01245Y0141*
X01246Y01409*
X01247Y01409*
X01248Y01409*
X01248Y01408*
X01249Y01408*
X01249Y01408*
X01249Y01408*
X01249Y01408*
X0125Y01407*
X0125Y01407*
X01251Y01406*
X01251Y01406*
X01251Y01405*
X01251Y01405*
X01251Y01405*
X01251Y01405*
X01252Y01404*
X01252Y01404*
X01252Y01403*
X01252Y01403*
Y01402*
X01252Y01402*
Y01402*
Y01402*
X01252Y01401*
X01252Y014*
X01252Y014*
X01252Y01399*
X01252Y01399*
X01251Y01398*
X01251Y01398*
Y01398*
X01251Y01397*
X0125Y01397*
X0125Y01396*
X0125Y01396*
X0125Y01396*
X01249Y01396*
X01249Y01396*
X01248Y01395*
X01248Y01394*
X01247Y01394*
X01247Y01394*
X01247Y01394*
X01247Y01394*
X01246Y01393*
X01245Y01393*
X01245Y01393*
X01244Y01393*
X01244Y01393*
X01244Y01393*
X01244Y01393*
X01242Y01392*
X01242Y01392*
X01241Y01392*
X01241Y01391*
X01241Y01391*
X0124Y01391*
X0124Y01391*
X01239Y01391*
X01239Y01391*
X01238Y0139*
X01238Y0139*
X01238Y0139*
X01238Y0139*
X01238Y0139*
X01237Y01389*
X01236Y01389*
X01236Y01389*
X01236Y01388*
X01236Y01388*
X01236Y01388*
X01235Y01388*
X01235Y01388*
X01235Y01387*
X01235Y01386*
X01235Y01386*
Y01386*
Y01386*
X01235Y01385*
X01235Y01384*
X01235Y01384*
X01235Y01384*
X01235Y01384*
Y01384*
X01236Y01383*
X01236Y01383*
X01237Y01382*
X01237Y01382*
X01237Y01382*
X01238Y01382*
X01238Y01381*
X01239Y01381*
X01239Y01381*
X01239Y01381*
X01239*
X0124Y01381*
X0124Y01381*
X01241Y01381*
X01242*
X01242Y01381*
X01244*
X01245Y01381*
X01246Y01381*
X01247Y01381*
X01247Y01381*
X01248Y01381*
X01248Y01381*
X01248*
X01249Y01381*
X0125Y01382*
X01251Y01382*
X01251Y01382*
X01252Y01382*
X01252Y01382*
X01252Y01382*
X01252Y01382*
Y01378*
X01252Y01378*
X01251Y01378*
X01251Y01378*
X01251Y01378*
X01251Y01378*
X01251*
X0125Y01378*
X01249Y01377*
X01249Y01377*
X01248Y01377*
X01248*
X01247Y01377*
X01247Y01377*
X01246*
X01246Y01377*
X01246*
X01245Y01377*
X01244*
X01244Y01377*
X01242*
X01241Y01377*
X0124Y01377*
X0124Y01377*
X01239Y01377*
X01238Y01377*
X01238Y01378*
X01238*
X01237Y01378*
X01236Y01378*
X01236Y01378*
X01235Y01379*
X01235Y01379*
X01234Y01379*
X01234Y01379*
X01234Y01379*
X01233Y0138*
X01233Y0138*
X01232Y01381*
X01232Y01381*
X01232Y01382*
X01231Y01382*
X01231Y01382*
X01231Y01382*
X01231Y01383*
X01231Y01384*
X01231Y01384*
X0123Y01385*
X0123Y01385*
X0123Y01386*
Y01386*
Y01386*
X0123Y01387*
X0123Y01388*
X01231Y01388*
X01231Y01389*
X01231Y01389*
X01231Y01389*
X01231Y0139*
X01231Y0139*
X01232Y01391*
X01232Y01391*
X01232Y01391*
X01233Y01392*
X01233Y01392*
X01233Y01392*
X01233Y01392*
X01234Y01393*
X01235Y01393*
X01235Y01394*
X01236Y01394*
X01236Y01394*
X01236Y01394*
X01237Y01394*
X01237Y01395*
X01238Y01395*
X01238Y01395*
X01239Y01395*
X01239Y01395*
X01239*
X0124Y01396*
X01241Y01396*
X01241Y01396*
X01241Y01396*
X01242Y01397*
X01242Y01397*
X01242*
X01243Y01397*
X01244Y01397*
X01244Y01398*
X01244Y01398*
X01245Y01398*
X01245Y01398*
X01245Y01398*
X01246Y01399*
X01246Y01399*
X01246Y01399*
X01247Y014*
X01247Y014*
X01247Y014*
X01247Y014*
X01247Y014*
X01247Y01401*
X01247Y01401*
X01247Y01402*
Y01402*
Y01402*
X01247Y01403*
X01247Y01403*
X01247Y01404*
X01247Y01404*
X01246Y01405*
X01246Y01405*
X01246Y01405*
X01246Y01405*
X01245Y01406*
X01244Y01406*
X01243Y01406*
X01242Y01407*
X01241Y01407*
X01241Y01407*
X0124*
X01239Y01407*
X01238Y01407*
X01237*
X01237Y01407*
X01237Y01406*
X01236Y01406*
X01236*
X01235Y01406*
X01234Y01406*
X01234Y01406*
X01233Y01406*
X01233Y01406*
X01232Y01406*
X01232*
Y0141*
X01233Y0141*
X01234Y0141*
X01234Y0141*
X01234Y0141*
X01234*
X01235Y0141*
X01236Y0141*
X01236*
X01236Y0141*
X01236*
X01237Y0141*
X01237Y0141*
X01238Y0141*
X01238*
X01239Y01411*
X01239Y01411*
X0124*
X01241Y01411*
G37*
G36*
X01279Y01515D02*
X01275D01*
X01274Y01535*
X01274Y01543*
X01273Y01538*
X01268Y01526*
X01265*
X0126Y01539*
X01259Y01543*
X01258Y01536*
X01258Y01515*
X01253*
X01255Y01548*
X0126*
X01265Y01536*
X01266Y01531*
X01268Y01536*
X01272Y01548*
X01277*
X01279Y01515*
G37*
G36*
X01192Y01544D02*
X01184D01*
Y01519*
X01192*
Y01515*
X01172*
Y01519*
X0118*
Y01544*
X01172*
Y01548*
X01192*
Y01544*
G37*
G36*
X01239Y01548D02*
X0124Y01548D01*
X01241Y01548*
X01241Y01548*
X01242Y01548*
X01242Y01547*
X01243Y01547*
X01243Y01547*
X01244Y01547*
X01244Y01546*
X01245Y01546*
X01246Y01545*
X01246Y01545*
X01247Y01545*
X01247Y01544*
X01247Y01544*
X01248Y01543*
X01248Y01543*
X01249Y01542*
X01249Y01541*
X01249Y0154*
X0125Y01539*
X0125Y01539*
X0125Y01539*
X0125Y01539*
Y01539*
X0125Y01538*
X0125Y01536*
X0125Y01535*
X01251Y01534*
X01251Y01533*
Y01533*
X01251Y01532*
Y01532*
Y01532*
Y01531*
Y01531*
X01251Y0153*
X01251Y01529*
X0125Y01527*
X0125Y01526*
X0125Y01526*
X0125Y01525*
X0125Y01525*
X0125Y01525*
X0125Y01524*
Y01524*
Y01524*
X0125Y01523*
X01249Y01522*
X01249Y01521*
X01249Y01521*
X01248Y0152*
X01248Y0152*
X01248Y01519*
X01248Y01519*
X01247Y01518*
X01246Y01518*
X01246Y01517*
X01245Y01517*
X01245Y01516*
X01244Y01516*
X01244Y01516*
X01244Y01516*
X01243Y01516*
X01242Y01515*
X01241Y01515*
X0124Y01515*
X01239Y01515*
X01239Y01515*
X01238*
X01237Y01515*
X01236Y01515*
X01236Y01515*
X01235Y01515*
X01234Y01515*
X01234Y01516*
X01233Y01516*
X01233Y01516*
X01232Y01516*
X01232Y01517*
X01231Y01517*
X0123Y01518*
X0123Y01518*
X01229Y01519*
X01229Y01519*
X01229Y01519*
X01229Y0152*
X01228Y01521*
X01228Y01521*
X01227Y01522*
X01227Y01523*
X01227Y01524*
X01226Y01524*
X01226Y01524*
X01226Y01524*
Y01524*
X01226Y01525*
X01226Y01527*
X01226Y01528*
X01225Y01529*
X01225Y0153*
Y01531*
X01225Y01531*
Y01531*
Y01532*
Y01532*
Y01532*
X01225Y01533*
X01225Y01534*
X01226Y01536*
X01226Y01537*
X01226Y01537*
X01226Y01538*
X01226Y01538*
Y01539*
X01226Y01539*
Y01539*
X01226Y0154*
X01227Y01541*
X01227Y01542*
X01228Y01542*
X01228Y01543*
X01228Y01544*
X01228Y01544*
X01228Y01544*
X01229Y01545*
X0123Y01545*
X0123Y01546*
X01231Y01546*
X01232Y01547*
X01232Y01547*
X01232Y01547*
X01232Y01547*
X01233Y01548*
X01234Y01548*
X01235Y01548*
X01236Y01548*
X01237Y01548*
X01237Y01548*
X01238*
X01239Y01548*
G37*
G36*
X0121D02*
X01211Y01548D01*
X01212Y01548*
X01213Y01548*
X01213Y01548*
X01214Y01548*
X01214Y01548*
X01214Y01548*
X01215Y01547*
X01216Y01547*
X01216Y01547*
X01217Y01546*
X01217Y01546*
X01218Y01546*
X01218Y01546*
X01218Y01545*
X01219Y01545*
X01219Y01545*
X01219Y01544*
X0122Y01544*
X0122Y01543*
X0122Y01543*
X0122Y01543*
X0122Y01543*
X0122Y01542*
X01221Y01541*
X01221Y01541*
X01221Y0154*
Y0154*
X01221Y0154*
Y01539*
Y01539*
X01221Y01539*
X01221Y01538*
X01221Y01537*
X0122Y01537*
X0122Y01537*
X0122Y01536*
X0122Y01536*
Y01536*
X01219Y01535*
X01219Y01535*
X01219Y01534*
X01219Y01534*
X01218Y01534*
X01218Y01534*
X01218Y01534*
X01217Y01533*
X01216Y01532*
X01216Y01532*
X01216Y01532*
X01215Y01532*
X01215Y01532*
X01214Y01531*
X01214Y01531*
X01213Y01531*
X01213Y01531*
X01213Y0153*
X01212Y0153*
X01212Y0153*
X01211Y0153*
X01211Y0153*
X0121Y01529*
X0121Y01529*
X01209Y01529*
X01209Y01529*
X01209Y01529*
X01208Y01529*
X01208Y01528*
X01207Y01528*
X01207Y01528*
X01207Y01528*
X01207Y01528*
X01206Y01528*
X01206Y01527*
X01205Y01527*
X01205Y01526*
X01205Y01526*
X01205Y01526*
X01205Y01526*
X01204Y01526*
X01204Y01525*
X01204Y01525*
X01204Y01524*
X01204Y01524*
Y01524*
Y01524*
X01204Y01523*
X01204Y01522*
X01204Y01522*
X01204Y01522*
X01204Y01522*
Y01522*
X01205Y01521*
X01205Y0152*
X01205Y0152*
X01206Y0152*
X01206Y0152*
X01206Y0152*
X01207Y01519*
X01208Y01519*
X01208Y01519*
X01208Y01519*
X01208*
X01209Y01519*
X01209Y01519*
X0121Y01519*
X0121*
X01211Y01519*
X01213*
X01214Y01519*
X01215Y01519*
X01216Y01519*
X01216Y01519*
X01217Y01519*
X01217Y01519*
X01217*
X01218Y01519*
X01219Y01519*
X01219Y0152*
X0122Y0152*
X01221Y0152*
X01221Y0152*
X01221Y0152*
X01221Y0152*
Y01516*
X01221Y01516*
X0122Y01516*
X0122Y01516*
X0122Y01516*
X01219Y01515*
X01219*
X01219Y01515*
X01218Y01515*
X01218Y01515*
X01217Y01515*
X01217*
X01216Y01515*
X01215Y01515*
X01215*
X01215Y01515*
X01215*
X01214Y01515*
X01213*
X01213Y01515*
X01211*
X0121Y01515*
X01209Y01515*
X01208Y01515*
X01208Y01515*
X01207Y01515*
X01207Y01515*
X01207*
X01206Y01516*
X01205Y01516*
X01205Y01516*
X01204Y01516*
X01203Y01517*
X01203Y01517*
X01203Y01517*
X01203Y01517*
X01202Y01518*
X01202Y01518*
X01201Y01519*
X01201Y01519*
X01201Y01519*
X012Y0152*
X012Y0152*
X012Y0152*
X012Y01521*
X012Y01521*
X01199Y01522*
X01199Y01523*
X01199Y01523*
X01199Y01524*
Y01524*
Y01524*
X01199Y01525*
X01199Y01525*
X01199Y01526*
X01199Y01526*
X012Y01527*
X012Y01527*
X012Y01527*
X012Y01527*
X01201Y01528*
X01201Y01529*
X01201Y01529*
X01201Y0153*
X01202Y0153*
X01202Y0153*
X01202Y0153*
X01203Y01531*
X01204Y01531*
X01204Y01531*
X01204Y01532*
X01205Y01532*
X01205Y01532*
X01206Y01532*
X01206Y01533*
X01207Y01533*
X01207Y01533*
X01207Y01533*
X01208Y01533*
X01208*
X01209Y01534*
X01209Y01534*
X0121Y01534*
X0121Y01534*
X01211Y01534*
X01211Y01534*
X01211*
X01212Y01535*
X01212Y01535*
X01213Y01535*
X01213Y01536*
X01213Y01536*
X01214Y01536*
X01214Y01536*
X01214Y01536*
X01215Y01537*
X01215Y01537*
X01215Y01537*
X01215Y01537*
X01215Y01537*
X01216Y01538*
X01216Y01538*
X01216Y01539*
X01216Y01539*
X01216Y0154*
Y0154*
Y0154*
X01216Y01541*
X01216Y01541*
X01216Y01542*
X01215Y01542*
X01215Y01543*
X01215Y01543*
X01215Y01543*
X01214Y01543*
X01214Y01544*
X01213Y01544*
X01212Y01544*
X01211Y01544*
X0121Y01544*
X01209Y01545*
X01209*
X01207Y01544*
X01207Y01544*
X01206*
X01206Y01544*
X01205Y01544*
X01205Y01544*
X01205*
X01204Y01544*
X01203Y01544*
X01202Y01544*
X01202Y01544*
X01202Y01544*
X01201Y01543*
X01201*
Y01547*
X01202Y01547*
X01202Y01548*
X01203Y01548*
X01203Y01548*
X01203*
X01204Y01548*
X01204Y01548*
X01205*
X01205Y01548*
X01205*
X01206Y01548*
X01206Y01548*
X01207Y01548*
X01207*
X01208Y01548*
X01208Y01548*
X01209*
X0121Y01548*
G37*
G36*
X00481Y01525D02*
X00475D01*
X00464Y01558*
X00468*
X00475Y01536*
X00478Y01529*
X0048Y01536*
X00487Y01558*
X00492*
X00481Y01525*
G37*
G36*
X00448Y01558D02*
X00449Y01558D01*
X0045Y01558*
X00451Y01558*
X00452Y01557*
X00452Y01557*
X00453Y01557*
X00453Y01557*
X00453*
X00454Y01556*
X00455Y01556*
X00455Y01555*
X00456Y01555*
X00457Y01554*
X00457Y01554*
X00457Y01554*
X00457Y01553*
X00458Y01553*
X00459Y01552*
X00459Y01551*
X0046Y0155*
X0046Y01549*
X0046Y01549*
X0046Y01548*
X0046Y01548*
X0046Y01548*
Y01548*
X00461Y01547*
X00461Y01546*
X00461Y01544*
X00461Y01543*
X00461Y01542*
Y01542*
X00461Y01542*
Y01541*
Y01541*
Y01541*
Y01541*
X00461Y0154*
X00461Y01538*
X00461Y01537*
X00461Y01536*
X0046Y01535*
X0046Y01534*
X0046Y01533*
X00459Y01532*
X00459Y01531*
X00459Y01531*
X00458Y0153*
X00458Y0153*
X00458Y01529*
X00458Y01529*
X00458Y01529*
X00458Y01529*
X00457Y01528*
X00456Y01527*
X00455Y01527*
X00454Y01526*
X00453Y01526*
X00453Y01526*
X00452Y01525*
X00451Y01525*
X0045Y01525*
X00449Y01525*
X00449Y01525*
X00448Y01525*
X00448Y01525*
X00447*
X00445Y01525*
X00444Y01525*
X00442Y01525*
X00441Y01526*
X00441Y01526*
X0044Y01526*
X0044Y01526*
X00439Y01526*
X00439Y01526*
X00439Y01526*
X00439Y01526*
X00439*
Y01531*
X0044Y0153*
X00441Y0153*
X00441Y01529*
X00442Y01529*
X00442Y01529*
X00442Y01529*
X00442*
X00444Y01529*
X00445Y01529*
X00445Y01529*
X00446Y01529*
X00446*
X00447Y01529*
X00448Y01529*
X0045Y01529*
X00451Y0153*
X00452Y0153*
X00452Y01531*
X00453Y01531*
X00453Y01531*
X00453Y01531*
X00454Y01532*
X00454Y01532*
X00454Y01532*
X00454Y01532*
X00454Y01533*
X00455Y01533*
X00455Y01535*
X00456Y01536*
X00456Y01538*
X00456Y01539*
X00456Y01539*
X00456Y0154*
Y0154*
X00457Y01541*
Y01541*
Y01541*
Y01541*
X00456Y01543*
X00456Y01544*
X00456Y01544*
X00456Y01545*
X00456Y01546*
X00456Y01546*
X00456Y01547*
Y01547*
X00456Y01548*
X00455Y01548*
X00455Y01549*
X00455Y0155*
X00454Y0155*
X00454Y0155*
X00454Y01551*
X00454Y01551*
X00453Y01551*
X00453Y01552*
X00452Y01552*
X00452Y01553*
X00451Y01553*
X00451Y01553*
X00451Y01553*
X00451Y01553*
X0045Y01554*
X00449Y01554*
X00449Y01554*
X00448Y01554*
X00447Y01554*
X00447Y01554*
X00446*
X00445Y01554*
X00444Y01554*
X00444Y01554*
X00443Y01554*
X00443Y01554*
X00442Y01554*
X00442*
X00441Y01553*
X0044Y01553*
X0044Y01553*
X00439Y01553*
X00439Y01552*
X00439Y01552*
X00439Y01552*
Y01557*
X0044Y01557*
X00441Y01557*
X00441Y01557*
X00442Y01558*
X00442Y01558*
X00442Y01558*
X00442*
X00444Y01558*
X00445Y01558*
X00445Y01558*
X00446Y01558*
X00447*
X00448Y01558*
G37*
G36*
X0042D02*
X00421Y01558D01*
X00422Y01558*
X00423Y01558*
X00424Y01557*
X00424Y01557*
X00424Y01557*
X00425Y01557*
X00425*
X00426Y01556*
X00426Y01556*
X00427Y01555*
X00428Y01555*
X00428Y01554*
X00429Y01554*
X00429Y01554*
X00429Y01553*
X0043Y01553*
X0043Y01552*
X00431Y01551*
X00431Y0155*
X00432Y01549*
X00432Y01549*
X00432Y01548*
X00432Y01548*
X00432Y01548*
Y01548*
X00432Y01547*
X00433Y01546*
X00433Y01544*
X00433Y01543*
X00433Y01542*
Y01542*
X00433Y01542*
Y01541*
Y01541*
Y01541*
Y01541*
X00433Y0154*
X00433Y01538*
X00433Y01537*
X00433Y01536*
X00432Y01535*
X00432Y01534*
X00432Y01533*
X00431Y01532*
X00431Y01531*
X00431Y01531*
X0043Y0153*
X0043Y0153*
X0043Y01529*
X0043Y01529*
X0043Y01529*
X00429Y01529*
X00429Y01528*
X00428Y01527*
X00427Y01527*
X00426Y01526*
X00425Y01526*
X00424Y01526*
X00424Y01525*
X00423Y01525*
X00422Y01525*
X00421Y01525*
X0042Y01525*
X0042Y01525*
X00419Y01525*
X00419*
X00417Y01525*
X00416Y01525*
X00414Y01525*
X00413Y01526*
X00413Y01526*
X00412Y01526*
X00412Y01526*
X00411Y01526*
X00411Y01526*
X00411Y01526*
X00411Y01526*
X00411*
Y01531*
X00412Y0153*
X00413Y0153*
X00413Y01529*
X00414Y01529*
X00414Y01529*
X00414Y01529*
X00414*
X00416Y01529*
X00416Y01529*
X00417Y01529*
X00418Y01529*
X00418*
X00419Y01529*
X0042Y01529*
X00422Y01529*
X00423Y0153*
X00424Y0153*
X00424Y01531*
X00425Y01531*
X00425Y01531*
X00425Y01531*
X00426Y01532*
X00426Y01532*
X00426Y01532*
X00426Y01532*
X00426Y01533*
X00427Y01533*
X00427Y01535*
X00428Y01536*
X00428Y01538*
X00428Y01539*
X00428Y01539*
X00428Y0154*
Y0154*
X00428Y01541*
Y01541*
Y01541*
Y01541*
X00428Y01543*
X00428Y01544*
X00428Y01544*
X00428Y01545*
X00428Y01546*
X00428Y01546*
X00428Y01547*
Y01547*
X00427Y01548*
X00427Y01548*
X00427Y01549*
X00426Y0155*
X00426Y0155*
X00426Y0155*
X00426Y01551*
X00426Y01551*
X00425Y01551*
X00425Y01552*
X00424Y01552*
X00424Y01553*
X00423Y01553*
X00423Y01553*
X00423Y01553*
X00423Y01553*
X00422Y01554*
X00421Y01554*
X0042Y01554*
X0042Y01554*
X00419Y01554*
X00419Y01554*
X00418*
X00417Y01554*
X00416Y01554*
X00416Y01554*
X00415Y01554*
X00415Y01554*
X00414Y01554*
X00414*
X00413Y01553*
X00412Y01553*
X00412Y01553*
X00411Y01553*
X00411Y01552*
X00411Y01552*
X00411Y01552*
Y01557*
X00412Y01557*
X00413Y01557*
X00413Y01557*
X00414Y01558*
X00414Y01558*
X00414Y01558*
X00414*
X00416Y01558*
X00417Y01558*
X00417Y01558*
X00418Y01558*
X00419*
X0042Y01558*
G37*
G36*
X00648Y01657D02*
X00649Y01656D01*
X0065Y01656*
X00651Y01656*
X00651Y01656*
X00652Y01656*
X00652Y01655*
X00652Y01655*
X00653Y01655*
X00654Y01654*
X00655Y01654*
X00655Y01653*
X00656Y01653*
X00656Y01653*
X00656Y01652*
X00656Y01652*
X00654Y01649*
X00654Y0165*
X00653Y0165*
X00652Y01651*
X00652Y01651*
X00652Y01651*
X00651Y01652*
X00651Y01652*
X00651Y01652*
X0065Y01652*
X0065Y01652*
X00649Y01653*
X00648Y01653*
X00648Y01653*
X00648Y01653*
X00647*
X00646Y01653*
X00646Y01653*
X00645Y01653*
X00645Y01652*
X00645Y01652*
X00645Y01652*
X00645*
X00644Y01652*
X00643Y01651*
X00643Y01651*
X00643Y01651*
Y01651*
X00642Y0165*
X00642Y0165*
X00642Y01649*
X00642Y01649*
X00642Y01649*
Y01649*
X00642Y01648*
X00642Y01648*
X00641Y01647*
Y01647*
Y01647*
Y01647*
X00642Y01646*
X00642Y01645*
Y01645*
X00642Y01645*
X00642Y01645*
X00642Y01644*
Y01644*
X00642Y01644*
X00642Y01643*
X00643Y01643*
X00643Y01642*
X00643Y01642*
X00643Y01642*
X00643Y01641*
X00644Y0164*
X00644Y0164*
X00645Y0164*
X00645Y01639*
X00645Y01639*
X00645Y01639*
X00646Y01638*
X00646Y01638*
X00647Y01637*
X00647Y01637*
X00648Y01636*
X00648Y01636*
X00648Y01636*
X00657Y01627*
Y01624*
X00635*
Y01628*
X00651*
X00645Y01633*
X00644Y01634*
X00644Y01635*
X00643Y01636*
X00642Y01636*
X00642Y01637*
X00642Y01637*
X00641Y01637*
X00641Y01637*
X00641Y01638*
X0064Y01638*
X0064Y01639*
X0064Y01639*
X00639Y0164*
X00639Y0164*
X00639Y0164*
X00639Y0164*
X00638Y01642*
X00638Y01642*
X00638Y01643*
X00638Y01643*
X00637Y01643*
X00637Y01644*
Y01644*
X00637Y01645*
X00637Y01645*
X00637Y01646*
X00637Y01646*
Y01647*
Y01647*
Y01647*
X00637Y01648*
X00637Y01649*
X00637Y01649*
X00637Y0165*
X00637Y0165*
X00637Y01651*
X00638Y01651*
X00638Y01651*
X00638Y01652*
X00638Y01652*
X00639Y01653*
X00639Y01653*
X00639Y01654*
X00639Y01654*
X0064Y01654*
X0064Y01654*
X00641Y01655*
X00641Y01655*
X00642Y01655*
X00642Y01656*
X00642Y01656*
X00643Y01656*
X00643*
X00643Y01656*
X00644Y01656*
X00645Y01656*
X00645Y01657*
X00646*
X00646Y01657*
X00647*
X00648Y01657*
G37*
G36*
X00601Y01651D02*
X00599Y01647D01*
X00591Y01651*
Y01628*
X006*
Y01624*
X00579*
Y01628*
X00586*
Y01656*
X0059*
X00601Y01651*
G37*
G36*
X00741Y01624D02*
X00736D01*
Y0164*
X00736Y01641*
X00736Y01641*
X00735Y01642*
X00735Y01642*
X00735Y01642*
X00734Y01642*
X00734Y01643*
X00734Y01643*
X00733Y01643*
X00733Y01644*
X00733Y01644*
X00732Y01644*
X00732Y01644*
X00732*
X00732Y01645*
X00731Y01645*
X00731Y01645*
X00731Y01645*
X00731*
X0073Y01645*
X0073Y01645*
X00729Y01645*
X00729*
X00728Y01645*
X00728Y01645*
X00727Y01645*
X00727Y01645*
X00726Y01644*
X00726Y01644*
X00726Y01644*
X00726Y01644*
X00726Y01643*
X00725Y01643*
X00725Y01642*
X00725Y01641*
X00725Y01641*
X00725Y0164*
Y0164*
Y0164*
Y0164*
Y01624*
X00721*
Y0164*
X00721Y01641*
X00721Y01643*
X00721Y01644*
X00722Y01645*
X00722Y01646*
X00722Y01646*
X00723Y01647*
X00723Y01647*
X00723Y01648*
X00724Y01648*
X00725Y01648*
X00726Y01649*
X00727Y01649*
X00728Y01649*
X00728Y01649*
X00728*
X00729Y01649*
X0073Y01649*
X0073Y01649*
X0073*
X00731Y01649*
X00731*
X00731Y01649*
X00732Y01648*
X00732Y01648*
X00732Y01648*
X00733Y01648*
X00733*
X00733Y01648*
X00734Y01647*
X00734Y01647*
X00734Y01647*
X00735Y01647*
X00735Y01647*
X00735Y01646*
X00736Y01645*
X00736Y01645*
X00736Y01645*
X00737Y01645*
X00737Y01645*
X00736Y01649*
Y01659*
X00741*
Y01624*
G37*
G36*
X00788Y01649D02*
X00789Y01649D01*
X00789*
X00789Y01649*
X00789*
X0079Y01649*
X00791Y01649*
X00791Y01649*
X00791*
X00792Y01649*
X00792*
X00792Y01648*
X00793Y01648*
X00793Y01648*
X00794Y01648*
X00794Y01648*
X00794*
X00794Y01648*
X00795Y01648*
X00795Y01648*
X00795Y01648*
X00795Y01648*
X00796*
Y01644*
X00794Y01644*
X00793Y01644*
X00793Y01645*
X00792Y01645*
X00792Y01645*
X00791Y01645*
X00791*
X0079Y01645*
X00789Y01645*
X00788Y01645*
X00788Y01645*
X00787*
X00786Y01645*
X00785Y01645*
X00784Y01645*
X00784Y01645*
X00783Y01644*
X00783Y01644*
X00783Y01644*
X00783Y01644*
X00782Y01644*
X00782Y01643*
X00782Y01642*
X00781Y01642*
X00781Y01641*
X00781Y01641*
Y01641*
Y0164*
Y01638*
X00788*
X00788Y01638*
X00789Y01638*
X0079Y01638*
X00791Y01638*
X00792Y01638*
X00792Y01637*
X00793Y01637*
X00793Y01637*
X00794Y01637*
X00794Y01637*
X00794Y01636*
X00795Y01636*
X00795Y01636*
X00795Y01636*
X00795*
X00795Y01636*
X00796Y01635*
X00796Y01634*
X00797Y01633*
X00797Y01632*
X00797Y01631*
X00798Y01631*
X00798Y01631*
Y0163*
Y0163*
Y0163*
X00798Y01629*
X00798Y01629*
X00797Y01628*
X00797Y01628*
X00797Y01628*
X00797Y01627*
Y01627*
X00797Y01626*
X00797Y01626*
X00796Y01626*
X00796Y01625*
X00796Y01625*
X00796Y01625*
X00796Y01625*
X00795Y01624*
X00794Y01624*
X00794Y01624*
X00793Y01624*
X00793Y01624*
X00793*
X00793Y01623*
X00792Y01623*
X00791Y01623*
X00791Y01623*
X0079*
X0079Y01623*
X0079*
X00789Y01623*
X00788Y01623*
X00787Y01623*
X00786Y01624*
X00786Y01624*
X00785Y01624*
X00785Y01624*
X00785Y01624*
X00784Y01624*
X00784Y01625*
X00783Y01625*
X00782Y01626*
X00782Y01626*
X00781Y01627*
X00781Y01627*
X00781Y01627*
X00781Y01624*
X00777*
Y01641*
Y01642*
X00777Y01642*
X00777Y01643*
X00777Y01643*
X00777Y01644*
X00778Y01644*
X00778Y01644*
X00778Y01644*
X00778Y01645*
X00778Y01645*
X00779Y01646*
X00779Y01646*
X00779Y01647*
X00779Y01647*
X0078Y01647*
X0078Y01647*
X00781Y01648*
X00782Y01648*
X00782Y01648*
X00782Y01648*
X00783Y01649*
X00783*
X00784Y01649*
X00785Y01649*
X00785Y01649*
X00786Y01649*
X00788*
X00788Y01649*
G37*
G36*
X00704D02*
X00704Y01649D01*
X00705*
X00705Y01649*
X00705*
X00706Y01649*
X00706Y01649*
X00707Y01649*
X00707*
X00707Y01649*
X00707*
X00708Y01648*
X00709Y01648*
X00709Y01648*
X00709Y01648*
X00709Y01648*
X00709*
X0071Y01648*
X00711Y01648*
X00711Y01648*
X00711Y01648*
X00711Y01648*
X00711*
Y01644*
X0071Y01644*
X00709Y01644*
X00708Y01645*
X00708Y01645*
X00707Y01645*
X00707Y01645*
X00707*
X00705Y01645*
X00705Y01645*
X00704Y01645*
X00703Y01645*
X00703*
X00702Y01645*
X00701Y01645*
X007Y01645*
X00699Y01645*
X00699Y01644*
X00699Y01644*
X00698Y01644*
X00698Y01644*
X00698Y01644*
X00698Y01643*
X00697Y01642*
X00697Y01642*
X00697Y01641*
X00697Y01641*
Y01641*
Y0164*
Y01638*
X00703*
X00704Y01638*
X00705Y01638*
X00706Y01638*
X00706Y01638*
X00707Y01638*
X00708Y01637*
X00708Y01637*
X00709Y01637*
X00709Y01637*
X0071Y01637*
X0071Y01636*
X0071Y01636*
X0071Y01636*
X0071Y01636*
X0071*
X00711Y01636*
X00711Y01635*
X00712Y01634*
X00713Y01633*
X00713Y01632*
X00713Y01631*
X00713Y01631*
X00713Y01631*
Y0163*
Y0163*
Y0163*
X00713Y01629*
X00713Y01629*
X00713Y01628*
X00713Y01628*
X00713Y01628*
X00713Y01627*
Y01627*
X00712Y01626*
X00712Y01626*
X00712Y01626*
X00712Y01625*
X00712Y01625*
X00711Y01625*
X00711Y01625*
X00711Y01624*
X0071Y01624*
X00709Y01624*
X00709Y01624*
X00709Y01624*
X00709*
X00708Y01623*
X00708Y01623*
X00707Y01623*
X00706Y01623*
X00706*
X00705Y01623*
X00705*
X00704Y01623*
X00703Y01623*
X00703Y01623*
X00702Y01624*
X00701Y01624*
X00701Y01624*
X00701Y01624*
X00701Y01624*
X007Y01624*
X00699Y01625*
X00698Y01625*
X00698Y01626*
X00697Y01626*
X00697Y01627*
X00697Y01627*
X00697Y01627*
X00696Y01624*
X00693*
Y01641*
Y01642*
X00693Y01642*
X00693Y01643*
X00693Y01643*
X00693Y01644*
X00693Y01644*
X00693Y01644*
X00693Y01644*
X00694Y01645*
X00694Y01645*
X00694Y01646*
X00694Y01646*
X00695Y01647*
X00695Y01647*
X00695Y01647*
X00695Y01647*
X00696Y01648*
X00697Y01648*
X00698Y01648*
X00698Y01648*
X00698Y01649*
X00698*
X007Y01649*
X007Y01649*
X00701Y01649*
X00702Y01649*
X00703*
X00704Y01649*
G37*
G36*
X00628Y01624D02*
X00624D01*
Y01639*
X00612Y01624*
X00606*
X00619Y01641*
X00607Y01656*
X00612*
X00624Y01641*
Y01656*
X00628*
Y01624*
G37*
G36*
X00884D02*
X0088D01*
X00879Y01644*
X00879Y01652*
X00878Y01647*
X00873Y01634*
X0087*
X00865Y01647*
X00864Y01652*
X00863Y01644*
X00863Y01624*
X00858*
X0086Y01656*
X00865*
X0087Y01644*
X00871Y0164*
X00873Y01644*
X00877Y01656*
X00883*
X00884Y01624*
G37*
G36*
X00853Y01632D02*
X00853Y01631D01*
X00853Y01629*
X00853Y01628*
X00852Y01627*
X00852Y01626*
X00852Y01626*
X00851Y01625*
X00851Y01625*
X00851Y01625*
X0085Y01624*
X00849Y01624*
X00848Y01623*
X00847Y01623*
X00846Y01623*
X00846Y01623*
X00845*
X00845Y01623*
X00844Y01623*
X00844Y01623*
X00844*
X00843Y01623*
X00843*
X00843Y01624*
X00842Y01624*
X00842Y01624*
X00842Y01624*
X00841Y01624*
X00841*
X00841Y01624*
X0084Y01625*
X0084Y01625*
X0084Y01625*
X00839Y01625*
X00839Y01625*
X00839Y01626*
X00838Y01627*
X00838Y01627*
X00837Y01627*
X00837Y01627*
X00837Y01628*
X00837Y01624*
X00833*
Y01649*
X00837*
Y01632*
X00838Y01631*
X00838Y01631*
X00839Y0163*
X00839Y0163*
X00839Y0163*
X0084Y0163*
X0084Y01629*
X0084Y01629*
X0084Y01629*
X00841Y01628*
X00841Y01628*
X00841Y01628*
X00841Y01628*
X00841*
X00842Y01627*
X00843Y01627*
X00843Y01627*
X00843Y01627*
X00843*
X00844Y01627*
X00844Y01627*
X00844Y01627*
X00845*
X00845Y01627*
X00846Y01627*
X00847Y01627*
X00847Y01628*
X00848Y01628*
X00848Y01629*
X00848Y01629*
X00848Y0163*
X00849Y01631*
X00849Y01631*
X00849Y01632*
Y01632*
X00849Y01632*
Y01632*
Y01633*
Y01649*
X00853*
Y01632*
G37*
G36*
X01082Y01624D02*
X01078D01*
X01075Y01631*
X01062*
X01059Y01624*
X01055*
X01065Y01656*
X01071*
X01082Y01624*
G37*
G36*
X01036Y01659D02*
X01037Y01659D01*
X01039Y01658*
X0104Y01658*
X01041Y01657*
X01042Y01656*
X01042Y01655*
X01043Y01654*
X01043Y01653*
X01044Y01652*
X01044Y01651*
X01044Y01651*
X01044Y0165*
X01044Y01649*
Y01649*
Y01649*
Y01649*
Y01645*
X01052*
Y01641*
X01044*
Y01624*
X0104*
Y01641*
X01029*
Y01645*
X0104*
Y01649*
X0104Y0165*
X01039Y01651*
X01039Y01652*
X01039Y01653*
X01038Y01654*
X01038Y01654*
X01037Y01654*
X01037Y01655*
X01036Y01655*
X01036Y01655*
X01035Y01655*
X01035Y01655*
X01034Y01655*
X01034Y01656*
X01033*
X01032Y01655*
X01031Y01655*
X0103Y01655*
X01029Y01655*
X01029Y01655*
X01028Y01655*
X01028*
X01028Y01655*
X01028*
Y01659*
X01029Y01659*
X0103Y01659*
X01031Y01659*
X01032Y01659*
X01033Y01659*
X01035*
X01036Y01659*
G37*
G36*
X00982Y01649D02*
X00983Y01649D01*
X00983Y01649*
X00984*
X00984Y01649*
X00984*
X00985Y01649*
X00985Y01648*
X00985Y01648*
X00986Y01648*
X00986Y01648*
X00986*
X00987Y01648*
X00987Y01647*
X00987Y01647*
X00988Y01647*
X00988Y01647*
X00988Y01647*
X00989Y01646*
X00989Y01645*
X0099Y01645*
X0099Y01645*
X0099Y01645*
X0099Y01645*
X0099Y01649*
X00994*
Y01624*
X0099*
Y0164*
X00989Y01641*
X00989Y01641*
X00988Y01642*
X00988Y01642*
X00988Y01642*
X00988Y01642*
X00988Y01643*
X00988Y01643*
X00987Y01643*
X00986Y01644*
X00986Y01644*
X00986Y01644*
X00986Y01644*
X00986*
X00985Y01645*
X00985Y01645*
X00984Y01645*
X00984Y01645*
X00984*
X00984Y01645*
X00983Y01645*
X00983Y01645*
X00983*
X00982Y01645*
X00981Y01645*
X00981Y01645*
X0098Y01645*
X0098Y01644*
X0098Y01644*
X00979Y01644*
X00979Y01644*
X00979Y01643*
X00979Y01643*
X00978Y01642*
X00978Y01641*
X00978Y01641*
X00978Y0164*
Y0164*
Y0164*
Y0164*
Y01624*
X00974*
Y0164*
X00974Y01641*
X00974Y01643*
X00974Y01644*
X00975Y01645*
X00975Y01646*
X00976Y01646*
X00976Y01647*
X00976Y01647*
X00977Y01648*
X00978Y01648*
X00979Y01648*
X0098Y01649*
X0098Y01649*
X00981Y01649*
X00981Y01649*
X00982*
X00982Y01649*
G37*
G36*
X00812D02*
X00813Y01649D01*
X00814Y01649*
X00814Y01648*
X00815Y01648*
X00815Y01648*
X00816Y01648*
X00816Y01648*
X00816Y01647*
X00817Y01647*
X00818Y01646*
X00819Y01645*
X00819Y01645*
X0082Y01644*
X0082Y01644*
X0082Y01644*
Y01644*
X0082Y01649*
X00824*
Y01624*
X0082*
Y0164*
X00819Y01641*
X00818Y01641*
X00818Y01641*
X00818Y01642*
X00818Y01642*
X00818Y01642*
X00817Y01642*
X00817Y01643*
X00816Y01644*
X00816Y01644*
X00816Y01644*
X00816Y01644*
X00815Y01644*
X00815Y01644*
X00814Y01645*
X00814Y01645*
X00814Y01645*
X00814Y01645*
X00814*
X00813Y01645*
X00812Y01645*
X00812Y01645*
X00812*
X00811Y01645*
X00811Y01645*
X0081Y01645*
X0081Y01645*
X00809Y01644*
X00809Y01644*
X00809Y01644*
X00809Y01644*
X00809Y01643*
X00808Y01642*
X00808Y01642*
X00808Y01641*
X00808Y0164*
X00808Y0164*
Y01639*
Y01639*
Y01639*
Y01639*
X00803*
X00804Y01641*
X00804Y01642*
X00804Y01644*
X00804Y01645*
X00805Y01645*
X00805Y01646*
X00805Y01646*
X00805Y01646*
X00805Y01646*
X00805Y01647*
X00806Y01647*
X00806Y01647*
X00807Y01648*
X00808Y01648*
X00809Y01649*
X0081Y01649*
X00811Y01649*
X00811Y01649*
X00811*
X00812Y01649*
G37*
G36*
X00768Y01655D02*
X0076D01*
Y01627*
X00769*
Y01624*
X00748*
Y01627*
X00756*
Y01659*
X00768*
Y01655*
G37*
G36*
X01013Y01649D02*
X01014Y01649D01*
X01015Y01649*
X01015Y01649*
X01016Y01648*
X01016Y01648*
X01017Y01648*
X01017Y01648*
X01018Y01648*
X01018Y01647*
X01019Y01647*
X0102Y01646*
X0102Y01646*
X0102Y01646*
X01021Y01645*
X01021Y01645*
X01021Y01645*
X01022Y01644*
X01022Y01643*
X01022Y01643*
X01023Y01642*
X01023Y01642*
X01023Y01641*
X01023Y01641*
X01023Y0164*
X01023Y01639*
X01024Y01638*
X01024Y01638*
X01024Y01637*
X01024Y01636*
Y01636*
Y01636*
Y01636*
Y01636*
X01024Y01635*
X01024Y01634*
X01024Y01633*
X01023Y01632*
X01023Y01631*
X01023Y01631*
X01023Y0163*
X01023Y0163*
X01023Y01629*
X01022Y01629*
X01022Y01628*
X01022Y01627*
X01021Y01627*
X01021Y01627*
X01021Y01626*
X01021Y01626*
X0102Y01626*
X0102Y01625*
X01019Y01625*
X01018Y01625*
X01018Y01624*
X01018Y01624*
X01017Y01624*
X01017Y01624*
X01016Y01624*
X01015Y01623*
X01015Y01623*
X01014Y01623*
X01013Y01623*
X01013Y01623*
X01012*
X01011Y01623*
X0101Y01623*
X0101Y01623*
X01009Y01624*
X01008Y01624*
X01008Y01624*
X01007Y01624*
X01007Y01624*
X01006Y01624*
X01006Y01625*
X01005Y01625*
X01005Y01626*
X01004Y01626*
X01004Y01626*
X01004Y01627*
X01004Y01627*
X01003Y01627*
X01003Y01628*
X01002Y01629*
X01002Y01629*
X01002Y0163*
X01001Y0163*
X01001Y01631*
X01001Y01631*
X01001Y01632*
X01001Y01633*
X01001Y01634*
X01Y01634*
X01Y01635*
X01Y01636*
Y01636*
Y01636*
Y01636*
Y01636*
X01Y01637*
X01Y01638*
X01001Y01639*
X01001Y0164*
X01001Y01641*
X01001Y01641*
X01001Y01642*
X01001Y01642*
X01001Y01643*
X01002Y01643*
X01002Y01644*
X01003Y01645*
X01003Y01645*
X01003Y01645*
X01003Y01646*
X01003Y01646*
X01004Y01646*
X01005Y01647*
X01005Y01647*
X01006Y01648*
X01006Y01648*
X01007Y01648*
X01007Y01648*
X01007Y01648*
X01008Y01648*
X01009Y01649*
X01009Y01649*
X0101Y01649*
X01011Y01649*
X01011Y01649*
X01012*
X01013Y01649*
G37*
G36*
X00956D02*
X00957Y01649D01*
X00958Y01649*
X00958Y01649*
X00959Y01649*
X00959Y01648*
X0096Y01648*
X0096Y01648*
X0096Y01648*
X00961Y01648*
X00961Y01647*
X00962Y01647*
X00962Y01647*
X00963Y01647*
X00963Y01647*
X00963Y01647*
X00963Y01646*
X00964Y01646*
X00964Y01645*
X00964Y01645*
X00964Y01645*
X00964Y01644*
X00964Y01644*
Y01644*
X00965Y01643*
X00965Y01643*
X00965Y01642*
Y01642*
Y01642*
Y01642*
Y01641*
X00965Y01641*
X00965Y0164*
X00965Y0164*
X00964Y0164*
X00964Y01639*
X00964Y01639*
Y01639*
X00964Y01638*
X00963Y01638*
X00963Y01637*
X00963Y01637*
X00963Y01637*
X00963Y01637*
X00962Y01637*
X00961Y01636*
X00961Y01636*
X0096Y01636*
X0096Y01636*
X0096Y01636*
X00959Y01635*
X00959Y01635*
X00958Y01635*
X00958Y01635*
X00957Y01635*
X00957Y01634*
X00957*
X00956Y01634*
X00956Y01634*
X00955Y01634*
X00954Y01634*
X00954Y01633*
X00954Y01633*
X00954Y01633*
X00954*
X00953Y01633*
X00953Y01633*
X00952Y01633*
X00952Y01633*
X00952Y01632*
X00952Y01632*
X00952Y01632*
X00951Y01632*
X00951Y01632*
X00951Y01631*
X00951Y01631*
X00951Y01631*
X0095Y0163*
X0095Y0163*
Y0163*
Y0163*
X0095Y01629*
X00951Y01629*
X00951Y01629*
X00951Y01628*
X00951Y01628*
X00952Y01628*
X00952Y01628*
X00952Y01628*
X00953Y01627*
X00953Y01627*
X00954Y01627*
X00955Y01627*
X00956Y01627*
X00956Y01627*
X00957*
X00958Y01627*
X00959Y01627*
X0096Y01627*
X0096*
X00961Y01627*
X00961Y01627*
X00961*
X00962Y01627*
X00963Y01627*
X00964Y01628*
X00964Y01628*
X00965Y01628*
X00965Y01628*
X00965*
Y01624*
X00964Y01624*
X00963Y01624*
X00962Y01623*
X00962Y01623*
X00961Y01623*
X00961Y01623*
X00961*
X00959Y01623*
X00959Y01623*
X00958*
X00957Y01623*
X00956*
X00956Y01623*
X00955Y01623*
X00954*
X00954Y01623*
X00954*
X00953Y01623*
X00952Y01624*
X00952Y01624*
X00952Y01624*
X00952Y01624*
X00952*
X00951Y01624*
X0095Y01624*
X0095Y01625*
X0095Y01625*
X0095Y01625*
X00949*
X00949Y01625*
X00948Y01626*
X00948Y01626*
X00948Y01626*
X00948Y01626*
X00948Y01626*
X00947Y01627*
X00947Y01627*
X00947Y01628*
X00946Y01628*
X00946Y01628*
Y01628*
X00946Y01629*
X00946Y0163*
X00946Y0163*
Y0163*
Y0163*
Y0163*
X00946Y01631*
X00946Y01632*
X00946Y01632*
X00946Y01632*
X00946Y01633*
X00946Y01633*
Y01633*
X00947Y01634*
X00947Y01634*
X00947Y01634*
X00948Y01635*
X00948Y01635*
X00948Y01635*
X00949Y01635*
X00949Y01636*
X0095Y01636*
X0095Y01636*
X0095Y01636*
X0095Y01636*
X00951Y01637*
X00951Y01637*
X00952Y01637*
X00953Y01637*
X00953Y01638*
X00954Y01638*
X00954Y01638*
X00954Y01638*
X00955Y01638*
X00955Y01638*
X00956Y01638*
X00956Y01639*
X00957Y01639*
X00957Y01639*
X00957Y01639*
X00957*
X00958Y01639*
X00959Y0164*
X00959Y0164*
X00959Y0164*
X00959Y0164*
X00959*
X0096Y0164*
X0096Y01641*
X0096Y01641*
X0096Y01641*
X0096Y01641*
X0096Y01642*
X0096Y01642*
Y01642*
X0096Y01643*
X0096Y01643*
X0096Y01643*
X0096Y01643*
X0096Y01644*
X0096Y01644*
X00959Y01644*
X00959Y01644*
X00959Y01645*
X00958Y01645*
X00958Y01645*
X00958Y01645*
X00957Y01645*
X00957*
X00957Y01645*
X00956Y01645*
X00955Y01645*
X00955*
X00954Y01645*
X00953Y01645*
X00953*
X00952Y01645*
X00952Y01645*
X00952Y01645*
X00951*
X0095Y01645*
X00949Y01645*
X00949Y01645*
X00948Y01645*
X00948Y01645*
X00948Y01644*
X00948*
Y01648*
X00949Y01649*
X0095Y01649*
X0095Y01649*
X00951Y01649*
X00951*
X00951Y01649*
X00951*
X00953Y01649*
X00953*
X00954Y01649*
X00955*
X00956Y01649*
G37*
G36*
X00928D02*
X00929Y01649D01*
X0093Y01649*
X00931Y01649*
X00932Y01648*
X00932Y01648*
X00932Y01648*
X00932Y01648*
X00933Y01648*
X00934Y01647*
X00935Y01647*
X00935Y01646*
X00936Y01646*
X00936Y01646*
X00936Y01645*
X00936Y01645*
X00937Y01645*
X00937Y01644*
X00938Y01643*
X00938Y01643*
X00938Y01642*
X00938Y01642*
X00939Y01641*
X00939Y01641*
X00939Y0164*
X00939Y01639*
X00939Y01638*
X00939Y01638*
X00939Y01637*
X00939Y01636*
Y01636*
Y01636*
Y01636*
Y01636*
X00939Y01635*
X00939Y01634*
X00939Y01633*
X00939Y01632*
X00939Y01631*
X00939Y01631*
X00939Y0163*
X00939Y0163*
X00938Y01629*
X00938Y01629*
X00938Y01628*
X00937Y01627*
X00937Y01627*
X00937Y01627*
X00936Y01626*
X00936Y01626*
X00936Y01626*
X00935Y01625*
X00935Y01625*
X00934Y01625*
X00934Y01624*
X00933Y01624*
X00933Y01624*
X00933Y01624*
X00932Y01624*
X00931Y01623*
X0093Y01623*
X0093Y01623*
X00929Y01623*
X00928Y01623*
X00928*
X00927Y01623*
X00926Y01623*
X00925Y01623*
X00924Y01624*
X00924Y01624*
X00923Y01624*
X00923Y01624*
X00923Y01624*
X00922Y01624*
X00921Y01625*
X00921Y01625*
X0092Y01626*
X0092Y01626*
X00919Y01626*
X00919Y01627*
X00919Y01627*
X00919Y01627*
X00918Y01628*
X00918Y01629*
X00917Y01629*
X00917Y0163*
X00917Y0163*
X00917Y01631*
X00917Y01631*
X00916Y01632*
X00916Y01633*
X00916Y01634*
X00916Y01634*
X00916Y01635*
X00916Y01636*
Y01636*
Y01636*
Y01636*
Y01636*
X00916Y01637*
X00916Y01638*
X00916Y01639*
X00916Y0164*
X00916Y01641*
X00917Y01641*
X00917Y01642*
X00917Y01642*
X00917Y01643*
X00917Y01643*
X00918Y01644*
X00918Y01645*
X00918Y01645*
X00919Y01645*
X00919Y01646*
X00919Y01646*
X0092Y01646*
X0092Y01647*
X00921Y01647*
X00921Y01648*
X00922Y01648*
X00922Y01648*
X00922Y01648*
X00923Y01648*
X00923Y01648*
X00924Y01649*
X00925Y01649*
X00926Y01649*
X00926Y01649*
X00927Y01649*
X00927*
X00928Y01649*
G37*
G36*
X00564Y01657D02*
X00564Y01656D01*
X00565Y01656*
X00566Y01656*
X00566Y01656*
X00566Y01656*
X00566Y01656*
X00567Y01656*
X00568Y01655*
X00568Y01655*
X00569Y01655*
X00569Y01654*
X00569Y01654*
X0057Y01654*
X0057Y01654*
X0057Y01654*
X0057Y01653*
X00571Y01653*
X00571Y01652*
X00571Y01652*
X00571Y01652*
X00571Y01651*
X00572Y01651*
X00572Y01651*
X00572Y0165*
X00572Y0165*
X00572Y01649*
Y01649*
X00572Y01649*
Y01648*
Y01648*
X00572Y01648*
X00572Y01647*
X00572Y01646*
X00571Y01645*
X00571Y01645*
X00571Y01644*
X00571Y01644*
X00571Y01644*
X0057Y01643*
X00569Y01642*
X00569Y01642*
X00568Y01641*
X00567Y01641*
X00567Y01641*
X00566Y0164*
X00566Y0164*
X00566Y0164*
X00566*
X00567Y0164*
X00568Y01639*
X00569Y01638*
X0057Y01638*
X00571Y01637*
X00571Y01637*
X00571Y01636*
X00571Y01636*
X00572Y01635*
X00572Y01635*
X00572Y01634*
X00573Y01633*
X00573Y01632*
X00573Y01632*
Y01631*
Y01631*
Y01631*
Y01631*
X00573Y0163*
X00573Y0163*
X00573Y01629*
X00573Y01629*
X00572Y01628*
X00572Y01628*
X00572Y01628*
Y01628*
X00572Y01627*
X00572Y01627*
X00571Y01626*
X00571Y01626*
X00571Y01626*
X0057Y01625*
X0057Y01625*
X0057Y01625*
X0057Y01625*
X00569Y01625*
X00568Y01624*
X00568Y01624*
X00567Y01624*
X00567Y01624*
X00567Y01624*
X00567*
X00566Y01623*
X00565Y01623*
X00564Y01623*
X00564Y01623*
X00563*
X00562Y01623*
X00561*
X0056Y01623*
X0056Y01623*
X00559Y01623*
X00558Y01623*
X00558Y01624*
X00558Y01624*
X00558*
X00557Y01624*
X00556Y01624*
X00556Y01624*
X00555Y01625*
X00555Y01625*
X00554Y01625*
X00554Y01625*
X00554Y01625*
X00553Y01626*
X00553Y01626*
X00553Y01627*
X00552Y01627*
X00552Y01627*
X00552Y01628*
X00552Y01628*
X00552Y01628*
X00551Y01629*
X00551Y01629*
X00551Y0163*
X00551Y0163*
X00551Y01631*
X00551Y01631*
Y01632*
Y01632*
X00551Y01633*
X00551Y01633*
X00551Y01634*
X00551Y01634*
X00551Y01634*
X00551Y01635*
Y01635*
X00552Y01636*
X00552Y01636*
X00552Y01636*
X00552Y01637*
X00552Y01637*
X00553Y01637*
X00553Y01637*
X00553Y01638*
X00554Y01638*
X00554Y01639*
X00555Y01639*
X00555Y01639*
X00555Y01639*
X00556Y0164*
X00557Y0164*
X00557Y0164*
X00557Y0164*
X00557Y01641*
X00557Y01641*
X00556Y01641*
X00556Y01642*
X00555Y01642*
X00554Y01643*
X00554Y01643*
X00553Y01644*
X00553Y01644*
X00553Y01644*
X00552Y01645*
X00552Y01646*
X00552Y01647*
X00552Y01647*
X00551Y01648*
X00551Y01648*
Y01649*
Y01649*
Y01649*
Y0165*
X00551Y0165*
X00552Y01651*
X00552Y01651*
X00552Y01652*
X00552Y01652*
X00552Y01652*
X00552Y01652*
X00552Y01653*
X00553Y01653*
X00553Y01653*
X00553Y01654*
X00554Y01654*
X00554Y01654*
X00554Y01654*
X00554Y01655*
X00555Y01655*
X00555Y01655*
X00556Y01655*
X00556Y01656*
X00556Y01656*
X00557Y01656*
X00557Y01656*
X00557*
X00559Y01656*
X00559Y01657*
X0056Y01657*
X00561Y01657*
X00563*
X00564Y01657*
G37*
G36*
X00763Y01708D02*
X00764Y01708D01*
X00764Y01708*
X00764Y01708*
X00764*
X00764Y01708*
X00765Y01708*
X00765Y01707*
X00765Y01707*
X00765Y01707*
X00766Y01707*
X00766Y01706*
X00766Y01706*
Y01706*
X00766Y01706*
X00766Y01705*
X00766Y01705*
Y01705*
Y01705*
X00766Y01704*
X00766Y01704*
X00766Y01704*
X00766Y01704*
Y01704*
X00766Y01703*
X00765Y01703*
X00765Y01703*
X00765Y01702*
X00765Y01702*
X00764Y01702*
X00764Y01702*
X00764Y01702*
X00763Y01702*
X00763Y01702*
X00763Y01702*
X00763*
X00762Y01702*
X00762Y01702*
X00761Y01702*
X00761Y01702*
X00761Y01702*
X0076Y01702*
X0076Y01702*
X0076Y01702*
X0076Y01703*
X0076Y01703*
X00759Y01703*
X00759Y01704*
X00759Y01704*
X00759Y01704*
X00759Y01705*
Y01705*
Y01705*
X00759Y01705*
X00759Y01706*
X00759Y01706*
X00759Y01706*
X0076Y01707*
X0076Y01707*
X0076Y01707*
X0076Y01707*
X0076Y01708*
X00761Y01708*
X00761Y01708*
X00761Y01708*
X00761*
X00762Y01708*
X00762Y01708*
X00762Y01708*
X00763*
X00763Y01708*
G37*
G36*
X00997Y01673D02*
X00993D01*
Y01686*
X00981Y01673*
X00975*
X00988Y01686*
X00976Y01698*
X00982*
X00993Y01686*
Y01708*
X00997*
Y01673*
G37*
G36*
X01014Y01698D02*
X01015Y01698D01*
X01016Y01698*
X01017Y01698*
X01018Y01697*
X01018Y01697*
X01018Y01697*
X01018Y01697*
X01019Y01697*
X0102Y01696*
X01021Y01696*
X01021Y01695*
X01022Y01695*
X01022Y01695*
X01022Y01695*
X01022Y01694*
X01023Y01694*
X01024Y01693*
X01024Y01692*
X01024Y01692*
X01025Y01691*
X01025Y01691*
X01025Y01691*
X01025Y0169*
X01025Y01689*
X01026Y01689*
X01026Y01688*
X01026Y01687*
X01026Y01686*
X01026Y01686*
Y01685*
Y01685*
Y01685*
Y01685*
X01026Y01684*
X01026Y01683*
X01026Y01682*
X01025Y01681*
X01025Y0168*
X01025Y01679*
X01025Y01679*
X01024Y01678*
X01024Y01677*
X01024Y01677*
X01023Y01677*
X01023Y01676*
X01023Y01676*
X01023Y01676*
X01023Y01676*
X01023Y01676*
X01022Y01675*
X01021Y01675*
X01021Y01674*
X0102Y01674*
X01018Y01673*
X01017Y01673*
X01016Y01673*
X01016Y01673*
X01015Y01672*
X01015Y01672*
X01014Y01672*
X01014*
X01012Y01672*
X01012Y01672*
X01011Y01673*
X01011*
X0101Y01673*
X0101Y01673*
X0101*
X01009Y01673*
X01008Y01673*
X01007Y01673*
X01007Y01673*
X01007Y01674*
X01006Y01674*
X01006*
Y01678*
X01008Y01677*
X01008Y01677*
X01009Y01677*
X01009Y01677*
X01009Y01677*
X0101Y01676*
X0101*
X01011Y01676*
X01011Y01676*
X01012*
X01012Y01676*
X01013*
X01014Y01676*
X01016Y01676*
X01017Y01677*
X01018Y01677*
X01018Y01678*
X01019Y01678*
X01019Y01678*
X01019Y01678*
X0102Y01679*
X0102Y0168*
X01021Y01682*
X01021Y01683*
X01021Y01684*
X01021Y01684*
Y01684*
X01021Y01685*
Y01685*
Y01685*
Y01685*
X01021Y01686*
X01021Y01687*
X01021Y01687*
X01021Y01688*
X01021Y01688*
X01021Y01689*
X01021Y01689*
Y01689*
X0102Y0169*
X0102Y0169*
X0102Y01691*
X0102Y01691*
X01019Y01692*
X01019Y01692*
X01019Y01692*
X01019Y01692*
X01018Y01693*
X01017Y01693*
X01017Y01694*
X01017Y01694*
X01016Y01694*
X01016*
X01016Y01694*
X01015Y01694*
X01015Y01694*
X01014Y01694*
X01014*
X01014Y01694*
X01013*
X01012Y01694*
X01011Y01694*
X01011Y01694*
X0101Y01694*
X0101Y01694*
X0101Y01694*
X0101*
X01008Y01694*
X01008Y01693*
X01007Y01693*
X01007Y01693*
X01007Y01693*
X01006Y01693*
X01006Y01693*
Y01697*
X01008Y01697*
X01008Y01698*
X01009Y01698*
X01009Y01698*
X01009Y01698*
X0101Y01698*
X0101*
X01011Y01698*
X01012Y01698*
X01012*
X01013Y01698*
X01013*
X01014Y01698*
G37*
G36*
X00937Y01705D02*
Y01698D01*
X00944*
Y01694*
X00937*
Y01681*
X00937Y0168*
X00937Y01678*
X00936Y01677*
X00936Y01676*
X00935Y01675*
X00935Y01675*
X00935Y01675*
X00935Y01674*
X00934Y01674*
X00932Y01673*
X00931Y01673*
X0093Y01673*
X00929Y01672*
X00929Y01672*
X00928*
X00928Y01672*
X00928*
X00926Y01672*
X00926*
X00925Y01672*
X00925*
X00925Y01673*
X00924*
X00923Y01673*
X00923Y01673*
X00922Y01673*
X00922Y01673*
X00921Y01673*
X00921Y01673*
X00921*
Y01677*
X00922Y01677*
X00923Y01676*
X00923Y01676*
X00924Y01676*
X00924*
X00924Y01676*
X00924*
X00925Y01676*
X00926*
X00926Y01676*
X00927*
X00928Y01676*
X00929Y01676*
X00929Y01676*
X0093Y01677*
X00931Y01677*
X00931Y01677*
X00931Y01677*
X00931Y01677*
X00932Y01678*
X00932Y01679*
X00932Y01679*
X00932Y0168*
X00932Y0168*
X00933Y01681*
Y01681*
Y01681*
Y01694*
X00921*
Y01698*
X00933*
Y01706*
X00937Y01705*
G37*
G36*
X00824D02*
Y01698D01*
X00831*
Y01694*
X00824*
Y01681*
X00824Y0168*
X00824Y01678*
X00824Y01677*
X00823Y01676*
X00823Y01675*
X00822Y01675*
X00822Y01675*
X00822Y01674*
X00821Y01674*
X0082Y01673*
X00819Y01673*
X00818Y01673*
X00817Y01672*
X00816Y01672*
X00816*
X00815Y01672*
X00815*
X00814Y01672*
X00813*
X00813Y01672*
X00812*
X00812Y01673*
X00812*
X00811Y01673*
X0081Y01673*
X0081Y01673*
X00809Y01673*
X00809Y01673*
X00809Y01673*
X00809*
Y01677*
X0081Y01677*
X0081Y01676*
X00811Y01676*
X00811Y01676*
X00811*
X00812Y01676*
X00812*
X00813Y01676*
X00813*
X00814Y01676*
X00814*
X00815Y01676*
X00816Y01676*
X00817Y01676*
X00817Y01677*
X00818Y01677*
X00818Y01677*
X00819Y01677*
X00819Y01677*
X00819Y01678*
X00819Y01679*
X0082Y01679*
X0082Y0168*
X0082Y0168*
X0082Y01681*
Y01681*
Y01681*
Y01694*
X00809*
Y01698*
X0082*
Y01706*
X00824Y01705*
G37*
G36*
X0096Y01698D02*
X00961Y01698D01*
X00962Y01698*
X00963Y01698*
X00963Y01698*
X00964Y01697*
X00964Y01697*
X00964Y01697*
X00965Y01697*
X00966Y01696*
X00966Y01696*
X00967Y01695*
X00967Y01695*
X00967Y01695*
X00968Y01694*
X00968Y01694*
X00968Y01694*
X00969Y01693*
X00969Y01692*
X00969Y01692*
X0097Y01691*
X0097Y01691*
X0097Y0169*
X0097Y0169*
X0097Y01689*
X0097Y01688*
X00971Y01688*
X00971Y01687*
X00971Y01686*
X00971Y01686*
Y01685*
Y01685*
Y01685*
X00971Y01684*
X00971Y01683*
X0097Y01682*
X0097Y01681*
X0097Y01681*
X0097Y0168*
X0097Y0168*
Y0168*
X0097Y01679*
X00969Y01678*
X00969Y01677*
X00969Y01677*
X00968Y01676*
X00968Y01676*
X00968Y01676*
X00968Y01676*
X00967Y01675*
X00967Y01675*
X00966Y01674*
X00965Y01674*
X00965Y01673*
X00964Y01673*
X00964Y01673*
X00964Y01673*
X00963Y01673*
X00962Y01673*
X00961Y01672*
X0096Y01672*
X0096Y01672*
X00959Y01672*
X00958*
X00957Y01672*
X00956Y01672*
X00955Y01672*
X00955*
X00954Y01672*
X00954Y01673*
X00954*
X00953Y01673*
X00952Y01673*
X00952Y01673*
X00951Y01673*
X0095Y01673*
X0095Y01673*
X0095Y01673*
X0095*
Y01677*
X0095Y01677*
X00951Y01677*
X00951Y01677*
X00951Y01677*
X00951Y01676*
X00952*
X00952Y01676*
X00953Y01676*
X00953Y01676*
X00953*
X00953Y01676*
X00954*
X00954Y01676*
X00955Y01676*
X00955Y01676*
X00956*
X00956Y01676*
X00958*
X00959Y01676*
X0096Y01676*
X00962Y01677*
X00962Y01677*
X00963Y01677*
X00964Y01678*
X00964Y01678*
X00964Y01678*
X00965Y01679*
X00965Y0168*
X00966Y01681*
X00966Y01682*
X00966Y01683*
X00966Y01683*
X00966Y01684*
Y01684*
Y01684*
Y01684*
X00949*
X00949Y01684*
Y01685*
Y01685*
Y01685*
X00948Y01686*
Y01686*
Y01686*
Y01686*
Y01687*
Y01687*
X00949Y01688*
X00949Y01688*
X00949Y01689*
X00949Y0169*
X00949Y01691*
X00949Y01691*
X00949Y01691*
X00949Y01691*
X0095Y01692*
X0095Y01693*
X0095Y01694*
X0095Y01694*
X00951Y01694*
X00951Y01695*
X00951Y01695*
X00951Y01695*
X00952Y01696*
X00952Y01696*
X00953Y01696*
X00954Y01697*
X00954Y01697*
X00954Y01697*
X00955Y01697*
X00955Y01697*
X00955Y01698*
X00956Y01698*
X00957Y01698*
X00958Y01698*
X00958Y01698*
X00959Y01698*
X00959*
X0096Y01698*
G37*
G36*
X00848D02*
X00849Y01698D01*
X00849Y01698*
X0085Y01698*
X00851Y01698*
X00851Y01697*
X00852Y01697*
X00852Y01697*
X00852Y01697*
X00853Y01696*
X00854Y01696*
X00854Y01695*
X00855Y01695*
X00855Y01695*
X00855Y01694*
X00855Y01694*
X00856Y01694*
X00856Y01693*
X00856Y01692*
X00857Y01692*
X00857Y01691*
X00857Y01691*
X00857Y0169*
X00857Y0169*
X00858Y01689*
X00858Y01688*
X00858Y01688*
X00858Y01687*
X00858Y01686*
X00858Y01686*
Y01685*
Y01685*
Y01685*
X00858Y01684*
X00858Y01683*
X00858Y01682*
X00858Y01681*
X00858Y01681*
X00858Y0168*
X00857Y0168*
Y0168*
X00857Y01679*
X00857Y01678*
X00856Y01677*
X00856Y01677*
X00856Y01676*
X00855Y01676*
X00855Y01676*
X00855Y01676*
X00855Y01675*
X00854Y01675*
X00853Y01674*
X00853Y01674*
X00852Y01673*
X00852Y01673*
X00852Y01673*
X00851Y01673*
X00851Y01673*
X0085Y01673*
X00849Y01672*
X00848Y01672*
X00847Y01672*
X00846Y01672*
X00845*
X00844Y01672*
X00843Y01672*
X00843Y01672*
X00842*
X00842Y01672*
X00841Y01673*
X00841*
X0084Y01673*
X0084Y01673*
X00839Y01673*
X00838Y01673*
X00838Y01673*
X00838Y01673*
X00837Y01673*
X00837*
Y01677*
X00838Y01677*
X00838Y01677*
X00839Y01677*
X00839Y01677*
X00839Y01676*
X00839*
X0084Y01676*
X0084Y01676*
X00841Y01676*
X00841*
X00841Y01676*
X00841*
X00842Y01676*
X00842Y01676*
X00843Y01676*
X00843*
X00844Y01676*
X00845*
X00847Y01676*
X00848Y01676*
X00849Y01677*
X0085Y01677*
X00851Y01677*
X00851Y01678*
X00851Y01678*
X00851Y01678*
X00852Y01679*
X00853Y0168*
X00853Y01681*
X00853Y01682*
X00853Y01683*
X00854Y01683*
X00854Y01684*
Y01684*
Y01684*
Y01684*
X00836*
X00836Y01684*
Y01685*
Y01685*
Y01685*
X00836Y01686*
Y01686*
Y01686*
Y01686*
Y01687*
Y01687*
X00836Y01688*
X00836Y01688*
X00836Y01689*
X00836Y0169*
X00836Y01691*
X00837Y01691*
X00837Y01691*
X00837Y01691*
X00837Y01692*
X00837Y01693*
X00838Y01694*
X00838Y01694*
X00838Y01694*
X00839Y01695*
X00839Y01695*
X00839Y01695*
X00839Y01696*
X0084Y01696*
X0084Y01696*
X00841Y01697*
X00841Y01697*
X00842Y01697*
X00842Y01697*
X00842Y01697*
X00843Y01698*
X00844Y01698*
X00844Y01698*
X00845Y01698*
X00846Y01698*
X00846Y01698*
X00847*
X00848Y01698*
G37*
G36*
X01082Y01673D02*
X01078D01*
Y01684*
X01074*
X01072Y01684*
X01071Y01685*
X0107Y01685*
X01069Y01685*
X01069Y01685*
X01068Y01685*
X01068Y01685*
X01068Y01685*
X01067Y01686*
X01066Y01686*
X01066Y01687*
X01065Y01687*
X01064Y01687*
X01064Y01688*
X01064Y01688*
X01064Y01688*
X01063Y01688*
X01063Y01689*
X01062Y0169*
X01062Y0169*
X01062Y01691*
X01062Y01691*
X01062Y01691*
X01061Y01691*
X01061Y01692*
X01061Y01693*
X01061Y01693*
X01061Y01694*
X01061Y01695*
X01061Y01695*
Y01695*
Y01695*
X01061Y01696*
X01061Y01697*
X01061Y01698*
X01061Y01699*
X01061Y01699*
X01062Y017*
X01062Y017*
X01062Y017*
X01062Y01701*
X01063Y01701*
X01063Y01702*
X01063Y01702*
X01064Y01703*
X01064Y01703*
X01064Y01703*
X01064Y01703*
X01065Y01703*
X01066Y01704*
X01066Y01704*
X01067Y01704*
X01068Y01705*
X01068Y01705*
X01068Y01705*
X01068*
X0107Y01705*
X01071Y01705*
X01072Y01705*
X01072Y01705*
X01082*
Y01673*
G37*
G36*
X00887Y01702D02*
X00877D01*
Y01673*
X00873*
Y01702*
X00863*
Y01705*
X00887*
Y01702*
G37*
G36*
X00788Y01698D02*
X00789Y01698D01*
X00789Y01698*
X0079Y01698*
X0079Y01697*
X00791Y01697*
X00791Y01697*
X00791Y01697*
X00792Y01697*
X00793Y01696*
X00794Y01695*
X00794Y01695*
X00795Y01694*
X00795Y01694*
X00796Y01693*
X00796Y01693*
Y01693*
X00796Y01698*
X008*
Y01673*
X00795*
Y01689*
X00795Y0169*
X00794Y0169*
X00794Y01691*
X00794Y01691*
X00793Y01691*
X00793Y01691*
X00793Y01691*
X00792Y01692*
X00792Y01693*
X00791Y01693*
X00791Y01693*
X00791Y01693*
X00791Y01693*
X0079Y01694*
X0079Y01694*
X0079Y01694*
X0079Y01694*
X00789Y01694*
X00789*
X00789Y01694*
X00788Y01694*
X00788Y01695*
X00788*
X00787Y01694*
X00786Y01694*
X00786Y01694*
X00785Y01694*
X00785Y01693*
X00785Y01693*
X00785Y01693*
X00785Y01693*
X00784Y01692*
X00784Y01692*
X00784Y01691*
X00784Y0169*
X00784Y01689*
X00784Y01689*
Y01689*
Y01688*
Y01688*
Y01688*
X00779*
X00779Y0169*
X00779Y01692*
X0078Y01693*
X0078Y01694*
X0078Y01695*
X00781Y01695*
X00781Y01695*
X00781Y01695*
X00781Y01696*
X00781Y01696*
X00781Y01696*
X00782Y01697*
X00783Y01697*
X00784Y01698*
X00785Y01698*
X00786Y01698*
X00786Y01698*
X00787Y01698*
X00787*
X00788Y01698*
G37*
G36*
X00772Y01694D02*
X00764D01*
Y01676*
X00772*
Y01673*
X00752*
Y01676*
X0076*
Y01698*
X00772*
Y01694*
G37*
G36*
X01045Y01698D02*
X01046Y01698D01*
X01047Y01698*
X01047Y01698*
X01048Y01698*
X01048Y01697*
X01049Y01697*
X01049Y01697*
X0105Y01697*
X0105Y01696*
X01051Y01696*
X01052Y01696*
X01052Y01695*
X01052Y01695*
X01053Y01695*
X01053Y01695*
X01053Y01694*
X01054Y01693*
X01054Y01693*
X01054Y01692*
X01055Y01691*
X01055Y01691*
X01055Y01691*
X01055Y0169*
X01055Y0169*
X01055Y01689*
X01056Y01688*
X01056Y01687*
X01056Y01686*
X01056Y01686*
Y01685*
Y01685*
Y01685*
Y01685*
X01056Y01684*
X01056Y01683*
X01056Y01682*
X01055Y01681*
X01055Y01681*
X01055Y0168*
X01055Y0168*
X01055Y0168*
X01055Y01679*
X01054Y01678*
X01054Y01677*
X01054Y01677*
X01053Y01676*
X01053Y01676*
X01053Y01676*
X01053Y01676*
X01052Y01675*
X01052Y01674*
X01051Y01674*
X0105Y01674*
X0105Y01673*
X01049Y01673*
X01049Y01673*
X01049Y01673*
X01048Y01673*
X01047Y01673*
X01047Y01672*
X01046Y01672*
X01045Y01672*
X01045Y01672*
X01044*
X01043Y01672*
X01042Y01672*
X01041Y01673*
X01041Y01673*
X0104Y01673*
X0104Y01673*
X01039Y01673*
X01039Y01673*
X01038Y01674*
X01038Y01674*
X01037Y01674*
X01037Y01675*
X01036Y01675*
X01036Y01676*
X01036Y01676*
X01035Y01676*
X01035Y01677*
X01034Y01677*
X01034Y01678*
X01034Y01679*
X01033Y01679*
X01033Y0168*
X01033Y0168*
X01033Y0168*
X01033Y01681*
X01033Y01682*
X01032Y01683*
X01032Y01684*
X01032Y01684*
X01032Y01685*
Y01685*
Y01685*
Y01685*
Y01685*
X01032Y01687*
X01032Y01688*
X01032Y01689*
X01033Y01689*
X01033Y0169*
X01033Y01691*
X01033Y01691*
X01033Y01691*
X01033Y01692*
X01034Y01693*
X01034Y01693*
X01034Y01694*
X01035Y01694*
X01035Y01695*
X01035Y01695*
X01035Y01695*
X01036Y01696*
X01036Y01696*
X01037Y01696*
X01038Y01697*
X01038Y01697*
X01039Y01697*
X01039Y01697*
X01039Y01697*
X0104Y01698*
X01041Y01698*
X01041Y01698*
X01042Y01698*
X01043Y01698*
X01043Y01698*
X01044*
X01045Y01698*
G37*
G36*
X00734D02*
X00735Y01698D01*
X00736Y01698*
X00737Y01698*
X00737Y01698*
X00738Y01698*
X00738Y01698*
X00738Y01698*
X00739Y01697*
X0074Y01697*
X0074Y01697*
X00741Y01696*
X00741Y01696*
X00741Y01696*
X00741Y01696*
X00741Y01696*
X00742Y01695*
X00742Y01695*
X00743Y01695*
X00743Y01694*
X00743Y01694*
X00743Y01694*
X00743Y01693*
Y01693*
X00743Y01693*
X00744Y01692*
X00744Y01692*
Y01691*
Y01691*
Y01691*
Y01691*
X00743Y0169*
X00743Y0169*
X00743Y01689*
X00743Y01689*
X00743Y01689*
X00743Y01688*
Y01688*
X00742Y01688*
X00742Y01687*
X00742Y01687*
X00742Y01686*
X00741Y01686*
X00741Y01686*
X00741Y01686*
X0074Y01685*
X00739Y01685*
X00739Y01685*
X00739Y01685*
X00739Y01685*
X00738Y01684*
X00737Y01684*
X00737Y01684*
X00736Y01684*
X00736Y01684*
X00736Y01684*
X00736*
X00735Y01683*
X00734Y01683*
X00734Y01683*
X00733Y01683*
X00733Y01683*
X00732Y01683*
X00732Y01682*
X00732*
X00732Y01682*
X00731Y01682*
X00731Y01682*
X00731Y01682*
X00731Y01682*
X0073Y01682*
X0073Y01681*
X0073Y01681*
X0073Y01681*
X00729Y01681*
X00729Y0168*
X00729Y0168*
X00729Y0168*
X00729Y01679*
Y01679*
Y01679*
X00729Y01679*
X00729Y01678*
X0073Y01678*
X0073Y01677*
X0073Y01677*
X0073Y01677*
X00731Y01677*
X00731Y01677*
X00731Y01676*
X00732Y01676*
X00733Y01676*
X00734Y01676*
X00734Y01676*
X00735Y01676*
X00735*
X00737Y01676*
X00738Y01676*
X00738Y01676*
X00739*
X00739Y01676*
X00739Y01676*
X0074*
X00741Y01677*
X00742Y01677*
X00743Y01677*
X00743Y01677*
X00744Y01677*
X00744Y01677*
X00744*
Y01673*
X00742Y01673*
X00742Y01673*
X00741Y01673*
X00741Y01673*
X0074Y01673*
X0074Y01672*
X0074*
X00738Y01672*
X00737Y01672*
X00737*
X00736Y01672*
X00735*
X00734Y01672*
X00733Y01672*
X00733*
X00733Y01672*
X00733*
X00732Y01673*
X00731Y01673*
X00731Y01673*
X0073Y01673*
X0073Y01673*
X0073*
X00729Y01673*
X00729Y01674*
X00728Y01674*
X00728Y01674*
X00728Y01674*
X00728*
X00727Y01674*
X00727Y01675*
X00727Y01675*
X00726Y01675*
X00726Y01675*
X00726Y01675*
X00726Y01676*
X00725Y01677*
X00725Y01677*
X00725Y01677*
X00725Y01677*
Y01677*
X00725Y01678*
X00725Y01679*
X00725Y01679*
Y01679*
Y01679*
Y0168*
X00725Y01681*
X00725Y01681*
X00725Y01681*
X00725Y01682*
X00725Y01682*
X00725Y01682*
Y01682*
X00726Y01683*
X00726Y01683*
X00726Y01684*
X00726Y01684*
X00726Y01684*
X00726Y01684*
X00727Y01685*
X00728Y01685*
X00728Y01685*
X00729Y01685*
X00729Y01686*
X00729Y01686*
X00729Y01686*
X0073Y01686*
X00731Y01686*
X00731Y01687*
X00732Y01687*
X00732Y01687*
X00733Y01687*
X00733Y01687*
X00733Y01687*
X00734Y01687*
X00735Y01688*
X00735Y01688*
X00735Y01688*
X00736Y01688*
X00736Y01688*
X00736*
X00737Y01688*
X00737Y01689*
X00738Y01689*
X00738Y01689*
X00738Y01689*
X00738*
X00738Y0169*
X00739Y0169*
X00739Y0169*
X00739Y0169*
X00739Y01691*
X00739Y01691*
X00739Y01691*
Y01691*
X00739Y01692*
X00739Y01692*
X00739Y01693*
X00739Y01693*
X00739Y01693*
X00738Y01693*
X00738Y01694*
X00738Y01694*
X00737Y01694*
X00737Y01694*
X00737Y01694*
X00736Y01694*
X00736Y01694*
X00736*
X00735Y01695*
X00734Y01695*
X00734Y01695*
X00733*
X00732Y01695*
X00732Y01695*
X00731*
X00731Y01694*
X0073Y01694*
X0073Y01694*
X0073*
X00729Y01694*
X00728Y01694*
X00727Y01694*
X00727Y01694*
X00727Y01694*
X00726Y01694*
X00726*
Y01698*
X00728Y01698*
X00728Y01698*
X00729Y01698*
X00729Y01698*
X0073*
X0073Y01698*
X0073*
X00731Y01698*
X00732*
X00732Y01698*
X00733*
X00734Y01698*
G37*
%LNpcb1-2*%
%LPC*%
G36*
X00395Y01259D02*
X00394D01*
X00394Y01259*
X00393Y01259*
X00392Y01259*
X00392Y01259*
X00391Y01258*
X00391Y01258*
X00391Y01258*
X00391Y01258*
X0039Y01258*
X0039Y01257*
X00389Y01257*
X00389Y01256*
X00388Y01256*
X00388Y01256*
X00388Y01255*
X00388Y01255*
X00388Y01255*
X00387Y01254*
X00387Y01253*
X00387Y01253*
X00387Y01252*
X00387Y01252*
X00387Y01251*
Y01251*
X00386Y01249*
X00386Y01249*
X00386Y01248*
X00386Y01247*
Y01246*
Y01246*
Y01246*
Y01246*
Y01245*
X00386Y01244*
X00386Y01243*
X00386Y01243*
X00386Y01242*
X00387Y01241*
X00387Y01241*
Y01241*
X00387Y0124*
X00387Y01239*
X00387Y01239*
X00388Y01238*
X00388Y01238*
X00388Y01237*
X00388Y01237*
X00388Y01237*
X00389Y01236*
X00389Y01236*
X00389Y01235*
X0039Y01235*
X0039Y01235*
X0039Y01234*
X00391Y01234*
X00391Y01234*
X00391Y01234*
X00392Y01234*
X00393Y01233*
X00393Y01233*
X00394Y01233*
X00394Y01233*
X00394*
X00395Y01233*
X00396Y01233*
X00397Y01234*
X00397Y01234*
X00398Y01234*
X00398Y01234*
X00398Y01234*
X00398Y01234*
X00399Y01235*
X00399Y01235*
X004Y01235*
X004Y01236*
X004Y01236*
X00401Y01236*
X00401Y01237*
X00401Y01237*
X00401Y01238*
X00402Y01239*
X00402Y01239*
X00402Y0124*
X00402Y0124*
X00402Y01241*
Y01241*
X00402Y01243*
X00402Y01244*
X00403Y01244*
X00403Y01245*
Y01246*
Y01246*
Y01246*
Y01246*
Y01247*
X00403Y01248*
X00402Y01249*
X00402Y0125*
X00402Y0125*
X00402Y01251*
X00402Y01251*
Y01251*
X00402Y01252*
X00402Y01253*
X00401Y01253*
X00401Y01254*
X00401Y01255*
X00401Y01255*
X00401Y01255*
X00401Y01255*
X004Y01256*
X004Y01256*
X00399Y01257*
X00399Y01257*
X00399Y01258*
X00398Y01258*
X00398Y01258*
X00398Y01258*
X00398Y01258*
X00397Y01259*
X00396Y01259*
X00396Y01259*
X00395Y01259*
X00395Y01259*
G37*
G36*
X01217Y01259D02*
X01212D01*
X01212Y01259*
X01211Y01258*
X0121Y01258*
X01209Y01258*
X01209Y01258*
X01209Y01258*
X01209Y01258*
X01208Y01258*
X01207Y01257*
X01207Y01257*
X01206Y01257*
X01206Y01256*
X01206Y01256*
X01205Y01256*
X01205Y01256*
X01205Y01255*
X01205Y01255*
X01204Y01254*
X01204Y01253*
X01204Y01253*
X01204Y01252*
X01203Y01252*
Y01252*
X01203Y01251*
X01203Y0125*
X01203Y01249*
X01203Y01248*
Y01247*
X01203Y01247*
Y01246*
Y01246*
Y01246*
Y01246*
X01203Y01245*
X01203Y01244*
X01203Y01243*
X01203Y01242*
X01204Y01241*
X01204Y0124*
X01204Y0124*
X01205Y01239*
X01205Y01238*
X01206Y01237*
X01207Y01236*
X01208Y01235*
X01209Y01235*
X0121Y01234*
X01211Y01234*
X01212Y01234*
X01213Y01234*
X01213Y01234*
X01217*
Y01259*
G37*
G36*
X01275Y01406D02*
X0127D01*
X01269Y01406*
X01268Y01406*
X01268Y01406*
X01267Y01406*
X01267Y01405*
X01266Y01405*
X01266Y01405*
X01266Y01405*
X01265Y01404*
X01265Y01404*
X01265Y01403*
X01264Y01403*
X01264Y01402*
X01264Y01401*
Y01401*
Y01401*
Y01401*
X01264Y014*
X01264Y014*
X01264Y01399*
X01264Y01399*
X01265Y01399*
X01265Y01399*
Y01399*
X01265Y01398*
X01266Y01397*
X01266Y01397*
X01266Y01397*
X01266Y01397*
X01267Y01397*
X01267Y01396*
X01268Y01396*
X01268Y01396*
X01268Y01396*
X01268*
X01269Y01396*
X0127Y01396*
X0127Y01396*
X01275*
Y01406*
G37*
G36*
X01238Y01544D02*
X01238D01*
X01237Y01544*
X01237Y01544*
X01236Y01544*
X01235Y01544*
X01235Y01544*
X01235Y01544*
X01234Y01544*
X01234Y01543*
X01234Y01543*
X01233Y01543*
X01233Y01542*
X01232Y01542*
X01232Y01541*
X01232Y01541*
X01232Y01541*
X01232Y01541*
X01231Y0154*
X01231Y01539*
X01231Y01539*
X01231Y01538*
X0123Y01538*
X0123Y01537*
X0123Y01537*
Y01537*
X0123Y01535*
X0123Y01534*
X0123Y01533*
X0123Y01532*
Y01532*
Y01532*
Y01531*
Y01531*
Y0153*
X0123Y0153*
X0123Y01529*
X0123Y01528*
X0123Y01527*
X0123Y01527*
X0123Y01527*
Y01526*
X0123Y01526*
X01231Y01525*
X01231Y01524*
X01231Y01524*
X01231Y01523*
X01232Y01523*
X01232Y01522*
X01232Y01522*
X01232Y01522*
X01233Y01521*
X01233Y01521*
X01233Y0152*
X01234Y0152*
X01234Y0152*
X01234Y0152*
X01234Y0152*
X01235Y01519*
X01236Y01519*
X01236Y01519*
X01237Y01519*
X01237Y01519*
X01238Y01519*
X01238*
X01239Y01519*
X0124Y01519*
X0124Y01519*
X01241Y01519*
X01241Y01519*
X01242Y01519*
X01242Y0152*
X01242Y0152*
X01242Y0152*
X01243Y0152*
X01243Y01521*
X01244Y01521*
X01244Y01522*
X01244Y01522*
X01244Y01522*
X01244Y01522*
X01245Y01524*
X01245Y01524*
X01246Y01525*
X01246Y01525*
X01246Y01526*
X01246Y01526*
Y01526*
X01246Y01528*
X01246Y01529*
X01246Y0153*
X01246Y01531*
Y01531*
Y01532*
Y01532*
Y01532*
Y01533*
X01246Y01534*
X01246Y01534*
X01246Y01535*
X01246Y01536*
X01246Y01536*
X01246Y01536*
Y01537*
X01246Y01537*
X01245Y01538*
X01245Y01539*
X01245Y01539*
X01245Y0154*
X01245Y0154*
X01244Y01541*
X01244Y01541*
X01244Y01541*
X01244Y01542*
X01243Y01542*
X01243Y01543*
X01242Y01543*
X01242Y01543*
X01242Y01543*
X01242Y01543*
X01241Y01544*
X01241Y01544*
X0124Y01544*
X01239Y01544*
X01239Y01544*
X01238Y01544*
G37*
G36*
X00787Y01635D02*
X00781D01*
Y0163*
X00782Y0163*
X00783Y01629*
X00784Y01629*
X00784Y01628*
X00785Y01628*
X00785Y01628*
X00785Y01628*
X00785Y01628*
X00786Y01627*
X00787Y01627*
X00787Y01627*
X00788Y01627*
X00788Y01627*
X00789Y01627*
X00789*
X0079Y01627*
X0079Y01627*
X0079*
X00791Y01627*
X00791Y01627*
X00791*
X00791Y01627*
X00792Y01627*
X00792Y01628*
X00792Y01628*
X00792Y01628*
X00793Y01628*
X00793Y01629*
X00793Y01629*
X00793Y01629*
X00793Y0163*
Y0163*
Y0163*
Y0163*
X00793Y01631*
X00793Y01632*
X00793Y01632*
X00793Y01632*
X00793Y01632*
Y01632*
X00792Y01633*
X00792Y01633*
X00792Y01634*
X00792Y01634*
X00791Y01634*
X0079Y01634*
X0079Y01634*
X0079Y01635*
X0079Y01635*
X0079*
X00789Y01635*
X00788Y01635*
X00787Y01635*
G37*
G36*
X00703D02*
X00697D01*
Y0163*
X00698Y0163*
X00698Y01629*
X00699Y01629*
X007Y01628*
X007Y01628*
X00701Y01628*
X00701Y01628*
X00701Y01628*
X00702Y01627*
X00702Y01627*
X00703Y01627*
X00703Y01627*
X00704Y01627*
X00704Y01627*
X00704*
X00705Y01627*
X00706Y01627*
X00706*
X00706Y01627*
X00706Y01627*
X00706*
X00707Y01627*
X00707Y01627*
X00708Y01628*
X00708Y01628*
X00708Y01628*
X00708Y01628*
X00708Y01629*
X00708Y01629*
X00709Y01629*
X00709Y0163*
Y0163*
Y0163*
Y0163*
X00709Y01631*
X00708Y01632*
X00708Y01632*
X00708Y01632*
X00708Y01632*
Y01632*
X00708Y01633*
X00708Y01633*
X00707Y01634*
X00707Y01634*
X00707Y01634*
X00706Y01634*
X00706Y01634*
X00705Y01635*
X00705Y01635*
X00705*
X00704Y01635*
X00703Y01635*
X00703Y01635*
G37*
G36*
X01068Y01652D02*
X01063Y01635D01*
X01074*
X01068Y01652*
G37*
G36*
X01012Y01645D02*
X01011D01*
X01011Y01645*
X0101Y01645*
X0101Y01645*
X0101Y01645*
X01009Y01645*
X01009Y01645*
X01009Y01645*
X01008Y01644*
X01008Y01644*
X01007Y01644*
X01007Y01643*
X01007Y01643*
X01007Y01643*
X01007Y01643*
X01006Y01643*
X01006Y01642*
X01006Y01641*
X01005Y01641*
X01005Y0164*
X01005Y0164*
Y0164*
X01005Y01639*
X01005Y01638*
X01005Y01637*
X01005Y01637*
Y01636*
Y01636*
Y01636*
X01005Y01635*
X01005Y01634*
X01005Y01634*
X01005Y01633*
X01005Y01633*
X01005Y01633*
Y01632*
X01005Y01632*
X01006Y01631*
X01006Y01631*
X01006Y0163*
X01006Y0163*
X01006Y0163*
X01006Y0163*
X01006Y01629*
X01007Y01629*
X01008Y01628*
X01008Y01628*
X01009Y01628*
X01009Y01628*
X01009Y01627*
X01009Y01627*
X0101Y01627*
X0101Y01627*
X01011Y01627*
X01011Y01627*
X01012Y01627*
X01013*
X01013Y01627*
X01014Y01627*
X01014Y01627*
X01015Y01627*
X01015Y01627*
X01015Y01627*
X01015*
X01016Y01628*
X01016Y01628*
X01017Y01628*
X01017Y01629*
X01017Y01629*
X01017Y01629*
X01017Y01629*
X01018Y0163*
X01018Y01631*
X01019Y01631*
X01019Y01632*
X01019Y01632*
Y01632*
X01019Y01633*
X01019Y01634*
X01019Y01635*
X01019Y01635*
Y01636*
Y01636*
Y01636*
X01019Y01637*
X01019Y01638*
X01019Y01639*
X01019Y01639*
X01019Y01639*
X01019Y0164*
Y0164*
X01019Y0164*
X01019Y01641*
X01018Y01641*
X01018Y01642*
X01018Y01642*
X01018Y01642*
X01018Y01642*
X01018Y01643*
X01017Y01643*
X01017Y01644*
X01016Y01644*
X01016Y01644*
X01016Y01644*
X01015Y01645*
X01015Y01645*
X01015Y01645*
X01014Y01645*
X01014Y01645*
X01013Y01645*
X01013Y01645*
X01012Y01645*
G37*
G36*
X00928D02*
X00927D01*
X00926Y01645*
X00926Y01645*
X00926Y01645*
X00925Y01645*
X00925Y01645*
X00925Y01645*
X00925Y01645*
X00924Y01644*
X00923Y01644*
X00923Y01644*
X00923Y01643*
X00922Y01643*
X00922Y01643*
X00922Y01643*
X00922Y01643*
X00922Y01642*
X00921Y01641*
X00921Y01641*
X00921Y0164*
X00921Y0164*
Y0164*
X00921Y01639*
X0092Y01638*
X0092Y01637*
X0092Y01637*
Y01636*
Y01636*
Y01636*
X0092Y01635*
X0092Y01634*
X00921Y01634*
X00921Y01633*
X00921Y01633*
X00921Y01633*
Y01632*
X00921Y01632*
X00921Y01631*
X00921Y01631*
X00922Y0163*
X00922Y0163*
X00922Y0163*
X00922Y0163*
X00922Y01629*
X00923Y01629*
X00924Y01628*
X00924Y01628*
X00924Y01628*
X00924Y01628*
X00924Y01627*
X00925Y01627*
X00925Y01627*
X00926Y01627*
X00927Y01627*
X00927Y01627*
X00927Y01627*
X00928*
X00929Y01627*
X00929Y01627*
X0093Y01627*
X0093Y01627*
X0093Y01627*
X00931Y01627*
X00931*
X00932Y01628*
X00932Y01628*
X00932Y01628*
X00933Y01629*
X00933Y01629*
X00933Y01629*
X00933Y01629*
X00934Y0163*
X00934Y01631*
X00934Y01631*
X00934Y01632*
X00934Y01632*
Y01632*
X00935Y01633*
X00935Y01634*
X00935Y01635*
X00935Y01635*
Y01636*
Y01636*
Y01636*
X00935Y01637*
X00935Y01638*
X00935Y01639*
X00935Y01639*
X00935Y01639*
X00935Y0164*
Y0164*
X00934Y0164*
X00934Y01641*
X00934Y01641*
X00934Y01642*
X00934Y01642*
X00933Y01642*
X00933Y01642*
X00933Y01643*
X00933Y01643*
X00932Y01644*
X00932Y01644*
X00931Y01644*
X00931Y01644*
X00931Y01645*
X00931Y01645*
X0093Y01645*
X0093Y01645*
X00929Y01645*
X00929Y01645*
X00928Y01645*
X00928Y01645*
G37*
G36*
X00562Y01653D02*
X00562D01*
X00561Y01653*
X0056Y01653*
X00559Y01653*
X00559Y01652*
X00558Y01652*
X00558Y01652*
X00557Y01652*
X00557Y01652*
X00557Y01651*
X00556Y01651*
X00556Y0165*
X00556Y0165*
X00556Y01649*
X00556Y01649*
Y01649*
Y01649*
X00556Y01648*
X00556Y01647*
X00556Y01647*
X00556Y01646*
X00557Y01646*
X00557Y01645*
X00557Y01645*
X00557Y01645*
X00558Y01645*
X00558Y01644*
X00559Y01644*
X0056Y01643*
X0056Y01643*
X00561Y01643*
X00561Y01643*
X00561Y01643*
X00561*
X00563Y01643*
X00563Y01643*
X00563Y01644*
X00564Y01644*
X00564Y01644*
X00564Y01644*
X00564Y01644*
X00565Y01644*
X00566Y01645*
X00566Y01645*
X00566Y01645*
X00566Y01645*
X00566Y01645*
X00567Y01646*
X00567Y01646*
X00567Y01647*
X00567Y01647*
Y01647*
X00568Y01648*
X00568Y01648*
X00568Y01648*
Y01648*
Y01649*
Y01649*
X00568Y01649*
X00567Y0165*
X00567Y01651*
X00567Y01651*
X00567Y01651*
X00566Y01652*
X00566Y01652*
X00566Y01652*
X00566Y01652*
X00565Y01653*
X00564Y01653*
X00563Y01653*
X00563Y01653*
X00562Y01653*
G37*
G36*
X00562Y01638D02*
X00561Y01638D01*
X00561Y01638*
X0056Y01637*
X0056Y01637*
X00559Y01637*
X00559Y01637*
X00559Y01637*
X00559Y01637*
X00558Y01636*
X00558Y01636*
X00558Y01636*
X00557Y01635*
X00557Y01635*
X00557Y01635*
X00557Y01635*
X00557Y01635*
X00556Y01634*
X00556Y01634*
X00556Y01634*
X00556Y01633*
X00556Y01633*
Y01633*
X00556Y01633*
X00555Y01632*
X00555Y01632*
Y01632*
Y01631*
Y01631*
X00555Y01631*
X00556Y0163*
X00556Y0163*
X00556Y01629*
X00556Y01629*
Y01629*
X00556Y01629*
X00557Y01628*
X00557Y01628*
X00557Y01628*
X00557*
X00558Y01627*
X00559Y01627*
X00559Y01627*
X00559Y01627*
X00559Y01627*
X00559*
X0056Y01627*
X00561Y01627*
X00561Y01627*
X00562*
X00563Y01627*
X00563Y01627*
X00564Y01627*
X00564*
X00564Y01627*
X00564Y01627*
X00564*
X00565Y01627*
X00566Y01628*
X00566Y01628*
X00566Y01628*
X00566Y01628*
X00566*
X00567Y01628*
X00567Y01629*
X00568Y01629*
X00568Y01629*
Y01629*
X00568Y0163*
X00568Y01631*
X00568Y01631*
Y01631*
Y01631*
Y01631*
X00568Y01632*
X00568Y01633*
Y01633*
X00568Y01633*
X00568Y01633*
Y01633*
X00568Y01634*
X00567Y01635*
X00567Y01635*
X00567Y01635*
X00567Y01635*
Y01635*
X00566Y01636*
X00566Y01636*
X00565Y01636*
X00565Y01637*
X00565Y01637*
X00565Y01637*
X00564Y01637*
X00563Y01638*
X00563Y01638*
X00562Y01638*
X00562Y01638*
X00562Y01638*
G37*
G36*
X0096Y01695D02*
X0096D01*
X00958Y01695*
X00958Y01695*
X00957Y01695*
X00957Y01694*
X00957Y01694*
X00957Y01694*
X00957*
X00956Y01694*
X00955Y01693*
X00955Y01693*
X00955Y01693*
X00955Y01693*
X00955Y01693*
X00955Y01693*
X00954Y01692*
X00954Y01691*
X00953Y01691*
X00953Y01691*
X00953Y0169*
Y0169*
X00953Y01689*
X00953Y01689*
X00953Y01688*
Y01688*
Y01688*
Y01687*
Y01687*
X00966*
X00966Y01688*
X00966Y01689*
X00966Y01689*
X00966Y0169*
X00966Y0169*
X00965Y0169*
Y0169*
X00965Y01691*
X00965Y01692*
X00965Y01692*
X00964Y01692*
X00964Y01693*
X00964Y01693*
X00964Y01693*
X00963Y01693*
X00963Y01694*
X00962Y01694*
X00962Y01694*
X00962Y01694*
X00962*
X00961Y01695*
X0096Y01695*
X0096Y01695*
G37*
G36*
X00847D02*
X00847D01*
X00846Y01695*
X00845Y01695*
X00845Y01695*
X00845Y01694*
X00844Y01694*
X00844Y01694*
X00844*
X00843Y01694*
X00843Y01693*
X00843Y01693*
X00842Y01693*
X00842Y01693*
X00842Y01693*
X00842Y01693*
X00841Y01692*
X00841Y01691*
X00841Y01691*
X00841Y01691*
X00841Y0169*
Y0169*
X00841Y01689*
X0084Y01689*
X0084Y01688*
Y01688*
Y01688*
Y01687*
Y01687*
X00854*
X00853Y01688*
X00853Y01689*
X00853Y01689*
X00853Y0169*
X00853Y0169*
X00853Y0169*
Y0169*
X00853Y01691*
X00852Y01692*
X00852Y01692*
X00852Y01692*
X00852Y01693*
X00852Y01693*
X00852Y01693*
X00851Y01693*
X0085Y01694*
X0085Y01694*
X0085Y01694*
X0085Y01694*
X0085*
X00849Y01695*
X00848Y01695*
X00847Y01695*
G37*
G36*
X01078Y01702D02*
X01073D01*
X01072Y01702*
X01071Y01701*
X0107Y01701*
X01069Y01701*
X01068Y01701*
X01068Y017*
X01068Y017*
X01067Y017*
X01067Y01699*
X01066Y01699*
X01066Y01698*
X01066Y01697*
X01065Y01696*
X01065Y01696*
X01065Y01695*
Y01695*
Y01695*
Y01695*
X01065Y01694*
X01066Y01693*
X01066Y01692*
X01066Y01691*
X01067Y01691*
X01067Y0169*
X01067Y0169*
X01067Y0169*
X01068Y01689*
X01069Y01689*
X0107Y01689*
X01071Y01688*
X01072Y01688*
X01073Y01688*
X01073Y01688*
X01078*
Y01702*
G37*
G36*
X01044Y01695D02*
X01043D01*
X01043Y01694*
X01042Y01694*
X01042Y01694*
X01042Y01694*
X01041Y01694*
X01041Y01694*
X01041Y01694*
X0104Y01693*
X0104Y01693*
X01039Y01693*
X01039Y01693*
X01039Y01692*
X01039Y01692*
X01039Y01692*
X01038Y01692*
X01038Y01691*
X01038Y0169*
X01037Y0169*
X01037Y0169*
X01037Y01689*
Y01689*
X01037Y01688*
X01037Y01687*
X01037Y01687*
X01037Y01686*
Y01686*
Y01685*
Y01685*
X01037Y01684*
X01037Y01683*
X01037Y01683*
X01037Y01682*
X01037Y01682*
X01037Y01682*
Y01682*
X01037Y01681*
X01037Y01681*
X01038Y0168*
X01038Y0168*
X01038Y01679*
X01038Y01679*
X01038Y01679*
X01038Y01679*
X01039Y01678*
X0104Y01677*
X0104Y01677*
X0104Y01677*
X01041Y01677*
X01041Y01677*
X01041Y01676*
X01042Y01676*
X01042Y01676*
X01043Y01676*
X01043Y01676*
X01044Y01676*
X01045*
X01045Y01676*
X01046Y01676*
X01046Y01676*
X01047Y01676*
X01047Y01676*
X01047Y01677*
X01047*
X01048Y01677*
X01048Y01677*
X01049Y01678*
X01049Y01678*
X01049Y01678*
X01049Y01678*
X01049Y01678*
X0105Y01679*
X0105Y0168*
X01051Y01681*
X01051Y01681*
X01051Y01681*
Y01681*
X01051Y01683*
X01051Y01683*
X01051Y01684*
X01051Y01684*
Y01685*
Y01685*
Y01685*
X01051Y01687*
X01051Y01687*
X01051Y01688*
X01051Y01688*
X01051Y01689*
X01051Y01689*
Y01689*
X01051Y01689*
X01051Y0169*
X0105Y01691*
X0105Y01691*
X0105Y01691*
X0105Y01692*
X0105Y01692*
X0105Y01692*
X01049Y01693*
X01048Y01693*
X01048Y01693*
X01048Y01693*
X01048Y01694*
X01047Y01694*
X01047Y01694*
X01047Y01694*
X01046Y01694*
X01046Y01694*
X01045Y01694*
X01045Y01695*
X01044Y01695*
G37*
%LNpcb1-3*%
%LPD*%
G54D10*
X00912Y01157D02*
X0094D01*
Y01362*
X00912D02*
X0094D01*
X00733Y01157D02*
Y01362D01*
Y01157D02*
X00912D01*
X00733Y01362D02*
X00912D01*
G54D11*
X0134Y00911D02*
Y00954D01*
X01196D02*
X0134D01*
Y00679D02*
Y00722D01*
X01196Y00679D02*
X0134D01*
X00214Y00954D02*
X00358D01*
X00214Y00911D02*
Y00954D01*
Y00679D02*
X00358D01*
X00214D02*
Y00722D01*
X00358Y00679D02*
X00365Y00659D01*
X00377Y00632*
X00382Y00621*
X00389Y00607*
X00396Y00594*
X00405Y00579*
X00413Y00567*
X00422Y00554*
X00437Y00536*
X0045Y0052*
X00468Y00502*
X01187Y00653D02*
X01196Y00679D01*
X01175Y00625D02*
X01187Y00653D01*
X01167Y0061D02*
X01175Y00625D01*
X01156Y00591D02*
X01167Y0061D01*
X0114Y00566D02*
X01156Y00591D01*
X0112Y00539D02*
X0114Y00566D01*
X01106Y00522D02*
X0112Y00539D01*
X01086Y00502D02*
X01106Y00522D01*
X01189Y00975D02*
X01196Y00954D01*
X01172Y01012D02*
X01189Y00975D01*
X01158Y01038D02*
X01172Y01012D01*
X01145Y0106D02*
X01158Y01038D01*
X01129Y01081D02*
X01145Y0106D01*
X01113Y01103D02*
X01129Y01081D01*
X01095Y01123D02*
X01113Y01103D01*
X01086Y01131D02*
X01095Y01123D01*
X00358Y00954D02*
X00364Y0097D01*
X00372Y00991*
X00382Y01012*
X00396Y01039*
X00416Y01069*
X00433Y01092*
X00454Y01116*
X00467Y0113*
X00468Y01131D02*
X01086D01*
X00468Y00501D02*
X01086D01*
G54D29*
X00907Y01334D02*
D01*
X00907Y01335*
X00907Y01337*
X00907Y01338*
X00906Y01339*
X00906Y0134*
X00906Y01341*
X00905Y01342*
X00905Y01343*
X00904Y01344*
X00903Y01345*
X00902Y01345*
X00902Y01346*
X00901Y01347*
X009Y01347*
X00899Y01348*
X00898Y01349*
X00897Y01349*
X00896Y01349*
X00895Y0135*
X00894Y0135*
X00893Y0135*
X00892Y0135*
X00891*
X00889Y0135*
X00888Y0135*
X00887Y0135*
X00886Y01349*
X00885Y01349*
X00884Y01349*
X00883Y01348*
X00882Y01347*
X00881Y01347*
X00881Y01346*
X0088Y01345*
X00879Y01345*
X00878Y01344*
X00878Y01343*
X00877Y01342*
X00877Y01341*
X00876Y0134*
X00876Y01339*
X00876Y01338*
X00875Y01337*
X00875Y01335*
X00875Y01334*
X00875Y01333*
X00875Y01332*
X00876Y01331*
X00876Y0133*
X00876Y01329*
X00877Y01328*
X00877Y01327*
X00878Y01326*
X00878Y01325*
X00879Y01324*
X0088Y01323*
X00881Y01323*
X00881Y01322*
X00882Y01321*
X00883Y01321*
X00884Y0132*
X00885Y0132*
X00886Y01319*
X00887Y01319*
X00888Y01319*
X00889Y01319*
X00891Y01319*
X00892*
X00893Y01319*
X00894Y01319*
X00895Y01319*
X00896Y01319*
X00897Y0132*
X00898Y0132*
X00899Y01321*
X009Y01321*
X00901Y01322*
X00902Y01323*
X00902Y01323*
X00903Y01324*
X00904Y01325*
X00905Y01326*
X00905Y01327*
X00906Y01328*
X00906Y01329*
X00906Y0133*
X00907Y01331*
X00907Y01332*
X00907Y01333*
X00907Y01334*
X01227Y00971D02*
Y01001D01*
X01212Y00986D02*
X01242D01*
M02*