%FSTAX23Y23*%
%MOIN*%
%SFA1B1*%

%IPPOS*%
%AMD34*
4,1,8,-0.029500,0.000000,-0.029500,0.000000,0.000000,-0.029500,0.000000,-0.029500,0.029500,0.000000,0.029500,0.000000,0.000000,0.029500,0.000000,0.029500,-0.029500,0.000000,0.0*
1,1,0.059063,0.000000,0.000000*
1,1,0.059063,0.000000,0.000000*
1,1,0.059063,0.000000,0.000000*
1,1,0.059063,0.000000,0.000000*
%
%AMD35*
4,1,8,0.000000,-0.029500,0.000000,-0.029500,0.029500,0.000000,0.029500,0.000000,0.000000,0.029500,0.000000,0.029500,-0.029500,0.000000,-0.029500,0.000000,0.000000,-0.029500,0.0*
1,1,0.059063,0.000000,0.000000*
1,1,0.059063,0.000000,0.000000*
1,1,0.059063,0.000000,0.000000*
1,1,0.059063,0.000000,0.000000*
%
%ADD29C,0.010000*%
%ADD30O,0.148000X0.074000*%
%ADD31C,0.031500*%
%ADD32O,0.059055X0.118110*%
%ADD33C,0.019685*%
G04~CAMADD=34~8~0.0~0.0~590.6~590.6~295.3~0.0~15~0.0~0.0~0.0~0.0~0~0.0~0.0~0.0~0.0~0~0.0~0.0~0.0~90.0~590.0~589.0*
%ADD34D34*%
G04~CAMADD=35~8~0.0~0.0~590.6~590.6~295.3~0.0~15~0.0~0.0~0.0~0.0~0~0.0~0.0~0.0~0.0~0~0.0~0.0~0.0~180.0~590.0~589.0*
%ADD35D35*%
%ADD36R,0.125980X0.165350*%
%ADD37R,0.433070X0.275590*%
%ADD38R,0.090000X0.023622*%
%LNpcb1-1*%
%LPD*%
G36*
X01427Y00908D02*
X01423Y00905D01*
X01422*
X01359*
Y01287*
X01359Y01287*
X01363Y01293*
X01364Y01299*
X01363Y01305*
X01359Y0131*
X01354Y01314*
X01348Y01315*
X01342Y01314*
X01337Y0131*
X01333Y01305*
X01332Y01299*
X01333Y01293*
X01337Y01287*
X01337Y01287*
Y00905*
X01285*
Y00728*
X01422*
X01423*
X01427Y00725*
Y0*
X0*
Y01771*
X01427*
Y00908*
G37*
%LNpcb1-2*%
%LPC*%
G36*
X00491Y01686D02*
Y01672D01*
X00505*
X00504Y01675*
X005Y01681*
X00493Y01686*
X00491Y01686*
G37*
G36*
X00481D02*
X00478Y01686D01*
X00471Y01681*
X00467Y01675*
X00466Y01672*
X00481*
Y01686*
G37*
G36*
X00354Y01715D02*
X00345Y01713D01*
X00338Y01708*
X00333Y01701*
X00332Y01692*
X00333Y01684*
X00338Y01677*
X00345Y01672*
X00354Y0167*
X00362Y01672*
X0037Y01677*
X00374Y01684*
X00376Y01692*
X00374Y01701*
X0037Y01708*
X00362Y01713*
X00354Y01715*
G37*
G36*
X00236D02*
X00227Y01713D01*
X0022Y01708*
X00215Y01701*
X00214Y01692*
X00215Y01684*
X0022Y01677*
X00227Y01672*
X00236Y0167*
X00244Y01672*
X00251Y01677*
X00256Y01684*
X00258Y01692*
X00256Y01701*
X00251Y01708*
X00244Y01713*
X00236Y01715*
G37*
G36*
X00505Y01662D02*
X00491D01*
Y01648*
X00493Y01648*
X005Y01653*
X00504Y01659*
X00505Y01662*
G37*
G36*
X00481D02*
X00465D01*
X00398Y01595*
X00226*
X00222Y01595*
X00218Y01592*
X00149Y01523*
X00149Y01523*
X00143Y0152*
X00137Y01522*
X00131Y0152*
X00126Y01517*
X00122Y01512*
X00121Y01505*
X00122Y01499*
X00126Y01494*
X00126Y01494*
Y01043*
X00121Y01042*
X00119Y01044*
X00114Y01048*
X00108Y01049*
X00102Y01048*
X00096Y01044*
X00093Y01039*
X00092Y01033*
X00093Y01027*
X00096Y01022*
X00097Y01021*
Y01011*
X00084Y00998*
X00081Y00995*
X00081Y0099*
Y00721*
X00081Y00717*
X00084Y00713*
X00113Y00684*
X00117Y00682*
X00121Y00681*
X00257*
X00274Y00664*
Y00582*
X00274Y00582*
X0027Y00577*
X00269Y0057*
X0027Y00564*
X00274Y00559*
X00279Y00555*
X00285Y00554*
X00291Y00555*
X00296Y00559*
X003Y00564*
X00301Y0057*
X003Y00577*
X00296Y00582*
X00296Y00582*
Y00664*
X00301Y00666*
X00313Y00654*
Y00452*
X00314Y00448*
X00316Y00444*
X00346Y00415*
X0035Y00412*
X00354Y00412*
X00377*
Y00383*
X00378Y00374*
X00382Y00365*
X00388Y00358*
X00395Y00352*
X00402Y0035*
Y00285*
Y0022*
X00395Y00218*
X00388Y00212*
X00382Y00204*
X00378Y00196*
X00377Y00187*
Y00127*
X00378Y00118*
X00382Y0011*
X00388Y00102*
X00395Y00096*
X00404Y00093*
X00413Y00092*
X00422Y00093*
X00431Y00096*
X00438Y00102*
X00444Y0011*
X00447Y00118*
X00449Y00127*
Y00187*
X00447Y00196*
X00444Y00204*
X00438Y00212*
X00431Y00218*
X00424Y0022*
Y00274*
X00786*
Y0022*
X00779Y00218*
X00771Y00212*
X00766Y00204*
X00762Y00196*
X00761Y00187*
Y00127*
X00762Y00118*
X00766Y0011*
X00771Y00102*
X00779Y00096*
X00787Y00093*
X00797Y00092*
X00806Y00093*
X00815Y00096*
X00822Y00102*
X00828Y0011*
X00831Y00118*
X00833Y00127*
Y00187*
X00831Y00196*
X00828Y00204*
X00822Y00212*
X00815Y00218*
X00808Y0022*
Y00274*
X01179*
Y0022*
X01173Y00218*
X01165Y00212*
X01159Y00204*
X01156Y00196*
X01155Y00187*
Y00127*
X01156Y00118*
X01159Y0011*
X01165Y00102*
X01173Y00096*
X01181Y00093*
X0119Y00092*
X012Y00093*
X01208Y00096*
X01216Y00102*
X01221Y0011*
X01225Y00118*
X01226Y00127*
Y00187*
X01225Y00196*
X01221Y00204*
X01216Y00212*
X01208Y00218*
X01202Y0022*
Y00285*
Y0035*
X01208Y00352*
X01216Y00358*
X01221Y00365*
X01225Y00374*
X01226Y00383*
Y00442*
X01225Y00452*
X01221Y0046*
X01216Y00468*
X01208Y00473*
X012Y00477*
X0119Y00478*
X01181Y00477*
X01173Y00473*
X01165Y00468*
X01159Y0046*
X01156Y00452*
X01155Y00442*
Y00383*
X01156Y00374*
X01159Y00365*
X01165Y00358*
X01173Y00352*
X01179Y0035*
Y00296*
X00808*
Y0035*
X00815Y00352*
X00822Y00358*
X00828Y00365*
X00831Y00374*
X00833Y00383*
Y00442*
X00831Y00452*
X00828Y0046*
X00822Y00468*
X00815Y00473*
X00806Y00477*
X00797Y00478*
X00787Y00477*
X00779Y00473*
X00771Y00468*
X00766Y0046*
X00762Y00452*
X00761Y00442*
Y00383*
X00762Y00374*
X00766Y00365*
X00771Y00358*
X00779Y00352*
X00786Y0035*
Y00296*
X00424*
Y0035*
X00431Y00352*
X00438Y00358*
X00444Y00365*
X00447Y00374*
X00449Y00383*
Y00442*
X00447Y00452*
X00444Y0046*
X00438Y00468*
X00431Y00473*
X00422Y00477*
X00413Y00478*
X00404Y00477*
X00395Y00473*
X00388Y00468*
X00382Y0046*
X00378Y00452*
X00377Y00442*
Y00434*
X00358*
X00336Y00457*
Y00615*
X0034Y00617*
X00369Y00588*
X00369Y00585*
X00365Y00578*
X00364Y00575*
X00383*
Y0057*
X00388*
Y00551*
X00391Y00552*
X00398Y00556*
X004Y00559*
X004Y00559*
X00404Y00558*
X00742*
X00743Y00556*
X0075Y00552*
X00752Y00551*
Y0057*
Y0059*
X0075Y00589*
X00743Y00585*
X0074Y0058*
X00687*
X00684Y00585*
X00685Y0059*
X00684Y00596*
X0068Y00601*
X00675Y00605*
X00669Y00606*
X00663Y00605*
X00657Y00601*
X00657Y00601*
X00411*
X00368Y00644*
Y00672*
X00367Y00676*
X00364Y0068*
X00296Y00748*
Y00897*
X00368Y00969*
X0037Y00973*
X00371Y00977*
Y01261*
X00377Y01267*
X00382Y01268*
X00387Y01264*
X00393Y01263*
X00399Y01264*
X00405Y01268*
X00408Y01273*
X00409Y01279*
X00408Y01285*
X00405Y0129*
X00399Y01294*
X00393Y01295*
X00387Y01294*
X00382Y0129*
X00382Y0129*
X00374*
X00369Y01289*
X00366Y01287*
X00352Y01273*
X0035Y0127*
X00349Y01266*
Y01139*
X00344Y01137*
X00342Y01139*
X0034Y01141*
X00338Y01152*
X00333Y01163*
X00326Y01173*
X00316Y01181*
X00305Y01185*
X00292Y01187*
X0026*
Y0114*
Y01092*
X00292*
X00305Y01094*
X00316Y01099*
X00326Y01106*
X00328Y01109*
X00333Y01107*
Y01066*
X00328Y01064*
X00323Y0107*
X00314Y01077*
X00304Y01082*
X00292Y01083*
X00218*
X00207Y01082*
X00197Y01077*
X00188Y0107*
X00181Y01061*
X00177Y01051*
X00176Y01044*
X00157*
X00154Y01043*
X00151Y01045*
X00149Y01047*
Y01156*
X00154Y01158*
X00167Y01145*
X0025*
Y01187*
X00218*
X00206Y01185*
X00195Y01181*
X00185Y01173*
X00181Y01168*
X00176Y01168*
X00168Y01175*
Y01492*
X00169Y01492*
X00169Y01497*
Y01512*
X00231Y01573*
X00373*
X00375Y01568*
X00372Y01566*
X00368Y01561*
X00367Y01555*
X00368Y01548*
X00372Y01543*
X00375Y01541*
X00373Y01536*
X0029*
X00278Y01547*
X00279Y01548*
X00277Y01554*
X00274Y01559*
X00269Y01563*
X00262Y01564*
X00256Y01563*
X00251Y01559*
X00247Y01554*
X00246Y01548*
X00247Y01541*
X00251Y01536*
X00256Y01533*
X00262Y01531*
X00263Y01532*
X00277Y01517*
X00281Y01515*
X00285Y01514*
X00438*
X00454Y01497*
X00458Y01495*
X00462Y01494*
X00497*
X0051Y01481*
Y01456*
X00511Y01452*
X00513Y01448*
X00543Y01419*
X00544Y01418*
X00542Y01413*
X00541Y01413*
X00532Y01412*
X00523Y01408*
X00516Y01403*
X0051Y01395*
X00506Y01387*
X00505Y01377*
X00506Y01368*
X0051Y0136*
X00516Y01352*
X00523Y01346*
X0053Y01344*
Y01309*
X0053Y01304*
X00533Y01301*
X00537Y01296*
X00535Y01291*
X00532Y01291*
X00527Y01294*
X00521Y01295*
X00515Y01294*
X0051Y0129*
X00508Y01288*
X00503Y01289*
Y01318*
X00502Y01323*
X005Y01326*
X00478Y01348*
X00475Y0135*
X0047Y01351*
X00334*
Y01351*
X0033Y01361*
X00323Y0137*
X00314Y01377*
X00304Y01382*
X00292Y01383*
X00218*
X00207Y01382*
X00197Y01377*
X00188Y0137*
X00181Y01361*
X00177Y01351*
X00175Y0134*
X00177Y01328*
X00181Y01318*
X00188Y01309*
X00197Y01302*
X00207Y01298*
X00218Y01296*
X00292*
X003Y01297*
X00302Y01293*
X00293Y01283*
X00292Y01283*
X00218*
X00207Y01282*
X00197Y01277*
X00188Y0127*
X00181Y01261*
X00177Y01251*
X00175Y0124*
X00177Y01228*
X00181Y01218*
X00188Y01209*
X00197Y01202*
X00207Y01198*
X00218Y01196*
X00292*
X00304Y01198*
X00314Y01202*
X00323Y01209*
X0033Y01218*
X00334Y01228*
X00336Y0124*
X00334Y01251*
X0033Y01261*
X00323Y0127*
X0032Y01273*
X00319Y01278*
X00354Y01312*
X00433*
X00464Y01281*
Y01204*
X00465Y01199*
X00468Y01196*
X00526Y01137*
X0053Y01135*
X00534Y01134*
X00632*
X00635Y01129*
X00634Y01128*
X00633Y01122*
X00634Y01115*
X00638Y0111*
X00643Y01107*
X00649Y01105*
X00655Y01107*
X00661Y0111*
X00661Y0111*
X00797*
X00801Y01111*
X00805Y01114*
X00809Y01118*
X00823*
X00827Y01119*
X0083Y0112*
X01107*
X0113Y01097*
Y00644*
X01101Y00615*
X0108*
X0108Y00615*
X01075Y00619*
X01068Y0062*
X01062Y00619*
X01057Y00615*
X01053Y0061*
X01052Y00604*
X01053Y00598*
X01057Y00592*
X01062Y00589*
X01068Y00588*
X01075Y00589*
X0108Y00592*
X0108Y00593*
X01106*
X0111Y00593*
X01114Y00596*
X01145Y00627*
X0115Y00625*
Y00597*
X01147Y00595*
X01142Y00588*
X01142Y00585*
X0114Y00586*
Y00566*
Y00547*
X01143Y00548*
X0115Y00552*
X01154Y00559*
X01155Y00561*
X01156Y00561*
Y0058*
X01161*
Y00585*
X0118*
X0118Y00588*
X01175Y00595*
X01172Y00597*
Y01119*
X01171Y01123*
X01169Y01127*
X01112Y01184*
X01119Y01192*
X01121Y01191*
X01126Y01191*
Y01225*
X01092*
X01093Y01219*
X01097Y0121*
X01101Y01205*
X01091Y01196*
X01022*
Y01206*
X00972*
Y01184*
Y01163*
X01022*
Y01173*
X01091*
X01116Y01148*
X01116Y01147*
X01112Y01143*
X00836*
X00834Y01147*
X0091Y01223*
X00916*
Y01217*
X01018*
Y01252*
X00916*
Y01246*
X00906*
X00901Y01245*
X00898Y01242*
X00868Y01213*
X00863Y01214*
Y01271*
X00866Y01273*
X00916*
Y01267*
X01018*
Y01302*
X00916*
Y01296*
X00861*
X00857Y01295*
X00853Y01292*
X00852Y01291*
X00847Y01293*
Y01452*
X009Y01504*
X01103*
X01106Y015*
X01113Y01494*
X01122Y0149*
X01131Y01489*
X01141Y0149*
X01149Y01494*
X01157Y015*
X01162Y01507*
X01166Y01516*
X01167Y01525*
X01166Y01534*
X01162Y01543*
X01157Y0155*
X01149Y01556*
X01141Y0156*
X01131Y01561*
X01122Y0156*
X01113Y01556*
X01106Y0155*
X011Y01543*
X01097Y01534*
X01096Y01526*
X00895*
X00891Y01526*
X00887Y01523*
X00828Y01464*
X00826Y0146*
X00825Y01456*
Y01215*
X00806Y01196*
X00756*
Y01202*
X00654*
Y01202*
X00631*
X00631Y01202*
X00626Y01205*
X0062Y01207*
X00613Y01205*
X00608Y01202*
X00605Y01197*
X00603Y0119*
X00605Y01184*
X00608Y01179*
X00611Y01177*
X00609Y01172*
X00545*
X00525Y01192*
X00528Y01197*
X00532Y01195*
X00541Y01194*
X0055Y01195*
X00552Y01196*
X00555Y01194*
X00559Y01189*
X00564Y01185*
X0057Y01184*
X00577Y01185*
X00582Y01189*
X00585Y01194*
X00587Y012*
X00585Y01206*
X00582Y01212*
X00579Y01214*
X0058Y01219*
X00654*
Y01217*
X00756*
Y01252*
X00654*
Y01241*
X00575*
X00572Y01248*
X00566Y01255*
X00559Y01261*
X00554Y01263*
X00555Y01268*
X00585*
X00589Y01269*
X00593Y01271*
X00595Y01273*
X00654*
Y01267*
X00756*
Y01302*
X00654*
Y01296*
X0059*
X0057*
X00552Y01313*
Y01344*
X00559Y01346*
X00566Y01352*
X00572Y0136*
X00575Y01368*
X00577Y01377*
X00575Y01387*
X00572Y01395*
X00566Y01403*
X00559Y01408*
X00554Y0141*
X00555Y01415*
X00589*
Y01338*
X0059Y01334*
X00592Y0133*
X00594Y01328*
X00594Y01328*
X00595Y01322*
X00598Y01317*
X00604Y01313*
X0061Y01312*
X00616Y01313*
X00621Y01317*
X00625Y01322*
X00626Y01328*
X00629Y01327*
X00654*
Y01317*
X00756*
Y01352*
X00654*
Y01349*
X00634*
X00631Y01353*
Y01437*
X0063Y01441*
X00628Y01444*
X00618Y01454*
X00614Y01457*
X0061Y01458*
X00565*
X00552Y01471*
Y01491*
X00559Y01494*
X00566Y015*
X00572Y01507*
X00575Y01516*
X00577Y01525*
X00575Y01534*
X00572Y01543*
X00566Y0155*
X00559Y01556*
X0055Y0156*
X00541Y01561*
X00532Y0156*
X00523Y01556*
X00516Y0155*
X0051Y01543*
X00507Y01536*
X00477*
X0046Y01553*
X00457Y01555*
X00452Y01556*
X00399*
X00398Y01561*
X00395Y01566*
X00392Y01568*
X00393Y01573*
X00403*
X00407Y01574*
X00411Y01576*
X00481Y01646*
Y01662*
G37*
G36*
X01131Y01413D02*
X01122Y01412D01*
X01113Y01408*
X01106Y01403*
X011Y01395*
X01097Y01387*
X01096Y01377*
X01097Y01368*
X011Y01361*
X01078Y01339*
X01018*
Y01352*
X00916*
Y01317*
X01018*
Y01317*
X01082*
X01086Y01318*
X0109Y0132*
X01115Y01346*
X01122Y01343*
X01131Y01342*
X01141Y01343*
X01149Y01346*
X01157Y01352*
X01162Y0136*
X01166Y01368*
X01167Y01377*
X01166Y01387*
X01162Y01395*
X01157Y01403*
X01149Y01408*
X01141Y01412*
X01131Y01413*
G37*
G36*
X01136Y01269D02*
Y01235D01*
X01171*
X0117Y0124*
X01166Y0125*
X0116Y01258*
X01151Y01264*
X01142Y01268*
X01136Y01269*
G37*
G36*
X01126D02*
X01121Y01268D01*
X01111Y01264*
X01103Y01258*
X01097Y0125*
X01093Y0124*
X01092Y01235*
X01126*
Y01269*
G37*
G36*
X01171Y01225D02*
X01136D01*
Y01191*
X01142Y01191*
X01151Y01195*
X0116Y01202*
X01166Y0121*
X0117Y01219*
X01171Y01225*
G37*
G36*
X00962Y01206D02*
X00912D01*
Y01189*
X00962*
Y01206*
G37*
G36*
Y01179D02*
X00912D01*
Y01163*
X00962*
Y01179*
G37*
G36*
X0025Y01135D02*
X00172D01*
X00173Y01127*
X00177Y01116*
X00185Y01106*
X00195Y01099*
X00206Y01094*
X00218Y01092*
X0025*
Y01135*
G37*
G36*
X01Y0096D02*
X00555D01*
Y00673*
X01*
Y0096*
G37*
G36*
X0118Y00575D02*
X01166D01*
Y00561*
X01169Y00562*
X01175Y00566*
X0118Y00572*
X0118Y00575*
G37*
G36*
X00378Y00565D02*
X00364D01*
X00365Y00563*
X00369Y00556*
X00376Y00552*
X00378Y00551*
Y00565*
G37*
G36*
X00762Y0059D02*
Y0057D01*
Y00551*
X00765Y00552*
X00772Y00556*
X00774Y00559*
X01117*
X01117Y00559*
X01121Y00552*
X01128Y00548*
X0113Y00547*
Y00566*
Y00586*
X01128Y00585*
X01122Y00582*
X00774*
X00772Y00585*
X00765Y00589*
X00762Y0059*
G37*
G36*
X01013Y00478D02*
X01004Y00477D01*
X00995Y00473*
X00988Y00468*
X00982Y0046*
X00979Y00452*
X00977Y00442*
Y00383*
X00979Y00374*
X00982Y00365*
X00988Y00358*
X00995Y00352*
X01004Y00349*
X01013Y00348*
X01023Y00349*
X01031Y00352*
X01039Y00358*
X01044Y00365*
X01048Y00374*
X01049Y00383*
Y00442*
X01048Y00452*
X01044Y0046*
X01039Y00468*
X01031Y00473*
X01023Y00477*
X01013Y00478*
G37*
G36*
X0062D02*
X0061Y00477D01*
X00602Y00473*
X00594Y00468*
X00589Y0046*
X00585Y00452*
X00584Y00442*
Y00383*
X00585Y00374*
X00589Y00365*
X00594Y00358*
X00602Y00352*
X0061Y00349*
X0062Y00348*
X00629Y00349*
X00638Y00352*
X00645Y00358*
X00651Y00365*
X00654Y00374*
X00655Y00383*
Y00442*
X00654Y00452*
X00651Y0046*
X00645Y00468*
X00638Y00473*
X00629Y00477*
X0062Y00478*
G37*
G36*
X00236D02*
X00226Y00477D01*
X00218Y00473*
X0021Y00468*
X00205Y0046*
X00201Y00452*
X002Y00442*
Y00383*
X00201Y00374*
X00205Y00365*
X0021Y00358*
X00218Y00352*
X00226Y00349*
X00236Y00348*
X00245Y00349*
X00254Y00352*
X00261Y00358*
X00267Y00365*
X0027Y00374*
X00272Y00383*
Y00442*
X0027Y00452*
X00267Y0046*
X00261Y00468*
X00254Y00473*
X00245Y00477*
X00236Y00478*
G37*
G36*
X01013Y00222D02*
X01004Y00221D01*
X00995Y00218*
X00988Y00212*
X00982Y00204*
X00979Y00196*
X00977Y00187*
Y00127*
X00979Y00118*
X00982Y0011*
X00988Y00102*
X00995Y00096*
X01004Y00093*
X01013Y00092*
X01023Y00093*
X01031Y00096*
X01039Y00102*
X01044Y0011*
X01048Y00118*
X01049Y00127*
Y00187*
X01048Y00196*
X01044Y00204*
X01039Y00212*
X01031Y00218*
X01023Y00221*
X01013Y00222*
G37*
G36*
X0062D02*
X0061Y00221D01*
X00602Y00218*
X00594Y00212*
X00589Y00204*
X00585Y00196*
X00584Y00187*
Y00127*
X00585Y00118*
X00589Y0011*
X00594Y00102*
X00602Y00096*
X0061Y00093*
X0062Y00092*
X00629Y00093*
X00638Y00096*
X00645Y00102*
X00651Y0011*
X00654Y00118*
X00655Y00127*
Y00187*
X00654Y00196*
X00651Y00204*
X00645Y00212*
X00638Y00218*
X00629Y00221*
X0062Y00222*
G37*
G36*
X00236D02*
X00226Y00221D01*
X00218Y00218*
X0021Y00212*
X00205Y00204*
X00201Y00196*
X002Y00187*
Y00127*
X00201Y00118*
X00205Y0011*
X0021Y00102*
X00218Y00096*
X00226Y00093*
X00236Y00092*
X00245Y00093*
X00254Y00096*
X00261Y00102*
X00267Y0011*
X0027Y00118*
X00272Y00127*
Y00187*
X0027Y00196*
X00267Y00204*
X00261Y00212*
X00254Y00218*
X00245Y00221*
X00236Y00222*
G37*
%LNpcb1-3*%
%LPD*%
G36*
X00181Y01018D02*
X00188Y01009D01*
X00197Y01002*
X00207Y00998*
X00218Y00996*
X00292*
X00304Y00998*
X00314Y01002*
X00323Y01009*
X00328Y01015*
X00333Y01013*
Y00988*
X003Y00956*
X00246*
X00241Y00955*
X00238Y00952*
X00194Y00909*
X00127*
Y00821*
X002*
Y00811*
X00127*
Y00731*
X00123Y00729*
X00119Y00732*
Y00979*
X00145Y01005*
X00162Y01022*
X00179*
X00181Y01018*
G37*
G54D29*
X00137Y01013D02*
X00157Y01033D01*
X00108Y00984D02*
X00137Y01013D01*
X00157Y01515D02*
Y01515D01*
Y01515D02*
X00158Y01514D01*
Y01497D02*
Y01514D01*
X00157Y01496D02*
X00158Y01497D01*
X00157Y01171D02*
Y01496D01*
X00137Y01013D02*
Y01505D01*
X00967Y01334D02*
X00973Y01328D01*
X01082*
X01131Y01377*
X00699Y0119D02*
X00705Y01184D01*
X0062Y0119D02*
X00699D01*
X00649Y01122D02*
X00797D01*
X00804Y01129*
X00541Y01161D02*
X0081D01*
X00534Y01145D02*
X00816D01*
X00804Y01129D02*
X00823D01*
X00825Y01131*
X01112*
X01141Y01102*
Y00639D02*
Y01102D01*
X01106Y00604D02*
X01141Y00639D01*
X01068Y00604D02*
X01106D01*
X0059Y01284D02*
X00705D01*
X00565D02*
X0059D01*
X00585Y01279D02*
X0059Y01284D01*
X00521Y01279D02*
X00585D01*
X00374D02*
X00393D01*
X0036Y01266D02*
X00374Y01279D01*
X0036Y00977D02*
Y01266D01*
X00285Y00902D02*
X0036Y00977D01*
X00285Y00744D02*
Y00902D01*
Y00744D02*
X00356Y00672D01*
Y0064D02*
Y00672D01*
Y0064D02*
X00406Y0059D01*
X00669*
X00275Y00708D02*
X00324Y00659D01*
Y00452D02*
Y00659D01*
X00404Y00569D02*
X00756D01*
X00757Y0057*
X00403D02*
X00404Y00569D01*
X00285Y0057D02*
Y00669D01*
X00262Y00692D02*
X00285Y00669D01*
X00121Y00692D02*
X00262D01*
X00092Y00721D02*
X00121Y00692D01*
X00092Y00721D02*
Y0099D01*
X00108Y01006*
Y01033*
X00541Y0123D02*
X0057Y012D01*
X00492Y0121D02*
X00541Y01161D01*
X0081D02*
X00852Y01204D01*
X00476D02*
X00534Y01145D01*
X00816D02*
X00906Y01234D01*
X00188Y0114D02*
X00255D01*
X00157Y01171D02*
X00188Y0114D01*
X00157Y01515D02*
X00226Y01584D01*
X00403*
X00486Y01667*
X00285Y01525D02*
X00442D01*
X00262Y01548D02*
X00285Y01525D01*
X00906Y01234D02*
X00967D01*
X00476Y01204D02*
Y01285D01*
X00437Y01324D02*
X00476Y01285D01*
X00349Y01324D02*
X00437D01*
X00265Y0124D02*
X00349Y01324D01*
X00255Y0124D02*
X00265D01*
X00255Y0134D02*
X0047D01*
X00492Y01318*
Y0121D02*
Y01318D01*
X00852Y01204D02*
Y01275D01*
X00861Y01284*
X00967*
X01122Y01515D02*
X01131Y01525D01*
X00895Y01515D02*
X01122D01*
X00836Y01456D02*
X00895Y01515D01*
X00836Y0121D02*
Y01456D01*
X0081Y01184D02*
X00836Y0121D01*
X00705Y01184D02*
X0081D01*
X01348Y00822D02*
X01354Y00816D01*
X01348Y00822D02*
Y01299D01*
X006Y01338D02*
X0061Y01328D01*
X00629Y01338D02*
X00701D01*
X0062Y01348D02*
X00629Y01338D01*
X0062Y01348D02*
Y01437D01*
X0061Y01446D02*
X0062Y01437D01*
X006Y01338D02*
Y01427D01*
X00551D02*
X006D01*
X00521Y01456D02*
X00551Y01427D01*
X00521Y01456D02*
Y01486D01*
X00501Y01505D02*
X00521Y01486D01*
X00462Y01505D02*
X00501D01*
X00442Y01525D02*
X00462Y01505D01*
X0119Y00285D02*
Y00413D01*
Y00157D02*
Y00285D01*
X00797D02*
X0119D01*
X00797D02*
Y00413D01*
Y00157D02*
Y00285D01*
X00413D02*
Y00413D01*
Y00157D02*
Y00285D01*
X00797*
X00383Y0057D02*
X00403D01*
X0034Y00633D02*
X00403Y0057D01*
X002Y00773D02*
Y00816D01*
Y00773D02*
X00249Y00724D01*
X00282*
X0034Y00666*
Y00633D02*
Y00666D01*
X002Y00816D02*
Y00899D01*
X00246Y00944*
X00305*
X00344Y00984*
Y01122*
X00334Y01131D02*
X00344Y01122D01*
X00264Y01131D02*
X00334D01*
X00255Y0114D02*
X00264Y01131D01*
X00249Y01033D02*
X00255Y0104D01*
X00157Y01033D02*
X00249D01*
X00108Y00728D02*
Y00984D01*
Y00728D02*
X00127Y00708D01*
X00275*
X00324Y00452D02*
X00354Y00423D01*
X00403*
X00413Y00413*
X00757Y0057D02*
X01131D01*
X01135Y00566*
X01161Y0058D02*
Y01119D01*
X01096Y01184D02*
X01161Y01119D01*
X00967Y01184D02*
X01096D01*
X01131Y0122D02*
Y0123D01*
X01096Y01184D02*
X01131Y0122D01*
X007Y0123D02*
X00705Y01234D01*
X00541Y0123D02*
X007D01*
X00541Y01309D02*
Y01377D01*
Y01309D02*
X00565Y01284D01*
X00383Y01555D02*
X00393Y01545D01*
X00452*
X00472Y01525*
X00541*
Y01466D02*
Y01525D01*
Y01466D02*
X00561Y01446D01*
X0061*
X00701Y01338D02*
X00705Y01334D01*
G54D30*
X00255Y0104D03*
Y0114D03*
Y0124D03*
Y0134D03*
G54D31*
X00236Y01692D03*
X00354D03*
G54D32*
X00797Y00413D03*
Y00157D03*
X0062Y00413D03*
Y00157D03*
X00236D03*
Y00413D03*
X00413Y00157D03*
Y00413D03*
X0119D03*
Y00157D03*
X01013Y00413D03*
Y00157D03*
G54D33*
X00137Y01505D03*
X0062Y0119D03*
X00649Y01122D03*
X01068Y00604D03*
X00521Y01279D03*
X00393D03*
X00669Y0059D03*
X00285Y0057D03*
X00108Y01033D03*
X0057Y012D03*
X00486Y01667D03*
X01348Y01299D03*
X0061Y01328D03*
X00262Y01548D03*
X00383Y0057D03*
X00757D03*
X01135Y00566D03*
X01161Y0058D03*
X00383Y01555D03*
G54D34*
X01131Y01377D03*
X00541Y01525D03*
Y01377D03*
Y0123D03*
X01131Y01525D03*
G54D35*
X01131Y0123D03*
G54D36*
X01354Y00816D03*
X002D03*
G54D37*
X00777Y00816D03*
G54D38*
X00705Y01184D03*
Y01234D03*
Y01334D03*
X00967Y01184D03*
Y01234D03*
Y01334D03*
X00705Y01284D03*
X00967D03*
M02*