%FSTAX23Y23*%
%MOIN*%
%SFA1B1*%

%IPPOS*%
%ADD15C,0.010000*%
%ADD28C,0.008000*%
%ADD29C,0.007870*%
%ADD30C,0.005000*%
%ADD31R,0.015740X0.023620*%
%LNpcb1-1*%
%LPD*%
G36*
X0087Y01435D02*
X00857D01*
Y01397*
X00851*
Y01435*
X00838*
Y0144*
X0087*
Y01435*
G37*
G36*
X0078Y0144D02*
X00781D01*
X00782Y0144*
X00783Y0144*
X00784Y01439*
X00785Y01439*
X00785*
X00786Y01439*
X00786Y01439*
X00787Y01439*
X00787Y01438*
X00788Y01438*
X00789Y01437*
X00789Y01437*
X0079Y01437*
X0079Y01437*
X0079Y01436*
X0079Y01436*
X00791Y01435*
X00791Y01435*
X00792Y01434*
X00792Y01433*
X00792Y01433*
X00792Y01433*
X00792Y01433*
X00792Y01432*
X00793Y01431*
X00793Y0143*
X00793Y0143*
Y01429*
Y01429*
Y01428*
Y01428*
X00793Y01427*
X00793Y01427*
X00793Y01426*
X00792Y01425*
Y01425*
X00792Y01425*
X00792Y01424*
X00792Y01424*
X00791Y01423*
X0079Y01422*
X0079Y01422*
X0079Y01421*
X0079Y01421*
X0079Y01421*
X00789Y0142*
X00789Y0142*
X00788Y01419*
X00787Y01419*
X00787Y01419*
X00787Y01419*
X00786Y01419*
X00786Y01418*
X00785Y01418*
X00785Y01418*
X00784Y01418*
X00784*
X00784Y01417*
X00784Y01417*
X00785Y01417*
X00785Y01417*
X00786Y01416*
X00786Y01416*
X00787Y01415*
X00787Y01415*
X00787Y01415*
X00787Y01415*
X00787Y01414*
X00788Y01414*
X00788Y01413*
X00789Y01412*
X00789Y01411*
X00796Y01397*
X00789*
X00783Y01411*
Y01411*
X00783Y01411*
X00783Y01411*
X00783Y01412*
X00782Y01413*
X00782Y01413*
Y01414*
X00781Y01414*
X00781Y01414*
X00781Y01415*
X0078Y01415*
X0078Y01415*
X00779Y01415*
X00779Y01416*
X00778Y01416*
X00778*
X00778Y01416*
X00778*
X00777Y01416*
X00777Y01416*
X00776Y01416*
X00773*
Y01397*
X00767*
Y0144*
X00779*
X0078Y0144*
G37*
G36*
X0082Y01441D02*
X00821Y0144D01*
X00821*
X00822Y0144*
X00823Y0144*
X00824Y0144*
X00824*
X00824Y0144*
X00824*
X00825Y0144*
X00826Y0144*
X00826*
X00827Y0144*
X00827Y0144*
X00828Y01439*
X00828Y01439*
Y01434*
X00828*
X00828Y01434*
X00828Y01434*
X00827Y01434*
X00826Y01435*
X00825Y01435*
X00823Y01435*
X00823*
X00823Y01435*
X00822Y01435*
X00822Y01435*
X00821*
X0082Y01435*
X00818Y01436*
X00818*
X00817Y01435*
X00816Y01435*
X00814Y01435*
X00813Y01435*
X00812Y01434*
X00811Y01434*
X00811Y01434*
X00811Y01434*
X0081Y01433*
X0081Y01433*
X0081Y01432*
X00809Y01431*
X00809Y0143*
X00809Y01429*
Y01429*
Y01429*
X00809Y01429*
X00809Y01428*
X00809Y01427*
X00809Y01427*
X0081Y01426*
X0081Y01426*
X0081Y01426*
X0081Y01426*
X0081Y01426*
X00811Y01425*
X00812Y01424*
X00812Y01424*
X00813Y01424*
X00813Y01424*
X00813Y01424*
X00814Y01423*
X00814Y01423*
X00816Y01422*
X00816*
X00816Y01422*
X00817Y01422*
X00817Y01422*
X00818Y01422*
X00818Y01421*
X0082Y01421*
X0082*
X0082Y0142*
X00821Y0142*
X00821Y0142*
X00822Y0142*
X00823Y01419*
X00824Y01419*
X00824Y01419*
X00824Y01419*
X00825Y01418*
X00825Y01418*
X00826Y01417*
X00828Y01416*
X00828Y01416*
X00828Y01416*
X00828Y01416*
X00829Y01415*
X00829Y01415*
X00829Y01414*
X0083Y01413*
X0083Y01413*
X0083Y01413*
X00831Y01412*
X00831Y01412*
X00831Y01411*
X00831Y01411*
X00831Y0141*
X00831Y01409*
Y01409*
Y01408*
X00831Y01408*
X00831Y01407*
X00831Y01406*
X00831Y01405*
X0083Y01404*
X0083Y01403*
X0083Y01403*
X0083Y01403*
X00829Y01403*
X00829Y01402*
X00829Y01401*
X00828Y01401*
X00827Y014*
X00826Y014*
X00826Y01399*
X00826Y01399*
X00826Y01399*
X00825Y01399*
X00824Y01398*
X00823Y01398*
X00822Y01398*
X00821Y01397*
X00821*
X00821Y01397*
X0082Y01397*
X00819Y01397*
X00818Y01397*
X00817Y01397*
X00816Y01397*
X00813*
X00813Y01397*
X00812*
X00811Y01397*
X0081*
X0081Y01397*
X0081*
X00809Y01397*
X00808Y01397*
X00807*
X00807Y01397*
X00807Y01397*
X00806Y01397*
X00805Y01397*
X00805*
X00804Y01398*
X00804Y01398*
X00804Y01398*
X00803Y01398*
X00802Y01398*
Y01404*
X00802Y01404*
X00803Y01404*
X00803Y01403*
X00804Y01403*
X00805Y01403*
X00805Y01403*
X00807Y01402*
X00808Y01402*
X00808*
X00808Y01402*
X00809Y01402*
X0081Y01402*
X00811Y01402*
X00812Y01402*
X00813Y01402*
X00816*
X00816Y01402*
X00817*
X00818Y01402*
X00819Y01402*
X00819Y01402*
X0082*
X0082Y01402*
X0082Y01402*
X00821Y01402*
X00822Y01403*
X00823Y01403*
X00823Y01403*
X00823Y01404*
X00823Y01404*
X00824Y01405*
X00825Y01406*
Y01406*
X00825Y01406*
X00825Y01406*
X00825Y01406*
X00825Y01407*
X00825Y01408*
Y01408*
Y01409*
X00825Y01409*
X00825Y01409*
X00825Y0141*
X00824Y01411*
X00824Y01411*
X00824Y01411*
X00824Y01412*
X00824Y01412*
X00823Y01412*
X00823Y01413*
X00822Y01414*
X00821Y01414*
X00821Y01414*
X00821Y01414*
X00821Y01414*
X0082Y01414*
X00819Y01415*
X00818Y01415*
X00818Y01415*
X00818Y01415*
X00817Y01416*
X00817Y01416*
X00816Y01416*
X00815Y01416*
X00814Y01417*
X00814Y01417*
X00813Y01417*
X00813Y01417*
X00813Y01417*
X00812Y01418*
X00811Y01418*
X0081Y01419*
X0081Y01419*
X00809Y01419*
X00809Y01419*
X00809Y01419*
X00807Y0142*
X00806Y01421*
X00806Y01421*
X00806Y01421*
X00806Y01422*
X00805Y01422*
X00805Y01423*
X00804Y01423*
X00804Y01424*
Y01424*
X00803Y01425*
X00803Y01425*
X00803Y01426*
X00803Y01426*
X00803Y01427*
X00803Y01428*
X00803Y01429*
Y01429*
Y01429*
X00803Y0143*
Y0143*
X00803Y01431*
X00803Y01431*
X00803Y01432*
X00804Y01433*
X00804Y01433*
X00804Y01433*
X00804Y01434*
X00804Y01434*
X00805Y01435*
X00805Y01436*
X00806Y01436*
X00806Y01437*
X00806Y01437*
X00807Y01437*
X00807Y01437*
X00808Y01438*
X00808Y01438*
X00809Y01439*
X0081Y01439*
X00811Y0144*
X00812Y0144*
X00812Y0144*
X00813Y0144*
X00813Y0144*
X00815Y0144*
X00816Y0144*
X00817Y01441*
X00819Y01441*
X00819*
X0082Y01441*
G37*
G36*
X00825Y01381D02*
X00825Y01381D01*
X00826Y01381*
X00828Y01381*
X00828*
X00829Y01381*
X00829Y01381*
X0083Y01381*
X00831Y0138*
X00831Y0138*
X00833Y01379*
Y01374*
X00833Y01374*
X00833Y01374*
X00832Y01374*
X00832Y01374*
X00831Y01375*
X0083Y01375*
X00828Y01376*
X00828*
X00828Y01376*
X00827Y01376*
X00827Y01376*
X00826Y01376*
X00825Y01376*
X00824Y01376*
X00822*
X00822Y01376*
X00821Y01376*
X0082Y01376*
X00819Y01376*
X00818Y01375*
X00817Y01375*
X00817Y01375*
X00817Y01375*
X00817Y01375*
X00816Y01374*
X00815Y01374*
X00815Y01373*
X00814Y01373*
X00813Y01372*
X00813Y01372*
X00813Y01371*
X00813Y01371*
X00812Y0137*
X00812Y0137*
X00811Y01369*
X00811Y01368*
X00811Y01367*
Y01366*
X0081Y01366*
X0081Y01365*
X0081Y01365*
X0081Y01364*
X0081Y01362*
X0081Y01361*
X0081Y0136*
Y01359*
Y01359*
Y01359*
X0081Y01358*
Y01357*
X0081Y01357*
X0081Y01356*
X0081Y01355*
X00811Y01353*
X00811Y01351*
X00812Y01349*
X00813Y01348*
X00813Y01347*
X00813Y01347*
X00813Y01347*
X00814Y01347*
X00814Y01346*
X00814Y01346*
X00815Y01346*
X00815Y01345*
X00816Y01345*
X00817Y01344*
X00819Y01343*
X00821Y01343*
X00822Y01343*
X00823Y01343*
X00824*
X00825Y01343*
X00826Y01343*
X00826Y01343*
X00828Y01343*
X00828*
X00829Y01344*
X00829Y01344*
X0083Y01344*
X00831Y01344*
X00831Y01344*
X00833Y01345*
Y0134*
X00833*
X00833Y0134*
X00833Y01339*
X00832Y01339*
X00832Y01339*
X00831Y01339*
X00831Y01339*
X0083Y01339*
X00828Y01338*
X00826Y01338*
X00824Y01338*
X00822Y01338*
X00822*
X00821Y01338*
X0082Y01338*
X00819Y01338*
X00818Y01338*
X00817Y01338*
X00816Y01338*
X00815Y01339*
X00814Y01339*
X00813Y0134*
X00811Y0134*
X0081Y01341*
X00809Y01342*
X00808Y01343*
X00808Y01343*
X00808Y01343*
X00808Y01343*
X00808Y01344*
X00807Y01345*
X00807Y01345*
X00806Y01346*
X00806Y01347*
X00806Y01348*
X00805Y01349*
X00805Y01351*
X00804Y01352*
X00804Y01354*
X00804Y01355*
X00804Y01357*
X00804Y01359*
Y01359*
Y01359*
Y0136*
Y0136*
X00804Y0136*
Y01361*
X00804Y01362*
X00804Y01364*
X00804Y01365*
X00804Y01367*
X00805Y01368*
Y01368*
X00805Y01368*
X00805Y01369*
X00805Y01369*
X00805Y0137*
X00806Y01371*
X00806Y01372*
X00807Y01373*
X00808Y01374*
X00809Y01375*
X00809Y01375*
X00809Y01376*
X0081Y01376*
X0081Y01377*
X00811Y01378*
X00812Y01378*
X00813Y01379*
X00815Y0138*
X00815*
X00815Y0138*
X00815Y0138*
X00816Y0138*
X00817Y01381*
X00818Y01381*
X0082Y01381*
X00821Y01381*
X00823Y01381*
X00824*
X00825Y01381*
G37*
G36*
X00854Y01361D02*
X00872Y01338D01*
X00865*
X00848Y01359*
Y01338*
X00843*
Y01381*
X00848*
Y01361*
X00864Y01381*
X00871*
X00854Y01361*
G37*
G36*
X00865Y015D02*
X00866Y01499D01*
X00867Y01499*
X00869Y01499*
X00869*
X00869Y01499*
X0087Y01499*
X0087Y01499*
X00871Y01498*
X00872Y01498*
X00874Y01498*
Y01492*
X00874Y01492*
X00873Y01492*
X00873Y01492*
X00872Y01492*
X00871Y01493*
X00871Y01493*
X00869Y01494*
X00869*
X00868Y01494*
X00868Y01494*
X00867Y01494*
X00866Y01494*
X00865Y01494*
X00864Y01494*
X00863*
X00862Y01494*
X00862Y01494*
X00861Y01494*
X0086Y01494*
X00859Y01494*
X00858Y01493*
X00858Y01493*
X00858Y01493*
X00857Y01493*
X00856Y01492*
X00856Y01492*
X00855Y01491*
X00854Y01491*
X00854Y0149*
X00854Y0149*
X00853Y0149*
X00853Y01489*
X00853Y01488*
X00852Y01488*
X00852Y01487*
X00851Y01486*
X00851Y01485*
Y01485*
X00851Y01484*
X00851Y01484*
X00851Y01483*
X00851Y01482*
X0085Y0148*
X0085Y01479*
X0085Y01478*
Y01478*
Y01477*
Y01477*
X0085Y01476*
Y01476*
X0085Y01475*
X00851Y01474*
X00851Y01473*
X00851Y01471*
X00852Y01469*
X00853Y01467*
X00853Y01466*
X00854Y01465*
X00854Y01465*
X00854Y01465*
X00854Y01465*
X00854Y01464*
X00855Y01464*
X00855Y01464*
X00856Y01463*
X00856Y01463*
X00858Y01462*
X00859Y01462*
X00861Y01461*
X00862Y01461*
X00864Y01461*
X00865*
X00865Y01461*
X00866Y01461*
X00867Y01461*
X00869Y01461*
X00869*
X00869Y01462*
X0087Y01462*
X0087Y01462*
X00871Y01462*
X00872Y01463*
X00874Y01463*
Y01458*
X00874*
X00873Y01458*
X00873Y01458*
X00873Y01458*
X00872Y01457*
X00872Y01457*
X00871Y01457*
X0087Y01457*
X00869Y01456*
X00867Y01456*
X00865Y01456*
X00863Y01456*
X00862*
X00861Y01456*
X00861Y01456*
X0086Y01456*
X00859Y01456*
X00858Y01456*
X00857Y01457*
X00855Y01457*
X00854Y01457*
X00853Y01458*
X00852Y01459*
X00851Y01459*
X0085Y0146*
X00849Y01461*
X00849Y01461*
X00849Y01461*
X00848Y01462*
X00848Y01462*
X00848Y01463*
X00847Y01463*
X00847Y01464*
X00846Y01465*
X00846Y01466*
X00846Y01467*
X00845Y01469*
X00845Y0147*
X00844Y01472*
X00844Y01473*
X00844Y01475*
X00844Y01477*
Y01477*
Y01477*
Y01478*
Y01478*
X00844Y01478*
Y01479*
X00844Y0148*
X00844Y01482*
X00845Y01483*
X00845Y01485*
X00845Y01486*
Y01486*
X00845Y01487*
X00845Y01487*
X00846Y01487*
X00846Y01488*
X00846Y01489*
X00847Y0149*
X00848Y01491*
X00848Y01492*
X00849Y01493*
X00849Y01494*
X0085Y01494*
X0085Y01494*
X00851Y01495*
X00852Y01496*
X00853Y01497*
X00854Y01497*
X00855Y01498*
X00855*
X00855Y01498*
X00856Y01498*
X00857Y01499*
X00858Y01499*
X00859Y01499*
X0086Y01499*
X00862Y015*
X00863Y015*
X00864*
X00865Y015*
G37*
G36*
X00835Y01515D02*
X00827D01*
X00815Y01542*
X00812Y01551*
Y01529*
Y01515*
X00806*
Y01558*
X00814*
X00825Y01533*
X00829Y01523*
Y01546*
Y01558*
X00835*
Y01515*
G37*
G36*
X00855Y01558D02*
X00856Y01558D01*
X00857Y01558*
X00858Y01558*
X00859Y01557*
X00862Y01557*
X00863Y01556*
X00864Y01556*
X00865Y01555*
X00866Y01555*
X00868Y01554*
X00869Y01553*
X00869Y01553*
X00869Y01553*
X00869Y01552*
X00869Y01552*
X0087Y01551*
X0087Y01551*
X00871Y0155*
X00871Y01549*
X00872Y01548*
X00872Y01547*
X00872Y01546*
X00873Y01544*
X00873Y01543*
X00873Y01541*
X00873Y01539*
X00874Y01537*
Y01537*
Y01537*
Y01536*
X00873Y01535*
X00873Y01534*
X00873Y01533*
X00873Y01531*
Y01531*
X00873Y01531*
X00873Y0153*
X00873Y0153*
X00872Y01529*
X00872Y01528*
X00871Y01526*
X00871Y01526*
X00871Y01526*
X00871Y01525*
X00871Y01524*
X0087Y01524*
X0087Y01523*
X00869Y01522*
X00869Y01521*
X00868Y01521*
X00868Y01521*
X00868Y0152*
X00867Y0152*
X00866Y01519*
X00866Y01519*
X00865Y01518*
X00865Y01518*
X00864Y01518*
X00864Y01518*
X00863Y01517*
X00862Y01517*
X00861Y01517*
X0086Y01516*
X00859Y01516*
X00859*
X00858Y01516*
X00858Y01516*
X00857Y01516*
X00856Y01515*
X00855Y01515*
X00853Y01515*
X00843*
Y01558*
X00855*
X00855Y01558*
G37*
G36*
X00789Y01559D02*
X0079Y01559D01*
X00791Y01558*
X00793Y01558*
X00793*
X00793Y01558*
X00794Y01558*
X00795Y01558*
X00795Y01558*
X00796Y01557*
X00798Y01557*
Y01551*
X00798Y01551*
X00798Y01551*
X00797Y01551*
X00796Y01552*
X00796Y01552*
X00795Y01552*
X00793Y01553*
X00793*
X00793Y01553*
X00792Y01553*
X00791Y01553*
X00791Y01553*
X0079Y01553*
X00789Y01553*
X00787*
X00786Y01553*
X00786Y01553*
X00785Y01553*
X00784Y01553*
X00783Y01553*
X00781Y01552*
X00781Y01552*
X00781Y01552*
X00781Y01552*
X0078Y01551*
X00779Y01551*
X00778Y0155*
X00778Y0155*
X00777Y01549*
X00777Y01549*
X00777Y01548*
X00776Y01548*
X00776Y01547*
X00776Y01547*
X00775Y01546*
X00775Y01545*
X00774Y01543*
Y01543*
X00774Y01543*
X00774Y01542*
X00774Y01541*
X00774Y0154*
X00773Y01539*
X00773Y01538*
X00773Y01537*
Y01537*
Y01536*
Y01536*
Y01536*
X00773Y01535*
Y01534*
X00773Y01533*
X00774Y01532*
X00774Y01531*
X00774Y01529*
X00774Y01529*
X00774Y01529*
X00774Y01528*
X00775Y01528*
X00775Y01527*
X00775Y01526*
X00776Y01525*
X00777Y01524*
X00777Y01524*
X00777Y01524*
X00777Y01523*
X00778Y01523*
X00778Y01522*
X00779Y01522*
X0078Y01521*
X00781Y01521*
X00781Y01521*
X00781Y01521*
X00782Y01521*
X00783Y0152*
X00784Y0152*
X00785Y0152*
X00786Y0152*
X00787Y0152*
X00788*
X00789Y0152*
X00789*
X0079Y0152*
X0079*
X0079Y0152*
X00791Y0152*
X00791Y0152*
X00791*
X00792Y0152*
X00792Y0152*
X00792Y01521*
Y01534*
X00784*
Y01539*
X00798*
Y01517*
X00798*
X00798Y01517*
X00798Y01517*
X00797Y01517*
X00796Y01516*
X00795Y01516*
X00795*
X00795Y01516*
X00795Y01516*
X00794Y01516*
X00793Y01515*
X00792Y01515*
X00792*
X00792Y01515*
X00791Y01515*
X0079Y01515*
X00789Y01515*
X00789*
X00789Y01515*
X00788*
X00787Y01515*
X00786Y01515*
X00786*
X00785Y01515*
X00784Y01515*
X00782Y01515*
X00781Y01515*
X0078Y01515*
X00778Y01516*
X00778Y01516*
X00778Y01516*
X00777Y01517*
X00776Y01517*
X00775Y01518*
X00774Y01518*
X00773Y01519*
X00772Y0152*
X00772Y0152*
X00772Y0152*
X00771Y01521*
X00771Y01522*
X0077Y01523*
X0077Y01524*
X00769Y01525*
X00769Y01527*
Y01527*
X00768Y01527*
X00768Y01527*
X00768Y01527*
X00768Y01528*
X00768Y01528*
X00768Y01529*
X00768Y01531*
X00767Y01532*
X00767Y01534*
X00767Y01536*
Y01536*
Y01536*
Y01537*
Y01537*
X00767Y01538*
Y01538*
X00767Y01539*
X00768Y01541*
X00768Y01542*
X00768Y01544*
X00769Y01546*
Y01546*
X00769Y01546*
X00769Y01546*
X00769Y01546*
X00769Y01547*
X0077Y01548*
X0077Y01549*
X00771Y0155*
X00772Y01552*
X00773Y01553*
X00773Y01553*
X00773Y01553*
X00774Y01554*
X00775Y01554*
X00776Y01555*
X00777Y01556*
X00778Y01557*
X00779Y01557*
X00779*
X00779Y01557*
X0078Y01557*
X0078Y01557*
X00781Y01558*
X00782Y01558*
X00783Y01558*
X00784Y01558*
X00786Y01559*
X00787Y01559*
X00789*
X00789Y01559*
G37*
G36*
X00828Y015D02*
X00829Y01499D01*
X0083Y01499*
X00832Y01499*
X00832*
X00832Y01499*
X00833Y01499*
X00833Y01499*
X00834Y01498*
X00835Y01498*
X00837Y01498*
Y01492*
X00837Y01492*
X00836Y01492*
X00836Y01492*
X00835Y01492*
X00834Y01493*
X00834Y01493*
X00832Y01494*
X00832*
X00831Y01494*
X00831Y01494*
X0083Y01494*
X00829Y01494*
X00829Y01494*
X00828Y01494*
X00826*
X00825Y01494*
X00825Y01494*
X00824Y01494*
X00823Y01494*
X00822Y01494*
X00821Y01493*
X00821Y01493*
X00821Y01493*
X0082Y01493*
X0082Y01492*
X00819Y01492*
X00818Y01491*
X00817Y01491*
X00817Y0149*
X00817Y0149*
X00816Y0149*
X00816Y01489*
X00816Y01488*
X00815Y01488*
X00815Y01487*
X00815Y01486*
X00814Y01485*
Y01485*
X00814Y01484*
X00814Y01484*
X00814Y01483*
X00814Y01482*
X00813Y0148*
X00813Y01479*
X00813Y01478*
Y01478*
Y01477*
Y01477*
X00813Y01476*
Y01476*
X00813Y01475*
X00814Y01474*
X00814Y01473*
X00814Y01471*
X00815Y01469*
X00816Y01467*
X00816Y01466*
X00817Y01465*
X00817Y01465*
X00817Y01465*
X00817Y01465*
X00817Y01464*
X00818Y01464*
X00818Y01464*
X00819Y01463*
X00819Y01463*
X00821Y01462*
X00822Y01462*
X00824Y01461*
X00825Y01461*
X00827Y01461*
X00828*
X00828Y01461*
X00829Y01461*
X0083Y01461*
X00832Y01461*
X00832*
X00832Y01462*
X00833Y01462*
X00833Y01462*
X00834Y01462*
X00835Y01463*
X00837Y01463*
Y01458*
X00837*
X00836Y01458*
X00836Y01458*
X00836Y01458*
X00835Y01457*
X00835Y01457*
X00834Y01457*
X00833Y01457*
X00832Y01456*
X0083Y01456*
X00828Y01456*
X00826Y01456*
X00825*
X00824Y01456*
X00824Y01456*
X00823Y01456*
X00822Y01456*
X00821Y01456*
X0082Y01457*
X00818Y01457*
X00817Y01457*
X00816Y01458*
X00815Y01459*
X00814Y01459*
X00813Y0146*
X00812Y01461*
X00812Y01461*
X00812Y01461*
X00811Y01462*
X00811Y01462*
X00811Y01463*
X0081Y01463*
X0081Y01464*
X0081Y01465*
X00809Y01466*
X00809Y01467*
X00808Y01469*
X00808Y0147*
X00808Y01472*
X00807Y01473*
X00807Y01475*
X00807Y01477*
Y01477*
Y01477*
Y01478*
Y01478*
X00807Y01478*
Y01479*
X00807Y0148*
X00807Y01482*
X00808Y01483*
X00808Y01485*
X00808Y01486*
Y01486*
X00808Y01487*
X00809Y01487*
X00809Y01487*
X00809Y01488*
X00809Y01489*
X0081Y0149*
X00811Y01491*
X00811Y01492*
X00812Y01493*
X00812Y01494*
X00813Y01494*
X00813Y01494*
X00814Y01495*
X00815Y01496*
X00816Y01497*
X00817Y01497*
X00818Y01498*
X00818*
X00818Y01498*
X00819Y01498*
X0082Y01499*
X00821Y01499*
X00822Y01499*
X00823Y01499*
X00825Y015*
X00826Y015*
X00827*
X00828Y015*
G37*
G36*
X00789Y01456D02*
X00782D01*
X00767Y01499*
X00774*
X00783Y0147*
X00786Y01462*
X00788Y0147*
X00798Y01499*
X00804*
X00789Y01456*
G37*
G36*
X00823Y01273D02*
X00824Y01273D01*
X00825Y01273*
X00826Y01273*
X00827Y01272*
X00829Y01272*
X00829Y01272*
X00829Y01271*
X0083Y01271*
X0083Y01271*
X00831Y0127*
X00832Y01269*
X00833Y01268*
X00834Y01267*
X00834Y01267*
X00834Y01267*
X00834Y01266*
X00835Y01265*
X00835Y01264*
X00836Y01263*
X00836Y01262*
X00837Y01261*
Y0126*
X00837Y0126*
Y0126*
X00837Y0126*
X00837Y01259*
X00837Y01258*
X00837Y01257*
X00838Y01255*
X00838Y01253*
X00838Y01251*
Y01251*
Y01251*
Y01251*
Y0125*
X00838Y0125*
Y01249*
X00838Y01248*
X00837Y01246*
X00837Y01245*
X00837Y01243*
X00836Y01241*
Y01241*
X00836Y01241*
X00836Y01241*
X00836Y01241*
X00836Y0124*
X00835Y01239*
X00835Y01238*
X00834Y01237*
X00833Y01236*
X00833Y01235*
X00833Y01234*
X00832Y01234*
X00832Y01234*
X00831Y01233*
X0083Y01232*
X00829Y01232*
X00828Y01231*
X00827Y01231*
X00827Y0123*
X00827Y0123*
X00826Y0123*
X00825Y0123*
X00824Y0123*
X00823Y01229*
X00822Y01229*
X00821Y01229*
X0082*
X00819Y01229*
X00818Y01229*
X00817Y0123*
X00816Y0123*
X00815Y0123*
X00813Y01231*
X00813Y01231*
X00813Y01231*
X00812Y01231*
X00812Y01232*
X00811Y01232*
X0081Y01233*
X00809Y01234*
X00808Y01235*
X00808Y01235*
X00808Y01236*
X00808Y01236*
X00807Y01237*
X00807Y01238*
X00806Y01239*
X00806Y0124*
X00805Y01242*
Y01242*
Y01242*
X00805Y01242*
X00805Y01242*
X00805Y01243*
X00805Y01243*
X00805Y01244*
X00805Y01246*
X00805Y01247*
X00804Y01249*
X00804Y01251*
Y01251*
Y01251*
Y01252*
Y01252*
X00804Y01252*
Y01253*
X00805Y01254*
X00805Y01256*
X00805Y01258*
X00805Y01259*
X00806Y01261*
Y01261*
X00806Y01261*
X00806Y01261*
X00806Y01262*
X00806Y01262*
X00807Y01263*
X00807Y01264*
X00808Y01266*
X00809Y01267*
X00809Y01268*
X00809Y01268*
X0081Y01268*
X0081Y01269*
X00811Y01269*
X00812Y0127*
X00813Y01271*
X00814Y01271*
X00815Y01272*
X00815Y01272*
X00815Y01272*
X00816Y01272*
X00817Y01273*
X00818Y01273*
X00819Y01273*
X0082Y01273*
X00821Y01273*
X00822*
X00823Y01273*
G37*
G36*
X00861Y01322D02*
X00862Y01322D01*
X00862*
X00863Y01322*
X00864Y01322*
X00864Y01322*
X00865*
X00865Y01322*
X00865*
X00866Y01322*
X00867Y01322*
X00867*
X00867Y01322*
X00868Y01322*
X00869Y01321*
X00869Y01321*
Y01316*
X00869*
X00869Y01316*
X00868Y01316*
X00868Y01316*
X00867Y01317*
X00866Y01317*
X00864Y01317*
X00864*
X00864Y01317*
X00863Y01317*
X00863Y01317*
X00862*
X00861Y01317*
X00859Y01317*
X00859*
X00858Y01317*
X00857Y01317*
X00855Y01317*
X00854Y01317*
X00853Y01316*
X00852Y01316*
X00852Y01316*
X00852Y01315*
X00851Y01315*
X00851Y01315*
X0085Y01314*
X0085Y01313*
X0085Y01312*
X0085Y01311*
Y01311*
Y01311*
X0085Y01311*
X0085Y0131*
X0085Y01309*
X0085Y01309*
X00851Y01308*
X00851Y01308*
X00851Y01308*
X00851Y01308*
X00851Y01307*
X00852Y01307*
X00853Y01306*
X00853Y01306*
X00853Y01306*
X00854Y01306*
X00854Y01305*
X00855Y01305*
X00855Y01305*
X00857Y01304*
X00857*
X00857Y01304*
X00858Y01304*
X00858Y01304*
X00859Y01303*
X00859Y01303*
X00861Y01303*
X00861*
X00861Y01302*
X00862Y01302*
X00862Y01302*
X00863Y01302*
X00864Y01301*
X00865Y01301*
X00865Y01301*
X00865Y01301*
X00866Y013*
X00866Y013*
X00867Y01299*
X00869Y01298*
X00869Y01298*
X00869Y01298*
X00869Y01298*
X00869Y01297*
X0087Y01297*
X0087Y01296*
X00871Y01295*
X00871Y01295*
X00871Y01295*
X00871Y01294*
X00872Y01294*
X00872Y01293*
X00872Y01292*
X00872Y01292*
X00872Y01291*
Y0129*
Y0129*
X00872Y0129*
X00872Y01289*
X00872Y01288*
X00872Y01287*
X00871Y01286*
X00871Y01285*
X00871Y01285*
X00871Y01285*
X0087Y01284*
X0087Y01284*
X00869Y01283*
X00869Y01283*
X00868Y01282*
X00867Y01281*
X00867Y01281*
X00867Y01281*
X00867Y01281*
X00866Y01281*
X00865Y0128*
X00864Y0128*
X00863Y01279*
X00862Y01279*
X00862*
X00861Y01279*
X00861Y01279*
X0086Y01279*
X00859Y01279*
X00858Y01278*
X00857Y01278*
X00854*
X00854Y01278*
X00853*
X00852Y01279*
X00851*
X00851Y01279*
X00851*
X0085Y01279*
X00848Y01279*
X00848*
X00848Y01279*
X00848Y01279*
X00847Y01279*
X00846Y01279*
X00845*
X00845Y01279*
X00845Y01279*
X00845Y0128*
X00844Y0128*
X00843Y0128*
Y01286*
X00843Y01285*
X00844Y01285*
X00844Y01285*
X00845Y01285*
X00845Y01285*
X00846Y01284*
X00847Y01284*
X00849Y01284*
X00849*
X00849Y01284*
X0085Y01284*
X00851Y01284*
X00852Y01284*
X00853Y01284*
X00854Y01284*
X00857*
X00857Y01284*
X00858*
X00859Y01284*
X0086Y01284*
X0086Y01284*
X0086*
X00861Y01284*
X00861Y01284*
X00862Y01284*
X00863Y01285*
X00864Y01285*
X00864Y01285*
X00864Y01285*
X00864Y01286*
X00865Y01287*
X00865Y01287*
Y01287*
X00866Y01288*
X00866Y01288*
X00866Y01288*
X00866Y01289*
X00866Y0129*
Y0129*
Y01291*
X00866Y01291*
X00866Y01291*
X00866Y01292*
X00865Y01293*
X00865Y01293*
X00865Y01293*
X00865Y01293*
X00865Y01294*
X00864Y01294*
X00864Y01295*
X00862Y01295*
X00862Y01295*
X00862Y01296*
X00862Y01296*
X00861Y01296*
X00861Y01296*
X0086Y01297*
X00859Y01297*
X00859Y01297*
X00859Y01297*
X00858Y01297*
X00858Y01298*
X00857Y01298*
X00856Y01298*
X00855Y01299*
X00855Y01299*
X00854Y01299*
X00854Y01299*
X00853Y01299*
X00853Y013*
X00852Y013*
X00851Y01301*
X00851Y01301*
X0085Y01301*
X0085Y01301*
X00849Y01301*
X00848Y01302*
X00847Y01303*
X00847Y01303*
X00847Y01303*
X00847Y01304*
X00846Y01304*
X00846Y01304*
X00845Y01305*
X00845Y01306*
Y01306*
X00844Y01307*
X00844Y01307*
X00844Y01308*
X00844Y01308*
X00844Y01309*
X00844Y0131*
X00844Y01311*
Y01311*
Y01311*
X00844Y01311*
Y01312*
X00844Y01313*
X00844Y01313*
X00844Y01314*
X00844Y01315*
X00845Y01315*
X00845Y01315*
X00845Y01316*
X00845Y01316*
X00846Y01317*
X00846Y01318*
X00847Y01318*
X00847Y01319*
X00847Y01319*
X00848Y01319*
X00848Y01319*
X00849Y0132*
X00849Y0132*
X0085Y01321*
X00851Y01321*
X00852Y01321*
X00852Y01322*
X00853Y01322*
X00854Y01322*
X00854Y01322*
X00855Y01322*
X00857Y01322*
X00858Y01322*
X0086Y01323*
X0086*
X00861Y01322*
G37*
G36*
X00908Y01268D02*
X00898D01*
Y01235*
X00908*
Y0123*
X00882*
Y01235*
X00892*
Y01268*
X00882*
Y01273*
X00908*
Y01268*
G37*
G36*
X00861Y01273D02*
X00862Y01273D01*
X00862*
X00863Y01273*
X00864Y01273*
X00864Y01273*
X00865*
X00865Y01273*
X00865*
X00866Y01273*
X00867Y01272*
X00867*
X00867Y01272*
X00868Y01272*
X00869Y01272*
X00869Y01272*
Y01267*
X00869*
X00869Y01267*
X00868Y01267*
X00868Y01267*
X00867Y01267*
X00866Y01268*
X00864Y01268*
X00864*
X00864Y01268*
X00863Y01268*
X00863Y01268*
X00862*
X00861Y01268*
X00859Y01268*
X00859*
X00858Y01268*
X00857Y01268*
X00855Y01268*
X00854Y01268*
X00853Y01267*
X00852Y01267*
X00852Y01266*
X00852Y01266*
X00851Y01266*
X00851Y01265*
X0085Y01265*
X0085Y01264*
X0085Y01263*
X0085Y01262*
Y01262*
Y01262*
X0085Y01261*
X0085Y01261*
X0085Y0126*
X0085Y0126*
X00851Y01259*
X00851Y01259*
X00851Y01259*
X00851Y01259*
X00851Y01258*
X00852Y01258*
X00853Y01257*
X00853Y01257*
X00853Y01257*
X00854Y01256*
X00854Y01256*
X00855Y01256*
X00855Y01256*
X00857Y01255*
X00857*
X00857Y01255*
X00858Y01255*
X00858Y01255*
X00859Y01254*
X00859Y01254*
X00861Y01253*
X00861*
X00861Y01253*
X00862Y01253*
X00862Y01253*
X00863Y01252*
X00864Y01252*
X00865Y01251*
X00865Y01251*
X00865Y01251*
X00866Y01251*
X00866Y01251*
X00867Y0125*
X00869Y01249*
X00869Y01249*
X00869Y01249*
X00869Y01249*
X00869Y01248*
X0087Y01248*
X0087Y01247*
X00871Y01246*
X00871Y01246*
X00871Y01245*
X00871Y01245*
X00872Y01245*
X00872Y01244*
X00872Y01243*
X00872Y01242*
X00872Y01241*
Y01241*
Y01241*
X00872Y0124*
X00872Y0124*
X00872Y01239*
X00872Y01238*
X00871Y01237*
X00871Y01236*
X00871Y01236*
X00871Y01236*
X0087Y01235*
X0087Y01235*
X00869Y01234*
X00869Y01233*
X00868Y01233*
X00867Y01232*
X00867Y01232*
X00867Y01232*
X00867Y01232*
X00866Y01231*
X00865Y01231*
X00864Y01231*
X00863Y0123*
X00862Y0123*
X00862*
X00861Y0123*
X00861Y0123*
X0086Y0123*
X00859Y01229*
X00858Y01229*
X00857Y01229*
X00854*
X00854Y01229*
X00853*
X00852Y01229*
X00851*
X00851Y01229*
X00851*
X0085Y0123*
X00848Y0123*
X00848*
X00848Y0123*
X00848Y0123*
X00847Y0123*
X00846Y0123*
X00845*
X00845Y0123*
X00845Y0123*
X00845Y0123*
X00844Y01231*
X00843Y01231*
Y01236*
X00843Y01236*
X00844Y01236*
X00844Y01236*
X00845Y01236*
X00845Y01236*
X00846Y01235*
X00847Y01235*
X00849Y01235*
X00849*
X00849Y01235*
X0085Y01235*
X00851Y01235*
X00852Y01235*
X00853Y01234*
X00854Y01234*
X00857*
X00857Y01234*
X00858*
X00859Y01235*
X0086Y01235*
X0086Y01235*
X0086*
X00861Y01235*
X00861Y01235*
X00862Y01235*
X00863Y01236*
X00864Y01236*
X00864Y01236*
X00864Y01236*
X00864Y01237*
X00865Y01237*
X00865Y01238*
Y01238*
X00866Y01238*
X00866Y01239*
X00866Y01239*
X00866Y0124*
X00866Y01241*
Y01241*
Y01241*
X00866Y01242*
X00866Y01242*
X00866Y01243*
X00865Y01244*
X00865Y01244*
X00865Y01244*
X00865Y01244*
X00865Y01244*
X00864Y01245*
X00864Y01245*
X00862Y01246*
X00862Y01246*
X00862Y01246*
X00862Y01247*
X00861Y01247*
X00861Y01247*
X0086Y01247*
X00859Y01248*
X00859Y01248*
X00859Y01248*
X00858Y01248*
X00858Y01248*
X00857Y01249*
X00856Y01249*
X00855Y0125*
X00855Y0125*
X00854Y0125*
X00854Y0125*
X00853Y0125*
X00853Y0125*
X00852Y01251*
X00851Y01251*
X00851Y01252*
X0085Y01252*
X0085Y01252*
X00849Y01252*
X00848Y01253*
X00847Y01254*
X00847Y01254*
X00847Y01254*
X00847Y01254*
X00846Y01255*
X00846Y01255*
X00845Y01256*
X00845Y01257*
Y01257*
X00844Y01257*
X00844Y01258*
X00844Y01258*
X00844Y01259*
X00844Y0126*
X00844Y01261*
X00844Y01261*
Y01262*
Y01262*
X00844Y01262*
Y01263*
X00844Y01263*
X00844Y01264*
X00844Y01265*
X00844Y01266*
X00845Y01266*
X00845Y01266*
X00845Y01267*
X00845Y01267*
X00846Y01268*
X00846Y01268*
X00847Y01269*
X00847Y0127*
X00847Y0127*
X00848Y0127*
X00848Y0127*
X00849Y01271*
X00849Y01271*
X0085Y01271*
X00851Y01272*
X00852Y01272*
X00852Y01272*
X00853Y01272*
X00854Y01273*
X00854Y01273*
X00855Y01273*
X00857Y01273*
X00858Y01273*
X0086Y01273*
X0086*
X00861Y01273*
G37*
G36*
X00801Y0123D02*
X00795D01*
X00794Y01257*
X00794Y01267*
X00792Y01261*
X00786Y01244*
X00782*
X00776Y0126*
X00774Y01267*
X00773Y01256*
X00773Y0123*
X00767*
X00769Y01273*
X00776*
X00782Y01256*
X00784Y01251*
X00786Y01256*
X00792Y01273*
X00799*
X00801Y0123*
G37*
G36*
Y01279D02*
X00795D01*
X00794Y01306*
X00794Y01316*
X00792Y0131*
X00786Y01293*
X00782*
X00776Y01309*
X00774Y01316*
X00773Y01305*
X00773Y01279*
X00767*
X00769Y01322*
X00776*
X00782Y01306*
X00784Y013*
X00786Y01306*
X00792Y01322*
X00799*
X00801Y01279*
G37*
G36*
X00834Y01317D02*
X00824D01*
Y01284*
X00834*
Y01279*
X00808*
Y01284*
X00818*
Y01317*
X00808*
Y01322*
X00834*
Y01317*
G37*
G36*
X00897Y01322D02*
X00898Y01322D01*
X00899Y01322*
X009Y01322*
X00901Y01322*
X00902Y01321*
X00903Y01321*
X00903Y01321*
X00903Y0132*
X00904Y0132*
X00905Y01319*
X00906Y01319*
X00907Y01318*
X00907Y01317*
X00908Y01316*
X00908Y01316*
X00908Y01316*
X00909Y01315*
X00909Y01314*
X0091Y01313*
X0091Y01311*
X00911Y0131*
Y0131*
X00911Y0131*
Y01309*
X00911Y01309*
X00911Y01308*
X00911Y01307*
X00911Y01306*
X00911Y01304*
X00912Y01303*
X00912Y01301*
Y01301*
Y013*
Y013*
Y013*
X00912Y01299*
Y01299*
X00911Y01297*
X00911Y01296*
X00911Y01294*
X00911Y01292*
X0091Y01291*
Y01291*
X0091Y01291*
X0091Y0129*
X0091Y0129*
X0091Y01289*
X00909Y01288*
X00909Y01287*
X00908Y01286*
X00907Y01285*
X00907Y01284*
X00906Y01284*
X00906Y01283*
X00906Y01283*
X00905Y01282*
X00904Y01282*
X00903Y01281*
X00902Y0128*
X00901Y0128*
X00901Y0128*
X00901Y01279*
X009Y01279*
X00899Y01279*
X00898Y01279*
X00897Y01279*
X00896Y01278*
X00895Y01278*
X00894*
X00893Y01278*
X00892Y01279*
X00891Y01279*
X0089Y01279*
X00889Y01279*
X00887Y0128*
X00887Y0128*
X00887Y0128*
X00886Y0128*
X00886Y01281*
X00885Y01282*
X00884Y01282*
X00883Y01283*
X00882Y01284*
X00882Y01284*
X00882Y01285*
X00882Y01285*
X00881Y01286*
X00881Y01287*
X0088Y01288*
X0088Y0129*
X00879Y01291*
Y01291*
Y01291*
X00879Y01291*
X00879Y01292*
X00879Y01292*
X00879Y01293*
X00879Y01294*
X00879Y01295*
X00878Y01297*
X00878Y01298*
X00878Y013*
Y013*
Y013*
Y01301*
Y01301*
X00878Y01302*
Y01302*
X00878Y01304*
X00879Y01305*
X00879Y01307*
X00879Y01309*
X0088Y0131*
Y0131*
X0088Y0131*
X0088Y01311*
X0088Y01311*
X0088Y01312*
X00881Y01313*
X00881Y01314*
X00882Y01315*
X00882Y01316*
X00883Y01317*
X00883Y01317*
X00884Y01318*
X00884Y01318*
X00885Y01319*
X00886Y01319*
X00886Y0132*
X00888Y01321*
X00889Y01321*
X00889Y01321*
X00889Y01321*
X0089Y01322*
X00891Y01322*
X00892Y01322*
X00893Y01322*
X00894Y01322*
X00895Y01323*
X00896*
X00897Y01322*
G37*
G36*
X00785Y01381D02*
X00786Y01381D01*
X00786*
X00787Y01381*
X00788Y01381*
X00789Y01381*
X00789*
X00789Y01381*
X00789*
X0079Y01381*
X00791Y01381*
X00791*
X00792Y01381*
X00792Y01381*
X00793Y0138*
X00793Y0138*
Y01375*
X00793*
X00793Y01375*
X00793Y01375*
X00792Y01375*
X00791Y01376*
X0079Y01376*
X00788Y01376*
X00788*
X00788Y01376*
X00787Y01376*
X00787Y01376*
X00786*
X00785Y01376*
X00784Y01376*
X00783*
X00782Y01376*
X00781Y01376*
X0078Y01376*
X00778Y01376*
X00777Y01375*
X00776Y01375*
X00776Y01375*
X00776Y01374*
X00775Y01374*
X00775Y01374*
X00775Y01373*
X00774Y01372*
X00774Y01371*
X00774Y0137*
Y0137*
Y0137*
X00774Y0137*
X00774Y01369*
X00774Y01368*
X00774Y01368*
X00775Y01367*
X00775Y01367*
X00775Y01367*
X00775Y01367*
X00775Y01367*
X00776Y01366*
X00777Y01365*
X00777Y01365*
X00778Y01365*
X00778Y01365*
X00778Y01365*
X00779Y01364*
X0078Y01364*
X00781Y01363*
X00781*
X00781Y01363*
X00782Y01363*
X00782Y01363*
X00783Y01363*
X00783Y01362*
X00785Y01362*
X00785*
X00785Y01361*
X00786Y01361*
X00786Y01361*
X00787Y01361*
X00788Y0136*
X00789Y0136*
X00789Y0136*
X00789Y0136*
X0079Y01359*
X0079Y01359*
X00791Y01358*
X00793Y01357*
X00793Y01357*
X00793Y01357*
X00793Y01357*
X00794Y01356*
X00794Y01356*
X00794Y01355*
X00795Y01354*
X00795Y01354*
X00795Y01354*
X00796Y01353*
X00796Y01353*
X00796Y01352*
X00796Y01351*
X00796Y01351*
X00796Y0135*
Y0135*
Y01349*
X00796Y01349*
X00796Y01348*
X00796Y01347*
X00796Y01346*
X00795Y01345*
X00795Y01344*
X00795Y01344*
X00795Y01344*
X00794Y01343*
X00794Y01343*
X00794Y01342*
X00793Y01342*
X00792Y01341*
X00791Y0134*
X00791Y0134*
X00791Y0134*
X00791Y0134*
X0079Y0134*
X00789Y01339*
X00788Y01339*
X00787Y01338*
X00786Y01338*
X00786*
X00786Y01338*
X00785Y01338*
X00784Y01338*
X00783Y01338*
X00782Y01338*
X00781Y01337*
X00778*
X00778Y01338*
X00777*
X00776Y01338*
X00776*
X00775Y01338*
X00775*
X00774Y01338*
X00773Y01338*
X00772*
X00772Y01338*
X00772Y01338*
X00771Y01338*
X0077Y01338*
X0077*
X00769Y01338*
X00769Y01339*
X00769Y01339*
X00768Y01339*
X00767Y01339*
Y01345*
X00767Y01345*
X00768Y01344*
X00768Y01344*
X00769Y01344*
X0077Y01344*
X00771Y01344*
X00772Y01343*
X00773Y01343*
X00773*
X00773Y01343*
X00774Y01343*
X00775Y01343*
X00776Y01343*
X00777Y01343*
X00778Y01343*
X00781*
X00781Y01343*
X00782*
X00783Y01343*
X00784Y01343*
X00785Y01343*
X00785*
X00785Y01343*
X00785Y01343*
X00786Y01343*
X00787Y01344*
X00788Y01344*
X00788Y01344*
X00788Y01344*
X00788Y01345*
X00789Y01346*
X0079Y01346*
Y01347*
X0079Y01347*
X0079Y01347*
X0079Y01347*
X0079Y01348*
X0079Y01349*
Y01349*
Y0135*
X0079Y0135*
X0079Y0135*
X0079Y01351*
X00789Y01352*
X00789Y01352*
X00789Y01352*
X00789Y01353*
X00789Y01353*
X00788Y01353*
X00788Y01354*
X00787Y01354*
X00786Y01355*
X00786Y01355*
X00786Y01355*
X00786Y01355*
X00785Y01355*
X00784Y01356*
X00783Y01356*
X00783Y01356*
X00783Y01356*
X00782Y01357*
X00782Y01357*
X00781Y01357*
X0078Y01357*
X00779Y01358*
X00779Y01358*
X00779Y01358*
X00778Y01358*
X00778Y01358*
X00777Y01359*
X00776Y01359*
X00775Y0136*
X00775Y0136*
X00775Y0136*
X00774Y0136*
X00774Y0136*
X00772Y01361*
X00771Y01362*
X00771Y01362*
X00771Y01362*
X00771Y01363*
X0077Y01363*
X0077Y01364*
X0077Y01364*
X00769Y01365*
Y01365*
X00769Y01366*
X00768Y01366*
X00768Y01367*
X00768Y01367*
X00768Y01368*
X00768Y01369*
X00768Y0137*
Y0137*
Y0137*
X00768Y0137*
Y01371*
X00768Y01372*
X00768Y01372*
X00768Y01373*
X00769Y01374*
X00769Y01374*
X00769Y01374*
X00769Y01375*
X00769Y01375*
X0077Y01376*
X0077Y01377*
X00771Y01377*
X00771Y01378*
X00772Y01378*
X00772Y01378*
X00772Y01378*
X00773Y01379*
X00774Y01379*
X00774Y0138*
X00775Y0138*
X00776Y0138*
X00777Y01381*
X00777Y01381*
X00778Y01381*
X00779Y01381*
X0078Y01381*
X00781Y01381*
X00782Y01381*
X00784Y01382*
X00784*
X00785Y01381*
G37*
%LNpcb1-2*%
%LPC*%
G36*
X00779Y01435D02*
X00773D01*
Y01421*
X00779*
X00779Y01421*
X0078Y01421*
X00781Y01421*
X00782*
X00782Y01421*
X00782Y01422*
X00782Y01422*
X00783Y01422*
X00784Y01423*
X00784Y01423*
X00785Y01423*
X00785Y01423*
X00786Y01424*
X00786Y01425*
Y01425*
X00786Y01425*
X00786Y01426*
X00786Y01426*
X00787Y01426*
X00787Y01427*
X00787Y01428*
Y01428*
Y01428*
Y01429*
X00787Y01429*
X00786Y0143*
X00786Y01431*
X00786Y01432*
X00785Y01433*
X00785Y01433*
X00785Y01433*
X00784Y01434*
X00784Y01434*
X00783Y01434*
X00782Y01435*
X00781Y01435*
X0078Y01435*
X00779Y01435*
G37*
G36*
X00855Y01553D02*
X00848D01*
Y0152*
X00853*
X00854Y0152*
X00855Y01521*
X00856Y01521*
X00857Y01521*
X00859Y01522*
X0086Y01522*
X00861Y01523*
X00863Y01524*
X00864Y01526*
X00865Y01527*
X00866Y01528*
X00866Y01529*
X00866Y0153*
X00867Y01531*
X00867Y01533*
X00867Y01534*
X00867Y01535*
X00867Y01537*
Y01537*
Y01537*
Y01537*
Y01537*
X00867Y01538*
Y01539*
X00867Y01541*
X00867Y01542*
X00867Y01543*
X00866Y01544*
Y01545*
X00866Y01545*
X00866Y01546*
X00866Y01546*
X00865Y01547*
X00865Y01548*
X00864Y01549*
X00864Y0155*
X00864Y0155*
X00864Y0155*
X00863Y0155*
X00863Y01551*
X00862Y01551*
X00861Y01552*
X0086Y01552*
X0086Y01552*
X00859Y01552*
X00859Y01552*
X00859Y01553*
X00858Y01553*
X00857Y01553*
X00856Y01553*
X00855Y01553*
G37*
G36*
X00821Y01268D02*
X00821D01*
X0082Y01268*
X00819Y01268*
X00819Y01268*
X00818Y01268*
X00817Y01267*
X00816Y01267*
X00816Y01267*
X00816Y01267*
X00815Y01266*
X00815Y01266*
X00814Y01265*
X00814Y01265*
X00813Y01264*
X00813Y01263*
X00813Y01263*
X00813Y01263*
X00812Y01262*
X00812Y01262*
X00812Y01261*
X00811Y0126*
X00811Y01259*
X00811Y01258*
Y01258*
X00811Y01257*
X00811Y01257*
X00811Y01256*
X0081Y01255*
X0081Y01254*
X0081Y01253*
Y01251*
Y01251*
Y01251*
Y01251*
Y0125*
X0081Y01249*
X0081Y01248*
X0081Y01247*
X00811Y01244*
Y01244*
X00811Y01244*
X00811Y01243*
X00811Y01242*
X00812Y01242*
X00812Y01241*
X00813Y01239*
X00813Y01239*
X00813Y01239*
X00813Y01238*
X00814Y01238*
X00814Y01237*
X00815Y01237*
X00815Y01236*
X00816Y01236*
X00816Y01235*
X00816Y01235*
X00817Y01235*
X00817Y01235*
X00818Y01235*
X00819Y01235*
X0082Y01234*
X00821Y01234*
X00821*
X00822Y01234*
X00823Y01234*
X00823Y01235*
X00824Y01235*
X00825Y01235*
X00826Y01236*
X00826Y01236*
X00826Y01236*
X00827Y01236*
X00827Y01237*
X00828Y01237*
X00828Y01238*
X00829Y01238*
X00829Y01239*
X00829Y01239*
X00829Y0124*
X0083Y0124*
X0083Y01241*
X0083Y01241*
X00831Y01242*
X00831Y01243*
X00831Y01244*
Y01245*
X00831Y01245*
X00831Y01246*
X00832Y01246*
X00832Y01247*
X00832Y01249*
X00832Y0125*
Y01251*
Y01251*
Y01251*
Y01252*
Y01252*
X00832Y01253*
X00832Y01254*
X00832Y01256*
X00831Y01258*
Y01258*
X00831Y01258*
X00831Y01259*
X00831Y0126*
X00831Y01261*
X0083Y01262*
X0083Y01262*
X00829Y01263*
X00829Y01263*
X00829Y01264*
X00829Y01264*
X00828Y01265*
X00828Y01265*
X00827Y01266*
X00827Y01266*
X00826Y01267*
X00826Y01267*
X00826Y01267*
X00825Y01267*
X00825Y01268*
X00824Y01268*
X00823Y01268*
X00822Y01268*
X00821Y01268*
G37*
G36*
X00895Y01317D02*
X00894D01*
X00894Y01317*
X00893Y01317*
X00892Y01317*
X00892Y01317*
X00891Y01316*
X0089Y01316*
X0089Y01316*
X0089Y01316*
X00889Y01315*
X00889Y01315*
X00888Y01315*
X00888Y01314*
X00887Y01313*
X00887Y01312*
X00887Y01312*
X00886Y01312*
X00886Y01311*
X00886Y01311*
X00886Y0131*
X00885Y01309*
X00885Y01308*
X00885Y01307*
Y01307*
X00885Y01306*
X00885Y01306*
X00884Y01305*
X00884Y01304*
X00884Y01303*
X00884Y01302*
Y01301*
Y013*
Y013*
Y013*
Y01299*
X00884Y01298*
X00884Y01297*
X00884Y01296*
X00885Y01294*
Y01293*
X00885Y01293*
X00885Y01292*
X00885Y01292*
X00885Y01291*
X00886Y0129*
X00887Y01288*
X00887Y01288*
X00887Y01288*
X00887Y01287*
X00887Y01287*
X00888Y01286*
X00888Y01286*
X00889Y01285*
X0089Y01285*
X0089Y01285*
X0089Y01285*
X00891Y01284*
X00891Y01284*
X00892Y01284*
X00893Y01284*
X00894Y01284*
X00895Y01283*
X00895*
X00896Y01284*
X00897Y01284*
X00897Y01284*
X00898Y01284*
X00899Y01284*
X009Y01285*
X009Y01285*
X009Y01285*
X009Y01285*
X00901Y01286*
X00901Y01286*
X00902Y01287*
X00903Y01288*
X00903Y01288*
X00903Y01288*
X00903Y01289*
X00904Y01289*
X00904Y0129*
X00904Y01291*
X00905Y01292*
X00905Y01293*
X00905Y01294*
Y01294*
X00905Y01294*
X00905Y01295*
X00905Y01296*
X00906Y01297*
X00906Y01298*
X00906Y01299*
Y013*
Y013*
Y013*
Y01301*
Y01302*
X00906Y01303*
X00906Y01304*
X00906Y01305*
X00905Y01307*
Y01307*
X00905Y01308*
X00905Y01308*
X00905Y01309*
X00904Y0131*
X00904Y01311*
X00904Y01312*
X00903Y01313*
X00903Y01313*
X00903Y01313*
X00903Y01313*
X00902Y01314*
X00902Y01314*
X00901Y01315*
X00901Y01316*
X009Y01316*
X009Y01316*
X00899Y01316*
X00899Y01316*
X00898Y01317*
X00898Y01317*
X00897Y01317*
X00896Y01317*
X00895Y01317*
G37*
%LNpcb1-3*%
%LPD*%
G54D15*
X01153Y00663D02*
D01*
X01153Y00664*
X01153Y00665*
X01153Y00666*
X01152Y00667*
X01152Y00668*
X01152Y00669*
X01151Y0067*
X01151Y00671*
X0115Y00672*
X01149Y00673*
X01149Y00674*
X01148Y00674*
X01147Y00675*
X01146Y00676*
X01145Y00676*
X01144Y00677*
X01143Y00677*
X01142Y00678*
X01141Y00678*
X0114Y00678*
X01139Y00678*
X01138Y00678*
X01137*
X01136Y00678*
X01134Y00678*
X01133Y00678*
X01132Y00678*
X01131Y00677*
X0113Y00677*
X01129Y00676*
X01128Y00676*
X01127Y00675*
X01127Y00674*
X01126Y00674*
X01125Y00673*
X01124Y00672*
X01124Y00671*
X01123Y0067*
X01123Y00669*
X01122Y00668*
X01122Y00667*
X01122Y00666*
X01122Y00665*
X01121Y00664*
X01121Y00663*
X01121Y00662*
X01122Y0066*
X01122Y00659*
X01122Y00658*
X01122Y00657*
X01123Y00656*
X01123Y00655*
X01124Y00654*
X01124Y00653*
X01125Y00653*
X01126Y00652*
X01127Y00651*
X01127Y0065*
X01128Y0065*
X01129Y00649*
X0113Y00648*
X01131Y00648*
X01132Y00648*
X01133Y00647*
X01134Y00647*
X01136Y00647*
X01137Y00647*
X01138*
X01139Y00647*
X0114Y00647*
X01141Y00647*
X01142Y00648*
X01143Y00648*
X01144Y00648*
X01145Y00649*
X01146Y0065*
X01147Y0065*
X01148Y00651*
X01149Y00652*
X01149Y00653*
X0115Y00653*
X01151Y00654*
X01151Y00655*
X01152Y00656*
X01152Y00657*
X01152Y00658*
X01153Y00659*
X01153Y0066*
X01153Y00662*
X01153Y00663*
X01387Y01633D02*
D01*
X01387Y0164*
X01386Y01647*
X01385Y01654*
X01383Y0166*
X01381Y01667*
X01379Y01673*
X01376Y0168*
X01372Y01686*
X01368Y01691*
X01364Y01697*
X0136Y01702*
X01355Y01707*
X01349Y01711*
X01344Y01715*
X01338Y01719*
X01332Y01722*
X01326Y01725*
X01319Y01727*
X01313Y01729*
X01306Y0173*
X01299Y01731*
X01292Y01732*
X01285*
X01279Y01731*
X01272Y0173*
X01265Y01729*
X01258Y01727*
X01252Y01725*
X01246Y01722*
X0124Y01719*
X01234Y01715*
X01228Y01711*
X01223Y01707*
X01218Y01702*
X01213Y01697*
X01209Y01691*
X01205Y01686*
X01202Y0168*
X01199Y01673*
X01196Y01667*
X01194Y0166*
X01193Y01654*
X01191Y01647*
X01191Y0164*
X0119Y01633*
X01191Y01626*
X01191Y0162*
X01193Y01613*
X01194Y01606*
X01196Y016*
X01199Y01593*
X01202Y01587*
X01205Y01581*
X01209Y01576*
X01213Y0157*
X01218Y01565*
X01223Y0156*
X01228Y01556*
X01234Y01552*
X0124Y01548*
X01246Y01545*
X01252Y01542*
X01258Y0154*
X01265Y01538*
X01272Y01536*
X01279Y01535*
X01285Y01535*
X01292*
X01299Y01535*
X01306Y01536*
X01313Y01538*
X01319Y0154*
X01326Y01542*
X01332Y01545*
X01338Y01548*
X01344Y01552*
X01349Y01556*
X01355Y0156*
X0136Y01565*
X01364Y0157*
X01368Y01576*
X01372Y01581*
X01376Y01587*
X01379Y01593*
X01381Y016*
X01383Y01606*
X01385Y01613*
X01386Y0162*
X01387Y01626*
X01387Y01633*
X00551Y01564D02*
D01*
X00554Y01565*
X00558Y01565*
X00561Y01566*
X00564Y01566*
X00568Y01567*
X00571Y01569*
X00574Y0157*
X00577Y01572*
X0058Y01574*
X00582Y01576*
X00585Y01578*
X00587Y01581*
X00589Y01583*
X00591Y01586*
X00593Y01589*
X00595Y01592*
X00596Y01595*
X00597Y01598*
X00598Y01602*
X00599Y01605*
X006Y01609*
X006Y01612*
X006Y01614*
X00994Y0122D02*
D01*
X0099Y0122*
X00987Y01219*
X00983Y01219*
X0098Y01218*
X00977Y01217*
X00974Y01216*
X0097Y01214*
X00968Y01212*
X00965Y01211*
X00962Y01208*
X00959Y01206*
X00957Y01204*
X00955Y01201*
X00953Y01198*
X00951Y01195*
X00949Y01192*
X00948Y01189*
X00947Y01186*
X00946Y01183*
X00945Y01179*
X00945Y01176*
X00944Y01172*
X00944Y01171*
X00659Y01564D02*
X00718D01*
X00659Y0123D02*
Y01564D01*
Y0123D02*
X00718D01*
Y01564*
Y01505D02*
Y01564D01*
X00659Y01505D02*
X00718D01*
X006Y01614D02*
X00994D01*
Y0122D02*
Y01614D01*
X00551Y01171D02*
X00944D01*
X00551D02*
Y01564D01*
G54D28*
X00777Y00285D02*
D01*
X00777Y0029*
X00776Y00295*
X00776Y00299*
X00774Y00304*
X00773Y00308*
X00771Y00313*
X00769Y00317*
X00767Y00321*
X00764Y00325*
X00761Y00329*
X00758Y00333*
X00754Y00336*
X00751Y00339*
X00747Y00342*
X00743Y00345*
X00738Y00347*
X00734Y00349*
X00729Y0035*
X00725Y00352*
X0072Y00353*
X00715Y00353*
X00711Y00354*
X00706*
X00701Y00353*
X00696Y00353*
X00691Y00352*
X00687Y0035*
X00682Y00349*
X00678Y00347*
X00674Y00345*
X0067Y00342*
X00666Y00339*
X00662Y00336*
X00659Y00333*
X00655Y00329*
X00652Y00325*
X0065Y00321*
X00647Y00317*
X00645Y00313*
X00643Y00308*
X00642Y00304*
X00641Y00299*
X0064Y00295*
X00639Y0029*
X00639Y00285*
X00639Y0028*
X0064Y00275*
X00641Y00271*
X00642Y00266*
X00643Y00261*
X00645Y00257*
X00647Y00253*
X0065Y00248*
X00652Y00244*
X00655Y00241*
X00659Y00237*
X00662Y00234*
X00666Y00231*
X0067Y00228*
X00674Y00225*
X00678Y00223*
X00682Y00221*
X00687Y00219*
X00691Y00218*
X00696Y00217*
X00701Y00216*
X00706Y00216*
X00711*
X00715Y00216*
X0072Y00217*
X00725Y00218*
X00729Y00219*
X00734Y00221*
X00738Y00223*
X00743Y00225*
X00747Y00228*
X00751Y00231*
X00754Y00234*
X00758Y00237*
X00761Y00241*
X00764Y00244*
X00767Y00248*
X00769Y00253*
X00771Y00257*
X00773Y00261*
X00774Y00266*
X00776Y00271*
X00776Y00275*
X00777Y0028*
X00777Y00285*
D01*
X00777Y0029*
X00776Y00295*
X00776Y00299*
X00774Y00304*
X00773Y00308*
X00771Y00313*
X00769Y00317*
X00767Y00321*
X00764Y00325*
X00761Y00329*
X00758Y00333*
X00754Y00336*
X00751Y00339*
X00747Y00342*
X00743Y00345*
X00738Y00347*
X00734Y00349*
X00729Y0035*
X00725Y00352*
X0072Y00353*
X00715Y00353*
X00711Y00354*
X00706*
X00701Y00353*
X00696Y00353*
X00691Y00352*
X00687Y0035*
X00682Y00349*
X00678Y00347*
X00674Y00345*
X0067Y00342*
X00666Y00339*
X00662Y00336*
X00659Y00333*
X00655Y00329*
X00652Y00325*
X0065Y00321*
X00647Y00317*
X00645Y00313*
X00643Y00308*
X00642Y00304*
X00641Y00299*
X0064Y00295*
X00639Y0029*
X00639Y00285*
X00639Y0028*
X0064Y00275*
X00641Y00271*
X00642Y00266*
X00643Y00261*
X00645Y00257*
X00647Y00253*
X0065Y00248*
X00652Y00244*
X00655Y00241*
X00659Y00237*
X00662Y00234*
X00666Y00231*
X0067Y00228*
X00674Y00225*
X00678Y00223*
X00682Y00221*
X00687Y00219*
X00691Y00218*
X00696Y00217*
X00701Y00216*
X00706Y00216*
X00711*
X00715Y00216*
X0072Y00217*
X00725Y00218*
X00729Y00219*
X00734Y00221*
X00738Y00223*
X00743Y00225*
X00747Y00228*
X00751Y00231*
X00754Y00234*
X00758Y00237*
X00761Y00241*
X00764Y00244*
X00767Y00248*
X00769Y00253*
X00771Y00257*
X00773Y00261*
X00774Y00266*
X00776Y00271*
X00776Y00275*
X00777Y0028*
X00777Y00285*
X00393D02*
D01*
X00393Y0029*
X00393Y00295*
X00392Y00299*
X00391Y00304*
X00389Y00308*
X00387Y00313*
X00385Y00317*
X00383Y00321*
X0038Y00325*
X00377Y00329*
X00374Y00333*
X0037Y00336*
X00367Y00339*
X00363Y00342*
X00359Y00345*
X00355Y00347*
X0035Y00349*
X00346Y0035*
X00341Y00352*
X00336Y00353*
X00332Y00353*
X00327Y00354*
X00322*
X00317Y00353*
X00312Y00353*
X00308Y00352*
X00303Y0035*
X00298Y00349*
X00294Y00347*
X0029Y00345*
X00286Y00342*
X00282Y00339*
X00278Y00336*
X00275Y00333*
X00272Y00329*
X00269Y00325*
X00266Y00321*
X00263Y00317*
X00261Y00313*
X0026Y00308*
X00258Y00304*
X00257Y00299*
X00256Y00295*
X00256Y0029*
X00255Y00285*
X00256Y0028*
X00256Y00275*
X00257Y00271*
X00258Y00266*
X0026Y00261*
X00261Y00257*
X00263Y00253*
X00266Y00248*
X00269Y00244*
X00272Y00241*
X00275Y00237*
X00278Y00234*
X00282Y00231*
X00286Y00228*
X0029Y00225*
X00294Y00223*
X00298Y00221*
X00303Y00219*
X00308Y00218*
X00312Y00217*
X00317Y00216*
X00322Y00216*
X00327*
X00332Y00216*
X00336Y00217*
X00341Y00218*
X00346Y00219*
X0035Y00221*
X00355Y00223*
X00359Y00225*
X00363Y00228*
X00367Y00231*
X0037Y00234*
X00374Y00237*
X00377Y00241*
X0038Y00244*
X00383Y00248*
X00385Y00253*
X00387Y00257*
X00389Y00261*
X00391Y00266*
X00392Y00271*
X00393Y00275*
X00393Y0028*
X00393Y00285*
D01*
X00393Y0029*
X00393Y00295*
X00392Y00299*
X00391Y00304*
X00389Y00308*
X00387Y00313*
X00385Y00317*
X00383Y00321*
X0038Y00325*
X00377Y00329*
X00374Y00333*
X0037Y00336*
X00367Y00339*
X00363Y00342*
X00359Y00345*
X00355Y00347*
X0035Y00349*
X00346Y0035*
X00341Y00352*
X00336Y00353*
X00332Y00353*
X00327Y00354*
X00322*
X00317Y00353*
X00312Y00353*
X00308Y00352*
X00303Y0035*
X00298Y00349*
X00294Y00347*
X0029Y00345*
X00286Y00342*
X00282Y00339*
X00278Y00336*
X00275Y00333*
X00272Y00329*
X00269Y00325*
X00266Y00321*
X00263Y00317*
X00261Y00313*
X0026Y00308*
X00258Y00304*
X00257Y00299*
X00256Y00295*
X00256Y0029*
X00255Y00285*
X00256Y0028*
X00256Y00275*
X00257Y00271*
X00258Y00266*
X0026Y00261*
X00261Y00257*
X00263Y00253*
X00266Y00248*
X00269Y00244*
X00272Y00241*
X00275Y00237*
X00278Y00234*
X00282Y00231*
X00286Y00228*
X0029Y00225*
X00294Y00223*
X00298Y00221*
X00303Y00219*
X00308Y00218*
X00312Y00217*
X00317Y00216*
X00322Y00216*
X00327*
X00332Y00216*
X00336Y00217*
X00341Y00218*
X00346Y00219*
X0035Y00221*
X00355Y00223*
X00359Y00225*
X00363Y00228*
X00367Y00231*
X0037Y00234*
X00374Y00237*
X00377Y00241*
X0038Y00244*
X00383Y00248*
X00385Y00253*
X00387Y00257*
X00389Y00261*
X00391Y00266*
X00392Y00271*
X00393Y00275*
X00393Y0028*
X00393Y00285*
X01171D02*
D01*
X01171Y0029*
X0117Y00295*
X01169Y00299*
X01168Y00304*
X01167Y00308*
X01165Y00313*
X01163Y00317*
X0116Y00321*
X01158Y00325*
X01155Y00329*
X01151Y00333*
X01148Y00336*
X01144Y00339*
X0114Y00342*
X01136Y00345*
X01132Y00347*
X01128Y00349*
X01123Y0035*
X01119Y00352*
X01114Y00353*
X01109Y00353*
X01104Y00354*
X01099*
X01095Y00353*
X0109Y00353*
X01085Y00352*
X01081Y0035*
X01076Y00349*
X01072Y00347*
X01067Y00345*
X01063Y00342*
X01059Y00339*
X01056Y00336*
X01052Y00333*
X01049Y00329*
X01046Y00325*
X01043Y00321*
X01041Y00317*
X01039Y00313*
X01037Y00308*
X01036Y00304*
X01034Y00299*
X01034Y00295*
X01033Y0029*
X01033Y00285*
X01033Y0028*
X01034Y00275*
X01034Y00271*
X01036Y00266*
X01037Y00261*
X01039Y00257*
X01041Y00253*
X01043Y00248*
X01046Y00244*
X01049Y00241*
X01052Y00237*
X01056Y00234*
X01059Y00231*
X01063Y00228*
X01067Y00225*
X01072Y00223*
X01076Y00221*
X01081Y00219*
X01085Y00218*
X0109Y00217*
X01095Y00216*
X01099Y00216*
X01104*
X01109Y00216*
X01114Y00217*
X01119Y00218*
X01123Y00219*
X01128Y00221*
X01132Y00223*
X01136Y00225*
X0114Y00228*
X01144Y00231*
X01148Y00234*
X01151Y00237*
X01155Y00241*
X01158Y00244*
X0116Y00248*
X01163Y00253*
X01165Y00257*
X01167Y00261*
X01168Y00266*
X01169Y00271*
X0117Y00275*
X01171Y0028*
X01171Y00285*
D01*
X01171Y0029*
X0117Y00295*
X01169Y00299*
X01168Y00304*
X01167Y00308*
X01165Y00313*
X01163Y00317*
X0116Y00321*
X01158Y00325*
X01155Y00329*
X01151Y00333*
X01148Y00336*
X01144Y00339*
X0114Y00342*
X01136Y00345*
X01132Y00347*
X01128Y00349*
X01123Y0035*
X01119Y00352*
X01114Y00353*
X01109Y00353*
X01104Y00354*
X01099*
X01095Y00353*
X0109Y00353*
X01085Y00352*
X01081Y0035*
X01076Y00349*
X01072Y00347*
X01067Y00345*
X01063Y00342*
X01059Y00339*
X01056Y00336*
X01052Y00333*
X01049Y00329*
X01046Y00325*
X01043Y00321*
X01041Y00317*
X01039Y00313*
X01037Y00308*
X01036Y00304*
X01034Y00299*
X01034Y00295*
X01033Y0029*
X01033Y00285*
X01033Y0028*
X01034Y00275*
X01034Y00271*
X01036Y00266*
X01037Y00261*
X01039Y00257*
X01041Y00253*
X01043Y00248*
X01046Y00244*
X01049Y00241*
X01052Y00237*
X01056Y00234*
X01059Y00231*
X01063Y00228*
X01067Y00225*
X01072Y00223*
X01076Y00221*
X01081Y00219*
X01085Y00218*
X0109Y00217*
X01095Y00216*
X01099Y00216*
X01104*
X01109Y00216*
X01114Y00217*
X01119Y00218*
X01123Y00219*
X01128Y00221*
X01132Y00223*
X01136Y00225*
X0114Y00228*
X01144Y00231*
X01148Y00234*
X01151Y00237*
X01155Y00241*
X01158Y00244*
X0116Y00248*
X01163Y00253*
X01165Y00257*
X01167Y00261*
X01168Y00266*
X01169Y00271*
X0117Y00275*
X01171Y0028*
X01171Y00285*
X01158Y0084D02*
X01186D01*
Y00635D02*
Y0084D01*
X01158Y00635D02*
X01186D01*
X00979D02*
Y0084D01*
X01158*
X00979Y00635D02*
X01158D01*
X00669Y00163D02*
X00748D01*
X00669Y00407D02*
X00748D01*
X0083Y00226D02*
Y00344D01*
X00586Y00226D02*
Y00344D01*
X00202Y00226D02*
Y00344D01*
X00446Y00226D02*
Y00344D01*
X00285Y00407D02*
X00364D01*
X00285Y00163D02*
X00364D01*
X01062D02*
X01141D01*
X01062Y00407D02*
X01141D01*
X01224Y00226D02*
Y00344D01*
X0098Y00226D02*
Y00344D01*
X00262Y00973D02*
X00312D01*
X00262Y01373D02*
X00312D01*
G54D29*
X00018Y00916D02*
Y01516D01*
X00118Y00916D02*
Y01516D01*
X00018D02*
X00118D01*
X00018Y00916D02*
X00118D01*
G54D30*
X00427Y01665D02*
Y01716D01*
X00293Y01746D02*
X00413D01*
X00242D02*
X00293D01*
X00177D02*
X00242D01*
X00163Y01665D02*
Y01716D01*
X00283Y01639D02*
X0035D01*
X00242Y01805D02*
X00293D01*
Y01746D02*
Y01805D01*
X00242Y01746D02*
Y01805D01*
G54D31*
X01102Y00531D03*
X00708D03*
X00324D03*
M02*